<svg width="452" height="300" viewBox="0 0 452 300" fill="none" xmlns="http://www.w3.org/2000/svg">
<g clip-path="url(#clip0)">
<path d="M93.0865 14.2188H25.7807V111.781H93.0865V14.2188Z" fill="#E0E0E0"/>
<path d="M89.7117 14.2188H22.4059V111.781H89.7117V14.2188Z" fill="#F5F5F5"/>
<path d="M81.3553 24.7822H30.7696V101.207H81.3553V24.7822Z" fill="white"/>
<path d="M81.3553 101.208C81.3553 101.208 81.348 101.076 81.348 100.834C81.348 100.584 81.3406 100.225 81.3406 99.7477C81.3333 98.7866 81.326 97.378 81.3186 95.5585C81.3113 91.8976 81.2893 86.5565 81.2746 79.8142C81.2526 66.3369 81.2232 47.2545 81.1939 24.7825L81.3626 24.9513C65.9118 24.9586 48.7809 24.9586 30.7843 24.966H30.7769L30.9603 24.7825C30.9457 53.6153 30.931 80.1957 30.9237 101.208L30.7769 101.061C46.1838 101.09 58.81 101.12 67.5919 101.134C71.9865 101.149 75.42 101.164 77.7604 101.171C78.9269 101.178 79.822 101.186 80.4309 101.186C81.0398 101.2 81.3553 101.208 81.3553 101.208C81.3553 101.208 81.0545 101.215 80.4602 101.222C79.8513 101.23 78.9709 101.23 77.8191 101.237C75.4787 101.244 72.0599 101.259 67.6799 101.274C58.8687 101.288 46.2131 101.318 30.7696 101.347H30.6229V101.2C30.6155 80.1884 30.6009 53.6006 30.5862 24.7752V24.5918H30.7696H30.7769C48.7736 24.5991 65.8971 24.5991 81.3553 24.6065H81.5241V24.7752C81.4874 47.2912 81.4654 66.4176 81.4434 79.9169C81.4213 86.6446 81.4067 91.9709 81.3993 95.6245C81.392 97.4367 81.3847 98.8306 81.3773 99.7844C81.37 100.247 81.37 100.599 81.37 100.848C81.3626 101.09 81.3553 101.208 81.3553 101.208Z" fill="#E0E0E0"/>
<path d="M89.9097 14.2183C89.9464 14.2477 89.4915 14.9153 88.7065 15.9645C87.9215 17.0136 86.8137 18.4295 85.5518 19.9702C84.2826 21.5109 83.1014 22.8682 82.2283 23.8366C81.3553 24.805 80.783 25.3773 80.7463 25.3479C80.7097 25.3113 81.2085 24.6803 82.0302 23.6679C82.9326 22.5747 84.0405 21.2248 85.273 19.7355C86.4982 18.2461 87.606 16.8962 88.5084 15.8031C89.3375 14.7979 89.8657 14.1817 89.9097 14.2183Z" fill="#E0E0E0"/>
<path d="M81.613 100.966C84.1221 104.964 87.0934 108.669 90.4389 112L81.613 100.966Z" fill="white"/>
<path d="M90.438 112C90.4013 112.037 89.807 111.516 88.8973 110.599C87.9949 109.689 86.7917 108.376 85.5665 106.842C84.3413 105.309 83.3288 103.849 82.6392 102.771C81.9496 101.685 81.5754 100.988 81.6121 100.966C81.6561 100.936 82.111 101.589 82.852 102.631C83.593 103.673 84.6348 105.096 85.8526 106.622C87.0705 108.141 88.2297 109.476 89.0807 110.43C89.9391 111.376 90.4747 111.956 90.438 112Z" fill="#E0E0E0"/>
<path d="M22.3986 111.699C25.3405 108.075 28.2752 104.451 31.2171 100.819L22.3986 111.699Z" fill="white"/>
<path d="M31.2171 100.819C31.2978 100.885 29.383 103.373 26.9546 106.373C24.5188 109.381 22.4793 111.758 22.4059 111.7C22.3252 111.634 24.24 109.146 26.6685 106.146C29.0969 103.138 31.1364 100.761 31.2171 100.819Z" fill="#E0E0E0"/>
<path d="M22.4059 14.2182C22.4866 14.1522 24.4014 16.4485 26.6831 19.3318C28.9648 22.2224 30.7549 24.6141 30.6742 24.6728C30.5935 24.7388 28.6786 22.4425 26.397 19.5592C24.1153 16.6686 22.3325 14.2769 22.4059 14.2182Z" fill="#E0E0E0"/>
<path d="M65.5964 40.2998H48.6562V88.3911H65.5964V40.2998Z" fill="#E0E0E0"/>
<path d="M183.833 0V42.7209H122.469L120.261 0.3008L183.833 0Z" fill="#E0E0E0"/>
<path d="M120.26 0.297832V42.6299L181.623 42.6299V0.297832L120.26 0.297832Z" fill="white"/>
<path d="M181.91 42.9268H119.968V0.0078125H181.91V42.9268ZM120.547 42.3399H181.324V0.587402H120.547V42.3399Z" fill="#E0E0E0"/>
<path d="M174.977 5.56152H126.908V37.3729H174.977V5.56152Z" fill="white"/>
<path d="M174.977 5.56129C174.977 5.56129 174.897 5.56863 174.743 5.56863C174.581 5.56863 174.354 5.57597 174.06 5.57597C173.451 5.5833 172.564 5.5833 171.419 5.59064C169.108 5.59798 165.755 5.61265 161.515 5.62732C153.041 5.642 141.038 5.67134 126.908 5.69335L127.047 5.55396C127.055 15.2749 127.055 26.045 127.062 37.3654V37.3727L126.908 37.2186C145.044 37.2333 161.757 37.2406 174.977 37.248L174.86 37.3654C174.889 27.6811 174.911 19.7429 174.926 14.2185C174.941 11.4526 174.948 9.29561 174.955 7.82096C174.963 7.0873 174.963 6.52972 174.97 6.14088C174.97 5.75938 174.977 5.56129 174.977 5.56129C174.977 5.56129 174.985 5.74471 174.992 6.11887C174.992 6.50038 174.999 7.05796 175.007 7.77694C175.014 9.25159 175.021 11.4012 175.036 14.1524C175.051 19.6989 175.073 27.6591 175.102 37.3727V37.4901H174.977C161.757 37.4974 145.044 37.5121 126.908 37.5194H126.754V37.3654V37.358C126.761 26.0377 126.761 15.2676 126.769 5.54662V5.40723H126.908C141.075 5.43657 153.1 5.45858 161.603 5.47326C165.829 5.48793 169.174 5.5026 171.478 5.50994C172.615 5.51728 173.488 5.52461 174.09 5.52461C174.376 5.52461 174.596 5.53195 174.757 5.53195C174.904 5.55396 174.977 5.56129 174.977 5.56129Z" fill="#E0E0E0"/>
<path d="M120.261 0.183068C120.29 0.146385 120.687 0.410502 121.318 0.86537C121.949 1.32024 122.8 1.95852 123.724 2.69951C124.648 3.44051 125.455 4.13748 126.028 4.65838C126.6 5.17928 126.93 5.5241 126.908 5.56078C126.849 5.62681 125.375 4.40894 123.533 2.93428C121.684 1.46697 120.202 0.249097 120.261 0.183068Z" fill="#E0E0E0"/>
<path d="M181.624 0.300621C181.676 0.366651 180.23 1.5992 178.396 3.05184C176.562 4.50448 175.029 5.62698 174.977 5.56095C174.926 5.49492 176.371 4.26237 178.205 2.80973C180.04 1.35709 181.566 0.234592 181.624 0.300621Z" fill="#E0E0E0"/>
<path d="M181.573 42.6412C179.292 40.7924 177.01 38.9435 174.728 37.0947L181.573 42.6412Z" fill="white"/>
<path d="M174.728 37.0934C174.779 37.0274 176.357 38.2159 178.242 39.7493C180.135 41.2826 181.617 42.5739 181.566 42.6399C181.514 42.7059 179.937 41.5174 178.051 39.9841C176.166 38.4507 174.677 37.1595 174.728 37.0934Z" fill="#E0E0E0"/>
<path d="M120.261 42.6332C120.21 42.5671 121.64 41.3493 123.453 39.9113C125.272 38.4733 126.783 37.3655 126.835 37.4315C126.886 37.4975 125.455 38.7154 123.643 40.1534C121.824 41.584 120.313 42.6992 120.261 42.6332Z" fill="#E0E0E0"/>
<path d="M136.663 15.4723V26.125L166.912 26.125V15.4723L136.663 15.4723Z" fill="#E0E0E0"/>
<path d="M433.834 191.448C433.834 191.448 428.324 188.88 424.003 201.793C419.682 214.705 418.398 221.976 418.398 221.976C418.398 221.976 417.158 224.734 415.184 223.348C413.211 221.961 410.151 217.654 407.341 218.931C404.429 220.259 403.93 223.802 405.258 228.711C406.586 233.619 409.102 244.47 409.322 245.453C409.542 246.414 409.198 247.94 407.701 247.206C406.204 246.48 397.107 238.96 393.798 243.486C390.489 248.021 396.432 261.08 397.056 262.518C397.679 263.956 397.481 264.645 396.821 265.122C396.161 265.599 393.343 262.782 390.665 260.749C387.988 258.717 384.532 256.832 382.837 259.605C381.15 262.378 382.016 272.715 394.246 287.887L400.372 294.549L409.271 292.708C428.075 287.609 434.854 279.751 435.11 276.516C435.375 273.28 431.464 272.774 428.104 272.847C424.744 272.921 420.811 273.544 420.555 272.774C420.305 272.004 420.547 271.329 421.897 270.529C423.247 269.729 435.727 262.65 435.705 257.037C435.683 251.425 423.907 252.173 422.264 251.88C420.628 251.593 421.244 250.155 421.985 249.51C422.741 248.85 431.149 241.535 435.103 238.344C439.057 235.152 440.738 231.99 439.16 229.202C437.634 226.517 432.631 228.204 430.217 228.168C427.803 228.131 428.419 225.174 428.419 225.174C428.419 225.174 431.648 218.542 435.734 205.549C439.82 192.556 433.694 191.397 433.694 191.397" fill="#EBEBEB"/>
<path d="M399.198 296.383C402.235 286.853 407.921 270.008 412.727 255.518C417.532 241.036 421.868 227.918 424.949 218.402C426.483 213.656 427.73 209.804 428.596 207.133C429.021 205.813 429.359 204.778 429.586 204.067C429.703 203.729 429.791 203.465 429.85 203.274C429.909 203.098 429.953 203.003 429.953 203.003C429.953 203.003 429.931 203.098 429.879 203.282C429.821 203.472 429.74 203.737 429.645 204.081C429.425 204.8 429.109 205.835 428.706 207.163C427.884 209.833 426.666 213.7 425.147 218.461C422.11 227.991 417.803 241.116 412.998 255.599C408.193 270.089 402.477 286.919 399.396 296.434" fill="#E0E0E0"/>
<path d="M411.384 225.138C411.399 225.131 411.516 225.336 411.699 225.71C411.89 226.084 412.147 226.635 412.455 227.324C413.071 228.696 413.878 230.611 414.737 232.739C415.573 234.844 416.321 236.744 416.901 238.197C417.165 238.85 417.385 239.4 417.569 239.848C417.73 240.237 417.811 240.457 417.789 240.464C417.774 240.471 417.657 240.266 417.466 239.892C417.275 239.518 417.018 238.96 416.718 238.278C416.109 236.898 415.331 234.976 414.48 232.849C413.629 230.75 412.866 228.858 412.279 227.412C412.015 226.759 411.787 226.209 411.604 225.769C411.443 225.365 411.362 225.145 411.384 225.138Z" fill="#E0E0E0"/>
<path d="M418.632 240.493C418.603 240.419 422.477 238.585 427.282 236.392C432.095 234.198 436.02 232.474 436.049 232.54C436.079 232.613 432.212 234.447 427.4 236.648C422.587 238.835 418.662 240.559 418.632 240.493Z" fill="#E0E0E0"/>
<path d="M410.247 262.401C410.247 262.379 410.482 262.334 410.9 262.268C411.384 262.195 411.986 262.107 412.697 262.004C414.216 261.784 416.307 261.461 418.603 261.029C420.899 260.596 422.968 260.134 424.458 259.789C425.162 259.627 425.756 259.488 426.226 259.378C426.644 259.282 426.879 259.238 426.886 259.26C426.893 259.282 426.666 259.356 426.255 259.488C425.844 259.613 425.25 259.789 424.509 259.987C423.027 260.383 420.958 260.875 418.654 261.307C416.351 261.74 414.245 262.034 412.719 262.202C411.956 262.283 411.34 262.349 410.907 262.379C410.489 262.415 410.254 262.423 410.247 262.401Z" fill="#E0E0E0"/>
<path d="M400.636 249.957C400.651 249.942 400.805 250.104 401.061 250.404C401.355 250.757 401.714 251.182 402.14 251.688C403.042 252.782 404.267 254.308 405.61 256.002C406.953 257.697 408.156 259.238 409.022 260.368C409.418 260.896 409.755 261.343 410.027 261.71C410.261 262.033 410.379 262.216 410.364 262.224C410.349 262.238 410.195 262.077 409.939 261.776C409.645 261.424 409.286 260.999 408.86 260.492C407.958 259.399 406.733 257.873 405.39 256.178C404.047 254.484 402.844 252.943 401.978 251.813C401.582 251.285 401.245 250.837 400.973 250.471C400.746 250.148 400.621 249.972 400.636 249.957Z" fill="#E0E0E0"/>
<path d="M390.783 268.357C390.797 268.342 390.988 268.555 391.318 268.937C391.678 269.362 392.147 269.92 392.705 270.58C393.864 271.974 395.456 273.918 397.202 276.075C398.948 278.232 400.511 280.191 401.634 281.622C402.162 282.311 402.609 282.876 402.954 283.324C403.262 283.727 403.424 283.962 403.409 283.969C403.394 283.984 403.204 283.771 402.873 283.39C402.514 282.964 402.044 282.407 401.487 281.746C400.328 280.352 398.736 278.408 396.99 276.251C395.243 274.094 393.681 272.136 392.558 270.705C392.03 270.015 391.582 269.45 391.238 269.003C390.93 268.599 390.768 268.372 390.783 268.357Z" fill="#E0E0E0"/>
<path d="M403.211 283.515C403.211 283.493 403.504 283.435 404.04 283.332C404.627 283.222 405.39 283.082 406.307 282.914C408.222 282.561 410.863 282.063 413.761 281.432C416.659 280.808 419.271 280.17 421.156 279.693C422.066 279.465 422.814 279.275 423.394 279.135C423.922 279.003 424.216 278.945 424.223 278.959C424.23 278.981 423.944 279.077 423.423 279.238C422.902 279.399 422.147 279.627 421.208 279.884C419.329 280.405 416.725 281.072 413.82 281.703C410.914 282.334 408.266 282.804 406.344 283.104C405.383 283.251 404.605 283.368 404.062 283.434C403.512 283.508 403.211 283.53 403.211 283.515Z" fill="#E0E0E0"/>
<path d="M450.231 296.112C450.231 296.214 349.434 296.302 225.123 296.302C100.775 296.31 0 296.222 0 296.112C0 296.009 100.775 295.921 225.13 295.921C349.434 295.921 450.231 296.009 450.231 296.112Z" fill="#263238"/>
<path d="M312.038 39.9252L305.074 45.9141L314.421 56.7834L321.385 50.7945L312.038 39.9252Z" fill="#263238"/>
<path d="M318.569 39.9543L304.226 52.2944L294.145 40.5706C298.1 35.0168 302.832 30.8129 308.488 28.2305L318.569 39.9543Z" fill="#455A64"/>
<path d="M306.625 50.2258C306.544 50.2918 304.116 47.6286 301.196 44.2758C298.276 40.923 295.979 38.1424 296.053 38.0764C296.134 38.0104 298.562 40.6735 301.482 44.0264C304.402 47.3792 306.698 50.1524 306.625 50.2258Z" fill="#263238"/>
<path d="M309.354 47.8706C309.31 47.9073 308.694 47.2176 307.725 46.0805C306.757 44.9433 305.436 43.3659 303.991 41.6052C302.59 39.8811 301.321 38.3257 300.315 37.0858C299.897 36.5649 299.53 36.1027 299.208 35.7065C298.944 35.3764 298.811 35.215 298.811 35.2003C298.951 35.0609 301.401 37.8488 304.292 41.363C305.737 43.1238 307.021 44.7305 307.938 45.9117C308.855 47.0929 309.398 47.8412 309.354 47.8706Z" fill="#263238"/>
<path d="M312.993 44.7376C312.949 44.7743 312.333 44.0773 311.357 42.9255C310.381 41.7736 309.053 40.1742 307.608 38.3841C306.207 36.638 304.938 35.0533 303.925 33.7914C303.507 33.2558 303.14 32.7863 302.825 32.3828C302.56 32.038 302.45 31.8839 302.443 31.8472C302.487 31.7885 303.155 32.4782 304.13 33.6153C305.121 34.7525 306.449 36.3519 307.901 38.142C309.354 39.9248 310.645 41.5609 311.562 42.7494C312.487 43.9526 313.037 44.7082 312.993 44.7376Z" fill="#263238"/>
<path d="M316.316 41.8109C316.236 41.877 313.822 39.1844 310.931 35.7949C308.034 32.3981 305.752 29.5955 305.833 29.5295C305.913 29.4635 308.327 32.156 311.218 35.5528C314.116 38.935 316.397 41.7376 316.316 41.8109Z" fill="#263238"/>
<path d="M435.473 48.2357L429.126 41.5947L418.762 51.4992L425.108 58.1403L435.473 48.2357Z" fill="#263238"/>
<path d="M435.771 54.7529L422.697 41.0702L433.871 30.3955C439.63 34.0565 444.068 38.5611 446.944 44.0782L435.771 54.7529Z" fill="#455A64"/>
<path d="M424.883 43.3588C424.81 43.2855 427.341 40.7177 430.54 37.629C433.738 34.5403 436.387 32.0972 436.46 32.1706C436.534 32.2439 434.003 34.8117 430.804 37.9004C427.612 40.9891 424.957 43.4322 424.883 43.3588Z" fill="#263238"/>
<path d="M427.378 45.9715C427.341 45.9348 427.994 45.2818 429.08 44.2547C430.158 43.2276 431.67 41.8263 433.35 40.293C434.993 38.8036 436.482 37.4611 437.671 36.3826C438.17 35.935 438.61 35.5462 438.984 35.2087C439.3 34.9299 439.454 34.7832 439.476 34.7832C439.622 34.9153 436.967 37.5051 433.606 40.5791C431.926 42.1124 430.386 43.4844 429.256 44.4601C428.126 45.4212 427.414 46.0082 427.378 45.9715Z" fill="#263238"/>
<path d="M430.694 49.4408C430.657 49.4041 431.317 48.7438 432.418 47.7093C433.518 46.6749 435.052 45.2662 436.754 43.7256C438.427 42.2289 439.938 40.879 441.148 39.8078C441.662 39.3603 442.109 38.9715 442.498 38.6413C442.828 38.3625 442.975 38.2378 443.012 38.2305C443.078 38.2745 442.418 38.9715 441.339 40.0133C440.253 41.0624 438.727 42.4783 437.018 44.019C435.308 45.5597 433.753 46.939 432.609 47.9221C431.457 48.8905 430.73 49.4774 430.694 49.4408Z" fill="#263238"/>
<path d="M433.797 52.596C433.724 52.5227 436.292 49.9695 439.527 46.9028C442.763 43.8362 445.448 41.4077 445.521 41.4811C445.594 41.5545 443.027 44.1076 439.791 47.1743C436.548 50.2483 433.871 52.6767 433.797 52.596Z" fill="#263238"/>
<path d="M376.895 16.5146H366.022V33.4842H376.895V16.5146Z" fill="#263238"/>
<path d="M382.727 21.5843H360.329V3.29422C368.171 1.3647 375.655 1.24731 382.727 3.29422V21.5843Z" fill="#F4D962"/>
<path d="M382.991 3.37488C382.999 3.39689 382.705 3.54362 382.162 3.78573C381.627 4.03517 380.82 4.33597 379.8 4.65145C378.787 4.97426 377.555 5.27506 376.168 5.50983C374.782 5.72992 373.234 5.88399 371.612 5.89867C369.984 5.89867 368.443 5.75927 367.049 5.55385C365.662 5.32641 364.422 5.04029 363.41 4.72481C362.39 4.41668 361.583 4.12321 361.04 3.88111C360.497 3.64634 360.197 3.50694 360.211 3.47759C360.241 3.41157 361.444 3.91779 363.483 4.46803C364.496 4.74682 365.728 5.0036 367.1 5.20903C368.48 5.39244 370.006 5.51716 371.605 5.51716C373.212 5.50249 374.73 5.3631 376.11 5.16501C377.482 4.94491 378.707 4.68079 379.719 4.39467C381.759 3.82241 382.962 3.30885 382.991 3.37488Z" fill="#263238"/>
<path d="M367.724 21.5333C367.621 21.5333 367.533 18.019 367.533 13.6905C367.533 9.36188 367.621 5.84766 367.724 5.84766C367.827 5.84766 367.915 9.36188 367.915 13.6905C367.915 18.0264 367.834 21.5333 367.724 21.5333Z" fill="#263238"/>
<path d="M371.986 21.6428C371.884 21.6428 371.796 18.1139 371.796 13.7633C371.796 9.41268 371.884 5.88379 371.986 5.88379C372.089 5.88379 372.177 9.41268 372.177 13.7633C372.177 18.1139 372.097 21.6428 371.986 21.6428Z" fill="#263238"/>
<path d="M376.249 21.5695C376.146 21.5695 376.058 18.0406 376.058 13.69C376.058 9.33944 376.146 5.81055 376.249 5.81055C376.352 5.81055 376.44 9.33944 376.44 13.69C376.44 18.0406 376.352 21.5695 376.249 21.5695Z" fill="#263238"/>
<path d="M379.8 21.5697C379.697 21.5697 379.609 17.7547 379.609 13.0519C379.609 8.3492 379.697 4.53418 379.8 4.53418C379.903 4.53418 379.991 8.3492 379.991 13.0519C379.991 17.7547 379.903 21.5697 379.8 21.5697Z" fill="#263238"/>
<path d="M363.696 21.4594C363.593 21.4594 363.505 17.6443 363.505 12.9416C363.505 8.23885 363.593 4.42383 363.696 4.42383C363.799 4.42383 363.887 8.23885 363.887 12.9416C363.887 17.6517 363.806 21.4594 363.696 21.4594Z" fill="#263238"/>
<path d="M426.08 163.287C456.974 132.392 456.974 82.303 426.08 51.4088C395.186 20.5146 345.096 20.5146 314.202 51.4088C283.308 82.303 283.308 132.392 314.202 163.287C345.096 194.181 395.186 194.181 426.08 163.287Z" fill="#F4D962"/>
<path d="M370.138 173.157C406.832 173.157 436.578 143.411 436.578 106.717C436.578 70.0236 406.832 40.2773 370.138 40.2773C333.444 40.2773 303.698 70.0236 303.698 106.717C303.698 143.411 333.444 173.157 370.138 173.157Z" fill="#FAFAFA"/>
<path d="M436.585 106.717C436.585 106.717 436.563 106.351 436.541 105.639C436.497 104.927 436.526 103.864 436.402 102.484C436.233 99.711 435.771 95.6246 434.509 90.4963C433.834 87.9505 433.005 85.1259 431.78 82.162C430.576 79.1906 429.102 76.0212 427.158 72.8152C423.313 66.403 417.803 59.69 410.298 53.9675C406.564 51.0989 402.309 48.5237 397.628 46.3961C392.947 44.2685 387.834 42.5664 382.382 41.5833C376.939 40.5782 371.172 40.1821 365.288 40.6443C362.339 40.8203 359.382 41.2972 356.404 41.8841C353.44 42.5224 350.476 43.3661 347.541 44.4079C335.846 48.6411 324.739 56.55 316.735 67.5181C314.71 70.2327 312.934 73.1673 311.335 76.212C310.521 77.7307 309.824 79.3154 309.112 80.9001C308.474 82.5141 307.813 84.1282 307.285 85.7936C306.199 89.117 305.297 92.5359 304.761 96.0428C304.211 99.5496 303.918 103.115 303.896 106.703C303.918 110.298 304.211 113.863 304.761 117.37C305.297 120.877 306.199 124.303 307.285 127.627C307.813 129.299 308.474 130.914 309.112 132.528C309.824 134.112 310.521 135.697 311.335 137.216C312.934 140.26 314.71 143.195 316.735 145.917C324.739 156.885 335.854 164.794 347.548 169.027C350.483 170.069 353.44 170.92 356.411 171.558C359.382 172.145 362.346 172.629 365.296 172.798C371.179 173.26 376.946 172.864 382.39 171.859C387.841 170.876 392.962 169.166 397.635 167.046C402.316 164.919 406.564 162.343 410.305 159.475C417.811 153.752 423.321 147.039 427.165 140.627C429.109 137.421 430.591 134.252 431.787 131.28C433.012 128.309 433.834 125.492 434.509 122.946C435.771 117.825 436.233 113.731 436.402 110.958C436.526 109.571 436.497 108.515 436.541 107.803C436.563 107.084 436.585 106.717 436.585 106.717C436.585 106.717 436.592 107.084 436.578 107.796C436.548 108.508 436.585 109.571 436.475 110.958C436.336 113.731 435.895 117.832 434.648 122.975C433.981 125.528 433.166 128.36 431.948 131.346C430.752 134.332 429.285 137.516 427.341 140.737C423.504 147.179 417.994 153.928 410.467 159.688C406.718 162.578 402.455 165.168 397.753 167.31C393.057 169.453 387.922 171.177 382.441 172.167C376.975 173.187 371.179 173.59 365.266 173.136C362.302 172.959 359.324 172.483 356.338 171.896C353.352 171.257 350.38 170.406 347.424 169.365C335.663 165.117 324.482 157.171 316.427 146.144C314.387 143.415 312.604 140.466 310.99 137.399C310.168 135.873 309.471 134.281 308.753 132.689C308.107 131.068 307.447 129.439 306.911 127.766C305.818 124.421 304.915 120.98 304.373 117.451C303.815 113.929 303.529 110.334 303.5 106.725C303.522 103.115 303.815 99.5276 304.373 95.9987C304.915 92.4698 305.818 89.029 306.911 85.6908C307.439 84.0108 308.107 82.3894 308.753 80.768C309.471 79.176 310.168 77.5839 310.99 76.0579C312.604 72.9912 314.387 70.0419 316.427 67.3127C324.482 56.2858 335.656 48.3403 347.416 44.0925C350.366 43.0507 353.344 42.1923 356.323 41.5613C359.316 40.9744 362.288 40.4902 365.252 40.3215C371.165 39.8666 376.953 40.2701 382.426 41.2825C387.907 42.273 393.042 43.9971 397.738 46.1394C402.441 48.2816 406.703 50.8788 410.452 53.7621C417.98 59.5213 423.497 66.2709 427.334 72.7124C429.278 75.9332 430.752 79.1173 431.941 82.1033C433.159 85.0819 433.973 87.9138 434.641 90.4743C435.888 95.6172 436.321 99.7184 436.468 102.492C436.578 103.878 436.541 104.942 436.57 105.654C436.585 106.351 436.585 106.717 436.585 106.717Z" fill="#263238"/>
<path d="M426.835 104.304C424.729 104.392 423.012 104.312 422.998 104.128C422.99 103.945 424.692 103.695 426.798 103.571C428.904 103.453 430.62 103.534 430.635 103.747C430.642 103.967 428.948 104.216 426.835 104.304Z" fill="#263238"/>
<path d="M425.419 119.6C423.365 119.116 421.728 118.581 421.773 118.405C421.817 118.221 423.519 118.441 425.58 118.889C427.642 119.336 429.27 119.872 429.226 120.085C429.182 120.297 427.473 120.085 425.419 119.6Z" fill="#263238"/>
<path d="M419.938 133.951C418.09 132.931 416.659 131.977 416.747 131.816C416.835 131.655 418.42 132.322 420.283 133.305C422.147 134.296 423.577 135.25 423.467 135.44C423.365 135.638 421.78 134.971 419.938 133.951Z" fill="#263238"/>
<path d="M410.804 146.306C409.293 144.831 408.17 143.525 408.303 143.393C408.435 143.261 409.777 144.325 411.311 145.777C412.844 147.23 413.966 148.529 413.812 148.69C413.658 148.844 412.308 147.773 410.804 146.306Z" fill="#263238"/>
<path d="M398.699 155.77C397.635 153.943 396.909 152.388 397.07 152.293C397.232 152.197 398.244 153.584 399.33 155.396C400.416 157.201 401.149 158.756 400.959 158.874C400.775 158.976 399.763 157.59 398.699 155.77Z" fill="#263238"/>
<path d="M384.503 161.633C383.974 159.586 383.688 157.891 383.872 157.847C384.055 157.796 384.649 159.41 385.214 161.442C385.772 163.474 386.058 165.169 385.845 165.228C385.632 165.279 385.031 163.672 384.503 161.633Z" fill="#263238"/>
<path d="M369.25 163.459C369.287 161.346 369.463 159.636 369.646 159.644C369.83 159.644 369.984 161.36 369.984 163.466C369.984 165.579 369.8 167.288 369.587 167.281C369.367 167.281 369.213 165.572 369.25 163.459Z" fill="#263238"/>
<path d="M354.056 161.155C354.657 159.13 355.288 157.531 355.472 157.582C355.655 157.634 355.34 159.321 354.768 161.353C354.195 163.385 353.564 164.985 353.352 164.919C353.139 164.867 353.454 163.173 354.056 161.155Z" fill="#263238"/>
<path d="M340.058 154.838C341.18 153.048 342.222 151.684 342.376 151.779C342.537 151.874 341.774 153.415 340.681 155.22C339.588 157.025 338.546 158.389 338.363 158.279C338.172 158.169 338.935 156.621 340.058 154.838Z" fill="#263238"/>
<path d="M328.253 145.007C329.809 143.584 331.18 142.542 331.305 142.681C331.43 142.821 330.285 144.105 328.752 145.55C327.219 146.995 325.847 148.037 325.7 147.876C325.553 147.707 326.698 146.423 328.253 145.007Z" fill="#263238"/>
<path d="M319.508 132.374C321.393 131.42 322.985 130.782 323.074 130.951C323.162 131.12 321.716 132.044 319.845 133.027C317.975 134.01 316.383 134.649 316.28 134.45C316.184 134.26 317.63 133.328 319.508 132.374Z" fill="#263238"/>
<path d="M314.49 117.862C316.559 117.451 318.268 117.268 318.305 117.451C318.341 117.634 316.698 118.141 314.636 118.581C312.575 119.021 310.865 119.204 310.821 118.992C310.777 118.772 312.421 118.265 314.49 117.862Z" fill="#263238"/>
<path d="M313.543 102.522C315.649 102.676 317.344 102.955 317.329 103.138C317.314 103.321 315.598 103.373 313.492 103.248C311.386 103.123 309.692 102.845 309.706 102.632C309.721 102.419 311.438 102.368 313.543 102.522Z" fill="#263238"/>
<path d="M316.735 87.4964C318.723 88.2153 320.278 88.9417 320.212 89.1177C320.154 89.2938 318.481 88.8756 316.485 88.1933C314.49 87.5037 312.934 86.7847 313.008 86.5793C313.081 86.3592 314.754 86.7774 316.735 87.4964Z" fill="#263238"/>
<path d="M323.858 73.8868C325.575 75.112 326.881 76.2271 326.778 76.3812C326.668 76.5353 325.179 75.6842 323.44 74.4884C321.702 73.2925 320.396 72.1773 320.52 71.9939C320.645 71.8179 322.134 72.6616 323.858 73.8868Z" fill="#263238"/>
<path d="M334.357 62.6687C335.685 64.3048 336.646 65.7281 336.507 65.8528C336.36 65.9702 335.149 64.7596 333.792 63.1383C332.435 61.5242 331.474 60.0936 331.643 59.9542C331.811 59.8221 333.029 61.0327 334.357 62.6687Z" fill="#263238"/>
<path d="M347.475 54.6792C348.319 56.6161 348.862 58.2448 348.686 58.3182C348.517 58.3916 347.673 56.8949 346.8 54.9727C345.927 53.0505 345.384 51.4218 345.589 51.3338C345.788 51.2457 346.631 52.7424 347.475 54.6792Z" fill="#263238"/>
<path d="M362.266 50.5193C362.552 52.6102 362.64 54.327 362.456 54.3563C362.273 54.3857 361.862 52.713 361.539 50.6294C361.216 48.5458 361.136 46.829 361.348 46.7997C361.569 46.7557 361.972 48.4284 362.266 50.5193Z" fill="#263238"/>
<path d="M377.628 50.4609C377.349 52.5519 376.975 54.2319 376.792 54.2099C376.609 54.1879 376.66 52.4712 376.902 50.3729C377.151 48.2746 377.526 46.6019 377.738 46.6312C377.958 46.6459 377.907 48.37 377.628 50.4609Z" fill="#263238"/>
<path d="M392.441 54.5249C391.604 56.4618 390.79 57.9804 390.621 57.9071C390.453 57.8337 390.959 56.1976 391.766 54.2388C392.566 52.2872 393.38 50.7759 393.585 50.8566C393.791 50.9446 393.277 52.588 392.441 54.5249Z" fill="#263238"/>
<path d="M405.617 62.4268C404.297 64.0702 403.108 65.31 402.961 65.2C402.815 65.0826 403.747 63.6373 405.045 61.9719C406.344 60.3065 407.532 59.0666 407.701 59.206C407.87 59.3381 406.938 60.7834 405.617 62.4268Z" fill="#263238"/>
<path d="M416.204 73.556C414.487 74.7886 413.013 75.6689 412.903 75.5149C412.793 75.3608 414.076 74.2236 415.771 72.9618C417.466 71.7072 418.941 70.8268 419.073 71.0029C419.197 71.1863 417.913 72.3308 416.204 73.556Z" fill="#263238"/>
<path d="M423.416 87.1221C421.435 87.8484 419.777 88.2959 419.711 88.1199C419.645 87.9438 421.193 87.1881 423.159 86.4324C425.125 85.6768 426.791 85.2292 426.864 85.4347C426.937 85.6474 425.397 86.3958 423.416 87.1221Z" fill="#263238"/>
<path d="M426.703 102.125C424.597 102.294 422.88 102.279 422.866 102.096C422.851 101.912 424.538 101.597 426.644 101.399C428.742 101.201 430.459 101.215 430.481 101.436C430.496 101.648 428.808 101.964 426.703 102.125Z" fill="#263238"/>
<path d="M344.342 34.8341C344.342 34.8415 344.269 34.8782 344.115 34.9368C343.946 35.0029 343.719 35.0982 343.44 35.2083C342.853 35.4577 341.958 35.7585 340.843 36.2501C338.598 37.1745 335.406 38.6565 331.657 40.8355C329.779 41.9213 327.784 43.2198 325.7 44.6798C323.646 46.1838 321.474 47.8419 319.339 49.7567C315.04 53.5497 310.77 58.2378 307.014 63.6889C303.301 69.1693 300.477 74.8478 298.511 80.2329C297.498 82.9181 296.75 85.5372 296.09 88.0023C295.488 90.4821 294.996 92.8078 294.674 94.9501C294.006 99.2346 293.786 102.749 293.742 105.177C293.683 106.388 293.735 107.334 293.713 107.972C293.705 108.273 293.705 108.515 293.705 108.699C293.698 108.86 293.698 108.948 293.691 108.948C293.683 108.948 293.676 108.868 293.669 108.699C293.661 108.515 293.654 108.273 293.639 107.972C293.632 107.334 293.558 106.388 293.595 105.17C293.595 102.742 293.779 99.2126 294.41 94.906C294.718 92.7491 295.195 90.416 295.789 87.9216C296.434 85.4418 297.175 82.808 298.181 80.1082C300.147 74.6938 302.971 68.9786 306.706 63.4688C310.477 57.9957 314.783 53.2856 319.112 49.4926C321.261 47.5778 323.448 45.927 325.524 44.423C327.63 42.9631 329.632 41.6718 331.533 40.6007C335.318 38.4437 338.532 36.9911 340.799 36.1107C341.921 35.6338 342.824 35.3624 343.425 35.1349C343.711 35.0396 343.939 34.9589 344.115 34.9002C344.262 34.8561 344.342 34.8268 344.342 34.8341Z" fill="white"/>
<path d="M366.425 30.549C366.425 30.6003 365.552 30.7031 364.136 30.8498C362.72 30.9965 360.762 31.2093 358.612 31.4881C356.455 31.7669 354.511 32.0603 353.102 32.2804C351.694 32.4932 350.82 32.6252 350.813 32.5739C350.806 32.5225 351.657 32.3024 353.058 32.0163C354.459 31.7302 356.404 31.3927 358.568 31.1139C360.732 30.8351 362.698 30.6664 364.122 30.5857C365.538 30.505 366.418 30.505 366.425 30.549Z" fill="white"/>
<g opacity="0.4">
<path opacity="0.4" d="M317.043 146.658C317.043 146.658 351.473 200.993 404.884 173.165C460.634 144.119 429.835 77.5254 429.835 77.5254C429.835 77.5254 456.071 130.598 401.722 165.197C388.186 173.818 373.446 173.825 362.207 172.695C333.477 169.812 317.043 146.658 317.043 146.658Z" fill="black"/>
</g>
<path d="M388.663 71.4062C388.993 81.1492 388.699 90.9069 387.775 100.613C387.445 104.12 387.012 107.678 385.684 110.943C384.356 114.208 382.008 117.201 378.758 118.58C375.515 119.96 371.334 119.387 369.067 116.688L388.663 71.4062Z" fill="#E0E0E0"/>
<path d="M368.7 101.479L392.844 60.8125L378.267 106.717L370.827 108.948L368.7 101.479Z" fill="#F4D962"/>
<g opacity="0.4">
<path opacity="0.4" d="M392.844 60.8125L374.936 102.36L378.267 106.717L392.844 60.8125Z" fill="black"/>
</g>
<path d="M370.827 116.717C375.118 116.717 378.597 113.238 378.597 108.947C378.597 104.656 375.118 101.178 370.827 101.178C366.536 101.178 363.058 104.656 363.058 108.947C363.058 113.238 366.536 116.717 370.827 116.717Z" fill="#455A64"/>
<path d="M378.597 108.947C378.545 108.955 378.589 108.258 378.281 107.069C377.98 105.903 377.195 104.201 375.442 102.88C374.576 102.234 373.483 101.692 372.229 101.471C370.981 101.259 369.573 101.303 368.237 101.816C367.563 102.051 366.917 102.403 366.315 102.851C365.714 103.291 365.163 103.834 364.716 104.465C363.784 105.705 363.256 107.304 363.241 108.947C363.256 110.591 363.784 112.19 364.716 113.43C365.171 114.061 365.714 114.604 366.315 115.044C366.91 115.492 367.563 115.844 368.237 116.079C369.573 116.592 370.981 116.636 372.229 116.423C373.483 116.203 374.576 115.66 375.442 115.015C377.195 113.694 377.973 111.985 378.281 110.826C378.589 109.637 378.545 108.94 378.597 108.947C378.597 108.947 378.692 109.644 378.428 110.862C378.164 112.058 377.401 113.834 375.611 115.235C374.723 115.917 373.593 116.497 372.287 116.739C370.989 116.974 369.521 116.937 368.113 116.416C367.408 116.174 366.726 115.807 366.095 115.338C365.464 114.883 364.885 114.31 364.408 113.65C363.425 112.352 362.867 110.672 362.852 108.947C362.867 107.223 363.425 105.543 364.408 104.245C364.885 103.584 365.457 103.019 366.095 102.557C366.719 102.095 367.401 101.721 368.113 101.479C369.514 100.951 370.989 100.921 372.28 101.156C373.586 101.398 374.716 101.978 375.603 102.66C377.393 104.054 378.156 105.829 378.421 107.033C378.692 108.25 378.597 108.947 378.597 108.947Z" fill="#455A64"/>
<path d="M370.827 116.717C375.118 116.717 378.597 113.238 378.597 108.947C378.597 104.656 375.118 101.178 370.827 101.178C366.536 101.178 363.058 104.656 363.058 108.947C363.058 113.238 366.536 116.717 370.827 116.717Z" fill="#FAFAFA"/>
<path d="M378.597 108.947C378.545 108.955 378.589 108.258 378.281 107.069C377.98 105.903 377.195 104.201 375.442 102.88C374.576 102.234 373.483 101.692 372.229 101.471C370.981 101.259 369.573 101.303 368.237 101.816C367.563 102.051 366.917 102.403 366.315 102.851C365.714 103.291 365.163 103.834 364.716 104.465C363.784 105.705 363.256 107.304 363.241 108.947C363.256 110.591 363.784 112.19 364.716 113.43C365.171 114.061 365.714 114.604 366.315 115.044C366.91 115.492 367.563 115.844 368.237 116.079C369.573 116.592 370.981 116.636 372.229 116.423C373.483 116.203 374.576 115.66 375.442 115.015C377.195 113.694 377.973 111.985 378.281 110.826C378.589 109.637 378.545 108.94 378.597 108.947C378.597 108.947 378.692 109.644 378.428 110.862C378.164 112.058 377.401 113.834 375.611 115.235C374.723 115.917 373.593 116.497 372.287 116.739C370.989 116.974 369.521 116.937 368.113 116.416C367.408 116.174 366.726 115.807 366.095 115.338C365.464 114.883 364.885 114.31 364.408 113.65C363.425 112.352 362.867 110.672 362.852 108.947C362.867 107.223 363.425 105.543 364.408 104.245C364.885 103.584 365.457 103.019 366.095 102.557C366.719 102.095 367.401 101.721 368.113 101.479C369.514 100.951 370.989 100.921 372.28 101.156C373.586 101.398 374.716 101.978 375.603 102.66C377.393 104.054 378.156 105.829 378.421 107.033C378.692 108.25 378.597 108.947 378.597 108.947Z" fill="#263238"/>
<path d="M376.496 110.085C377.129 106.955 375.105 103.905 371.975 103.273C368.845 102.64 365.795 104.665 365.163 107.794C364.53 110.924 366.555 113.974 369.684 114.606C372.814 115.239 375.864 113.214 376.496 110.085Z" fill="#455A64"/>
<path d="M309.574 295.43H347.798L329.977 141.839L309.574 295.43Z" fill="#E0E0E0"/>
<path d="M121.494 141.839L96.608 297.242L308.965 300.001L329.977 141.839H121.494Z" fill="#FAFAFA"/>
<path d="M320.52 213.033H110.093L114.671 184.413H324.321L320.52 213.033Z" fill="#EBEBEB"/>
<path d="M320.535 213.055H110.071V213.033L114.656 184.398H324.343V184.42L320.535 213.055ZM110.115 213.011H320.506L324.306 184.428H114.685L110.115 213.011Z" fill="#263238"/>
<path d="M121.494 141.839L114.671 184.413H324.321L329.977 141.839H121.494Z" fill="#F4D962"/>
<path d="M121.494 141.839C123.012 141.839 206.422 141.765 329.985 141.67H330.183L330.153 141.868C324.005 188.169 317.036 240.677 309.677 296.134L309.655 296.303H309.486C308.731 296.303 307.916 296.303 307.094 296.303C228.674 296.288 156.012 296.281 96.7914 296.266H96.608L96.6374 296.083C111.685 202.681 121.288 143.115 121.494 141.839C121.288 143.115 111.809 202.703 96.9455 296.127L96.7914 295.943C156.012 295.936 228.674 295.921 307.094 295.907C307.916 295.907 308.731 295.907 309.486 295.907L309.295 296.076C316.669 240.618 323.653 188.11 329.809 141.809L329.977 142.007C206.415 141.912 123.005 141.839 121.494 141.839Z" fill="#263238"/>
<path d="M324.321 184.412C324.321 184.515 277.389 184.603 219.503 184.603C161.595 184.603 114.671 184.515 114.671 184.412C114.671 184.31 161.595 184.222 219.503 184.222C277.389 184.222 324.321 184.31 324.321 184.412Z" fill="#263238"/>
<path d="M320.52 213.033C320.52 213.135 273.324 213.223 215.108 213.223C156.878 213.223 109.689 213.135 109.689 213.033C109.689 212.93 156.878 212.842 215.108 212.842C273.317 212.842 320.52 212.93 320.52 213.033Z" fill="#263238"/>
<path d="M316.236 239.364C316.236 239.466 269.04 239.554 210.824 239.554C152.593 239.554 105.405 239.466 105.405 239.364C105.405 239.261 152.601 239.173 210.831 239.173C269.04 239.173 316.236 239.254 316.236 239.364Z" fill="#263238"/>
<path d="M311.959 265.695C311.959 265.798 264.762 265.886 206.547 265.886C148.316 265.886 101.127 265.798 101.127 265.695C101.127 265.592 148.316 265.504 206.547 265.504C264.755 265.497 311.959 265.585 311.959 265.695Z" fill="#263238"/>
<path d="M126.417 296.34C126.314 296.325 130.166 271.256 135.022 240.347C139.879 209.431 143.907 184.391 144.01 184.413C144.112 184.428 140.261 209.497 135.404 240.406C130.547 271.315 126.527 296.362 126.417 296.34Z" fill="#263238"/>
<path d="M158.866 296.34C158.764 296.325 162.615 271.256 167.472 240.347C172.329 209.431 176.357 184.391 176.459 184.413C176.562 184.428 172.71 209.497 167.854 240.406C162.989 271.315 158.969 296.362 158.866 296.34Z" fill="#263238"/>
<path d="M189.012 295.224C188.91 295.21 192.725 270.39 197.53 239.796C202.343 209.196 206.327 184.405 206.429 184.42C206.532 184.435 202.717 209.254 197.911 239.855C193.099 270.441 189.115 295.239 189.012 295.224Z" fill="#263238"/>
<path d="M218.843 296.105C218.74 296.09 222.584 271.073 227.434 240.23C232.283 209.379 236.297 184.391 236.399 184.413C236.502 184.428 232.658 209.445 227.808 240.288C222.966 271.131 218.945 296.127 218.843 296.105Z" fill="#263238"/>
<path d="M248.813 296.105C248.71 296.09 252.554 271.073 257.404 240.23C262.253 209.379 266.266 184.391 266.369 184.413C266.472 184.428 262.627 209.445 257.778 240.288C252.936 271.131 248.923 296.127 248.813 296.105Z" fill="#263238"/>
<path d="M278.761 296.273C278.658 296.259 282.51 271.204 287.359 240.317C292.216 209.423 296.236 184.398 296.339 184.42C296.442 184.435 292.59 209.489 287.733 240.383C282.884 271.256 278.863 296.288 278.761 296.273Z" fill="#263238"/>
<g opacity="0.2">
<g opacity="0.2">
<path opacity="0.2" d="M259.906 186.415C263.523 184.816 265.775 181.059 266.714 177.215C267.653 173.371 267.499 169.372 267.631 165.425C267.763 161.478 268.24 157.391 270.265 154.002C271.461 151.992 273.141 150.326 274.469 148.404C275.797 146.482 276.78 144.127 276.288 141.838L253.706 141.955L259.906 186.415Z" fill="black"/>
</g>
</g>
<path d="M166.24 215.153C166.247 215.161 166.173 215.256 166.019 215.417C165.836 215.608 165.609 215.843 165.337 216.122C164.743 216.731 163.862 217.596 162.769 218.653C160.583 220.773 157.509 223.642 154.024 226.716C150.539 229.79 147.311 232.482 144.934 234.39C143.746 235.343 142.777 236.106 142.102 236.62C141.794 236.855 141.53 237.046 141.317 237.207C141.134 237.339 141.038 237.405 141.024 237.39C141.016 237.383 141.097 237.295 141.266 237.148C141.471 236.972 141.713 236.759 142.007 236.503C142.704 235.916 143.636 235.131 144.758 234.177C147.084 232.218 150.282 229.496 153.76 226.422C157.238 223.348 160.334 220.516 162.571 218.447C163.657 217.45 164.545 216.621 165.22 216.004C165.506 215.747 165.748 215.527 165.946 215.351C166.137 215.212 166.232 215.139 166.24 215.153Z" fill="#263238"/>
<path d="M164.581 237.69C164.559 237.705 164.251 237.397 163.701 236.825C163.114 236.201 162.344 235.372 161.405 234.382C159.424 232.269 156.775 229.437 153.841 226.311C150.877 223.208 148.199 220.405 146.196 218.307C145.25 217.317 144.472 216.502 143.878 215.879C143.335 215.299 143.041 214.976 143.063 214.954C143.085 214.932 143.408 215.226 143.98 215.776C144.553 216.319 145.374 217.119 146.379 218.116C148.39 220.112 151.133 222.907 154.105 226.047C157.076 229.187 159.71 232.078 161.595 234.198C162.535 235.255 163.29 236.12 163.804 236.729C164.332 237.331 164.603 237.676 164.581 237.69Z" fill="#263238"/>
<path d="M172.417 221.895C172.417 221.895 172.49 221.704 172.644 221.33C172.806 220.963 173.077 220.42 173.525 219.774C174.412 218.505 176.122 216.744 178.961 215.717C179.665 215.46 180.436 215.255 181.257 215.145C182.079 215.013 182.96 214.998 183.869 215.079C185.689 215.226 187.626 215.871 189.445 216.979C191.265 218.087 192.959 219.701 194.251 221.748C195.512 223.787 196.437 226.319 196.261 229.033C196.173 230.383 195.755 231.748 195.006 232.951C194.258 234.154 193.216 235.203 191.984 236.01C189.518 237.624 186.422 238.439 183.268 238.277C181.69 238.189 180.091 237.859 178.572 237.257C177.054 236.648 175.608 235.731 174.464 234.477C173.899 233.839 173.422 233.12 173.048 232.342C172.681 231.557 172.432 230.72 172.3 229.855C172.035 228.123 172.226 226.326 172.754 224.624C173.818 221.22 176.261 218.16 179.548 216.37C182.806 214.521 187.017 214.301 190.59 215.864C192.38 216.62 194.001 217.837 195.219 219.407C196.444 220.978 197.163 222.914 197.405 224.91C197.647 226.905 197.347 228.989 196.452 230.838C196.004 231.755 195.417 232.613 194.705 233.362C193.986 234.103 193.172 234.741 192.284 235.262C188.689 237.323 184.287 237.595 180.487 236.37C178.58 235.761 176.797 234.77 175.352 233.406C173.906 232.056 172.857 230.266 172.49 228.343C172.101 226.436 172.329 224.389 173.261 222.687C173.723 221.836 174.368 221.095 175.124 220.515C175.88 219.928 176.738 219.503 177.626 219.195C179.401 218.586 181.272 218.439 183.084 218.476C184.896 218.52 186.694 218.725 188.411 219.224C190.113 219.716 191.749 220.501 193.033 221.704C194.317 222.892 195.19 224.484 195.52 226.15C195.865 227.815 195.74 229.539 195.234 231.102C194.72 232.672 193.803 234.059 192.673 235.174C190.406 237.404 187.384 238.629 184.449 238.754C182.982 238.82 181.522 238.615 180.194 238.13C178.866 237.639 177.67 236.869 176.76 235.863C175.836 234.873 175.175 233.699 174.772 232.481C174.354 231.271 174.185 230.009 174.236 228.798C174.31 226.355 175.403 224.176 176.834 222.606C178.271 221.022 180.04 219.98 181.771 219.415C183.51 218.828 185.219 218.777 186.701 218.945C189.695 219.327 191.771 220.567 193.018 221.491C193.649 221.961 194.089 222.371 194.375 222.65C194.654 222.936 194.793 223.09 194.793 223.09C194.793 223.09 194.639 222.958 194.346 222.68C194.052 222.408 193.605 222.012 192.967 221.55C191.712 220.655 189.636 219.444 186.679 219.092C185.212 218.938 183.532 219.004 181.822 219.584C180.12 220.156 178.389 221.19 176.988 222.746C175.586 224.286 174.537 226.414 174.471 228.798C174.427 229.979 174.589 231.212 175.007 232.393C175.41 233.574 176.056 234.719 176.951 235.673C177.831 236.641 178.99 237.389 180.282 237.859C181.573 238.321 182.996 238.519 184.427 238.453C187.288 238.328 190.245 237.118 192.446 234.939C193.539 233.853 194.427 232.511 194.918 230.992C195.41 229.481 195.52 227.815 195.19 226.208C194.867 224.602 194.038 223.083 192.798 221.946C191.565 220.794 189.981 220.031 188.308 219.554C186.635 219.07 184.86 218.865 183.07 218.828C181.287 218.791 179.453 218.945 177.736 219.54C176.026 220.112 174.449 221.242 173.583 222.863C172.696 224.47 172.483 226.429 172.857 228.27C173.209 230.119 174.207 231.828 175.608 233.134C177.002 234.447 178.741 235.416 180.597 236.01C184.302 237.206 188.609 236.942 192.086 234.939C192.945 234.433 193.737 233.817 194.427 233.105C195.109 232.386 195.674 231.564 196.107 230.684C196.965 228.916 197.259 226.898 197.024 224.969C196.796 223.039 196.092 221.168 194.918 219.657C193.744 218.146 192.182 216.964 190.443 216.231C186.973 214.719 182.901 214.925 179.724 216.715C176.525 218.454 174.134 221.44 173.092 224.749C172.578 226.407 172.388 228.153 172.644 229.818C172.769 230.647 173.011 231.461 173.356 232.21C173.715 232.958 174.17 233.648 174.713 234.264C175.814 235.482 177.215 236.37 178.697 236.971C180.179 237.566 181.742 237.888 183.29 237.984C186.378 238.152 189.423 237.36 191.829 235.79C194.243 234.242 195.865 231.689 196.004 229.048C196.187 226.414 195.3 223.927 194.06 221.909C192.798 219.884 191.133 218.292 189.35 217.192C187.56 216.091 185.659 215.446 183.869 215.292C182.974 215.211 182.109 215.218 181.294 215.343C180.48 215.446 179.717 215.644 179.02 215.893C176.203 216.884 174.493 218.608 173.591 219.855C173.136 220.486 172.85 221.014 172.681 221.381C172.512 221.711 172.417 221.895 172.417 221.895Z" fill="#F4D962"/>
<path d="M192.292 242.151C192.358 242.232 186.54 247.206 179.291 253.259C172.043 259.312 166.107 264.154 166.041 264.073C165.975 263.992 171.793 259.018 179.042 252.965C186.29 246.913 192.226 242.071 192.292 242.151Z" fill="#263238"/>
<path d="M193.561 263.427C193.546 263.449 193.194 263.2 192.585 262.73C191.925 262.217 191.059 261.534 190.01 260.713C187.846 258.996 184.874 256.612 181.602 253.956C178.33 251.3 175.381 248.879 173.261 247.111C172.241 246.252 171.404 245.541 170.759 245.005C170.172 244.499 169.856 244.213 169.878 244.191C169.893 244.169 170.245 244.418 170.854 244.888C171.515 245.401 172.38 246.084 173.429 246.905C175.594 248.622 178.565 251.006 181.837 253.662C185.109 256.318 188.051 258.739 190.171 260.507C191.191 261.366 192.028 262.077 192.673 262.613C193.26 263.119 193.576 263.405 193.561 263.427Z" fill="#263238"/>
<path d="M253.537 242.43C253.603 242.518 248.035 246.773 241.102 251.945C234.169 257.118 228.505 261.241 228.439 261.16C228.373 261.072 233.941 256.817 240.875 251.645C247.8 246.472 253.471 242.349 253.537 242.43Z" fill="#263238"/>
<path d="M255.694 260.486C255.636 260.574 249.73 256.905 242.496 252.298C235.262 247.683 229.444 243.876 229.503 243.788C229.562 243.7 235.467 247.361 242.701 251.975C249.935 256.583 255.753 260.398 255.694 260.486Z" fill="#263238"/>
<path d="M193.245 296.119C193.172 296.046 198.953 289.993 206.158 282.598C213.362 275.202 219.268 269.267 219.342 269.341C219.415 269.414 213.641 275.467 206.429 282.869C199.225 290.25 193.319 296.192 193.245 296.119Z" fill="#F4D962"/>
<path d="M217.684 296.104C217.676 296.112 217.588 296.024 217.449 295.855C217.28 295.642 217.075 295.393 216.825 295.084C216.253 294.365 215.49 293.412 214.566 292.245C212.643 289.861 209.936 286.611 206.789 283.155C203.641 279.7 200.655 276.699 198.454 274.564C197.383 273.537 196.503 272.686 195.835 272.048C195.556 271.776 195.322 271.549 195.131 271.358C194.97 271.197 194.896 271.108 194.904 271.101C194.911 271.094 195.006 271.16 195.182 271.307C195.388 271.483 195.637 271.688 195.938 271.945C196.591 272.502 197.515 273.331 198.638 274.373C200.89 276.457 203.913 279.436 207.068 282.898C210.222 286.361 212.907 289.648 214.771 292.084C215.703 293.302 216.444 294.299 216.943 294.996C217.163 295.319 217.353 295.583 217.508 295.811C217.632 295.994 217.691 296.097 217.684 296.104Z" fill="#F4D962"/>
<path d="M157.626 265.254C157.626 265.254 157.861 283.28 153.312 294.072L125.587 289.347C125.587 289.347 133.937 272.268 131.662 262.774L157.626 265.254Z" fill="#EBEBEB"/>
<path d="M157.619 264.579C157.619 264.579 154.149 286.684 152.021 293.273L124.458 287.836C124.458 287.836 130.129 266.443 130.048 260.485L157.619 264.579Z" fill="#F4D962"/>
<path d="M132.851 270.405C132.829 270.507 136.944 271.461 142.043 272.532C147.142 273.603 151.295 274.396 151.31 274.293C151.332 274.19 147.216 273.236 142.117 272.165C137.018 271.087 132.873 270.302 132.851 270.405Z" fill="white"/>
<path d="M132.146 275.085C132.124 275.188 136.24 276.141 141.339 277.213C146.438 278.284 150.591 279.076 150.613 278.973C150.635 278.871 146.519 277.917 141.42 276.846C136.314 275.775 132.168 274.99 132.146 275.085Z" fill="white"/>
<path d="M136.181 280.389C136.174 280.441 136.746 280.609 137.693 280.844C138.639 281.079 139.945 281.372 141.398 281.681C142.85 281.989 144.171 282.246 145.125 282.407C146.086 282.576 146.68 282.649 146.695 282.605C146.702 282.554 146.13 282.385 145.183 282.15C144.237 281.915 142.931 281.622 141.478 281.314C140.026 281.006 138.705 280.749 137.751 280.587C136.79 280.419 136.189 280.338 136.181 280.389Z" fill="white"/>
<path d="M288.782 214.632C288.782 214.632 291.622 232.203 288.746 243.406L260.984 242.812C260.984 242.812 266.663 224.925 263.068 215.982L288.782 214.632Z" fill="#EBEBEB"/>
<path d="M288.672 213.979C288.672 213.979 288.482 236.069 287.359 242.811L259.649 241.498C259.649 241.498 262.085 219.782 261.145 213.979H288.672Z" fill="#F4D962"/>
<path d="M265.056 223.802C265.056 223.905 269.223 223.993 274.366 224C279.509 224.007 283.683 223.934 283.683 223.831C283.683 223.729 279.516 223.641 274.366 223.633C269.223 223.626 265.056 223.707 265.056 223.802Z" fill="white"/>
<path d="M265.32 228.476C265.32 228.579 269.487 228.667 274.63 228.674C279.773 228.681 283.948 228.608 283.948 228.505C283.948 228.403 279.78 228.314 274.63 228.307C269.487 228.3 265.32 228.373 265.32 228.476Z" fill="white"/>
<path d="M270.287 232.789C270.287 232.841 270.881 232.885 271.842 232.921C272.803 232.958 274.131 232.98 275.591 232.98C277.059 232.98 278.386 232.965 279.348 232.929C280.309 232.899 280.903 232.848 280.903 232.804C280.903 232.753 280.309 232.709 279.348 232.672C278.386 232.635 277.059 232.613 275.599 232.613C274.131 232.613 272.803 232.628 271.85 232.665C270.881 232.694 270.287 232.738 270.287 232.789Z" fill="white"/>
<path d="M294.696 163.987C289.516 163.987 284.3 160.745 281.556 155.624C278.907 150.679 278.049 144.634 279.208 139.036C280.734 131.677 285.591 125.683 291.585 123.761C296.691 122.125 305.803 123.049 310.095 130.225C313.441 135.808 313.088 141.596 313.074 141.838C312.993 143.049 311.944 143.966 310.726 143.885C309.516 143.805 308.598 142.755 308.679 141.545C308.686 141.457 308.921 136.827 306.317 132.484C303.001 126.945 295.73 127.048 292.928 127.95C287.799 129.594 284.505 135.147 283.515 139.923C282.561 144.524 283.258 149.483 285.43 153.533C287.594 157.575 291.974 160.084 295.855 159.483C297.051 159.299 298.181 160.121 298.364 161.324C298.547 162.527 297.726 163.65 296.522 163.833C295.921 163.943 295.312 163.987 294.696 163.987Z" fill="#263238"/>
<path d="M152.571 163.988C147.392 163.988 142.176 160.745 139.432 155.624C136.783 150.679 135.925 144.634 137.084 139.043C138.368 132.851 142.711 125.727 149.519 123.754C152.623 122.859 156.357 123.05 159.512 124.267L157.927 128.376C155.235 127.334 152.447 127.495 150.737 127.987C145.682 129.447 142.403 135.045 141.383 139.938C140.429 144.538 141.126 149.498 143.298 153.548C145.462 157.59 149.857 160.099 153.723 159.498L154.391 163.848C153.797 163.944 153.18 163.988 152.571 163.988Z" fill="#263238"/>
<path d="M292.854 141.963L290.829 153.048H320.623L323.264 142.073L292.854 141.963Z" fill="#F4D962"/>
<path d="M160.121 162.241C160.121 164.861 158 166.981 155.381 166.981C152.762 166.981 150.642 164.861 150.642 162.241C150.642 159.622 152.762 157.502 155.381 157.502C158 157.502 160.121 159.622 160.121 162.241Z" fill="#263238"/>
<path d="M302.091 162.241C302.091 164.861 299.971 166.981 297.352 166.981C294.732 166.981 292.612 164.861 292.612 162.241C292.612 159.622 294.732 157.502 297.352 157.502C299.971 157.502 302.091 159.622 302.091 162.241Z" fill="#263238"/>
<path d="M223.905 70.5117L216.114 100.063L189.218 102.947V107.723L227.008 109.051L234.11 75.8968L223.905 70.5117Z" fill="#FFBE9D"/>
<path d="M235.247 109.836C235.247 109.836 193.223 107.833 181.257 117.202C169.292 126.57 175.043 141.845 175.043 141.845L242.679 141.669L248.644 107.393L235.247 109.836Z" fill="#263238"/>
<path d="M242.393 132.454C242.393 132.469 242.18 132.454 241.792 132.41C241.395 132.366 240.816 132.307 240.067 132.212C238.571 132.029 236.414 131.721 233.758 131.273C228.446 130.385 221.146 128.852 213.252 126.534C209.305 125.367 205.578 124.186 202.13 123.335C198.682 122.498 195.512 121.956 192.835 121.853C190.157 121.735 187.978 121.926 186.503 122.212C185.755 122.308 185.197 122.491 184.808 122.557C184.42 122.638 184.214 122.682 184.214 122.667C184.207 122.653 184.412 122.594 184.794 122.484C185.183 122.396 185.733 122.183 186.481 122.066C187.956 121.735 190.149 121.501 192.849 121.581C195.556 121.655 198.748 122.168 202.218 122.99C205.688 123.826 209.43 125 213.37 126.167C221.249 128.478 228.52 130.048 233.817 131.009C236.465 131.493 238.615 131.838 240.104 132.073C240.823 132.183 241.388 132.278 241.814 132.344C242.188 132.396 242.393 132.44 242.393 132.454Z" fill="#455A64"/>
<path d="M203.333 123.13C203.245 123.218 201.837 121.692 199.606 120.54C197.391 119.359 195.336 119.072 195.358 118.948C195.366 118.904 195.887 118.911 196.708 119.08C197.53 119.248 198.645 119.601 199.782 120.195C200.92 120.797 201.844 121.508 202.453 122.088C203.062 122.675 203.37 123.1 203.333 123.13Z" fill="#455A64"/>
<path d="M239.693 201.177L240.258 218.843L236.678 232.944C236.421 233.964 237.074 234.984 238.109 235.174C238.688 235.277 239.275 235.101 239.693 234.69C242.364 232.078 252.151 222.424 252.041 221.132C251.909 219.636 252.679 202.461 252.679 202.461L239.693 201.177Z" fill="#F4D962"/>
<g opacity="0.6">
<path opacity="0.6" d="M238.101 235.174L252.026 219.943L252.033 220.692C252.041 221.337 251.821 221.968 251.403 222.467C250.295 223.795 247.147 227.397 239.745 234.697C239.312 235.115 238.696 235.299 238.101 235.174Z" fill="white"/>
</g>
<g opacity="0.6">
<g opacity="0.6">
<path opacity="0.6" d="M248.35 214.272C247.91 214.581 247.771 215.256 248.064 215.703C248.358 216.158 249.04 216.305 249.48 215.997C249.928 215.696 250.119 214.896 249.774 214.478C249.436 214.06 248.622 213.935 248.262 214.331" fill="white"/>
</g>
</g>
<path d="M242.07 227.412C241.968 227.464 241.564 226.539 240.508 226.055C239.466 225.534 238.49 225.791 238.468 225.681C238.453 225.637 238.674 225.498 239.084 225.439C239.495 225.373 240.09 225.424 240.669 225.703C241.249 225.982 241.66 226.415 241.865 226.774C242.085 227.134 242.114 227.398 242.07 227.412Z" fill="#263238"/>
<path d="M240.838 229.79C240.757 229.871 240.185 229.298 239.268 229.042C238.358 228.77 237.566 228.946 237.536 228.836C237.485 228.748 238.329 228.367 239.371 228.667C240.412 228.968 240.926 229.746 240.838 229.79Z" fill="#263238"/>
<path d="M244.389 224.36C244.308 224.448 243.428 223.568 242.041 223.047C240.662 222.504 239.422 222.577 239.415 222.46C239.385 222.364 240.698 222.108 242.18 222.687C243.67 223.238 244.477 224.309 244.389 224.36Z" fill="#263238"/>
<path d="M244.668 218.975C244.623 219.078 243.64 218.682 242.371 218.645C241.102 218.594 240.097 218.924 240.06 218.814C240.009 218.726 241.021 218.205 242.386 218.256C243.75 218.301 244.719 218.887 244.668 218.975Z" fill="#263238"/>
<path d="M244.631 213.781C244.58 213.884 243.589 213.304 242.247 213.378C240.904 213.422 239.972 214.082 239.906 213.986C239.877 213.95 240.068 213.73 240.471 213.488C240.875 213.245 241.506 213.025 242.225 212.989C242.943 212.959 243.596 213.128 244.015 213.333C244.447 213.539 244.66 213.744 244.631 213.781Z" fill="#263238"/>
<path d="M242.268 212.394C242.246 212.394 242.202 212.16 242.239 211.727C242.276 211.301 242.393 210.67 242.753 209.973C242.943 209.643 243.134 209.218 243.626 208.983C243.868 208.865 244.235 208.902 244.447 209.137C244.66 209.364 244.726 209.65 244.734 209.929C244.726 211.052 243.772 212.145 242.511 212.321C241.241 212.475 240.09 211.756 239.583 210.795C239.473 210.545 239.393 210.237 239.525 209.937C239.657 209.636 240.016 209.511 240.266 209.555C240.794 209.628 241.124 209.929 241.432 210.149C242.048 210.634 242.43 211.147 242.65 211.514C242.877 211.881 242.951 212.115 242.929 212.123C242.87 212.167 242.474 211.257 241.271 210.369C240.97 210.164 240.618 209.907 240.236 209.878C240.053 209.863 239.891 209.937 239.833 210.083C239.767 210.23 239.803 210.45 239.906 210.641C240.339 211.433 241.395 212.079 242.459 211.932C243.523 211.8 244.359 210.832 244.374 209.929C244.374 209.709 244.315 209.496 244.198 209.364C244.081 209.24 243.905 209.203 243.743 209.269C243.398 209.408 243.171 209.782 242.987 210.098C242.261 211.404 242.349 212.409 242.268 212.394Z" fill="#263238"/>
<path d="M248.644 107.385C248.644 107.385 230.471 141.743 230.222 147.715C229.972 153.687 230.222 208.953 230.222 208.953H258.35C259.099 208.953 263.295 184.06 262.444 178.33C261.586 172.608 258.556 141.801 258.556 141.801H274.74C274.74 141.801 279.179 137.055 279.017 131.031C278.929 127.708 276.758 120.914 274.593 117.312C273.207 115.001 264.33 102.896 264.33 102.896L248.644 107.385Z" fill="#263238"/>
<path d="M247.426 109.704C247.433 109.704 247.404 109.777 247.345 109.902C247.279 110.049 247.191 110.232 247.081 110.46C246.824 110.973 246.472 111.692 246.025 112.602C245.555 113.534 244.983 114.664 244.33 115.977C244 116.637 243.648 117.341 243.274 118.082C242.921 118.838 242.555 119.645 242.166 120.482C240.603 123.849 238.74 127.847 236.678 132.286C235.644 134.509 234.558 136.835 233.428 139.256C232.87 140.466 232.298 141.692 231.718 142.939C231.176 144.193 230.75 145.514 230.471 146.886C230.185 148.258 230.068 149.637 230.046 151.016C229.994 152.388 229.972 153.746 229.95 155.081C229.914 157.744 229.899 160.319 229.906 162.77C229.914 167.67 229.965 172.08 230.016 175.785C230.075 179.468 230.119 182.461 230.148 184.559C230.163 185.572 230.17 186.371 230.178 186.944C230.178 187.2 230.178 187.406 230.178 187.567C230.178 187.707 230.17 187.78 230.163 187.78C230.156 187.78 230.148 187.707 230.134 187.567C230.126 187.406 230.112 187.2 230.097 186.944C230.075 186.371 230.038 185.572 229.994 184.559C229.921 182.49 229.826 179.49 229.738 175.785C229.65 172.08 229.576 167.663 229.547 162.762C229.532 160.312 229.539 157.737 229.569 155.066C229.591 153.731 229.613 152.374 229.664 150.994C229.686 149.622 229.804 148.199 230.097 146.805C230.383 145.404 230.816 144.054 231.374 142.785C231.953 141.538 232.533 140.305 233.098 139.094C234.235 136.681 235.328 134.355 236.37 132.132C238.461 127.708 240.346 123.717 241.931 120.357C242.327 119.52 242.709 118.721 243.068 117.965C243.45 117.224 243.816 116.527 244.154 115.874C244.836 114.576 245.423 113.453 245.907 112.529C246.384 111.634 246.758 110.929 247.03 110.423C247.155 110.203 247.25 110.02 247.331 109.88C247.382 109.763 247.419 109.704 247.426 109.704Z" fill="#455A64"/>
<path d="M241.542 121.413C241.439 121.442 240.83 119.506 240.082 117.121C239.334 114.737 238.732 112.8 238.835 112.763C238.93 112.727 239.701 114.612 240.449 117.011C241.197 119.396 241.645 121.384 241.542 121.413Z" fill="#455A64"/>
<path d="M262.495 177.281C262.481 177.281 262.451 177.149 262.415 176.892C262.371 176.591 262.319 176.217 262.253 175.769C262.129 174.735 261.953 173.334 261.74 171.624C261.336 168.066 260.793 163.246 260.192 157.927C259.605 152.571 259.099 147.722 258.805 144.207C258.658 142.491 258.541 141.082 258.453 140.04C258.424 139.585 258.394 139.211 258.38 138.903C258.365 138.646 258.365 138.507 258.38 138.507C258.394 138.507 258.416 138.639 258.46 138.896C258.497 139.196 258.548 139.571 258.607 140.026C258.724 141.06 258.886 142.469 259.077 144.178C259.465 147.736 259.994 152.556 260.573 157.883C261.131 163.209 261.637 168.029 262.011 171.587C262.173 173.304 262.305 174.713 262.407 175.747C262.444 176.202 262.473 176.576 262.495 176.877C262.51 177.141 262.51 177.273 262.495 177.281Z" fill="#455A64"/>
<path d="M255.357 15.3706C254.924 12.4726 257.441 9.61134 260.353 9.26652C263.266 8.91436 266.178 10.7705 267.521 13.3823C268.864 15.9942 268.768 19.1782 267.741 21.9221C267.044 23.7783 265.65 25.6564 263.677 25.8032C261.776 25.9426 260.192 24.4459 258.886 23.0593" fill="#263238"/>
<path d="M234.704 29.904C228.857 17.043 242.767 10.5794 250.353 12.729C257.485 14.7466 260.529 18.2902 261.703 23.0663C262.877 27.8424 262.818 33.0073 260.947 37.556C260.023 39.7937 258.365 42.0754 255.959 42.3541" fill="#263238"/>
<path d="M254.902 19.8755C256.157 20.0076 257.096 21.0787 257.074 22.3333L255.702 55.0691C255.65 58.9354 250.001 61.1217 245.863 61.0337C241.682 60.9457 241.542 58.8988 241.483 55.2158C241.381 49.0677 241.388 46.7641 241.381 46.8007C241.381 46.8007 236.098 45.9204 235.005 39.0313C234.462 35.6051 234.631 29.9853 234.925 25.3926C235.189 21.2621 237.925 16.1852 242.041 16.6254L254.902 19.8755Z" fill="#FFBE9D"/>
<path d="M237.595 29.317C237.58 29.7865 237.962 30.1827 238.446 30.2121C238.93 30.2414 239.341 29.8819 239.356 29.4124C239.371 28.9428 238.989 28.5466 238.505 28.5173C238.013 28.488 237.61 28.8474 237.595 29.317Z" fill="#263238"/>
<path d="M236.135 28.3194C236.245 28.4368 236.913 27.9379 237.867 27.9453C238.813 27.9306 239.517 28.4221 239.62 28.3048C239.671 28.2534 239.561 28.048 239.253 27.8205C238.952 27.6005 238.446 27.3877 237.852 27.3877C237.258 27.3877 236.759 27.6078 236.473 27.8352C236.186 28.0627 236.084 28.2681 236.135 28.3194Z" fill="#263238"/>
<path d="M246.891 29.318C246.876 29.7875 247.257 30.1837 247.742 30.213C248.226 30.2424 248.637 29.8829 248.651 29.4133C248.666 28.9438 248.284 28.5476 247.8 28.5183C247.316 28.4889 246.905 28.8484 246.891 29.318Z" fill="#263238"/>
<path d="M245.489 28.4962C245.599 28.6136 246.267 28.1147 247.221 28.122C248.167 28.1074 248.871 28.5989 248.974 28.4815C249.025 28.4302 248.915 28.2247 248.607 27.9973C248.306 27.7772 247.8 27.5645 247.206 27.5645C246.612 27.5645 246.113 27.7846 245.827 28.012C245.533 28.2394 245.431 28.4448 245.489 28.4962Z" fill="#263238"/>
<path d="M242.034 35.5539C242.041 35.5025 241.447 35.3998 240.486 35.2751C240.244 35.2531 240.016 35.2017 239.972 35.033C239.913 34.8569 240.016 34.5928 240.133 34.314C240.361 33.7271 240.603 33.1108 240.852 32.4652C241.85 29.8313 242.569 27.667 242.466 27.6304C242.364 27.5937 241.469 29.6919 240.471 32.3258C240.229 32.9714 240.001 33.595 239.781 34.1893C239.686 34.468 239.532 34.7762 239.657 35.143C239.723 35.3264 239.899 35.4585 240.053 35.4952C240.207 35.5392 240.346 35.5465 240.464 35.5539C241.432 35.5979 242.034 35.6052 242.034 35.5539Z" fill="#263238"/>
<path d="M241.381 46.8079C241.381 46.8079 246.017 47.1087 250.61 44.3428C250.61 44.3428 248.372 49.0749 241.476 48.4293L241.381 46.8079Z" fill="#EB996E"/>
<path d="M242.437 37.8432C242.782 37.3884 243.376 37.1463 243.971 37.205C244.381 37.249 244.8 37.4471 245.049 37.7846C245.298 38.122 245.35 38.5989 245.122 38.9217C244.866 39.2812 244.33 39.3693 243.875 39.2372C243.42 39.1051 243.031 38.8117 242.657 38.5109C242.555 38.4302 242.452 38.3421 242.386 38.2321C242.32 38.122 242.305 37.9753 242.386 37.8799" fill="#EB996E"/>
<path d="M244.836 36.2071C244.682 36.1997 244.682 37.2269 243.794 37.9605C242.914 38.6942 241.814 38.5768 241.806 38.7235C241.792 38.7895 242.048 38.9216 242.518 38.9363C242.973 38.951 243.64 38.8042 244.176 38.3567C244.712 37.9092 244.946 37.3076 244.983 36.882C245.02 36.4565 244.902 36.2071 244.836 36.2071Z" fill="#263238"/>
<path d="M245.056 26.831C245.152 27.0878 246.098 26.9704 247.213 27.1025C248.328 27.2125 249.231 27.5427 249.378 27.3079C249.444 27.1978 249.29 26.9557 248.923 26.7063C248.563 26.4568 247.984 26.2221 247.316 26.1414C246.648 26.068 246.032 26.178 245.629 26.3395C245.225 26.5082 245.02 26.7136 245.056 26.831Z" fill="#263238"/>
<path d="M236.487 25.569C236.656 25.7817 237.309 25.5617 238.094 25.547C238.879 25.5103 239.547 25.6937 239.701 25.4663C239.767 25.3562 239.664 25.1435 239.371 24.938C239.084 24.7326 238.6 24.5712 238.065 24.5859C237.522 24.6006 237.052 24.7986 236.781 25.0187C236.502 25.2388 236.414 25.4663 236.487 25.569Z" fill="#263238"/>
<path d="M245.46 14.3291C242.951 14.4098 241.043 15.1801 238.842 16.3833C236.641 17.5865 234.792 19.5821 234.118 21.9958C233.971 22.5094 233.89 23.0963 234.176 23.5512C234.55 24.1528 235.423 24.2482 236.069 23.962C236.707 23.6686 237.17 23.0963 237.61 22.5461C237.933 23.808 239.187 24.7691 240.493 24.7544C241.799 24.7397 243.031 23.7493 243.332 22.48C243.34 23.8006 244.668 24.8938 245.988 24.8498C247.309 24.8057 248.483 23.7786 248.923 22.5314C249.172 23.7052 249.429 24.9231 250.133 25.8989C250.838 26.8747 252.114 27.5423 253.251 27.1681C253.09 28.1952 252.929 29.2737 253.295 30.2495C253.662 31.2252 255.122 47.7986 256.105 47.4611C257.059 47.1309 257.052 30.2201 257.272 29.237C257.705 27.3369 258.071 25.4073 258.013 23.4631C257.954 21.5189 257.433 19.5381 256.237 18.0047C255.005 16.4127 253.134 15.4076 251.19 14.894C249.246 14.3805 247.206 14.3218 245.196 14.3511" fill="#263238"/>
<path d="M259.267 44.5191C259.275 44.5337 259.201 44.5631 259.055 44.6144C258.915 44.6658 258.695 44.7245 258.409 44.7685C257.844 44.8566 256.978 44.8566 255.988 44.5191C255.012 44.2036 253.882 43.492 253.156 42.2961C252.408 41.1149 252.122 39.5449 252.246 37.9822C252.364 36.4122 252.723 34.9742 252.892 33.6463C253.075 32.3257 253.163 31.1225 253.2 30.11C253.229 29.0976 253.222 28.2759 253.207 27.711C253.193 27.1461 253.185 26.8306 253.215 26.8232C253.237 26.8232 253.295 27.1314 253.354 27.6963C253.413 28.2612 253.464 29.0902 253.471 30.11C253.471 31.1298 253.413 32.3477 253.244 33.6903C253.09 35.0329 252.738 36.4782 252.628 38.0042C252.51 39.5229 252.767 40.9975 253.457 42.1127C254.124 43.2425 255.152 43.9248 256.083 44.2623C257.015 44.6071 257.844 44.6585 258.394 44.6144C258.952 44.5778 259.26 44.4824 259.267 44.5191Z" fill="#263238"/>
<path d="M243.031 13.4407C243.061 13.426 243.369 14.0203 243.391 15.0768C243.42 16.1112 243.061 17.6372 241.924 18.8257C240.779 20.0069 239.268 20.4251 238.233 20.4325C237.177 20.4545 236.568 20.1683 236.583 20.139C236.597 20.073 237.214 20.2564 238.219 20.161C239.202 20.0803 240.596 19.6474 241.652 18.5543C242.701 17.4611 243.083 16.0525 243.127 15.0694C243.171 14.0716 242.965 13.4627 243.031 13.4407Z" fill="#455A64"/>
<path d="M244.059 21.5552C244.095 21.5626 244.007 22.0321 243.486 22.5383C242.973 23.0445 241.997 23.4921 240.889 23.426C239.789 23.3527 238.886 22.8978 238.299 22.5383C237.705 22.1715 237.39 21.878 237.419 21.8413C237.448 21.7973 237.823 22.0028 238.431 22.3036C239.04 22.597 239.906 22.9859 240.919 23.0519C241.924 23.1106 242.811 22.7511 243.318 22.3402C243.824 21.9294 244 21.5259 244.059 21.5552Z" fill="#455A64"/>
<path d="M260.661 19.4492C260.705 19.4566 260.713 20.1755 260.529 21.3347C260.346 22.4792 259.95 24.1153 258.842 25.5826C257.719 27.0499 256.076 27.7616 254.895 27.8276C254.3 27.8716 253.816 27.7909 253.501 27.6882C253.185 27.5855 253.024 27.4974 253.031 27.4754C253.046 27.4021 253.736 27.7102 254.865 27.5561C255.973 27.4241 257.485 26.7124 258.541 25.3478C259.59 23.9686 260.016 22.3985 260.265 21.2834C260.507 20.1609 260.603 19.4492 260.661 19.4492Z" fill="#455A64"/>
<path d="M261.923 22.7949C261.945 22.7949 261.996 23.0003 262.033 23.3745C262.07 23.7487 262.107 24.2989 262.07 24.9812C262.004 26.3165 261.644 28.3047 260.236 29.9261C259.539 30.7258 258.673 31.3127 257.793 31.5915C256.912 31.8776 256.054 31.8703 255.379 31.7382C254.697 31.5988 254.19 31.3347 253.882 31.1073C253.567 30.8798 253.442 30.7111 253.449 30.6964C253.486 30.6304 254.11 31.2687 255.423 31.4741C256.069 31.5695 256.868 31.5401 257.675 31.2613C258.49 30.9825 259.289 30.425 259.942 29.6766C261.278 28.1506 261.666 26.2725 261.798 24.9665C261.923 23.6313 261.857 22.7949 261.923 22.7949Z" fill="#455A64"/>
<path d="M165.22 111.473L151.896 141.919H170.238L183.29 111.23L165.22 111.473Z" fill="#455A64"/>
<path d="M155.535 79.096L170.561 108.633H217.926L216.011 104.774L202.291 104.363L191.11 79.4628C190.414 77.9148 188.873 76.917 187.178 76.917H156.878C155.748 76.917 155.022 78.0982 155.535 79.096Z" fill="#E0E0E0"/>
<path d="M179.255 92.316C179.255 93.3138 178.44 94.1282 177.442 94.1282C176.445 94.1282 175.63 93.3138 175.63 92.316C175.63 91.3183 176.445 90.5039 177.442 90.5039C178.44 90.5039 179.255 91.3183 179.255 92.316Z" fill="#263238"/>
<path d="M222.966 108.677H165.066V111.501H222.966V108.677Z" fill="#455A64"/>
<path d="M205.131 110.086L222.746 141.949H231.168L233.002 138.31L234.69 134.465L222.966 111.502L205.131 110.086Z" fill="#455A64"/>
<path d="M235.739 55.4648C235.739 55.4648 225.512 59.0671 223.311 70.5122L234.11 75.8972L235.739 55.4648Z" fill="#F4D962"/>
<path d="M235.739 55.4649C235.739 55.4649 228.578 71.5027 228.857 80.2552C228.953 83.3073 230.955 91.2381 230.955 91.2381L234.668 110.951C234.668 110.951 263.141 107.092 263.772 107.092C264.403 107.092 262.818 90.9226 262.818 90.9226L267.462 59.8375C267.462 59.8375 265.335 55.6043 255.738 54.137C249.965 53.2566 235.739 55.4649 235.739 55.4649Z" fill="#F4D962"/>
<path d="M233.068 64.775C233.134 64.8116 232.379 66.0002 231.484 68.0764C231.029 69.1109 230.574 70.3728 230.163 71.8034C229.774 73.2414 229.429 74.8407 229.231 76.5502C229.048 78.2596 229.019 79.8956 229.077 81.385C229.165 82.8743 229.319 84.2095 229.532 85.31C229.943 87.5257 230.413 88.8536 230.339 88.8756C230.317 88.8829 230.185 88.5601 229.98 87.9585C229.87 87.6577 229.745 87.2909 229.635 86.8507C229.518 86.4105 229.371 85.919 229.268 85.3614C229.019 84.2536 228.828 82.9036 228.725 81.3996C228.644 79.8956 228.659 78.2302 228.85 76.4988C229.055 74.7674 229.407 73.146 229.826 71.7007C230.266 70.2554 230.75 68.9861 231.242 67.959C231.462 67.4381 231.726 66.9906 231.931 66.5871C232.137 66.1836 232.342 65.8534 232.511 65.582C232.848 65.0464 233.046 64.7603 233.068 64.775Z" fill="#263238"/>
<path d="M239.202 55.3101L239.62 50.9229C239.708 49.9765 240.5 49.2428 241.454 49.2281L255.504 49.0227C256.391 49.008 257.132 49.6903 257.198 50.5707L257.558 55.3101C257.558 55.3101 256.047 59.0298 251.916 61.0327C247.786 63.0356 241.366 63.1016 241.366 63.1016L239.202 55.3101Z" fill="#F4D962"/>
<path d="M242.877 49.258C242.921 49.3021 242.716 49.5442 242.628 50.021C242.525 50.4979 242.599 51.1876 242.657 51.9726C242.76 53.5353 242.767 54.8118 242.657 54.8192C242.555 54.8265 242.379 53.5646 242.276 52.0019C242.217 51.2316 242.18 50.4832 242.371 49.955C242.54 49.4268 242.855 49.2214 242.877 49.258Z" fill="#263238"/>
<path d="M246.245 54.7092C246.142 54.7165 245.981 53.4766 245.893 51.9506C245.856 51.1876 245.805 50.498 245.878 49.9698C245.951 49.4415 246.172 49.1701 246.208 49.1994C246.26 49.2288 246.142 49.5076 246.15 49.9918C246.15 50.4686 246.245 51.1656 246.274 51.9286C246.362 53.4546 246.348 54.7018 246.245 54.7092Z" fill="#263238"/>
<path d="M250.463 54.5918C250.361 54.6065 250.111 53.4033 249.913 51.9066C249.715 50.4099 249.642 49.1847 249.744 49.1701C249.847 49.1554 250.097 50.3586 250.295 51.8552C250.493 53.3519 250.566 54.5771 250.463 54.5918Z" fill="#263238"/>
<path d="M254.102 54.8997C254 54.9144 253.699 53.6011 253.574 51.943C253.442 50.285 253.545 48.9424 253.648 48.9424C253.758 48.9424 253.831 50.2776 253.956 51.9137C254.08 53.5498 254.212 54.8777 254.102 54.8997Z" fill="#263238"/>
<g opacity="0.3">
<g opacity="0.3">
<path opacity="0.3" d="M256.89 71.6709C256.333 76.6158 256.7 85.1188 258.446 89.7776L266.648 76.2269L256.89 71.6709Z" fill="black"/>
</g>
</g>
<path d="M266.699 58.8398L266.736 58.8839C269.062 61.3269 270.764 64.2909 271.703 67.5337L273.214 74.4227L257.074 76.9245C257.074 76.9245 255.687 73.0875 256.457 67.9005C257.228 62.7136 266.699 58.8398 266.699 58.8398Z" fill="#F4D962"/>
<path d="M273.214 74.4154C273.214 74.4301 273.104 74.4521 272.899 74.4961C272.649 74.5401 272.341 74.5988 271.967 74.6648C271.101 74.8042 269.942 74.995 268.511 75.2298C265.518 75.6846 261.439 76.3082 256.817 77.0125L256.612 77.0419L256.604 76.8291C256.568 75.8534 256.538 74.8409 256.523 73.8065C256.487 71.0919 256.487 68.5094 256.678 66.1544C256.817 63.7847 257.587 61.7084 258.556 60.1971C259.524 58.6711 260.698 57.7393 261.564 57.2478C261.997 56.9984 262.356 56.8443 262.606 56.7636C262.855 56.6755 262.987 56.6389 262.987 56.6535C263.002 56.6902 262.473 56.859 261.637 57.3799C260.808 57.9008 259.7 58.8472 258.783 60.3512C257.866 61.8478 257.147 63.8654 257.03 66.1911C256.861 68.5241 256.868 71.1066 256.905 73.8065C256.934 74.8409 256.956 75.8534 256.986 76.8218L256.773 76.6457C261.402 75.9928 265.489 75.4132 268.482 74.995C269.913 74.8116 271.087 74.6575 271.952 74.5401C272.326 74.4961 272.635 74.4668 272.891 74.4374C273.097 74.4081 273.214 74.4081 273.214 74.4154Z" fill="#263238"/>
<path d="M239.121 64.2977C239.048 64.3784 238.043 63.6008 236.876 62.559C235.702 61.5172 234.815 60.6148 234.881 60.5341C234.954 60.4534 235.959 61.231 237.126 62.2728C238.299 63.3146 239.194 64.2244 239.121 64.2977Z" fill="#FAFAFA"/>
<path d="M236.942 72.7933C237.001 72.8813 236.113 73.5343 234.961 74.2459C233.809 74.9576 232.841 75.4638 232.782 75.3758C232.724 75.2877 233.611 74.6348 234.763 73.9231C235.908 73.2041 236.883 72.7052 236.942 72.7933Z" fill="#FAFAFA"/>
<path d="M245.944 74.8773C245.841 74.8699 245.841 73.4686 245.944 71.7372C246.047 70.0131 246.216 68.6118 246.326 68.6192C246.428 68.6265 246.428 70.0278 246.326 71.7592C246.216 73.4907 246.047 74.8846 245.944 74.8773Z" fill="#FAFAFA"/>
<path d="M254.697 83.3728C254.609 83.4389 253.772 82.3824 252.657 81.1645C251.542 79.9393 250.566 79.0149 250.64 78.9342C250.706 78.8535 251.806 79.6679 252.936 80.9078C254.073 82.1403 254.777 83.3141 254.697 83.3728Z" fill="#FAFAFA"/>
<path d="M255.929 65.6257C255.988 65.7138 255.027 66.4621 253.787 67.2911C252.547 68.1275 251.491 68.7291 251.432 68.6411C251.373 68.553 252.334 67.8047 253.574 66.9757C254.821 66.1393 255.87 65.5377 255.929 65.6257Z" fill="#FAFAFA"/>
<path d="M248.02 59.2065C248.079 59.2946 247.03 60.0649 245.687 60.9306C244.337 61.7963 243.2 62.4199 243.149 62.3319C243.09 62.2439 244.139 61.4735 245.482 60.6078C246.832 59.7421 247.969 59.1185 248.02 59.2065Z" fill="#FAFAFA"/>
<path d="M255.151 61.759C255.056 61.7956 254.557 60.7612 254.036 59.4553C253.523 58.142 253.178 57.0489 253.281 57.0049C253.376 56.9682 253.875 58.0026 254.396 59.3159C254.909 60.6218 255.254 61.7149 255.151 61.759Z" fill="#FAFAFA"/>
<path d="M264.961 64.9725C264.887 65.0458 264.154 64.4369 263.325 63.6079C262.496 62.7788 261.879 62.0525 261.953 61.9718C262.026 61.8984 262.76 62.5074 263.589 63.3364C264.425 64.1654 265.034 64.8991 264.961 64.9725Z" fill="#FAFAFA"/>
<path d="M260.94 72.1263C260.837 72.1336 260.691 71.1285 260.625 69.8886C260.559 68.6414 260.588 67.6289 260.691 67.6289C260.793 67.6216 260.94 68.6267 261.006 69.8666C261.072 71.1065 261.043 72.1189 260.94 72.1263Z" fill="#FAFAFA"/>
<path d="M269.069 70.644C269.062 70.7467 267.91 70.776 266.501 70.5559C265.093 70.3432 263.999 69.969 264.029 69.8736C264.058 69.7709 265.173 69.969 266.56 70.1818C267.946 70.3945 269.076 70.5413 269.069 70.644Z" fill="#FAFAFA"/>
<path d="M236.201 85.4275C236.106 85.4715 235.445 84.2756 234.726 82.7496C234.007 81.2236 233.501 79.9544 233.597 79.9104C233.692 79.8663 234.352 81.0622 235.071 82.5882C235.79 84.1142 236.296 85.3835 236.201 85.4275Z" fill="#FAFAFA"/>
<path d="M246.942 97.0048C246.854 97.0635 246.054 96.1097 245.159 94.8698C244.257 93.6299 243.596 92.5735 243.684 92.5075C243.772 92.4488 244.572 93.4025 245.467 94.6424C246.362 95.8896 247.03 96.9461 246.942 97.0048Z" fill="#FAFAFA"/>
<path d="M255.885 92.1474C255.922 92.2428 254.836 92.7564 253.449 93.2919C252.063 93.8275 250.911 94.1797 250.874 94.0769C250.838 93.9816 251.923 93.468 253.31 92.9324C254.697 92.4042 255.848 92.0521 255.885 92.1474Z" fill="#FAFAFA"/>
<path d="M233.941 101.531C233.846 101.487 234.162 100.584 234.646 99.5131C235.13 98.442 235.6 97.6129 235.695 97.6569C235.79 97.701 235.475 98.6034 234.991 99.6745C234.506 100.746 234.037 101.575 233.941 101.531Z" fill="#FAFAFA"/>
<path d="M227.038 68.3773C226.95 68.4213 226.502 67.6143 226.326 66.4992C226.143 65.3913 226.311 64.4816 226.407 64.4963C226.517 64.5036 226.524 65.384 226.7 66.4405C226.869 67.4969 227.14 68.3333 227.038 68.3773Z" fill="#FAFAFA"/>
<path d="M239.29 94.1066C239.238 94.2019 238.263 93.7544 237.111 93.1161C235.959 92.4778 235.071 91.8836 235.123 91.7882C235.174 91.6928 236.15 92.1404 237.302 92.7786C238.453 93.4243 239.341 94.0112 239.29 94.1066Z" fill="#FAFAFA"/>
<path d="M246.377 81.8759C246.45 81.9566 245.577 82.859 244.425 83.9008C243.281 84.9426 242.291 85.7203 242.217 85.6396C242.144 85.5589 243.017 84.6565 244.169 83.6147C245.32 82.5802 246.311 81.8025 246.377 81.8759Z" fill="#FAFAFA"/>
<g opacity="0.3">
<g opacity="0.3">
<path opacity="0.3" d="M242.041 81.6562C242.503 84.18 243.464 86.6965 245.306 88.4793C247.147 90.2621 249.979 91.1718 252.364 90.2327C252.863 90.0346 253.383 89.7045 253.501 89.1836C253.64 88.5746 253.149 87.973 252.576 87.7309C252.004 87.4888 251.359 87.5108 250.735 87.4742C247.184 87.2761 243.817 85.0971 242.18 81.9424" fill="black"/>
</g>
</g>
<path d="M251.579 87.5699C251.579 87.5992 251.403 87.6286 251.087 87.6579C250.764 87.6946 250.295 87.6872 249.722 87.6286C249.15 87.5699 248.468 87.4158 247.749 87.1663C247.03 86.8949 246.274 86.5281 245.541 86.0218C244.814 85.5083 244.198 84.9287 243.699 84.3491C243.208 83.7622 242.826 83.1826 242.577 82.6617C242.32 82.1481 242.151 81.7079 242.07 81.3925C241.99 81.0843 241.953 80.9082 241.982 80.9009C242.048 80.8789 242.254 81.5612 242.811 82.5296C243.09 83.0212 243.479 83.5568 243.963 84.1143C244.462 84.6572 245.064 85.2148 245.761 85.7064C246.465 86.1906 247.191 86.5574 247.874 86.8362C248.563 87.093 249.209 87.2764 249.766 87.3644C250.867 87.5478 251.579 87.4965 251.579 87.5699Z" fill="#263238"/>
<path d="M211.191 99.3885L221.821 98.1119L229.312 103.02L257.947 96.153L258.622 76.5497L271.336 74.877V98.6108C271.211 104.649 266.193 109.425 260.155 109.263L218.212 108.104L216.429 104.531L207.427 104.267L211.191 99.3885Z" fill="#FFBE9D"/>
<path d="M257.58 96.1604C257.58 96.1751 257.397 96.2264 257.044 96.3218C256.663 96.4245 256.142 96.5566 255.489 96.7253C254.102 97.0701 252.144 97.5617 249.744 98.156C244.858 99.3371 238.16 100.966 230.757 102.756C230.163 102.895 229.576 103.042 228.989 103.182L228.916 103.196L228.857 103.16C226.209 101.421 223.685 99.7627 221.374 98.2367L221.477 98.2587C217.273 98.7429 213.634 99.1684 210.846 99.4839L210.919 99.4472C209.731 100.959 208.784 102.162 208.109 103.013C207.794 103.409 207.544 103.717 207.354 103.952C207.178 104.165 207.082 104.267 207.075 104.26C207.068 104.253 207.148 104.135 207.302 103.915C207.478 103.673 207.721 103.35 208.014 102.947C208.667 102.081 209.591 100.856 210.743 99.3225L210.773 99.2858L210.817 99.2785C213.604 98.9336 217.236 98.4788 221.44 97.9505L221.499 97.9432L221.543 97.9725C223.861 99.4839 226.385 101.135 229.041 102.873L228.901 102.859C229.481 102.719 230.075 102.58 230.669 102.433C238.079 100.68 244.785 99.0877 249.678 97.9285C252.092 97.3709 254.058 96.9234 255.452 96.6006C256.113 96.4539 256.641 96.3438 257.022 96.2558C257.382 96.1824 257.573 96.1457 257.58 96.1604Z" fill="#EB996E"/>
<path d="M216.994 102.433C216.994 102.529 215.145 102.602 212.863 102.602C212.607 102.602 212.357 102.602 212.108 102.602L212.211 102.565C210.736 103.798 209.584 104.685 209.533 104.627C209.481 104.568 210.545 103.57 211.998 102.316L212.042 102.279H212.1C212.343 102.279 212.599 102.279 212.856 102.279C215.145 102.264 216.994 102.345 216.994 102.433Z" fill="#EB996E"/>
<path d="M262.848 99.3595C262.76 99.4108 262.209 98.0682 260.764 97.1805C259.333 96.2635 257.888 96.3441 257.895 96.2414C257.888 96.2048 258.24 96.1241 258.82 96.1681C259.392 96.2121 260.184 96.4249 260.94 96.8944C261.688 97.3713 262.224 97.9949 262.517 98.4864C262.811 98.9927 262.884 99.3448 262.848 99.3595Z" fill="#EB996E"/>
<path d="M79.3744 256.091H31.4666V262.672H79.3744V256.091Z" fill="#263238"/>
<path d="M79.4551 262.753H31.3859V256.003H79.4551V262.753ZM31.5473 262.591H79.2937V256.172H31.5473V262.591Z" fill="#263238"/>
<path d="M35.9052 260.479L42.8016 294.506H68.3182L74.9872 262.672L35.9052 260.479Z" fill="#263238"/>
<path d="M35.9052 291.284L39.5882 296.339H70.5999L74.9872 291.284H35.9052Z" fill="#455A64"/>
<path d="M53.6231 261.476C53.5277 261.476 53.4103 245.717 53.3516 226.275C53.3002 206.833 53.3296 191.074 53.425 191.074C53.5203 191.074 53.6377 206.833 53.6964 226.275C53.7478 245.717 53.7184 261.476 53.6231 261.476Z" fill="#263238"/>
<path d="M64.2978 222.035C64.3051 222.042 64.2611 222.167 64.1657 222.401C64.0557 222.665 63.909 223.003 63.7402 223.421C63.6448 223.649 63.5421 223.891 63.4247 224.155C63.322 224.434 63.2193 224.734 63.1093 225.05C62.9919 225.373 62.8672 225.717 62.7424 226.077C62.6177 226.444 62.515 226.84 62.3903 227.251C61.8694 228.887 61.4512 230.89 61.0477 233.12C60.6955 235.358 60.4387 237.837 60.3067 240.457C60.0719 245.688 60.3727 250.434 60.6882 253.853C60.8423 255.563 60.9963 256.949 61.1137 257.903C61.1651 258.351 61.2018 258.717 61.2311 259.004C61.2531 259.253 61.2604 259.392 61.2531 259.392C61.2384 259.392 61.2091 259.268 61.1651 259.018C61.1137 258.732 61.055 258.373 60.9817 257.925C60.8276 256.979 60.6368 255.592 60.4534 253.883C60.0719 250.464 59.7418 245.702 59.9765 240.442C60.1086 237.815 60.3801 235.321 60.7469 233.069C61.1651 230.831 61.6126 228.821 62.1629 227.185C62.2949 226.774 62.405 226.378 62.5444 226.018C62.6837 225.659 62.8158 225.314 62.9405 224.998C63.0653 224.683 63.1826 224.382 63.2853 224.111C63.4027 223.839 63.5275 223.605 63.6302 223.384C63.8283 222.981 63.9897 222.651 64.1144 222.387C64.2171 222.145 64.2831 222.027 64.2978 222.035Z" fill="#263238"/>
<path d="M63.0725 209.283C63.0799 209.291 63.0285 209.467 62.9185 209.804C62.7937 210.171 62.625 210.655 62.4196 211.271C62.3095 211.594 62.1848 211.946 62.0527 212.328C61.9354 212.724 61.8033 213.142 61.6639 213.597C61.3851 214.507 61.0623 215.549 60.7688 216.715C60.6148 217.295 60.4534 217.904 60.2846 218.535C60.1379 219.173 59.9912 219.841 59.8371 220.53C59.4996 221.902 59.2575 223.391 58.9494 224.947C58.4211 228.079 57.9589 231.535 57.6361 235.189C57.3353 238.842 57.2033 242.334 57.1519 245.511C57.1446 248.688 57.1813 251.549 57.3133 253.948C57.3573 255.151 57.4307 256.23 57.4967 257.184C57.5481 258.137 57.6141 258.959 57.6728 259.627C57.7242 260.272 57.7608 260.786 57.7902 261.167C57.8122 261.52 57.8195 261.71 57.8049 261.71C57.7902 261.71 57.7608 261.527 57.7168 261.175C57.6728 260.793 57.6141 260.28 57.5334 259.634C57.4527 258.967 57.372 258.145 57.2986 257.191C57.2179 256.237 57.1226 255.151 57.0639 253.948C56.9025 251.549 56.8364 248.681 56.8291 245.497C56.8584 242.312 56.9832 238.813 57.284 235.152C57.6068 231.491 58.0837 228.021 58.6266 224.888C58.942 223.325 59.1988 221.836 59.5436 220.464C59.705 219.775 59.8591 219.107 60.0132 218.469C60.1893 217.838 60.358 217.229 60.5194 216.649C60.8202 215.483 61.165 214.448 61.4658 213.538C61.6125 213.084 61.7519 212.665 61.8767 212.269C62.0234 211.888 62.1555 211.536 62.2728 211.22C62.5076 210.618 62.691 210.134 62.8304 209.775C62.9845 209.452 63.0579 209.283 63.0725 209.283Z" fill="#263238"/>
<path d="M50.593 264.264C50.5857 264.264 50.5784 264.206 50.5637 264.081C50.549 263.941 50.5343 263.758 50.5197 263.538C50.483 263.039 50.439 262.335 50.3803 261.454C50.2629 259.613 50.1015 257.001 49.9034 253.78C49.4852 247.302 48.8836 238.344 47.7978 228.498C47.2402 223.576 46.5946 218.902 45.9196 214.662C45.5601 212.549 45.2373 210.531 44.8705 208.66C44.533 206.782 44.1735 205.043 43.836 203.451C43.5206 201.859 43.1684 200.436 42.8896 199.174C42.6108 197.912 42.3467 196.834 42.1193 195.961C41.9065 195.095 41.7451 194.42 41.6204 193.928C41.569 193.708 41.5324 193.54 41.4957 193.4C41.4737 193.283 41.459 193.217 41.4663 193.217C41.4737 193.217 41.4957 193.276 41.5324 193.393C41.569 193.532 41.6204 193.701 41.6864 193.914C41.8185 194.398 42.0092 195.073 42.244 195.931C42.4861 196.804 42.7796 197.883 43.073 199.137C43.3738 200.392 43.7407 201.815 44.0708 203.407C44.423 204.992 44.7971 206.731 45.1493 208.616C45.5308 210.487 45.8609 212.505 46.2278 214.618C46.9174 218.858 47.5777 223.539 48.1353 228.469C49.2284 238.322 49.7933 247.287 50.1455 253.773C50.3216 257.016 50.4463 259.642 50.5197 261.454C50.549 262.342 50.5784 263.039 50.593 263.545C50.6004 263.765 50.6004 263.949 50.6077 264.088C50.6004 264.198 50.6004 264.264 50.593 264.264Z" fill="#263238"/>
<path d="M53.2342 198.653C53.0288 196.423 50.7691 194.735 48.5241 194.713C46.2791 194.691 44.1882 196.034 42.8236 197.809C41.4517 199.585 40.696 201.749 40.0797 203.906C38.5684 209.166 37.7467 214.691 38.3923 220.127C39.0379 225.563 41.2463 230.912 45.142 234.749C45.7729 235.372 46.5946 235.996 47.4677 235.813C47.9445 235.71 48.3334 235.38 48.6929 235.057C56.3523 228.139 60.7762 217.772 60.4754 207.449C60.4167 205.381 60.1453 203.231 59.0008 201.507C57.8489 199.79 55.1784 197.956 53.2342 198.653Z" fill="#F4D962"/>
<path d="M36.4848 180.766C35.4283 182.674 34.3792 184.581 33.3227 186.489C33.2494 186.621 33.154 186.775 32.9999 186.782C32.8312 186.797 32.7065 186.643 32.6184 186.496C29.8379 182.226 27.05 177.956 24.2694 173.679L26.1916 172.586L36.4848 180.766Z" fill="#F4D962"/>
<g opacity="0.2">
<g opacity="0.2">
<g opacity="0.2">
<path opacity="0.2" d="M36.4848 180.766C35.4283 182.674 34.3792 184.581 33.3227 186.489C33.2494 186.621 33.154 186.775 32.9999 186.782C32.8312 186.797 32.7065 186.643 32.6184 186.496C29.8379 182.226 27.05 177.956 24.2694 173.679L26.1916 172.586L36.4848 180.766Z" fill="black"/>
</g>
</g>
</g>
<path d="M53.425 191.074C43.9315 185.469 34.4379 179.871 24.9444 174.266C24.6509 174.097 24.3355 173.892 24.2474 173.569C24.13 173.151 24.4529 172.74 24.7536 172.425C28.6714 168.382 34.3646 166.042 39.977 166.445C45.5895 166.849 50.9893 170.092 53.7405 175.007C56.4843 179.915 56.5797 186.408 53.425 191.074Z" fill="#F4D962"/>
<path d="M29.0455 168.903C29.0455 168.889 29.1703 168.874 29.4197 168.859C29.6618 168.845 30.0286 168.801 30.4982 168.808C31.4373 168.786 32.7945 168.845 34.4526 169.123C36.1107 169.395 38.0475 169.93 40.0797 170.833C42.112 171.735 44.2102 173.041 46.1177 174.751C48.0179 176.482 49.5219 178.441 50.6224 180.37C51.7229 182.3 52.4492 184.178 52.8821 185.799C53.3223 187.421 53.5204 188.771 53.5864 189.702C53.6377 190.165 53.6304 190.532 53.6451 190.781C53.6524 191.03 53.6451 191.155 53.6377 191.155C53.6084 191.155 53.5717 190.642 53.4617 189.717C53.3516 188.793 53.1168 187.465 52.6546 185.865C51.7522 182.696 49.6613 178.419 45.8903 175C42.1193 171.588 37.6513 169.938 34.4086 169.358C32.7725 169.057 31.4299 168.955 30.4982 168.94C29.5664 168.918 29.0455 168.933 29.0455 168.903Z" fill="#263238"/>
<path d="M49.566 179.475C49.5806 179.519 49.0304 179.768 48.128 180.128C47.2182 180.487 45.949 180.942 44.5331 181.39C43.1171 181.837 41.8112 182.197 40.8648 182.431C39.9184 182.666 39.3241 182.769 39.3094 182.725C39.2947 182.681 39.867 182.49 40.7987 182.197C41.8479 181.866 43.0731 181.485 44.423 181.067C45.7729 180.634 46.9908 180.238 48.0399 179.9C48.9717 179.599 49.5513 179.423 49.566 179.475Z" fill="#263238"/>
<path d="M45.0833 167.421C45.1713 167.414 45.3768 168.83 45.4208 170.598C45.4648 172.366 45.3401 173.789 45.2447 173.789C45.1493 173.789 45.1273 172.358 45.076 170.605C45.0393 168.859 44.9879 167.436 45.0833 167.421Z" fill="#263238"/>
<path d="M24.695 173.944C24.6803 173.9 25.4726 173.613 26.7639 173.217C28.0551 172.821 29.8599 172.315 31.8701 171.831C33.8804 171.346 35.7145 170.972 37.0498 170.745C38.385 170.51 39.2141 170.407 39.2214 170.451C39.2287 170.503 38.4144 170.686 37.0938 170.98C35.7732 171.273 33.9537 171.684 31.9508 172.161C29.948 172.645 28.1432 173.107 26.8299 173.452C25.5167 173.79 24.7096 173.995 24.695 173.944Z" fill="#263238"/>
<path d="M40.2925 193.363C37.8421 191.507 35.2523 191.14 32.1782 191.265C29.1042 191.39 26.1182 192.322 23.301 193.554C18.4955 195.66 13.9835 198.756 11.1149 203.143C8.24632 207.53 7.24854 213.341 9.39816 218.124C9.61092 218.601 9.88971 219.1 10.3739 219.306C10.8801 219.526 11.4597 219.35 11.9806 219.181C17.4464 217.398 22.9415 215.601 27.967 212.813C32.9926 210.025 37.5633 206.144 40.2558 201.067C40.9014 199.849 41.4443 198.543 41.547 197.171C41.6498 195.799 41.2683 194.339 40.2925 193.363Z" fill="#F4D962"/>
<path d="M40.3365 192.791C40.3365 192.806 40.2044 192.857 39.9403 192.953C39.6468 193.055 39.2653 193.187 38.7958 193.349C38.5464 193.43 38.2676 193.525 37.9668 193.628C37.666 193.738 37.3432 193.87 36.9983 194.002C36.3087 194.281 35.5017 194.559 34.658 194.97C34.2325 195.168 33.7849 195.366 33.3154 195.579C32.8532 195.792 32.3836 196.056 31.8994 196.306C30.909 196.79 29.9039 197.413 28.8401 198.044C26.7491 199.365 24.5262 200.964 22.3692 202.842C20.2269 204.743 18.3634 206.738 16.7861 208.646C16.0231 209.621 15.2821 210.538 14.6731 211.456C14.365 211.91 14.0422 212.336 13.7707 212.769C13.4993 213.202 13.2425 213.62 12.9931 214.016C12.4795 214.801 12.098 215.564 11.7312 216.21C11.5551 216.54 11.379 216.841 11.2323 217.119C11.0929 217.406 10.9682 217.67 10.8508 217.904C10.6307 218.352 10.4546 218.711 10.3152 218.99C10.1905 219.24 10.1171 219.364 10.1098 219.357C10.1025 219.35 10.1465 219.218 10.2565 218.961C10.3812 218.675 10.5426 218.301 10.7334 217.846C10.8434 217.604 10.9608 217.332 11.0856 217.046C11.2249 216.76 11.3864 216.452 11.5624 216.114C11.9146 215.454 12.2814 214.684 12.7803 213.884C13.0224 213.48 13.2792 213.055 13.5433 212.615C13.8074 212.175 14.1302 211.742 14.4384 211.279C15.04 210.348 15.781 209.423 16.5366 208.433C18.114 206.503 19.9848 204.486 22.1418 202.571C24.3134 200.678 26.5511 199.079 28.6713 197.765C29.7498 197.142 30.7623 196.526 31.7674 196.041C32.2663 195.792 32.7358 195.535 33.2053 195.33C33.6749 195.124 34.1297 194.926 34.5626 194.735C35.421 194.339 36.228 194.075 36.9323 193.811C37.2845 193.686 37.6073 193.562 37.9154 193.459C38.2162 193.371 38.5023 193.283 38.7591 193.209C39.236 193.07 39.6248 192.96 39.9256 192.879C40.1971 192.813 40.3365 192.777 40.3365 192.791Z" fill="#263238"/>
<path d="M21.2027 203.15C21.2321 203.238 18.5616 204.104 15.2454 205.072C11.9293 206.041 9.21475 206.752 9.19274 206.664C9.1634 206.576 11.8339 205.718 15.15 204.742C18.4662 203.774 21.1734 203.062 21.2027 203.15Z" fill="#263238"/>
<path d="M20.9533 216.305C20.9092 216.305 20.8506 215.593 20.8212 214.449C20.7919 213.304 20.7845 211.712 20.8359 209.966C20.8872 208.213 20.9753 206.628 21.078 205.484C21.1734 204.339 21.2687 203.635 21.3128 203.635C21.3641 203.635 21.3494 204.346 21.3201 205.498C21.2834 206.753 21.2321 208.286 21.1807 209.974C21.1367 211.661 21.1 213.194 21.0707 214.449C21.034 215.593 21.0046 216.305 20.9533 216.305Z" fill="#263238"/>
<path d="M32.2222 210.56C32.1269 210.567 31.8261 207.339 31.5546 203.355C31.2758 199.372 31.1291 196.136 31.2245 196.129C31.3198 196.122 31.6206 199.35 31.8921 203.333C32.1635 207.325 32.3103 210.56 32.2222 210.56Z" fill="#263238"/>
<path d="M18.1947 195.821C18.1947 195.777 18.9284 195.755 20.1022 195.762C21.2834 195.769 22.9048 195.806 24.7022 195.865C26.4997 195.924 28.1211 195.997 29.2949 196.07C30.4688 196.144 31.1951 196.21 31.1951 196.254C31.1951 196.298 30.4688 196.32 29.2876 196.312C28.1064 196.305 26.485 196.268 24.6876 196.21C22.8901 196.151 21.2687 196.078 20.0875 196.004C18.921 195.938 18.1947 195.872 18.1947 195.821Z" fill="#263238"/>
<path d="M46.3525 236.283C46.3379 236.283 46.3305 236.15 46.3085 235.894C46.2938 235.6 46.2792 235.233 46.2572 234.771C46.2131 233.803 46.2058 232.394 46.2425 230.648C46.2718 228.909 46.3892 226.84 46.5946 224.544C46.8147 222.255 47.1375 219.739 47.5997 217.127C48.0693 214.515 48.6415 212.042 49.2211 209.819C49.8227 207.596 50.4243 205.616 50.9966 203.972C51.5615 202.329 52.0604 201.008 52.4346 200.113C52.6106 199.695 52.7574 199.35 52.8674 199.079C52.9701 198.844 53.0288 198.727 53.0435 198.727C53.0508 198.734 53.0141 198.859 52.9334 199.101C52.8381 199.38 52.7133 199.724 52.5593 200.157C52.2218 201.067 51.7596 202.395 51.224 204.046C50.6811 205.696 50.1015 207.677 49.5219 209.9C48.957 212.123 48.4068 214.588 47.9299 217.193C47.475 219.797 47.1449 222.299 46.9028 224.581C46.6827 226.862 46.5433 228.924 46.4773 230.663C46.4112 232.394 46.3819 233.803 46.3819 234.771C46.3745 235.226 46.3745 235.6 46.3672 235.894C46.3745 236.15 46.3672 236.283 46.3525 236.283Z" fill="#263238"/>
<path d="M47.8565 216.848C47.8859 216.877 47.4603 217.361 46.7194 218.095C45.9857 218.829 44.9366 219.819 43.7407 220.861C42.5448 221.91 41.4297 222.813 40.608 223.451C39.7863 224.089 39.2507 224.449 39.2214 224.412C39.192 224.375 39.6689 223.942 40.4539 223.26C41.327 222.497 42.3688 221.595 43.5133 220.604C44.6504 219.599 45.6849 218.682 46.5506 217.919C47.3356 217.229 47.8272 216.811 47.8565 216.848Z" fill="#263238"/>
<path d="M56.8731 224.11C56.8291 224.14 56.3816 223.487 55.6626 222.438C54.8849 221.3 53.9165 219.892 52.8454 218.329C51.7522 216.781 50.7691 215.387 49.9694 214.265C49.2284 213.223 48.7809 212.577 48.8176 212.548C48.8543 212.519 49.3752 213.12 50.1602 214.118C50.9525 215.123 52.009 216.532 53.1242 218.138C54.2393 219.738 55.1931 221.22 55.8607 222.313C56.5357 223.391 56.9098 224.088 56.8731 224.11Z" fill="#263238"/>
<path d="M52.1484 201.272C52.1997 201.353 49.2064 203.37 45.4574 205.777C41.7084 208.183 38.6344 210.069 38.583 209.995C38.5317 209.915 41.525 207.897 45.274 205.491C49.023 203.077 52.097 201.191 52.1484 201.272Z" fill="#263238"/>
<path d="M60.5928 210.384C60.5268 210.45 58.5019 208.579 56.0661 206.195C53.6304 203.818 51.7082 201.829 51.7742 201.763C51.8403 201.697 53.8652 203.568 56.3009 205.953C58.744 208.337 60.6588 210.318 60.5928 210.384Z" fill="#263238"/>
<path d="M62.7204 210.201L65.2882 209.988C67.115 209.834 68.8831 209.298 70.4825 208.396C71.2675 207.948 72.0672 207.516 72.9036 207.178C76.0803 205.902 79.6312 206.129 83.0501 205.96C88.6332 205.681 94.1576 204.265 99.1905 201.83C99.484 201.69 99.7408 201.478 99.8948 201.191C100.423 200.23 99.44 199.372 98.5963 198.851C94.2677 196.181 89.8584 193.481 84.9429 192.153C80.0274 190.825 74.4589 191.052 70.2624 193.936C65.3469 197.332 63.5494 204.287 62.7204 210.201Z" fill="#F4D962"/>
<path d="M99.9462 200.883C99.9389 200.891 99.7921 200.825 99.5133 200.678C99.2052 200.516 98.8017 200.304 98.2955 200.04C97.239 199.482 95.7203 198.66 93.7981 197.743C91.876 196.833 89.5429 195.799 86.8284 195.058C84.1285 194.31 81.0105 193.913 77.7971 194.324C74.5983 194.743 71.649 195.99 69.5654 197.861C67.4672 199.724 66.1833 201.969 65.2809 203.884C64.3785 205.813 63.8209 207.449 63.4174 208.572C63.2266 209.108 63.0725 209.54 62.9625 209.871C62.8525 210.164 62.7938 210.318 62.7791 210.318C62.7644 210.318 62.8084 210.157 62.8965 209.849C62.9992 209.518 63.1312 209.078 63.2926 208.528C63.6595 207.391 64.1804 205.74 65.0681 203.781C65.9558 201.844 67.2251 199.548 69.3673 197.626C71.4949 195.696 74.5103 194.412 77.7604 193.987C81.0252 193.569 84.1946 193.98 86.9164 194.757C89.653 195.528 91.986 196.584 93.9082 197.53C95.823 198.484 97.327 199.335 98.3688 199.929C98.8604 200.216 99.2565 200.45 99.5574 200.626C99.8141 200.788 99.9535 200.876 99.9462 200.883Z" fill="#263238"/>
<path d="M93.7761 204.2C93.7248 204.281 90.3573 202.102 86.2635 199.343C82.1697 196.585 78.8902 194.281 78.9416 194.2C78.9929 194.12 82.3531 196.299 86.4542 199.057C90.548 201.823 93.8275 204.127 93.7761 204.2Z" fill="#263238"/>
<path d="M90.5481 193.885C90.5627 193.973 89.3962 194.281 87.9216 194.413C86.4469 194.553 85.2437 194.465 85.2437 194.377C85.2437 194.281 86.4322 194.208 87.8922 194.076C89.3449 193.936 90.526 193.79 90.5481 193.885Z" fill="#263238"/>
<path d="M75.4714 191.177C75.5521 191.229 75.0605 192.212 74.3709 193.386C73.6812 194.559 73.0576 195.469 72.9769 195.418C72.8962 195.366 73.3878 194.383 74.0774 193.21C74.7597 192.043 75.3907 191.133 75.4714 191.177Z" fill="#263238"/>
<path d="M78.4794 206.181C78.4574 206.217 77.8338 205.894 76.858 205.3C75.8896 204.713 74.5763 203.848 73.175 202.828C71.7737 201.808 70.5339 200.847 69.6461 200.143C68.7584 199.438 68.2228 198.983 68.2522 198.947C68.2815 198.91 68.8685 199.292 69.7929 199.952C70.798 200.686 72.0232 201.573 73.3731 202.556C74.7744 203.569 76.0583 204.464 76.9901 205.102C77.9291 205.74 78.5087 206.144 78.4794 206.181Z" fill="#263238"/>
<path d="M66.5061 221.125C64.0557 220.479 61.1284 222.864 60.6222 225.351C60.116 227.838 61.0477 230.376 62.1409 232.665C64.5546 237.735 67.8927 242.437 72.28 245.93C76.6746 249.429 82.1697 251.667 87.7822 251.638C86.7477 246.825 88.0536 241.792 87.4814 236.898C86.9752 232.628 84.9869 228.549 81.9276 225.527C78.8756 222.504 74.7744 220.552 70.4972 220.09C68.9419 219.929 67.1297 219.679 66.5061 221.125Z" fill="#F4D962"/>
<path d="M87.7895 251.645C87.7822 251.653 87.6648 251.601 87.4374 251.484C87.2173 251.366 86.8945 251.168 86.5203 250.868C85.75 250.281 84.8696 249.158 84.0992 247.632C83.7104 246.876 83.2702 246.047 82.8447 245.138C82.4338 244.221 81.9863 243.245 81.5241 242.218C81.0546 241.198 80.541 240.134 79.9027 239.1C79.2644 238.065 78.5088 237.053 77.6724 236.062C75.9923 234.089 74.1949 232.387 72.6322 230.751C71.0621 229.129 69.7416 227.567 68.7878 226.136C67.8267 224.72 67.2398 223.443 66.9096 222.548C66.7482 222.094 66.6382 221.741 66.5795 221.499C66.5208 221.257 66.4915 221.125 66.4988 221.125C66.5281 221.118 66.6675 221.624 67.027 222.504C67.3939 223.377 68.0028 224.617 68.9785 226.004C69.947 227.398 71.2749 228.931 72.8523 230.531C74.4223 232.145 76.2344 233.847 77.9292 235.835C78.7729 236.833 79.5432 237.86 80.1815 238.916C80.8271 239.973 81.3407 241.051 81.8029 242.078C82.2578 243.105 82.6906 244.089 83.0941 245.006C83.505 245.915 83.9305 246.744 84.3047 247.507C85.0457 249.041 85.8674 250.149 86.5937 250.758C87.3273 251.381 87.8115 251.609 87.7895 251.645Z" fill="#263238"/>
<path d="M75.1046 247.639C75.0605 247.631 75.1339 247.001 75.332 245.988C75.5227 244.976 75.8382 243.589 76.2637 242.085C76.6893 240.574 77.1441 239.231 77.511 238.263C77.8705 237.302 78.1346 236.722 78.1786 236.737C78.2226 236.751 78.0392 237.36 77.7384 238.343C77.4376 239.319 77.0194 240.676 76.5939 242.18C76.1684 243.684 75.8235 245.056 75.5668 246.047C75.3173 247.037 75.1559 247.646 75.1046 247.639Z" fill="#263238"/>
<path d="M87.3273 235.82C87.3126 235.864 86.6597 235.703 85.6032 235.424C84.5468 235.145 83.0868 234.771 81.4654 234.404C79.844 234.037 78.362 233.751 77.2909 233.553C76.2197 233.348 75.5521 233.223 75.5594 233.172C75.5668 233.128 76.2418 233.172 77.3276 233.318C78.4134 233.458 79.91 233.707 81.5388 234.074C83.1675 234.441 84.6275 234.859 85.6692 235.196C86.7037 235.527 87.3347 235.776 87.3273 235.82Z" fill="#263238"/>
<path d="M66.0072 239.253C65.9632 239.246 66.0586 238.512 66.2713 237.346C66.4841 236.172 66.8289 234.565 67.2911 232.804C67.7533 231.043 68.2375 229.473 68.619 228.344C69.0005 227.214 69.2793 226.531 69.3234 226.546C69.3674 226.561 69.1766 227.272 68.8538 228.417C68.531 229.561 68.0835 231.139 67.6213 232.892C67.1664 234.646 66.7849 236.238 66.5134 237.397C66.2347 238.549 66.0586 239.26 66.0072 239.253Z" fill="#263238"/>
<path d="M81.7002 225.519C81.6928 225.615 78.6261 225.365 74.8625 224.969C71.0988 224.573 68.0541 224.169 68.0615 224.074C68.0688 223.979 71.1355 224.228 74.8992 224.624C78.6628 225.028 81.7075 225.424 81.7002 225.519Z" fill="#263238"/>
<path d="M79.4551 262.642C79.4551 262.738 68.6924 262.811 55.4205 262.811C42.1413 262.811 31.3859 262.738 31.3859 262.642C31.3859 262.547 42.1413 262.474 55.4205 262.474C68.6924 262.474 79.4551 262.547 79.4551 262.642Z" fill="#455A64"/>
<path d="M71.9719 276.494C71.9719 276.589 64.7233 276.663 55.78 276.663C46.8367 276.663 39.5882 276.589 39.5882 276.494C39.5882 276.399 46.8367 276.325 55.78 276.325C64.716 276.325 71.9719 276.399 71.9719 276.494Z" fill="#455A64"/>
<path d="M72.2506 278.474C72.2506 278.57 65.0021 278.643 56.0588 278.643C47.1155 278.643 39.8669 278.57 39.8669 278.474C39.8669 278.379 47.1155 278.306 56.0588 278.306C65.0021 278.306 72.2506 278.379 72.2506 278.474Z" fill="#455A64"/>
<path d="M72.2506 274.858C72.2506 274.954 64.7527 275.027 55.5012 275.027C46.2498 275.027 38.7518 274.954 38.7518 274.858C38.7518 274.763 46.2498 274.689 55.5012 274.689C64.7527 274.689 72.2506 274.77 72.2506 274.858Z" fill="#455A64"/>
</g>
<defs>
<clipPath id="clip0">
<rect width="451.83" height="300" fill="white"/>
</clipPath>
</defs>
</svg>
