<svg width="283" height="300" viewBox="0 0 283 300" fill="none" xmlns="http://www.w3.org/2000/svg">
<g clip-path="url(#clip0)">
<path d="M0.830444 135.419V169.832C0.830444 176.059 5.87968 181.108 12.1064 181.108H135.491C141.718 181.108 146.767 176.059 146.767 169.832V140.757L162.124 124.62L12.1425 124.15C5.90136 124.129 0.830444 129.178 0.830444 135.419Z" fill="#F5F5F5"/>
<path d="M128.571 144.998L16.6066 144.477L16.6211 141.039L128.586 141.552L128.571 144.998Z" fill="#E0E0E0"/>
<path d="M128.571 156.317L16.6066 155.797L16.6211 152.358L128.586 152.878L128.571 156.317Z" fill="#E0E0E0"/>
<path d="M84.2898 163.69L84.2729 167.129L128.575 167.347L128.592 163.908L84.2898 163.69Z" fill="#E0E0E0"/>
<path d="M115.157 254.319V288.731C115.157 294.958 120.206 300.007 126.433 300.007H249.818C256.045 300.007 261.094 294.958 261.094 288.731V259.657L276.451 243.519L126.469 243.05C120.228 243.028 115.157 248.077 115.157 254.319Z" fill="#F5F5F5"/>
<path d="M243.432 263.001L131.475 262.481L131.482 259.043L243.447 259.556L243.432 263.001Z" fill="#E0E0E0"/>
<path d="M243.432 274.321L131.475 273.808L131.482 270.362L243.447 270.882L243.432 274.321Z" fill="#E0E0E0"/>
<path d="M199.152 281.696L199.136 285.135L243.437 285.353L243.454 281.914L199.152 281.696Z" fill="#E0E0E0"/>
<path d="M66.7812 5.80078H139.551C143.155 5.80078 146.074 8.71908 146.074 12.3236V47.9211C146.074 51.5257 143.155 54.444 139.551 54.444H77.797C74.1925 54.444 71.2742 51.5257 71.2742 47.9211V10.2938L66.7812 5.80078Z" fill="#F5F5F5"/>
<path d="M108.967 40.4012V63.2203C108.967 67.3521 105.622 70.6966 101.49 70.6966H19.6549C15.5231 70.6966 12.1786 67.3521 12.1786 63.2203V43.9335L1.99343 33.2355L101.469 32.9249C105.608 32.9104 108.967 36.2621 108.967 40.4012Z" fill="#E0E0E0"/>
<path d="M24.2419 46.751L98.4997 46.4115L98.4924 44.1289L24.2346 44.4684L24.2419 46.751Z" fill="#F5F5F5"/>
<path d="M24.2419 54.2631L98.4997 53.9164L98.4924 51.6338L24.2346 51.9805L24.2419 54.2631Z" fill="#F5F5F5"/>
<path d="M53.622 59.1542L24.2367 59.2988L24.2479 61.5815L53.6332 61.4368L53.622 59.1542Z" fill="#F5F5F5"/>
<path d="M263.99 146.233V169.052C263.99 173.184 260.646 176.528 256.514 176.528H174.679C170.547 176.528 167.203 173.184 167.203 169.052V149.765L157.017 139.06L256.492 138.749C260.632 138.742 263.99 142.094 263.99 146.233Z" fill="#E0E0E0"/>
<path d="M179.266 152.582L253.524 152.243L253.516 149.96L179.259 150.299L179.266 152.582Z" fill="#F5F5F5"/>
<path d="M179.266 160.094L253.524 159.747L253.516 157.465L179.259 157.812L179.266 160.094Z" fill="#F5F5F5"/>
<path d="M208.648 164.986L179.263 165.131L179.274 167.413L208.659 167.269L208.648 164.986Z" fill="#F5F5F5"/>
<path d="M193.893 259.534C181.664 247.622 181.462 229.202 184.647 213.195C185.175 210.522 185.348 207.64 187.009 205.495C188.671 203.349 191.921 202.222 194.139 203.746C195.981 205.011 196.472 207.474 197.274 209.576C198.343 212.371 200.207 214.849 202.591 216.626C204.158 217.796 206.188 218.685 208.03 218.027C210.558 217.124 211.353 213.968 211.779 211.295C212.566 206.311 213.346 201.319 214.134 196.335C214.553 193.662 214.993 190.932 216.243 188.526C217.493 186.128 219.71 184.07 222.369 183.773C225.027 183.477 227.931 185.456 228.039 188.165C228.082 189.292 227.678 190.383 227.57 191.503C227.461 192.622 227.779 193.937 228.783 194.421C229.802 194.912 230.993 194.327 231.918 193.677C235.118 191.43 237.56 188.259 239.878 185.088C242.197 181.917 244.473 178.659 247.456 176.124C250.439 173.588 254.282 171.826 258.147 172.237C262.011 172.649 265.702 175.676 266.056 179.591C266.41 183.521 263.586 186.981 260.697 189.639C256.406 193.583 251.552 196.899 246.336 199.448C245.397 199.911 244.379 200.402 243.895 201.341C243.021 203.031 244.422 205.076 246.083 205.95C247.969 206.939 250.165 207.084 252.209 207.676C254.253 208.261 256.362 209.554 256.825 211.649C257.475 214.56 254.715 217.052 252.166 218.555C247.051 221.574 241.424 223.698 235.609 224.81C233.529 225.208 231.355 225.496 229.542 226.623C227.728 227.743 226.378 229.989 227.028 232.027C227.678 234.071 230.04 235.075 232.156 235.032C234.28 234.988 236.303 234.172 238.39 233.753C242.291 232.966 246.994 233.999 248.828 237.56C250.035 239.9 249.695 242.826 248.503 245.188C247.311 247.55 245.375 249.428 243.367 251.133C236.346 257.078 227.902 261.405 218.901 262.965C209.879 264.511 201.854 264.012 193.893 259.534Z" fill="#FDD958"/>
<path d="M191.726 271.43C193.352 265.146 195.988 257.843 199.701 250.121C203.4 242.385 208.16 234.244 213.426 225.893C214.748 223.813 216.062 221.754 217.348 219.724C218.641 217.702 219.92 215.701 221.299 213.816C224.037 210.038 226.948 206.614 229.823 203.45C232.691 200.286 235.53 197.382 238.202 194.695C240.882 192.008 243.432 189.552 245.845 187.406C250.663 183.108 254.954 180.103 257.988 178.16C259.505 177.185 260.697 176.463 261.52 175.993C261.91 175.769 262.221 175.589 262.452 175.459C262.661 175.343 262.777 175.285 262.777 175.293C262.784 175.3 262.683 175.372 262.474 175.502C262.25 175.647 261.946 175.834 261.563 176.08C260.762 176.586 259.577 177.33 258.082 178.326C255.091 180.313 250.844 183.354 246.069 187.674C243.678 189.826 241.15 192.29 238.484 194.991C235.826 197.693 233.002 200.597 230.148 203.768C227.295 206.932 224.398 210.348 221.682 214.112C220.317 215.983 219.046 217.976 217.753 219.999C216.467 222.029 215.159 224.08 213.83 226.161C208.564 234.504 203.804 242.616 200.091 250.323C196.364 258.016 193.713 265.276 192.044 271.524" fill="#263238"/>
<path d="M221.444 213.823C221.408 213.823 221.386 213.404 221.372 212.639C221.35 211.88 221.357 210.775 221.393 209.41C221.451 206.686 221.661 202.93 221.906 198.784C222.152 194.638 222.304 190.889 222.325 188.173C222.34 186.815 222.332 185.717 222.325 184.958C222.318 184.2 222.332 183.773 222.369 183.773C222.405 183.773 222.455 184.192 222.52 184.951C222.593 185.709 222.643 186.815 222.679 188.173C222.751 190.896 222.658 194.667 222.412 198.813C222.159 202.901 221.928 206.6 221.755 209.424C221.682 210.703 221.625 211.779 221.574 212.639C221.523 213.404 221.48 213.823 221.444 213.823Z" fill="#263238"/>
<path d="M256.861 213.029C256.854 213.065 256.355 213.036 255.467 212.971C254.571 212.906 253.278 212.805 251.674 212.725C248.474 212.552 244.039 212.465 239.142 212.581C234.244 212.704 229.816 213.007 226.623 213.318C225.027 213.462 223.734 213.614 222.838 213.715C221.942 213.816 221.451 213.86 221.444 213.823C221.437 213.787 221.928 213.686 222.809 213.52C223.698 213.361 224.983 213.159 226.58 212.964C229.773 212.559 234.215 212.198 239.127 212.075C244.039 211.96 248.489 212.104 251.689 212.372C253.292 212.494 254.585 212.646 255.474 212.776C256.377 212.906 256.861 212.993 256.861 213.029Z" fill="#263238"/>
<path d="M200.228 249.558C200.214 249.565 200.156 249.407 200.062 249.103C199.961 248.742 199.831 248.301 199.679 247.767C199.354 246.604 198.921 244.906 198.415 242.797C197.404 238.586 196.183 232.735 194.926 226.255C193.67 219.768 192.507 213.91 191.582 209.692C191.127 207.64 190.751 205.95 190.47 204.693C190.354 204.151 190.253 203.696 190.173 203.328C190.108 203.017 190.087 202.851 190.101 202.844C190.116 202.844 190.173 202.995 190.267 203.299C190.368 203.66 190.498 204.101 190.65 204.635C190.975 205.798 191.409 207.496 191.914 209.605C192.925 213.816 194.146 219.667 195.403 226.154C196.66 232.634 197.823 238.492 198.74 242.718C199.196 244.769 199.571 246.459 199.853 247.716C199.968 248.258 200.07 248.713 200.149 249.081C200.214 249.385 200.243 249.551 200.228 249.558Z" fill="#263238"/>
<path d="M248.301 242.32C248.301 242.335 248.135 242.378 247.817 242.436C247.441 242.494 246.979 242.573 246.416 242.66C245.123 242.855 243.382 243.122 241.265 243.447C236.917 244.112 230.921 245.094 224.297 246.192C217.673 247.29 211.663 248.222 207.3 248.793C205.119 249.081 203.349 249.291 202.128 249.421C201.565 249.472 201.095 249.515 200.72 249.558C200.395 249.58 200.228 249.587 200.221 249.573C200.221 249.558 200.387 249.515 200.705 249.457C201.081 249.399 201.543 249.32 202.107 249.233C203.4 249.038 205.133 248.771 207.257 248.446C211.606 247.781 217.601 246.799 224.225 245.701C230.849 244.603 236.859 243.671 241.222 243.1C243.403 242.811 245.173 242.602 246.394 242.472C246.957 242.421 247.427 242.371 247.803 242.335C248.128 242.306 248.294 242.299 248.301 242.32Z" fill="#263238"/>
<path d="M72.3794 97.1063C70.1473 95.3727 69.1505 92.3099 69.6128 89.5216C70.0823 86.7333 71.881 84.2701 74.207 82.6665C75.2833 81.9297 76.6196 81.3446 77.8765 81.713C79.0467 82.0597 79.863 83.1938 80.1014 84.3929C80.3397 85.592 80.0797 86.8345 79.6824 87.9902C78.3099 91.9487 76.2584 95.5316 72.3794 97.1063Z" fill="#455A64"/>
<path d="M68.7099 103.867C64.3107 99.8509 57.889 98.1751 52.0885 99.5187C50.6077 99.8582 48.9463 100.638 48.7007 102.141C48.4551 103.643 49.7987 104.915 51.1134 105.673C56.5816 108.844 63.9929 108.245 68.8832 104.243" fill="#455A64"/>
<path d="M47.5088 72.5603C49.9504 71.8885 52.6231 72.4953 54.7829 73.81C56.9428 75.1246 58.6331 77.1039 59.9839 79.242C62.5988 83.3739 63.5234 88.936 63.639 93.8263C58.2069 93.6096 53.5694 89.3405 51.3517 87.0218C47.8411 83.3739 43.7237 74.6334 47.5088 72.5603Z" fill="#455A64"/>
<path d="M76.9302 111.256C76.6124 110.678 76.0923 110.274 75.5722 109.212C74.5537 107.095 73.1812 104.076 72.5167 100.493C71.8521 96.9031 72.2999 93.508 73.1957 91.2976C73.6291 90.1852 74.1203 89.3401 74.5103 88.8055C74.9004 88.2638 75.1532 88.0037 75.1821 88.0181C75.276 88.0759 74.3153 89.2173 73.5641 91.4277C72.7911 93.6164 72.4155 96.8959 73.0584 100.399C73.7085 103.903 75.0015 106.9 75.9334 109.053" fill="#263238"/>
<path d="M76.9808 111.322C76.2512 110.383 75.3049 109.155 74.1492 107.674C71.7726 104.59 68.4715 100.335 64.7658 95.683C61.0602 91.0383 57.6507 86.8703 55.173 83.8653C53.9883 82.4134 52.9987 81.2143 52.2475 80.2969C51.5612 79.4517 51.2001 78.9678 51.2217 78.9461C51.2506 78.9244 51.6696 79.3578 52.4064 80.1596C53.1432 80.9615 54.1906 82.1461 55.4619 83.6197C58.0191 86.5669 61.4791 90.6988 65.1848 95.3507C68.8904 100.003 72.1483 104.301 74.4453 107.45C75.5939 109.025 76.5185 110.303 77.1325 111.206" fill="#263238"/>
<path d="M55.4836 102.726C55.4764 102.69 55.8087 102.589 56.4227 102.437C56.7333 102.358 57.1089 102.271 57.5568 102.22C58.0046 102.163 58.5103 102.069 59.0809 102.054C60.215 101.968 61.573 102.011 63.0683 102.206C64.5563 102.43 66.1744 102.82 67.8069 103.441C69.425 104.084 70.8841 104.893 72.1338 105.731C73.369 106.598 74.402 107.486 75.1749 108.317C75.5867 108.707 75.8973 109.126 76.1862 109.466C76.4824 109.805 76.7063 110.123 76.8797 110.39C77.2336 110.918 77.1831 111.163 77.1542 111.185C77.0675 111.25 76.5113 110.137 74.9076 108.584C74.1131 107.804 73.0729 106.966 71.8521 106.143C70.6169 105.348 69.1866 104.568 67.6119 103.947C66.0227 103.34 64.448 102.95 63.0033 102.704C61.5514 102.488 60.2222 102.401 59.1026 102.437C56.8633 102.502 55.5053 102.834 55.4836 102.726Z" fill="#263238"/>
<path d="M176.658 287.041L93.2265 286.658C83.193 286.614 75.0955 278.445 75.1388 268.404L76.0201 59.2397C76.0634 49.199 84.2404 41.0942 94.2811 41.1448L177.713 41.5276C187.746 41.571 195.844 49.7408 195.8 59.7815L194.919 268.946C194.876 278.986 186.699 287.091 176.658 287.041Z" fill="#263238"/>
<path d="M177.59 48.7443L161.417 48.672C159.249 48.6648 157.48 50.4924 157.472 52.7606L157.458 55.6933C157.451 57.9615 155.681 59.7891 153.514 59.7818L121.983 59.6374C119.816 59.6301 118.061 57.7809 118.075 55.5127L118.09 52.58C118.097 50.3118 116.349 48.4626 114.182 48.4553L108.49 48.4265L94.3317 48.3614C87.3032 48.3325 81.5749 54.003 81.5461 61.0387L80.6865 265.197C80.6576 272.226 86.328 277.947 93.3565 277.983L176.622 278.366C183.651 278.402 189.379 272.724 189.408 265.688L190.267 61.5299C190.289 54.5014 184.618 48.7804 177.59 48.7443Z" fill="#FAFAFA"/>
<path d="M130.471 258.819C130.464 259.635 129.698 260.292 128.745 260.285C127.798 260.278 127.033 259.613 127.033 258.804C127.04 257.988 127.805 257.331 128.759 257.338C129.705 257.338 130.471 258.003 130.471 258.819Z" fill="#455A64"/>
<path d="M135.795 258.84C135.795 259.656 135.022 260.314 134.068 260.307C133.122 260.299 132.356 259.635 132.356 258.826C132.356 258.01 133.129 257.352 134.083 257.359C135.036 257.367 135.795 258.024 135.795 258.84Z" fill="#455A64"/>
<path d="M141.118 258.869C141.118 259.685 140.346 260.342 139.392 260.335C138.446 260.328 137.68 259.663 137.68 258.854C137.687 258.038 138.453 257.381 139.406 257.388C140.353 257.388 141.118 258.052 141.118 258.869Z" fill="#455A64"/>
<path d="M106.431 147.172C107.789 147.367 189.632 163.418 189.632 163.418V147.172H106.431Z" fill="#EBEBEB"/>
<path d="M80.6792 250.316C80.6792 250.316 169.716 237.718 168.936 238.108C168.163 238.499 80.6792 238.108 80.6792 238.108V250.316Z" fill="#EBEBEB"/>
<path d="M184.077 11.9473C184.178 11.9473 184.265 16.4475 184.265 22.0024C184.265 27.5573 184.178 32.0575 184.077 32.0575C183.976 32.0575 183.889 27.5573 183.889 22.0024C183.889 16.4475 183.968 11.9473 184.077 11.9473Z" fill="#263238"/>
<path d="M219.703 35.0847C219.746 35.1786 215.658 37.0712 210.58 39.3177C205.502 41.557 201.348 43.2978 201.305 43.2039C201.261 43.11 205.343 41.2175 210.428 38.9709C215.506 36.7316 219.66 34.9908 219.703 35.0847Z" fill="#263238"/>
<path d="M218.8 0.000301446C218.815 0.00752497 218.742 0.137548 218.605 0.383148C218.446 0.664865 218.237 1.01159 217.984 1.44501C217.442 2.36962 216.64 3.69152 215.629 5.30959C213.606 8.55295 210.695 12.9665 207.401 17.7774C204.1 22.5882 201.16 26.9729 199.08 30.1729C198.061 31.7477 197.231 33.0335 196.624 33.9725C196.349 34.3915 196.126 34.731 195.945 34.9983C195.786 35.2294 195.699 35.3522 195.685 35.345C195.67 35.3378 195.743 35.2077 195.88 34.9621C196.039 34.6804 196.248 34.3337 196.494 33.9003C197.036 32.9757 197.837 31.661 198.849 30.0357C200.871 26.7923 203.782 22.3788 207.084 17.5679C210.378 12.757 213.325 8.37959 215.398 5.17234C216.416 3.59761 217.247 2.31183 217.854 1.37277C218.128 0.953806 218.352 0.614301 218.533 0.34703C218.699 0.115878 218.793 -0.00692207 218.8 0.000301446Z" fill="#263238"/>
<path d="M268.744 85.043H105.897C102.379 85.043 99.5254 87.8963 99.5254 91.4141V141.928C99.5254 145.446 102.379 148.299 105.897 148.299H118.032C119.007 153.572 120.156 160.233 120.156 160.233L131.136 148.299H268.751C272.269 148.299 275.122 145.446 275.122 141.928V91.4141C275.115 87.8963 272.261 85.043 268.744 85.043Z" fill="#FDD958"/>
<path d="M201.558 112.442C201.558 112.543 182.177 112.63 158.274 112.63C134.364 112.63 114.984 112.543 114.984 112.442C114.984 112.341 134.364 112.254 158.274 112.254C182.177 112.254 201.558 112.341 201.558 112.442Z" fill="#F5F5F5"/>
<path d="M201.558 104.676C201.558 104.777 182.177 104.864 158.274 104.864C134.364 104.864 114.984 104.777 114.984 104.676C114.984 104.575 134.364 104.488 158.274 104.488C182.177 104.488 201.558 104.575 201.558 104.676Z" fill="#F5F5F5"/>
<path d="M201.558 120.12C201.558 120.222 182.177 120.308 158.274 120.308C134.364 120.308 114.984 120.222 114.984 120.12C114.984 120.019 134.364 119.933 158.274 119.933C182.177 119.933 201.558 120.019 201.558 120.12Z" fill="#F5F5F5"/>
<path d="M171.688 128.08C171.688 128.182 158.989 128.268 143.336 128.268C127.675 128.268 114.984 128.182 114.984 128.08C114.984 127.979 127.675 127.893 143.336 127.893C158.997 127.893 171.688 127.972 171.688 128.08Z" fill="#F5F5F5"/>
<path d="M195.165 175.856H30.9814C28.5182 175.856 26.5245 177.85 26.5245 180.313V233.76C26.5245 236.223 28.5182 238.217 30.9814 238.217H150.227L161.084 250.013C161.084 250.013 162.226 243.382 163.179 238.217H195.165C197.628 238.217 199.622 236.223 199.622 233.76V180.313C199.622 177.85 197.628 175.856 195.165 175.856Z" fill="#455A64"/>
<path d="M188.729 203.422C188.729 203.523 169.348 203.609 145.445 203.609C121.535 203.609 102.155 203.523 102.155 203.422C102.155 203.32 121.535 203.234 145.445 203.234C169.341 203.227 188.729 203.313 188.729 203.422Z" fill="#F5F5F5"/>
<path d="M188.729 195.657C188.729 195.758 169.348 195.844 145.445 195.844C121.535 195.844 102.155 195.758 102.155 195.657C102.155 195.555 121.535 195.469 145.445 195.469C169.341 195.469 188.729 195.548 188.729 195.657Z" fill="#F5F5F5"/>
<path d="M188.729 211.101C188.729 211.202 169.348 211.289 145.445 211.289C121.535 211.289 102.155 211.202 102.155 211.101C102.155 211 121.535 210.913 145.445 210.913C169.341 210.913 188.729 210.993 188.729 211.101Z" fill="#F5F5F5"/>
<path d="M158.859 219.053C158.859 219.154 146.16 219.241 130.507 219.241C114.846 219.241 102.155 219.154 102.155 219.053C102.155 218.952 114.846 218.865 130.507 218.865C146.16 218.865 158.859 218.945 158.859 219.053Z" fill="#F5F5F5"/>
<path d="M227.808 63.6174C227.902 62.2883 226.717 60.4607 225.626 59.4061C224.528 58.3515 223.849 56.9284 224.42 54.8047C224.861 53.165 225.901 53.2878 226.313 52.3198C226.616 51.6047 226.486 50.7884 226.551 50.0155C226.768 47.3573 229.686 45.2769 232.272 45.9415C233.002 43.4132 235.356 41.4412 237.971 41.1739C240.586 40.8994 243.295 42.3441 244.53 44.6701C246.026 43.8972 247.904 43.9189 249.37 44.7424C250.836 45.5658 251.855 47.1406 251.978 48.8236C253.43 47.7762 255.662 48.1807 256.818 49.5532C257.966 50.9329 258.038 53.035 257.164 54.6025C256.29 56.17 254.6 57.1885 252.823 57.463C251.053 57.7375 249.218 57.3185 247.608 56.5167C246.004 55.7149 244.603 54.5519 243.331 53.2878" fill="#263238"/>
<path d="M239.618 146.63C256.889 146.63 270.889 132.956 270.889 116.089C270.889 99.2215 256.889 85.5479 239.618 85.5479C222.348 85.5479 208.348 99.2215 208.348 116.089C208.348 132.956 222.348 146.63 239.618 146.63Z" fill="#E0E0E0"/>
<path d="M271.019 116.111L267.559 107.233L255.156 115.028L266.208 132.075C266.208 132.075 270.701 126.238 271.019 116.111Z" fill="#EB996E"/>
<path d="M236.772 96.8967C241.229 96.904 244.906 93.4439 245.13 89.0303C245.31 85.3535 245.469 81.814 245.469 81.814C245.469 81.814 252.296 81.3228 252.924 74.6483C253.552 67.9738 253.639 52.5515 253.639 52.5515C246.112 48.6003 237.018 48.9976 229.867 53.5845L229.216 54.0035L228.429 88.5247C228.379 93.1261 232.128 96.8895 236.772 96.8967Z" fill="#FFBE9D"/>
<path d="M240.687 62.8083C241.2 62.9744 241.482 63.5306 241.309 64.0363C241.135 64.5491 240.579 64.8236 240.066 64.6503C239.553 64.4841 239.272 63.9279 239.445 63.4223C239.618 62.9166 240.175 62.6421 240.687 62.8083Z" fill="#263238"/>
<path d="M242.558 63.1553C242.443 63.2636 241.814 62.7218 240.882 62.6641C239.951 62.5918 239.25 63.0397 239.156 62.9169C239.105 62.8591 239.228 62.6568 239.532 62.4546C239.835 62.2523 240.341 62.0645 240.919 62.1078C241.496 62.1512 241.973 62.404 242.24 62.6496C242.522 62.8952 242.609 63.1119 242.558 63.1553Z" fill="#263238"/>
<path d="M250.873 62.8083C251.385 62.9744 251.667 63.5306 251.494 64.0363C251.32 64.5491 250.764 64.8236 250.251 64.6503C249.738 64.4841 249.457 63.9279 249.63 63.4223C249.803 62.9166 250.36 62.6421 250.873 62.8083Z" fill="#263238"/>
<path d="M252.866 63.177C252.751 63.2854 252.122 62.7436 251.19 62.6858C250.259 62.6136 249.558 63.0615 249.464 62.9387C249.413 62.8809 249.536 62.6786 249.84 62.4764C250.143 62.2741 250.649 62.0935 251.227 62.1296C251.804 62.173 252.281 62.4258 252.548 62.6714C252.83 62.9098 252.924 63.1265 252.866 63.177Z" fill="#263238"/>
<path d="M245.859 70.3939C245.859 70.3217 246.445 70.2494 247.384 70.1989C247.629 70.1917 247.824 70.1555 247.853 70.0255C247.911 69.8811 247.839 69.621 247.738 69.3248C247.55 68.6964 247.355 68.0607 247.16 67.3962C246.365 64.6512 245.831 62.3975 245.975 62.3541C246.112 62.3108 246.878 64.5068 247.673 67.2517C247.86 67.9235 248.041 68.5591 248.214 69.1876C248.279 69.4765 248.424 69.8088 248.265 70.1989C248.178 70.3939 247.976 70.5239 247.817 70.5528C247.651 70.589 247.514 70.5745 247.398 70.5745C246.445 70.5239 245.859 70.4662 245.859 70.3939Z" fill="#263238"/>
<path d="M245.484 81.7197C245.484 81.7197 241.2 81.7198 236.902 78.5342C236.902 78.5342 238.585 83.5112 245.361 83.4462L245.484 81.7197Z" fill="#EB996E"/>
<path d="M229.05 63.7982C229.058 63.2565 228.639 62.7941 228.097 62.7653C226.84 62.7075 224.767 63.1625 224.507 66.6009C224.138 71.5129 228.935 70.3788 228.949 70.2416C228.971 70.126 229.029 65.7052 229.05 63.7982Z" fill="#FFBE9D"/>
<path d="M227.902 68.2843C227.88 68.2698 227.808 68.3349 227.663 68.3926C227.519 68.4432 227.266 68.4721 227.021 68.3565C226.515 68.1254 226.132 67.273 226.175 66.3845C226.197 65.9366 226.32 65.5177 226.508 65.1782C226.688 64.8314 226.941 64.5931 227.208 64.5714C227.476 64.5281 227.649 64.7014 227.7 64.8459C227.757 64.9904 227.714 65.0843 227.743 65.0915C227.757 65.1059 227.858 65.0193 227.83 64.8098C227.815 64.7086 227.765 64.5931 227.656 64.4847C227.548 64.3764 227.374 64.3186 227.187 64.3258C226.804 64.3258 226.435 64.6436 226.226 65.0193C226.002 65.3949 225.85 65.8644 225.821 66.3628C225.778 67.3525 226.219 68.3204 226.919 68.5805C227.259 68.696 227.562 68.6166 227.721 68.5082C227.88 68.3999 227.916 68.2987 227.902 68.2843Z" fill="#EB996E"/>
<path d="M238.159 60.5403C238.405 60.8582 239.257 60.7065 240.37 60.6631C241.475 60.5764 242.342 60.6198 242.544 60.2731C242.775 59.9191 241.699 59.0956 240.276 59.2184C238.845 59.269 237.885 60.2153 238.159 60.5403Z" fill="#263238"/>
<path d="M248.98 60.2154C249.117 60.6415 249.926 60.7716 250.829 60.7643C251.732 60.7427 252.541 60.5982 252.664 60.1648C252.794 59.7458 251.971 59.1391 250.808 59.1607C249.645 59.1752 248.843 59.7964 248.98 60.2154Z" fill="#263238"/>
<path d="M254.585 54.6605C254.585 54.6605 250.54 56.6181 245.267 53.9887C241.807 52.2623 237.784 51.4172 236.895 52.1179C236.007 52.8113 235.819 56.3725 232.395 57.4127C232.395 57.4127 232.633 64.21 229.917 63.9644C227.208 63.7188 228.899 53.1942 228.899 53.1942L235.53 49.958L242.761 48.5928L249.58 49.5535L254.853 50.9982L254.585 54.6605Z" fill="#263238"/>
<path d="M209.215 93.9855C216.301 86.6969 228.769 87.4987 228.769 87.4987L239.105 94.8956L244.964 88.0694C244.964 88.0694 251.125 88.7484 256.897 91.7606L257.294 91.8834L257.287 91.9629C261.823 94.4261 268.238 100.328 274.356 106.056L267.039 112.846L258.941 120.033C258.941 120.033 258.97 120.084 258.956 120.178C258.869 120.611 260.083 130.508 261.325 138.02C253.95 145.063 244.545 148.075 234.107 146.24C230.791 145.663 229.188 144.853 226.125 144.044C221.588 142.853 218.302 138.923 217.897 134.249C217.348 127.95 216.922 120.149 216.922 120.149" fill="#455A64"/>
<path d="M251.443 89.3477C251.465 89.3405 251.624 89.7523 251.891 90.5107C252.158 91.2692 252.52 92.3672 252.946 93.7324C253.798 96.4629 254.889 100.27 255.915 104.517C256.94 108.765 257.706 112.651 258.197 115.468C258.443 116.877 258.623 118.025 258.732 118.812C258.84 119.607 258.891 120.048 258.869 120.048C258.84 120.055 258.746 119.622 258.587 118.834C258.421 117.989 258.204 116.869 257.937 115.511C257.381 112.709 256.572 108.837 255.553 104.597C254.528 100.356 253.487 96.5496 252.7 93.7974C252.317 92.4683 251.999 91.3703 251.761 90.5396C251.53 89.7812 251.422 89.355 251.443 89.3477Z" fill="#263238"/>
<path d="M258.096 115.389C258.031 115.31 261.123 112.68 264.995 109.524C268.874 106.367 272.066 103.868 272.131 103.947C272.196 104.027 269.105 106.656 265.233 109.813C261.361 112.969 258.161 115.469 258.096 115.389Z" fill="#263238"/>
<path opacity="0.2" d="M218.562 103.99L212.22 124.845L214.582 126.073L216.908 120.171C216.908 120.171 219.299 107.783 218.562 103.99Z" fill="black"/>
<g opacity="0.2">
<path opacity="0.2" d="M250.757 89.3547C254.174 91.1533 245.607 95.4947 241.742 95.3791L244.552 87.9678C244.552 87.9678 249.608 88.7551 250.757 89.3547Z" fill="black"/>
</g>
<path d="M227.75 87.9684V82.4424C227.75 82.4424 238.535 85.2162 238.932 91.674C238.932 91.674 240.305 84.5372 245.859 84.1977L246.647 94.2312L240.182 99.8583H233.623L228.429 95.3797L227.75 88.409" fill="#455A64"/>
<path d="M241.352 122.634C241.323 122.634 241.323 122.208 241.33 121.449C241.345 120.684 241.359 119.578 241.366 118.22C241.374 115.49 241.287 111.726 240.947 107.58C240.601 103.434 240.066 99.6993 239.604 97.0121C239.373 95.7191 239.185 94.6428 239.04 93.8338C238.903 93.0825 238.838 92.6636 238.86 92.6563C238.889 92.6491 238.997 93.0609 239.178 93.7977C239.365 94.5417 239.597 95.618 239.864 96.9616C240.391 99.6415 240.976 103.383 241.323 107.544C241.67 111.705 241.713 115.49 241.634 118.22C241.598 119.586 241.54 120.691 241.482 121.457C241.424 122.215 241.381 122.634 241.352 122.634Z" fill="#263238"/>
<path d="M238.434 89.8177C238.426 89.8465 238.188 89.7237 237.791 89.8754C237.379 90.0055 237.011 90.5183 236.707 91.2551C236.043 92.6926 235.226 94.7585 234.656 97.2218L234.598 97.4674L234.381 97.3373C233.738 96.9473 233.074 96.5283 232.409 96.0732C231.123 95.1992 229.939 94.3035 228.913 93.415C228.393 92.9671 227.967 92.4326 227.721 91.8547C227.476 91.2768 227.382 90.7061 227.36 90.1861C227.317 89.1459 227.49 88.3296 227.598 87.7734C227.721 87.2172 227.808 86.9138 227.837 86.921C227.866 86.9282 227.822 87.2389 227.743 87.8023C227.678 88.3657 227.548 89.182 227.627 90.1788C227.671 90.67 227.772 91.2118 228.01 91.7319C228.249 92.252 228.639 92.736 229.144 93.1549C230.163 94.0073 231.347 94.8958 232.626 95.7626C233.283 96.2105 233.941 96.6294 234.576 97.0195L234.302 97.1351C234.894 94.643 235.768 92.5698 236.498 91.1468C236.678 90.7928 236.852 90.4678 237.068 90.2149C237.278 89.9621 237.538 89.8104 237.755 89.7454C238.21 89.6226 238.448 89.8104 238.434 89.8177Z" fill="#263238"/>
<path d="M245.859 84.1973C245.888 84.1973 245.917 84.5007 245.961 85.0569C246.004 85.6925 246.062 86.4799 246.134 87.4045C246.213 88.3941 246.336 89.5716 246.538 90.8646C246.618 91.5002 246.842 92.2009 246.668 92.9811C246.445 93.754 245.867 94.3319 245.253 94.7942C244.386 95.4371 243.483 95.9138 242.876 96.6L242.587 96.9251L242.558 96.4917C242.407 94.2091 241.648 92.3309 240.962 91.1102C240.276 89.8822 239.712 89.2465 239.756 89.2104C239.77 89.1959 239.922 89.3404 240.182 89.6366C240.435 89.9327 240.789 90.3806 241.157 90.9946C241.908 92.2082 242.739 94.1152 242.912 96.4628L242.594 96.3544C243.252 95.6032 244.191 95.1048 245.014 94.4908C245.599 94.0501 246.119 93.5084 246.3 92.8872C246.452 92.2515 246.264 91.5653 246.185 90.9079C245.997 89.6005 245.903 88.4086 245.859 87.4117C245.809 86.4149 245.802 85.6059 245.809 85.0496C245.816 84.5079 245.831 84.1973 245.859 84.1973Z" fill="#263238"/>
<path d="M280.583 85.584C280.142 86.1041 264.265 107.334 264.265 107.334L266.504 108.598L282.801 87.6355L280.583 85.584Z" fill="#263238"/>
<path d="M216.778 102.371C216.778 102.371 233.486 126.418 234.49 126.895C236.476 127.827 259.331 108.071 261.513 106.185C261.816 105.781 262.43 104.936 263.651 103.253C263.651 103.253 265.457 95.0034 267.378 95.6318C269.3 96.2675 266.324 99.8287 267.581 102.964C268.837 106.099 274.573 98.6224 274.804 97.9506L276.285 96.0147C276.285 96.0147 277.838 100.414 277.73 102.256C277.39 108.143 271.821 115.143 271.821 115.143C271.821 115.143 246.806 146.131 229.672 147.092C224.738 147.367 215.969 133.367 210.103 122.864C206.563 116.522 208.326 108.533 214.199 104.257L216.778 102.371Z" fill="#FFBE9D"/>
<path d="M274.92 103.296C274.862 103.259 275.396 102.313 275.989 101.114C276.581 99.915 277.007 98.9181 277.072 98.9398C277.13 98.9615 276.791 100.002 276.191 101.215C275.591 102.429 274.963 103.332 274.92 103.296Z" fill="#EB996E"/>
<path d="M213.953 90.6328C213.953 90.6328 196.017 97.0112 209.352 127.162L230.054 114.665L227.107 107.615L213.953 90.6328Z" fill="#455A64"/>
<path d="M212.573 91.153C212.573 91.153 213.354 91.023 214.733 91.3336C215.412 91.5069 216.229 91.8103 217.088 92.3232C217.948 92.8361 218.836 93.5584 219.703 94.4686C221.444 96.2817 223.069 98.8171 224.572 101.743C226.089 104.675 227.504 108.013 228.956 111.523C229.39 112.578 229.823 113.611 230.228 114.593L230.293 114.752L230.148 114.832C224.16 118.097 218.945 121.152 215.253 123.442C213.411 124.583 211.938 125.522 210.934 126.173C210.45 126.483 210.067 126.729 209.771 126.917C209.503 127.083 209.359 127.169 209.352 127.155C209.345 127.148 209.475 127.039 209.727 126.859C209.98 126.671 210.356 126.397 210.854 126.057C211.837 125.371 213.289 124.396 215.116 123.225C218.771 120.878 223.972 117.779 229.96 114.499L229.881 114.738C229.477 113.755 229.043 112.722 228.61 111.668C227.158 108.157 225.756 104.827 224.261 101.902C222.78 98.9761 221.191 96.455 219.508 94.6492C218.67 93.7462 217.811 93.0239 216.98 92.5038C216.149 91.9837 215.362 91.6658 214.704 91.4708C213.361 91.1313 212.573 91.2108 212.573 91.153Z" fill="#263238"/>
<path d="M251.154 46.4473C251.169 46.4473 251.198 46.5556 251.241 46.7651C251.277 46.9746 251.32 47.2924 251.292 47.7042C251.248 48.506 250.959 49.7484 249.926 50.8319C248.922 51.9155 247.022 52.6017 245.101 52.0527C244.162 51.7782 243.208 51.2076 242.631 50.2613C242.349 49.7918 242.183 49.2139 242.262 48.6288C242.342 48.0581 242.631 47.4802 243.151 47.1407C243.671 46.7868 244.357 46.794 244.884 47.0324C245.419 47.2563 245.859 47.6969 246.069 48.2243C246.495 49.2861 246.177 50.4274 245.592 51.2292C244.35 52.8762 242.103 53.0062 240.854 52.2622C240.196 51.9588 239.618 51.6771 239.069 51.576C238.528 51.4676 238.044 51.5615 237.69 51.7204C236.982 52.0599 236.693 52.4356 236.664 52.3995C236.657 52.3922 236.729 52.3055 236.873 52.1538C236.946 52.0744 237.04 51.9805 237.17 51.8866C237.292 51.7927 237.437 51.6771 237.632 51.5904C237.993 51.3954 238.52 51.2726 239.113 51.3737C239.705 51.4604 240.312 51.7421 240.969 52.0238C241.301 52.1538 241.641 52.3055 242.009 52.3706C242.371 52.4356 242.775 52.4283 243.172 52.3489C243.967 52.2044 244.783 51.771 245.318 51.0342C245.838 50.3191 246.098 49.2717 245.729 48.3759C245.404 47.5019 244.191 46.9168 243.353 47.4658C242.948 47.7331 242.696 48.2098 242.631 48.6938C242.558 49.1778 242.696 49.669 242.948 50.0879C243.454 50.9258 244.328 51.4748 245.202 51.7349C246.986 52.2694 248.778 51.6626 249.746 50.6586C250.75 49.6617 251.075 48.4843 251.154 47.7042C251.234 46.8951 251.111 46.4545 251.154 46.4473Z" fill="#455A64"/>
<path d="M247.246 73.6865C247.254 73.7299 247.022 73.8238 246.625 73.8454C246.228 73.8671 245.672 73.7732 245.123 73.4987C244.581 73.2242 244.176 72.8269 243.952 72.4946C243.728 72.1623 243.671 71.924 243.714 71.9023C243.808 71.8445 244.292 72.668 245.296 73.1592C246.293 73.6793 247.239 73.5782 247.246 73.6865Z" fill="#263238"/>
<path d="M228.306 70.4946C228.342 70.4657 228.545 70.8124 228.277 71.3108C228.147 71.542 227.909 71.7948 227.541 71.8959C227.172 71.9971 226.732 71.8815 226.421 71.5998C226.103 71.3253 225.93 70.9207 225.944 70.5523C225.959 70.184 226.11 69.8878 226.277 69.6855C226.623 69.281 226.977 69.2377 226.984 69.281C227.013 69.3316 226.732 69.4616 226.493 69.8444C226.248 70.1984 226.154 70.8919 226.667 71.318C226.905 71.5203 227.208 71.6142 227.461 71.5564C227.721 71.5059 227.923 71.3397 228.053 71.1663C228.314 70.8124 228.249 70.5018 228.306 70.4946Z" fill="#263238"/>
<path d="M252.346 48.8812C252.382 48.8667 252.65 49.3435 252.693 50.2103C252.743 51.0555 252.498 52.3196 251.624 53.3381C250.735 54.3566 249.529 54.7756 248.677 54.8406C247.817 54.92 247.304 54.7178 247.311 54.6817C247.319 54.6167 247.839 54.7106 248.641 54.5733C249.428 54.4433 250.526 54.0099 251.335 53.0853C252.137 52.1534 252.411 51.0049 252.426 50.2103C252.447 49.3941 252.281 48.8956 252.346 48.8812Z" fill="#455A64"/>
<path d="M227.916 109.32C227.96 109.414 223.199 111.863 217.276 114.788C211.353 117.714 206.52 120.011 206.47 119.924C206.426 119.83 211.187 117.382 217.11 114.456C223.033 111.523 227.866 109.226 227.916 109.32Z" fill="#E0E0E0"/>
<path d="M223.575 101.122C223.625 101.215 219.385 103.585 214.105 106.416C208.824 109.248 204.505 111.473 204.454 111.379C204.404 111.285 208.644 108.916 213.924 106.084C219.205 103.26 223.524 101.035 223.575 101.122Z" fill="#E0E0E0"/>
<path d="M219.378 94.4984C219.4 94.549 218.583 95.0113 217.254 95.7553C215.831 96.5499 214.047 97.5468 212.068 98.652C210.103 99.7716 208.319 100.79 206.91 101.592C205.588 102.343 204.765 102.805 204.736 102.755C204.707 102.712 205.48 102.177 206.773 101.361C208.059 100.545 209.857 99.461 211.887 98.3197C213.91 97.1784 215.774 96.196 217.132 95.5169C218.497 94.8379 219.356 94.4551 219.378 94.4984Z" fill="#E0E0E0"/>
<path d="M235.241 92.9302C235.234 92.9735 234.677 92.9013 233.847 92.5546C233.016 92.2151 231.94 91.565 230.928 90.6548C229.91 89.7446 229.123 88.7984 228.574 88.1049C228.025 87.4042 227.721 86.9564 227.757 86.9202C227.801 86.8841 228.176 87.2814 228.776 87.9315C229.375 88.5817 230.184 89.4846 231.181 90.3731C232.171 91.2616 233.189 91.9261 233.962 92.3162C234.735 92.7135 235.263 92.8796 235.241 92.9302Z" fill="#E0E0E0"/>
<path d="M245.78 89.0228C245.874 89.0517 245.433 90.2219 244.277 91.1899C243.129 92.1651 241.901 92.3962 241.887 92.3023C241.85 92.194 242.963 91.8183 244.032 90.9082C245.123 89.998 245.679 88.965 245.78 89.0228Z" fill="#E0E0E0"/>
<path d="M264.561 99.8936C264.561 99.9081 264.424 99.9298 264.157 99.9659C263.846 100.002 263.463 100.053 262.994 100.11C261.982 100.219 260.516 100.363 258.71 100.5C255.084 100.789 250.071 101.071 244.53 101.273C238.99 101.468 233.97 101.541 230.329 101.512C228.509 101.497 227.042 101.461 226.024 101.425C225.547 101.403 225.164 101.382 224.853 101.367C224.586 101.353 224.449 101.331 224.449 101.324C224.449 101.309 224.593 101.302 224.861 101.295C225.171 101.295 225.554 101.288 226.031 101.288C227.1 101.281 228.552 101.266 230.329 101.252C233.962 101.216 238.975 101.1 244.516 100.905C250.049 100.703 255.062 100.464 258.688 100.24C260.458 100.125 261.917 100.038 262.979 99.9659C263.449 99.937 263.839 99.9153 264.149 99.8936C264.424 99.8792 264.561 99.8792 264.561 99.8936Z" fill="#E0E0E0"/>
<path d="M258.862 108.454C258.862 108.483 258.443 108.548 257.677 108.642C256.911 108.736 255.799 108.859 254.419 108.981C251.667 109.234 247.86 109.494 243.649 109.668C239.438 109.834 235.616 109.884 232.857 109.855C231.477 109.841 230.358 109.812 229.585 109.783C228.812 109.747 228.386 109.718 228.386 109.689C228.386 109.66 228.812 109.646 229.585 109.632C230.423 109.617 231.521 109.603 232.857 109.588C235.616 109.552 239.431 109.465 243.635 109.292C247.839 109.119 251.646 108.902 254.405 108.714C255.734 108.627 256.832 108.548 257.67 108.497C258.428 108.447 258.855 108.432 258.862 108.454Z" fill="#E0E0E0"/>
<path d="M245.91 119.022C245.917 119.072 245 119.21 243.519 119.361C242.031 119.513 239.98 119.679 237.704 119.795C235.429 119.91 233.37 119.947 231.875 119.947C230.379 119.939 229.462 119.896 229.462 119.845C229.462 119.795 230.387 119.744 231.875 119.679C233.471 119.607 235.472 119.52 237.69 119.419C239.907 119.296 241.908 119.188 243.505 119.101C244.985 119.007 245.91 118.971 245.91 119.022Z" fill="#E0E0E0"/>
<path d="M229.361 93.9489C229.361 94.0572 227.143 94.0789 224.413 94.1945C221.682 94.3028 219.472 94.4618 219.465 94.3534C219.45 94.2523 221.653 93.9272 224.398 93.8189C227.136 93.7105 229.361 93.855 229.361 93.9489Z" fill="#E0E0E0"/>
<path d="M259.83 93.5588C259.83 93.66 256.955 93.7394 253.408 93.725C249.861 93.7105 246.986 93.6166 246.994 93.5155C246.994 93.4144 249.869 93.3349 253.415 93.3494C256.962 93.3638 259.83 93.4577 259.83 93.5588Z" fill="#E0E0E0"/>
<path d="M260.942 137.514C260.957 137.535 260.718 137.673 260.285 137.889C259.851 138.113 259.209 138.409 258.407 138.742C256.796 139.421 254.513 140.215 251.92 140.815C249.32 141.414 246.921 141.696 245.173 141.79C244.299 141.841 243.598 141.855 243.107 141.841C242.616 141.833 242.349 141.812 242.349 141.79C242.349 141.732 243.425 141.689 245.152 141.523C246.878 141.357 249.255 141.039 251.833 140.447C254.412 139.847 256.688 139.103 258.306 138.489C259.931 137.897 260.913 137.463 260.942 137.514Z" fill="#E0E0E0"/>
<path d="M65.8132 235.841C83.0835 235.841 97.0838 222.484 97.0838 206.008C97.0838 189.532 83.0835 176.175 65.8132 176.175C48.5429 176.175 34.5426 189.532 34.5426 206.008C34.5426 222.484 48.5429 235.841 65.8132 235.841Z" fill="#E0E0E0"/>
<path d="M59.4421 134.083C54.4795 134.343 52.5364 139.515 51.9368 140.671C51.3445 141.827 51.2506 143.163 51.1423 144.456C51.0339 145.749 50.8822 147.093 50.1888 148.191C49.098 149.931 46.8009 150.834 46.1797 152.792C45.4718 155.01 47.2849 157.379 46.8009 159.654C46.5409 160.875 45.6524 161.879 45.3345 163.085C45.0023 164.35 45.349 165.708 46.0063 166.834C47.6389 169.63 51.0122 171.039 54.2484 171.154C57.4845 171.27 60.6484 170.302 63.7473 169.341" fill="#263238"/>
<path d="M81.2716 140.513C80.7876 141.56 81.2427 142.839 82.0084 143.705C82.7668 144.58 83.7926 145.165 84.6955 145.894C85.5984 146.617 86.4219 147.577 86.5303 148.726C86.6242 149.78 86.0969 150.835 86.2413 151.883C86.6097 154.584 90.9222 155.4 91.1533 158.116C91.305 159.93 89.4486 161.591 89.9615 163.332C90.1565 163.996 90.6766 164.516 91.0378 165.116C92.2585 167.146 91.4351 169.949 89.6581 171.523C87.8883 173.098 85.4179 173.654 83.0485 173.763C81.0548 173.849 78.7939 173.524 77.6165 171.913C76.5401 170.44 76.7641 168.424 76.9808 166.611C77.9848 158.145 77.8115 149.593 77.6381 141.069" fill="#263238"/>
<path d="M60.7495 179.686C60.7857 175.236 60.7423 170.555 60.7423 170.555C60.7423 170.555 55.0213 169.537 53.9233 162.046C52.8759 154.902 54.6529 139.545 54.6529 139.545C62.9383 136.28 72.2638 137.544 78.0643 144.211L77.1614 180.329C77.0602 184.518 73.369 187.769 68.8832 187.624C64.3541 187.473 60.7134 183.919 60.7495 179.686Z" fill="#FFBE9D"/>
<path d="M56.2132 151.341C56.1915 151.847 56.596 152.287 57.1233 152.316C57.6506 152.352 58.0985 151.97 58.1202 151.464C58.1418 150.958 57.7373 150.518 57.21 150.489C56.6827 150.453 56.2348 150.835 56.2132 151.341Z" fill="#263238"/>
<path d="M54.6673 150.604C54.7829 150.734 55.5197 150.2 56.5455 150.214C58.4886 150.496 58.4525 150.792 58.438 150.626C58.4958 150.568 58.373 150.344 58.0479 150.098C57.7229 149.853 57.1739 149.614 56.531 149.614C55.8881 149.607 55.3464 149.838 55.0285 150.077C54.7251 150.322 54.6096 150.546 54.6673 150.604Z" fill="#263238"/>
<path d="M66.7667 151.644C66.7451 152.149 67.1496 152.59 67.6769 152.619C68.2042 152.655 68.6521 152.272 68.6737 151.767C68.6954 151.261 68.2909 150.82 67.7636 150.791C67.2435 150.755 66.7956 151.138 66.7667 151.644Z" fill="#263238"/>
<path d="M65.4304 150.958C65.546 151.088 66.2828 150.553 67.3085 150.567C68.3415 150.567 69.0927 151.109 69.2011 150.979C69.2588 150.921 69.136 150.698 68.811 150.452C68.4859 150.206 67.9369 149.968 67.294 149.968C66.6512 149.961 66.1094 150.192 65.7916 150.43C65.4809 150.676 65.3726 150.9 65.4304 150.958Z" fill="#263238"/>
<path d="M61.5947 158.354C61.6019 158.297 60.959 158.181 59.9261 158.029C59.666 158 59.4132 157.943 59.3699 157.762C59.3121 157.574 59.4204 157.285 59.5577 156.982C59.8105 156.346 60.0778 155.682 60.3595 154.988C61.4719 152.142 62.2809 149.809 62.1726 149.758C62.057 149.715 61.0602 151.983 59.9477 154.829C59.6805 155.53 59.4204 156.202 59.1748 156.837C59.0737 157.134 58.8931 157.473 59.0231 157.87C59.0954 158.065 59.2832 158.21 59.4493 158.26C59.6155 158.311 59.7671 158.318 59.8972 158.326C60.9446 158.405 61.5947 158.412 61.5947 158.354Z" fill="#263238"/>
<path d="M60.7423 170.555C60.7423 170.555 65.7699 170.938 70.783 167.998C70.783 167.998 68.2981 173.105 60.8218 172.318L60.7423 170.555Z" fill="#EB996E"/>
<path d="M62.0064 160.847C62.3821 160.363 63.0394 160.096 63.6823 160.175C64.1301 160.226 64.578 160.449 64.8453 160.818C65.1125 161.186 65.1631 161.706 64.9103 162.046C64.6286 162.436 64.0435 162.515 63.5523 162.371C63.0611 162.226 62.6421 161.894 62.2448 161.569C62.1364 161.475 62.0209 161.381 61.9559 161.259C61.8909 161.136 61.8764 160.977 61.9631 160.876" fill="#EB996E"/>
<path d="M64.6214 159.106C64.4552 159.091 64.4408 160.211 63.4728 160.998C62.5049 161.786 61.313 161.648 61.3058 161.8C61.2913 161.872 61.5658 162.024 62.0714 162.038C62.5626 162.06 63.2922 161.908 63.8773 161.432C64.4697 160.948 64.7297 160.305 64.773 159.842C64.8236 159.38 64.7008 159.098 64.6214 159.106Z" fill="#263238"/>
<path d="M74.821 138.88C72.0833 142.781 64.8453 146.79 59.6588 147.721C60.2656 146.927 63.4511 144.962 64.0579 144.167C61.7103 145.923 58.3441 148.27 55.2236 148.429C54.8552 148.451 54.4579 148.451 54.1545 148.263C53.7427 148.01 53.6561 147.519 53.6127 147.086C53.4105 145.258 53.5405 142.123 53.8294 140.31C54.1184 138.497 54.9563 136.691 56.5238 135.478C58.5247 133.932 61.378 133.556 64.0724 133.491C66.3333 133.433 68.6593 133.571 70.7252 134.387C72.7912 135.203 74.5537 136.814 74.8571 138.75" fill="#263238"/>
<path d="M82.6657 156.354C83.0413 154.418 83.3447 152.583 83.4097 151.355C83.6337 147.497 82.514 133.26 69.2155 134.408L68.681 138.461C68.681 138.461 66.6223 152.323 75.2255 152.431C75.2255 152.431 75.7022 156.563 79.5957 160.579C79.6029 160.572 81.8567 160.507 82.6657 156.354Z" fill="#263238"/>
<path d="M75.2327 152.424C76.0345 152.28 76.8797 152.309 77.6381 152.605C78.3966 152.901 79.0612 153.472 79.379 154.223C79.6968 154.974 79.6607 155.848 79.3718 156.614C79.0828 157.38 78.5772 158.044 77.9849 158.608C77.5659 159.012 77.0819 159.388 76.5257 159.554C75.9623 159.72 75.3049 159.662 74.8643 159.279" fill="#FFBE9D"/>
<path d="M75.6155 157.278C75.5216 157.307 75.8684 157.791 76.5979 157.604C76.9519 157.517 77.2986 157.206 77.5081 156.823C77.7248 156.433 77.8621 156.007 77.9198 155.501C77.9776 155.003 77.8693 154.469 77.5948 154.093C77.3347 153.703 76.9086 153.472 76.5546 153.457C75.8034 153.428 75.565 153.948 75.6517 153.963C75.7095 154.028 76.0056 153.761 76.4968 153.883C76.9663 153.977 77.4214 154.627 77.3131 155.436C77.2119 156.26 76.8869 157.004 76.4462 157.192C75.9912 157.423 75.6661 157.206 75.6155 157.278Z" fill="#EB996E"/>
<path d="M76.6774 137.413C77.6959 137.991 78.9456 138.157 80.0724 137.861C81.2065 137.565 82.2106 136.807 82.8102 135.803C83.2002 135.152 83.4169 134.365 83.2291 133.636C82.9691 132.631 81.9939 131.96 80.9971 131.7C79.5451 131.324 77.8982 131.685 76.8002 132.704C75.7022 133.729 75.2327 135.398 75.7167 136.821C76.2006 138.237 77.667 139.284 79.1695 139.205" fill="#263238"/>
<path d="M77.891 158.976C77.1542 159.51 76.4029 160.052 75.825 160.76C75.2471 161.468 74.8499 162.363 74.9293 163.274C74.9799 163.779 75.1677 164.285 75.0955 164.791C74.9943 165.484 74.4237 165.997 74.048 166.596C73.0729 168.128 73.4918 170.28 74.7271 171.617C75.9551 172.953 77.8259 173.553 79.639 173.618C80.6937 173.654 81.7989 173.502 82.6585 172.903C83.9009 172.028 84.3777 170.403 84.4138 168.879" fill="#263238"/>
<path d="M78.7939 140.397C78.83 140.419 78.57 140.96 78.0138 141.762C77.4575 142.557 76.5835 143.597 75.4494 144.565C74.3153 145.533 73.1668 146.248 72.2927 146.674C71.4187 147.108 70.8408 147.288 70.8264 147.245C70.7686 147.137 72.9934 146.197 75.2038 144.276C77.4359 142.383 78.7 140.332 78.7939 140.397Z" fill="#455A64"/>
<path d="M80.1736 140.325C80.2169 140.332 80.188 141.04 79.928 142.145C79.6679 143.257 79.1334 144.76 78.2377 146.255C77.3347 147.75 76.2584 148.928 75.3988 149.672C74.5392 150.423 73.9252 150.777 73.9036 150.741C73.8169 150.647 76.1645 149.014 77.9199 146.06C79.7113 143.127 80.0508 140.288 80.1736 140.325Z" fill="#455A64"/>
<path d="M51.3012 146.349C51.4095 146.341 51.554 147.591 51.9874 149.072C52.4064 150.553 52.9554 151.687 52.8615 151.737C52.782 151.788 52.0669 150.704 51.6262 149.173C51.1784 147.649 51.2073 146.349 51.3012 146.349Z" fill="#455A64"/>
<path d="M83.1569 171.899C83.1786 171.855 83.4892 172.238 84.2549 172.252C84.6233 172.252 85.0928 172.151 85.5262 171.848C85.9596 171.559 86.3136 171.032 86.487 170.389C86.6603 169.746 86.6675 168.987 86.5014 168.215C86.3425 167.427 86.0391 166.618 85.7718 165.737C85.5118 164.856 85.2806 163.866 85.454 162.826C85.6201 161.764 86.3064 160.912 86.6386 159.958C86.9782 159.012 86.8409 157.957 86.4219 157.105C85.9957 156.245 85.2734 155.617 84.4427 155.299C84.031 155.126 83.5975 154.974 83.2002 154.757C82.803 154.548 82.4346 154.251 82.2106 153.869C81.7483 153.11 81.7628 152.279 81.7628 151.593C81.7772 150.893 81.8133 150.279 81.6905 149.758C81.575 149.231 81.3799 148.805 81.1488 148.516C80.6648 147.924 80.1519 147.96 80.1736 147.916C80.1736 147.909 80.2819 147.895 80.4914 147.938C80.6937 147.981 80.9898 148.119 81.2643 148.422C81.5316 148.718 81.7628 149.166 81.9 149.715C82.0517 150.264 82.03 150.921 82.0373 151.6C82.0517 152.279 82.0662 153.06 82.4779 153.702C82.8824 154.367 83.7203 154.642 84.5799 154.981C85.4612 155.306 86.2991 156.014 86.7542 156.946C87.2165 157.87 87.3754 159.026 86.9926 160.088C86.617 161.121 85.9596 161.952 85.8152 162.891C85.6562 163.83 85.8585 164.776 86.1041 165.643C86.3569 166.51 86.6531 167.34 86.8048 168.157C86.9637 168.973 86.9493 169.775 86.7398 170.468C86.5375 171.154 86.133 171.718 85.6346 172.029C85.1434 172.339 84.6377 172.426 84.2404 172.404C83.8359 172.382 83.547 172.238 83.3736 172.122C83.2147 172 83.1569 171.899 83.1569 171.899Z" fill="#455A64"/>
<path d="M77.9415 171.393C77.9776 171.371 78.0354 171.624 78.3894 171.783C78.7072 171.934 79.4079 171.942 79.7907 171.4C80.1808 170.851 80.123 169.933 79.6752 169.139C79.2634 168.323 78.4472 167.521 78.2377 166.329C78.1293 165.751 78.2666 165.094 78.6422 164.66C78.9961 164.227 79.4079 163.931 79.6824 163.577C80.2241 162.854 80.2747 161.951 80.188 161.272C80.0941 160.572 79.8919 160.016 79.7763 159.633C79.6463 159.25 79.5813 159.033 79.6101 159.019C79.6318 159.012 79.7402 159.207 79.9135 159.575C80.0797 159.943 80.3181 160.492 80.4553 161.229C80.5781 161.944 80.5781 162.934 79.9641 163.786C79.6535 164.198 79.2345 164.509 78.9384 164.884C78.6277 165.253 78.5266 165.751 78.6205 166.264C78.7939 167.304 79.5596 168.091 79.993 168.973C80.4625 169.84 80.5203 170.901 80.0147 171.552C79.7691 171.884 79.4007 172.021 79.0973 172.05C78.7867 172.079 78.5194 172.014 78.3316 171.906C77.9343 171.682 77.9343 171.385 77.9415 171.393Z" fill="#455A64"/>
<path d="M49.6325 169.508C49.6109 169.522 49.4014 169.32 49.0474 168.923C48.7007 168.518 48.1734 167.926 47.7905 167.023C47.5955 166.575 47.4727 166.033 47.4872 165.448C47.5016 164.87 47.675 164.213 48.1228 163.7C48.5707 163.18 49.2208 162.913 49.6109 162.429C50.0154 161.945 50.066 161.244 49.907 160.572C49.7481 159.886 49.4375 159.272 49.1124 158.665C48.8018 158.051 48.5129 157.43 48.4118 156.773C48.2962 156.123 48.4407 155.436 48.7874 154.952C49.1197 154.461 49.5386 154.122 49.8854 153.804C50.6149 153.204 51.0267 152.554 51.1206 152.041C51.2217 151.536 51.0484 151.254 51.0917 151.247C51.0989 151.239 51.1495 151.304 51.2 151.434C51.2506 151.564 51.3012 151.788 51.2651 152.063C51.2145 152.619 50.7883 153.363 50.066 153.999C49.7265 154.331 49.3292 154.671 49.0474 155.118C48.7585 155.559 48.6501 156.13 48.7585 156.715C48.8596 157.307 49.1341 157.899 49.4447 158.499C49.7626 159.091 50.1093 159.756 50.2754 160.493C50.4488 161.215 50.3982 162.075 49.8926 162.667C49.4014 163.245 48.7585 163.498 48.3757 163.938C47.9856 164.372 47.8122 164.942 47.7905 165.47C47.7617 166.004 47.8628 166.503 48.0289 166.936C48.3612 167.803 48.8452 168.417 49.1558 168.843C49.4736 169.255 49.647 169.486 49.6325 169.508Z" fill="#455A64"/>
<path d="M79.7546 138.36C79.6535 138.41 79.1478 137.305 77.9921 136.445C76.8508 135.564 75.6517 135.384 75.6733 135.268C75.6589 135.174 76.9808 135.196 78.2232 136.142C79.4729 137.081 79.8485 138.345 79.7546 138.36Z" fill="#E8505B"/>
<path d="M80.7948 131.44C80.8309 131.418 81.0765 131.7 81.2716 132.256C81.4666 132.812 81.5822 133.657 81.3366 134.546C81.091 135.434 80.5564 136.106 80.1086 136.482C79.6535 136.864 79.2995 136.98 79.2779 136.944C79.249 136.893 79.5451 136.698 79.9208 136.294C80.3036 135.897 80.7515 135.254 80.9754 134.452C81.1993 133.65 81.1415 132.87 81.0187 132.335C80.8959 131.794 80.7442 131.469 80.7948 131.44Z" fill="#455A64"/>
<path opacity="0.3" d="M44.1138 220.304C44.1138 220.304 62.057 237.344 72.7261 234.26C83.3953 231.175 86.552 223.172 86.552 223.172L86.812 220.304L85.7429 219.603L44.67 216.28L44.1138 220.304Z" fill="black"/>
<path d="M33.4952 204.34L36.9553 195.462L49.3581 203.256L38.3061 220.304C38.3133 220.304 33.813 214.467 33.4952 204.34Z" fill="#EB996E"/>
<path d="M47.4944 179.816C53.266 176.803 60.7423 175.929 60.7423 175.929C62.9094 180.271 69.75 180.82 73.8891 177.858L77.3781 175.496C77.3781 175.496 77.9198 175.474 78.8372 175.554C86.9998 176.276 93.6888 182.373 95.3502 190.405C95.957 193.331 96.4048 196.682 96.2242 199.789C95.7692 207.677 87.5994 208.392 87.5994 208.392C87.5994 208.392 87.1804 216.193 86.6242 222.492C86.2124 227.202 83.7709 230.712 79.4801 232.684C76.2801 234.151 74.5176 234.83 70.3713 235.494C59.9044 237.17 49.8493 233.197 43.2253 226.097C44.4677 218.577 45.6524 208.847 45.5657 208.413C45.5513 208.32 45.5802 208.269 45.5802 208.269L37.4826 201.082L32.8884 197.224C32.8884 197.231 42.9652 182.279 47.4944 179.816Z" fill="#FDD958"/>
<path d="M57.5351 184.684C57.5062 184.756 56.8416 184.128 55.5342 184.128C54.8985 184.128 54.1111 184.316 53.4682 184.843C53.1504 185.103 52.8759 185.464 52.5508 185.833C52.233 186.187 51.8213 186.598 51.2434 186.699C50.6583 186.808 50.1237 186.555 49.7192 186.288C49.3003 186.02 48.9463 185.731 48.5851 185.522C47.87 185.081 47.061 185.125 46.4686 185.334C45.8619 185.544 45.4646 185.905 45.2406 186.187C45.0167 186.468 44.93 186.656 44.9011 186.649C44.8867 186.642 44.9228 186.432 45.1251 186.1C45.3273 185.782 45.7318 185.356 46.382 185.089C47.0104 184.821 47.9422 184.742 48.7657 185.219C49.1702 185.443 49.5314 185.731 49.9287 185.977C50.3188 186.223 50.7522 186.41 51.1928 186.331C51.6335 186.252 51.9874 185.926 52.298 185.587C52.6159 185.24 52.9048 184.865 53.2732 184.576C54.01 183.998 54.8768 183.832 55.563 183.861C56.2565 183.889 56.7838 184.106 57.1089 184.301C57.405 184.503 57.5423 184.67 57.5351 184.684Z" fill="#FAFAFA"/>
<path d="M65.7627 195.462C65.7121 195.519 65.2859 194.718 64.0435 194.299C63.4439 194.096 62.6421 194.024 61.8547 194.32C61.4647 194.465 61.089 194.718 60.6701 194.963C60.2583 195.202 59.7382 195.454 59.1531 195.368C58.568 195.288 58.1346 194.869 57.8385 194.494C57.5279 194.111 57.2822 193.721 57.0078 193.403C56.4732 192.76 55.6859 192.536 55.0574 192.551C54.4145 192.558 53.9233 192.775 53.6199 192.962C53.3165 193.157 53.1721 193.309 53.1504 193.287C53.136 193.28 53.2371 193.085 53.5332 192.84C53.8294 192.601 54.3495 192.327 55.043 192.283C55.722 192.233 56.6321 192.45 57.2606 193.172C57.5712 193.511 57.824 193.901 58.1202 194.263C58.4091 194.617 58.7631 194.942 59.2037 194.999C59.6443 195.064 60.085 194.869 60.4895 194.645C60.9012 194.422 61.2913 194.154 61.7392 194.003C62.6277 193.692 63.4945 193.808 64.1301 194.06C64.773 194.313 65.2137 194.682 65.4521 194.971C65.7049 195.259 65.7771 195.454 65.7627 195.462Z" fill="#FAFAFA"/>
<path d="M84.0454 179.67C84.0309 179.75 83.2508 179.273 81.9722 179.555C81.351 179.692 80.6214 180.039 80.1086 180.689C79.8485 181.007 79.6607 181.426 79.4223 181.852C79.1912 182.264 78.8734 182.755 78.3244 182.979C77.7754 183.21 77.1975 183.073 76.7496 182.899C76.2873 182.726 75.8756 182.516 75.4783 182.394C74.6909 182.119 73.9036 182.329 73.369 182.661C72.8273 182.993 72.5094 183.434 72.3433 183.752C72.1844 184.077 72.141 184.279 72.1049 184.272C72.0905 184.272 72.076 184.055 72.206 183.694C72.3361 183.34 72.6395 182.834 73.2173 182.437C73.7735 182.047 74.6693 181.765 75.5722 182.061C76.0128 182.191 76.4318 182.401 76.8652 182.553C77.2986 182.711 77.7609 182.805 78.1727 182.625C78.5844 182.459 78.8661 182.061 79.0973 181.664C79.3357 181.26 79.5379 180.833 79.8341 180.472C80.4336 179.75 81.2427 179.403 81.9145 179.295C82.5935 179.179 83.1641 179.273 83.5181 179.396C83.8865 179.526 84.0526 179.656 84.0454 179.67Z" fill="#FAFAFA"/>
<path d="M75.6083 191.525C75.5578 191.575 75.2471 190.947 74.3081 190.593C73.853 190.42 73.2462 190.34 72.6467 190.542C72.3505 190.636 72.0543 190.824 71.7148 190.997C71.3826 191.164 70.9708 191.351 70.5013 191.265C70.0318 191.178 69.7139 190.831 69.49 190.528C69.2661 190.217 69.0927 189.907 68.8904 189.661C68.5076 189.155 67.9297 188.96 67.4457 188.939C66.4417 188.91 65.9794 189.473 65.9505 189.408C65.936 189.394 66.0155 189.249 66.2539 189.062C66.4922 188.881 66.904 188.679 67.4457 188.671C67.9803 188.65 68.6882 188.852 69.1505 189.437C69.3816 189.712 69.5622 190.022 69.7789 190.304C69.9884 190.586 70.2412 190.831 70.5663 190.889C71.2309 191.005 71.8376 190.405 72.5311 190.21C73.239 190.001 73.9108 190.131 74.3948 190.347C75.4133 190.81 75.6444 191.532 75.6083 191.525Z" fill="#FAFAFA"/>
<path d="M57.0078 201.507C56.9572 201.558 56.6466 200.929 55.7075 200.575C55.2524 200.402 54.6457 200.323 54.0461 200.525C53.75 200.619 53.4538 200.807 53.1143 200.98C52.782 201.146 52.3703 201.334 51.9007 201.247C51.4312 201.16 51.1134 200.814 50.8894 200.51C50.6655 200.2 50.4921 199.889 50.2899 199.644C49.907 199.138 49.3292 198.943 48.8452 198.921C47.8411 198.892 47.3788 199.456 47.3499 199.391C47.3355 199.376 47.4149 199.232 47.6533 199.044C47.8917 198.863 48.3034 198.661 48.8452 198.654C49.3797 198.632 50.0876 198.834 50.5499 199.42C50.7811 199.694 50.9617 200.005 51.1784 200.286C51.3879 200.568 51.6407 200.814 51.9657 200.871C52.6303 200.987 53.2371 200.388 53.9305 200.193C54.6384 199.983 55.3102 200.113 55.7942 200.33C56.8127 200.792 57.0439 201.514 57.0078 201.507Z" fill="#FAFAFA"/>
<path d="M74.3948 201.731C74.3587 201.796 73.8675 201.305 72.8634 201.269C72.3794 201.255 71.7799 201.377 71.2742 201.76C71.0214 201.948 70.8047 202.215 70.5374 202.49C70.2774 202.757 69.9451 203.068 69.4756 203.133C69.006 203.198 68.5871 202.981 68.2837 202.764C67.9658 202.54 67.7058 202.309 67.4313 202.136C66.904 201.782 66.29 201.782 65.8349 201.919C64.8814 202.215 64.6213 202.902 64.5708 202.851C64.5491 202.844 64.578 202.678 64.7441 202.425C64.9103 202.179 65.2353 201.854 65.7482 201.666C66.2466 201.471 66.9834 201.435 67.6119 201.84C67.9225 202.028 68.197 202.259 68.4859 202.461C68.7749 202.663 69.0927 202.815 69.4178 202.764C70.0823 202.656 70.4652 201.898 71.0575 201.486C71.6571 201.06 72.3361 200.958 72.8706 201.009C73.983 201.125 74.4381 201.731 74.3948 201.731Z" fill="#FAFAFA"/>
<path d="M68.6521 209.67C68.616 209.735 68.1248 209.244 67.1207 209.208C66.6367 209.193 66.0372 209.316 65.5315 209.699C65.2787 209.887 65.062 210.154 64.7947 210.428C64.5347 210.696 64.2024 211.006 63.7329 211.071C63.2633 211.136 62.8444 210.919 62.541 210.703C62.2231 210.479 61.9631 210.248 61.6886 210.074C61.1613 209.72 60.5473 209.72 60.0922 209.858C59.1387 210.154 58.8787 210.84 58.8281 210.789C58.8064 210.782 58.8353 210.616 59.0014 210.363C59.1676 210.118 59.4926 209.793 60.0055 209.605C60.5039 209.41 61.2407 209.374 61.8692 209.778C62.1798 209.966 62.4543 210.197 62.7432 210.399C63.0322 210.602 63.35 210.753 63.6751 210.703C64.3396 210.602 64.7225 209.836 65.3148 209.424C65.9144 208.998 66.5934 208.897 67.1279 208.947C68.2403 209.056 68.6882 209.663 68.6521 209.67Z" fill="#FAFAFA"/>
<path d="M56.5166 229.362C56.466 229.412 56.1482 228.791 55.2091 228.451C54.754 228.285 54.1472 228.213 53.5477 228.422C53.2515 228.524 52.9554 228.711 52.6231 228.892C52.298 229.065 51.8791 229.253 51.4167 229.174C50.9472 229.094 50.6222 228.748 50.3982 228.451C50.1671 228.141 49.9865 227.837 49.7842 227.592C49.3942 227.093 48.8091 226.906 48.3323 226.891C47.3282 226.877 46.8804 227.447 46.8443 227.382C46.8298 227.368 46.9093 227.223 47.1404 227.036C47.3716 226.855 47.7833 226.646 48.3323 226.624C48.8596 226.595 49.5748 226.79 50.0515 227.368C50.2899 227.642 50.4777 227.946 50.6944 228.227C50.9111 228.509 51.1639 228.748 51.489 228.805C52.1535 228.914 52.7531 228.307 53.4466 228.097C54.1472 227.874 54.8263 227.996 55.3174 228.206C56.3143 228.646 56.5599 229.369 56.5166 229.362Z" fill="#FAFAFA"/>
<path d="M70.718 233.551C70.6819 233.616 70.1979 233.117 69.1938 233.067C68.7099 233.045 68.1031 233.153 67.5974 233.536C67.3446 233.717 67.1207 233.984 66.8534 234.258C66.5934 234.518 66.2539 234.822 65.7843 234.887C65.3148 234.952 64.8958 234.721 64.5997 234.497C64.2891 234.273 64.029 234.034 63.7617 233.854C63.2417 233.493 62.6277 233.486 62.1654 233.616C61.2046 233.897 60.9446 234.584 60.8868 234.526C60.8651 234.518 60.9012 234.352 61.0674 234.107C61.2335 233.861 61.5658 233.543 62.0787 233.363C62.5771 233.175 63.3139 233.153 63.9423 233.558C64.2457 233.746 64.5202 233.984 64.8092 234.186C65.0981 234.388 65.4159 234.547 65.741 234.504C66.4056 234.41 66.8029 233.652 67.4024 233.247C68.0092 232.828 68.6882 232.741 69.2155 232.799C70.3135 232.929 70.7541 233.543 70.718 233.551Z" fill="#FAFAFA"/>
<path d="M23.9385 173.812C24.3791 174.333 40.2564 195.563 40.2564 195.563L38.0171 196.827L21.7209 175.864L23.9385 173.812Z" fill="#263238"/>
<path d="M85.9235 188.96C85.9235 188.96 71.0286 214.647 70.0173 215.124C68.0308 216.056 45.1756 196.299 42.9941 194.414C42.6907 194.009 42.0767 193.164 40.856 191.481C40.856 191.481 39.0501 183.232 37.1286 183.86C35.2072 184.496 38.1833 188.057 36.9264 191.192C35.6695 194.327 29.934 186.851 29.7029 186.179L28.222 184.243C28.222 184.243 26.669 188.642 26.7773 190.484C27.1168 196.371 32.6862 203.371 32.6862 203.371C32.6862 203.371 55.3175 231.731 72.4589 232.699C77.3925 232.973 86.8192 218.764 92.6847 208.269C96.2243 201.926 94.5845 195.483 88.7118 191.207L85.9235 188.96Z" fill="#FFBE9D"/>
<path d="M29.6017 191.524C29.5512 191.553 28.9227 190.657 28.3304 189.444C27.7308 188.237 27.3913 187.19 27.4491 187.168C27.5069 187.147 27.9403 188.144 28.5326 189.343C29.1177 190.549 29.6523 191.488 29.6017 191.524Z" fill="#EB996E"/>
<path d="M85.2228 181.816C84.6377 182.17 70.783 207.886 70.783 207.886L88.6107 221.856C88.6107 221.856 93.2482 210.429 95.6969 201.139C96.3615 198.618 96.022 191.879 95.0829 189.278C93.7538 185.587 91.7457 186.504 88.7335 184.345L85.2228 181.816Z" fill="#FDD958"/>
<g opacity="0.7">
<path opacity="0.7" d="M91.0811 181.816C91.0739 181.83 90.9077 181.715 90.5755 181.549C90.2504 181.383 89.7086 181.18 89.008 181.216C88.3073 181.238 87.4766 181.585 86.682 182.184C85.8802 182.791 85.1 183.651 84.3632 184.684C83.612 185.709 82.9908 186.966 82.2251 188.267C81.481 189.581 80.6792 190.975 79.8413 192.449C78.1582 195.396 76.3018 198.625 74.3586 202.02C73.174 204.079 72.0254 206.08 70.9419 207.965L70.8986 207.741C75.7311 211.555 79.9352 214.878 82.9619 217.276C84.4282 218.454 85.6129 219.407 86.4653 220.086C86.8481 220.404 87.1587 220.657 87.3899 220.852C87.5994 221.025 87.7077 221.126 87.7005 221.134C87.6933 221.141 87.5777 221.061 87.3538 220.902C87.1082 220.722 86.7903 220.483 86.3858 220.187C85.519 219.53 84.3127 218.605 82.8174 217.464C79.7691 215.095 75.5361 211.808 70.6747 208.037L70.5518 207.943L70.6313 207.806C71.7076 205.921 72.8562 203.92 74.0408 201.861C75.9912 198.473 77.8476 195.244 79.5451 192.304C80.3903 190.838 81.1993 189.444 81.9578 188.137C82.7235 186.843 83.3736 185.579 84.1537 184.546C84.9194 183.506 85.7285 182.639 86.5664 182.033C87.3971 181.426 88.2712 181.086 89.0152 181.086C89.752 181.065 90.301 181.303 90.626 181.498C90.7994 181.585 90.9077 181.686 90.9872 181.736C91.045 181.78 91.0883 181.809 91.0811 181.816Z" fill="black"/>
</g>
<path d="M85.7574 205.928C85.7068 205.979 85.3962 205.35 84.4571 204.996C84.0021 204.823 83.3953 204.743 82.7957 204.946C82.4996 205.04 82.2034 205.227 81.8639 205.401C81.5316 205.567 81.1199 205.755 80.6503 205.668C80.1808 205.581 79.863 205.235 79.639 204.931C79.4151 204.621 79.2417 204.31 79.0395 204.064C78.6566 203.559 78.0788 203.364 77.5948 203.342C76.5979 203.313 76.1284 203.877 76.0995 203.812C76.0851 203.797 76.1645 203.653 76.4029 203.465C76.6413 203.284 77.053 203.082 77.5948 203.075C78.1293 203.053 78.8372 203.255 79.2995 203.84C79.5307 204.115 79.7113 204.426 79.928 204.707C80.1375 204.989 80.3903 205.235 80.7153 205.292C81.3799 205.408 81.9867 204.808 82.6801 204.613C83.3881 204.404 84.0598 204.534 84.5438 204.751C85.5623 205.213 85.7935 205.935 85.7574 205.928Z" fill="#FAFAFA"/>
<path d="M93.9055 202.599C93.8405 202.635 93.7105 201.948 92.9087 201.356C92.5186 201.067 91.9551 200.829 91.3195 200.858C91.0089 200.872 90.6694 200.966 90.301 201.046C89.9398 201.118 89.4847 201.183 89.0585 200.973C88.6323 200.764 88.4156 200.345 88.2856 199.991C88.1484 199.63 88.0689 199.283 87.9389 198.994C87.7077 198.402 87.2021 198.055 86.747 197.911C85.7935 197.614 85.1939 198.033 85.1795 197.961C85.165 197.947 85.2878 197.824 85.5623 197.708C85.8368 197.6 86.2847 197.52 86.8192 197.65C87.3393 197.773 87.9678 198.163 88.2567 198.85C88.4084 199.175 88.4951 199.529 88.6251 199.854C88.7479 200.186 88.9285 200.489 89.2247 200.634C89.8314 200.923 90.5827 200.511 91.305 200.511C92.0418 200.497 92.6558 200.807 93.0676 201.147C93.9127 201.862 93.9416 202.62 93.9055 202.599Z" fill="#FAFAFA"/>
<path d="M94.3245 191.973C94.2594 192.009 94.1294 191.322 93.3276 190.73C92.9375 190.441 92.3741 190.203 91.7384 190.232C91.4278 190.246 91.0883 190.34 90.7199 190.42C90.3587 190.492 89.9037 190.557 89.4775 190.347C89.0513 190.138 88.8346 189.719 88.7046 189.365C88.5673 189.004 88.4879 188.657 88.3578 188.368C88.1267 187.776 87.621 187.429 87.1659 187.285C86.2124 186.988 85.6129 187.407 85.5984 187.335C85.584 187.321 85.7068 187.198 85.9813 187.082C86.2558 186.974 86.7036 186.894 87.2382 187.024C87.7583 187.147 88.3867 187.537 88.6757 188.224C88.8274 188.549 88.914 188.903 89.0441 189.228C89.1669 189.56 89.3475 189.863 89.6436 190.008C90.2504 190.297 91.0016 189.885 91.724 189.885C92.4608 189.871 93.0748 190.181 93.4865 190.521C94.3317 191.236 94.3606 191.987 94.3245 191.973Z" fill="#FAFAFA"/>
<path d="M90.3804 216.41C90.3154 216.446 90.1854 215.76 89.3836 215.168C88.9935 214.879 88.4301 214.64 87.7944 214.669C87.4838 214.684 87.1443 214.778 86.7759 214.857C86.4147 214.929 85.9596 214.994 85.5334 214.785C85.1072 214.575 84.8905 214.156 84.7605 213.802C84.6233 213.441 84.5438 213.095 84.4138 212.806C84.1826 212.213 83.677 211.866 83.2219 211.722C82.2684 211.426 81.6688 211.845 81.6544 211.773C81.64 211.758 81.7627 211.635 82.0372 211.52C82.3117 211.411 82.7596 211.332 83.2941 211.462C83.8142 211.585 84.4427 211.975 84.7316 212.661C84.8833 212.986 84.97 213.34 85.1 213.665C85.2228 213.997 85.4034 214.301 85.6996 214.445C86.3063 214.734 87.0576 214.323 87.78 214.323C88.5168 214.308 89.1307 214.619 89.5425 214.958C90.3876 215.673 90.4165 216.425 90.3804 216.41Z" fill="#FAFAFA"/>
</g>
<defs>
<clipPath id="clip0">
<rect width="281.963" height="300" fill="white" transform="translate(0.830444)"/>
</clipPath>
</defs>
</svg>
