<svg width="23" height="23" viewBox="0 0 23 23" fill="none" xmlns="http://www.w3.org/2000/svg">
<path d="M11.5006 0C5.14838 0 6.24005e-08 5.14838 6.24005e-08 11.4994C-0.000157271 13.0097 0.297207 14.5053 0.875111 15.9007C1.45301 17.2961 2.30014 18.5639 3.3681 19.6319C4.43606 20.6999 5.70394 21.547 7.09932 22.1249C8.49471 22.7028 9.99027 23.0002 11.5006 23C17.8504 23 23 17.8516 23 11.4994C23 5.14838 17.8504 0 11.5006 0ZM2.39571 11.4994C2.39604 9.77564 2.88577 8.0874 3.80792 6.63103C4.73006 5.17467 6.04674 4.01004 7.6048 3.27261C9.16286 2.53517 10.8983 2.25524 12.6092 2.46537C14.3201 2.67551 15.9362 3.36706 17.2695 4.45961L4.45961 17.2695C3.12271 15.644 2.39303 13.604 2.39571 11.4994ZM11.4994 20.6019C9.39561 20.6052 7.35632 19.8758 5.73173 18.5392L18.5416 5.73053C19.6335 7.06403 20.3245 8.68011 20.5342 10.3908C20.7438 12.1016 20.4635 13.8367 19.7259 15.3944C18.9882 16.9521 17.8236 18.2684 16.3673 19.1903C14.911 20.1121 13.2229 20.6016 11.4994 20.6019Z" fill="#A6A6A6"/>
</svg>
