<svg width="201" height="228" viewBox="0 0 201 228" fill="none" xmlns="http://www.w3.org/2000/svg">
<path d="M24.8821 222.707C37.1648 206.794 46.7217 188.699 52.813 169.427L52.4246 169.303C46.3465 188.526 36.815 206.585 24.5597 222.457L24.8821 222.707Z" fill="#1E1E1D"/>
<path d="M52.1769 170.356C52.7988 169.494 53.4264 168.472 53.9839 167.424C54.5343 166.373 54.9791 165.277 55.289 164.297C55.8052 162.722 56.2085 161.023 56.0849 159.474C56.0558 159.117 55.9902 158.758 55.8302 158.51C55.6701 158.261 55.389 158.146 55.128 158.304C54.8596 158.467 54.6863 158.86 54.5471 159.226C54.2145 160.105 53.9452 160.996 53.7246 161.9C53.4969 162.8 53.2834 163.708 53.1206 164.625C52.8127 166.471 52.5008 168.323 52.1909 170.172" fill="#1E1E1D"/>
<path d="M52.3392 170.484C52.9906 169.578 53.636 168.523 54.1979 167.46C54.7491 166.391 55.186 165.308 55.4891 164.357C56.0097 162.766 56.423 161.05 56.2963 159.447C56.2549 158.962 56.1628 158.625 56.0078 158.385C55.7709 158.023 55.3725 157.917 55.0347 158.121C54.7154 158.316 54.5247 158.732 54.3648 159.152C53.7686 160.719 53.3944 162.341 53.0455 163.967C52.8802 164.78 52.7437 165.601 52.6164 166.422C52.4764 167.24 52.3439 168.053 52.2043 168.862L51.9937 170.141L52.0697 170.156L52.0208 170.226L52.3392 170.484ZM55.4261 158.456C55.5218 158.477 55.6039 158.556 55.6603 158.639C55.7798 158.818 55.8491 159.095 55.8832 159.501C56.0046 161.021 55.6045 162.689 55.0951 164.235C54.8407 165.041 54.474 165.947 54.0412 166.863C53.5885 167.773 53.0556 168.685 52.5081 169.513L52.6044 168.932C52.74 168.13 52.876 167.319 53.012 166.507C53.1374 165.69 53.2734 164.879 53.4368 164.069C53.7813 162.459 54.1531 160.85 54.7353 159.308C54.8601 158.976 55.0171 158.62 55.2237 158.493C55.2986 158.45 55.3648 158.441 55.4261 158.456Z" fill="#1E1E1D"/>
<path d="M50.3422 175.793C50.4256 174.224 50.0892 172.303 49.4552 170.94C48.9475 169.843 48.3029 168.708 47.2183 167.933C46.9639 167.754 46.6812 167.591 46.3647 167.531C46.0517 167.472 45.7019 167.538 45.5481 167.747C45.3904 167.962 45.468 168.257 45.5579 168.523C46.0061 169.801 46.6992 170.991 47.5424 172.173C48.3749 173.348 49.3449 174.511 50.2375 175.688" fill="#1E1E1D"/>
<path d="M50.081 175.824L50.1417 175.774L50.1428 175.789L50.553 175.799C50.6375 174.127 50.2679 172.174 49.6468 170.846C49.1253 169.733 48.4765 168.571 47.3405 167.763C46.9995 167.521 46.7029 167.383 46.4062 167.33C45.9828 167.252 45.5814 167.368 45.3907 167.626C45.1455 167.956 45.3007 168.388 45.3714 168.596C46.1526 170.882 47.8286 172.954 49.4541 175.016C49.6664 175.279 49.8727 175.554 50.081 175.824ZM46.4699 167.767C46.6661 167.825 46.8709 167.935 47.104 168.103C48.1637 168.863 48.7822 169.97 49.275 171.035C49.8032 172.162 50.133 173.752 50.1598 175.224L49.7756 174.733C48.1706 172.701 46.5273 170.671 45.7594 168.453C45.6835 168.238 45.6177 168.005 45.7206 167.871C45.8139 167.746 46.0758 167.687 46.3346 167.733C46.3761 167.742 46.4212 167.754 46.4699 167.767Z" fill="#1E1E1D"/>
<path d="M49.7203 178.766C50.8357 177.255 52.5298 175.662 54.0288 174.735C55.249 173.997 56.5713 173.261 58.0387 173.175C58.3773 173.155 58.7304 173.175 59.0356 173.322C59.3388 173.473 59.5783 173.779 59.5521 174.11C59.5254 174.45 59.2468 174.715 58.9793 174.934C57.6751 175.989 56.2249 176.729 54.6655 177.304C53.1061 177.88 51.477 178.305 49.8819 178.744" fill="#1E1E1D"/>
<path d="M49.9257 178.951L51.0347 178.646C52.4411 178.26 53.8762 177.848 55.2554 177.302C56.6275 176.753 57.9244 176.053 59.0921 175.109C59.4012 174.857 59.7223 174.542 59.7568 174.112C59.7925 173.656 59.4629 173.285 59.1256 173.12C58.7457 172.931 58.3221 172.937 58.0366 172.955C56.5086 173.048 55.1672 173.802 53.9319 174.55C53.1888 174.993 52.4186 175.628 51.6451 176.335C50.8751 177.044 50.1484 177.842 49.5568 178.641L49.8771 178.895L49.9006 178.862L49.9257 178.951ZM58.7724 173.459C58.8282 173.476 58.8855 173.499 58.9353 173.527C59.1923 173.652 59.3563 173.893 59.3427 174.11C59.3242 174.352 59.0971 174.566 58.8563 174.762C57.7227 175.679 56.4449 176.361 55.1076 176.907C53.747 177.444 52.3286 177.852 50.9423 178.235L50.2454 178.429C51.368 177.039 52.8583 175.71 54.1205 174.931C55.3126 174.21 56.5996 173.487 58.0342 173.401C58.3347 173.373 58.5746 173.395 58.7724 173.459Z" fill="#1E1E1D"/>
<path d="M47.1398 183.674C47.3029 181.804 47.0648 179.532 46.3497 177.871C45.7801 176.535 45.102 175.175 43.8462 174.197C43.5574 173.97 43.2238 173.765 42.8555 173.681C42.4836 173.594 42.0665 173.655 41.8715 173.887C41.6705 174.13 41.7436 174.483 41.8385 174.798C42.0696 175.562 42.3855 176.309 42.7619 177.047C43.1348 177.783 43.5541 178.503 44.0173 179.22C44.9417 180.657 46.0091 182.08 47.0202 183.537" fill="#1E1E1D"/>
<path d="M46.8576 183.671L46.9409 183.605L46.9349 183.658L47.3421 183.689C47.5123 181.706 47.2375 179.4 46.5348 177.783C45.955 176.432 45.2782 175.045 43.971 174.034C43.587 173.735 43.2466 173.558 42.9036 173.479C42.4162 173.365 41.9475 173.477 41.7155 173.758C41.418 174.115 41.5719 174.616 41.6464 174.859C42.4976 177.604 44.3407 180.129 46.1541 182.665C46.3868 183.001 46.6194 183.337 46.8576 183.671ZM42.974 173.929C43.2038 174.011 43.4473 174.152 43.7203 174.365C44.9497 175.323 45.6032 176.66 46.1634 177.963C46.77 179.367 47.0446 181.323 46.9732 183.105L46.4834 182.411C44.7012 179.91 42.8604 177.415 42.0367 174.745C41.9547 174.466 41.8909 174.188 42.0299 174.022C42.1594 173.866 42.487 173.806 42.8083 173.883C42.8625 173.895 42.9167 173.906 42.974 173.929Z" fill="#1E1E1D"/>
<path d="M46.4349 186.638C47.1197 185.797 47.9819 184.948 48.8823 184.182C49.7685 183.407 50.7181 182.719 51.6186 182.228C53.0835 181.445 54.6202 180.651 56.306 180.617C56.6968 180.612 57.1021 180.647 57.4456 180.834C57.7891 181.022 58.0494 181.391 58.0135 181.773C57.9753 182.167 57.6423 182.462 57.3245 182.705C55.7603 183.857 54.0202 184.631 52.2101 185.22C50.3965 185.808 48.4789 186.198 46.6182 186.619" fill="#1E1E1D"/>
<path d="M46.6566 186.827L47.9528 186.539C49.5885 186.169 51.2923 185.786 52.8861 185.215C54.4871 184.649 56.0355 183.917 57.4354 182.883C57.7984 182.61 58.1703 182.262 58.2199 181.781C58.2728 181.269 57.9224 180.835 57.5504 180.631C57.2318 180.458 56.8393 180.383 56.3171 180.39C54.5636 180.428 53.015 181.243 51.5334 182.031C50.6575 182.503 49.7118 183.184 48.809 183.963C47.9007 184.744 47.0012 185.61 46.2815 186.496L46.5883 186.766L46.6348 186.708L46.6566 186.827ZM57.156 180.953C57.2225 180.976 57.285 181.006 57.3419 181.038C57.6427 181.201 57.8295 181.502 57.8047 181.764C57.7766 182.056 57.5023 182.304 57.2111 182.525C54.4739 184.539 51.1512 185.404 47.8791 186.119L46.972 186.322C47.6578 185.538 48.481 184.784 49.2861 184.104C50.0948 183.426 50.9286 182.837 51.7033 182.42C52.4126 182.037 53.1548 181.653 53.9221 181.358C54.6802 181.063 55.469 180.855 56.298 180.842C56.6488 180.833 56.9282 180.867 57.156 180.953Z" fill="#1E1E1D"/>
<path d="M43.5616 191.369C43.8458 189.365 43.7045 186.895 43.0024 185.069C42.4554 183.6 41.7983 182.103 40.4921 180.99C40.1884 180.731 39.8383 180.489 39.4419 180.379C39.0455 180.269 38.6 180.315 38.3717 180.556C38.1394 180.804 38.2001 181.188 38.2883 181.532C38.697 183.19 39.5125 184.813 40.4278 186.408C41.3467 188.005 42.4283 189.595 43.4389 191.221" fill="#1E1E1D"/>
<path d="M43.2687 191.34L43.3667 191.274L43.3562 191.343L43.7627 191.392C44.0706 189.272 43.8763 186.763 43.1919 184.988C42.6366 183.501 41.9859 181.984 40.6197 180.827C40.2176 180.486 39.8603 180.281 39.4928 180.179C39.0695 180.059 38.5223 180.094 38.2209 180.416C37.8886 180.776 38.026 181.315 38.0906 181.576C38.4599 183.062 39.1495 184.526 39.9409 185.959C40.7288 187.389 41.6561 188.804 42.558 190.215C42.7961 190.59 43.0342 190.966 43.2687 191.34ZM39.5683 180.637C39.8155 180.737 40.0743 180.901 40.3587 181.144C41.6384 182.238 42.2765 183.711 42.8106 185.144C43.4117 186.708 43.6132 188.862 43.4219 190.791L42.9031 189.973C42.0114 188.578 41.0924 187.181 40.3144 185.775C39.5185 184.359 38.8474 182.928 38.4876 181.475C38.4124 181.167 38.361 180.858 38.5222 180.687C38.6759 180.521 39.0375 180.475 39.3888 180.574C39.4481 180.593 39.5074 180.612 39.5683 180.637Z" fill="#1E1E1D"/>
<path d="M42.7593 194.306C44.2646 192.691 46.35 190.999 48.2366 190.097C49.7659 189.383 51.3384 188.642 53.064 188.696C53.4594 188.707 53.871 188.764 54.2082 188.972C54.5453 189.179 54.7921 189.564 54.734 189.952C54.67 190.351 54.3212 190.632 53.9876 190.861C50.7131 193.051 46.7913 193.651 42.9478 194.295" fill="#1E1E1D"/>
<path d="M42.9716 194.504L44.3068 194.279C45.9933 193.994 47.7175 193.683 49.3646 193.184C51.0152 192.687 52.6386 192.03 54.0891 191.048C54.4659 190.792 54.8627 190.458 54.9381 189.972C55.0167 189.456 54.6874 189.001 54.3218 188.778C54.006 188.583 53.6143 188.49 53.0858 188.474C51.3001 188.419 49.7014 189.174 48.1641 189.902C46.3339 190.77 44.2029 192.46 42.615 194.164L42.9084 194.45L42.9604 194.39L42.9716 194.504ZM53.9104 189.071C53.9784 189.1 54.0409 189.13 54.0958 189.165C54.3923 189.345 54.5712 189.66 54.5297 189.926C54.4849 190.223 54.1929 190.462 53.8839 190.672C52.4798 191.638 50.8719 192.276 49.2469 192.768C48.4291 193.011 47.6024 193.212 46.7729 193.393C45.9362 193.57 45.0882 193.717 44.2568 193.859L43.3078 194.019C44.8172 192.514 46.6799 191.062 48.3103 190.292C49.8079 189.593 51.3507 188.863 53.0399 188.916C53.4025 188.927 53.683 188.976 53.9104 189.071Z" fill="#1E1E1D"/>
<path d="M39.6838 198.863C39.9779 197.318 39.9823 195.406 39.5168 193.95C39.1545 192.786 38.7101 191.584 37.7458 190.653C37.5239 190.44 37.2652 190.235 36.9634 190.131C36.6616 190.028 36.3088 190.041 36.1234 190.222C35.9305 190.409 35.9622 190.711 36.0152 190.984C36.5314 193.635 38.1473 196.141 39.6018 198.742" fill="#1E1E1D"/>
<path d="M39.4182 198.855L39.4821 198.816L39.4797 198.828L39.8833 198.9C40.1982 197.259 40.1663 195.303 39.7102 193.881C39.3417 192.694 38.8945 191.473 37.89 190.505C37.5895 190.215 37.3168 190.035 37.0348 189.938C36.6235 189.797 36.2104 189.851 35.981 190.077C35.6904 190.363 35.7719 190.81 35.8149 191.026C36.2794 193.41 37.6228 195.693 38.9139 197.961C39.0845 198.257 39.2531 198.557 39.4182 198.855ZM37.0273 190.377C37.2111 190.466 37.3964 190.602 37.6025 190.802C38.5387 191.708 38.9662 192.881 39.3206 194.018C39.7085 195.22 39.7658 196.821 39.5766 198.271L39.2728 197.737C38.6365 196.62 37.984 195.498 37.4411 194.373C36.8947 193.245 36.4315 192.094 36.2181 190.948C36.1771 190.729 36.1501 190.485 36.2704 190.37C36.3851 190.256 36.6504 190.241 36.8999 190.329C36.9395 190.342 36.9826 190.357 37.0273 190.377Z" fill="#1E1E1D"/>
<path d="M38.7024 201.737C40.0603 200.428 41.9037 199.077 43.5517 198.401C44.885 197.862 46.2749 197.322 47.7307 197.45C48.0687 197.48 48.4121 197.551 48.6915 197.744C48.9709 197.938 49.1631 198.279 49.0953 198.6C49.0251 198.935 48.7138 199.158 48.4227 199.336C45.5201 201.019 42.1778 201.359 38.8591 201.741" fill="#1E1E1D"/>
<path d="M38.8794 201.948L40.0279 201.815C40.7526 201.73 41.4884 201.642 42.2235 201.53C42.9495 201.417 43.6712 201.279 44.389 201.106C45.8227 200.763 47.2212 200.275 48.5206 199.521C48.8584 199.318 49.2174 199.052 49.3045 198.629C49.3863 198.24 49.1892 197.808 48.8177 197.553C48.5541 197.373 48.2195 197.27 47.7651 197.231C46.2456 197.1 44.8403 197.66 43.4903 198.203C41.8872 198.857 40.0018 200.208 38.5676 201.587L38.8475 201.888L38.878 201.859L38.8794 201.948ZM48.423 197.841C48.4784 197.868 48.5282 197.896 48.574 197.931C48.8091 198.095 48.943 198.356 48.8985 198.57C48.8511 198.805 48.6 198.987 48.3335 199.146C47.0805 199.884 45.7011 200.354 44.2931 200.693C42.8852 201.031 41.4436 201.229 40.0017 201.394L39.2825 201.478C40.6239 200.29 42.2268 199.169 43.6215 198.603C44.2651 198.337 44.9377 198.078 45.6195 197.895C46.2978 197.709 46.9941 197.608 47.703 197.668C48.001 197.694 48.2356 197.751 48.423 197.841Z" fill="#1E1E1D"/>
<path d="M36.014 205.544C36.1725 204.918 36.2675 204.205 36.2837 203.499C36.2927 202.79 36.2214 202.082 36.0651 201.477C35.8184 200.498 35.502 199.485 34.7473 198.68C34.5716 198.493 34.3682 198.314 34.1246 198.215C33.881 198.117 33.5837 198.114 33.4237 198.258C33.2563 198.407 33.2702 198.658 33.2997 198.889C33.4455 199.998 33.8404 201.087 34.3355 202.181C34.8198 203.269 35.4012 204.351 35.9489 205.451" fill="#1E1E1D"/>
<path d="M35.7629 205.543L35.8358 205.505L36.2133 205.59C36.383 204.919 36.4757 204.177 36.4891 203.451C36.4919 202.719 36.4151 202.013 36.2639 201.415C36.0214 200.462 35.6919 199.381 34.8973 198.531C34.6573 198.275 34.4384 198.115 34.2019 198.02C33.8578 197.884 33.5006 197.913 33.2895 198.099C33.0212 198.336 33.0709 198.724 33.0969 198.911C33.2295 199.91 33.5598 200.898 33.9815 201.881C34.3961 202.86 34.8899 203.822 35.3801 204.783L35.7629 205.543ZM34.1473 198.452C34.2915 198.528 34.4393 198.648 34.5956 198.82C35.3239 199.605 35.6252 200.586 35.8661 201.534C35.9915 202.019 36.0584 202.584 36.075 203.173C36.0845 203.757 36.031 204.362 35.9312 204.942L35.7453 204.581C34.7991 202.707 33.7517 200.772 33.4993 198.851C33.4764 198.675 33.465 198.486 33.5563 198.407C33.642 198.329 33.8538 198.326 34.0436 198.404C34.0777 198.418 34.1117 198.432 34.1473 198.452Z" fill="#1E1E1D"/>
<path d="M34.6173 208.209C35.8246 207.119 37.4844 206.029 38.9438 205.524C40.1196 205.116 41.3301 204.705 42.5938 204.884C42.8838 204.925 43.1813 205.002 43.414 205.179C43.6467 205.356 43.7987 205.66 43.7295 205.935C43.6543 206.219 43.3779 206.396 43.1142 206.534C41.8514 207.206 40.4537 207.559 39.0453 207.789C37.6262 208.014 36.1983 208.112 34.7558 208.212" fill="#1E1E1D"/>
<path d="M34.7573 208.428L35.7623 208.359C38.2657 208.166 40.897 207.928 43.1914 206.731C43.4982 206.566 43.8258 206.348 43.925 205.979C44.0139 205.636 43.8585 205.246 43.5413 205.003C43.3157 204.83 43.0286 204.725 42.6297 204.671C41.3099 204.484 40.0696 204.906 38.8843 205.322C37.4637 205.817 35.7568 206.899 34.4808 208.053L34.7456 208.365L34.7551 208.356L34.7573 208.428ZM43.1561 205.282C43.2024 205.308 43.2431 205.336 43.2802 205.361C43.4671 205.503 43.5698 205.729 43.5238 205.894C43.475 206.082 43.2549 206.225 43.0249 206.344C40.8142 207.508 38.2106 207.738 35.7492 207.931L35.2071 207.974C36.3614 207.003 37.7969 206.148 38.9952 205.725C40.1428 205.335 41.3206 204.924 42.5478 205.101C42.8034 205.137 42.9996 205.195 43.1561 205.282Z" fill="#1E1E1D"/>
<path d="M-56.6596 254.475C-57.3953 260.168 -52.7956 272.813 -45.1297 281.736C-40.8893 286.68 -35.7111 290.481 -29.9784 291.328C-22.9714 301.438 -15.0574 306.61 -7.94767 308.853C0.604212 311.556 7.97531 309.999 11.1651 307.668C17.0008 303.402 -7.43711 289.08 -3.46948 285.91C0.507265 282.739 16.2033 304.035 20.0981 301.571C23.9961 299.118 28.244 289.608 30.7484 282.798C33.2418 275.991 5.44259 270.989 7.51328 265.431C9.58398 259.873 30.0226 275.051 32.0774 268.335C34.1287 261.618 32.6933 253.787 31.5447 247.289C30.3926 240.788 12.7933 245.472 12.7443 241.994C12.7043 238.515 18.4838 237.282 26.2497 237.725C34.016 238.158 30.4524 231.244 28.0445 224.317C25.6366 217.39 25.4791 212.309 25.4791 212.309C21.6844 215.213 9.80523 214.025 7.13851 214.594C4.46267 215.162 12.603 223.888 10.4903 225.971C8.37451 228.044 5.66582 225.137 4.0012 220.606C2.3417 216.082 -5.48908 217.518 -10.9084 219.368C-16.3242 221.221 -6.68749 235.907 -10.7727 237.475C-14.8579 239.044 -15.9364 224.16 -19.1556 223.219C-22.3788 222.286 -33.5357 228.844 -37.383 234.781C-41.2339 240.717 -26.7058 260.869 -32.141 261.562C-37.5726 262.256 -40.2615 239.813 -43.0105 241.096C-45.7529 242.393 -55.5245 245.63 -56.6596 254.475ZM-17.248 250.527C-17.9731 253.344 -20.6815 254.22 -23.0667 251.621C-23.6332 251.006 -23.8875 250.35 -23.9087 249.703C-24.036 246.456 -18.4367 243.357 -17.5655 246.025C-16.9828 247.789 -16.9371 249.328 -17.248 250.527ZM-15.0913 288.472C-13.9114 287.581 -12.4505 287.123 -11.3752 287.822C-9.94027 288.755 -9.7862 290.476 -10.7326 291.726C-11.5091 292.772 -13.0444 293.497 -15.2198 293.186C-18.2472 292.755 -17.0884 289.989 -15.0913 288.472ZM-21.9479 260.578C-24.0145 258.862 -19.9749 257.016 -18.7995 258.313C-17.1642 260.124 -19.8793 262.29 -21.9479 260.578Z" fill="#1E1E1D"/>
<path opacity="0.29" d="M-48.1191 269.543C-46.8378 272.655 -46.3355 277.344 -45.1282 281.741C-40.8878 286.685 -35.7096 290.486 -29.9769 291.333C-22.9699 301.443 -15.0559 306.615 -7.94617 308.858C-5.30009 304.551 -4.9207 296.264 -10.7363 291.724C-11.5127 292.77 -13.048 293.495 -15.2234 293.184C-18.2493 292.758 -17.0884 289.989 -15.0933 288.475C-20.0982 283.253 -15.7986 276.966 -10.9435 274.413C-5.33068 271.457 -6.148 279.625 1.41949 276.898C8.99096 274.163 4.19412 268.152 -0.687174 265.507C-5.56533 262.873 -4.05054 256.472 1.00561 253.951C6.06888 251.435 10.6046 256.227 10.6109 251.747C10.6172 247.267 8.03388 247.177 6.65337 244.435C5.2693 241.69 14.5 234.76 11.9599 232.588C9.41828 230.411 5.35432 228.559 3.69137 233.546C2.0902 238.381 0.371374 243.393 0.264034 243.702C-0.671692 237.85 -4.21835 243.717 -6.35661 248.644C-8.50438 253.58 -12.4605 256.029 -16.5115 251.289C-16.7506 251.015 -16.9942 250.757 -17.2501 250.53C-17.9752 253.347 -20.6835 254.224 -23.0688 251.625C-23.6352 251.009 -23.8896 250.353 -23.9108 249.706C-25.7055 250.753 -26.9262 252.844 -26.6453 255.532C-26.0167 261.474 -21.7901 265.532 -24.689 269.189C-27.5878 272.845 -29.6978 275.7 -32.3647 273.705C-35.0244 271.713 -37.1032 262.719 -41.6647 260.813C-46.2277 258.902 -50.7725 263.072 -48.1191 269.543ZM-21.948 260.578C-24.0146 258.862 -19.975 257.016 -18.7995 258.313C-17.1643 260.123 -19.8794 262.29 -21.948 260.578Z" fill="#1E1E1D"/>
<path d="M46.694 122.281L44.5861 123.947L37.3793 129.252C37.3793 129.252 26.9902 142.297 26.6821 143.04C26.3649 143.782 -4.60689 174.338 -4.60689 174.338C-4.60689 174.338 -6.10626 176.26 -8.48101 179.354C-16.3907 189.643 -34.0258 212.907 -38.6786 221.705C-40.0504 224.301 -40.2963 225.634 -38.8278 225.012C-38.4184 224.839 -37.9721 224.659 -37.491 224.475C-28.6272 221.1 -8.33916 216.36 -7.69416 216.183C-7.01232 215.999 -5.94566 212.346 -5.94566 212.346L-4.89785 215.141C-4.89785 215.141 0.683448 213.853 6.33136 210.65C11.1379 207.925 13.9285 204.203 14.6558 203.153C14.783 202.967 14.8443 202.866 14.8443 202.866L12.6379 195.487L17.9596 197.052C20.0119 194.893 20.0249 190.861 22.4789 178.788C24.9348 166.711 32.6412 158.925 37.1935 150.014C41.7422 141.102 41.2746 130.688 46.694 122.281Z" fill="#2D4966"/>
<path opacity="0.46" d="M-8.48417 179.352C-16.3938 189.64 -34.0289 212.905 -38.6818 221.703C-38.2851 222.714 -37.8871 223.656 -37.4942 224.473C-28.6303 221.098 -8.34233 216.357 -7.69733 216.181C-7.01549 215.997 -5.94885 212.344 -5.94885 212.344L-4.90104 215.138C-4.90104 215.138 0.680276 213.85 6.32818 210.648C11.1347 207.923 13.9253 204.201 14.6526 203.151C12.2844 203.737 9.88344 204.673 8.57343 205.538C4.81986 208.025 -2.99693 206.947 3.65898 201.123C10.3133 195.293 8.75313 190.358 11.015 180.9C11.0135 180.895 0.42283 179.307 -8.48417 179.352Z" fill="#131719"/>
<path d="M11.0153 145.479C4.3734 149.499 2.11358 155.595 -4.03623 163.972C-10.6947 173.05 -23.7749 189.044 -28.0369 197.202C-32.3044 205.36 -32.0931 213.226 -37.3572 219.375C-42.6177 225.527 -66.482 240.33 -66.482 240.33L-64.0902 242.433C-64.0902 242.433 -47.4113 231.369 -40.0744 226.841C-32.736 222.319 -20.4603 216.19 -12.1954 211.046C-5.28909 206.754 -4.0953 204.376 -0.735169 200.847L-6.95841 193.52L2.59685 197.611C7.01971 193.158 7.43323 189.462 11.3903 183.361C12.7575 181.258 13.689 179.977 14.497 178.84L13.2422 174.837L12.4695 172.369L13.9673 174.192L15.9817 176.644C16.6302 175.601 17.3336 174.36 18.2627 172.498C16.609 169.467 13.1552 163.1 12.9945 162.51C12.8389 161.928 17.7365 166.156 20.2495 168.36C20.416 167.995 20.5944 167.609 20.7772 167.207C25.8241 156.201 24.6578 158.972 31.0803 151.051C37.5008 143.134 39.3258 127.258 47.6686 121.733C44.1962 123.032 35.7779 127.941 31.906 134.173C28.0285 140.407 20.7837 140.535 12.7547 144.522C12.1402 144.828 11.5653 145.146 11.0153 145.479Z" fill="#FFDB58"/>
<path opacity="0.29" d="M13.9674 174.192L15.9817 176.645C16.6303 175.601 17.3336 174.36 18.2627 172.498C16.4023 172.677 15.0914 173.284 13.9674 174.192Z" fill="#2D4966"/>
<path opacity="0.29" d="M-4.03619 163.972C-10.6947 173.05 -23.7749 189.044 -28.0369 197.202C-32.3044 205.36 -32.0931 213.226 -37.3571 219.375C-42.6176 225.527 -66.482 240.33 -66.482 240.33L-64.0902 242.433C-64.0902 242.433 -47.4113 231.369 -40.0744 226.841C-32.736 222.319 -20.4603 216.19 -12.1953 211.046C-5.28906 206.754 -4.09526 204.376 -0.735141 200.847L-6.95838 193.52L2.59687 197.611C7.01974 193.158 7.43326 189.462 11.3903 183.361C12.7575 181.258 13.689 179.977 14.497 178.84L13.2423 174.837C10.6224 177.393 8.67339 181.581 1.9575 185.307C-8.06954 190.872 -10.135 194.658 -14.8689 198.063C-19.6084 201.47 -17.0706 185.806 -9.14764 177.875C-1.2282 169.941 -1.04542 171.435 2.09272 162.364C4.87093 154.33 9.45248 149.326 11.0244 145.479C4.37701 149.501 2.1156 155.592 -4.03619 163.972Z" fill="#2D4966"/>
<path d="M-19.3644 158.413C-8.73259 143.198 -0.947935 121.44 -3.05511 108.639C-5.15873 95.8388 -18.405 80.3256 -18.3825 77.905C-18.3825 77.905 -25.1227 88.1979 -24.9913 99.9231C-24.8598 111.648 -16.6588 116.691 -12.0684 123.064C-7.47795 129.436 -11.438 140.812 -15.489 149.143C-19.542 157.478 -35.7905 182.13 -35.7905 182.13L-53.9182 208.747L-52.2534 209.879L-19.3644 158.413Z" fill="#1E1E1D"/>
<path d="M-17.7866 155.7C-8.57102 145.74 -0.863115 138.001 3.23058 131.59C7.32426 125.178 12.3508 112.639 28.8665 104.673C45.3821 96.7073 47.3055 96.6666 47.3055 96.6666C47.3055 96.6666 44.5334 113.451 32.9885 120.469C21.4435 127.487 15.4869 121.537 9.40934 127.68C3.33175 133.823 -2.65281 143.006 -8.84588 148.529C-15.0425 154.049 -20.5548 159.766 -20.5548 159.766L-17.7866 155.7Z" fill="#1E1E1D"/>
<path d="M-20.0471 158.223C-8.54637 149.279 -0.678766 144.086 8.90247 141.14C18.4837 138.193 30.9905 140.488 33.1725 151.987C33.1725 151.987 29.1559 150.334 23.5471 153.008C17.9382 155.681 9.11488 150.757 4.17678 148.473C-0.763312 146.192 -16.614 155.958 -21.8693 160.497L-20.0471 158.223Z" fill="#1E1E1D"/>
<path d="M-22.9492 163.279C-13.9417 155.613 0.545059 152.22 8.85345 158.691C8.85345 158.691 5.97242 161.33 -0.113648 162.326C-6.20327 163.32 -7.25429 156.923 -11.0507 158.126C-14.847 159.328 -24.4507 164.695 -24.4507 164.695L-22.9492 163.279Z" fill="#1E1E1D"/>
<path d="M85.9142 243.507C87.2128 238.704 88.4647 233.884 89.5976 229.035C89.8709 227.819 90.1676 226.612 90.4227 225.396L91.1936 221.745L91.8885 218.08C92.131 216.862 92.303 215.627 92.5146 214.405C93.2945 209.494 93.8658 204.555 94.1296 199.598C94.3605 194.641 94.2632 189.679 93.7533 184.761L94.1604 184.718C94.671 189.659 94.769 194.646 94.5393 199.617C94.2766 204.588 93.7045 209.546 92.9186 214.467C92.7086 215.695 92.531 216.931 92.2921 218.152L91.5932 221.824L90.8183 225.482C90.5648 226.704 90.2681 227.911 89.9893 229.128C88.8544 233.981 87.604 238.806 86.3034 243.613L85.9142 243.507Z" fill="#E6C543"/>
<path d="M94.1965 185.779C93.7573 184.819 93.3406 183.727 93.0008 182.631C92.8455 182.082 92.6388 181.541 92.4918 181.011C92.3392 180.482 92.2116 179.967 92.1155 179.479C91.8561 177.905 91.4413 176.3 91.6441 174.793C91.6894 174.444 91.764 174.094 91.9341 173.848C92.1043 173.602 92.3853 173.484 92.637 173.643C92.8959 173.807 93.0583 174.201 93.1836 174.57C93.4876 175.454 93.725 176.358 93.9165 177.268C94.0878 178.181 94.1562 179.111 94.2265 180.038C94.3964 181.889 94.2642 183.762 94.2116 185.61" fill="#E6C543"/>
<path d="M94.3816 185.691L94.347 185.611L94.4234 185.617L94.4661 184.337C94.4908 183.525 94.5271 182.7 94.5306 181.875C94.5012 181.051 94.4591 180.224 94.3881 179.39C94.3544 178.975 94.3116 178.558 94.2613 178.147L94.1787 177.527L94.0501 176.913C93.8706 176.098 93.6487 175.292 93.3769 174.501C93.2304 174.078 93.0546 173.657 92.7444 173.46C92.4199 173.256 92.0185 173.372 91.7721 173.729C91.606 173.968 91.5013 174.297 91.445 174.765C91.2365 176.316 91.6561 177.938 91.917 179.517C92.0855 180.452 92.4373 181.527 92.7878 182.629C93.1272 183.734 93.5497 184.857 94.0141 185.864L94.3816 185.691ZM92.5359 173.825C92.7398 173.953 92.8822 174.308 92.9965 174.638C93.2636 175.413 93.4772 176.2 93.6535 177.004L93.779 177.607L93.8585 178.216C93.9073 178.622 93.9485 179.032 93.9826 179.439C94.0489 180.256 94.0914 181.074 94.1232 181.885C94.1237 182.703 94.0863 183.513 94.0619 184.317L94.0405 184.898C93.661 183.99 93.3299 183.02 93.0521 182.081C92.7305 181.144 92.4768 180.236 92.3222 179.436C92.0672 177.887 91.655 176.302 91.855 174.817C91.9044 174.42 91.9863 174.148 92.1075 173.973C92.1624 173.892 92.2481 173.813 92.344 173.792C92.4014 173.773 92.4703 173.784 92.5359 173.825Z" fill="#E6C543"/>
<path d="M94.5089 191.418C94.7441 190.671 95.0076 189.866 95.3938 189.092C95.7688 188.321 96.219 187.582 96.7083 186.983C96.9038 186.742 97.1103 186.498 97.3184 186.259C97.5265 186.02 97.7326 185.785 97.9601 185.562C98.413 185.12 98.924 184.724 99.5377 184.436C99.8211 184.305 100.131 184.194 100.452 184.205C100.772 184.216 101.103 184.368 101.213 184.63C101.332 184.902 101.201 185.203 101.059 185.465C100.364 186.725 99.3302 187.781 98.2207 188.73C97.6603 189.206 97.0704 189.651 96.4738 190.083C95.8772 190.516 95.2668 190.931 94.6417 191.347" fill="#E6C543"/>
<path d="M95.6112 190.951C97.7356 189.481 99.9365 187.858 101.236 185.592C101.346 185.387 101.578 184.956 101.4 184.539C101.26 184.213 100.889 183.992 100.455 183.983C100.153 183.972 99.8348 184.056 99.4563 184.232C98.82 184.535 98.2884 184.943 97.826 185.394C97.3651 185.851 96.9643 186.351 96.5567 186.837C96.0809 187.421 95.6216 188.159 95.2386 188.944C95.0471 189.337 94.8714 189.743 94.7194 190.149C94.571 190.556 94.4429 190.961 94.3186 191.358L94.7075 191.473L94.7099 191.46L94.7489 191.524C95.0313 191.336 95.3213 191.144 95.6112 190.951ZM100.451 184.433C100.713 184.44 100.963 184.57 101.028 184.728C101.103 184.896 100.993 185.133 100.879 185.345C100.591 185.894 100.214 186.402 99.7954 186.883C99.3808 187.366 98.9239 187.815 98.4461 188.244C97.4868 189.099 96.4241 189.864 95.3833 190.59L94.8744 190.94C95.3086 189.563 96.0469 188.117 96.8572 187.127C97.6433 186.189 98.4223 185.205 99.6179 184.645C99.8827 184.522 100.103 184.454 100.305 184.436C100.356 184.436 100.403 184.435 100.451 184.433Z" fill="#E6C543"/>
<path d="M94.0911 194.378C93.5492 192.6 92.5333 190.617 91.2843 189.409C90.3096 188.43 89.2421 187.483 87.8559 187.114C87.535 187.028 87.1907 186.976 86.8592 187.043C86.5276 187.109 86.2131 187.321 86.1454 187.601C86.0773 187.89 86.2725 188.167 86.4694 188.408C86.9481 188.988 87.489 189.524 88.0787 190.031C88.6684 190.539 89.3028 191.024 89.9306 191.497C91.2044 192.442 92.5919 193.335 93.9452 194.297" fill="#E6C543"/>
<path d="M93.8844 194.398L93.8954 194.437L94.286 194.315C93.9992 193.374 93.5862 192.401 93.1032 191.519C92.9839 191.298 92.857 191.083 92.7297 190.876C92.5933 190.669 92.4529 190.469 92.3065 190.28C92.0194 189.9 91.7269 189.554 91.434 189.26C90.447 188.269 89.3621 187.303 87.9216 186.922C87.6495 186.849 87.2336 186.766 86.8228 186.85C86.4636 186.924 86.0468 187.177 85.9543 187.559C85.8646 187.92 86.0866 188.25 86.3167 188.523C87.1666 189.559 88.2615 190.465 89.3788 191.323C90.494 192.185 91.7069 192.989 92.8971 193.809L93.8375 194.465L93.8844 194.398ZM87.7963 187.305C89.1481 187.669 90.1891 188.596 91.1394 189.553C92.1909 190.57 93.127 192.228 93.7112 193.881L93.1189 193.471C91.9445 192.665 90.7475 191.874 89.648 191.026C88.5208 190.185 87.467 189.297 86.6305 188.288C86.4525 188.071 86.2932 187.847 86.3428 187.641C86.3896 187.457 86.6146 187.289 86.8926 187.234C86.9497 187.224 87.0067 187.214 87.0653 187.209C87.2776 187.197 87.5134 187.226 87.7963 187.305Z" fill="#E6C543"/>
<path d="M94.54 199.823C94.8484 198.954 95.2801 198.023 95.8063 197.14C96.3234 196.257 96.9659 195.426 97.5643 194.756C98.5554 193.685 99.6511 192.561 101.163 191.995C101.512 191.864 101.894 191.764 102.268 191.805C102.646 191.848 103.017 192.061 103.121 192.385C103.228 192.72 103.038 193.067 102.84 193.363C102.364 194.082 101.814 194.732 101.207 195.331C100.579 195.928 99.8974 196.472 99.1822 196.982C97.7538 198 96.2093 198.883 94.6911 199.753" fill="#E6C543"/>
<path d="M95.855 199.334C97.1861 198.565 98.5395 197.748 99.7912 196.804C100.415 196.331 101.017 195.832 101.566 195.284C102.097 194.736 102.586 194.145 103.011 193.5C103.162 193.272 103.476 192.794 103.317 192.303C103.192 191.916 102.788 191.629 102.294 191.577C101.941 191.539 101.564 191.603 101.1 191.783C99.5305 192.376 98.4248 193.519 97.4202 194.605C96.8373 195.256 96.2023 196.082 95.6702 196.975C95.1289 197.868 94.6758 198.829 94.3542 199.747L94.7342 199.894L94.753 199.844L94.7998 199.935L95.855 199.334ZM102.249 192.033C102.577 192.072 102.865 192.251 102.933 192.462C103.007 192.69 102.856 192.96 102.685 193.224C101.061 195.735 98.2716 197.426 95.6588 198.958L94.9332 199.379C95.5707 197.746 96.6565 196.046 97.7143 194.915C98.6788 193.866 99.748 192.764 101.23 192.21C101.56 192.087 101.833 192.025 102.076 192.025C102.133 192.024 102.193 192.025 102.249 192.033Z" fill="#E6C543"/>
<path d="M93.803 202.736C93.5759 201.689 93.2115 200.57 92.7488 199.526C92.2497 198.481 91.6557 197.514 91.0208 196.762C90.5105 196.155 89.9781 195.553 89.3671 195.034C88.7394 194.52 88.0513 194.089 87.2611 193.815C86.8964 193.69 86.5012 193.595 86.1138 193.645C85.7265 193.695 85.3554 193.907 85.2623 194.224C85.1652 194.548 85.3887 194.883 85.5887 195.177C86.5686 196.599 87.8593 197.848 89.2817 199.054C90.6767 200.259 92.1743 201.414 93.6453 202.633" fill="#E6C543"/>
<path d="M93.5913 202.715L93.6081 202.785L94.0047 202.694C93.7638 201.588 93.3865 200.434 92.9024 199.379C92.3911 198.322 91.7931 197.362 91.1827 196.633C90.6618 196.02 90.1353 195.408 89.499 194.884C88.8591 194.358 88.1532 193.917 87.3341 193.636C86.8492 193.468 86.4538 193.415 86.0922 193.46C85.6756 193.512 85.1971 193.758 85.0756 194.176C84.9569 194.572 85.2037 194.957 85.4272 195.293C86.3046 196.563 87.4362 197.705 88.6759 198.795C89.9156 199.885 91.2054 200.919 92.5054 201.968L93.5269 202.805L93.5913 202.715ZM87.2004 194C87.9745 194.27 88.6539 194.692 89.2562 195.201C89.8459 195.708 90.3696 196.3 90.8696 196.892C91.4146 197.538 91.9436 198.371 92.4102 199.29C92.8566 200.212 93.2133 201.22 93.4739 202.215L92.7581 201.633C92.1213 201.118 91.481 200.601 90.8407 200.085L89.9006 199.302C89.5806 199.039 89.2698 198.777 88.9629 198.507C87.737 197.434 86.6244 196.317 85.7695 195.073C85.5759 194.801 85.3989 194.525 85.4704 194.28C85.5351 194.064 85.8135 193.883 86.1514 193.839C86.2175 193.829 86.2852 193.825 86.358 193.828C86.5987 193.832 86.8718 193.887 87.2004 194Z" fill="#E6C543"/>
<path d="M93.9333 208.207C94.6988 206.37 96.155 204.317 97.5697 202.964C98.7326 201.886 100.012 200.767 101.692 200.277C102.082 200.163 102.498 200.088 102.905 200.161C103.311 200.238 103.695 200.495 103.777 200.849C103.866 201.216 103.628 201.574 103.39 201.875C101.121 204.814 97.5023 206.476 94.1041 208.143" fill="#E6C543"/>
<path d="M95.3797 207.759C96.879 207.024 98.4057 206.248 99.826 205.328C101.257 204.414 102.506 203.333 103.546 202.023C103.727 201.793 104.103 201.312 103.977 200.784C103.87 200.308 103.376 200.014 102.94 199.933C102.564 199.863 102.153 199.904 101.648 200.056C99.911 200.565 98.6157 201.704 97.4393 202.798C96.0667 204.109 94.5641 206.178 93.7464 208.116L94.1161 208.29L94.1428 208.226L94.1908 208.332C94.588 208.148 94.9821 207.953 95.3797 207.759ZM102.865 200.386C103.219 200.453 103.525 200.676 103.581 200.917C103.644 201.172 103.455 201.459 103.242 201.732C102.234 203.008 100.994 204.066 99.6017 204.969C98.2005 205.871 96.6904 206.643 95.2097 207.37L94.3435 207.792C95.1591 206.058 96.491 204.285 97.7032 203.128C98.8396 202.072 100.091 200.97 101.741 200.491C102.109 200.384 102.409 200.341 102.678 200.361C102.743 200.369 102.805 200.376 102.865 200.386Z" fill="#E6C543"/>
<path d="M92.9714 211.064C92.8077 209.987 92.5365 208.827 92.1072 207.732C91.6778 206.638 91.1506 205.61 90.5676 204.798C89.6484 203.486 88.5205 202.187 86.9752 201.51C86.6157 201.351 86.2217 201.229 85.8286 201.247C85.4334 201.269 85.0413 201.461 84.9189 201.78C84.7961 202.108 84.982 202.469 85.1771 202.788C86.9767 205.859 90.0395 208.29 92.8233 210.954" fill="#E6C543"/>
<path d="M92.7565 211.023L92.7694 211.101L93.1722 211.032C92.9968 209.892 92.7162 208.699 92.2655 207.592C91.8259 206.482 91.2963 205.467 90.7287 204.678C90.4885 204.348 90.2448 204.015 89.9895 203.695C89.7251 203.374 89.4386 203.06 89.1381 202.771C88.5356 202.186 87.8564 201.68 87.0533 201.329C86.574 201.117 86.182 201.034 85.8125 201.051C85.3881 201.076 84.8855 201.29 84.7236 201.713C84.5721 202.109 84.7772 202.527 84.9979 202.884C86.5918 205.629 89.2515 207.896 91.7002 210.19C92.0291 210.495 92.3525 210.802 92.6815 211.108L92.7565 211.023ZM86.8908 201.687C88.4092 202.354 89.496 203.634 90.3983 204.918C91.4012 206.315 92.3162 208.47 92.672 210.523L91.9758 209.872C91.3669 209.308 90.7544 208.741 90.1404 208.169C89.5299 207.599 88.9143 207.021 88.3375 206.433C87.1692 205.256 86.1587 204.024 85.3484 202.683C85.1703 202.392 85.0183 202.088 85.108 201.844C85.1894 201.623 85.4927 201.456 85.8384 201.439C85.9061 201.435 85.9754 201.437 86.0462 201.443C86.2952 201.466 86.5689 201.544 86.8908 201.687Z" fill="#E6C543"/>
<path d="M92.7689 216.504C93.4501 215.11 94.6665 213.586 95.8493 212.631C96.8063 211.863 97.8532 211.085 99.1794 210.818C99.4852 210.755 99.8151 210.725 100.123 210.809C100.431 210.892 100.715 211.111 100.763 211.385C100.813 211.671 100.612 211.922 100.412 212.138C98.5074 214.225 95.6159 215.312 92.9056 216.468" fill="#E6C543"/>
<path d="M93.9267 216.263C96.3183 215.252 98.8427 214.169 100.557 212.289C100.713 212.119 101.041 211.765 100.967 211.331C100.906 210.989 100.596 210.699 100.178 210.587C99.886 210.508 99.561 210.513 99.1482 210.599C97.7666 210.882 96.7006 211.678 95.7286 212.456C94.5886 213.393 93.3151 214.927 92.5918 216.404L92.9551 216.598L92.961 216.588L92.987 216.658L93.9267 216.263ZM100.067 211.02C100.323 211.088 100.53 211.26 100.562 211.428C100.594 211.604 100.432 211.803 100.274 211.976C98.6157 213.79 96.1444 214.87 93.7809 215.864L93.2134 216.103C93.9251 214.838 94.9954 213.592 95.9699 212.801C96.9003 212.056 97.9211 211.291 99.2104 211.031C99.494 210.975 99.7265 210.96 99.9295 210.99C99.9766 210.997 100.022 211.008 100.067 211.02Z" fill="#E6C543"/>
<path d="M91.7101 219.325C91.5584 217.475 90.8687 215.301 89.9582 213.839C89.5913 213.251 89.2025 212.66 88.7435 212.128C88.2735 211.599 87.7403 211.133 87.0975 210.787C86.8038 210.628 86.4759 210.496 86.1367 210.493C85.7974 210.49 85.4514 210.633 85.3311 210.907C85.2032 211.185 85.3468 211.513 85.483 211.804C86.8215 214.588 89.3309 216.832 91.5853 219.223" fill="#E6C543"/>
<path d="M91.5051 219.309L91.5105 219.349L91.916 219.3C91.7547 217.342 91.0153 215.14 90.1355 213.723C89.4059 212.531 88.5331 211.319 87.1973 210.61C86.7984 210.396 86.4618 210.296 86.1427 210.291C85.6922 210.286 85.2938 210.498 85.1492 210.823C84.9906 211.174 85.1499 211.557 85.3042 211.891C86.4954 214.387 88.6616 216.477 90.6516 218.547L91.4455 219.373L91.5051 219.309ZM87.0055 210.969C87.6305 211.305 88.155 211.762 88.6073 212.281C89.0505 212.799 89.4325 213.377 89.7892 213.95C90.55 215.179 91.2184 217.023 91.4408 218.764L90.941 218.246C90.4464 217.736 89.9501 217.22 89.4539 216.705C88.9541 216.187 88.4638 215.661 88.0033 215.123C87.0767 214.049 86.2598 212.93 85.6756 211.711C85.5453 211.451 85.4372 211.185 85.5248 210.987C85.6061 210.808 85.8598 210.688 86.1424 210.692C86.1991 210.691 86.2553 210.699 86.315 210.709C86.5196 210.744 86.7438 210.828 87.0055 210.969Z" fill="#E6C543"/>
<path d="M91.2202 223.918C91.8488 222.793 92.8851 221.575 93.8954 220.837C94.7165 220.245 95.618 219.652 96.7202 219.493C96.9737 219.457 97.2461 219.446 97.4996 219.527C97.7532 219.608 97.9779 219.799 98.0058 220.025C98.0353 220.256 97.8582 220.456 97.6863 220.621C96.8499 221.424 95.8403 222.027 94.751 222.539C93.651 223.045 92.4804 223.459 91.3327 223.892" fill="#E6C543"/>
<path d="M92.2008 223.794C93.2145 223.417 94.2454 223.027 95.2107 222.553C96.1689 222.075 97.0655 221.507 97.8197 220.785C97.961 220.649 98.2552 220.365 98.2067 219.992C98.1691 219.701 97.9149 219.437 97.5624 219.324C97.3215 219.245 97.0464 219.236 96.6975 219.284C95.5382 219.453 94.58 220.09 93.7815 220.666C93.2812 221.026 92.7676 221.519 92.2934 222.066C91.8101 222.613 91.3733 223.219 91.0407 223.822L91.3747 224.018L91.4003 224.098L92.2008 223.794ZM97.4358 219.734C97.63 219.796 97.7896 219.937 97.8039 220.061C97.8182 220.186 97.6856 220.331 97.5518 220.462C96.1006 221.855 94.0654 222.655 92.0697 223.393L91.6872 223.534C92.0037 223.044 92.3819 222.559 92.7869 222.127C93.1828 221.695 93.6004 221.307 94.0082 221.012C94.8047 220.439 95.6745 219.861 96.7419 219.706C96.9751 219.673 97.1632 219.67 97.3258 219.705C97.3618 219.716 97.3998 219.723 97.4358 219.734Z" fill="#E6C543"/>
<path d="M90.4068 226.793C90.3134 225.181 89.7996 223.268 89.0735 221.961C88.4964 220.905 87.7887 219.832 86.7149 219.18C86.4647 219.027 86.1895 218.901 85.8966 218.882C85.6036 218.863 85.2953 218.98 85.1787 219.213C85.0561 219.458 85.1594 219.749 85.2715 220.008C86.3253 222.516 88.399 224.554 90.2997 226.7" fill="#E6C543"/>
<path d="M90.2008 226.794L90.2019 226.809L90.6086 226.775C90.5088 225.066 89.9543 223.126 89.2503 221.854C88.6594 220.781 87.9419 219.684 86.8202 219.001C86.4831 218.794 86.1904 218.691 85.9101 218.674C85.508 218.65 85.1421 218.829 84.9956 219.116C84.8388 219.43 84.9502 219.782 85.082 220.089C86.0272 222.34 87.7901 224.232 89.481 226.102L90.1401 226.844L90.2008 226.794ZM86.6157 219.359C87.6611 219.994 88.3352 221.044 88.8974 222.068C89.4989 223.147 89.9752 224.725 90.1545 226.217L89.7917 225.814C88.1122 223.973 86.39 222.109 85.4617 219.927C85.3645 219.7 85.284 219.469 85.3644 219.308C85.4349 219.165 85.658 219.075 85.8892 219.088C85.9383 219.092 85.9854 219.099 86.036 219.109C86.2097 219.141 86.3976 219.223 86.6157 219.359Z" fill="#E6C543"/>
<path d="M34.6488 274.102C35.5878 279.764 43.6441 290.545 53.5594 296.873C59.0468 300.38 65.1045 302.525 70.8366 301.686C80.466 309.344 89.5378 312.011 96.9895 312.105C105.958 312.225 112.567 308.607 114.948 305.451C119.302 299.684 91.7712 293.024 94.654 288.845C97.5444 284.661 118.723 300.519 121.74 297.036C124.762 293.561 126.083 283.231 126.518 275.988C126.942 268.749 98.882 271.988 99.2597 266.067C99.6373 260.146 123.586 268.778 123.619 261.754C123.643 254.729 120.01 247.645 117.031 241.758C114.051 235.87 98.5528 245.432 97.5017 242.117C96.4581 238.797 101.637 235.948 109.201 234.13C116.763 232.306 111.354 226.713 107.052 220.777C102.746 214.839 101.129 210.021 101.129 210.021C98.335 213.9 86.6182 216.189 84.2273 217.5C81.8325 218.818 92.1442 224.822 90.721 227.426C89.2926 230.022 85.8613 228.025 82.9596 224.161C80.0647 220.31 72.9809 223.943 68.3267 227.281C63.6725 230.619 77.1437 241.896 73.6842 244.576C70.2246 247.255 64.8964 233.316 61.5411 233.345C58.1818 233.382 49.3982 242.878 47.4235 249.675C45.4507 256.469 65.1793 271.572 60.173 273.803C55.1739 276.037 46.1206 255.321 43.8572 257.348C41.6026 259.385 33.1831 265.306 34.6488 274.102ZM71.2445 258.945C71.3621 261.85 69.0262 263.472 65.9891 261.671C65.2697 261.246 64.8338 260.689 64.6268 260.074C63.5663 257.001 68.0335 252.419 69.6404 254.723C70.7068 256.249 71.1941 257.707 71.2445 258.945ZM84.2581 294.652C85.1308 293.459 86.3968 292.597 87.6247 292.957C89.2688 293.433 89.9116 295.039 89.3656 296.508C88.9276 297.734 87.6616 298.871 85.4876 299.202C82.4756 299.661 82.785 296.677 84.2581 294.652ZM69.6404 269.924C67.1669 268.877 70.5033 265.942 71.9997 266.849C74.0929 268.108 72.1178 270.963 69.6404 269.924Z" fill="#FFDB58"/>
<path opacity="0.29" d="M47.1742 286.06C49.3017 288.67 51.1319 293.013 53.5593 296.874C59.0467 300.381 65.1044 302.525 70.8365 301.686C80.4659 309.344 89.5377 312.011 96.9894 312.105C98.2827 307.22 96.2512 299.177 89.3731 296.503C88.935 297.73 87.669 298.866 85.495 299.197C82.4755 299.661 82.7885 296.679 84.26 294.649C77.9592 291.093 80.2638 283.831 84.175 279.984C88.6945 275.534 90.2691 283.592 96.7298 278.794C103.189 273.99 96.8582 269.619 91.4248 268.496C85.9946 267.384 85.5973 260.82 89.7105 256.946C93.8309 253.076 99.5589 256.353 98.2737 252.062C96.9865 247.774 94.4854 248.431 92.375 246.2C90.2591 243.971 97.0975 234.672 94.0338 233.328C90.9741 231.976 86.5456 231.378 86.3958 236.632C86.2592 241.72 86.0618 247.018 86.0431 247.344C83.4574 242.013 81.7527 248.653 81.132 253.989C80.4998 259.338 77.4173 262.821 72.1718 259.45C71.8651 259.255 71.5556 259.082 71.2448 258.936C71.3624 261.841 69.0265 263.463 65.9894 261.662C65.27 261.237 64.8341 260.68 64.6271 260.065C63.212 261.585 62.6469 263.941 63.6924 266.431C66.0108 271.939 71.2269 274.603 69.5084 278.938C67.7862 283.271 66.5914 286.619 63.4618 285.477C60.3393 284.338 55.7533 276.329 50.8353 275.821C45.9129 275.329 42.7645 280.634 47.1742 286.06ZM69.6403 269.924C67.1668 268.877 70.5032 265.942 71.9996 266.849C74.0928 268.108 72.1177 270.964 69.6403 269.924Z" fill="#2D4966"/>
<path d="M7.57207 239.335C6.75109 240.595 6.13984 241.897 5.85416 243.143C4.61705 248.471 4.61531 253.443 4.61531 253.443C4.61531 253.443 7.12632 248.585 13.6708 246.869C20.2134 245.156 25.6275 241.879 25.6275 241.879C25.6275 241.879 25.7128 241.968 25.8517 242.121L25.8553 242.123C26.617 242.974 29.0051 245.869 28.2121 248.022C27.2752 250.566 29.2992 245.585 29.2992 245.585C29.0541 241.413 27.3982 237.601 25.2474 234.941C23.2261 232.443 20.7601 230.957 18.6151 231.135C15.2207 231.418 10.2636 235.189 7.57207 239.335Z" fill="#2D4966"/>
<path d="M36.3802 233.838C36.0253 234.49 35.8008 235.084 35.786 235.561C36.4544 235.075 37.1378 234.622 37.8159 234.202C44.1904 230.243 50.6276 228.952 52.9705 228.404C58.7712 227.066 63.3034 222.735 66.9469 217.93C67.4424 217.278 67.922 216.612 68.389 215.944C70.9534 212.259 73.2579 208.355 74.715 204.112C76.1368 199.999 76.7259 195.663 77.3173 191.356C74.2157 193.713 70.8869 195.774 67.388 197.489C65.2803 198.519 63.1047 199.437 61.1316 200.711C59.828 201.556 58.64 202.545 57.557 203.63C53.9825 207.217 51.5087 211.942 49.4198 216.63C48.5116 218.672 47.6222 220.781 46.1291 222.449C44.5228 224.236 42.8205 226.679 41.012 228.26C39.8525 229.265 37.4792 231.814 36.3802 233.838Z" fill="#2D4966"/>
<path opacity="0.23" d="M72.9418 206.875C66.2704 214.297 58.5965 208.629 49.1182 218.507" stroke="#4E7554" stroke-miterlimit="10"/>
<path opacity="0.23" d="M51.726 211.947C56.6876 205.787 58.5049 206.186 65.5611 204.85C72.6137 203.511 75.1942 200.424 75.8386 198.762" stroke="#4E7554" stroke-miterlimit="10"/>
<path opacity="0.23" d="M69.1797 213.528C62.3282 220.503 52.6303 216.734 44.0221 225.675" stroke="#4E7554" stroke-miterlimit="10"/>
<path opacity="0.46" d="M36.3803 233.839C36.8228 234.016 37.3209 234.136 37.816 234.202C44.1904 230.243 50.6277 228.953 52.9705 228.404C58.7713 227.066 63.3035 222.735 66.947 217.931C60.4041 221.231 53.6466 215.869 57.5571 203.63C53.9826 207.217 51.5088 211.942 49.4199 216.63C48.5116 218.672 47.6222 220.781 46.1291 222.449C44.5228 224.236 42.8205 226.68 41.0121 228.261C39.8525 229.265 37.4793 231.815 36.3803 233.839Z" fill="#131719"/>
<path d="M60.7496 224.455C51.1494 233.064 42.9184 233.604 38.0132 238.978C33.108 244.352 14.0043 272.306 14.0043 272.306L12.5873 271.341C12.5873 271.341 35.3005 234.617 37.6353 232.112C38.3937 231.298 40.0528 230.027 41.9508 228.678C47.3923 224.809 54.1698 223.302 60.7496 224.455Z" fill="#FFDB58"/>
<path d="M29.2328 186.019L29.1407 186.276L24.8221 198.343C24.8221 198.343 23.6977 210.51 23.9535 216.859C24.206 223.123 30.0884 235.929 30.2391 236.261C30.2568 236.154 30.5387 234.281 32.2231 229.263C33.7722 224.647 33.1668 225.98 33.6062 221.528C33.6643 220.981 33.7337 220.348 33.8228 219.604C34.6676 212.814 36.6944 211.01 36.0242 200.006C35.361 189.006 33.3804 190.444 34.0107 182.61L32.0363 183.953L29.2328 186.019Z" fill="#2D4966"/>
<path opacity="0.23" d="M27.8452 192.911C33.1792 200.134 28.1495 217.557 25.6048 221.29" stroke="#4E7554" stroke-miterlimit="10"/>
<path opacity="0.23" d="M29.1465 188.838C37.2979 196.099 30.3133 224.67 27.7426 227.188" stroke="#4E7554" stroke-miterlimit="10"/>
<path opacity="0.46" d="M29.1411 186.276L24.8225 198.343C24.8225 198.343 23.6981 210.51 23.9539 216.86C24.2064 223.123 30.0888 235.93 30.2396 236.261C30.2573 236.155 30.5391 234.281 32.2235 229.263C33.7726 224.647 33.1672 225.98 33.6066 221.528C31.9076 223.782 30.6015 221.165 29.6672 216.981C28.3941 211.282 26.4444 210.117 28.897 205.338C31.3476 200.562 30.5881 198.596 29.6303 194.563C28.7889 191.015 29.7981 187.498 29.1411 186.276Z" fill="#131719"/>
<path d="M31.1315 242.892C33.1554 235.346 25.5338 227.046 26.4534 215.637C27.3765 204.231 26.6621 194.617 29.1428 188.836C31.627 183.056 34.0091 182.604 34.0091 182.604C34.0091 182.604 17.3213 191.571 17.6876 207.178C18.0559 222.781 24.9187 226.417 27.7229 231.44C30.5272 236.464 29.2955 245.583 29.2955 245.583L31.1315 242.892Z" fill="#FFDB58"/>
<path d="M44.4159 237.958C50.9236 244.183 61.8663 254.421 74.3092 246.373C78.011 243.978 80.553 241.687 82.3223 239.491C86.5049 234.315 86.4546 229.678 87.5211 225.515C88.5943 221.324 88.8134 219.387 91.5713 218.94C91.0155 218.923 82.0298 218.775 76.6613 220.709C73.2227 221.948 66.0723 226.627 61.1338 229.998C58.1039 232.068 55.9122 233.649 55.9122 233.649L44.4159 237.958Z" fill="#2D4966"/>
<path opacity="0.23" d="M69.9235 229.061C67.3157 243.121 53.7951 244.836 48.8581 237.672" stroke="#4E7554" stroke-miterlimit="10"/>
<path opacity="0.23" d="M73.6959 225.613C78.8288 238.766 63.9544 256.191 45.9548 237.753" stroke="#4E7554" stroke-miterlimit="10"/>
<path opacity="0.46" d="M44.4159 237.958C50.9237 244.183 61.8664 254.42 74.3092 246.373C78.0111 243.978 80.5531 241.686 82.3224 239.491C77.2714 240.557 70.0893 247.264 70.3018 242.231C70.5441 236.436 59.3102 236.842 67.1545 228.166C67.1545 228.166 64.545 228.958 61.1303 229.996C58.1004 232.066 55.9087 233.647 55.9087 233.647L44.4159 237.958Z" fill="#131719"/>
<path d="M32.0376 243.861C38.9889 237.45 41.7577 238.937 47.3061 236.347C52.851 233.754 55.8278 232.598 61.5365 227.724C67.2432 222.855 76.6615 220.709 76.6615 220.709C76.6615 220.709 69.1248 235.049 62.5363 237.362C54.4344 240.201 50.0603 234.636 37.4076 240.946C33.1209 243.084 29.0887 247.022 29.0887 247.022L32.0376 243.861Z" fill="#FFDB58"/>
<path d="M43.3641 214.641C51.0357 210.608 52.2256 200.971 48.9576 199.191C45.6911 197.416 39.8225 209.541 43.3641 214.641Z" fill="#E6C543"/>
<path d="M43.0888 214.949C43.7945 211.524 42.3632 210.116 40.9171 210.648C39.4691 211.183 42.5815 216.015 42.5815 216.015C42.5815 216.015 45.4161 216.316 46.4287 214.187C47.4468 212.057 44.5649 211.95 43.0888 214.949Z" fill="#2D4966"/>
<path d="M51.4676 225.948C60.0852 225.017 64.731 216.491 62.3484 213.636C59.9638 210.785 50.0482 219.9 51.4676 225.948Z" fill="#E6C543"/>
<path d="M51.0972 226.133C53.0135 223.207 52.2006 221.37 50.6602 221.336C49.1164 221.299 50.2371 226.937 50.2371 226.937C50.2371 226.937 52.7617 228.259 54.4875 226.651C56.2132 225.043 53.5734 223.884 51.0972 226.133Z" fill="#2D4966"/>
<path d="M42.5815 216.015C41.8937 229.832 27.5704 250.138 27.5704 250.138C27.5704 250.138 38.823 234.639 51.1029 226.131" stroke="#3A3F25" stroke-miterlimit="10"/>
<path d="M-94.084 214.637C-94.8197 220.33 -90.2199 232.975 -82.5505 241.9C-78.3101 246.844 -73.1318 250.645 -67.3992 251.492C-60.3922 261.602 -52.4781 266.774 -45.3684 269.017C-36.8165 271.72 -29.4454 270.163 -26.2556 267.832C-20.4199 263.567 -44.8578 249.245 -40.8902 246.074C-36.9135 242.903 -21.2174 264.199 -17.3226 261.735C-13.4246 259.282 -9.17673 249.772 -6.67228 242.962C-4.17891 236.156 -31.9781 231.153 -29.9074 225.595C-27.8367 220.037 -7.39815 235.215 -5.34329 228.5C-3.29199 221.782 -4.72746 213.951 -5.87599 207.453C-7.02809 200.952 -24.6274 205.636 -24.6765 202.158C-24.7165 198.68 -18.937 197.446 -11.1711 197.889C-3.40477 198.322 -6.96833 191.408 -9.37623 184.481C-11.7841 177.554 -11.9417 172.474 -11.9417 172.474C-15.7363 175.377 -27.6155 174.19 -30.2823 174.758C-32.9581 175.326 -24.8178 184.052 -26.9304 186.136C-29.0462 188.208 -31.7549 185.301 -33.4196 180.77C-35.0791 176.246 -42.9099 177.682 -48.3292 179.532C-53.745 181.385 -44.1082 196.071 -48.1934 197.639C-52.2786 199.208 -53.3571 184.324 -56.5763 183.383C-59.7996 182.45 -70.9564 189.008 -74.8038 194.945C-78.6547 200.881 -64.1265 221.033 -69.5617 221.726C-74.9933 222.42 -77.6822 199.977 -80.4313 201.26C-83.1752 202.552 -92.9489 205.792 -94.084 214.637ZM-54.6704 210.685C-55.3954 213.502 -58.1038 214.379 -60.4891 211.78C-61.0555 211.164 -61.3099 210.508 -61.331 209.861C-61.4584 206.614 -55.859 203.515 -54.9878 206.183C-54.4071 207.951 -54.3615 209.49 -54.6704 210.685ZM-52.5156 248.634C-51.3357 247.743 -49.8748 247.285 -48.7995 247.984C-47.3646 248.917 -47.2105 250.638 -48.1569 251.888C-48.9334 252.934 -50.4687 253.659 -52.6441 253.349C-55.6715 252.917 -54.5107 250.147 -52.5156 248.634ZM-59.3758 220.738C-61.4424 219.022 -57.4028 217.176 -56.2273 218.473C-54.5866 220.282 -57.3016 222.449 -59.3758 220.738Z" fill="#494D4E"/>
<path d="M157.23 153.989L157.057 156.67L156.789 165.618C156.789 165.618 151.964 181.582 151.529 182.259C151.098 182.938 143.57 225.793 143.57 225.793C143.57 225.793 142.841 228.117 141.647 231.83C137.682 244.184 128.566 271.922 123.976 280.75C122.622 283.355 121.662 284.313 121.34 282.751C121.25 282.318 121.141 281.845 121.023 281.346C118.761 272.137 111.126 252.751 110.905 252.119C110.668 251.449 113.069 248.5 113.069 248.5L110.178 249.228C110.178 249.228 108.064 243.904 107.485 237.439C106.993 231.938 108.471 227.525 108.92 226.328C109.001 226.117 109.048 226.007 109.048 226.007L116.37 223.628L112.059 220.139C112.669 217.226 115.98 214.92 124.515 206.037C133.055 197.152 135.078 186.384 139.817 177.574C144.556 168.763 153.394 163.23 157.23 153.989Z" fill="#2D4966"/>
<path opacity="0.46" d="M141.651 231.832C137.686 244.186 128.57 271.924 123.98 280.752C122.921 281.001 121.922 281.208 121.027 281.347C118.765 272.139 111.13 252.753 110.909 252.121C110.672 251.451 113.073 248.502 113.073 248.502L110.182 249.23C110.182 249.23 108.068 243.906 107.489 237.441C106.997 231.94 108.475 227.526 108.924 226.33C109.788 228.611 110.383 231.12 110.417 232.689C110.504 237.193 115.836 243.009 116.844 234.223C117.854 225.434 122.804 223.914 129.299 216.674C129.297 216.668 136.621 224.476 141.651 231.832Z" fill="#131719"/>
<path d="M158.428 196.53C158.897 204.278 155.167 209.604 151.772 219.427C148.088 230.066 142.368 249.918 138.081 258.062C133.796 266.211 127.205 270.507 125.139 278.337C123.068 286.159 124.461 314.211 124.461 314.211L121.37 313.44C121.37 313.44 120.991 293.432 120.542 284.822C120.087 276.213 118.152 262.629 117.685 252.906C117.29 244.784 118.566 242.453 119.558 237.679L129.125 238.633L120.33 233.1C121.478 226.928 124.285 224.49 127.055 217.764C128.007 215.443 128.531 213.947 129.008 212.635L133.014 211.391L135.484 210.624L133.133 210.426L129.968 210.165C130.455 209.036 131.078 207.754 132.082 205.934C135.516 205.571 142.716 204.795 143.293 204.59C143.859 204.388 137.601 202.762 134.357 201.948C134.561 201.599 134.777 201.239 135.004 200.857C141.19 190.446 139.574 192.984 142.437 183.195C145.302 173.411 157.323 162.885 157.126 152.88C158.035 156.475 158.781 166.19 155.855 172.918C152.931 179.652 156.944 185.687 158.229 194.555C158.326 195.235 158.39 195.888 158.428 196.53Z" fill="#FFDB58"/>
<path opacity="0.29" d="M133.131 210.43L129.966 210.168C130.453 209.039 131.076 207.758 132.08 205.938C132.992 207.564 133.236 208.989 133.131 210.43Z" fill="#2D4966"/>
<path opacity="0.29" d="M151.771 219.427C148.088 230.066 142.368 249.919 138.081 258.062C133.795 266.211 127.205 270.507 125.138 278.337C123.067 286.159 124.46 314.211 124.46 314.211L121.37 313.441C121.37 313.441 120.99 293.432 120.541 284.822C120.087 276.213 118.151 262.629 117.684 252.907C117.29 244.784 118.565 242.453 119.558 237.679L129.125 238.634L120.33 233.1C121.478 226.928 124.284 224.49 127.055 217.764C128.007 215.443 128.53 213.947 129.007 212.635L133.013 211.391C132.401 215 130.066 218.985 130.817 226.629C131.939 238.045 129.996 241.895 129.889 247.724C129.782 253.562 141.22 242.566 143.245 231.537C145.269 220.508 143.937 221.212 149.614 213.472C154.642 206.616 156.158 200.006 158.426 196.524C158.896 204.278 155.167 209.604 151.771 219.427Z" fill="#2D4966"/>
<path d="M-19.904 246.515C-8.03869 230.196 0.958764 211.849 6.45718 192.535L6.84802 192.646C1.3384 212.005 -7.68294 230.395 -19.5757 246.755L-19.904 246.515Z" fill="#E6C543"/>
<path d="M6.4814 193.66C6.43562 192.598 6.47055 191.408 6.57549 190.243C6.67331 189.074 6.80514 187.919 7.03509 186.932C7.41671 185.347 7.77084 183.687 8.59747 182.383C8.78832 182.084 9.00605 181.795 9.26656 181.646C9.52707 181.498 9.83108 181.513 9.98715 181.769C10.1519 182.034 10.1266 182.463 10.0812 182.853C9.97211 183.792 9.80172 184.715 9.58268 185.624C9.35453 186.533 9.05438 187.421 8.74158 188.306C8.12863 190.079 7.31791 191.788 6.56537 193.501" fill="#E6C543"/>
<path d="M6.68491 193.648L6.68159 193.562L6.75118 193.596L7.27858 192.411C7.61082 191.658 7.95415 190.902 8.27257 190.132C8.57834 189.359 8.87386 188.572 9.14404 187.78C9.70263 186.196 10.0923 184.555 10.2865 182.88C10.3365 182.431 10.3595 181.972 10.1624 181.657C9.95507 181.326 9.54988 181.249 9.1712 181.467C8.92178 181.612 8.68354 181.871 8.42946 182.276C7.57539 183.619 7.21844 185.302 6.8364 186.896C6.61724 187.847 6.47873 188.989 6.38049 190.167C6.26959 191.342 6.23141 192.563 6.28022 193.678L6.68491 193.648ZM9.81219 181.891C9.9395 182.097 9.91429 182.485 9.87611 182.837C9.68714 184.478 9.30382 186.099 8.75006 187.657C8.48029 188.44 8.19075 189.217 7.88541 189.981C7.57096 190.743 7.23161 191.492 6.90178 192.233L6.66158 192.771C6.65638 191.778 6.72099 190.735 6.82348 189.742C6.90618 188.742 7.0434 187.787 7.2305 186.976C7.60531 185.42 7.94947 183.777 8.76417 182.495C8.98088 182.15 9.16951 181.938 9.35508 181.831C9.44311 181.782 9.55048 181.749 9.64979 181.772C9.71666 181.786 9.7716 181.821 9.81219 181.891Z" fill="#E6C543"/>
<path d="M4.75086 199.118C5.65304 197.839 7.02816 196.473 8.3755 195.709C9.46034 195.097 10.588 194.466 11.9378 194.399C12.2506 194.382 12.5763 194.401 12.8698 194.528C13.1632 194.654 13.4138 194.916 13.421 195.196C13.4277 195.484 13.1947 195.709 12.9709 195.892C11.8715 196.781 10.5424 197.387 9.16926 197.881C7.78191 198.366 6.33985 198.732 4.8958 199.101" fill="#E6C543"/>
<path d="M5.94461 199.048C8.45323 198.386 11.0836 197.658 13.0896 196.066C13.2677 195.923 13.6431 195.619 13.6289 195.176C13.6175 194.829 13.3556 194.496 12.9586 194.321C12.6814 194.198 12.3584 194.158 11.9415 194.177C10.5331 194.249 9.3793 194.893 8.2865 195.519C6.97642 196.267 5.54468 197.634 4.59119 198.996L4.91754 199.24L4.9235 199.229L4.93834 199.303L5.94461 199.048ZM12.79 194.731C13.0296 194.837 13.2135 195.042 13.2186 195.209C13.2268 195.386 13.0379 195.565 12.8542 195.71C10.9271 197.252 8.32451 197.974 5.85629 198.63L5.25964 198.786C6.14882 197.63 7.36209 196.529 8.46996 195.893C9.52864 195.294 10.6281 194.68 11.9451 194.613C12.2341 194.597 12.4649 194.619 12.6611 194.677C12.7022 194.696 12.7489 194.712 12.79 194.731Z" fill="#E6C543"/>
<path d="M3.3537 201.802C3.45147 199.923 3.15397 197.674 2.44137 196.076C1.88588 194.789 1.23621 193.487 0.079408 192.616C-0.186879 192.416 -0.488861 192.238 -0.822054 192.182C-1.15525 192.127 -1.52647 192.223 -1.69146 192.476C-1.86598 192.738 -1.78338 193.083 -1.69 193.392C-1.22969 194.882 -0.447658 196.282 0.427521 197.64C1.29914 198.996 2.29792 200.324 3.24594 201.686" fill="#E6C543"/>
<path d="M3.15192 201.755L3.14824 201.795L3.55638 201.808C3.60779 200.814 3.54578 199.747 3.39177 198.737C3.24131 197.728 2.95575 196.76 2.62649 195.988C2.06075 194.686 1.40878 193.355 0.204156 192.453C-0.0269757 192.281 -0.37749 192.048 -0.792202 191.98C-1.15982 191.919 -1.63161 192.019 -1.86653 192.364C-2.0824 192.692 -2.00077 193.097 -1.88773 193.454C-1.47688 194.791 -0.803755 196.059 -0.0446011 197.282C0.705448 198.505 1.57041 199.689 2.41162 200.874L3.07614 201.815L3.15192 201.755ZM-0.0445662 192.78C1.08221 193.63 1.71096 194.911 2.25348 196.162C2.85353 197.511 3.17926 199.426 3.16293 201.201L2.7449 200.612C1.91195 199.446 1.05723 198.277 0.318998 197.075C-0.442566 195.864 -1.09161 194.628 -1.4986 193.326C-1.58613 193.049 -1.64791 192.767 -1.52626 192.582C-1.41456 192.416 -1.14434 192.334 -0.861791 192.38C-0.805596 192.388 -0.747832 192.401 -0.692058 192.418C-0.490726 192.484 -0.280824 192.602 -0.0445662 192.78Z" fill="#E6C543"/>
<path d="M2.01389 207.171C3.13159 205.69 4.90107 204.162 6.50797 203.309C7.80244 202.622 9.20974 201.943 10.8219 201.924C11.1924 201.921 11.5831 201.958 11.9259 202.121C12.2667 202.288 12.5493 202.61 12.5392 202.945C12.5323 203.292 12.2395 203.548 11.9562 203.754C11.2723 204.259 10.5376 204.679 9.76739 205.038C8.99719 205.397 8.16818 205.685 7.33532 205.939C5.66049 206.445 3.90375 206.789 2.18615 207.155" fill="#E6C543"/>
<path d="M3.4151 207.114C6.43002 206.474 9.63478 205.753 12.0654 203.936C12.2808 203.777 12.7342 203.442 12.7467 202.935C12.7561 202.534 12.4698 202.136 12.0218 201.918C11.7024 201.763 11.3241 201.696 10.8312 201.701C9.15888 201.718 7.73609 202.417 6.42298 203.112C4.86799 203.947 3.03676 205.468 1.85467 207.04L2.17108 207.301L2.20405 207.258L2.22119 207.361L3.4151 207.114ZM11.8279 202.323C12.1241 202.47 12.3363 202.734 12.3298 202.954C12.3264 203.186 12.0907 203.39 11.8431 203.574C9.47875 205.339 6.32704 206.056 3.34142 206.694L2.5159 206.868C3.64834 205.502 5.22551 204.226 6.59294 203.501C7.8557 202.83 9.22971 202.159 10.807 202.145C11.1558 202.139 11.4332 202.177 11.6666 202.261C11.7243 202.275 11.7761 202.299 11.8279 202.323Z" fill="#E6C543"/>
<path d="M0.402142 209.754C0.510402 208.675 0.521563 207.486 0.398039 206.329C0.263843 205.166 0.0182964 204.043 -0.336242 203.107C-0.892725 201.605 -1.59717 200.067 -2.89835 199.003C-3.19895 198.756 -3.53922 198.537 -3.91866 198.456C-4.30009 198.378 -4.72751 198.466 -4.92506 198.753C-5.13014 199.044 -5.0485 199.449 -4.94655 199.81C-4.49718 201.537 -3.69166 203.178 -2.73523 204.792C-1.78791 206.405 -0.731218 207.981 0.288522 209.607" fill="#E6C543"/>
<path d="M0.205276 209.662L0.196368 209.737L0.603646 209.768C0.718408 208.628 0.725721 207.404 0.590378 206.226C0.445932 205.048 0.196404 203.932 -0.143176 203.028C-0.700804 201.511 -1.4222 199.945 -2.7692 198.846C-3.17014 198.519 -3.52475 198.335 -3.87887 198.258C-4.29274 198.172 -4.82585 198.257 -5.09332 198.635C-5.34331 198.99 -5.25708 199.454 -5.14814 199.86C-4.74697 201.406 -4.0582 202.889 -3.23475 204.339C-2.40418 205.794 -1.50537 207.193 -0.594313 208.604L0.114847 209.724L0.205276 209.662ZM-3.02305 199.167C-2.39025 199.689 -1.89792 200.328 -1.4956 201.02C-1.10239 201.712 -0.802747 202.453 -0.522881 203.189C-0.218648 203.99 0.0118658 204.964 0.151951 205.999C0.294026 207.032 0.309667 208.114 0.247045 209.153L-0.249646 208.371C-2.01369 205.596 -3.96566 202.782 -4.75117 199.76C-4.84527 199.427 -4.91008 199.092 -4.75588 198.875C-4.61916 198.681 -4.29033 198.593 -3.95599 198.664C-3.88912 198.678 -3.82424 198.695 -3.75779 198.718C-3.53156 198.798 -3.29205 198.946 -3.02305 199.167Z" fill="#E6C543"/>
<path d="M-1.14451 215.067C0.15467 213.529 2.14832 211.967 3.91951 211.113C5.36122 210.439 6.92486 209.772 8.66663 209.83C9.06566 209.843 9.48633 209.901 9.84764 210.098C10.2089 210.296 10.5041 210.662 10.471 211.021C10.4447 211.394 10.1114 211.656 9.79132 211.87C8.24414 212.891 6.52931 213.553 4.6816 214.01C2.83746 214.468 0.917378 214.754 -0.961576 215.057" fill="#E6C543"/>
<path d="M0.376013 215.063C2.03237 214.798 3.72285 214.506 5.35675 214.056C6.98354 213.602 8.51263 212.971 9.898 212.055C10.1407 211.897 10.6437 211.557 10.6867 211.021C10.7272 210.539 10.3384 210.107 9.95576 209.898C9.61936 209.714 9.22014 209.626 8.68811 209.609C6.89327 209.554 5.30348 210.234 3.84669 210.918C2.12782 211.746 0.0851049 213.303 -1.29112 214.929L-0.988238 215.206L-0.943752 215.152L-0.931008 215.271C-0.495333 215.202 -0.0596613 215.132 0.376013 215.063ZM9.7492 210.3C10.0678 210.474 10.2855 210.778 10.2686 211.025C10.2493 211.285 9.98228 211.495 9.6979 211.687C8.35376 212.579 6.83819 213.193 5.2498 213.646C3.64165 214.091 1.9678 214.379 0.331638 214.641L-0.622487 214.794C0.689857 213.366 2.48252 212.047 3.99802 211.316C5.40803 210.657 6.93681 209.994 8.64928 210.054C9.0301 210.066 9.33043 210.122 9.57958 210.22C9.63692 210.242 9.69584 210.271 9.7492 210.3Z" fill="#E6C543"/>
<path d="M-2.9114 217.549C-2.5468 215.385 -2.70177 212.698 -3.32083 210.773C-3.80394 209.223 -4.47058 207.618 -5.71931 206.485C-6.00996 206.22 -6.34385 205.982 -6.726 205.88C-7.11015 205.782 -7.54583 205.852 -7.76315 206.132C-7.98801 206.417 -7.925 206.83 -7.84367 207.203C-7.08655 210.76 -4.88875 214.02 -3.0179 217.406" fill="#E6C543"/>
<path d="M-3.10466 217.446L-3.11556 217.524L-2.70911 217.574C-2.3224 215.287 -2.53231 212.563 -3.12502 210.7C-3.62194 209.134 -4.28378 207.503 -5.58346 206.328C-5.97048 205.976 -6.31871 205.772 -6.67753 205.679C-7.09056 205.574 -7.63507 205.629 -7.92588 205.999C-8.1992 206.346 -8.13715 206.819 -8.04328 207.236C-7.69371 208.832 -7.09097 210.36 -6.33063 211.873C-5.56673 213.389 -4.70414 214.861 -3.86331 216.33L-3.19864 217.505L-3.10466 217.446ZM-5.85867 206.636C-4.63285 207.751 -3.98868 209.33 -3.51853 210.845C-2.99452 212.496 -2.76779 214.856 -3.034 216.944L-3.50483 216.115C-3.91656 215.39 -4.33541 214.661 -4.75226 213.928C-5.17268 213.193 -5.57645 212.454 -5.94894 211.709C-6.703 210.218 -7.28879 208.718 -7.64359 207.156C-7.71907 206.815 -7.76881 206.469 -7.60194 206.254C-7.45256 206.062 -7.11347 205.991 -6.77442 206.077C-6.70954 206.095 -6.6431 206.118 -6.57509 206.147C-6.35482 206.237 -6.11772 206.398 -5.85867 206.636Z" fill="#E6C543"/>
<path d="M-4.72229 222.753C-3.65813 221.601 -2.03348 220.483 -0.626842 219.896C0.518561 219.435 1.75261 218.99 3.09869 219.121C3.40939 219.15 3.73304 219.214 4.00614 219.386C4.27567 219.555 4.4847 219.849 4.44633 220.127C4.4111 220.415 4.14336 220.602 3.88839 220.749C1.44572 222.195 -1.63618 222.428 -4.57818 222.754" fill="#E6C543"/>
<path d="M-3.54059 222.853C-0.945513 222.572 1.78511 222.24 3.97837 220.939C4.17901 220.823 4.59537 220.579 4.65042 220.138C4.69372 219.794 4.48649 219.421 4.11932 219.192C3.86402 219.031 3.55073 218.94 3.1292 218.9C1.72295 218.768 0.464723 219.222 -0.695753 219.694C-2.06514 220.264 -3.73373 221.386 -4.86854 222.606L-4.57915 222.898L-4.56963 222.89L-4.56588 222.966L-3.54059 222.853ZM3.88985 219.578C4.11513 219.718 4.26335 219.945 4.24269 220.116C4.21806 220.294 4.00507 220.441 3.80243 220.561C2.72983 221.185 1.54498 221.592 0.286078 221.864C-0.972826 222.136 -2.28288 222.291 -3.56121 222.431L-4.17385 222.499C-3.11957 221.482 -1.71683 220.585 -0.55593 220.104C0.559751 219.654 1.7605 219.218 3.07216 219.345C3.3591 219.374 3.58661 219.427 3.77045 219.516C3.81001 219.528 3.85271 219.552 3.88985 219.578Z" fill="#E6C543"/>
</svg>
