<svg width="297" height="164" viewBox="0 0 297 164" fill="none" xmlns="http://www.w3.org/2000/svg">
<path d="M143.202 16.6144L145.563 15.3331L153.57 11.3349C153.57 11.3349 166.032 0.255041 166.463 -0.424568C166.902 -1.10221 202.634 -25.9241 202.634 -25.9241C202.634 -25.9241 204.439 -27.5616 207.307 -30.2057C216.857 -38.9932 238.203 -58.9068 244.289 -66.7817C246.084 -69.1049 246.554 -70.377 245.001 -70.0147C244.568 -69.9144 244.098 -69.8131 243.592 -69.7139C234.282 -67.9007 213.483 -66.6922 212.817 -66.6284C212.114 -66.5637 210.439 -63.1459 210.439 -63.1459L209.884 -66.0785C209.884 -66.0785 204.165 -65.762 198.053 -63.5701C192.852 -61.7051 189.467 -58.5144 188.571 -57.6036C188.414 -57.4423 188.337 -57.353 188.337 -57.353L189.251 -49.7054L184.275 -52.1557C181.884 -50.3787 181.183 -46.4078 176.705 -34.9307C172.224 -23.4505 163.302 -17.0933 157.296 -9.09057C151.293 -1.08525 149.976 9.25581 143.202 16.6144Z" fill="#2D4966"/>
<path d="M182.316 -0.154234C189.547 -2.98179 192.814 -8.60315 200.303 -15.8075C208.413 -23.6157 224.031 -37.1435 229.622 -44.4539C235.219 -51.7648 236.354 -59.5511 242.59 -64.7119C248.823 -69.8752 274.864 -80.3888 274.864 -80.3888L272.866 -82.8693C272.866 -82.8693 254.543 -74.814 246.541 -71.6045C238.539 -68.4007 225.397 -64.457 216.376 -60.799C208.838 -57.7481 207.256 -55.6093 203.343 -52.7053L208.225 -44.4232L199.508 -50.0847C194.39 -46.4521 193.352 -42.8806 188.411 -37.5452C186.705 -35.7064 185.569 -34.6023 184.579 -33.6208L185.132 -29.4622L185.472 -26.8983L184.307 -28.95L182.741 -31.7104C181.924 -30.7933 181.019 -29.6903 179.786 -28.0139C180.898 -24.7454 183.215 -17.8818 183.272 -17.2735C183.326 -16.6735 179.222 -21.6753 177.122 -24.2755C176.896 -23.9446 176.654 -23.5948 176.405 -23.2298C169.554 -13.2464 171.176 -15.7777 163.496 -9.06924C155.819 -2.36397 151.311 12.9675 142.148 16.9881C145.791 16.3002 154.924 12.9 159.802 7.42036C164.687 1.94008 171.847 3.04937 180.439 0.491085C181.097 0.294857 181.717 0.0792985 182.316 -0.154234Z" fill="#FFDB58"/>
<path opacity="0.29" d="M200.303 -15.8074C208.413 -23.6156 224.031 -37.1435 229.622 -44.4538C235.219 -51.7647 236.354 -59.551 242.59 -64.7118C248.823 -69.8751 274.863 -80.3887 274.863 -80.3887L272.866 -82.8692C272.866 -82.8692 254.543 -74.8139 246.541 -71.6044C238.539 -68.4006 225.397 -64.4569 216.376 -60.7989C208.838 -57.748 207.256 -55.6092 203.343 -52.7052L208.224 -44.4231L199.508 -50.0846C194.39 -46.452 193.351 -42.8805 188.411 -37.5451C186.705 -35.7063 185.569 -34.6022 184.579 -33.6207L185.132 -29.4621C188.15 -31.5336 190.785 -35.327 198.038 -37.8526C208.867 -41.6242 211.549 -45.0023 216.794 -47.55C222.046 -50.0983 216.872 -35.0972 207.712 -28.6339C198.554 -22.1681 198.629 -23.6713 193.989 -15.2694C189.881 -7.82713 184.512 -3.67857 182.307 -0.156106C189.543 -2.98426 192.811 -8.59988 200.303 -15.8074Z" fill="#2D4966"/>
<path d="M214.457 -7.71474C201.385 5.46311 190.001 25.573 189.893 38.5466C189.781 51.5177 200.186 69.0639 199.751 71.4451C199.751 71.4451 208.148 62.4534 210.02 50.8778C211.891 39.3022 204.671 32.9337 201.236 25.8712C197.8 18.8087 203.643 8.2757 209.057 0.757964C214.473 -6.76294 234.69 -28.2798 234.69 -28.2798L257.094 -51.4134L255.647 -52.8125L214.457 -7.71474Z" fill="#1E1E1D"/>
<path d="M217.278 -9.34268C208.933 2.8138 214.968 14.2616 214.893 19.4798C214.817 24.6981 214.547 27.5489 214.547 27.5489C214.547 27.5489 222.356 21.4123 222.547 13.5014C222.738 5.59048 216.051 2.84952 215.668 -1.25453C215.286 -5.35857 220.83 -14.6229 220.83 -14.6229L217.278 -9.34268Z" fill="#1E1E1D"/>
<path d="M212.44 -5.3102C201.659 2.93061 192.744 9.24075 187.616 14.8595C182.488 20.4782 175.395 31.9764 157.763 37.0066C140.13 42.0369 138.228 41.7488 138.228 41.7488C138.228 41.7488 143.824 25.6835 156.397 20.7386C168.97 15.7936 173.824 22.6732 180.861 17.6577C187.897 12.6422 195.361 4.61458 202.406 0.22999C209.454 -4.15204 215.861 -8.84381 215.861 -8.84381L212.44 -5.3102Z" fill="#1E1E1D"/>
<path d="M215.098 -7.41082C202.239 -0.561174 193.601 3.21334 183.657 4.48134C173.714 5.74933 161.782 1.35394 161.594 -10.3484C161.594 -10.3484 165.27 -8.03458 171.253 -9.7117C177.236 -11.3888 185.089 -5.03141 189.565 -1.9376C194.044 1.15305 211.328 -5.76505 217.281 -9.34004L215.098 -7.41082Z" fill="#1E1E1D"/>
<path d="M218.82 -11.8971C208.636 -5.88044 193.783 -5.00932 186.7 -12.8036C186.7 -12.8036 189.99 -14.9121 196.156 -14.8552C202.326 -14.7957 202.27 -8.3131 206.216 -8.85004C210.162 -9.38698 220.541 -13.0361 220.541 -13.0361L218.82 -11.8971Z" fill="#1E1E1D"/>
<path d="M249.481 12.5551L290.008 -28.0386L289.72 -28.3266L249.192 12.2671L249.481 12.5551Z" fill="#E6C543"/>
<path d="M250.155 11.7791C248.33 12.6654 246.218 14.0598 244.81 15.395C243.679 16.4667 242.528 17.6273 241.909 18.9728C241.767 19.2832 241.654 19.6109 241.672 19.8988C241.694 20.1892 241.876 20.431 242.172 20.4349C242.477 20.4407 242.811 20.2029 243.103 19.9724C245.908 17.7493 247.937 14.7872 250.066 11.9218" fill="#E6C543"/>
<path d="M250.244 11.9606C250.219 11.9719 250.194 11.9832 250.167 11.9976L250.229 12.0433C249.983 12.3733 249.742 12.7028 249.498 13.0354C247.645 15.5473 245.732 18.1468 243.23 20.1325C242.892 20.3995 242.532 20.6429 242.173 20.6399C241.79 20.6336 241.506 20.3357 241.474 19.916C241.456 19.6339 241.535 19.3097 241.729 18.8896C242.367 17.5015 243.531 16.3308 244.676 15.2491C246.034 13.9625 248.15 12.53 250.07 11.5991L250.244 11.9606ZM242.176 20.2281C242.414 20.2322 242.714 20.0183 242.978 19.8081C245.438 17.8558 247.336 15.2811 249.172 12.7913C249.283 12.6406 249.395 12.4898 249.504 12.3422C247.833 13.2384 246.11 14.4443 244.953 15.5418C243.84 16.597 242.704 17.7329 242.097 19.0569C241.935 19.4129 241.863 19.6754 241.882 19.8849C241.889 19.9798 241.921 20.0895 241.995 20.16C242.037 20.1991 242.098 20.2276 242.176 20.2281Z" fill="#E6C543"/>
<path d="M253.976 7.90809C253.292 9.23727 252.802 11.0388 252.801 12.5227C252.804 13.7163 252.86 14.9796 253.479 16.1639C253.624 16.4386 253.8 16.7129 254.056 16.9093C254.305 17.1064 254.643 17.2073 254.875 17.0961C255.115 16.9812 255.177 16.6849 255.215 16.4115C255.564 13.7611 254.716 10.8852 254.022 8.04527" fill="#E6C543"/>
<path d="M254.467 8.97755C255.09 11.4713 255.733 14.0499 255.417 16.4331C255.388 16.6506 255.33 17.0972 254.963 17.2775C254.677 17.4175 254.271 17.3353 253.93 17.0695C253.691 16.8859 253.493 16.6255 253.298 16.2576C252.653 15.0209 252.596 13.7315 252.597 12.52C252.594 11.0743 253.065 9.22556 253.795 7.81329L254.157 8.00154C254.154 8.0047 254.152 8.00787 254.152 8.0136L254.226 7.99435C254.303 8.31952 254.387 8.64982 254.467 8.97755ZM254.181 16.7478C254.386 16.9089 254.648 16.98 254.789 16.9103C254.935 16.8399 254.986 16.6028 255.014 16.3796C255.318 14.0701 254.685 11.5311 254.072 9.07681C254.022 8.87915 253.973 8.68149 253.923 8.48382C253.358 9.76285 253.005 11.2922 253.003 12.5182C253.005 13.68 253.056 14.9121 253.657 16.0664C253.791 16.3219 253.924 16.508 254.069 16.6522C254.108 16.6887 254.146 16.7196 254.181 16.7478Z" fill="#E6C543"/>
<path d="M255.662 5.57002C254.085 6.42165 251.983 7.0846 250.281 7.18424C248.91 7.26376 247.466 7.28424 246.151 6.67406C245.846 6.53202 245.546 6.35181 245.336 6.08689C245.128 5.8188 245.038 5.45154 245.184 5.18704C245.332 4.91364 245.679 4.82232 245.994 4.76327C249.065 4.19896 252.299 4.94772 255.512 5.52192" fill="#E6C543"/>
<path d="M255.532 5.4065C255.543 5.39957 255.553 5.39264 255.568 5.38827L255.759 5.74791C254.091 6.6467 251.947 7.29093 250.29 7.38577C248.902 7.46709 247.43 7.49057 246.059 6.85712C245.8 6.73638 245.429 6.54043 245.169 6.20834C244.941 5.91338 244.797 5.45028 244.997 5.08745C245.184 4.74619 245.583 4.62912 245.95 4.55894C248.702 4.05111 251.613 4.59023 254.426 5.11344C254.795 5.18206 255.171 5.25009 255.54 5.31871L255.532 5.4065ZM246.236 6.49095C247.521 7.08693 248.935 7.05798 250.271 6.98205C251.709 6.8985 253.53 6.3865 255.062 5.64979C254.828 5.60752 254.595 5.56525 254.362 5.52299C251.584 5.00765 248.711 4.47323 246.033 4.96754C245.749 5.02043 245.467 5.09625 245.362 5.28973C245.268 5.46481 245.323 5.74018 245.497 5.9654C245.533 6.01083 245.573 6.05311 245.612 6.09538C245.76 6.2364 245.965 6.36568 246.236 6.49095Z" fill="#E6C543"/>
<path d="M259.773 2.28015C258.958 3.86057 258.376 6.00208 258.378 7.76671C258.381 9.18633 258.449 10.6891 259.184 12.0989C259.354 12.4259 259.568 12.7513 259.868 12.9837C260.167 13.2161 260.568 13.3365 260.844 13.2034C261.128 13.0665 261.204 12.7137 261.249 12.3874C261.664 9.23452 260.652 5.81643 259.833 2.43906" fill="#E6C543"/>
<path d="M260.315 3.56487C261.056 6.52731 261.82 9.59174 261.448 12.4183C261.414 12.6683 261.347 13.1911 260.933 13.3908C260.604 13.5497 260.137 13.4537 259.742 13.1443C259.461 12.9273 259.23 12.6241 259.002 12.1929C258.238 10.7282 258.171 9.20504 258.172 7.76762C258.17 6.05519 258.726 3.86132 259.591 2.18575L259.953 2.37399C259.946 2.38923 259.939 2.40446 259.929 2.41713L260.027 2.3923C260.12 2.7825 260.219 3.1721 260.315 3.56487ZM259.99 12.8257C260.251 13.0273 260.57 13.1128 260.752 13.0243C260.943 12.9319 261.006 12.6529 261.046 12.3648C261.408 9.61451 260.654 6.58961 259.922 3.66097C259.853 3.38997 259.788 3.12154 259.719 2.85054C259.017 4.39604 258.578 6.27048 258.578 7.76582C258.577 9.15104 258.641 10.6194 259.362 12.0017C259.522 12.3096 259.684 12.536 259.859 12.709C259.904 12.7507 259.945 12.7898 259.99 12.8257Z" fill="#E6C543"/>
<path d="M261.401 -0.109923C259.582 0.871263 257.156 1.63776 255.194 1.75288C253.613 1.84567 251.946 1.86915 250.43 1.16407C250.079 1.00072 249.73 0.790914 249.489 0.485687C249.251 0.177295 249.143 -0.246101 249.312 -0.550564C249.484 -0.867093 249.882 -0.969531 250.249 -1.03971C253.791 -1.69387 257.521 -0.826002 261.225 -0.163924" fill="#E6C543"/>
<path d="M261.243 -0.2587C261.262 -0.269397 261.284 -0.283258 261.306 -0.291388L261.497 0.0682618C259.577 1.10353 257.107 1.84554 255.203 1.95468C253.607 2.04609 251.915 2.07513 250.341 1.34995C249.872 1.13235 249.552 0.899172 249.328 0.612515C249.067 0.28042 248.909 -0.236248 249.133 -0.647931C249.345 -1.03232 249.795 -1.16052 250.21 -1.23865C253.38 -1.82203 256.731 -1.19853 259.976 -0.598652C260.405 -0.518821 260.833 -0.438992 261.258 -0.361729L261.243 -0.2587ZM250.514 0.981222C252.003 1.66893 253.637 1.64014 255.181 1.54839C256.866 1.45055 259.017 0.843304 260.803 -0.0330529C260.502 -0.0884977 260.203 -0.141374 259.905 -0.199984C256.698 -0.79516 253.383 -1.41078 250.286 -0.840911C249.948 -0.779466 249.618 -0.68996 249.492 -0.456522C249.375 -0.247215 249.442 0.0906123 249.652 0.355535C249.692 0.409273 249.741 0.45925 249.79 0.509223C249.964 0.682244 250.2 0.831478 250.514 0.981222Z" fill="#E6C543"/>
<path d="M265.548 -3.34823C264.666 -1.63902 264.036 0.678493 264.039 2.59083C264.04 4.12947 264.114 5.75327 264.914 7.27804C265.098 7.63255 265.329 7.98228 265.654 8.23522C265.979 8.48816 266.413 8.6196 266.71 8.47258C267.02 8.32437 267.102 7.94485 267.149 7.58931C267.598 4.17503 266.505 0.481395 265.613 -3.17528" fill="#E6C543"/>
<path d="M266.123 -1.95376C266.921 1.24904 267.747 4.55898 267.345 7.6177C267.31 7.88802 267.237 8.44329 266.796 8.65748C266.399 8.84968 265.872 8.66417 265.525 8.39326C265.226 8.16086 264.971 7.83389 264.731 7.36634C263.906 5.7892 263.838 4.13871 263.832 2.58604C263.83 0.731637 264.432 -1.63508 265.364 -3.44516L265.726 -3.25692C265.716 -3.23852 265.704 -3.21695 265.694 -3.19855L265.804 -3.22457C265.912 -2.80117 266.018 -2.3746 266.123 -1.95376ZM265.776 8.07151C266.063 8.29364 266.417 8.387 266.618 8.28774C266.834 8.18411 266.9 7.87579 266.943 7.56415C267.333 4.58492 266.519 1.31134 265.727 -1.8545C265.652 -2.16247 265.573 -2.473 265.497 -2.78097C264.725 -1.09778 264.238 0.952668 264.241 2.58681C264.241 4.08789 264.309 5.68044 265.092 7.18091C265.266 7.51625 265.439 7.76183 265.633 7.95025C265.681 7.99449 265.726 8.03617 265.776 8.07151Z" fill="#E6C543"/>
<path d="M267.142 -5.76663C265.296 -4.77099 262.833 -3.99199 260.84 -3.87644C259.232 -3.78382 257.543 -3.75795 256.002 -4.4721C255.646 -4.63485 255.293 -4.84723 255.049 -5.16076C254.808 -5.47171 254.698 -5.90659 254.869 -6.21422C255.044 -6.53391 255.447 -6.64268 255.823 -6.71089C259.419 -7.37361 263.206 -6.49708 266.965 -5.82062" fill="#E6C543"/>
<path d="M266.979 -5.90921C267.001 -5.92307 267.023 -5.93119 267.045 -5.94506L267.236 -5.58541C265.285 -4.53252 262.779 -3.78374 260.849 -3.66904C259.227 -3.5778 257.512 -3.54635 255.917 -4.28377C255.442 -4.50077 255.112 -4.74165 254.888 -5.03404C254.626 -5.37187 254.464 -5.89684 254.69 -6.31169C254.905 -6.69924 255.364 -6.83119 255.784 -6.90992C259 -7.50384 262.401 -6.87111 265.693 -6.25882C266.131 -6.17702 266.565 -6.09779 266.999 -6.01856L266.979 -5.90921ZM256.086 -4.65507C257.597 -3.95513 259.254 -3.9863 260.827 -4.07532C262.544 -4.17359 264.728 -4.79589 266.545 -5.68414C266.234 -5.74156 265.927 -5.79641 265.617 -5.85382C262.36 -6.45823 258.998 -7.08053 255.859 -6.5033C255.514 -6.44126 255.182 -6.34858 255.051 -6.10881C254.934 -5.89377 254.999 -5.55277 255.213 -5.27954C255.253 -5.22581 255.302 -5.17584 255.354 -5.1233C255.528 -4.95602 255.767 -4.80421 256.086 -4.65507Z" fill="#E6C543"/>
<path d="M271.259 -8.99329C270.575 -7.66411 270.085 -5.8626 270.083 -4.37872C270.086 -3.18509 270.143 -1.92172 270.762 -0.737433C270.907 -0.462754 271.083 -0.188504 271.338 0.00796176C271.59 0.20186 271.926 0.305909 272.158 0.194749C272.398 0.0798234 272.46 -0.216429 272.498 -0.489914C272.847 -3.1403 271.999 -6.01622 271.305 -8.85613" fill="#E6C543"/>
<path d="M271.747 -7.92052C272.37 -5.42675 273.013 -2.84817 272.7 -0.462371C272.673 -0.248016 272.613 0.201659 272.246 0.381963C271.96 0.522047 271.554 0.439818 271.21 0.171475C270.971 -0.0121548 270.773 -0.272541 270.578 -0.640491C269.933 -1.87715 269.876 -3.16661 269.877 -4.37803C269.874 -5.82374 270.345 -7.67251 271.075 -9.08478L271.437 -8.89653C271.434 -8.89336 271.432 -8.89019 271.432 -8.88446L271.503 -8.90056C271.583 -8.57856 271.667 -8.24825 271.747 -7.92052ZM271.461 -0.15028C271.669 0.013413 271.925 0.0793923 272.069 0.0122168C272.218 -0.0612911 272.266 -0.295248 272.298 -0.515935C272.601 -2.82541 271.968 -5.36444 271.355 -7.82442C271.305 -8.02208 271.259 -8.21718 271.209 -8.41485C270.644 -7.13582 270.291 -5.60649 270.289 -4.38044C270.291 -3.21865 270.342 -1.98652 270.946 -0.8297C271.08 -0.574189 271.213 -0.388071 271.358 -0.243888C271.39 -0.212484 271.426 -0.178517 271.461 -0.15028Z" fill="#E6C543"/>
<path d="M290.472 34.7657C291.394 33.771 292.135 32.714 292.581 31.6532C294.495 27.1179 295.261 22.7114 295.261 22.7114C295.261 22.7114 292.285 26.6331 286.225 27.1504C280.164 27.6621 274.858 29.7409 274.858 29.7409C274.858 29.7409 274.796 29.6488 274.696 29.4941L274.693 29.4915C274.146 28.6184 272.475 25.6836 273.512 23.9003C274.731 21.7878 272.172 25.8949 272.172 25.8949C271.749 29.634 272.635 33.2651 274.13 35.9575C275.539 38.4851 277.498 40.1785 279.426 40.3509C282.47 40.6152 287.448 38.0288 290.472 34.7657Z" fill="#2D4966"/>
<path opacity="0.23" d="M275.066 30.1506C279.159 37.353 287.318 35.3935 292.145 31.7246" stroke="#4E7554" stroke-miterlimit="10"/>
<path opacity="0.23" d="M274.692 29.4912C275.296 36.2468 277.802 39.3175 284.718 38.8586" stroke="#4E7554" stroke-miterlimit="10"/>
<path opacity="0.46" d="M290.472 34.7651C291.394 33.7704 292.135 32.7134 292.581 31.6526C294.495 27.1173 295.26 22.7107 295.26 22.7107C295.26 22.7107 292.285 26.6324 286.225 27.1498C280.164 27.6614 274.858 29.7402 274.858 29.7402C274.858 29.7402 274.796 29.6481 274.696 29.4934L274.692 29.4909C274.146 28.6177 272.475 25.6829 273.511 23.8996C274.731 21.7871 272.172 25.8942 272.172 25.8942C271.749 29.6333 272.635 33.2645 274.13 35.9568C278.352 38.4773 282.479 37.6462 285.918 35.0612C288.205 33.3415 289.578 33.8992 290.472 34.7651Z" fill="#131719"/>
<path d="M295.26 22.7112C295.26 22.7112 292.285 26.6328 286.225 27.1502C280.164 27.6619 274.857 29.7406 274.857 29.7406C274.857 29.7406 274.796 29.6486 274.695 29.4938C274.565 29.635 274.482 29.7248 274.482 29.7248C274.872 30.4607 275.599 31.1237 276.465 31.6997C279.872 33.9692 284.365 33.7083 287.652 31.2668C290.744 28.9673 294.379 25.733 295.26 22.7112Z" fill="#494D4E"/>
<path d="M264.084 35.216C264.497 34.6948 264.787 34.2008 264.876 33.78C264.206 34.1079 263.536 34.404 262.866 34.674C256.604 37.2061 250.7 37.3623 248.537 37.4869C243.189 37.7792 238.501 40.9263 234.535 44.627C233.994 45.1327 233.468 45.6456 232.952 46.1661C230.113 49.0389 227.471 52.1492 225.525 55.688C223.637 59.1164 222.444 62.8721 221.257 66.6012C224.369 64.9836 227.637 63.6713 231.002 62.6849C233.03 62.0934 235.101 61.6162 237.043 60.7873C238.328 60.2387 239.533 59.5476 240.664 58.7484C244.383 56.1169 247.303 52.3082 249.875 48.4692C250.996 46.7959 252.105 45.0659 253.686 43.8139C255.387 42.4742 257.271 40.5704 259.119 39.4442C260.3 38.7383 262.794 36.8404 264.084 35.216Z" fill="#2D4966"/>
<path opacity="0.23" d="M227.523 53.5089C234.578 47.9524 240.515 54.1566 250.431 46.8523" stroke="#4E7554" stroke-miterlimit="10"/>
<path opacity="0.23" d="M247.113 52.2699C241.765 56.9699 240.218 56.3346 233.755 56.442C227.295 56.5461 224.535 58.8892 223.705 60.2626" stroke="#4E7554" stroke-miterlimit="10"/>
<path opacity="0.23" d="M231.879 48.188C239.025 43.0567 247.047 47.8868 256.053 41.2831" stroke="#4E7554" stroke-miterlimit="10"/>
<path opacity="0.46" d="M264.084 35.2159C263.716 34.9907 263.297 34.8085 262.866 34.6739C256.604 37.206 250.7 37.3622 248.537 37.4868C243.189 37.7791 238.501 40.9263 234.535 44.6269C240.843 42.7043 246.01 48.4992 240.667 58.7509C244.386 56.1194 247.306 52.3107 249.878 48.4717C250.999 46.7984 252.108 45.0684 253.69 43.8164C255.39 42.4767 257.275 40.5729 259.122 39.4467C260.3 38.7383 262.794 36.8404 264.084 35.2159Z" fill="#131719"/>
<path d="M241.031 39.7923C250.864 33.6327 258.248 34.4144 263.422 30.402C268.596 26.3897 289.83 4.5376 289.83 4.5376L290.939 5.60985C290.939 5.60985 265.159 34.6862 262.705 36.5481C261.91 37.1527 260.242 38.0254 258.352 38.9329C252.932 41.5336 246.692 41.8263 241.031 39.7923Z" fill="#FFDB58"/>
<path d="M263.075 78.7146L263.197 78.4989L268.878 68.464C268.878 68.464 271.742 57.8453 272.492 52.1826C273.23 46.588 269.982 34.3303 269.897 34.0146C269.863 34.108 269.328 35.7259 267.062 39.9183C264.981 43.7726 265.722 42.6838 264.647 46.5663C264.514 47.0409 264.354 47.5937 264.158 48.2373C262.367 54.1274 260.294 55.4163 259.194 65.2769C258.093 75.1317 260.067 74.1605 258.31 81.0121L260.267 80.1266L263.075 78.7146Z" fill="#2D4966"/>
<path opacity="0.23" d="M265.363 72.8188C261.742 65.596 268.877 50.9203 271.708 47.999" stroke="#4E7554" stroke-miterlimit="10"/>
<path opacity="0.23" d="M263.586 76.2324C257.474 68.5426 268.053 44.28 270.721 42.4393" stroke="#4E7554" stroke-miterlimit="10"/>
<path opacity="0.46" d="M263.197 78.499L268.878 68.4641C268.878 68.4641 271.742 57.8454 272.492 52.1827C273.229 46.5881 269.982 34.3304 269.896 34.0147C269.863 34.1081 269.328 35.726 267.062 39.9184C264.981 43.7727 265.722 42.6838 264.647 46.5664C266.497 44.8285 267.255 47.3486 267.441 51.2037C267.693 56.4515 269.244 57.7877 266.335 61.6474C263.431 65.5065 263.802 67.3659 264.029 71.092C264.236 74.3508 262.801 77.3175 263.197 78.499Z" fill="#131719"/>
<path d="M270.128 27.9945C267.175 34.3742 272.657 42.9066 270.09 52.8798C267.521 62.8504 266.679 71.4873 263.589 76.2294C260.5 80.9715 258.319 81.0082 258.319 81.0082C258.319 81.0082 274.494 75.6202 276.563 61.723C278.634 47.8315 273.11 43.5519 271.391 38.6688C269.678 33.7852 272.169 25.8861 272.169 25.8861L270.128 27.9945Z" fill="#FFDB58"/>
<path d="M257.587 30.331C252.773 23.8095 244.643 13.0559 232.374 18.2791C228.723 19.8314 226.119 21.4772 224.212 23.1485C219.707 27.0939 219.042 31.2146 217.457 34.7418C215.863 38.2931 215.37 39.9762 212.855 39.9521C213.346 40.0514 221.293 41.5624 226.347 40.675C229.585 40.1048 236.645 37.0546 241.544 34.8242C244.548 33.4554 246.735 32.3894 246.735 32.3894L257.587 30.331Z" fill="#2D4966"/>
<path opacity="0.23" d="M233.608 34.3032C238.08 22.2386 250.331 22.7898 253.61 29.9034" stroke="#4E7554" stroke-miterlimit="10"/>
<path opacity="0.23" d="M229.731 36.7802C227.199 24.326 243.063 11.1607 256.196 30.2735" stroke="#4E7554" stroke-miterlimit="10"/>
<path opacity="0.46" d="M257.587 30.3309C252.774 23.8094 244.643 13.0558 232.375 18.279C228.723 19.8313 226.119 21.477 224.213 23.1484C228.858 22.9788 236.254 18.1344 235.291 22.5645C234.187 27.6671 244.208 29.0281 235.92 35.5219C235.92 35.5219 238.357 35.2208 241.544 34.8241C244.548 33.4553 246.735 32.3893 246.735 32.3893L257.587 30.3309Z" fill="#131719"/>
<path d="M269.471 26.9995C262.323 31.6151 260.095 29.8716 254.778 31.3169C249.46 32.7622 246.642 33.3319 240.838 36.7755C235.028 40.2196 226.35 40.6715 226.35 40.6715C226.35 40.6715 235.236 29.1106 241.433 28.0747C249.055 26.803 252.074 32.4049 264.267 28.7574C268.398 27.5202 272.575 24.6466 272.575 24.6466L269.471 26.9995Z" fill="#FFDB58"/>
<path d="M274.615 21.2579C274.615 21.2579 272.219 21.8501 269.894 21.9221C268.31 21.9659 266.755 21.7749 266.023 20.9821C264.588 19.4309 268.784 13.13 268.669 6.86517C268.644 5.21306 268.307 3.56463 267.498 2.00606C265.615 -1.61953 261.803 -3.66117 258.38 -4.80459C254.75 -6.0162 251.555 -6.21853 251.555 -6.21853C254.103 -4.16351 254.538 3.46759 253.828 11.4356C253.526 14.8171 254.594 17.8498 256.901 19.9936C258.639 21.6175 261.09 22.7291 264.189 23.1007C265.521 23.2571 266.967 23.28 268.529 23.1457C269.885 23.0272 271.322 22.8017 272.849 22.4393L274.615 21.2579Z" fill="#2D4966"/>
<path opacity="0.23" d="M263.434 21.2178C258.071 13.6582 270.645 4.86196 262.802 -2.05876" stroke="#4E7554" stroke-miterlimit="10"/>
<path opacity="0.23" d="M261.933 20.5254C253.673 12.6108 264.383 -0.0217128 255.964 -5.12619" stroke="#4E7554" stroke-miterlimit="10"/>
<path opacity="0.46" d="M269.897 21.9246C268.314 21.9684 266.758 21.7774 266.026 20.9845C264.592 19.4333 268.788 13.1325 268.672 6.86766C268.648 5.21555 268.31 3.56712 267.501 2.00855C265.619 -1.61704 261.806 -3.65868 258.383 -4.80209C260.084 -1.64431 262.678 2.52129 262.636 5.012C262.553 9.92974 253.458 11.7437 256.911 20.0012C258.648 21.6251 261.1 22.7367 264.199 23.1084C265.531 23.2648 266.976 23.2876 268.539 23.1533C268.981 22.7768 269.452 22.3508 269.897 21.9246Z" fill="#131719"/>
<path d="M274.615 21.2634C274.615 21.2634 267.836 22.9398 266.026 20.9844C264.592 19.4332 268.788 13.1323 268.672 6.86756C266 11.2445 260.598 17.0976 261.933 20.5254C262.323 21.5191 263.121 22.4181 264.196 23.1057C266.675 23.4001 269.572 23.2191 272.852 22.4416L274.615 21.2634Z" fill="#FFDB58"/>
<path d="M254.941 51.1652C247.52 53.5605 244.983 61.9253 247.608 64.0012C250.233 66.0771 257.298 56.2307 254.941 51.1652Z" fill="#E6C543"/>
<path d="M255.233 50.9347C254.081 53.8631 255.13 55.3329 256.498 55.0827C257.865 54.8326 255.846 50.0679 255.846 50.0679C255.846 50.0679 253.382 49.3662 252.152 51.0973C250.925 52.831 253.464 53.3683 255.233 50.9347Z" fill="#2D4966"/>
<path d="M249.49 39.8969C241.709 39.3972 236.278 46.2445 237.954 49.1411C239.63 52.0377 249.82 45.4756 249.49 39.8969Z" fill="#E6C543"/>
<path d="M249.846 39.7872C247.699 42.0866 248.136 43.8375 249.501 44.1093C250.862 44.3786 250.736 39.2074 250.736 39.2074C250.736 39.2074 248.701 37.6465 246.921 38.8062C245.145 39.9685 247.308 41.4029 249.846 39.7872Z" fill="#FFDB58"/>
<path d="M255.846 50.0679C258.577 37.9243 274.4 22.1175 274.4 22.1175C274.4 22.1175 262.041 34.1313 249.849 39.7898" stroke="#3A3F25" stroke-miterlimit="10"/>
<path d="M297.676 -50.3627C299.372 -55.846 296.998 -69.0905 290.964 -79.1938C287.63 -84.7889 283.176 -89.4181 277.672 -91.2308C272.493 -102.388 265.578 -108.835 258.955 -112.258C250.99 -116.381 243.461 -116.105 239.921 -114.352C233.443 -111.145 255.078 -92.8631 250.627 -90.4158C246.168 -87.9706 234.336 -111.633 230.078 -109.869C225.819 -108.117 220.01 -99.4717 216.38 -93.1894C212.762 -86.9082 239.3 -77.2349 236.311 -72.112C233.322 -66.9892 215.774 -85.432 212.603 -79.1658C209.435 -72.897 209.513 -64.936 209.536 -58.3369C209.562 -51.7353 227.702 -53.347 227.157 -49.911C226.603 -46.4771 220.698 -46.2483 213.121 -48.0097C205.543 -49.7621 207.874 -42.3408 209.064 -35.1045C210.255 -27.8683 209.543 -22.8356 209.543 -22.8356C213.778 -25.0487 225.28 -21.8516 228.005 -21.9567C230.738 -22.0598 224.206 -32.0473 226.644 -33.7393C229.082 -35.4199 231.255 -32.0941 232.122 -27.3452C232.985 -22.6046 240.946 -22.6831 246.602 -23.5812C252.254 -24.482 245.265 -40.5971 249.558 -41.4456C253.851 -42.2941 252.373 -27.4445 255.385 -25.9683C258.401 -24.4984 270.514 -29.0561 275.318 -34.2498C280.125 -39.4409 269.25 -61.7774 274.723 -61.5322C280.194 -61.2895 279.013 -38.7162 281.941 -39.5118C284.865 -40.3158 295.048 -41.8407 297.676 -50.3627ZM258.166 -53.1948C259.361 -55.8467 262.179 -56.2484 264.086 -53.2802C264.539 -52.577 264.678 -51.8873 264.588 -51.2463C264.16 -48.0254 258.114 -45.9272 257.711 -48.7048C257.44 -50.5456 257.658 -52.0695 258.166 -53.1948ZM262.519 -90.9543C261.205 -90.2779 259.687 -90.0759 258.747 -90.9484C257.492 -92.1127 257.634 -93.8343 258.78 -94.9046C259.723 -95.803 261.36 -96.2551 263.45 -95.5781C266.36 -94.636 264.743 -92.1053 262.519 -90.9543ZM264.518 -62.2973C266.262 -60.2539 261.966 -59.124 261.029 -60.6025C259.721 -62.6654 262.766 -64.3369 264.518 -62.2973Z" fill="#494D4E"/>
<path d="M373.329 26.0926C375.025 20.6092 372.651 7.36477 366.62 -2.73595C363.286 -8.33109 358.832 -12.9602 353.328 -14.7729C348.15 -25.9306 341.234 -32.3773 334.612 -35.8003C326.646 -39.9234 319.118 -39.6466 315.577 -37.8943C309.099 -34.6876 330.734 -16.4052 326.284 -13.958C321.824 -11.5127 309.993 -35.1751 305.734 -33.4116C301.475 -31.6595 295.666 -23.0138 292.037 -16.7315C288.418 -10.4504 314.956 -0.776992 311.967 4.34583C308.978 9.46865 291.43 -8.97414 288.259 -2.70792C285.091 3.56086 285.169 11.5219 285.192 18.1209C285.218 24.7225 303.358 23.1109 302.813 26.5469C302.259 29.9808 296.354 30.2096 288.777 28.4482C281.199 26.6958 283.53 34.1171 284.721 41.3534C285.911 48.5896 285.199 53.6223 285.199 53.6223C289.434 51.4092 300.936 54.6062 303.661 54.5012C306.391 54.3956 299.863 44.4106 302.3 42.7186C304.738 41.038 306.911 44.3638 307.778 49.1127C308.641 53.8533 316.602 53.7748 322.258 52.8767C327.91 51.9759 320.921 35.8608 325.214 35.0123C329.507 34.1638 328.03 49.0134 331.041 50.4896C334.058 51.9595 346.17 47.4018 350.974 42.208C355.782 37.0169 344.906 14.6805 350.379 14.9257C355.85 15.1683 354.669 37.7417 357.597 36.946C360.523 36.1389 370.701 34.6146 373.329 26.0926ZM333.822 23.2573C335.017 20.6054 337.835 20.2037 339.742 23.1719C340.195 23.8751 340.334 24.5648 340.244 25.2059C339.815 28.4268 333.769 30.5249 333.366 27.7474C333.093 25.9097 333.311 24.3858 333.822 23.2573ZM338.175 -14.4964C336.861 -13.8201 335.343 -13.618 334.403 -14.4905C333.148 -15.6548 333.29 -17.3765 334.436 -18.4467C335.38 -19.3452 337.016 -19.7972 339.107 -19.1203C342.016 -18.1782 340.402 -15.6506 338.175 -14.4964ZM340.171 14.158C341.915 16.2014 337.619 17.3313 336.682 15.8527C335.38 13.7893 338.425 12.1178 340.171 14.158Z" fill="#1E1E1D"/>
<path opacity="0.29" d="M367.485 9.78846C366.754 6.50333 367.059 1.79713 366.623 -2.73888C363.289 -8.33402 358.835 -12.9631 353.331 -14.7759C348.152 -25.9335 341.237 -32.3802 334.614 -35.8032C331.272 -32.0112 329.484 -23.9102 334.439 -18.4439C335.383 -19.3423 337.019 -19.7944 339.11 -19.1174C342.019 -18.1811 340.402 -15.6504 338.178 -14.4994C342.218 -8.49983 336.909 -3.03887 331.689 -1.35166C325.654 0.603307 327.854 -7.30594 319.932 -5.91015C312.005 -4.50802 315.705 2.23411 320.064 5.67345C324.421 9.10133 321.836 15.1499 316.424 16.7702C311.005 18.3855 307.354 12.8901 306.583 17.303C305.812 21.7159 308.342 22.2455 309.235 25.1835C310.13 28.124 299.852 33.3768 301.984 35.9504C304.117 38.5298 307.805 41.0481 310.295 36.4179C312.698 31.9272 315.247 27.2822 315.405 26.9961C315.328 32.9216 319.824 27.7456 322.772 23.2559C325.731 18.7593 330.047 17.0216 333.229 22.3834C333.418 22.6941 333.614 22.9894 333.828 23.2569C335.023 20.6051 337.841 20.2034 339.748 23.1715C340.201 23.8747 340.339 24.5644 340.25 25.2055C342.197 24.4804 343.757 22.628 343.939 19.9313C344.333 13.9697 340.861 9.24959 344.342 6.1416C347.822 3.03362 350.388 0.58044 352.675 3.0017C354.956 5.41783 355.47 14.6345 359.639 17.2909C363.809 19.953 368.995 16.6175 367.485 9.78846ZM340.171 14.1583C341.915 16.2017 337.619 17.3315 336.682 15.853C335.38 13.7895 338.425 12.1181 340.171 14.1583Z" fill="#1E1E1D"/>
<path d="M312.259 19.8742C315.988 15.5144 319.059 2.40799 317.522 -9.25482C316.677 -15.7128 314.423 -21.7281 310.089 -25.5728C309.755 -37.8713 305.961 -46.5308 301.238 -52.2967C295.558 -59.2377 288.538 -61.97 284.59 -61.7602C277.373 -61.3828 289.99 -36.0233 284.935 -35.5413C279.87 -35.0614 278.383 -61.4768 273.777 -61.5489C269.175 -61.6274 260.413 -55.9911 254.594 -51.6621C248.781 -47.328 269.313 -27.9306 264.54 -24.4122C259.766 -20.8938 250.96 -44.7795 245.567 -40.2835C240.175 -35.7818 237.09 -28.4437 234.499 -22.3742C231.907 -16.3047 249.201 -10.5947 247.34 -7.65885C245.47 -4.72494 239.959 -6.85282 233.701 -11.4759C227.438 -16.0869 226.638 -8.34996 224.863 -1.2356C223.087 5.87877 220.437 10.2214 220.437 10.2214C225.202 9.86555 234.493 17.3623 237.039 18.3453C239.591 19.3334 237.551 7.57246 240.46 6.98736C243.364 6.40859 244.046 10.3249 242.955 15.0291C241.871 19.7239 249.209 22.8084 254.759 24.2223C260.308 25.6362 260.273 8.0699 264.551 8.99355C268.829 9.91721 261.588 22.9639 263.77 25.5149C265.957 28.0597 278.882 28.6738 285.352 25.8127C291.823 22.9515 290.691 -1.86951 295.619 0.525091C300.545 2.91396 290.516 23.1721 293.52 23.603C296.519 24.0198 306.471 26.6574 312.259 19.8742ZM277.108 1.61612C279.253 -0.343919 282.003 0.400406 282.575 3.88184C282.71 4.70519 282.565 5.39558 282.229 5.95231C280.558 8.73792 274.175 8.26902 274.909 5.55813C275.39 3.76038 276.198 2.44728 277.108 1.61612ZM296.068 -31.3263C294.592 -31.2271 293.119 -31.6441 292.603 -32.8131C291.91 -34.3779 292.727 -35.9035 294.199 -36.4312C295.421 -36.8834 297.103 -36.6477 298.756 -35.1976C301.052 -33.183 298.568 -31.5034 296.068 -31.3263ZM286.545 -4.22399C287.334 -1.65783 282.944 -2.32059 282.674 -4.05133C282.292 -6.46013 285.749 -6.78955 286.545 -4.22399Z" fill="#FFDB58"/>
<path opacity="0.29" d="M313.355 2.58984C313.986 -0.71884 316.129 -4.91585 317.528 -9.25525C316.682 -15.7132 314.428 -21.7285 310.095 -25.5732C309.761 -37.8717 305.967 -46.5312 301.244 -52.2971C296.673 -50.1416 291.821 -43.4127 294.205 -36.4259C295.427 -36.8781 297.109 -36.6424 298.762 -35.1923C301.061 -33.1809 298.574 -31.4981 296.074 -31.3209C297.408 -24.2098 290.369 -21.3008 284.907 -21.8197C278.594 -22.4148 283.745 -28.8068 275.916 -30.6634C268.08 -32.5194 268.808 -24.8609 271.448 -19.9756C274.092 -15.1024 269.32 -10.5757 263.708 -11.2324C258.095 -11.8949 256.918 -18.3907 254.461 -14.642C252.006 -10.8964 254.118 -9.40445 253.77 -6.35428C253.429 -3.29897 241.907 -2.54995 242.848 0.658248C243.78 3.87021 246.174 7.64811 250.293 4.3807C254.276 1.20853 258.46 -2.04828 258.718 -2.2433C256.298 3.1678 262.479 0.197782 266.963 -2.75722C271.462 -5.71086 276.114 -5.59704 276.91 0.584989C276.959 0.944983 277.025 1.29172 277.112 1.62458C279.257 -0.335449 282.007 0.408877 282.579 3.8903C282.714 4.71366 282.569 5.40404 282.233 5.96077C284.307 6.06855 286.472 4.98459 287.707 2.58064C290.433 -2.73489 289.114 -8.44797 293.539 -9.91884C297.965 -11.3897 301.292 -12.6271 302.436 -9.501C303.574 -6.38001 300.393 2.28673 303.167 6.37841C305.953 10.4632 312.037 9.45639 313.355 2.58984ZM286.545 -4.22382C287.334 -1.65766 282.944 -2.32042 282.674 -4.05116C282.292 -6.45996 285.749 -6.78938 286.545 -4.22382Z" fill="#2D4966"/>
<path d="M343.125 -34.8065C317.575 -28.5026 306.305 -21.0162 295.192 -16.9339C284.079 -12.8515 280.75 -10.9591 270.18 -7.53331C259.609 -4.10756 252.713 1.02664 251.438 -0.909285C250.164 -2.84521 281.685 -16.3716 287.416 -18.4947C293.146 -20.6178 302.598 -25.6277 311.309 -29.4794C320.023 -33.3342 335.396 -40.9683 337.49 -41.8942C339.582 -42.8169 339.54 -41.9693 339.54 -41.9693L343.125 -34.8065Z" fill="#FFDB58"/>
<path d="M238.934 95.9583L241.526 95.247L250.232 93.1752C250.232 93.1752 264.891 85.2246 265.464 84.6605C266.043 84.1015 306.489 68.0661 306.489 68.0661C306.489 68.0661 308.62 66.8814 312.013 64.962C323.314 58.5821 348.637 44.0546 356.356 37.771C358.631 35.9163 359.38 34.7861 357.783 34.7878C357.339 34.7849 356.858 34.7773 356.346 34.7612C346.868 34.407 326.341 30.846 325.677 30.7589C324.974 30.6614 322.569 33.6077 322.569 33.6077L322.696 30.6299C322.696 30.6299 317.054 29.6343 310.606 30.3777C305.119 31.009 301.095 33.345 300.016 34.0287C299.828 34.1497 299.729 34.221 299.729 34.221L298.879 41.8761L294.591 38.357C291.86 39.5436 290.271 43.2509 283.299 53.4092C276.322 63.5681 266.187 67.7249 258.518 74.1483C250.842 80.5664 247.205 90.3328 238.934 95.9583Z" fill="#2D4966"/>
<path opacity="0.46" d="M312.018 64.9671C323.314 58.5822 348.637 44.0546 356.356 37.7711C356.387 36.684 356.387 35.661 356.342 34.7586C346.864 34.4045 326.337 30.8435 325.673 30.7564C324.971 30.6588 322.566 33.6051 322.566 33.6051L322.692 30.6274C322.692 30.6274 317.051 29.6318 310.602 30.3752C305.116 31.0064 301.091 33.3425 300.012 34.0261C302.423 34.4118 304.999 34.4903 306.539 34.2019C310.968 33.3797 317.743 37.4243 309.338 40.1863C300.933 42.954 300.445 48.1052 294.667 55.9306C294.673 55.93 303.8 61.5254 312.018 64.9671Z" fill="#131719"/>
<path d="M280.836 88.5341C288.518 87.427 292.98 82.7009 301.916 77.3884C311.588 71.6339 329.877 62.0143 336.987 56.1711C344.102 50.3272 346.98 43.0049 354.228 39.3989C361.472 35.7846 389.221 31.4794 389.221 31.4794L387.844 28.6096C387.844 28.6096 368.168 32.2826 359.648 33.5816C351.124 34.8779 337.431 35.7293 327.816 37.2324C319.781 38.4893 317.756 40.2108 313.284 42.1473L316.155 51.3234L308.959 43.8251C303.147 46.1972 301.327 49.4389 295.298 53.5087C293.222 54.9109 291.858 55.7257 290.671 56.4583L290.261 60.6336L290.008 63.2044L289.34 60.9414L288.442 57.8939C287.435 58.599 286.305 59.4676 284.722 60.8182C285.064 64.2542 285.756 71.4643 285.672 72.073C285.586 72.6702 282.731 66.8655 281.278 63.8558C280.979 64.1276 280.67 64.412 280.344 64.7097C271.402 72.8715 273.556 70.7772 264.548 75.5583C255.545 80.3388 247.666 94.2432 237.83 96.0708C241.533 96.2344 251.202 95.0009 257.2 90.775C263.201 86.5517 269.926 89.2598 278.871 88.7249C279.548 88.6918 280.205 88.6261 280.836 88.5341Z" fill="#FFDB58"/>
<path opacity="0.29" d="M289.334 60.9477L288.437 57.9002C287.429 58.6053 286.3 59.4739 284.717 60.8245C286.497 61.3919 287.944 61.3422 289.334 60.9477Z" fill="#2D4966"/>
<path opacity="0.29" d="M301.919 77.385C311.591 71.6305 329.88 62.0109 336.99 56.1677C344.105 50.3238 346.983 43.0015 354.231 39.3955C361.472 35.7844 389.222 31.4792 389.222 31.4792L387.844 28.6093C387.844 28.6093 368.168 32.2824 359.648 33.5813C351.125 34.8777 337.431 35.729 327.817 37.2322C319.782 38.4891 317.756 40.2105 313.284 42.1471L316.155 51.3232L308.959 43.8249C303.147 46.197 301.327 49.4387 295.298 53.5084C293.222 54.9106 291.858 55.7255 290.671 56.4581L290.261 60.6333C293.669 59.3035 297.099 56.2124 304.74 55.4023C316.145 54.1961 319.525 51.5158 325.213 50.2289C330.906 48.9414 322.453 62.3697 312.063 66.5822C301.674 70.7947 302.088 69.346 295.659 76.4713C289.964 82.784 283.793 85.5994 280.841 88.5275C288.521 87.4236 292.983 82.6975 301.919 77.385Z" fill="#2D4966"/>
<path d="M324.712 6.28865L299.292 19.0267C295.05 21.1392 290.836 23.3009 286.553 25.3481C282.268 27.3839 277.881 29.2797 273.282 30.6093L273.169 30.2184C277.737 28.8948 282.101 27.013 286.378 24.9809C290.653 22.9374 294.87 20.7783 299.109 18.6633L324.523 5.92584L324.712 6.28865Z" fill="#E6C543"/>
<path d="M274.164 30.0021C272.544 31.203 270.203 32.3113 268.241 32.7046C266.67 32.9992 264.976 33.211 263.523 32.7571C263.191 32.6556 262.867 32.5186 262.668 32.3104C262.47 32.1022 262.418 31.8033 262.615 31.5799C262.817 31.3501 263.211 31.2597 263.569 31.1991L264.217 31.0995C264.433 31.0596 264.646 31.0228 264.86 30.9917C265.291 30.9264 265.721 30.8815 266.151 30.8365C267.008 30.7123 267.875 30.6708 268.741 30.5746C270.479 30.4364 272.235 30.2645 273.994 30.0112" fill="#E6C543"/>
<path d="M274.044 29.8373L273.977 29.8877L273.966 29.8106C273.568 29.8812 273.161 29.9238 272.758 29.9746C269.682 30.3511 266.588 30.4773 263.539 31.0016C263.126 31.0709 262.714 31.1719 262.47 31.4466C262.216 31.734 262.228 32.1472 262.52 32.4527C262.712 32.6558 263.013 32.8156 263.468 32.9536C264.969 33.4256 266.699 33.2013 268.288 32.9049C270.184 32.5213 272.58 31.4363 274.287 30.1654L274.044 29.8373ZM262.768 31.7197C262.927 31.5438 263.283 31.4602 263.608 31.4089C266.64 30.8863 269.736 30.7627 272.809 30.3836L273.364 30.3141C271.787 31.3599 269.8 32.1732 268.206 32.5078C266.671 32.7956 265.009 33.0069 263.593 32.5667C263.215 32.4497 262.971 32.3246 262.827 32.1715C262.759 32.1004 262.705 32.0045 262.703 31.9033C262.694 31.8434 262.716 31.7773 262.768 31.7197Z" fill="#E6C543"/>
<path d="M279.27 28.2337C278.527 28.2766 277.698 28.2241 276.897 28.0731C276.092 27.908 275.321 27.6611 274.683 27.3221C273.651 26.7577 272.619 26.1207 271.918 24.9855C271.757 24.7241 271.611 24.4322 271.558 24.1162C271.504 23.8001 271.556 23.4643 271.736 23.3267C271.92 23.177 272.179 23.2659 272.412 23.3661C274.673 24.3702 276.842 26.3488 279.167 28.1344" fill="#E6C543"/>
<path d="M278.485 27.3503C276.473 25.7609 274.498 24.0808 272.468 23.1801C272.283 23.0981 271.903 22.932 271.626 23.158C271.405 23.3259 271.31 23.7155 271.38 24.14C271.429 24.4363 271.553 24.7363 271.769 25.0904C272.497 26.2837 273.547 26.9303 274.597 27.4987C275.221 27.8363 275.991 28.0832 276.815 28.258C277.632 28.4218 278.493 28.4796 279.285 28.4345L279.257 28.0288L279.246 28.03L279.289 27.9705C279.018 27.7669 278.75 27.5602 278.485 27.3503ZM271.735 24.0914C271.69 23.8352 271.736 23.5783 271.846 23.4943C271.961 23.3983 272.168 23.4723 272.357 23.5569C272.849 23.7721 273.338 24.0427 273.828 24.3508C274.317 24.6474 274.807 24.9874 275.297 25.3477C276.278 26.0799 277.256 26.8788 278.243 27.6683L278.723 28.047C278.027 28.0386 277.306 27.969 276.623 27.8085C275.94 27.6481 275.299 27.4224 274.772 27.1471C273.765 26.6033 272.757 25.9754 272.072 24.8849C271.923 24.6426 271.825 24.4325 271.77 24.2355C271.753 24.1851 271.743 24.1398 271.735 24.0914Z" fill="#E6C543"/>
<path d="M282.061 27.568C280.704 28.7298 279.243 30.3836 278.397 31.9123C277.706 33.1205 277.001 34.4489 276.886 35.8983C276.863 36.2368 276.877 36.5889 277.022 36.8954C277.17 37.1988 277.482 37.4415 277.822 37.4233C278.17 37.4014 278.433 37.116 278.657 36.8463C280.775 34.2342 281.402 30.9172 282.049 27.7258" fill="#E6C543"/>
<path d="M282.161 27.7485L282.19 27.7252L281.929 27.4134C281.21 28.0275 280.486 28.7523 279.842 29.5209C279.194 30.2812 278.619 31.0745 278.21 31.8185C277.509 33.0451 276.783 34.3874 276.662 35.8953C276.64 36.1816 276.632 36.6055 276.817 36.9862C276.98 37.3227 277.353 37.6517 277.823 37.6287C278.264 37.6029 278.577 37.2746 278.834 36.9637C280.74 34.6259 281.445 31.6863 282.027 28.8782L282.252 27.7651L282.161 27.7485ZM277.109 35.9008C277.213 34.4787 277.907 33.189 278.58 32.003C278.932 31.3547 279.423 30.6717 279.973 29.9999C280.516 29.3172 281.139 28.6783 281.763 28.0973L281.621 28.796C281.037 31.555 280.338 34.4622 278.476 36.7258C278.279 36.9696 278.062 37.198 277.817 37.2149C277.596 37.2293 277.354 37.0546 277.226 36.7985C277.2 36.7461 277.18 36.6932 277.16 36.6345C277.104 36.4374 277.088 36.1986 277.109 35.9008Z" fill="#E6C543"/>
<path d="M286.545 24.8795C284.796 25.1145 282.604 24.9117 281.004 24.2386C279.717 23.7094 278.405 23.0496 277.434 21.8006C277.21 21.514 276.999 21.1854 276.9 20.8219C276.798 20.4558 276.827 20.0442 277.028 19.8551C277.236 19.6566 277.56 19.7357 277.857 19.8293C280.714 20.7189 283.516 22.8545 286.412 24.7717" fill="#E6C543"/>
<path d="M285.524 23.937C283.007 22.2266 280.461 20.4351 277.897 19.6366C277.667 19.5708 277.204 19.4106 276.901 19.7001C276.661 19.9309 276.59 20.3875 276.722 20.8722C276.816 21.2159 276.996 21.5507 277.293 21.9282C278.297 23.2201 279.631 23.8921 280.933 24.4284C282.488 25.0859 284.714 25.3316 286.571 25.0853L286.515 24.6826L286.466 24.6905L286.521 24.6037C286.19 24.3774 285.86 24.1569 285.524 23.937ZM277.08 20.774C276.991 20.4557 277.022 20.1338 277.156 20.0067C277.296 19.8733 277.557 19.933 277.815 20.0161C280.307 20.7874 282.818 22.5825 285.301 24.2647L285.993 24.7314C284.314 24.8662 282.43 24.6138 281.073 24.0486C280.446 23.7867 279.807 23.4998 279.212 23.1274C278.613 22.7466 278.057 22.2802 277.579 21.6723C277.368 21.4016 277.225 21.1645 277.134 20.9335C277.115 20.8862 277.097 20.8301 277.08 20.774Z" fill="#E6C543"/>
<path d="M289.318 24.1324C287.818 25.5351 286.294 27.5578 285.477 29.3674C284.824 30.8266 284.152 32.3863 284.2 34.0679C284.215 34.4575 284.272 34.8602 284.472 35.1958C284.672 35.5313 285.043 35.7794 285.411 35.7265C285.793 35.6691 286.068 35.3303 286.28 35.0039C288.344 31.8497 288.754 28.0252 289.313 24.3125" fill="#E6C543"/>
<path d="M289.404 24.3287L289.454 24.28L289.177 23.9815C287.595 25.4595 286.082 27.5332 285.286 29.2856C284.625 30.7601 283.935 32.3362 283.987 34.084C284.001 34.6042 284.096 34.9912 284.28 35.3082C284.495 35.6711 284.933 36.005 285.432 35.9325C285.897 35.8636 286.222 35.4819 286.462 35.1092C288.314 32.2872 288.841 28.8938 289.326 25.6351L289.516 24.346L289.404 24.3287ZM284.413 34.0511C284.384 33.2253 284.539 32.4325 284.781 31.6682C285.016 30.8989 285.339 30.1581 285.662 29.4491C286.363 27.8922 287.657 26.0762 289.052 24.6727L288.918 25.5764C288.437 28.7969 287.9 32.1508 286.095 34.9012C285.895 35.2003 285.669 35.4789 285.386 35.5229C285.132 35.5582 284.83 35.3811 284.657 35.0891C284.625 35.0316 284.592 34.9684 284.565 34.9045C284.475 34.6792 284.426 34.4032 284.413 34.0511Z" fill="#E6C543"/>
<path d="M293.668 21.2464C291.783 21.539 289.4 21.3967 287.616 20.7631C286.178 20.2585 284.699 19.6364 283.549 18.3684C283.284 18.0745 283.031 17.7386 282.901 17.3495C282.77 16.9603 282.781 16.5128 283.001 16.2813C283.228 16.046 283.599 16.1 283.935 16.1779C287.2 16.9205 290.368 19.1164 293.522 21.1283" fill="#E6C543"/>
<path d="M292.532 20.2576C289.771 18.48 286.893 16.645 283.969 15.9855C283.714 15.9252 283.185 15.8008 282.858 16.1392C282.565 16.4423 282.574 16.9949 282.713 17.4121C282.835 17.7732 283.053 18.1184 283.404 18.5077C284.596 19.8205 286.093 20.4523 287.549 20.9609C289.28 21.577 291.701 21.7615 293.695 21.4518L293.632 21.0497L293.567 21.0594L293.629 20.9631C293.265 20.7258 292.899 20.4917 292.532 20.2576ZM283.082 17.2866C282.968 16.9421 282.988 16.5806 283.137 16.4288C283.297 16.2643 283.597 16.3083 283.897 16.3784C286.747 17.0254 289.585 18.8442 292.316 20.6018L293.117 21.1151C291.295 21.3113 289.208 21.115 287.68 20.5734C286.272 20.083 284.821 19.4782 283.691 18.2314C283.439 17.9535 283.265 17.7079 283.156 17.4615C283.127 17.4065 283.103 17.3453 283.082 17.2866Z" fill="#E6C543"/>
<path d="M296.436 20.5048C294.922 21.9381 293.424 24.0246 292.688 25.878C292.095 27.3656 291.526 28.961 291.691 30.6535C291.729 31.0465 291.812 31.4494 292.032 31.78C292.249 32.108 292.625 32.3498 292.98 32.2865C293.344 32.2195 293.586 31.8697 293.771 31.5373C295.562 28.3394 295.893 24.4679 296.432 20.6907" fill="#E6C543"/>
<path d="M296.526 20.7039L296.578 20.652L296.301 20.3535C294.702 21.8652 293.216 24.0027 292.502 25.7957C291.906 27.3012 291.318 28.9188 291.487 30.6718C291.536 31.1941 291.657 31.5813 291.858 31.8907C292.092 32.2487 292.54 32.5699 293.012 32.4858C293.456 32.4047 293.739 32.0099 293.947 31.6376C295.552 28.7777 295.993 25.3469 296.453 22.0358C296.515 21.5976 296.573 21.1568 296.634 20.7186L296.526 20.7039ZM291.897 30.6318C291.736 28.9737 292.3 27.4107 292.878 25.9535C293.508 24.3604 294.773 22.4838 296.179 21.0473L296.053 21.9791C295.601 25.2545 295.164 28.6472 293.593 31.4399C293.419 31.7449 293.22 32.0352 292.944 32.0843C292.7 32.1273 292.398 31.956 292.202 31.6663C292.164 31.6094 292.129 31.5494 292.099 31.483C291.997 31.2588 291.934 30.9815 291.897 30.6318Z" fill="#E6C543"/>
<path d="M300.758 17.6338C299.289 17.8597 297.441 17.7515 296.047 17.277C294.923 16.896 293.751 16.4389 292.827 15.4748C292.613 15.2538 292.409 14.994 292.302 14.6922C292.195 14.3904 292.202 14.039 292.383 13.855C292.566 13.6677 292.862 13.6977 293.134 13.7504C295.738 14.2665 298.181 15.9847 300.644 17.5414" fill="#E6C543"/>
<path d="M299.9 16.8274C297.741 15.4446 295.511 14.0142 293.17 13.5489C292.957 13.5074 292.519 13.4198 292.237 13.7102C292.017 13.936 291.967 14.3469 292.111 14.7578C292.211 15.043 292.392 15.3109 292.679 15.6114C293.642 16.6177 294.837 17.0782 295.979 17.4689C297.34 17.9323 299.23 18.0739 300.79 17.8326L300.728 17.4305L300.716 17.4317L300.756 17.3696C300.465 17.1914 300.182 17.0094 299.9 16.8274ZM292.492 14.6253C292.402 14.3739 292.415 14.1117 292.528 13.9985C292.64 13.8796 292.878 13.9098 293.096 13.9507C295.36 14.4009 297.556 15.8088 299.686 17.1685L300.198 17.4946C298.818 17.6243 297.266 17.4735 296.113 17.084C295.019 16.7114 293.875 16.2717 292.974 15.3313C292.775 15.1231 292.637 14.9376 292.551 14.7524C292.527 14.7115 292.508 14.67 292.492 14.6253Z" fill="#E6C543"/>
<path d="M303.63 17.0232L303.658 16.9941L303.378 16.6988C302.013 17.9949 300.743 19.82 300.138 21.3553C299.632 22.6455 299.151 24.0289 299.319 25.5298C299.369 25.9795 299.476 26.3132 299.655 26.5785C299.902 26.9525 300.31 27.1621 300.662 27.0963C301.046 27.0243 301.28 26.684 301.455 26.3586C302.793 23.912 303.185 20.9818 303.565 18.1515L303.717 17.0314L303.63 17.0232ZM299.72 25.4878C299.559 24.0818 300.026 22.7493 300.513 21.5073C301.038 20.1746 302.086 18.6103 303.254 17.3957L303.16 18.1011C302.785 20.8932 302.397 23.7853 301.095 26.1672C300.957 26.4222 300.799 26.6618 300.583 26.7017C300.393 26.7361 300.146 26.5938 299.985 26.3585C299.954 26.3125 299.923 26.2607 299.9 26.2052C299.813 26.0143 299.754 25.7828 299.72 25.4878Z" fill="#E6C543"/>
<path d="M291.694 -20.704C288.664 -17.6402 285.982 -14.2214 283.656 -10.5966C281.471 -7.18924 279.546 -3.5599 278.241 0.282923C277.155 3.47977 276.594 6.74627 277.111 10.1089C277.64 13.5977 278.863 16.9561 280.194 20.2076C280.8 21.6859 281.448 23.1453 282.06 24.6173C282.265 25.1088 282.467 25.6035 282.636 26.1075C282.738 26.4157 282.842 26.6423 282.795 26.94C282.735 27.3374 283.613 27.6978 283.871 27.4187C285.83 25.313 287.41 22.705 288.556 20.0815C289.528 17.8528 290.233 15.4173 290.286 12.9776C290.329 10.9243 289.857 8.90447 289.008 7.04007C288.237 5.34998 287.209 3.80271 286.22 2.23978C285.283 0.75549 284.33 -0.735894 284.234 -2.53998C284.131 -4.47079 284.72 -6.38117 285.467 -8.13709C286.313 -10.1324 287.427 -12.0106 288.639 -13.8036C290.313 -16.2824 292.289 -18.5376 294.259 -20.7865C296.522 -23.3703 298.833 -25.9098 301.157 -28.4391C303.309 -30.7765 305.488 -33.0763 307.696 -35.3587C311.141 -38.915 314.586 -42.4714 318.034 -46.031C318.109 -46.1113 318.186 -46.1859 318.261 -46.2663C318.416 -46.4244 318.307 -46.6333 318.175 -46.7615C317.888 -47.0415 317.595 -47.321 317.308 -47.6011C317.134 -47.7684 316.619 -48.0073 316.398 -47.7668C315.576 -46.8695 314.757 -45.9696 313.937 -45.0755C311.969 -42.9195 310 -40.7635 308.032 -38.6075C305.66 -36.0124 303.294 -33.4178 300.922 -30.8227C298.863 -28.5674 296.803 -26.312 294.743 -24.0567C294.068 -23.3138 293.391 -22.5766 292.715 -21.8336C292.395 -21.4843 292.031 -21.1449 291.74 -20.7667C291.723 -20.7331 291.707 -20.7198 291.694 -20.704C291.32 -20.2939 292.373 -19.6969 292.693 -20.0462C293.515 -20.9435 294.334 -21.8434 295.154 -22.7376C297.122 -24.8935 299.091 -27.0495 301.059 -29.2055C303.431 -31.8007 305.797 -34.3952 308.169 -36.9903C310.228 -39.2457 312.288 -41.501 314.348 -43.7563C315.023 -44.4993 315.7 -45.2365 316.376 -45.9794C316.685 -46.3161 317.101 -46.6609 317.351 -47.0463C317.361 -47.0647 317.38 -47.0754 317.393 -47.0912C317.091 -47.1467 316.784 -47.2015 316.483 -47.257C316.77 -46.9769 317.063 -46.6974 317.35 -46.4174C317.321 -46.5824 317.292 -46.7475 317.264 -46.9126C314.195 -43.7433 311.125 -40.5709 308.053 -37.4042C305.853 -35.1314 303.647 -32.8636 301.502 -30.5414C299.289 -28.1482 297.086 -25.7417 294.92 -23.3101C292.866 -21.0032 290.791 -18.697 288.915 -16.2406C286.582 -13.1888 284.352 -9.67537 283.428 -5.90708C283.008 -4.20568 282.876 -2.36616 283.525 -0.70105C284.169 0.944289 285.277 2.42523 286.206 3.91329C287.221 5.52859 288.147 7.2025 288.672 9.04568C289.309 11.283 289.235 13.6264 288.699 15.879C287.794 19.6684 285.822 23.265 283.328 26.2438C283.181 26.4186 283.032 26.5965 282.875 26.7635C283.234 26.9231 283.593 27.0827 283.951 27.2423C284.048 26.612 283.618 25.802 283.391 25.2403C282.916 24.0468 282.391 22.8701 281.89 21.6879C280.541 18.505 279.265 15.2507 278.537 11.8638C278.19 10.2599 277.979 8.60399 278.057 6.96146C278.133 5.32783 278.469 3.71627 278.925 2.15007C280.025 -1.63363 281.798 -5.21812 283.826 -8.58005C286.326 -12.7245 289.291 -16.6074 292.696 -20.0494C293.078 -20.4371 292.03 -21.0405 291.694 -20.704Z" fill="#FCFCFC"/>
<path d="M293.328 -21.5989C291.258 -18.5542 290.403 -15.0019 290.724 -11.3464C290.847 -9.95086 291.115 -8.57344 291.407 -7.19842C291.616 -6.21479 291.872 -5.21558 291.873 -4.20722C291.875 -2.59917 291.817 -0.967337 291.665 0.630783C291.621 1.09903 292.428 1.35958 292.741 1.10953C295.734 -1.25492 298.194 -5.22134 297.495 -9.13584C297.284 -10.3308 296.745 -11.4395 296.056 -12.4281C295.467 -13.2678 294.76 -14.0141 294.175 -14.8512C293.691 -15.5368 293.423 -16.2159 293.518 -17.0632C293.627 -18.0397 293.997 -18.994 294.366 -19.8962C294.989 -21.4015 295.737 -22.8678 296.573 -24.2679C296.849 -24.7314 295.758 -25.2173 295.455 -24.7654C294.745 -23.7088 294.038 -22.6554 293.328 -21.5989C293.037 -21.1685 294.135 -20.64 294.446 -21.1014C295.156 -22.1579 295.866 -23.2088 296.576 -24.2653C296.202 -24.432 295.832 -24.5961 295.458 -24.7628C294.762 -23.6005 294.138 -22.3849 293.578 -21.1497C293.156 -20.2161 292.767 -19.2567 292.526 -18.2608C292.333 -17.4726 292.221 -16.6611 292.503 -15.8762C292.818 -14.9963 293.444 -14.2678 294.029 -13.5522C294.727 -12.6978 295.427 -11.8205 295.875 -10.8067C296.966 -8.32702 296.402 -5.6252 295.058 -3.37219C294.207 -1.94733 293.061 -0.59316 291.752 0.439102C292.111 0.598685 292.469 0.758269 292.828 0.917852C292.951 -0.372983 292.986 -1.67776 293.019 -2.97365C293.046 -4.1849 292.925 -5.28508 292.677 -6.46757C292.079 -9.32913 291.536 -12.1789 291.995 -15.1074C292.334 -17.2727 293.215 -19.2977 294.44 -21.1008C294.735 -21.5286 293.639 -22.0603 293.328 -21.5989Z" fill="#FCFCFC"/>
<path d="M290.464 -19.219C286.511 -16.2007 282.432 -13.3054 278.659 -10.0567C277.369 -8.9454 276.123 -7.7835 275.014 -6.49401C274.017 -5.33494 273.061 -4.13676 272.044 -2.99882C269.163 0.217487 265.771 2.89317 261.815 4.65993C259.362 5.75665 256.763 6.43099 254.176 7.13597C252.5 7.59226 250.825 8.03392 249.13 8.42834C248.295 8.62277 247.455 8.81781 246.601 8.93891C246.453 8.96021 246.303 8.97006 246.154 8.98563C246.057 8.99582 246.02 8.97648 246.134 8.9906C246.434 9.17081 246.734 9.35101 247.037 9.53378C247.857 7.19649 249.143 4.94947 250.608 2.96207C251.91 1.1945 253.448 -0.423843 255.276 -1.64942C257.242 -2.96767 259.568 -3.80484 261.917 -4.06767C263.65 -4.26323 265.339 -4.04275 267.057 -3.831C268.451 -3.66082 269.873 -3.58914 271.205 -4.12535C272.084 -4.47801 272.834 -5.06066 273.577 -5.63383C274.569 -6.39825 275.532 -7.20298 276.478 -8.02054C278.405 -9.68535 280.288 -11.4122 282.271 -13.0104C284.506 -14.8088 286.978 -16.2466 289.353 -17.8423C290.766 -18.7956 292.175 -19.7629 293.548 -20.7699C293.187 -20.9467 292.829 -21.1266 292.469 -21.3034C291.786 -20.5975 291.101 -19.8883 290.416 -19.1849C290.314 -19.0786 291.288 -18.4357 291.534 -18.6874C292.216 -19.3934 292.902 -20.1025 293.587 -20.8059C293.711 -20.9318 292.724 -21.4953 292.509 -21.3395C291.362 -20.5009 290.197 -19.6924 289.023 -18.8916C286.878 -17.4301 284.606 -16.1291 282.521 -14.5812C280.524 -13.0944 278.67 -11.4228 276.801 -9.78432C274.993 -8.19575 273.175 -6.45829 271.12 -5.18582C269.833 -4.38768 268.434 -4.20967 266.953 -4.35623C265.307 -4.51468 263.689 -4.80918 262.026 -4.74557C259.746 -4.65799 257.425 -4.02131 255.419 -2.93949C253.499 -1.90422 251.842 -0.424155 250.442 1.23774C248.529 3.50676 246.894 6.22194 245.91 9.03432C245.817 9.3049 246.642 9.55476 246.813 9.57752C247.542 9.68096 248.432 9.37358 249.129 9.22536C250.544 8.92395 251.947 8.56581 253.346 8.19937C255.771 7.56337 258.229 6.95876 260.591 6.12372C264.92 4.5962 268.756 2.05965 271.955 -1.21887C274.216 -3.53591 276.079 -6.20249 278.466 -8.40221C282.524 -12.1443 287.117 -15.3048 291.497 -18.6488C291.699 -18.8003 290.703 -19.3976 290.464 -19.219Z" fill="#FCFCFC"/>
</svg>
