<svg width="131" height="58" viewBox="0 0 131 58" fill="none" xmlns="http://www.w3.org/2000/svg">
<path d="M32.4755 35.2471H30.1841V37.5384H32.4755V35.2471Z" fill="#494D4E"/>
<path d="M29.268 35.2471H26.9767V37.5384H29.268V35.2471Z" fill="#494D4E"/>
<path d="M32.4755 38.4551H30.1842V40.7464H32.4755V38.4551Z" fill="#494D4E"/>
<path d="M29.2676 38.4551H26.9763V40.7464H29.2676V38.4551Z" fill="#494D4E"/>
<path d="M10.6312 14.4399C7.96865 13.0381 5.18426 11.5724 3.00509 10.4219C0.820113 9.1844 -1.38806 12.4 1.10242 13.4132C1.10242 13.4132 6.57839 15.6465 9.51747 16.8473C11.8378 17.7309 12.6576 15.546 10.6312 14.4399Z" fill="#494D4E"/>
<path d="M17.2481 9.02584C15.4208 7.25659 13.5104 5.40613 12.0158 3.95786C10.5346 2.43998 7.58394 4.36779 9.37639 5.79479C9.37639 5.79479 13.2997 8.93496 15.4054 10.6211C17.0799 11.9088 18.6268 10.4006 17.2481 9.02584Z" fill="#494D4E"/>
<path d="M21.9197 1.30422C21.1057 -0.236868 17.7915 0.482433 18.8937 2.04092C18.8937 2.04092 21.2933 5.4576 22.581 7.29066C23.6194 8.70605 25.6361 7.90747 24.8724 6.50754C23.8398 4.68996 22.7628 2.79116 21.9197 1.30422Z" fill="#494D4E"/>
<path d="M47.6116 13.9905C50.2741 12.5887 53.0585 11.123 55.2377 9.97249C57.4207 8.73305 59.6308 11.9486 57.1384 12.9618C57.1384 12.9618 51.6625 15.1952 48.7234 16.3959C46.405 17.2815 45.5851 15.0965 47.6116 13.9905Z" fill="#494D4E"/>
<path d="M40.9948 8.57662C42.8221 6.80737 44.7325 4.95691 46.2271 3.50864C47.7083 1.99076 50.659 3.91857 48.8665 5.34557C48.8665 5.34557 44.9432 8.48574 42.8375 10.1718C41.163 11.4596 39.6161 9.95141 40.9948 8.57662Z" fill="#494D4E"/>
<path d="M36.3231 0.855973C37.1372 -0.68511 40.4513 0.0341909 39.3492 1.59268C39.3492 1.59268 36.9496 5.00936 35.6618 6.84241C34.6235 8.25781 32.6067 7.45923 33.3705 6.0593C34.403 4.24171 35.4801 2.34292 36.3231 0.855973Z" fill="#494D4E"/>
<path d="M36.0429 3.33875C36.0429 3.33875 36.0448 3.08352 36.0468 2.94043C36.0468 3.01584 36.0448 3.14152 36.0429 3.33875Z" fill="#494D4E"/>
<path d="M36.0469 2.90098C36.0469 2.84166 36.0488 2.82635 36.0469 2.90098V2.90098Z" fill="#494D4E"/>
<path d="M43.6884 8.7319C43.7154 8.66809 43.7367 8.61975 43.7502 8.58301C43.7309 8.63135 43.7077 8.68936 43.6884 8.7319Z" fill="#494D4E"/>
<path d="M43.7869 8.49833C43.7891 8.49169 43.7891 8.4939 43.7869 8.49833V8.49833Z" fill="#494D4E"/>
<path d="M43.7656 8.54683C43.7771 8.51812 43.7848 8.50281 43.7867 8.49707C43.7848 8.50473 43.7752 8.52195 43.7656 8.54683Z" fill="#494D4E"/>
<path d="M43.6594 8.79912C43.6594 8.79912 43.671 8.77012 43.6884 8.73145C43.6788 8.75271 43.671 8.77398 43.6594 8.79912Z" fill="#494D4E"/>
<path d="M40.0839 46.8935C39.8983 46.7582 39.8094 46.5262 39.8538 46.2999C40.171 44.695 40.8497 43.3608 41.7546 41.9474C43.373 39.4163 45.7455 37.125 46.8013 34.271C49.1506 27.8997 46.0859 20.233 41.0121 16.0777C35.772 11.7831 28.1594 10.6191 21.9777 13.5756C15.97 16.4489 11.6812 22.4199 11.4647 29.174C11.3603 32.4785 12.8259 34.7737 14.8233 37.2681C16.5694 39.4492 18.1279 41.6206 18.9767 44.2638C24.4759 42.5971 30.7408 42.5371 36.3579 43.8597C36.2767 40.9922 36.1935 37.9932 36.1065 35.1198C36.0872 34.561 36.3676 33.8649 37.1333 33.8649H38.8194C36.9998 32.1981 36.4874 32.1537 36.4874 31.5543C36.4874 30.9394 36.4874 29.0464 36.4874 29.0464V26.6352H35.3756V29.2881C35.3756 29.9184 34.8709 29.9184 33.9254 28.8665C32.4713 27.2462 29.4337 24.0577 29.4337 24.0577C29.4337 24.0577 23.1784 31.0844 20.0479 33.8649H21.4788C22.5055 33.8649 22.8633 34.5223 22.8633 35.348V41.6515C22.8633 42.7634 20.6377 42.7634 20.6377 41.6515V36.0905H17.7063C16.7995 36.0905 16.3799 35.1044 16.9986 34.4624C20.9084 30.4076 24.8336 26.4805 28.7376 22.4199C29.1243 22.0216 29.8455 21.9926 30.2303 22.3928C31.4581 23.6651 33.9854 26.4631 33.9854 26.4631V25.8521C33.9854 25.3648 34.3817 24.9684 34.869 24.9684H36.8297C37.4078 24.9684 37.8777 25.4383 37.8777 26.0164V30.6919C37.8777 30.6919 40.5345 33.1205 41.8358 34.4759C42.4545 35.1179 42.0678 36.0905 41.161 36.0905H38.1909C38.278 39.7044 38.3708 42.1659 38.452 45.132C38.4752 45.8011 37.783 46.4875 37.1565 46.3135C31.23 44.6602 24.4121 44.6042 18.5919 46.6016C18.3947 46.6712 18.2207 46.675 18.0602 46.6441C17.7121 46.5938 17.3912 46.3734 17.2848 45.919C16.7221 43.5368 15.5388 41.493 14.0306 39.5826C12.7892 38.0106 11.3738 36.4617 10.5075 34.6364C8.59713 30.6184 9.3609 25.7322 11.1495 21.7915C13.7425 16.0719 19.0347 11.5995 25.2397 10.3484C31.5548 9.07417 38.2644 10.7197 43.0404 15.1283C47.6733 19.4093 50.5737 26.1866 49.4058 32.5385C48.8238 35.7096 47.0179 38.1246 45.1481 40.6596C44.0111 42.1891 42.6866 43.8887 42.1336 45.7372C41.9943 46.1994 41.8861 46.561 41.8107 46.9844C41.77 47.2165 41.5516 47.3731 41.3195 47.346L41.219 47.3344C40.809 47.2861 40.4185 47.1352 40.0839 46.8935Z" fill="#FFD85C"/>
<path d="M21.6509 54.9001C21.2217 55.0664 20.9722 55.3622 21.1095 55.6156C21.3899 56.1376 23.5478 55.2965 25.4872 55.0084C30.0872 54.3239 33.4169 54.9021 38.0924 56.01C39.3415 56.3058 38.7092 58.3303 37.4736 57.9533C31.5897 56.157 28.1285 56.2169 22.1305 57.5898C20.7054 57.9165 19.3789 57.8237 19.1218 55.836C19.1024 55.6832 19.114 55.5363 19.1237 55.3893C19.174 54.5927 19.9107 53.9546 20.5874 53.535C21.1192 53.2043 21.7012 52.9646 22.3045 52.7983C25.8894 51.8005 28.8575 51.6729 32.8794 52.137C35.2693 52.4135 38.3515 53.5253 38.5468 53.0226C38.8213 52.3149 37.5104 52.0132 36.6267 51.7329C36.6267 51.7329 28.7685 49.5131 20.8756 52.1022C19.4466 52.5701 17.1321 52.3458 17.0857 50.3426C17.0412 48.5386 18.6345 47.6994 20.1253 47.185C26.3303 45.0445 33.763 45.8663 40.0743 47.74L40.0782 47.7419C41.2113 48.148 41.5361 48.3123 41.9209 48.6797C42.1027 48.8499 42.1858 49.107 42.1297 49.3487C42.0041 49.8998 41.5245 50.3581 40.8845 50.1454C35.569 48.3993 29.3041 47.3687 23.7644 48.3723C23.1823 48.4728 18.4044 48.9813 19.143 50.2653C19.406 50.7216 22.7299 49.5054 25.5568 49.2366C29.7083 48.8421 33.8636 49.0819 37.8661 50.1937C37.9261 50.2111 37.9822 50.2305 38.0421 50.2498C39.3415 50.6539 40.0956 51.1857 40.5983 52.0558C40.7433 52.3072 40.842 52.8718 40.8362 53.1386C40.8014 54.641 39.9815 55.1399 38.889 55.1592C38.452 55.167 37.8101 55.0413 37.317 54.9001C35.9403 54.5057 27.91 52.2646 21.6509 54.9001Z" fill="#FFD85C"/>
<path d="M69.133 25.21C67.553 25.21 66.223 24.835 65.143 24.085V21.835C65.583 22.215 66.163 22.545 66.883 22.825C67.613 23.095 68.333 23.23 69.043 23.23C69.633 23.23 70.118 23.125 70.498 22.915C70.878 22.695 71.068 22.395 71.068 22.015C71.068 21.605 70.888 21.315 70.528 21.145C70.378 21.055 70.178 20.965 69.928 20.875L69.568 20.755L68.728 20.5L67.948 20.245C67.838 20.215 67.603 20.13 67.243 19.99C66.933 19.87 66.708 19.765 66.568 19.675C66.048 19.315 65.718 19.01 65.578 18.76C65.338 18.28 65.218 17.79 65.218 17.29C65.218 16.36 65.573 15.63 66.283 15.1C66.993 14.56 67.958 14.29 69.178 14.29C70.408 14.29 71.553 14.58 72.613 15.16V17.26C71.543 16.6 70.408 16.27 69.208 16.27C68.018 16.27 67.423 16.615 67.423 17.305C67.423 17.605 67.608 17.845 67.978 18.025C68.198 18.145 68.483 18.25 68.833 18.34C69.303 18.47 69.683 18.58 69.973 18.67C70.843 18.94 71.603 19.305 72.253 19.765C72.953 20.255 73.303 20.985 73.303 21.955C73.303 22.965 72.908 23.76 72.118 24.34C71.328 24.92 70.333 25.21 69.133 25.21ZM77.0816 25H74.9666V17.515H77.0816V18.43C77.6416 17.69 78.4016 17.32 79.3616 17.32C79.9016 17.32 80.3816 17.44 80.8016 17.68C81.2316 17.92 81.5266 18.225 81.6866 18.595C81.9366 18.215 82.2966 17.91 82.7666 17.68C83.2366 17.44 83.7366 17.32 84.2666 17.32C85.0866 17.32 85.7366 17.58 86.2166 18.1C86.6966 18.62 86.9366 19.36 86.9366 20.32V25H84.8216V20.8C84.8216 19.77 84.4066 19.255 83.5766 19.255C83.2566 19.255 82.9516 19.35 82.6616 19.54C82.3716 19.73 82.1566 19.975 82.0166 20.275V25H79.9016V20.8C79.9016 19.77 79.4866 19.255 78.6566 19.255C78.3566 19.255 78.0566 19.35 77.7566 19.54C77.4566 19.73 77.2316 19.965 77.0816 20.245V25ZM95.9784 23.365C96.1584 23.365 96.3034 23.335 96.4134 23.275V24.82C96.1434 25.03 95.7634 25.135 95.2734 25.135C94.4234 25.135 93.8584 24.815 93.5784 24.175C92.9184 24.855 92.0584 25.195 90.9984 25.195C90.1784 25.195 89.5134 24.965 89.0034 24.505C88.4934 24.045 88.2384 23.44 88.2384 22.69C88.2384 21.89 88.5284 21.28 89.1084 20.86C89.6884 20.44 90.3834 20.23 91.1934 20.23C92.0434 20.23 92.7634 20.385 93.3534 20.695V20.47C93.3534 19.53 92.6934 19.06 91.3734 19.06C90.5634 19.06 89.8084 19.27 89.1084 19.69V17.92C89.8684 17.52 90.7934 17.32 91.8834 17.32C92.9634 17.32 93.8234 17.58 94.4634 18.1C95.1234 18.62 95.4534 19.34 95.4534 20.26V22.795C95.4534 23.175 95.6284 23.365 95.9784 23.365ZM93.3534 22.795V22.045C92.9134 21.755 92.3934 21.61 91.7934 21.61C91.3434 21.61 90.9834 21.695 90.7134 21.865C90.4534 22.035 90.3234 22.275 90.3234 22.585C90.3234 22.905 90.4434 23.15 90.6834 23.32C90.9234 23.48 91.2484 23.56 91.6584 23.56C92.3984 23.56 92.9634 23.305 93.3534 22.795ZM99.9918 25H97.8768V17.515H99.9918V18.775C100.222 18.375 100.572 18.035 101.042 17.755C101.532 17.465 102.052 17.32 102.602 17.32C102.722 17.32 102.802 17.325 102.842 17.335V19.405C102.642 19.355 102.422 19.33 102.182 19.33C101.692 19.33 101.242 19.46 100.832 19.72C100.432 19.97 100.152 20.275 99.9918 20.635V25ZM105.379 22.675V19.285H103.909V17.515H105.379V15.46H107.494V17.515H109.624V19.285H107.494V22.255C107.494 22.625 107.574 22.895 107.734 23.065C107.894 23.225 108.154 23.305 108.514 23.305C108.884 23.305 109.249 23.215 109.609 23.035V24.79C109.169 25.06 108.574 25.195 107.824 25.195C106.194 25.195 105.379 24.355 105.379 22.675Z" fill="#494D4E"/>
<path d="M69.583 44H65.653V33.5H69.583C71.283 33.5 72.668 33.99 73.738 34.97C74.808 35.95 75.343 37.21 75.343 38.75C75.343 40.3 74.808 41.565 73.738 42.545C72.678 43.515 71.293 44 69.583 44ZM67.813 35.435V42.065H69.403C70.573 42.065 71.483 41.775 72.133 41.195C72.793 40.605 73.123 39.79 73.123 38.75C73.123 37.71 72.793 36.9 72.133 36.32C71.483 35.73 70.573 35.435 69.403 35.435H67.813ZM80.0586 41.21C80.6786 41.86 81.4536 42.185 82.3836 42.185C83.3036 42.185 84.0736 41.86 84.6936 41.21C85.3136 40.56 85.6236 39.74 85.6236 38.75C85.6236 37.76 85.3136 36.94 84.6936 36.29C84.0736 35.64 83.3036 35.315 82.3836 35.315C81.4536 35.315 80.6786 35.64 80.0586 36.29C79.4486 36.93 79.1436 37.75 79.1436 38.75C79.1436 39.75 79.4486 40.57 80.0586 41.21ZM76.9386 38.75C76.9386 37.21 77.4536 35.92 78.4836 34.88C79.5136 33.82 80.8136 33.29 82.3836 33.29C83.9436 33.29 85.2386 33.82 86.2686 34.88C87.3086 35.94 87.8286 37.23 87.8286 38.75C87.8286 40.26 87.3086 41.55 86.2686 42.62C85.2386 43.68 83.9436 44.21 82.3836 44.21C80.8136 44.21 79.5136 43.68 78.4836 42.62C77.4536 41.56 76.9386 40.27 76.9386 38.75ZM91.939 44H89.779V33.5H91.924L94.969 37.85L98.014 33.5H100.144V44H98.014V36.815L95.599 40.19H94.399L91.939 36.815V44Z" fill="#FFDB58"/>
</svg>
