<svg width="10" height="16" viewBox="0 0 10 16" fill="none" xmlns="http://www.w3.org/2000/svg">
<path d="M8.39748 15.7867C8.13309 15.7867 7.89077 15.6986 7.67045 15.5223L1.36924 10.0584C0.75234 9.52965 0.421875 8.75852 0.421875 7.96537C0.421875 7.15019 0.774372 6.4011 1.36924 5.87234L7.67045 0.4084C8.13312 0.0118242 8.8161 0.0558949 9.23471 0.518566C9.63128 0.981238 9.58725 1.66423 9.12457 2.08283L2.82336 7.54677C2.64711 7.701 2.62508 7.87725 2.62508 7.98741C2.62508 8.07553 2.64711 8.27381 2.82336 8.42804L9.12457 13.892C9.58725 14.2886 9.63128 14.9936 9.23471 15.4562C9.01439 15.6545 8.70592 15.7867 8.39748 15.7867Z" fill="#E0E0E0"/>
</svg>
