<svg width="10" height="16" viewBox="0 0 10 16" fill="none" xmlns="http://www.w3.org/2000/svg">
<path d="M1.11474 15.789C0.806296 15.789 0.49784 15.6569 0.277523 15.4145C-0.119048 14.9518 -0.0749445 14.2688 0.387722 13.8502L6.68877 8.3863C6.86502 8.23207 6.88705 8.05582 6.88705 7.94566C6.88705 7.85754 6.86502 7.65924 6.68877 7.50501L0.387722 2.04109C-0.0749445 1.64452 -0.119048 0.93948 0.277523 0.476809C0.674094 0.0141374 1.37916 -0.0299166 1.84183 0.366659L8.14287 5.83058C8.75976 6.35935 9.09022 7.13048 9.09022 7.92363C9.09022 8.73881 8.73771 9.48789 8.12082 10.0167L1.81977 15.4806C1.64352 15.7009 1.37912 15.789 1.11474 15.789Z" fill="#E0E0E0"/>
</svg>
