<svg width="498" height="437" viewBox="0 0 498 437" fill="none" xmlns="http://www.w3.org/2000/svg">
<path d="M95.3405 189.863C117.62 189.863 135.681 171.802 135.681 149.522C135.681 127.243 117.62 109.182 95.3405 109.182C73.0611 109.182 55 127.243 55 149.522C55 171.802 73.0611 189.863 95.3405 189.863Z" fill="#FFDB58"/>
<path d="M0.935547 12.1531L1.70664 10.4346C2.65401 11.2057 4.17421 11.7345 5.62832 11.7345C7.47899 11.7345 8.25011 11.0735 8.25011 10.1923C8.25011 7.63654 1.19992 9.31099 1.19992 4.90458C1.19992 2.98779 2.72011 1.35742 5.98083 1.35742C7.41291 1.35742 8.88903 1.73196 9.92453 2.41495L9.21952 4.13345C8.16199 3.51655 6.97228 3.2081 5.95881 3.2081C4.13017 3.2081 3.38109 3.91314 3.38109 4.81645C3.38109 7.35013 10.4092 5.69773 10.4092 10.0601C10.4092 11.9548 8.86701 13.5852 5.6063 13.5852C3.77765 13.5632 1.92698 12.9903 0.935547 12.1531Z" fill="#E0E0E0"/>
<path d="M21.1624 4.35376V13.4089H19.1575V12.2632C18.4745 13.1004 17.417 13.5411 16.2493 13.5411C13.9359 13.5411 12.3496 12.2632 12.3496 9.5533V4.37578H14.4647V9.24485C14.4647 10.8972 15.2358 11.6684 16.5797 11.6684C18.0559 11.6684 19.0473 10.743 19.0473 8.93639V4.35376H21.1624Z" fill="#E0E0E0"/>
<path d="M32.835 8.20917V13.3867H30.72V8.47354C30.72 6.86521 29.9268 6.0941 28.5608 6.0941C27.0627 6.0941 26.0272 7.01944 26.0272 8.82606V13.4087H23.9121V4.35357H25.939V5.52127C26.6441 4.68405 27.7457 4.24341 29.0676 4.24341C31.2267 4.24341 32.835 5.49924 32.835 8.20917Z" fill="#E0E0E0"/>
<path d="M88.1812 13.4089L88.1592 5.5435L84.2595 12.0429H83.2681L79.3684 5.63162V13.3869H77.2754V1.53369H79.082L83.7969 9.39909L88.4235 1.53369H90.2302L90.2522 13.3869H88.1812V13.4089Z" fill="#E0E0E0"/>
<path d="M92.5195 8.87037C92.5195 6.16043 94.5465 4.24365 97.3225 4.24365C100.143 4.24365 102.148 6.16043 102.148 8.87037C102.148 11.5803 100.121 13.5191 97.3225 13.5191C94.5465 13.5191 92.5195 11.5803 92.5195 8.87037ZM100.01 8.87037C100.01 7.15187 98.8648 6.05028 97.3225 6.05028C95.8023 6.05028 94.6566 7.15187 94.6566 8.87037C94.6566 10.5889 95.8023 11.6905 97.3225 11.6905C98.8648 11.7125 100.01 10.6109 100.01 8.87037Z" fill="#E0E0E0"/>
<path d="M113.097 8.20941V13.3869H110.982V8.47378C110.982 6.86545 110.189 6.09435 108.823 6.09435C107.324 6.09435 106.289 7.01968 106.289 8.8263V13.409H104.174V4.35382H106.201V5.52151C106.906 4.6843 107.985 4.24365 109.329 4.24365C111.488 4.24365 113.097 5.47745 113.097 8.20941Z" fill="#E0E0E0"/>
<path d="M160.822 3.4064H156.9V1.53369H166.969V3.4064H163.047V13.4089H160.844V3.4064H160.822Z" fill="#E0E0E0"/>
<path d="M176.948 4.354V13.4091H174.943V12.2635C174.26 13.1007 173.202 13.5413 172.034 13.5413C169.721 13.5413 168.135 12.2635 168.135 9.55354V4.37602H170.25V9.24509C170.25 10.8975 171.021 11.6686 172.365 11.6686C173.841 11.6686 174.832 10.7432 174.832 8.93663V4.354H176.948Z" fill="#E0E0E0"/>
<path d="M188.183 9.55368H181.089C181.354 10.8756 182.455 11.7128 184.019 11.7128C185.033 11.7128 185.826 11.3823 186.487 10.7214L187.633 12.0213C186.817 12.9907 185.54 13.4974 183.997 13.4974C180.957 13.4974 178.996 11.5586 178.996 8.84866C178.996 6.16075 180.979 4.22192 183.667 4.22192C186.311 4.22192 188.25 6.07262 188.25 8.89271C188.227 9.091 188.205 9.35539 188.183 9.55368ZM181.067 8.14363H186.201C186.024 6.84375 185.033 5.94043 183.645 5.94043C182.279 5.94043 181.287 6.82171 181.067 8.14363Z" fill="#E0E0E0"/>
<path d="M173.554 56.7676V71.3528H170.184V59.4775H167.275V56.7676H173.554Z" fill="#263238"/>
<path d="M25.9421 153.334C25.9421 156.308 23.4966 158.181 20.4121 158.181C16.3803 158.181 13.8906 155.669 13.8906 150.954C13.8906 145.909 16.9311 143.089 21.3374 143.089C22.8797 143.089 24.3779 143.441 25.4134 144.08L24.1575 146.57C23.3424 146.019 22.417 145.843 21.4256 145.843C18.98 145.843 17.4157 147.275 17.3276 150.073C18.1869 149.214 19.4206 148.773 20.9409 148.773C23.7389 148.795 25.9421 150.58 25.9421 153.334ZM22.6594 153.51C22.6594 152.166 21.69 151.329 20.1698 151.329C18.6936 151.329 17.6361 152.254 17.6361 153.51C17.6361 154.766 18.5834 155.669 20.1918 155.669C21.6679 155.669 22.6594 154.832 22.6594 153.51Z" fill="#263238"/>
<path d="M19.5311 232.473V247.058H16.1602V235.183H13.252V232.473H19.5311Z" fill="#263238"/>
<path d="M32.8355 242.607C32.8355 245.074 30.9407 247.322 26.7987 247.322C24.7497 247.322 22.6567 246.771 21.2246 245.757L22.5465 243.18C23.6481 244.017 25.1904 244.502 26.7106 244.502C28.407 244.502 29.4425 243.819 29.4425 242.629C29.4425 241.527 28.6274 240.844 26.7106 240.844H25.1683V238.619L28.1647 235.226H21.9517V232.516H32.1745V234.697L28.8917 238.443C31.4915 238.839 32.8355 240.47 32.8355 242.607Z" fill="#263238"/>
<path d="M102.347 143.354V145.535L96.9275 157.939H93.2482L98.4698 146.108H93.6448V148.487H90.6484V143.354H102.347Z" fill="white"/>
<path d="M94.8572 232.473V247.058H91.4863V235.183H88.5781V232.473H94.8572Z" fill="#263238"/>
<path d="M110.762 243.995H108.383V247.058H105.1V243.995H97.2344V241.726L104.108 232.473H107.655L101.266 241.241H105.188V238.509H108.383V241.241H110.762V243.995Z" fill="#263238"/>
<path d="M179.618 153.709C179.618 156.463 177.15 158.181 173.449 158.181C169.77 158.181 167.324 156.441 167.324 153.709C167.324 152.144 168.139 150.977 169.527 150.272C168.448 149.611 167.831 148.575 167.831 147.275C167.831 144.72 170.122 143.111 173.427 143.111C176.776 143.111 179.067 144.72 179.067 147.275C179.067 148.597 178.45 149.611 177.349 150.272C178.803 150.977 179.618 152.144 179.618 153.709ZM176.203 153.621C176.203 152.321 175.146 151.528 173.449 151.528C171.775 151.528 170.739 152.321 170.739 153.621C170.739 154.92 171.775 155.736 173.449 155.736C175.124 155.714 176.203 154.898 176.203 153.621ZM171.18 147.43C171.18 148.531 172.061 149.214 173.427 149.214C174.815 149.214 175.718 148.531 175.718 147.43C175.718 146.284 174.793 145.601 173.427 145.601C172.083 145.579 171.18 146.284 171.18 147.43Z" fill="#263238"/>
<path d="M172.187 232.473V247.058H168.816V235.183H165.908V232.473H172.187Z" fill="#263238"/>
<path d="M185.76 242.475C185.76 245.053 183.865 247.3 179.701 247.3C177.674 247.3 175.559 246.75 174.127 245.736L175.471 243.158C176.573 243.996 178.093 244.48 179.613 244.48C181.309 244.48 182.345 243.775 182.345 242.586C182.345 241.44 181.596 240.691 178.952 240.691H175.229L175.978 232.473H184.879V235.183H178.798L178.577 237.959H179.767C184.041 237.959 185.76 239.898 185.76 242.475Z" fill="#263238"/>
<path d="M256.154 150.337C256.154 155.383 253.135 158.203 248.707 158.203C247.165 158.203 245.688 157.85 244.653 157.211L245.909 154.722C246.702 155.273 247.649 155.449 248.641 155.449C251.064 155.449 252.65 154.017 252.739 151.197C251.879 152.056 250.624 152.519 249.103 152.519C246.283 152.519 244.08 150.734 244.08 147.98C244.08 145.006 246.526 143.133 249.61 143.133C253.664 143.111 256.154 145.623 256.154 150.337ZM252.386 147.804C252.386 146.548 251.439 145.645 249.852 145.645C248.42 145.645 247.407 146.482 247.407 147.804C247.407 149.148 248.376 149.985 249.897 149.985C251.351 149.985 252.386 149.06 252.386 147.804Z" fill="#263238"/>
<path d="M248.088 232.471V247.057H244.717V235.181H241.809V232.471H248.088Z" fill="#263238"/>
<path d="M262.669 242.453C262.669 245.427 260.223 247.3 257.139 247.3C253.107 247.3 250.617 244.788 250.617 240.073C250.617 235.028 253.658 232.208 258.064 232.208C259.606 232.208 261.104 232.561 262.14 233.199L260.884 235.689C260.069 235.138 259.144 234.962 258.152 234.962C255.707 234.962 254.142 236.394 254.054 239.192C254.913 238.333 256.147 237.892 257.667 237.892C260.466 237.914 262.669 239.699 262.669 242.453ZM259.408 242.629C259.408 241.285 258.439 240.448 256.918 240.448C255.442 240.448 254.385 241.373 254.385 242.629C254.385 243.885 255.332 244.788 256.94 244.788C258.395 244.788 259.408 243.973 259.408 242.629Z" fill="#263238"/>
<path d="M322.467 143.353V157.938H319.096V146.063H316.188V143.353H322.467Z" fill="#263238"/>
<path d="M324.998 150.646C324.998 145.821 327.664 143.111 331.255 143.111C334.868 143.111 337.512 145.843 337.512 150.646C337.512 155.471 334.868 158.181 331.255 158.181C327.664 158.203 324.998 155.471 324.998 150.646ZM334.119 150.646C334.119 147.341 332.952 145.953 331.255 145.953C329.581 145.953 328.413 147.319 328.413 150.646C328.413 153.951 329.581 155.339 331.255 155.339C332.952 155.339 334.119 153.973 334.119 150.646Z" fill="#263238"/>
<path d="M324.607 232.473V247.058H321.236V235.183H318.328V232.473H324.607Z" fill="#263238"/>
<path d="M338.575 232.473V234.654L333.156 247.058H329.498L334.72 235.227H329.895V237.606H326.898V232.473H338.575Z" fill="#263238"/>
<path d="M402.336 143.354V157.939H398.965V146.064H396.057V143.354H402.336Z" fill="#263238"/>
<path d="M410.486 143.354V157.939H407.115V146.063H404.207V143.354H410.486Z" fill="#263238"/>
<path d="M400.549 232.471V247.057H397.178V235.181H394.27V232.471H400.549Z" fill="#263238"/>
<path d="M415.288 242.827C415.288 245.581 412.82 247.299 409.119 247.299C405.44 247.299 402.994 245.559 402.994 242.827C402.994 241.263 403.809 240.095 405.197 239.39C404.118 238.729 403.501 237.693 403.501 236.394C403.501 233.838 405.792 232.229 409.097 232.229C412.446 232.229 414.737 233.838 414.737 236.394C414.737 237.715 414.12 238.729 413.019 239.39C414.495 240.095 415.288 241.263 415.288 242.827ZM411.873 242.739C411.873 241.439 410.816 240.646 409.119 240.646C407.445 240.646 406.409 241.439 406.409 242.739C406.409 244.039 407.445 244.854 409.119 244.854C410.816 244.832 411.873 244.017 411.873 242.739ZM406.872 236.548C406.872 237.649 407.753 238.332 409.119 238.332C410.507 238.332 411.41 237.649 411.41 236.548C411.41 235.402 410.485 234.719 409.119 234.719C407.775 234.697 406.872 235.402 406.872 236.548Z" fill="#263238"/>
<path d="M477.136 143.353V157.938H473.766V146.063H470.857V143.353H477.136Z" fill="#263238"/>
<path d="M490.576 155.185V157.939H479.56V155.757L485.178 150.448C486.478 149.214 486.698 148.465 486.698 147.76C486.698 146.614 485.905 145.953 484.363 145.953C483.107 145.953 482.05 146.438 481.345 147.407L478.877 145.821C480.001 144.169 482.05 143.111 484.671 143.111C487.932 143.111 490.091 144.786 490.091 147.429C490.091 148.839 489.695 150.139 487.646 152.034L484.297 155.207H490.576V155.185Z" fill="#263238"/>
<path d="M477.136 232.472V247.057H473.766V235.182H470.857V232.472H477.136Z" fill="#263238"/>
<path d="M491.323 239.456C491.323 244.502 488.305 247.322 483.877 247.322C482.334 247.322 480.858 246.969 479.823 246.33L481.079 243.841C481.872 244.391 482.819 244.568 483.811 244.568C486.234 244.568 487.82 243.136 487.909 240.315C487.049 241.175 485.793 241.637 484.273 241.637C481.453 241.637 479.25 239.853 479.25 237.099C479.25 234.125 481.696 232.23 484.78 232.23C488.834 232.23 491.323 234.741 491.323 239.456ZM487.556 236.923C487.556 235.667 486.609 234.763 485.022 234.763C483.59 234.763 482.577 235.601 482.577 236.923C482.577 238.267 483.568 239.104 485.066 239.104C486.521 239.104 487.556 238.178 487.556 236.923Z" fill="#263238"/>
<path d="M24.7986 327.166V329.92H13.7826V327.739L19.4008 322.429C20.7006 321.195 20.921 320.446 20.921 319.741C20.921 318.596 20.1278 317.935 18.5856 317.935C17.3298 317.935 16.2722 318.419 15.5672 319.389L13.0996 317.802C14.2232 316.15 16.2722 315.093 18.894 315.093C22.1548 315.093 24.3139 316.767 24.3139 319.411C24.3139 320.821 23.9173 322.121 21.8684 324.015L18.5195 327.188H24.7986V327.166Z" fill="#263238"/>
<path d="M26.1426 322.627C26.1426 317.824 28.8085 315.092 32.3997 315.092C36.0129 315.092 38.6567 317.824 38.6567 322.627C38.6567 327.452 36.0129 330.162 32.3997 330.162C28.8085 330.184 26.1426 327.452 26.1426 322.627ZM35.2638 322.627C35.2638 319.322 34.0961 317.934 32.3997 317.934C30.7253 317.934 29.5575 319.3 29.5575 322.627C29.5575 325.932 30.7253 327.32 32.3997 327.32C34.0961 327.32 35.2638 325.954 35.2638 322.627Z" fill="#263238"/>
<path d="M101.843 327.166V329.92H90.8275V327.739L96.4457 322.429C97.7455 321.195 97.9659 320.446 97.9659 319.741C97.9659 318.595 97.1727 317.934 95.6305 317.934C94.3747 317.934 93.3172 318.419 92.6121 319.389L90.1445 317.802C91.2682 316.15 93.3171 315.092 95.9389 315.092C99.1997 315.092 101.359 316.767 101.359 319.411C101.359 320.821 100.962 322.12 98.9133 324.015L95.5644 327.188H101.843V327.166Z" fill="#263238"/>
<path d="M108.849 315.334V329.92H105.479V318.044H102.57V315.334H108.849Z" fill="#263238"/>
<path d="M178.295 327.166V329.92H167.279V327.739L172.897 322.429C174.197 321.196 174.417 320.447 174.417 319.742C174.417 318.596 173.624 317.935 172.082 317.935C170.826 317.935 169.768 318.42 169.063 319.389L166.596 317.803C167.719 316.15 169.768 315.093 172.39 315.093C175.651 315.093 177.81 316.767 177.81 319.411C177.81 320.821 177.413 322.121 175.364 324.016L172.016 327.188H178.295V327.166Z" fill="#263238"/>
<path d="M190.59 327.166V329.92H179.574V327.739L185.192 322.429C186.492 321.195 186.712 320.446 186.712 319.741C186.712 318.596 185.919 317.935 184.377 317.935C183.121 317.935 182.063 318.419 181.358 319.389L178.891 317.802C180.014 316.15 182.063 315.093 184.685 315.093C187.946 315.093 190.105 316.767 190.105 319.411C190.105 320.821 189.708 322.121 187.659 324.015L184.311 327.188H190.59V327.166Z" fill="#263238"/>
<path d="M255.406 327.166V329.92H244.39V327.739L250.008 322.429C251.308 321.195 251.528 320.446 251.528 319.741C251.528 318.595 250.735 317.934 249.193 317.934C247.937 317.934 246.88 318.419 246.175 319.389L243.707 317.802C244.831 316.15 246.88 315.092 249.501 315.092C252.762 315.092 254.921 316.767 254.921 319.411C254.921 320.821 254.525 322.12 252.476 324.015L249.127 327.188H255.406V327.166Z" fill="#263238"/>
<path d="M267.564 325.469C267.564 327.937 265.669 330.184 261.527 330.184C259.478 330.184 257.385 329.633 255.953 328.62L257.275 326.042C258.377 326.879 259.919 327.364 261.439 327.364C263.136 327.364 264.171 326.681 264.171 325.491C264.171 324.389 263.356 323.706 261.439 323.706H259.897V321.481L262.893 318.088H256.68V315.378H266.903V317.56L263.598 321.305C266.242 321.702 267.564 323.31 267.564 325.469Z" fill="#263238"/>
<path d="M327.734 327.166V329.92H316.718V327.739L322.336 322.429C323.636 321.195 323.857 320.446 323.857 319.741C323.857 318.596 323.063 317.935 321.521 317.935C320.265 317.935 319.208 318.419 318.503 319.389L316.035 317.802C317.159 316.15 319.208 315.093 321.83 315.093C325.09 315.093 327.249 316.767 327.249 319.411C327.249 320.821 326.853 322.121 324.804 324.015L321.455 327.188H327.734V327.166Z" fill="#263238"/>
<path d="M342.301 326.857H339.922V329.92H336.639V326.857H328.773V324.588L335.647 315.335H339.195L332.805 324.103H336.727V321.371H339.922V324.103H342.301V326.857Z" fill="#263238"/>
<path d="M407.601 327.166V329.92H396.585V327.739L402.204 322.429C403.503 321.195 403.724 320.446 403.724 319.741C403.724 318.596 402.931 317.935 401.388 317.935C400.132 317.935 399.075 318.419 398.37 319.389L395.902 317.802C397.026 316.15 399.075 315.093 401.697 315.093C404.957 315.093 407.117 316.767 407.117 319.411C407.117 320.821 406.72 322.121 404.671 324.015L401.322 327.188H407.601V327.166Z" fill="#263238"/>
<path d="M420.027 325.337C420.027 327.915 418.133 330.162 413.969 330.162C411.942 330.162 409.827 329.611 408.395 328.598L409.738 326.02C410.84 326.857 412.36 327.342 413.88 327.342C415.577 327.342 416.612 326.637 416.612 325.447C416.612 324.302 415.863 323.553 413.22 323.553H409.496L410.245 315.335H419.146V318.045H413.065L412.845 320.821H414.035C418.309 320.821 420.027 322.76 420.027 325.337Z" fill="#263238"/>
<path d="M482.4 327.165V329.919H471.384V327.738L477.002 322.428C478.302 321.195 478.523 320.446 478.523 319.741C478.523 318.595 477.729 317.934 476.187 317.934C474.931 317.934 473.874 318.419 473.169 319.388L470.701 317.802C471.825 316.149 473.874 315.092 476.496 315.092C479.756 315.092 481.915 316.766 481.915 319.41C481.915 320.82 481.519 322.12 479.47 324.015L476.121 327.187H482.4V327.165Z" fill="#263238"/>
<path d="M495.796 325.316C495.796 328.29 493.35 330.163 490.266 330.163C486.234 330.163 483.744 327.651 483.744 322.936C483.744 317.891 486.785 315.071 491.191 315.071C492.733 315.071 494.231 315.423 495.245 316.062L493.989 318.552C493.174 318.001 492.249 317.825 491.257 317.825C488.812 317.825 487.247 319.257 487.159 322.055C488.018 321.196 489.252 320.755 490.772 320.755C493.592 320.777 495.796 322.562 495.796 325.316ZM492.535 325.492C492.535 324.148 491.566 323.311 490.045 323.311C488.569 323.311 487.534 324.236 487.534 325.492C487.534 326.748 488.481 327.651 490.089 327.651C491.521 327.651 492.535 326.814 492.535 325.492Z" fill="#263238"/>
<path d="M24.7986 410.05V412.804H13.7826V410.623L19.4008 405.314C20.7006 404.08 20.921 403.331 20.921 402.626C20.921 401.48 20.1278 400.819 18.5856 400.819C17.3298 400.819 16.2722 401.304 15.5672 402.273L13.0996 400.687C14.2232 399.035 16.2722 397.977 18.894 397.977C22.1548 397.977 24.3139 399.651 24.3139 402.295C24.3139 403.705 23.9173 405.005 21.8684 406.9L18.5195 410.073H24.7986V410.05Z" fill="#263238"/>
<path d="M37.5774 398.197V400.378L32.1575 412.782H28.5002L33.7218 400.951H28.8967V403.331H25.9004V398.197H37.5774Z" fill="#263238"/>
<path d="M99.5076 410.028V412.782H88.4916V410.601L94.1097 405.292C95.4096 404.058 95.63 403.309 95.63 402.604C95.63 401.458 94.8368 400.797 93.2946 400.797C92.0387 400.797 90.9812 401.282 90.2762 402.251L87.8086 400.665C88.9322 399.012 90.9812 397.955 93.603 397.955C96.8637 397.955 99.0229 399.629 99.0229 402.273C99.0229 403.683 98.6263 404.983 96.5773 406.878L93.2285 410.05H99.5076V410.028Z" fill="#263238"/>
<path d="M113.13 408.552C113.13 411.306 110.662 413.025 106.961 413.025C103.281 413.025 100.836 411.284 100.836 408.552C100.836 406.988 101.651 405.82 103.039 405.115C101.96 404.454 101.343 403.419 101.343 402.119C101.343 399.563 103.634 397.955 106.939 397.955C110.288 397.955 112.579 399.563 112.579 402.119C112.579 403.441 111.962 404.454 110.86 405.115C112.315 405.82 113.13 406.988 113.13 408.552ZM109.693 408.464C109.693 407.164 108.635 406.371 106.939 406.371C105.264 406.371 104.229 407.164 104.229 408.464C104.229 409.764 105.264 410.579 106.939 410.579C108.635 410.557 109.693 409.742 109.693 408.464ZM104.692 402.273C104.692 403.374 105.573 404.057 106.939 404.057C108.327 404.057 109.23 403.374 109.23 402.273C109.23 401.127 108.305 400.444 106.939 400.444C105.595 400.422 104.692 401.127 104.692 402.273Z" fill="#263238"/>
<path d="M174.898 410.05V412.803H163.882V410.622L169.5 405.313C170.8 404.079 171.021 403.33 171.021 402.625C171.021 401.479 170.227 400.818 168.685 400.818C167.429 400.818 166.372 401.303 165.667 402.272L163.199 400.686C164.323 399.034 166.372 397.976 168.994 397.976C172.254 397.976 174.413 399.65 174.413 402.294C174.413 403.704 174.017 405.004 171.968 406.899L168.619 410.072H174.898V410.05Z" fill="#263238"/>
<path d="M187.938 405.181C187.938 410.226 184.92 413.046 180.491 413.046C178.949 413.046 177.473 412.694 176.46 412.055L177.715 409.565C178.509 410.116 179.456 410.292 180.447 410.292C182.871 410.292 184.457 408.86 184.545 406.04C183.686 406.899 182.43 407.362 180.91 407.362C178.09 407.362 175.887 405.577 175.887 402.823C175.887 399.849 178.332 397.954 181.417 397.954C185.471 397.954 187.938 400.466 187.938 405.181ZM184.171 402.647C184.171 401.391 183.223 400.488 181.637 400.488C180.205 400.488 179.192 401.325 179.192 402.647C179.192 403.991 180.161 404.828 181.681 404.828C183.135 404.828 184.171 403.903 184.171 402.647Z" fill="#263238"/>
<path d="M249.48 408.331C249.48 410.799 247.585 413.046 243.443 413.046C241.394 413.046 239.301 412.495 237.869 411.482L239.191 408.904C240.293 409.741 241.835 410.226 243.355 410.226C245.052 410.226 246.087 409.543 246.087 408.353C246.087 407.252 245.272 406.569 243.355 406.569H241.813V404.344L244.809 400.951H238.596V398.241H248.819V400.422L245.536 404.167C248.136 404.564 249.48 406.194 249.48 408.331Z" fill="#263238"/>
<path d="M251.045 405.49C251.045 400.687 253.711 397.955 257.302 397.955C260.915 397.955 263.559 400.687 263.559 405.49C263.559 410.315 260.915 413.025 257.302 413.025C253.711 413.047 251.045 410.315 251.045 405.49ZM260.144 405.49C260.144 402.185 258.976 400.797 257.28 400.797C255.606 400.797 254.438 402.163 254.438 405.49C254.438 408.795 255.606 410.183 257.28 410.183C258.976 410.183 260.144 408.817 260.144 405.49Z" fill="#263238"/>
<path d="M327.625 408.331C327.625 410.798 325.73 413.045 321.588 413.045C319.539 413.045 317.446 412.495 316.014 411.481L317.336 408.903C318.437 409.741 319.979 410.225 321.5 410.225C323.196 410.225 324.232 409.542 324.232 408.353C324.232 407.251 323.416 406.568 321.5 406.568H319.957V404.343L322.954 400.95H316.741V398.24H326.964V400.421L323.681 404.167C326.281 404.563 327.625 406.193 327.625 408.331Z" fill="#263238"/>
<path d="M334.808 398.198V412.783H331.437V400.908H328.529V398.198H334.808Z" fill="#263238"/>
<path d="M253.422 68.6211V71.3751H242.406V69.194L248.024 63.8843C249.324 62.6505 249.544 61.9014 249.544 61.1964C249.544 60.0507 248.751 59.3897 247.209 59.3897C245.953 59.3897 244.895 59.8744 244.19 60.8438L241.723 59.2575C242.846 57.6051 244.895 56.5476 247.517 56.5476C250.778 56.5476 252.937 58.222 252.937 60.8659C252.937 62.2759 252.54 63.5758 250.491 65.4705L247.143 68.6432H253.422V68.6211Z" fill="#263238"/>
<path d="M329.92 66.9024C329.92 69.37 328.025 71.6172 323.883 71.6172C321.834 71.6172 319.741 71.0444 318.309 70.053L319.631 67.4752C320.732 68.3124 322.274 68.7972 323.795 68.7972C325.491 68.7972 326.527 68.1142 326.527 66.9244C326.527 65.8228 325.711 65.1398 323.795 65.1398H322.252V62.9146L325.249 59.5217H319.036V56.8118H329.259V58.9929L325.976 62.7384C328.598 63.1349 329.92 64.7653 329.92 66.9024Z" fill="#263238"/>
<path d="M408.131 68.2903H405.752V71.3528H402.469V68.2903H394.604V66.021L401.478 56.7676H405.025L398.635 65.5363H402.557V62.8044H405.752V65.5363H408.131V68.2903Z" fill="#263238"/>
<path d="M483.412 66.7704C483.412 69.3481 481.517 71.5954 477.353 71.5954C475.326 71.5954 473.211 71.0225 471.779 70.0311L473.123 67.4534C474.225 68.2906 475.745 68.7753 477.265 68.7753C478.962 68.7753 479.997 68.0703 479.997 66.8805C479.997 65.7349 479.248 64.9858 476.604 64.9858H472.881L473.63 56.7678H482.531V59.4778H476.45L476.23 62.2538H477.419C481.716 62.2538 483.412 64.1926 483.412 66.7704Z" fill="#263238"/>
<path d="M249.285 1.53345L245.363 13.3866H243.027L240.097 4.61791L237.123 13.3866H234.765L230.844 1.53345H233.135L236.087 10.5445L239.15 1.53345H241.177L244.173 10.5886L247.214 1.53345H249.285Z" fill="#E0E0E0"/>
<path d="M258.65 9.55319H251.556C251.82 10.8751 252.922 11.7123 254.486 11.7123C255.5 11.7123 256.293 11.3818 256.954 10.7209L258.099 12.0208C257.284 12.9902 256.006 13.4969 254.464 13.4969C251.424 13.4969 249.463 11.5581 249.463 8.84817C249.463 6.16026 251.446 4.22144 254.134 4.22144C256.778 4.22144 258.716 6.07213 258.716 8.89222C258.694 9.09051 258.672 9.3549 258.65 9.55319ZM251.534 8.14315H256.667C256.491 6.84326 255.5 5.93995 254.112 5.93995C252.746 5.93995 251.754 6.82123 251.534 8.14315Z" fill="#E0E0E0"/>
<path d="M269.579 0.82866V13.4089H267.552V12.2412C266.847 13.1005 265.789 13.5191 264.555 13.5191C261.934 13.5191 259.973 11.6904 259.973 8.87033C259.973 6.05024 261.911 4.24362 264.555 4.24362C265.723 4.24362 266.759 4.64021 267.464 5.45539V0.806641H269.579V0.82866ZM267.508 8.87033C267.508 7.15184 266.34 6.05024 264.82 6.05024C263.299 6.05024 262.132 7.15184 262.132 8.87033C262.132 10.5888 263.299 11.6904 264.82 11.6904C266.318 11.7125 267.508 10.6109 267.508 8.87033Z" fill="#E0E0E0"/>
<path d="M315.791 3.40665H311.869V1.53394H321.938V3.40665H318.016V13.4091H315.813V3.40665H315.791Z" fill="#E0E0E0"/>
<path d="M332.269 8.20934V13.3868H330.154V8.47371C330.154 6.86538 329.36 6.09427 327.994 6.09427C326.496 6.09427 325.461 7.01961 325.461 8.82623V13.4089H323.346V0.828613H325.461V5.41127C326.166 4.66218 327.223 4.26561 328.479 4.26561C330.66 4.24358 332.269 5.47737 332.269 8.20934Z" fill="#E0E0E0"/>
<path d="M343.727 4.354V13.4091H341.7V12.2635C341.017 13.1007 339.96 13.5413 338.792 13.5413C336.479 13.5413 334.893 12.2635 334.893 9.55354V4.37602H337.008V9.24509C337.008 10.8975 337.779 11.6686 339.123 11.6686C340.599 11.6686 341.59 10.7432 341.59 8.93663V4.354H343.727Z" fill="#E0E0E0"/>
<path d="M398.77 3.38408V6.99732H404.498V8.87003H398.77V13.4086H396.566V1.55542H405.225V3.40611H398.77V3.38408Z" fill="#E0E0E0"/>
<path d="M412.231 4.24316V6.24808C412.055 6.20402 411.901 6.20401 411.747 6.20401C410.138 6.20401 409.125 7.15139 409.125 9.00208V13.3864H407.01V4.33129H409.015V5.65321C409.61 4.72787 410.711 4.24316 412.231 4.24316Z" fill="#E0E0E0"/>
<path d="M413.729 1.59963C413.729 0.894612 414.301 0.321777 415.094 0.321777C415.866 0.321777 416.461 0.850551 416.461 1.53354C416.461 2.28263 415.91 2.85545 415.094 2.85545C414.301 2.85545 413.729 2.30466 413.729 1.59963ZM414.015 4.35363H416.13V13.4088H414.015V4.35363Z" fill="#E0E0E0"/>
<path d="M470.59 12.1531L471.361 10.4346C472.308 11.2057 473.829 11.7345 475.283 11.7345C477.133 11.7345 477.904 11.0735 477.904 10.1923C477.904 7.63654 470.854 9.31099 470.854 4.90458C470.854 2.98779 472.374 1.35742 475.635 1.35742C477.067 1.35742 478.543 1.73196 479.579 2.41495L478.874 4.13345C477.816 3.51655 476.649 3.2081 475.613 3.2081C473.784 3.2081 473.035 3.91314 473.035 4.81645C473.035 7.35013 480.064 5.69773 480.064 10.0601C480.064 11.9548 478.521 13.5852 475.261 13.5852C473.432 13.5632 471.581 12.9903 470.59 12.1531Z" fill="#E0E0E0"/>
<path d="M489.626 8.09923V13.4089H487.621V12.3073C487.114 13.0785 486.123 13.5191 484.779 13.5191C482.708 13.5191 481.408 12.3734 481.408 10.8092C481.408 9.311 482.422 8.12127 485.176 8.12127H487.511V7.98906C487.511 6.75527 486.762 6.02822 485.264 6.02822C484.25 6.02822 483.193 6.35871 482.51 6.93154L481.673 5.38931C482.642 4.64022 484.052 4.26567 485.506 4.26567C488.106 4.24364 489.626 5.47742 489.626 8.09923ZM487.489 10.5668V9.50928H485.308C483.876 9.50928 483.479 10.0601 483.479 10.721C483.479 11.4922 484.118 11.9769 485.198 11.9769C486.255 11.9769 487.137 11.4922 487.489 10.5668Z" fill="#E0E0E0"/>
<path d="M497.753 12.9022C497.247 13.2988 496.475 13.5191 495.726 13.5191C493.743 13.5191 492.598 12.4616 492.598 10.4787V6.11634H491.1V4.41989H492.598V2.34888H494.713V4.41989H497.136V6.11634H494.713V10.4126C494.713 11.2939 495.154 11.7786 495.969 11.7786C496.409 11.7786 496.828 11.6684 497.158 11.404L497.753 12.9022Z" fill="#E0E0E0"/>
<path d="M323.436 277.198C323.436 280.084 321.101 282.398 318.237 282.398C315.372 282.398 313.037 280.062 313.037 277.198C313.037 274.334 315.372 271.999 318.237 271.999C321.101 271.999 323.436 274.312 323.436 277.198Z" fill="#FFDB58"/>
<path d="M323.436 351.843C323.436 354.707 321.101 357.042 318.237 357.042C315.372 357.042 313.037 354.707 313.037 351.843C313.037 348.978 315.372 346.643 318.237 346.643C321.101 346.621 323.436 348.956 323.436 351.843Z" fill="#FFDB58"/>
<path d="M318.217 191.185C321.089 191.185 323.417 188.857 323.417 185.985C323.417 183.114 321.089 180.786 318.217 180.786C315.345 180.786 313.018 183.114 313.018 185.985C313.018 188.857 315.345 191.185 318.217 191.185Z" fill="#FFDB58"/>
<path d="M95.3424 357.041C95.3424 359.905 93.007 362.241 90.1429 362.241C87.2787 362.241 84.9434 359.905 84.9434 357.041C84.9434 354.177 87.2787 351.842 90.1429 351.842C93.007 351.842 95.3424 354.155 95.3424 357.041Z" fill="#FFDB58"/>
<path d="M170.956 430.959C170.956 433.845 168.62 436.158 165.756 436.158C162.87 436.158 160.557 433.823 160.557 430.959C160.557 428.094 162.892 425.759 165.756 425.759C168.62 425.737 170.956 428.072 170.956 430.959Z" fill="#FFDB58"/>
<path d="M95.3229 266.777C95.3229 269.641 92.9875 271.976 90.1234 271.976C87.2592 271.976 84.9238 269.641 84.9238 266.777C84.9238 263.913 87.2592 261.577 90.1234 261.577C93.0095 261.577 95.3229 263.913 95.3229 266.777Z" fill="#FFDB58"/>
<path d="M244.102 96.7338C246.974 96.7338 249.301 94.4059 249.301 91.5343C249.301 88.6626 246.974 86.3347 244.102 86.3347C241.23 86.3347 238.902 88.6626 238.902 91.5343C238.902 94.4059 241.23 96.7338 244.102 96.7338Z" fill="#FFDB58"/>
<path d="M260.692 96.7338C263.563 96.7338 265.891 94.4059 265.891 91.5343C265.891 88.6626 263.563 86.3347 260.692 86.3347C257.82 86.3347 255.492 88.6626 255.492 91.5343C255.492 94.4059 257.82 96.7338 260.692 96.7338Z" fill="#FFDB58"/>
<path d="M318.217 96.7338C321.089 96.7338 323.417 94.4059 323.417 91.5343C323.417 88.6626 321.089 86.3347 318.217 86.3347C315.345 86.3347 313.018 88.6626 313.018 91.5343C313.018 94.4059 315.345 96.7338 318.217 96.7338Z" fill="#FFDB58"/>
<path d="M334.809 96.7338C337.681 96.7338 340.009 94.4059 340.009 91.5343C340.009 88.6626 337.681 86.3347 334.809 86.3347C331.937 86.3347 329.609 88.6626 329.609 91.5343C329.609 94.4059 331.937 96.7338 334.809 96.7338Z" fill="#FFDB58"/>
<g opacity="0.6">
<path opacity="0.6" d="M334.809 96.7338C337.681 96.7338 340.009 94.4059 340.009 91.5343C340.009 88.6626 337.681 86.3347 334.809 86.3347C331.937 86.3347 329.609 88.6626 329.609 91.5343C329.609 94.4059 331.937 96.7338 334.809 96.7338Z" fill="white"/>
</g>
<path d="M334.809 191.185C337.681 191.185 340.009 188.857 340.009 185.985C340.009 183.114 337.681 180.786 334.809 180.786C331.937 180.786 329.609 183.114 329.609 185.985C329.609 188.857 331.937 191.185 334.809 191.185Z" fill="#FFDB58"/>
<g opacity="0.6">
<path opacity="0.6" d="M334.809 191.185C337.681 191.185 340.009 188.857 340.009 185.985C340.009 183.114 337.681 180.786 334.809 180.786C331.937 180.786 329.609 183.114 329.609 185.985C329.609 188.857 331.937 191.185 334.809 191.185Z" fill="white"/>
</g>
<path d="M340.028 277.704C340.028 280.568 337.693 282.903 334.828 282.903C331.964 282.903 329.629 280.568 329.629 277.704C329.629 274.84 331.964 272.504 334.828 272.504C337.693 272.504 340.028 274.84 340.028 277.704Z" fill="#FFDB58"/>
<g opacity="0.6">
<path opacity="0.6" d="M340.028 277.704C340.028 280.568 337.693 282.903 334.828 282.903C331.964 282.903 329.629 280.568 329.629 277.704C329.629 274.84 331.964 272.504 334.828 272.504C337.693 272.504 340.028 274.84 340.028 277.704Z" fill="white"/>
</g>
<path d="M341.173 351.842C341.173 354.706 338.837 357.042 335.973 357.042C333.109 357.042 330.773 354.706 330.773 351.842C330.773 348.978 333.109 346.642 335.973 346.642C338.837 346.62 341.173 348.956 341.173 351.842Z" fill="#FFDB58"/>
<path d="M193.938 351.842C193.938 354.706 191.603 357.042 188.739 357.042C185.852 357.042 183.539 354.706 183.539 351.842C183.539 348.978 185.874 346.643 188.739 346.643C191.603 346.621 193.938 348.956 193.938 351.842Z" fill="#FFDB58"/>
<g opacity="0.6">
<path opacity="0.6" d="M193.938 351.842C193.938 354.706 191.603 357.042 188.739 357.042C185.852 357.042 183.539 354.706 183.539 351.842C183.539 348.978 185.874 346.643 188.739 346.643C191.603 346.621 193.938 348.956 193.938 351.842Z" fill="white"/>
</g>
<g opacity="0.6">
<path opacity="0.6" d="M260.692 96.7338C263.563 96.7338 265.891 94.4059 265.891 91.5343C265.891 88.6626 263.563 86.3347 260.692 86.3347C257.82 86.3347 255.492 88.6626 255.492 91.5343C255.492 94.4059 257.82 96.7338 260.692 96.7338Z" fill="white"/>
</g>
</svg>
