<svg width="220" height="38" viewBox="0 0 220 38" fill="none" xmlns="http://www.w3.org/2000/svg">
<path d="M51.4102 32.5903L53.0185 28.9991C55.0014 30.6074 58.174 31.731 61.2144 31.731C65.092 31.731 66.7224 30.343 66.7224 28.4923C66.7224 23.1385 51.961 26.6416 51.961 17.4102C51.961 13.4004 55.1556 9.98547 61.9635 9.98547C64.9378 9.98547 68.0663 10.7566 70.2255 12.1887L68.7713 15.7799C66.5241 14.458 64.0785 13.819 61.9194 13.819C58.0858 13.819 56.5216 15.3172 56.5216 17.1899C56.5216 22.4776 71.261 19.0406 71.261 28.1618C71.261 32.1276 68.0223 35.5425 61.2144 35.5425C57.3368 35.5646 53.4591 34.3748 51.4102 32.5903Z" fill="#FFDB58"/>
<path d="M73.8379 25.738C73.8379 20.0537 78.0901 16.0439 84.1048 16.0439C87.8061 16.0439 90.7364 17.5642 92.1905 20.4503L88.7755 22.4332C87.6299 20.6266 85.9334 19.8114 84.0607 19.8114C80.8 19.8114 78.3104 22.0807 78.3104 25.738C78.3104 29.4394 80.8 31.6646 84.0607 31.6646C85.9334 31.6646 87.6519 30.8494 88.7755 29.0428L92.1905 31.0257C90.7364 33.8678 87.7841 35.4541 84.1048 35.4541C78.1121 35.4761 73.8379 31.4222 73.8379 25.738Z" fill="#FFDB58"/>
<path d="M114.532 24.3505V35.2122H110.104V24.9233C110.104 21.5524 108.429 19.922 105.587 19.922C102.437 19.922 100.3 21.8388 100.3 25.6283V35.2122H95.8711V8.88403H100.3V18.4679C101.754 16.9037 104.001 16.0444 106.623 16.0444C111.161 16.0444 114.532 18.6442 114.532 24.3505Z" fill="#FFDB58"/>
<path d="M138.106 27.1485H123.235C123.763 29.9245 126.077 31.6871 129.381 31.6871C131.519 31.6871 133.171 31.0041 134.537 29.6381L136.916 32.37C135.22 34.397 132.554 35.4545 129.293 35.4545C122.948 35.4545 118.828 31.3786 118.828 25.7164C118.828 20.0762 122.992 16.0223 128.632 16.0223C134.162 16.0223 138.216 19.9 138.216 25.8266C138.172 26.2011 138.15 26.7299 138.106 27.1485ZM123.19 24.2182H133.942C133.59 21.4863 131.497 19.6135 128.588 19.6135C125.724 19.5915 123.631 21.4422 123.19 24.2182Z" fill="#FFDB58"/>
<path d="M161.021 8.88385V35.2341H156.769V32.7885C155.271 34.5952 153.068 35.4764 150.49 35.4764C144.982 35.4764 140.906 31.6429 140.906 25.7383C140.906 19.8558 144.982 16.0442 150.49 16.0442C152.936 16.0442 155.095 16.8594 156.593 18.5999V8.86182H161.021V8.88385ZM156.637 25.7383C156.637 22.1251 154.192 19.8117 150.997 19.8117C147.802 19.8117 145.357 22.1251 145.357 25.7383C145.357 29.3515 147.802 31.6649 150.997 31.6649C154.192 31.6649 156.637 29.3515 156.637 25.7383Z" fill="#FFDB58"/>
<path d="M185.188 16.2643V35.2118H180.958V32.7883C179.548 34.5288 177.301 35.4541 174.856 35.4541C169.986 35.4541 166.682 32.7882 166.682 27.082V16.2643H171.11V26.4871C171.11 29.9241 172.74 31.5545 175.538 31.5545C178.623 31.5545 180.716 29.6377 180.716 25.8482V16.2643H185.188Z" fill="#FFDB58"/>
<path d="M191.002 8.88403H195.43V35.2343H191.002V8.88403Z" fill="#FFDB58"/>
<path d="M219.028 27.1485H204.156C204.685 29.9245 206.999 31.6871 210.303 31.6871C212.44 31.6871 214.093 31.0041 215.459 29.6381L217.838 32.37C216.142 34.397 213.476 35.4545 210.215 35.4545C203.87 35.4545 199.75 31.3786 199.75 25.7164C199.75 20.0762 203.914 16.0223 209.554 16.0223C215.084 16.0223 219.138 19.9 219.138 25.8266C219.094 26.2011 219.05 26.7299 219.028 27.1485ZM204.112 24.2182H214.864C214.511 21.4863 212.418 19.6135 209.51 19.6135C206.624 19.5915 204.531 21.4422 204.112 24.2182Z" fill="#FFDB58"/>
<path d="M30.0821 37.5254H5.18601C2.78452 37.5254 0.845703 35.5865 0.845703 33.1851V10.9107C0.845703 8.50925 2.78452 6.57043 5.18601 6.57043H30.0821C32.4836 6.57043 34.4224 8.50925 34.4224 10.9107V33.1851C34.4224 35.5865 32.4836 37.5254 30.0821 37.5254ZM5.18601 8.77363C4.01831 8.77363 3.0489 9.72101 3.0489 10.9107V33.1851C3.0489 34.3528 3.99628 35.3222 5.18601 35.3222H30.0821C31.2498 35.3222 32.2193 34.3748 32.2193 33.1851V10.9107C32.2193 9.74304 31.2719 8.77363 30.0821 8.77363H5.18601Z" fill="#FFDB58"/>
<path d="M8.77744 10.1616H8.29273C7.03691 10.1616 6.02344 9.14815 6.02344 7.89233V3.08936C6.02344 1.83354 7.03691 0.820068 8.29273 0.820068H8.77744C10.0333 0.820068 11.0467 1.83354 11.0467 3.08936V7.89233C11.0467 9.14815 10.0333 10.1616 8.77744 10.1616Z" fill="#FFDB58"/>
<path d="M25.961 10.1616H25.4763C24.2205 10.1616 23.207 9.14815 23.207 7.89233V3.08936C23.207 1.83354 24.2205 0.820068 25.4763 0.820068H25.961C27.2168 0.820068 28.2303 1.83354 28.2303 3.08936V7.89233C28.2303 9.14815 27.2168 10.1616 25.961 10.1616Z" fill="#FFDB58"/>
<path d="M14.8138 15.4932H9.8125V20.4944H14.8138V15.4932Z" fill="#FFDB58"/>
<path d="M24.7923 15.4932H19.791V20.4944H24.7923V15.4932Z" fill="#FFDB58"/>
<path d="M14.8138 24.9452H9.8125V29.9464H14.8138V24.9452Z" fill="#FFDB58"/>
<path d="M24.7923 24.9452H19.791V29.9464H24.7923V24.9452Z" fill="#FFDB58"/>
</svg>
