<svg width="13" height="10" viewBox="0 0 13 10" fill="none" xmlns="http://www.w3.org/2000/svg">
<path d="M8.53125 5.53125C8.53125 6.06997 8.31724 6.58663 7.93631 6.96756C7.55538 7.34849 7.03872 7.5625 6.5 7.5625C5.96128 7.5625 5.44462 7.34849 5.06369 6.96756C4.68276 6.58663 4.46875 6.06997 4.46875 5.53125C4.46875 4.99253 4.68276 4.47587 5.06369 4.09494C5.44462 3.71401 5.96128 3.5 6.5 3.5C7.03872 3.5 7.55538 3.71401 7.93631 4.09494C8.31724 4.47587 8.53125 4.99253 8.53125 5.53125Z" fill="#A6A6A6"/>
<path fill-rule="evenodd" clip-rule="evenodd" d="M1.625 1.875C1.19402 1.875 0.780698 2.0462 0.475951 2.35095C0.171205 2.6557 0 3.06902 0 3.5L0 8.375C0 8.80598 0.171205 9.2193 0.475951 9.52405C0.780698 9.82879 1.19402 10 1.625 10H11.375C11.806 10 12.2193 9.82879 12.524 9.52405C12.8288 9.2193 13 8.80598 13 8.375V3.5C13 3.06902 12.8288 2.6557 12.524 2.35095C12.2193 2.0462 11.806 1.875 11.375 1.875H10.4228C9.99181 1.87491 9.57855 1.70364 9.27387 1.39887L8.60113 0.726125C8.29645 0.421357 7.88319 0.250092 7.45225 0.25H5.54775C5.11681 0.250092 4.70355 0.421357 4.39888 0.726125L3.72613 1.39887C3.42145 1.70364 3.00819 1.87491 2.57725 1.875H1.625ZM2.03125 3.5C2.13899 3.5 2.24233 3.4572 2.31851 3.38101C2.3947 3.30483 2.4375 3.20149 2.4375 3.09375C2.4375 2.98601 2.3947 2.88267 2.31851 2.80649C2.24233 2.7303 2.13899 2.6875 2.03125 2.6875C1.92351 2.6875 1.82017 2.7303 1.74399 2.80649C1.6678 2.88267 1.625 2.98601 1.625 3.09375C1.625 3.20149 1.6678 3.30483 1.74399 3.38101C1.82017 3.4572 1.92351 3.5 2.03125 3.5ZM9.34375 5.53125C9.34375 6.28546 9.04414 7.00878 8.51083 7.54208C7.97753 8.07539 7.25421 8.375 6.5 8.375C5.74579 8.375 5.02247 8.07539 4.48917 7.54208C3.95586 7.00878 3.65625 6.28546 3.65625 5.53125C3.65625 4.77704 3.95586 4.05372 4.48917 3.52042C5.02247 2.98711 5.74579 2.6875 6.5 2.6875C7.25421 2.6875 7.97753 2.98711 8.51083 3.52042C9.04414 4.05372 9.34375 4.77704 9.34375 5.53125Z" fill="#A6A6A6"/>
</svg>
