<svg width="11" height="8" viewBox="0 0 11 8" fill="none" xmlns="http://www.w3.org/2000/svg">
<path fill-rule="evenodd" clip-rule="evenodd" d="M0 1.29167C0 0.949095 0.144866 0.620555 0.402728 0.37832C0.660591 0.136086 1.01033 0 1.375 0H9.625C9.98967 0 10.3394 0.136086 10.5973 0.37832C10.8551 0.620555 11 0.949095 11 1.29167V4.52083H0V1.29167ZM7.90625 1.9375C7.81508 1.9375 7.72765 1.97152 7.66318 2.03208C7.59872 2.09264 7.5625 2.17477 7.5625 2.26042V2.90625C7.5625 2.99189 7.59872 3.07403 7.66318 3.13459C7.72765 3.19515 7.81508 3.22917 7.90625 3.22917H9.28125C9.37242 3.22917 9.45985 3.19515 9.52432 3.13459C9.58878 3.07403 9.625 2.99189 9.625 2.90625V2.26042C9.625 2.17477 9.58878 2.09264 9.52432 2.03208C9.45985 1.97152 9.37242 1.9375 9.28125 1.9375H7.90625Z" fill="#A6A6A6"/>
<path d="M0 5.8125V6.45833C0 6.8009 0.144866 7.12944 0.402728 7.37168C0.660591 7.61391 1.01033 7.75 1.375 7.75H9.625C9.98967 7.75 10.3394 7.61391 10.5973 7.37168C10.8551 7.12944 11 6.8009 11 6.45833V5.8125H0Z" fill="#A6A6A6"/>
</svg>
