<svg width="17" height="17" viewBox="0 0 17 17" fill="none" xmlns="http://www.w3.org/2000/svg">
<path d="M16.3463 0.235471C16.1883 0.130998 16.0117 0.0592621 15.8265 0.0243623C15.6413 -0.0105375 15.4512 -0.00791776 15.267 0.0320717C15.0828 0.0720612 14.9082 0.148637 14.753 0.257424C14.5979 0.366212 14.4653 0.50508 14.3629 0.666094L6.32671 13.2881L2.4076 9.59569C2.26933 9.46541 2.10723 9.36416 1.93056 9.29772C1.75389 9.23128 1.5661 9.20095 1.37793 9.20846C0.997886 9.22362 0.639324 9.392 0.381119 9.67655C0.122914 9.96111 -0.0137829 10.3385 0.00109947 10.7258C0.0159819 11.113 0.181225 11.4784 0.460477 11.7415L5.60628 16.5894C5.60628 16.5894 5.754 16.719 5.82236 16.7643C5.98035 16.8689 6.15702 16.9407 6.34225 16.9756C6.52749 17.0105 6.71766 17.0079 6.90191 16.9679C7.08616 16.928 7.26087 16.8514 7.41605 16.7425C7.57123 16.6337 7.70384 16.4948 7.8063 16.3337L16.7689 2.25658C16.8714 2.09561 16.9418 1.91563 16.9761 1.72693C17.0103 1.53823 17.0078 1.3445 16.9685 1.15681C16.9293 0.969123 16.8541 0.791153 16.7474 0.633066C16.6406 0.47498 16.5043 0.339875 16.3463 0.235471Z" fill="white"/>
</svg>
