<svg width="30" height="30" viewBox="0 0 30 30" fill="none" xmlns="http://www.w3.org/2000/svg">
<circle cx="15" cy="15" r="14.5" fill="white" stroke="#A6A6A6"/>
<path d="M13.2725 18.7754C13.2725 17.693 13.4067 16.8304 13.6753 16.1875C13.9438 15.5446 14.4728 14.8407 15.2622 14.0757C16.0597 13.3026 16.5643 12.7533 16.7759 12.4277C17.1014 11.9313 17.2642 11.3942 17.2642 10.8164C17.2642 10.0514 17.0729 9.46956 16.6904 9.0708C16.3161 8.6639 15.7627 8.46045 15.0303 8.46045C14.3304 8.46045 13.7648 8.65983 13.3335 9.05859C12.9103 9.44922 12.6987 9.98226 12.6987 10.6577H9.73242C9.7487 9.21729 10.237 8.07796 11.1973 7.23975C12.1657 6.40153 13.4434 5.98242 15.0303 5.98242C16.666 5.98242 17.9396 6.39746 18.8511 7.22754C19.7707 8.05762 20.2305 9.21729 20.2305 10.7065C20.2305 12.033 19.612 13.3392 18.375 14.625L16.8735 16.1021C16.3364 16.7124 16.0597 17.6035 16.0435 18.7754H13.2725ZM13.0649 22.5718C13.0649 22.0916 13.2155 21.7051 13.5166 21.4121C13.8177 21.111 14.2246 20.9604 14.7373 20.9604C15.2581 20.9604 15.6691 21.1151 15.9702 21.4243C16.2713 21.7254 16.4219 22.1079 16.4219 22.5718C16.4219 23.0194 16.2754 23.3937 15.9824 23.6948C15.6895 23.9959 15.2744 24.1465 14.7373 24.1465C14.2002 24.1465 13.7852 23.9959 13.4922 23.6948C13.2074 23.3937 13.0649 23.0194 13.0649 22.5718Z" fill="#A6A6A6"/>
</svg>
