<svg width="577" height="302" viewBox="0 0 577 302" fill="none" xmlns="http://www.w3.org/2000/svg">
<g clip-path="url(#clip0)">
<path d="M572.903 49.7271C572.903 49.7271 565.96 45.4911 558.285 62.0031C550.602 78.5151 547.811 87.9754 547.811 87.9754C547.811 87.9754 545.751 91.4556 543.334 89.3127C540.917 87.1781 537.495 80.9902 533.575 82.2693C529.505 83.5899 528.318 88.2329 529.339 94.9523C530.369 101.672 532.08 116.473 532.23 117.81C532.379 119.122 531.69 121.091 529.813 119.903C527.935 118.707 516.972 107.353 511.897 112.876C506.822 118.4 512.761 136.648 513.367 138.649C513.982 140.659 513.616 141.54 512.669 142.071C511.722 142.611 508.4 138.442 505.153 135.344C501.905 132.237 497.586 129.214 494.928 132.644C492.262 136.074 491.872 149.945 505.85 171.939L512.993 181.707L525.095 180.594C550.851 176.64 561.034 167.221 561.865 162.952C562.695 158.691 557.579 157.437 553.102 157.03C548.625 156.623 543.301 156.864 543.085 155.801C542.869 154.738 543.293 153.882 545.203 153.018C547.114 152.155 564.763 144.621 565.577 137.163C566.391 129.704 550.627 128.923 548.492 128.292C546.358 127.661 547.388 125.85 548.476 125.094C549.58 124.322 561.856 115.875 567.587 112.228C573.318 108.582 576.035 104.629 574.348 100.692C572.729 96.8959 565.818 98.3909 562.621 97.9756C559.423 97.5603 560.685 93.723 560.685 93.723C560.685 93.723 565.968 85.3923 573.352 68.7391C580.727 52.0859 572.762 49.6274 572.762 49.6274" fill="#F5F5F5"/>
<path d="M566.001 64.5032C566.001 64.5032 565.96 64.6278 565.869 64.8603C565.761 65.1095 565.619 65.45 565.437 65.8902C565.038 66.8122 564.465 68.1411 563.726 69.8438C562.239 73.2741 560.038 78.2244 557.305 84.3209C551.84 96.5305 544.149 113.325 535.594 131.847C527.039 150.377 519.306 167.155 513.774 179.331C511.017 185.411 508.791 190.337 507.238 193.759C506.474 195.445 505.876 196.765 505.46 197.679C505.261 198.111 505.103 198.451 504.987 198.692C504.879 198.916 504.812 199.033 504.812 199.033C504.812 199.033 504.854 198.908 504.945 198.676C505.053 198.426 505.195 198.086 505.377 197.646C505.776 196.724 506.349 195.395 507.088 193.692C508.575 190.262 510.768 185.311 513.509 179.215C518.974 167.005 526.665 150.211 535.22 131.681C543.775 113.159 551.508 96.3809 557.039 84.2046C559.797 78.1247 562.023 73.1994 563.576 69.7774C564.34 68.0913 564.947 66.7707 565.362 65.857C565.561 65.4251 565.719 65.0846 565.835 64.8437C565.935 64.6111 566.001 64.5032 566.001 64.5032Z" fill="#E0E0E0"/>
<path d="M538.01 91.1152C538.035 91.1069 538.159 91.3976 538.351 91.9208C538.55 92.4441 538.807 93.2165 539.123 94.1717C539.746 96.082 540.527 98.7482 541.341 101.705C542.13 104.612 542.844 107.245 543.392 109.28C543.641 110.177 543.849 110.941 544.023 111.572C544.173 112.112 544.248 112.42 544.214 112.428C544.19 112.436 544.065 112.154 543.866 111.622C543.675 111.091 543.409 110.327 543.11 109.363C542.512 107.444 541.756 104.77 540.942 101.813C540.136 98.906 539.405 96.2814 538.841 94.2548C538.591 93.3577 538.375 92.5936 538.201 91.9624C538.052 91.4308 537.985 91.1235 538.01 91.1152Z" fill="#E0E0E0"/>
<path d="M545.336 112.602C545.303 112.494 550.718 110.625 557.438 108.433C564.157 106.232 569.639 104.546 569.672 104.654C569.705 104.762 564.29 106.63 557.571 108.823C550.851 111.016 545.369 112.71 545.336 112.602Z" fill="#E0E0E0"/>
<path d="M530.909 140.468C530.909 140.443 531.225 140.41 531.798 140.385C532.462 140.36 533.268 140.335 534.223 140.302C536.275 140.227 539.099 140.119 542.213 139.887C545.328 139.663 548.144 139.355 550.179 139.123C551.126 139.015 551.931 138.923 552.587 138.849C553.16 138.791 553.476 138.766 553.476 138.799C553.484 138.824 553.169 138.898 552.604 139.006C552.039 139.114 551.225 139.256 550.204 139.405C548.177 139.712 545.353 140.061 542.23 140.286C539.107 140.518 536.266 140.585 534.215 140.585C533.185 140.576 532.354 140.568 531.781 140.535C531.233 140.518 530.909 140.493 530.909 140.468Z" fill="#E0E0E0"/>
<path d="M520.012 122.486C520.037 122.47 520.211 122.702 520.518 123.142C520.817 123.583 521.241 124.214 521.764 125.011C522.802 126.598 524.206 128.807 525.734 131.257C527.263 133.707 528.633 135.942 529.605 137.57C530.095 138.384 530.477 139.048 530.735 139.505C530.992 139.97 531.125 140.227 531.1 140.244C531.075 140.261 530.901 140.028 530.593 139.588C530.294 139.148 529.871 138.516 529.347 137.719C528.309 136.133 526.906 133.923 525.377 131.465C523.849 129.015 522.479 126.78 521.507 125.152C521.025 124.338 520.635 123.674 520.377 123.217C520.12 122.76 519.987 122.503 520.012 122.486Z" fill="#E0E0E0"/>
<path d="M504.148 145.46C504.173 145.444 504.397 145.751 504.779 146.307C505.203 146.939 505.742 147.744 506.382 148.699C507.719 150.726 509.538 153.542 511.532 156.673C513.525 159.796 515.311 162.645 516.582 164.713C517.18 165.701 517.678 166.524 518.077 167.172C518.417 167.761 518.6 168.085 518.575 168.102C518.55 168.118 518.326 167.811 517.944 167.255C517.52 166.623 516.98 165.818 516.341 164.863C515.003 162.836 513.185 160.02 511.191 156.889C509.198 153.766 507.412 150.925 506.141 148.857C505.543 147.869 505.045 147.047 504.646 146.399C504.306 145.809 504.123 145.477 504.148 145.46Z" fill="#E0E0E0"/>
<path d="M518.393 167.462C518.393 167.437 518.791 167.387 519.522 167.338C520.328 167.279 521.358 167.205 522.595 167.122C525.187 166.939 528.775 166.673 532.72 166.266C536.665 165.867 540.229 165.419 542.812 165.07C544.041 164.904 545.071 164.771 545.868 164.671C546.591 164.58 546.989 164.538 546.998 164.572C547.006 164.597 546.607 164.688 545.893 164.829C545.179 164.97 544.141 165.153 542.853 165.361C540.287 165.776 536.715 166.274 532.762 166.673C528.808 167.08 525.212 167.296 522.612 167.404C521.308 167.454 520.261 167.487 519.53 167.487C518.791 167.495 518.393 167.487 518.393 167.462Z" fill="#E0E0E0"/>
<path d="M78.2993 131.532C97.6768 118.599 102.403 94.1304 101.988 72.0702C101.921 68.3824 102.386 64.5119 100.667 61.256C98.9393 58.0001 94.8363 55.7326 91.4724 57.236C88.6816 58.4818 87.4275 61.6464 85.8327 64.2544C83.7148 67.7262 80.6001 70.5751 76.9538 72.3692C74.5617 73.5486 71.6132 74.2463 69.2875 72.934C66.0981 71.1316 65.7825 66.7461 65.8655 63.0833C66.015 56.2642 66.1645 49.4368 66.314 42.6177C66.3971 38.9548 66.4635 35.2172 65.3672 31.7288C64.2708 28.2403 61.7707 24.9678 58.2574 23.9462C54.744 22.9163 50.3502 24.8598 49.5446 28.4313C49.2123 29.9181 49.4947 31.4713 49.3701 32.9912C49.2456 34.5112 48.498 36.1807 47.0279 36.5794C45.5412 36.9863 44.071 35.9232 42.983 34.8351C39.2121 31.0809 36.6871 26.2801 34.3366 21.5043C31.9777 16.7284 29.7019 11.8529 26.2882 7.76644C22.8745 3.67997 18.1236 0.415778 12.8162 0.0420159C7.50045 -0.348358 1.79434 2.80786 0.365741 7.93255C-1.06286 13.0739 1.91062 18.3564 5.16651 22.584C9.9922 28.8549 15.7398 34.4282 22.1519 39.0628C23.3064 39.9017 24.5606 40.807 24.9925 42.1692C25.7567 44.6194 23.3812 47.0115 20.9227 47.7756C18.1402 48.6394 15.1501 48.3155 12.2514 48.6062C9.35265 48.8969 6.19643 50.1096 5.06684 52.7923C3.48873 56.5134 6.60342 60.4835 9.67658 63.0999C15.8478 68.3409 22.9161 72.5104 30.4827 75.3759C33.1987 76.4058 36.0559 77.3111 38.2237 79.2381C40.3915 81.1651 41.6706 84.4708 40.3002 87.029C38.9297 89.5955 35.5077 90.3679 32.6505 89.8031C29.8016 89.2383 27.2683 87.6685 24.5606 86.6137C19.4941 84.6369 12.8992 84.8861 9.5686 89.1885C7.37586 92.0125 7.12669 95.991 8.15661 99.413C9.18653 102.835 11.346 105.8 13.6385 108.541C21.6619 118.126 32.0027 125.9 43.7637 130.12C55.5414 134.339 66.4802 135.601 78.2993 131.532Z" fill="#EBEBEB"/>
<path d="M76.779 131.963C73.6643 120.792 65.1259 94.4953 60.0427 82.1279C58.7636 79.0465 57.4929 75.9899 56.2387 72.9832C54.9845 69.9848 53.7469 67.0113 52.3432 64.179C49.5774 58.4979 46.471 53.2486 43.3729 48.3564C40.2749 43.456 37.1519 38.921 34.195 34.7017C31.2298 30.4823 28.3975 26.6035 25.6649 23.1815C20.2163 16.3125 15.1663 11.2875 11.5533 7.97349C9.75093 6.31232 8.31402 5.06645 7.32563 4.23586C6.84389 3.83719 6.47013 3.52156 6.20434 3.29731C5.94686 3.08966 5.80566 2.98999 5.80566 2.98999C5.80566 2.98999 5.92195 3.11458 6.16282 3.33884C6.4286 3.5797 6.78575 3.90363 7.25088 4.31892C8.21435 5.18273 9.62635 6.44522 11.4038 8.1313C14.967 11.4869 19.9588 16.5368 25.3576 23.4223C28.0653 26.8526 30.881 30.7398 33.8212 34.9674C36.7615 39.2034 39.8679 43.7384 42.9493 48.6388C46.0308 53.531 49.1123 58.772 51.8698 64.4282C53.2569 67.2522 54.4861 70.2008 55.7403 73.2075C56.9862 76.2142 58.257 79.2624 59.5361 82.3439C64.6193 94.703 73.1576 120.966 76.2973 132.104" fill="#E0E0E0"/>
<path d="M52.2112 64.1293C52.2527 64.1376 52.3773 63.5811 52.5767 62.5678C52.776 61.5545 53.0252 60.0843 53.3076 58.2654C53.8807 54.6274 54.4953 49.5775 55.1681 44.0042C55.8409 38.431 56.5468 33.406 57.1947 29.7847C57.5103 27.974 57.7844 26.5122 57.9921 25.5072C58.1914 24.5021 58.2828 23.9374 58.2495 23.929C58.2163 23.9207 58.0502 24.4689 57.7844 25.4656C57.5103 26.4623 57.1781 27.9158 56.8126 29.7182C56.0651 33.3312 55.2927 38.3646 54.6199 43.9461C53.9637 49.4695 53.3657 54.4696 52.9172 58.2155C52.6929 59.9597 52.5019 61.4133 52.3524 62.5345C52.2278 63.5562 52.178 64.121 52.2112 64.1293Z" fill="#E0E0E0"/>
<path d="M4.65137 54.6192C4.65137 54.6358 4.81748 54.669 5.14141 54.7022C5.53179 54.7438 5.99691 54.7853 6.5534 54.8434C7.77436 54.9597 9.5435 55.1258 11.7279 55.3999C16.0885 55.9149 22.0936 56.8534 28.6635 58.1741C35.2334 59.5113 41.1306 60.9731 45.3665 62.1692C47.4845 62.7506 49.1872 63.2655 50.3667 63.6144C50.9065 63.7722 51.3551 63.9051 51.7288 64.0131C52.0444 64.0961 52.2106 64.1377 52.2189 64.1127C52.2272 64.0961 52.0694 64.0214 51.7703 63.9051C51.4049 63.7722 50.9647 63.6061 50.4414 63.4067C49.2869 62.9915 47.5925 62.4184 45.4828 61.7871C41.2718 60.4997 35.3746 58.9714 28.7798 57.6259C22.1933 56.2969 16.1632 55.4248 11.7778 55.0012C9.58503 54.777 7.80758 54.669 6.57832 54.6109C6.01352 54.5943 5.5484 54.5859 5.15802 54.5693C4.82579 54.5943 4.65967 54.6026 4.65137 54.6192Z" fill="#E0E0E0"/>
<path d="M72.178 116.747C72.1947 116.755 72.3026 116.556 72.502 116.174C72.7179 115.733 72.992 115.169 73.3326 114.479C74.0469 113.009 75.0352 110.85 76.223 108.167C78.5984 102.801 81.6467 95.3011 84.9109 86.9704C88.1751 78.6396 91.1652 71.1229 93.441 65.7241C94.5706 63.0828 95.4925 60.915 96.1653 59.3452C96.4643 58.6392 96.7135 58.0578 96.9045 57.6093C97.0706 57.2106 97.1454 56.9946 97.1288 56.9863C97.1122 56.978 97.0042 57.1774 96.8048 57.5594C96.5889 57.9996 96.3148 58.5644 95.9743 59.2538C95.26 60.724 94.2716 62.8835 93.0838 65.5663C90.7084 70.9318 87.6601 78.432 84.3959 86.7627C81.1317 95.0852 78.1416 102.61 75.8658 108.001C74.7362 110.642 73.8143 112.81 73.1415 114.38C72.8425 115.094 72.5933 115.667 72.4023 116.116C72.2362 116.523 72.1614 116.738 72.178 116.747Z" fill="#E0E0E0"/>
<path d="M9.11156 95.6415C9.10325 95.6582 9.3192 95.7495 9.7428 95.899C10.2162 96.0568 10.8226 96.2645 11.5784 96.522C13.2396 97.0784 15.532 97.8426 18.3393 98.7728C24.0454 100.683 31.8945 103.416 40.5574 106.456C49.2204 109.496 57.0943 112.178 62.842 113.989C65.7158 114.894 68.0414 115.609 69.6611 116.074C70.4252 116.29 71.0481 116.464 71.5299 116.597C71.9618 116.713 72.186 116.763 72.1943 116.747C72.2027 116.73 71.9867 116.639 71.5631 116.489C71.0897 116.331 70.4833 116.124 69.7275 115.866C68.0663 115.31 65.7739 114.546 62.9666 113.615C57.2605 111.705 49.4115 108.972 40.7485 105.932C32.0855 102.893 24.2116 100.218 18.4722 98.3991C15.5984 97.4937 13.2728 96.7794 11.6531 96.3143C10.889 96.0984 10.2661 95.9239 9.78433 95.791C9.34412 95.6748 9.11986 95.6249 9.11156 95.6415Z" fill="#E0E0E0"/>
<path d="M397.218 3.57153H475.376H501.938L481.447 18.14V30.2997C481.447 42.7169 471.231 52.7836 458.631 52.7836H392.924C380.324 52.7836 370.107 42.7169 370.107 30.2997C370.091 15.5319 382.234 3.57153 397.218 3.57153Z" fill="#F5F5F5"/>
<path d="M463.781 19.8261C463.781 19.9423 446.297 20.042 424.735 20.042C403.165 20.042 385.689 19.9423 385.689 19.8261C385.689 19.7098 403.165 19.6101 424.735 19.6101C446.297 19.6101 463.781 19.7098 463.781 19.8261Z" fill="#E0E0E0"/>
<path d="M463.781 27.9159C463.781 28.0322 446.297 28.1319 424.735 28.1319C403.165 28.1319 385.689 28.0322 385.689 27.9159C385.689 27.7996 403.165 27.7 424.735 27.7C446.297 27.7 463.781 27.7996 463.781 27.9159Z" fill="#E0E0E0"/>
<path d="M238.353 252.788H140.618H114.446L134.629 267.356V296.011C134.629 299.317 137.312 301.992 140.61 301.992H238.353C241.658 301.992 244.333 299.309 244.333 296.011V258.776C244.341 255.471 241.658 252.788 238.353 252.788Z" fill="#F5F5F5"/>
<path d="M233.187 273.046C233.187 273.162 214.498 273.262 191.45 273.262C168.393 273.262 149.713 273.162 149.713 273.046C149.713 272.929 168.401 272.83 191.45 272.83C214.498 272.83 233.187 272.921 233.187 273.046Z" fill="#E0E0E0"/>
<path d="M233.187 284.043C233.187 284.159 214.498 284.259 191.45 284.259C168.393 284.259 149.713 284.159 149.713 284.043C149.713 283.926 168.401 283.827 191.45 283.827C214.498 283.827 233.187 283.926 233.187 284.043Z" fill="#E0E0E0"/>
<path d="M491.34 294.035H346.32C328.529 294.035 314.102 279.608 314.102 261.816V143.791C314.102 125.999 328.529 111.572 346.32 111.572H491.34C509.131 111.572 523.558 125.999 523.558 143.791V261.825C523.558 279.608 509.131 294.035 491.34 294.035Z" fill="#FFDB58"/>
<g opacity="0.4">
<g opacity="0.4">
<path opacity="0.4" d="M491.34 294.035H346.32C328.529 294.035 314.102 279.608 314.102 261.816V143.791C314.102 125.999 328.529 111.572 346.32 111.572H491.34C509.131 111.572 523.558 125.999 523.558 143.791V261.825C523.558 279.608 509.131 294.035 491.34 294.035Z" fill="black"/>
</g>
</g>
<path d="M523.5 175.187H554.871L522.794 207.264L523.5 175.187Z" fill="#FFDB58"/>
<g opacity="0.4">
<g opacity="0.4">
<path opacity="0.4" d="M523.5 175.187H554.871L522.794 207.264L523.5 175.187Z" fill="black"/>
</g>
</g>
<path d="M309.093 194.905L295.945 179.987C292.39 176.432 291.169 174.713 291.884 174.09C292.831 173.26 292.424 173.534 299.808 179.082C299.808 179.082 289.342 171.075 292.972 171.025C293.611 171.017 295.389 172.055 297.291 173.301C294.699 171.1 293.985 169.613 294.475 168.907C295.322 167.686 301.726 172.122 304.666 174.265C302.258 172.471 297.665 168.982 296.851 167.894C295.746 166.399 297.989 166.524 299.816 167.147C301.867 167.844 313.205 173.633 316.56 175.128C318.869 176.158 319.683 174.065 319.683 174.065C320.921 168.874 324.659 165.485 326.095 165.045C327.541 164.605 328.629 166.441 327.607 167.761C326.785 168.833 325.954 171.025 325.398 172.695C324.941 174.074 324.7 175.511 324.725 176.956C324.75 178.633 324.841 180.054 324.949 181.258L336.96 197.745L316.859 209.398L309.093 194.905Z" fill="#B78876"/>
<path d="M304.367 181.374C304.235 181.565 301.892 179.954 299.151 177.786C296.402 175.618 294.301 173.716 294.459 173.542C294.608 173.368 296.95 174.971 299.675 177.13C302.399 179.281 304.509 181.183 304.367 181.374Z" fill="#AA6550"/>
<path d="M306.934 178.75C306.801 178.941 304.218 177.371 301.161 175.236C298.105 173.11 295.738 171.225 295.871 171.034C296.003 170.843 298.587 172.412 301.643 174.547C304.691 176.682 307.067 178.559 306.934 178.75Z" fill="#AA6550"/>
<path d="M308.795 175.959C308.662 176.15 306.195 174.705 303.271 172.728C300.356 170.751 298.088 168.99 298.221 168.799C298.354 168.608 300.821 170.054 303.745 172.03C306.66 174.007 308.919 175.768 308.795 175.959Z" fill="#AA6550"/>
<path d="M326.079 183.526L373.987 244.274L363.015 269.815C363.015 269.815 349.875 266.908 345.889 261.368C341.902 255.828 309.094 194.896 309.094 194.896L326.079 183.526Z" fill="#B78876"/>
<path d="M447.694 98.5156C451.141 101.506 451.132 106.772 450.734 111.315C450.335 115.858 450.036 121.033 453.175 124.338C455.767 127.063 460.476 128.251 461.083 131.963C461.365 133.691 460.46 135.56 458.915 136.399C457.378 137.246 455.318 137.005 454.006 135.842C455.019 138.774 454.322 142.437 451.78 144.214C449.238 145.992 444.986 144.895 444.197 141.897C444.679 143.882 443.225 146.116 441.215 146.482C439.205 146.847 437.054 145.269 436.805 143.243" fill="#263238"/>
<path d="M398.332 129.181C397.476 131.448 394.586 132.686 392.351 131.755C390.117 130.825 388.971 127.893 389.984 125.692C390.773 123.965 392.642 122.719 392.825 120.825C393.041 118.533 390.707 116.905 388.63 115.908C386.554 114.911 384.137 113.615 383.913 111.323C383.697 109.114 385.674 107.394 387.326 105.916C388.979 104.438 390.616 102.153 389.594 100.177C389.071 99.1716 387.983 98.5902 387.285 97.6932C385.732 95.7164 386.546 92.5685 388.522 91.0153C390.499 89.4621 393.249 89.2462 395.724 89.6947C398.199 90.1432 400.524 91.1648 402.941 91.8791C410.89 94.2463 419.827 93.0751 426.895 88.7395" fill="#263238"/>
<path d="M413.041 182.745C421.97 184.547 430.7 178.858 432.635 169.954L444.421 115.916C447.519 102.768 439.155 89.6616 425.932 86.929L424.694 86.7463C412.244 84.919 400.483 92.9674 397.667 105.227C395.043 116.631 392.293 129.272 391.463 135.477C389.743 148.317 402.277 152.196 402.277 152.196L400.026 163.019C398.141 172.055 403.98 180.909 413.041 182.745Z" fill="#B78876"/>
<path d="M399.967 113.698C399.793 114.662 400.457 115.6 401.462 115.808C402.459 116.007 403.414 115.393 403.589 114.438C403.763 113.474 403.098 112.536 402.094 112.328C401.097 112.12 400.142 112.735 399.967 113.698Z" fill="#263238"/>
<path d="M399.494 111.904C399.685 112.178 401.222 111.356 403.19 111.647C405.159 111.913 406.463 113.134 406.712 112.926C406.836 112.835 406.662 112.369 406.105 111.821C405.549 111.273 404.561 110.675 403.331 110.501C402.102 110.326 401.006 110.625 400.341 111.007C399.668 111.381 399.403 111.78 399.494 111.904Z" fill="#263238"/>
<path d="M419.229 116.896C419.055 117.86 419.719 118.798 420.724 119.006C421.721 119.205 422.676 118.591 422.85 117.635C423.025 116.672 422.36 115.733 421.355 115.526C420.359 115.318 419.403 115.933 419.229 116.896Z" fill="#263238"/>
<path d="M418.813 115.11C419.004 115.385 420.541 114.562 422.509 114.853C424.478 115.119 425.782 116.34 426.031 116.132C426.147 116.041 425.989 115.576 425.416 115.027C424.86 114.479 423.871 113.881 422.642 113.707C421.413 113.532 420.317 113.831 419.652 114.213C418.979 114.587 418.714 114.986 418.813 115.11Z" fill="#263238"/>
<path d="M409.519 128.674C409.544 128.566 408.348 128.175 406.404 127.627C405.906 127.503 405.449 127.328 405.416 126.979C405.349 126.597 405.64 126.091 405.972 125.534C406.62 124.388 407.31 123.184 408.024 121.921C410.889 116.771 413.041 112.502 412.833 112.386C412.625 112.27 410.133 116.356 407.268 121.506C406.57 122.777 405.914 123.989 405.275 125.152C405 125.692 404.577 126.298 404.726 127.087C404.809 127.486 405.133 127.81 405.449 127.943C405.756 128.092 406.039 128.134 406.288 128.184C408.256 128.591 409.494 128.782 409.519 128.674Z" fill="#263238"/>
<path d="M419.428 107.311C419.545 107.876 421.546 107.909 423.822 108.524C426.106 109.097 427.867 110.044 428.249 109.612C428.423 109.404 428.166 108.848 427.493 108.225C426.82 107.594 425.699 106.929 424.337 106.572C422.975 106.215 421.671 106.248 420.774 106.472C419.877 106.688 419.387 107.045 419.428 107.311Z" fill="#263238"/>
<path d="M401.056 106.306C401.338 106.805 402.759 106.539 404.395 106.755C406.039 106.913 407.368 107.494 407.75 107.079C407.925 106.871 407.767 106.389 407.227 105.883C406.696 105.376 405.749 104.886 404.619 104.753C403.489 104.629 402.46 104.886 401.828 105.26C401.189 105.634 400.931 106.065 401.056 106.306Z" fill="#263238"/>
<path d="M432.56 99.8195C432.584 99.8444 432.601 99.861 432.618 99.8859C434.42 101.796 435.433 104.33 435.408 106.954C435.408 107.046 435.408 107.137 435.408 107.22C435.375 110.949 434.736 114.654 434.744 118.391C434.744 122.121 435.467 126.024 437.801 128.931C438.756 130.127 440.616 131.132 441.713 130.053C442.136 129.637 442.286 129.023 442.419 128.441C444.395 119.712 447.95 112.228 449.288 102.992C449.653 100.476 448.814 97.9507 446.987 96.1815C445.259 94.512 443.108 92.7346 440.807 93.4323C438.507 94.1383 435.134 97.7513 433.224 99.2131" fill="#263238"/>
<path d="M439.247 121.082C439.479 121.016 448.441 119.77 446.871 128.491C445.31 137.212 436.871 133.849 436.904 133.591C436.929 133.342 439.247 121.082 439.247 121.082Z" fill="#B78876"/>
<path d="M440.161 130.767C440.202 130.742 440.294 130.9 440.526 131.066C440.759 131.224 441.174 131.382 441.656 131.29C442.636 131.116 443.674 129.795 443.998 128.225C444.164 127.436 444.131 126.647 443.965 125.975C443.815 125.285 443.483 124.77 443.034 124.604C442.594 124.413 442.212 124.637 442.063 124.862C441.905 125.086 441.93 125.269 441.88 125.277C441.855 125.293 441.722 125.094 441.855 124.754C441.921 124.587 442.063 124.396 442.295 124.272C442.536 124.139 442.86 124.106 443.176 124.197C443.84 124.363 444.338 125.094 444.521 125.833C444.745 126.589 444.795 127.47 444.613 128.358C444.239 130.103 443.043 131.589 441.722 131.73C441.083 131.78 440.601 131.506 440.377 131.249C440.136 130.983 440.127 130.775 440.161 130.767Z" fill="#AA6550"/>
<path d="M440.899 94.8361C443.573 91.6466 438.399 85.7412 434.271 83.7478C430.143 81.7544 424.138 83.0252 419.619 83.8225C416.77 84.3292 413.88 85.1847 411.039 84.6531C409.137 84.296 407.41 83.3242 405.691 82.4272C403.971 81.5218 402.177 80.6497 400.242 80.5002C398.307 80.3507 396.189 81.0816 395.2 82.7511C394.212 84.4206 394.901 87.0037 396.762 87.5519C394.527 85.8658 390.765 87.1033 389.968 89.7861C389.17 92.4689 391.654 95.5587 394.444 95.3593C393.34 94.2298 391.197 95.5089 391.122 97.0953C391.047 98.6734 392.293 100.011 393.63 100.85C397.052 102.992 401.388 103.1 405.358 102.386C409.328 101.663 413.124 100.193 417.078 99.3794C421.031 98.5654 427.668 97.0288 431.239 98.9059C433.872 100.293 435.309 103.914 436.979 103.399C438.598 102.909 439.786 101.464 440.334 99.8611C440.882 98.2498 440.891 96.5222 440.899 94.8361Z" fill="#263238"/>
<path d="M457.984 135.344C457.984 135.344 458.159 135.319 458.441 135.144C458.724 134.978 459.106 134.638 459.388 134.064C459.654 133.5 459.828 132.702 459.67 131.814C459.529 130.908 458.94 129.995 458.101 129.247C457.253 128.5 456.157 127.918 454.961 127.411C453.773 126.896 452.461 126.44 451.282 125.634C450.102 124.845 449.172 123.616 448.615 122.17C448.042 120.734 447.81 119.106 447.843 117.453C447.934 114.122 448.856 111.016 449.08 108.084C449.355 105.168 448.923 102.403 447.685 100.501C446.456 98.5985 444.745 97.66 443.541 97.3859C442.934 97.2281 442.444 97.2364 442.12 97.2447C441.796 97.2779 441.622 97.3028 441.63 97.3194C441.63 97.3776 442.328 97.2198 443.499 97.552C444.653 97.8676 446.273 98.8145 447.419 100.667C448.574 102.511 448.973 105.185 448.674 108.051C448.433 110.924 447.494 114.031 447.403 117.444C447.369 119.147 447.61 120.833 448.217 122.337C448.806 123.84 449.803 125.152 451.057 125.975C452.303 126.805 453.64 127.262 454.82 127.752C456.008 128.234 457.079 128.782 457.901 129.48C458.715 130.177 459.272 131.024 459.43 131.855C459.596 132.686 459.463 133.442 459.23 133.99C458.724 135.111 457.935 135.294 457.984 135.344Z" fill="#455A64"/>
<path d="M396.479 87.3524C396.488 87.3441 396.355 87.2776 396.097 87.153C395.973 87.0866 395.806 87.0201 395.607 86.962C395.408 86.8872 395.175 86.8208 394.901 86.7793C393.846 86.5633 392.069 86.7377 390.499 88.1248L390.491 88.1331C389.428 89.3375 388.738 91.2395 388.921 93.3326C389.062 95.4339 390.208 97.6599 392.127 99.2546C394.029 100.874 396.62 101.888 399.386 102.178C402.16 102.486 405.076 102.203 408.008 101.647C412.784 100.733 417.128 98.9058 420.716 96.738C422.526 95.6914 424.237 94.6864 425.957 94.0136C427.668 93.3243 429.379 93.0252 430.94 92.992C434.088 92.9339 436.555 93.8724 438.1 94.6864C439.653 95.517 440.384 96.1981 440.417 96.1482C440.417 96.1482 439.736 95.4173 438.183 94.5369C436.646 93.6731 434.155 92.6681 430.94 92.6847C429.345 92.693 427.576 92.9837 425.824 93.6731C424.063 94.3459 422.319 95.3509 420.508 96.3891C416.928 98.5237 412.642 100.309 407.916 101.215C405.018 101.763 402.135 102.037 399.428 101.755C396.72 101.481 394.22 100.509 392.376 98.9639C390.516 97.4356 389.403 95.326 389.253 93.3159C389.054 91.3059 389.693 89.4787 390.682 88.3075L390.673 88.3158C392.127 86.9786 393.846 86.7543 394.876 86.9288C395.948 87.0783 396.463 87.4022 396.479 87.3524Z" fill="#455A64"/>
<path d="M401.338 80.0848C401.338 80.0848 401.247 80.8157 401.645 82.045C402.052 83.2576 403.116 84.9354 405.084 86.1813C406.056 86.8125 407.227 87.3441 408.564 87.6265C409.893 87.9172 411.363 87.9753 412.875 87.8507C415.923 87.6182 419.121 86.5799 422.468 85.7078C425.807 84.8357 429.163 84.3872 432.053 85.1596C434.943 85.8989 437.153 87.6597 438.565 89.3873C440.002 91.1315 440.716 92.8592 441.057 94.0718C441.389 95.2928 441.43 96.0071 441.48 95.9988C441.497 95.9988 441.488 95.8243 441.455 95.4838C441.439 95.1433 441.347 94.6532 441.214 94.0303C440.924 92.7844 440.234 91.0069 438.797 89.188C437.377 87.3939 435.135 85.55 432.144 84.761C429.154 83.9387 425.707 84.3955 422.352 85.2759C418.98 86.148 415.823 87.1946 412.833 87.4354C411.347 87.5683 409.918 87.5185 408.631 87.2527C407.335 86.9952 406.189 86.4969 405.242 85.9072C403.315 84.7277 402.243 83.1413 401.795 81.9785C401.371 80.8074 401.396 80.0765 401.338 80.0848Z" fill="#455A64"/>
<path d="M405.583 135.211C405.733 136.058 405.882 136.922 406.256 137.694C406.638 138.467 407.286 139.156 408.116 139.372C409.005 139.604 409.985 139.256 410.641 138.608C411.298 137.968 411.663 137.071 411.812 136.166C411.945 135.344 411.779 134.297 410.99 134.031C410.666 133.923 410.309 133.981 409.969 134.04C408.432 134.314 406.904 134.596 405.367 134.87" fill="#AA6550"/>
<path d="M406.388 138.691C406.455 138.566 407.235 139.222 408.672 139.123C409.37 139.073 410.201 138.799 410.824 138.143C411.438 137.495 411.845 136.49 411.746 135.46C411.729 135.202 411.654 134.953 411.579 134.729C411.471 134.505 411.496 134.521 411.314 134.488C411.131 134.48 410.815 134.521 410.566 134.538C410.309 134.554 410.051 134.579 409.802 134.596C408.805 134.671 407.908 134.729 407.152 134.762C405.641 134.837 404.702 134.828 404.686 134.721C404.677 134.613 405.599 134.43 407.094 134.222C407.842 134.114 408.739 134.006 409.736 133.89C409.985 133.865 410.242 133.832 410.5 133.807C410.774 133.782 410.99 133.732 411.355 133.74C411.53 133.749 411.77 133.79 411.961 133.956C412.153 134.114 412.236 134.305 412.302 134.463C412.41 134.77 412.493 135.069 412.518 135.393C412.643 136.681 412.128 137.885 411.339 138.657C410.533 139.438 409.503 139.696 408.706 139.679C407.892 139.671 407.269 139.413 406.895 139.172C406.513 138.932 406.363 138.732 406.388 138.691Z" fill="#263238"/>
<path d="M402.269 152.188C402.269 152.188 410.641 155.361 418.789 153.052C418.789 153.052 412.643 158.201 401.43 156.224L402.269 152.188Z" fill="#AA6550"/>
<path d="M415.042 271.269C415.026 271.293 414.61 270.978 413.896 270.396C413.539 270.097 413.099 269.74 412.559 269.366C412.027 268.984 411.438 268.519 410.74 268.079C410.05 267.622 409.295 267.124 408.447 266.65C407.617 266.135 406.687 265.679 405.715 265.18C403.746 264.233 401.52 263.328 399.103 262.589C396.686 261.875 394.319 261.418 392.151 261.127C391.063 261.011 390.033 260.886 389.062 260.853C388.09 260.778 387.185 260.787 386.362 260.787C385.532 260.77 384.784 260.836 384.128 260.861C383.472 260.886 382.907 260.936 382.442 260.994C381.52 261.086 381.005 261.119 381.005 261.094C380.997 261.061 381.503 260.969 382.425 260.828C382.882 260.753 383.447 260.67 384.111 260.629C384.768 260.579 385.523 260.487 386.354 260.487C387.185 260.463 388.098 260.438 389.078 260.496C390.058 260.504 391.105 260.629 392.201 260.728C394.386 261.002 396.778 261.459 399.228 262.174C401.662 262.913 403.912 263.851 405.889 264.823C406.861 265.338 407.8 265.812 408.63 266.343C409.477 266.833 410.233 267.348 410.914 267.83C411.612 268.287 412.185 268.777 412.708 269.184C413.24 269.582 413.664 269.956 414.004 270.28C414.693 270.895 415.059 271.244 415.042 271.269Z" fill="#FAFAFA"/>
<path d="M366.229 228.61L373.048 199.099C375.656 188.002 378.746 177.338 383.937 176.075V179.505L381.72 263.818C381.72 263.818 367.832 279.632 350.124 270.836C344.593 268.087 334.501 248.776 334.501 248.776C334.501 248.776 311.054 206.873 312.025 204.971C312.997 203.069 327.35 184.58 328.812 183.658L366.229 228.61Z" fill="#FFDB58"/>
<path d="M436.314 167.753C449.852 170.344 465.093 178.243 472.112 198.468C474.67 205.86 493.316 260.346 493.316 260.346L461.522 259.682L456.347 248.444L458.872 266.667L461.023 292.672L380.756 294.018L381.321 254.856L382.093 176.947C382.093 176.947 382.998 175.768 396.836 168.126C405.432 163.4 436.314 167.753 436.314 167.753Z" fill="#FFDB58"/>
<g opacity="0.2">
<g opacity="0.2">
<g opacity="0.2">
<path opacity="0.2" d="M444.32 219.83C445.641 236.276 447.153 241.359 448.473 257.805C448.598 259.358 448.731 260.944 449.337 262.373C449.952 263.81 451.131 265.089 452.659 265.396C454.993 265.87 458.033 267.564 458.698 265.272L456.48 249.432C456.48 249.432 455.957 246.451 454.287 242.746C449.362 231.816 447.543 231.176 444.32 219.83Z" fill="black"/>
</g>
</g>
</g>
<path d="M396.836 176.574L397.102 174.863L399.668 158.45C399.826 157.462 400.715 156.756 401.711 156.839L433.315 159.48C435.3 159.646 436.779 161.382 436.638 163.367L435.932 172.902L426.064 185.776L411.853 187.994" fill="#FFDB58"/>
<path d="M380.964 207.43C381.08 207.43 381.18 220.287 381.18 236.143C381.18 252.007 381.08 264.856 380.964 264.856C380.848 264.856 380.748 251.999 380.748 236.143C380.748 220.287 380.848 207.43 380.964 207.43Z" fill="#263238"/>
<path d="M462.194 262.323C462.186 262.323 462.153 262.265 462.095 262.14C462.028 261.991 461.937 261.808 461.837 261.575C461.605 261.044 461.281 260.313 460.874 259.391C460.043 257.456 458.856 254.706 457.402 251.326C454.503 244.474 450.517 235.055 446.114 224.656C443.93 219.44 441.845 214.473 439.943 209.946C438.938 207.712 438.265 205.42 437.9 203.268C437.518 201.109 437.368 199.074 437.352 197.214C437.31 193.493 437.867 190.478 438.614 188.534C438.706 188.293 438.789 188.061 438.872 187.845C438.971 187.637 439.071 187.446 439.162 187.263C439.337 186.898 439.495 186.599 439.661 186.383C439.802 186.175 439.918 186.009 440.018 185.868C440.101 185.751 440.143 185.702 440.151 185.702C440.209 185.735 439.453 186.632 438.78 188.592C438.091 190.536 437.584 193.517 437.659 197.214C437.759 200.885 438.257 205.353 440.309 209.797C442.219 214.315 444.312 219.282 446.505 224.49C450.865 234.914 454.811 244.341 457.676 251.21C459.08 254.615 460.218 257.381 461.015 259.325C461.389 260.263 461.688 261.002 461.904 261.542C461.995 261.775 462.07 261.966 462.128 262.124C462.178 262.248 462.203 262.315 462.194 262.323Z" fill="#263238"/>
<path d="M446.165 170.618C446.165 170.618 445.874 170.926 445.243 171.416C444.612 171.914 443.615 172.562 442.211 173.185C440.808 173.791 439.005 174.331 436.871 174.68C434.736 175.037 432.286 175.261 429.562 175.403C426.846 175.527 423.864 175.469 420.674 175.535C417.493 175.61 414.071 175.81 410.624 176.756C407.211 177.678 403.681 179.381 401.172 182.33C399.943 183.8 399.021 185.585 398.548 187.512C398.058 189.431 398.049 191.516 398.639 193.451C398.955 194.415 399.436 195.312 400.034 196.109C400.641 196.898 401.413 197.546 402.277 198.003C403.132 198.46 404.113 198.692 405.051 198.584C405.99 198.493 406.87 198.028 407.485 197.33C408.731 195.91 408.963 193.866 408.714 192.072C408.581 191.167 408.315 190.278 407.925 189.481C407.526 188.684 407.003 187.944 406.447 187.255C404.171 184.514 400.99 182.928 397.933 182.213C394.852 181.482 391.82 181.632 389.212 182.313C386.596 182.969 384.37 184.049 382.534 185.17C380.698 186.283 379.253 187.454 378.115 188.459C376.977 189.456 376.172 190.32 375.607 190.885C375.349 191.167 375.142 191.383 374.984 191.549C374.843 191.699 374.768 191.773 374.76 191.765C374.76 191.765 375.765 190.403 377.999 188.335C379.12 187.313 380.566 186.109 382.401 184.971C384.237 183.825 386.471 182.712 389.129 182.031C391.762 181.316 394.852 181.15 397.999 181.881C401.122 182.604 404.387 184.198 406.737 187.022C407.31 187.737 407.842 188.484 408.274 189.323C408.689 190.17 408.971 191.092 409.104 192.039C409.246 192.986 409.246 193.974 409.055 194.946C408.863 195.91 408.473 196.873 407.784 197.637C407.103 198.401 406.123 198.925 405.084 199.024C404.046 199.141 402.983 198.883 402.061 198.393C401.139 197.903 400.317 197.222 399.677 196.383C399.046 195.544 398.548 194.606 398.215 193.592C397.592 191.557 397.609 189.398 398.116 187.413C398.614 185.419 399.553 183.584 400.832 182.056C403.431 179.016 407.036 177.296 410.5 176.366C413.997 175.419 417.452 175.228 420.649 175.17C423.847 175.12 426.821 175.195 429.528 175.095C432.236 174.979 434.686 174.771 436.813 174.439C438.939 174.115 440.733 173.6 442.128 173.027C443.524 172.437 444.529 171.823 445.168 171.349C445.501 171.125 445.725 170.917 445.891 170.801C446.074 170.677 446.165 170.61 446.165 170.618Z" fill="#FAFAFA"/>
<path d="M473.632 205.187C473.632 205.204 473.507 205.22 473.275 205.245C473.042 205.262 472.701 205.312 472.253 205.32C471.364 205.362 470.077 205.353 468.49 205.229C466.904 205.112 465.027 204.871 462.95 204.589C460.874 204.307 458.598 203.991 456.189 203.858C453.789 203.742 451.497 203.925 449.462 204.365C447.435 204.813 445.674 205.494 444.337 206.317C441.621 207.945 440.641 209.772 440.55 209.672C440.541 209.664 440.599 209.556 440.724 209.365C440.865 209.174 441.023 208.867 441.33 208.534C441.879 207.828 442.825 206.915 444.179 206.059C445.525 205.187 447.319 204.464 449.379 203.983C451.447 203.518 453.781 203.318 456.214 203.435C458.648 203.567 460.932 203.9 463.009 204.199C465.085 204.506 466.946 204.78 468.524 204.93C470.093 205.087 471.373 205.146 472.261 205.154C473.142 205.162 473.632 205.154 473.632 205.187Z" fill="#FAFAFA"/>
<path d="M453.673 242.422C453.665 242.53 452.004 241.832 448.906 242.015C447.361 242.09 445.492 242.414 443.374 243.004C441.248 243.577 438.889 244.416 436.231 245.238C433.59 246.052 430.575 246.824 427.277 246.799C423.996 246.799 420.467 246.151 417.078 244.681C413.672 243.253 410.408 240.969 407.775 237.92C406.455 236.409 405.3 234.673 404.478 232.754C403.672 230.836 403.224 228.676 403.531 226.516C403.847 224.382 404.852 222.339 406.479 220.96C407.293 220.279 408.24 219.747 409.279 219.531C410.308 219.307 411.38 219.349 412.368 219.631C413.357 219.913 414.295 220.387 415.034 221.093C415.774 221.79 416.33 222.688 416.53 223.676C416.745 224.656 416.646 225.686 416.305 226.591C415.965 227.505 415.4 228.294 414.752 228.975C413.448 230.329 411.828 231.234 410.192 231.874C409.37 232.181 408.523 232.422 407.692 232.563C407.277 232.638 406.862 232.729 406.446 232.796C406.031 232.846 405.624 232.895 405.209 232.937C401.936 233.294 398.855 232.937 396.147 232.306C393.431 231.658 391.089 230.678 389.145 229.615C387.202 228.56 385.657 227.422 384.486 226.392C384.195 226.134 383.921 225.894 383.655 225.669C383.414 225.428 383.19 225.196 382.974 224.98C382.542 224.565 382.202 224.191 381.944 223.867C381.695 223.568 381.496 223.327 381.346 223.153C381.213 222.987 381.147 222.903 381.155 222.903C381.163 222.895 381.238 222.978 381.379 223.128C381.537 223.294 381.745 223.526 382.002 223.817C382.268 224.124 382.617 224.49 383.057 224.897C383.273 225.104 383.506 225.329 383.746 225.561C384.012 225.786 384.286 226.018 384.585 226.267C385.765 227.272 387.31 228.377 389.253 229.407C391.188 230.437 393.514 231.392 396.205 232.015C398.888 232.621 401.936 232.962 405.159 232.588C405.558 232.538 405.965 232.488 406.372 232.439C406.779 232.372 407.185 232.281 407.592 232.206C408.423 232.065 409.229 231.824 410.034 231.525C411.621 230.902 413.199 230.013 414.445 228.709C415.059 228.061 415.591 227.306 415.907 226.458C416.222 225.611 416.314 224.673 416.106 223.767C415.724 221.948 414.096 220.528 412.235 220.046C411.305 219.78 410.3 219.747 409.353 219.963C408.398 220.163 407.501 220.661 406.745 221.309C405.217 222.613 404.245 224.556 403.946 226.6C403.655 228.651 404.079 230.744 404.868 232.605C405.666 234.473 406.787 236.176 408.091 237.663C410.674 240.661 413.88 242.912 417.227 244.333C420.566 245.786 424.038 246.442 427.269 246.459C430.517 246.5 433.49 245.761 436.131 244.964C438.781 244.166 441.165 243.344 443.299 242.796C445.434 242.231 447.328 241.924 448.889 241.874C449.67 241.816 450.359 241.891 450.957 241.907C451.547 241.99 452.062 242.032 452.461 242.131C452.843 242.223 453.142 242.298 453.366 242.356C453.574 242.381 453.673 242.414 453.673 242.422Z" fill="#FAFAFA"/>
<path d="M380.69 233.568C380.623 233.601 380.241 232.688 379.436 231.334C378.63 229.98 377.342 228.211 375.59 226.566C373.829 224.93 371.977 223.767 370.565 223.061C369.161 222.355 368.223 222.031 368.248 221.965C368.256 221.94 368.497 221.99 368.929 222.114C369.361 222.231 369.967 222.463 370.698 222.787C372.16 223.435 374.087 224.581 375.881 226.251C377.675 227.929 378.954 229.764 379.693 231.184C380.067 231.89 380.333 232.48 380.482 232.904C380.64 233.319 380.715 233.552 380.69 233.568Z" fill="#FAFAFA"/>
<path d="M348.455 269.117C348.446 269.117 348.405 269.051 348.322 268.909C348.23 268.743 348.122 268.544 347.981 268.287C347.682 267.73 347.25 266.916 346.719 265.845C345.672 263.71 344.127 260.595 342.915 256.492C342.333 254.441 341.843 252.123 341.727 249.607C341.652 248.344 341.718 247.032 341.885 245.703C342.076 244.374 342.408 243.02 342.865 241.675C343.836 239.017 345.373 236.334 347.74 234.299C350.058 232.272 353.255 230.852 356.603 231.193C358.247 231.367 359.892 232.04 360.971 233.319C362.035 234.565 362.549 236.276 362.201 237.862C362.026 238.651 361.603 239.382 361.021 239.914C360.448 240.462 359.726 240.819 358.995 241.018C357.508 241.434 355.93 241.168 354.659 240.495C353.372 239.831 352.325 238.851 351.486 237.796C350.647 236.733 349.991 235.586 349.493 234.424C348.521 232.081 348.205 229.673 348.38 227.53C348.554 225.379 349.219 223.502 350.024 222.006C350.83 220.503 351.777 219.357 352.624 218.518C353.48 217.679 354.235 217.123 354.767 216.79C355.024 216.616 355.24 216.508 355.382 216.425C355.523 216.35 355.598 216.309 355.598 216.317C355.606 216.334 355.323 216.508 354.817 216.865C354.302 217.222 353.579 217.795 352.749 218.643C351.926 219.49 351.013 220.636 350.24 222.131C349.468 223.618 348.837 225.462 348.687 227.563C348.538 229.664 348.853 232.007 349.825 234.291C350.315 235.429 350.963 236.542 351.785 237.572C352.607 238.593 353.621 239.532 354.842 240.155C356.054 240.786 357.516 241.027 358.887 240.636C360.257 240.288 361.486 239.224 361.785 237.779C362.101 236.359 361.628 234.756 360.639 233.61C359.659 232.447 358.114 231.799 356.553 231.633C353.363 231.309 350.257 232.671 348.014 234.631C345.714 236.608 344.202 239.224 343.238 241.824C342.782 243.145 342.458 244.465 342.258 245.769C342.092 247.082 342.017 248.361 342.084 249.607C342.184 252.09 342.657 254.383 343.214 256.426C344.376 260.512 345.871 263.635 346.876 265.786C347.383 266.841 347.773 267.664 348.064 268.262C348.189 268.527 348.288 268.743 348.371 268.909C348.438 269.034 348.463 269.109 348.455 269.117Z" fill="#FAFAFA"/>
<path d="M338.205 195.785C338.222 195.785 338.247 195.901 338.28 196.134C338.313 196.366 338.371 196.699 338.405 197.139C338.488 198.019 338.529 199.298 338.396 200.868C338.164 203.999 337.051 208.377 334.293 212.38C331.536 216.383 327.848 218.991 325.007 220.329C323.587 221.01 322.374 221.433 321.527 221.666C321.104 221.799 320.771 221.857 320.547 221.915C320.323 221.965 320.198 221.981 320.198 221.965C320.19 221.932 320.655 221.79 321.477 221.508C322.308 221.226 323.487 220.761 324.875 220.055C327.64 218.659 331.237 216.059 333.944 212.131C336.644 208.202 337.782 203.916 338.097 200.835C338.263 199.282 338.272 198.019 338.239 197.147C338.205 196.275 338.172 195.785 338.205 195.785Z" fill="#FAFAFA"/>
<path d="M480.899 231.799C480.957 231.874 479.329 232.547 477.693 234.731C476.871 235.802 476.04 237.181 475.093 238.718C474.147 240.254 472.967 241.874 471.547 243.411C468.698 246.492 465.484 248.602 463.033 249.806C461.812 250.429 460.774 250.819 460.06 251.077C459.337 251.318 458.93 251.434 458.922 251.401C458.914 251.368 459.296 251.201 460.002 250.919C460.699 250.612 461.704 250.18 462.9 249.532C465.284 248.269 468.432 246.152 471.231 243.112C472.635 241.592 473.798 240.013 474.761 238.502C475.725 236.99 476.588 235.603 477.461 234.54C478.333 233.477 479.188 232.738 479.844 232.331C480.168 232.123 480.434 231.982 480.617 231.907C480.799 231.824 480.891 231.782 480.899 231.799Z" fill="#FAFAFA"/>
<path d="M436.015 168.725C436.015 168.741 435.882 168.774 435.633 168.824C435.334 168.874 434.968 168.941 434.528 169.024C433.565 169.181 432.169 169.397 430.45 169.63C426.995 170.095 422.211 170.635 416.912 171.025C414.262 171.216 411.729 171.391 409.411 171.291C407.094 171.208 405.018 170.826 403.356 170.253C401.687 169.696 400.449 168.957 399.66 168.384C399.262 168.093 398.971 167.852 398.788 167.67C398.597 167.495 398.506 167.396 398.514 167.387C398.539 167.354 398.946 167.72 399.752 168.243C400.557 168.766 401.795 169.447 403.448 169.962C405.092 170.485 407.136 170.826 409.42 170.892C411.704 170.967 414.229 170.784 416.878 170.593C422.169 170.203 426.953 169.713 430.417 169.323C432.095 169.132 433.473 168.974 434.512 168.857C435.475 168.741 436.007 168.691 436.015 168.725Z" fill="#263238"/>
<path d="M492.902 266.227C495.535 279.898 485.136 292.615 471.207 292.756L408.299 292.058L409.952 271.684L463.89 263.635" fill="#B78876"/>
<path d="M413.847 272.614C413.556 272.714 409.926 271.078 406.671 269.574C403.215 267.98 399.428 267.24 395.624 267.431L380.623 268.195C380.623 268.195 381.545 270.671 383.14 271.551C384.727 272.431 394.054 272.623 394.054 272.623L393.581 273.113C391.612 275.139 388.938 276.31 386.114 276.377L384.685 276.41C383.622 276.327 382.575 276.119 381.554 275.795L377.858 274.3C376.736 273.794 375.557 273.877 375.067 275.006C374.627 276.028 374.951 277.432 378.007 278.968C379.718 279.832 386.047 282.016 386.047 282.016C386.047 282.016 386.139 283.769 386.413 284.691C386.687 285.613 389.178 286.535 389.178 286.535C389.178 286.535 390.748 289.757 391.388 290.497C391.679 290.829 393.929 291.527 396.322 292.199C400.192 293.287 404.287 293.262 408.141 292.108L413.855 290.405V272.996" fill="#B78876"/>
<path d="M393.331 283.985C393.323 284.084 391.545 283.993 389.436 283.428C387.318 282.872 385.723 282.083 385.764 281.991C385.806 281.892 387.442 282.523 389.527 283.063C391.612 283.619 393.339 283.877 393.331 283.985Z" fill="#AA6550"/>
<path d="M392.8 287.498C392.8 287.598 391.828 287.656 390.69 287.349C389.544 287.041 388.746 286.501 388.796 286.41C388.846 286.31 389.693 286.692 390.79 286.983C391.886 287.282 392.808 287.39 392.8 287.498Z" fill="#AA6550"/>
<path d="M395.541 271.268C395.574 271.302 395.142 271.792 394.386 272.506C393.622 273.22 392.509 274.167 391.122 274.981C389.726 275.795 388.323 276.252 387.293 276.46C386.263 276.667 385.607 276.684 385.607 276.642C385.574 276.509 388.206 276.26 390.939 274.657C392.301 273.868 393.414 272.963 394.22 272.307C395.009 271.642 395.507 271.227 395.541 271.268Z" fill="#AA6550"/>
<path d="M415.375 269.865L413.847 292.905L473.109 292.93C477.129 292.93 481.082 291.842 484.529 289.766C492.536 284.956 496.664 275.654 494.862 266.493C494.255 262.747 492.827 258.37 491.041 253.718L461.248 258.619L462.203 262.331L415.375 269.865Z" fill="#FFDB58"/>
<path d="M475.924 260.396C475.924 260.413 475.717 260.454 475.326 260.537C474.886 260.612 474.313 260.72 473.599 260.845C472.046 261.102 469.878 261.468 467.22 261.908C461.788 262.772 454.362 263.951 446.156 265.263C437.942 266.518 430.508 267.656 425.068 268.494C422.402 268.885 420.226 269.2 418.672 269.425C417.95 269.524 417.368 269.599 416.928 269.657C416.529 269.707 416.322 269.724 416.313 269.707C416.313 269.69 416.521 269.649 416.911 269.566C417.352 269.491 417.925 269.383 418.639 269.259C420.192 269.001 422.36 268.636 425.018 268.195C430.45 267.332 437.875 266.152 446.082 264.84C454.296 263.586 461.721 262.448 467.162 261.617C469.828 261.227 472.004 260.911 473.557 260.687C474.28 260.587 474.861 260.513 475.301 260.454C475.708 260.396 475.916 260.38 475.924 260.396Z" fill="#263238"/>
<path d="M445.6 292.947C445.5 292.93 445.957 291.286 446.015 288.57C446.015 287.888 446.032 287.149 445.932 286.36C445.891 285.563 445.725 284.732 445.567 283.852C445.185 282.108 444.562 280.23 443.64 278.387C442.71 276.543 441.547 274.94 440.4 273.569C440.101 273.237 439.811 272.913 439.528 272.597C439.238 272.282 438.93 272.016 438.648 271.734C438.091 271.161 437.502 270.704 436.987 270.264C434.869 268.561 433.365 267.772 433.415 267.697C433.432 267.672 433.806 267.863 434.478 268.237C434.811 268.42 435.226 268.644 435.674 268.959C436.115 269.275 436.663 269.582 437.186 270.031C437.718 270.463 438.324 270.911 438.897 271.476C439.188 271.759 439.503 272.024 439.802 272.34C440.093 272.656 440.392 272.988 440.7 273.32C441.887 274.699 443.075 276.318 444.022 278.204C444.96 280.089 445.583 282.008 445.957 283.785C446.107 284.682 446.264 285.538 446.289 286.344C446.372 287.149 446.339 287.905 446.323 288.594C446.331 289.284 446.206 289.898 446.156 290.438C446.107 290.978 445.999 291.443 445.916 291.817C445.733 292.54 445.625 292.947 445.6 292.947Z" fill="#FAFAFA"/>
<path d="M481.672 291.211C481.672 291.211 480.675 291.252 478.922 290.879C478.059 290.671 476.987 290.372 475.849 289.799C474.711 289.226 473.482 288.403 472.386 287.216C471.298 286.036 470.334 284.483 469.836 282.648C469.603 281.726 469.412 280.754 469.396 279.749C469.329 278.744 469.421 277.689 469.645 276.642C469.877 275.596 470.259 274.549 470.874 273.594C471.472 272.639 472.328 271.792 473.366 271.227C474.396 270.654 475.608 270.33 476.838 270.43C478.067 270.513 479.288 271.127 480.094 272.116C480.899 273.088 481.356 274.367 481.182 275.621C481.016 276.892 480.152 277.93 479.138 278.536C477.062 279.774 474.662 279.757 472.585 279.433C468.341 278.727 465.035 276.194 463.316 273.495C461.538 270.787 461.09 268.112 461.04 266.343C460.99 264.549 461.273 263.586 461.273 263.586C461.331 263.594 461.098 264.566 461.206 266.335C461.314 268.079 461.796 270.695 463.573 273.328C465.293 275.936 468.532 278.378 472.652 279.043C474.67 279.35 476.995 279.334 478.914 278.179C479.844 277.614 480.609 276.676 480.75 275.563C480.899 274.458 480.492 273.287 479.753 272.398C479.014 271.493 477.926 270.953 476.796 270.87C475.667 270.77 474.529 271.078 473.565 271.609C471.588 272.681 470.467 274.749 470.035 276.742C469.811 277.747 469.72 278.769 469.778 279.749C469.786 280.729 469.961 281.676 470.185 282.565C470.65 284.35 471.572 285.862 472.61 287.025C473.665 288.196 474.853 289.01 475.957 289.591C477.07 290.173 478.108 290.488 478.964 290.729C480.683 291.128 481.68 291.153 481.672 291.211Z" fill="#FAFAFA"/>
<path d="M246.592 40.2002H98.1746C80.1094 40.2002 65.4662 54.8434 65.4662 72.9086V125.8H33.4473L65.4745 157.827V193.775C65.4745 211.84 80.1177 226.483 98.1829 226.483H246.6C264.665 226.483 279.308 211.84 279.308 193.775V72.9086C279.3 54.8434 264.657 40.2002 246.592 40.2002Z" fill="#FFDB58"/>
<path d="M185.959 45.7982C185.02 48.2235 186.631 50.8814 188.442 52.7502C190.253 54.6273 192.437 56.4047 193.01 58.9463C193.484 61.0809 192.695 63.2986 192.886 65.4747C193.085 67.7007 194.281 69.7024 194.962 71.8287C196.2 75.6826 195.701 79.8936 194.597 83.7891C193.691 86.9868 192.354 90.1264 190.145 92.6016C187.935 95.0767 184.754 96.8292 181.44 96.7711C180.502 96.7545 179.48 96.5468 178.866 95.8408C178.334 95.2262 178.218 94.3624 178.118 93.5567C176.216 76.8537 176.216 59.9347 178.11 43.2317" fill="#263238"/>
<path d="M184.206 99.6949C191.432 99.3792 198.109 106.298 197.536 113.507C204.854 115.285 210.02 123.342 208.591 130.734C208.118 133.176 207.038 135.501 206.889 137.976C206.723 140.684 207.686 143.309 208.209 145.975C209.156 150.784 208.641 155.867 206.764 160.394C205.626 163.143 203.5 165.984 200.526 166.067C198.508 166.125 196.639 164.813 195.51 163.135C194.388 161.457 193.89 159.439 193.491 157.462C192.204 150.975 191.814 144.305 190.036 137.935C188.259 131.564 184.795 125.285 179.031 122.038C175.85 120.243 172.029 119.396 169.496 116.755C166.846 113.989 166.24 109.612 167.627 106.041C169.014 102.469 172.17 99.7447 175.767 98.4407" fill="#263238"/>
<path d="M134.188 51.7453C134.097 48.6555 136.954 46.2717 139.828 45.1421C142.702 44.0125 145.899 43.5806 148.458 41.8613C150.725 40.3331 152.253 37.9493 154.172 36.0057C158.881 31.2299 166.24 29.2531 172.711 31.0139C179.181 32.7831 184.513 38.2234 186.149 44.7268C187.254 49.1206 186.498 54.3201 183.035 57.2437C179.015 60.6325 173.051 59.885 167.893 58.8301C162.735 57.7753 156.905 56.7371 152.602 59.7604C150.011 61.5877 148.516 64.5529 146.929 67.3021C145.343 70.0513 143.349 72.8587 140.351 73.8886C137.353 74.9185 133.274 73.1411 133.158 69.9683" fill="#263238"/>
<path d="M146.365 52.3764C143.699 52.6671 141.697 54.9429 141.755 57.6257L144.837 127.395C144.97 135.634 157.013 140.269 165.834 140.061C174.746 139.853 175.028 135.485 175.145 127.644C175.327 114.546 175.319 109.628 175.319 109.703C175.319 109.703 186.573 107.81 188.874 93.1165C190.02 85.8074 189.622 73.8304 188.982 64.0461C188.409 55.2336 182.545 44.436 173.766 45.3829L146.365 52.3764Z" fill="#FFBE9D"/>
<path d="M186.449 73.2737C186.49 74.2704 185.676 75.1176 184.638 75.1757C183.6 75.2339 182.728 74.478 182.694 73.4813C182.661 72.4846 183.467 71.6375 184.505 71.5793C185.543 71.5212 186.415 72.277 186.449 73.2737Z" fill="#263238"/>
<path d="M186.399 70.2837C186.166 70.5329 184.738 69.478 182.711 69.4863C180.685 69.4697 179.198 70.5162 178.982 70.2671C178.874 70.1591 179.115 69.7106 179.754 69.2371C180.394 68.7637 181.474 68.3069 182.744 68.3069C184.007 68.3069 185.07 68.772 185.685 69.2454C186.299 69.7355 186.515 70.1757 186.399 70.2837Z" fill="#263238"/>
<path d="M166.972 73.2737C167.014 74.2704 166.2 75.1176 165.161 75.1757C164.123 75.2339 163.251 74.478 163.218 73.4813C163.185 72.4846 163.99 71.6375 165.028 71.5793C166.067 71.5212 166.93 72.277 166.972 73.2737Z" fill="#263238"/>
<path d="M166.474 70.7073C166.241 70.9564 164.813 69.9016 162.786 69.9099C160.759 69.8933 159.273 70.9398 159.057 70.6906C158.949 70.5827 159.181 70.1342 159.829 69.6607C160.469 69.1873 161.548 68.7305 162.811 68.7305C164.073 68.7388 165.136 69.1956 165.751 69.669C166.374 70.1591 166.59 70.5993 166.474 70.7073Z" fill="#263238"/>
<path d="M173.866 85.7243C173.858 85.608 175.112 85.3921 177.155 85.1263C177.67 85.0681 178.16 84.9685 178.251 84.6113C178.376 84.2376 178.152 83.6811 177.903 83.0747C177.412 81.8206 176.897 80.5082 176.366 79.1378C174.231 73.5313 172.678 68.9216 172.902 68.8385C173.127 68.7555 175.045 73.2323 177.188 78.8388C177.703 80.2175 178.193 81.5382 178.667 82.8006C178.866 83.3904 179.198 84.0548 178.941 84.8356C178.8 85.2259 178.426 85.5 178.094 85.5914C177.761 85.6911 177.471 85.6994 177.213 85.716C175.145 85.8323 173.874 85.8406 173.866 85.7243Z" fill="#263238"/>
<path d="M175.319 109.712C175.319 109.712 165.435 110.368 155.634 104.504C155.634 104.504 160.426 114.587 175.128 113.175L175.319 109.712Z" fill="#EB996E"/>
<path d="M173.019 90.6164C172.288 89.6529 171.009 89.1296 169.738 89.2708C168.857 89.3705 167.969 89.7941 167.437 90.5084C166.905 91.2227 166.798 92.2443 167.279 92.9254C167.827 93.6895 168.974 93.8723 169.937 93.5899C170.901 93.3158 171.731 92.6762 172.529 92.0367C172.745 91.8622 172.969 91.6795 173.11 91.4386C173.243 91.1978 173.276 90.8822 173.102 90.6828" fill="#EB996E"/>
<path d="M167.901 87.1447C168.234 87.128 168.242 89.3291 170.127 90.8823C172.013 92.4438 174.355 92.1946 174.372 92.5019C174.405 92.6431 173.848 92.9338 172.86 92.9587C171.888 92.992 170.468 92.6846 169.313 91.7295C168.159 90.7743 167.669 89.4952 167.586 88.5982C167.503 87.6762 167.752 87.128 167.901 87.1447Z" fill="#263238"/>
<path d="M167.379 67.1607C167.18 67.7089 165.153 67.4514 162.778 67.7504C160.394 67.9913 158.475 68.6973 158.16 68.1989C158.018 67.9664 158.351 67.4431 159.123 66.9115C159.887 66.38 161.117 65.865 162.545 65.7072C163.974 65.5494 165.278 65.7736 166.15 66.1225C167.022 66.463 167.462 66.8949 167.379 67.1607Z" fill="#263238"/>
<path d="M185.644 64.42C185.286 64.8851 183.891 64.4034 182.213 64.3868C180.535 64.312 179.115 64.7024 178.783 64.2206C178.642 63.9881 178.866 63.523 179.481 63.091C180.095 62.6591 181.117 62.302 182.271 62.3269C183.426 62.3601 184.423 62.7754 185.012 63.2489C185.602 63.7223 185.793 64.1957 185.644 64.42Z" fill="#263238"/>
<path d="M136.107 100.708C140.143 101.522 144.545 100.285 147.56 97.4772C150.575 94.6698 152.137 90.3757 151.622 86.2892C151.165 82.6845 149.222 79.0133 150.467 75.5996C152.12 71.0813 158.449 69.6942 160.127 65.1924C161.107 62.5761 160.227 59.5112 161.331 56.9447C162.37 54.5278 164.911 53.1407 167.378 52.252C169.845 51.3549 172.495 50.7403 174.571 49.129C176.647 47.5176 177.943 44.4694 176.598 42.2102C165.642 43.5225 154.836 46.1472 144.504 50.0094C142.103 50.9064 139.587 51.9779 138.175 54.1125C136.671 56.3633 136.746 59.2787 136.871 61.9864C137.502 75.1594 135.492 87.5185 136.107 100.708Z" fill="#263238"/>
<path d="M132.61 96.5634C132.61 96.5717 132.527 96.5468 132.369 96.4887C132.211 96.4388 131.987 96.3309 131.697 96.1648C131.14 95.8325 130.393 95.1431 129.861 93.9969C129.338 92.8673 129.03 91.2892 129.379 89.5367C129.728 87.7842 130.741 85.9818 132.045 84.2044C133.333 82.4103 134.961 80.5913 136.074 78.274C136.622 77.1195 137.029 75.8404 137.045 74.4865C137.07 73.1327 136.638 71.7788 136.182 70.4001C135.717 69.0296 135.26 67.5346 135.318 65.9564C135.384 64.395 135.833 62.8168 136.655 61.4215C137.469 60.0261 138.64 58.7802 140.085 57.933C141.531 57.036 143.258 56.7287 144.928 56.5542C146.605 56.3632 148.275 56.2718 149.77 55.7071C151.282 55.1672 152.453 54.0127 153.175 52.6422C153.915 51.2717 154.338 49.7684 154.787 48.3066C155.227 46.8447 155.75 45.4161 156.44 44.1121C157.793 41.4958 159.704 39.3113 161.946 37.9243C164.189 36.5372 166.689 35.9724 168.923 36.1136C171.166 36.2548 173.109 37.1518 174.413 38.3645C175.726 39.5688 176.498 40.9476 176.872 42.1353C177.254 43.3231 177.271 44.3115 177.212 44.9593C177.154 45.6072 177.038 45.9394 177.038 45.9394C177.013 45.9311 177.096 45.5989 177.121 44.9593C177.154 44.3198 177.104 43.348 176.706 42.1935C176.315 41.039 175.543 39.71 174.247 38.5555C172.968 37.3927 171.083 36.5538 168.907 36.4292C166.739 36.3046 164.313 36.8777 162.146 38.2399C159.978 39.602 158.117 41.7449 156.805 44.3114C156.132 45.5905 155.626 46.9859 155.194 48.4478C154.745 49.9013 154.33 51.4295 153.557 52.8582C153.175 53.5725 152.685 54.2535 152.071 54.8183C151.464 55.3914 150.717 55.8233 149.928 56.1223C148.341 56.7121 146.639 56.8034 144.978 56.9945C143.316 57.1689 141.68 57.4679 140.31 58.3151C138.931 59.1207 137.81 60.3085 137.021 61.6457C136.231 62.983 135.791 64.4863 135.725 65.9814C135.675 67.4764 136.09 68.905 136.555 70.2838C137.012 71.6626 137.452 73.0662 137.419 74.5031C137.394 75.9234 136.962 77.2607 136.389 78.4401C135.235 80.8156 133.574 82.6262 132.278 84.3954C130.966 86.1479 129.961 87.9005 129.595 89.6031C129.23 91.2975 129.504 92.8424 129.994 93.9471C130.484 95.0684 131.19 95.7578 131.721 96.1066C132.278 96.4472 132.618 96.5302 132.61 96.5634Z" fill="#455A64"/>
<path d="M175.294 32.5173C175.302 32.4924 175.51 32.5423 175.867 32.6918C176.224 32.8413 176.714 33.1071 177.254 33.5307C178.334 34.3612 179.605 35.9726 179.929 38.0989C180.244 40.2335 179.497 42.1438 178.708 43.2485C178.309 43.8133 177.919 44.212 177.628 44.4611C177.329 44.702 177.146 44.81 177.13 44.7934C177.071 44.7352 177.752 44.2203 178.45 43.0824C179.148 41.9777 179.796 40.1587 179.497 38.157C179.198 36.1636 178.043 34.6104 177.055 33.7549C176.066 32.8911 175.261 32.5921 175.294 32.5173Z" fill="#455A64"/>
<path d="M207.836 133.325C207.786 133.308 208.094 132.793 208.26 131.772C208.434 130.759 208.351 129.205 207.537 127.544C206.748 125.875 205.095 124.288 202.902 123.225C201.806 122.685 200.585 122.262 199.298 121.938C198.002 121.605 196.631 121.323 195.253 120.883C193.882 120.443 192.545 119.845 191.54 118.856C190.502 117.901 190.003 116.547 189.787 115.326C189.563 114.089 189.488 112.918 189.214 111.871C188.949 110.825 188.459 109.936 187.877 109.23C186.706 107.801 185.294 107.128 184.322 106.813C183.326 106.514 182.744 106.514 182.744 106.472C182.744 106.456 182.894 106.456 183.168 106.464C183.442 106.472 183.849 106.53 184.364 106.655C185.369 106.929 186.856 107.577 188.101 109.039C188.716 109.761 189.256 110.7 189.547 111.788C189.846 112.876 189.937 114.055 190.17 115.26C190.394 116.448 190.851 117.669 191.822 118.557C192.753 119.471 194.032 120.052 195.369 120.476C196.715 120.908 198.077 121.19 199.389 121.531C200.701 121.871 201.947 122.311 203.069 122.868C205.319 123.973 207.022 125.659 207.803 127.411C208.608 129.155 208.642 130.775 208.409 131.805C208.301 132.328 208.152 132.71 208.035 132.96C207.919 133.2 207.853 133.333 207.836 133.325Z" fill="#455A64"/>
<path d="M143.948 107.311C136.506 105.318 130.077 98.0337 127.469 90.7827C124.861 83.5401 124.861 75.6163 125.525 67.9417C126.007 62.3768 126.987 56.5046 130.675 52.3185C136.24 46.006 142.262 42.7834 150.675 43.0491" fill="#263238"/>
<path d="M187.387 123.508L180.452 121.763C182.08 120.468 182.537 118.815 181.831 116.929C181 114.72 178.874 113.267 176.531 113.001L144.903 109.429C143.773 109.305 142.669 109.928 142.253 110.991C140.85 114.554 140.8 117.486 142.112 119.795H141.963L135.866 121.008L125.559 212.156L193.234 208.991L187.387 123.508Z" fill="#F5F5F5"/>
<path d="M177.437 122.112C177.437 122.145 176.988 122.229 176.166 122.353C175.344 122.486 174.148 122.636 172.669 122.777C169.704 123.067 165.584 123.25 161.05 123.026C156.506 122.793 152.428 122.204 149.504 121.622C148.043 121.332 146.871 121.066 146.066 120.85C145.26 120.642 144.82 120.509 144.828 120.484C144.837 120.459 145.293 120.526 146.107 120.692C146.921 120.858 148.101 121.074 149.563 121.323C152.486 121.822 156.548 122.37 161.074 122.594C165.593 122.818 169.696 122.677 172.653 122.469C174.131 122.37 175.327 122.262 176.158 122.179C176.972 122.112 177.429 122.087 177.437 122.112Z" fill="#263238"/>
<path d="M146.846 136.598C146.747 136.531 147.81 134.77 149.213 132.661C150.625 130.551 151.846 128.898 151.946 128.965C152.046 129.031 150.983 130.792 149.579 132.902C148.167 135.011 146.946 136.664 146.846 136.598Z" fill="#E0E0E0"/>
<path d="M168.657 138.142C168.566 138.217 167.22 136.697 165.651 134.745C164.081 132.793 162.893 131.157 162.984 131.082C163.076 131.008 164.421 132.528 165.991 134.48C167.561 136.431 168.749 138.068 168.657 138.142Z" fill="#E0E0E0"/>
<path d="M158.525 149.729C158.409 149.754 157.952 147.719 157.503 145.194C157.055 142.669 156.789 140.609 156.905 140.584C157.022 140.56 157.478 142.594 157.927 145.119C158.375 147.644 158.641 149.704 158.525 149.729Z" fill="#E0E0E0"/>
<path d="M175.178 150.443C175.261 150.526 173.541 152.362 171.332 154.53C169.123 156.706 167.271 158.392 167.187 158.309C167.104 158.226 168.824 156.39 171.033 154.222C173.242 152.055 175.095 150.36 175.178 150.443Z" fill="#E0E0E0"/>
<path d="M152.843 165.975C152.793 166.067 150.725 164.813 148.707 162.661C146.672 160.518 145.542 158.392 145.642 158.342C145.75 158.268 147.029 160.261 149.022 162.362C151.007 164.48 152.926 165.867 152.843 165.975Z" fill="#E0E0E0"/>
<path d="M160.02 177.969C160.053 178.093 158.126 178.708 155.933 179.871C153.732 181.025 152.137 182.271 152.054 182.172C151.98 182.097 153.483 180.668 155.734 179.489C157.968 178.301 159.995 177.861 160.02 177.969Z" fill="#E0E0E0"/>
<path d="M171.69 178.75C171.648 178.783 171.133 178.251 170.369 177.329C169.605 176.407 168.583 175.103 167.52 173.617C166.457 172.13 165.56 170.743 164.937 169.721C164.314 168.699 163.974 168.043 164.023 168.01C164.073 167.977 164.513 168.575 165.194 169.555C165.975 170.668 166.881 171.947 167.877 173.367C168.899 174.771 169.821 176.042 170.618 177.138C171.316 178.102 171.739 178.708 171.69 178.75Z" fill="#E0E0E0"/>
<path d="M172.86 188.974C172.885 189.091 170.659 189.68 167.86 190.137C165.061 190.602 162.769 190.76 162.752 190.644C162.735 190.519 165.003 190.179 167.785 189.713C170.576 189.257 172.835 188.858 172.86 188.974Z" fill="#E0E0E0"/>
<path d="M153.965 120.825C153.906 120.775 154.305 120.326 154.646 119.446C154.994 118.574 155.21 117.262 155.003 115.841C154.795 114.413 154.297 113.183 153.931 112.303C153.558 111.423 153.317 110.874 153.375 110.841C153.425 110.816 153.765 111.315 154.214 112.17C154.654 113.034 155.219 114.28 155.435 115.783C155.651 117.287 155.368 118.682 154.928 119.571C154.496 120.468 153.998 120.866 153.965 120.825Z" fill="#E0E0E0"/>
<path d="M166.606 114.006C166.697 113.948 167.478 115.086 167.852 116.73C168.242 118.366 168.051 119.737 167.943 119.72C167.819 119.72 167.802 118.391 167.428 116.83C167.071 115.252 166.49 114.064 166.606 114.006Z" fill="#E0E0E0"/>
<path d="M223.625 178.941L255.113 123.649L258.909 114.056C258.909 114.056 268.718 92.9506 269.407 90.8077C270.196 88.3242 271.583 88.1083 272.48 88.4654C273.876 89.0136 274.324 91.0984 273.71 93.2413C273.494 93.9805 269.681 105.575 269.681 105.575C269.681 105.575 270.52 104.786 272.937 103.158C275.354 101.531 279.79 101.58 283.884 103.042C287.979 104.504 289.001 105.276 288.511 106.888C288.311 107.536 287.78 107.943 287.198 108.192C286.243 108.599 285.147 108.59 284.167 108.258C277.572 106.007 274.648 108.981 274.648 108.981L274.15 110.235C274.15 110.235 279.108 108.649 281.924 110.891C282.381 111.257 282.713 111.664 282.954 112.096C284.707 112.677 286.135 114.197 286.567 115.999C287.016 117.876 286.384 119.969 284.972 121.282C284.3 121.905 283.278 122.362 282.472 121.913C282.049 121.672 281.783 121.24 281.525 120.825C281.393 120.609 281.243 120.385 281.077 120.202L279.191 123.524C279.191 123.524 274.565 130.759 272.904 134.131L251.234 191.873C248.227 199.88 239.249 203.867 231.292 200.719C222.637 197.313 219.024 187.022 223.625 178.941Z" fill="#FFBE9D"/>
<path d="M257.272 123.466C258.385 124.189 259.922 123.699 260.919 122.827C261.924 121.963 262.596 120.775 263.535 119.836C266.342 117.037 271.035 116.772 273.701 113.84C274.075 113.433 274.407 112.81 274.083 112.361C273.784 111.946 273.161 111.996 272.663 112.095C268.369 112.943 264.075 113.798 259.781 114.645" fill="#FFBE9D"/>
<path d="M259.781 114.654C259.772 114.604 260.254 114.454 261.143 114.238C262.032 114.014 263.319 113.723 264.922 113.366C266.583 113.009 268.477 112.61 270.537 112.17C271.068 112.062 271.608 111.946 272.165 111.838C272.688 111.772 273.344 111.448 274.133 111.904C274.515 112.145 274.665 112.693 274.557 113.076C274.465 113.466 274.274 113.757 274.05 114.022C273.61 114.504 273.137 114.936 272.597 115.302C270.454 116.788 268.103 117.395 266.226 118.375C265.279 118.848 264.44 119.396 263.784 120.044C263.12 120.684 262.596 121.415 262.048 122.038C261.002 123.35 259.598 123.998 258.635 123.956C257.646 123.94 257.239 123.474 257.272 123.466C257.306 123.4 257.738 123.74 258.618 123.665C259.498 123.599 260.678 122.993 261.641 121.697C262.148 121.074 262.646 120.318 263.344 119.604C264.042 118.881 264.93 118.275 265.91 117.768C267.846 116.722 270.188 116.074 272.165 114.695C272.655 114.363 273.095 113.948 273.477 113.541C273.834 113.134 273.967 112.635 273.701 112.502C273.444 112.311 272.846 112.428 272.298 112.544C271.741 112.652 271.201 112.752 270.67 112.851C268.593 113.233 266.691 113.582 265.022 113.89C263.41 114.172 262.106 114.388 261.201 114.529C260.296 114.654 259.789 114.703 259.781 114.654Z" fill="#EB996E"/>
<path d="M273.967 110.26C274.05 110.31 274.225 109.23 275.446 108.266C276.044 107.793 276.924 107.469 277.938 107.452C278.951 107.419 280.064 107.66 281.218 108.009C282.373 108.349 283.511 108.69 284.591 108.773C285.67 108.856 286.667 108.715 287.423 108.333C288.195 107.959 288.561 107.278 288.627 106.821C288.702 106.364 288.627 106.115 288.611 106.115C288.561 106.115 288.569 106.364 288.444 106.78C288.32 107.187 287.971 107.727 287.273 108.026C286.584 108.325 285.645 108.424 284.632 108.325C283.61 108.225 282.522 107.884 281.351 107.536C280.188 107.187 279.009 106.946 277.913 107.004C276.825 107.045 275.844 107.452 275.23 108.001C274.599 108.541 274.266 109.147 274.109 109.57C273.951 110.002 273.934 110.26 273.967 110.26Z" fill="#EB996E"/>
<path d="M273.926 92.4189C273.859 92.4023 273.585 93.291 273.153 94.7196C272.663 96.3061 272.082 98.2081 271.434 100.301C270.753 102.386 270.146 104.271 269.631 105.858C269.166 107.278 268.876 108.158 268.942 108.183C269 108.208 269.399 107.369 269.955 105.974C270.512 104.579 271.21 102.627 271.899 100.451C272.588 98.2745 273.137 96.2728 273.485 94.8193C273.826 93.3492 273.984 92.4355 273.926 92.4189Z" fill="#EB996E"/>
<path d="M275.744 113.724C275.752 113.757 276.027 113.724 276.5 113.682C276.957 113.649 277.729 113.607 278.311 114.172C278.593 114.438 278.701 114.861 278.601 115.327C278.518 115.792 278.261 116.265 278.012 116.797C277.762 117.312 277.505 117.984 277.704 118.707C277.912 119.396 278.485 119.953 279.183 120.194C279.897 120.443 280.661 120.302 281.251 119.986C281.849 119.662 282.331 119.205 282.63 118.649C283.161 117.569 283.386 116.539 283.535 115.659C283.668 114.778 283.66 114.047 283.56 113.557C283.452 113.059 283.286 112.827 283.269 112.843C283.228 112.86 283.327 113.109 283.377 113.582C283.419 114.056 283.377 114.753 283.203 115.601C283.02 116.431 282.746 117.453 282.239 118.433C281.741 119.33 280.495 120.119 279.341 119.737C278.776 119.546 278.319 119.089 278.161 118.574C278.003 118.051 278.186 117.494 278.419 116.988C278.643 116.473 278.917 115.958 279 115.401C279.108 114.861 278.934 114.247 278.552 113.931C277.787 113.283 276.932 113.425 276.475 113.508C275.993 113.591 275.744 113.69 275.744 113.724Z" fill="#EB996E"/>
<path d="M281.176 119.563C281.151 119.554 281.01 119.778 281.027 120.235C281.043 120.676 281.276 121.382 281.99 121.863C282.688 122.328 283.809 122.411 284.789 121.896C285.769 121.381 286.525 120.377 286.907 119.205C287.289 118.026 287.248 116.797 286.907 115.783C286.575 114.762 285.96 113.981 285.371 113.458C284.773 112.926 284.183 112.644 283.768 112.494C283.352 112.345 283.103 112.32 283.095 112.353C283.053 112.436 284.042 112.652 285.13 113.715C285.661 114.238 286.201 114.986 286.475 115.925C286.766 116.855 286.783 117.984 286.442 119.064C286.102 120.136 285.412 121.049 284.573 121.514C283.743 121.98 282.779 121.946 282.165 121.581C281.542 121.224 281.276 120.617 281.209 120.227C281.151 119.812 281.218 119.571 281.176 119.563Z" fill="#EB996E"/>
<path d="M270.694 124.762C270.711 124.72 270.32 124.504 269.581 124.421C268.85 124.338 267.746 124.446 266.691 125.111L267.048 125.352C267.156 124.845 267.239 124.297 267.289 123.724C267.571 120.518 266.55 118.043 266.45 118.109C266.309 118.142 267.089 120.601 266.807 123.682C266.757 124.239 266.682 124.77 266.599 125.26L266.5 125.8L266.957 125.501C267.887 124.878 268.892 124.72 269.573 124.712C270.262 124.712 270.678 124.828 270.694 124.762Z" fill="#EB996E"/>
<path d="M277.248 105.061C277.123 105.077 277.306 106.057 278.187 106.821C279.059 107.594 280.055 107.644 280.055 107.519C280.08 107.378 279.258 107.137 278.502 106.464C277.73 105.8 277.381 105.011 277.248 105.061Z" fill="#EB996E"/>
<path d="M178.949 224.822L211.874 225.146L206.334 201.25L208.186 205.76C211.682 214.274 219.972 219.839 229.183 219.839C239.598 219.839 246.791 212.089 251.202 202.654C261.501 180.594 271.426 145.07 271.426 145.07L251.343 127.428C236.816 154.912 223.153 178.791 223.153 178.791C223.153 178.791 219.208 166.806 216.168 156.108C213.119 145.418 213.144 139.795 208.46 134.455C201.267 126.257 191.009 124.214 181.483 121.763L181.125 166.15L178.949 224.822Z" fill="#FFDB58"/>
<path d="M141.29 191.765L201.258 203.443L204.182 226.483H112.236C101.572 226.624 93.0915 217.579 93.9304 206.948C95.251 190.154 96.6879 169.472 97.7843 160.726C98.6315 153.907 101.356 146.855 104.578 140.784C109.221 132.046 124.687 120.816 138.25 120.268L140.817 177.388" fill="#FFDB58"/>
<g opacity="0.4">
<g opacity="0.4">
<g opacity="0.4">
<g opacity="0.4">
<g opacity="0.4">
<g opacity="0.4">
<path opacity="0.4" d="M178.949 224.822L211.874 225.146L206.334 201.25L208.186 205.76C211.682 214.274 219.972 219.839 229.183 219.839C239.598 219.839 246.791 212.089 251.202 202.654C261.501 180.594 271.426 145.07 271.426 145.07L251.343 127.428C236.816 154.912 223.153 178.791 223.153 178.791C223.153 178.791 219.208 166.806 216.168 156.108C213.119 145.418 213.144 139.795 208.46 134.455C201.267 126.257 191.009 124.214 181.483 121.763L181.125 166.15L178.949 224.822Z" fill="black"/>
</g>
</g>
</g>
</g>
<g opacity="0.4">
<g opacity="0.4">
<g opacity="0.4">
<g opacity="0.4">
<path opacity="0.4" d="M141.29 191.765L195.378 201.691C197.629 202.106 199.414 203.842 199.888 206.085L204.182 226.492H112.236C101.572 226.633 93.0915 217.588 93.9304 206.957C95.251 190.162 96.6879 169.481 97.7843 160.735C98.6315 153.916 101.356 146.864 104.578 140.793C109.221 132.055 124.687 120.825 138.25 120.277L140.817 177.396" fill="black"/>
</g>
</g>
</g>
</g>
</g>
</g>
<path d="M129.87 190.095C129.853 190.095 129.845 189.904 129.845 189.547C129.845 189.14 129.845 188.625 129.853 187.978C129.862 186.557 129.87 184.597 129.887 182.197C129.895 177.321 129.804 170.585 129.422 163.151C129.239 159.439 128.99 155.9 128.732 152.686C128.491 149.472 128.209 146.581 127.528 144.247C126.872 141.913 125.817 140.202 124.887 139.239C123.956 138.259 123.267 137.902 123.308 137.852C123.308 137.852 124.023 138.159 125.011 139.123C126 140.078 127.129 141.805 127.827 144.164C128.558 146.523 128.873 149.447 129.139 152.653C129.422 155.867 129.671 159.414 129.862 163.135C130.244 170.577 130.285 177.321 130.202 182.205C130.161 184.647 130.094 186.624 130.028 187.986C129.995 188.634 129.961 189.149 129.945 189.556C129.912 189.913 129.887 190.095 129.87 190.095Z" fill="#263238"/>
<path d="M200.096 205.071C200.046 205.121 199.498 204.215 197.911 203.302C197.122 202.853 196.093 202.43 194.847 202.081C193.601 201.724 192.156 201.449 190.553 201.126C184.149 199.822 175.295 198.003 165.494 196.167C155.685 194.331 146.772 192.853 140.319 191.823C137.121 191.308 134.521 190.893 132.669 190.594C131.797 190.444 131.108 190.328 130.593 190.245C130.119 190.162 129.87 190.112 129.87 190.095C129.87 190.079 130.128 190.104 130.601 190.162C131.116 190.228 131.814 190.32 132.686 190.428C134.496 190.668 137.121 191.034 140.352 191.516C146.822 192.471 155.743 193.899 165.56 195.743C175.369 197.579 184.215 199.439 190.602 200.827C192.197 201.175 193.651 201.474 194.905 201.848C196.159 202.222 197.197 202.679 197.986 203.16C198.775 203.634 199.307 204.132 199.631 204.489C199.805 204.664 199.905 204.822 199.98 204.913C200.063 205.013 200.104 205.071 200.096 205.071Z" fill="#263238"/>
<path d="M130.053 190.096C130.069 190.17 128.948 190.436 127.237 191.125C126.382 191.466 125.393 191.948 124.338 192.554C123.292 193.177 122.187 193.933 121.107 194.83C120.036 195.743 119.106 196.699 118.308 197.629C117.528 198.567 116.88 199.456 116.398 200.237C115.418 201.798 114.969 202.862 114.895 202.828C114.87 202.82 114.961 202.546 115.152 202.056C115.335 201.566 115.667 200.885 116.132 200.071C116.589 199.257 117.22 198.327 117.993 197.363C118.782 196.408 119.729 195.42 120.817 194.489C121.921 193.576 123.059 192.812 124.131 192.197C125.219 191.599 126.232 191.134 127.121 190.826C128.001 190.511 128.732 190.303 129.247 190.203C129.762 190.112 130.044 190.071 130.053 190.096Z" fill="#263238"/>
<path d="M207.487 204.448C207.471 204.448 207.429 204.257 207.363 203.875C207.296 203.451 207.205 202.903 207.089 202.222C206.856 200.785 206.557 198.708 206.208 196.134C205.511 190.992 204.664 183.866 203.949 175.975C203.243 168.085 202.803 160.917 202.579 155.734C202.462 153.143 202.388 151.041 202.363 149.588C202.355 148.898 202.346 148.342 202.338 147.918C202.338 147.536 202.346 147.337 202.355 147.337C202.371 147.337 202.396 147.536 202.421 147.918C202.446 148.342 202.487 148.898 202.529 149.588C202.612 151.083 202.737 153.168 202.886 155.726C203.193 160.909 203.675 168.06 204.381 175.942C205.095 183.824 205.893 190.951 206.516 196.1C206.823 198.642 207.081 200.71 207.263 202.197C207.346 202.886 207.404 203.434 207.454 203.858C207.496 204.248 207.504 204.448 207.487 204.448Z" fill="#263238"/>
<path d="M227.372 195.519C227.347 195.536 227.181 195.345 226.89 194.971C226.599 194.606 226.217 194.041 225.785 193.326C224.921 191.889 223.95 189.755 223.36 187.255C222.778 184.746 222.704 182.404 222.837 180.735C222.903 179.896 222.994 179.223 223.094 178.766C223.185 178.309 223.252 178.06 223.285 178.06C223.36 178.069 223.194 179.09 223.144 180.743C223.086 182.396 223.21 184.688 223.775 187.147C224.357 189.605 225.262 191.715 226.051 193.169C226.832 194.63 227.438 195.478 227.372 195.519Z" fill="#263238"/>
<path d="M129.629 159.239C129.629 159.256 129.521 159.272 129.322 159.306C129.114 159.322 128.815 159.389 128.417 159.389C127.628 159.438 126.481 159.389 125.086 159.131C123.691 158.874 122.079 158.367 120.36 157.653C118.641 156.938 116.813 156.025 114.895 155.07C112.984 154.123 111.116 153.317 109.363 152.752C107.61 152.196 105.974 151.872 104.587 151.822C101.796 151.681 100.152 152.437 100.135 152.329C100.127 152.312 100.227 152.271 100.418 152.196C100.617 152.129 100.891 151.996 101.281 151.905C102.037 151.681 103.183 151.498 104.604 151.523C106.024 151.54 107.702 151.839 109.488 152.379C111.273 152.927 113.167 153.732 115.086 154.688C117.004 155.643 118.815 156.565 120.509 157.287C122.204 158.01 123.782 158.55 125.136 158.832C127.877 159.43 129.629 159.131 129.629 159.239Z" fill="#FAFAFA"/>
<path d="M139.895 157.213C139.912 157.329 137.727 157.802 135.011 158.268C132.295 158.733 130.069 159.007 130.053 158.891C130.036 158.774 132.221 158.301 134.937 157.836C137.653 157.371 139.879 157.096 139.895 157.213Z" fill="#FAFAFA"/>
<path d="M129.255 175.045C129.263 175.07 128.832 175.261 128.051 175.569C127.262 175.876 126.107 176.291 124.67 176.756C121.796 177.695 117.743 178.791 113.192 179.597C110.916 179.996 108.731 180.286 106.738 180.486C104.753 180.693 102.926 180.801 101.406 180.627C99.8857 180.477 98.6897 180.054 97.9421 179.638C97.5684 179.431 97.2943 179.248 97.1199 179.107C96.9454 178.966 96.8624 178.891 96.8707 178.874C96.8956 178.841 97.2694 179.132 98.0252 179.489C98.781 179.846 99.9438 180.22 101.439 180.32C102.934 180.444 104.72 180.311 106.696 180.079C108.682 179.863 110.849 179.555 113.117 179.165C117.652 178.368 121.689 177.321 124.579 176.457C126.024 176.034 127.187 175.66 127.993 175.402C128.798 175.145 129.247 175.012 129.255 175.045Z" fill="#FAFAFA"/>
<path d="M139.663 179.414C139.663 179.53 137.636 179.663 135.136 179.705C132.636 179.746 130.609 179.68 130.609 179.564C130.609 179.447 132.636 179.314 135.136 179.273C137.636 179.231 139.663 179.298 139.663 179.414Z" fill="#FAFAFA"/>
<path d="M96.9202 217.255C96.9036 217.255 96.9368 217.098 97.0116 216.815C97.1029 216.483 97.2109 216.068 97.3438 215.569C97.4186 215.295 97.5016 214.996 97.593 214.672C97.701 214.348 97.8338 214.008 97.975 213.634C98.2658 212.895 98.5398 212.023 99.005 211.134C99.2209 210.677 99.4452 210.204 99.6777 209.714C99.9186 209.224 100.226 208.742 100.517 208.227C101.073 207.18 101.812 206.159 102.56 205.054C104.138 202.92 106.082 200.718 108.382 198.692C110.716 196.69 113.166 195.079 115.492 193.808C116.688 193.218 117.801 192.629 118.914 192.222C119.462 192.006 119.986 191.773 120.509 191.599C121.032 191.433 121.53 191.275 122.012 191.125C122.959 190.793 123.856 190.635 124.637 190.452C125.027 190.369 125.384 190.278 125.725 190.22C126.057 190.178 126.364 190.137 126.647 190.095C127.162 190.029 127.585 189.979 127.926 189.938C128.217 189.904 128.374 189.896 128.374 189.913C128.374 189.929 128.225 189.962 127.934 190.021C127.594 190.087 127.178 190.162 126.672 190.261C126.389 190.311 126.09 190.361 125.758 190.419C125.426 190.486 125.069 190.594 124.687 190.685C123.922 190.893 123.034 191.067 122.103 191.416C121.63 191.574 121.14 191.74 120.625 191.914C120.11 192.089 119.603 192.338 119.055 192.554C117.959 192.969 116.863 193.567 115.683 194.157C113.382 195.436 110.974 197.039 108.665 199.016C106.389 201.026 104.462 203.194 102.875 205.295C102.128 206.375 101.389 207.38 100.824 208.41C100.533 208.916 100.218 209.39 99.9768 209.872C99.7359 210.353 99.5033 210.827 99.2791 211.267C98.8056 212.147 98.5066 212.995 98.1993 213.725C98.0498 214.091 97.9003 214.431 97.784 214.747C97.6843 215.063 97.5847 215.362 97.5016 215.627C97.3355 216.117 97.2026 216.524 97.0946 216.848C96.995 217.114 96.9368 217.255 96.9202 217.255Z" fill="#FAFAFA"/>
<path d="M138.574 191.74C138.665 191.815 136.755 192.986 135.16 196.026C134.371 197.529 133.682 199.456 133.25 201.665C132.81 203.875 132.635 206.358 132.461 208.966C132.286 211.574 132.095 214.083 131.614 216.317C131.14 218.551 130.393 220.495 129.529 222.006C128.665 223.51 127.718 224.573 126.996 225.212C126.63 225.528 126.339 225.761 126.123 225.902C125.916 226.043 125.8 226.118 125.791 226.101C125.7 226.026 127.635 224.888 129.263 221.865C130.069 220.37 130.775 218.451 131.223 216.242C131.68 214.033 131.863 211.549 132.029 208.941C132.203 206.333 132.386 203.825 132.859 201.591C133.325 199.356 134.047 197.405 134.886 195.885C135.733 194.373 136.664 193.293 137.378 192.645C137.735 192.321 138.026 192.089 138.242 191.948C138.458 191.798 138.566 191.732 138.574 191.74Z" fill="#FAFAFA"/>
<path d="M152.752 226.624C152.636 226.624 152.769 219.465 153.059 210.644C153.35 201.815 153.682 194.672 153.798 194.672C153.915 194.672 153.782 201.832 153.491 210.661C153.2 219.473 152.868 226.624 152.752 226.624Z" fill="#FAFAFA"/>
<path d="M175.294 225.387C175.269 225.395 175.136 225.03 174.928 224.349C174.82 224.008 174.696 223.593 174.588 223.103C174.48 222.613 174.33 222.056 174.239 221.425C174.006 220.179 173.849 218.668 173.799 216.99C173.774 215.312 173.865 213.46 174.148 211.541C174.455 209.623 174.92 207.828 175.452 206.234C176.008 204.647 176.606 203.252 177.204 202.131C177.478 201.558 177.786 201.076 178.043 200.636C178.292 200.195 178.533 199.838 178.741 199.548C179.148 198.966 179.38 198.651 179.405 198.667C179.48 198.717 178.583 200.004 177.487 202.264C176.93 203.393 176.365 204.78 175.842 206.35C175.344 207.928 174.887 209.706 174.588 211.591C174.305 213.485 174.206 215.312 174.214 216.965C174.247 218.626 174.364 220.113 174.563 221.359C174.912 223.867 175.377 225.37 175.294 225.387Z" fill="#FAFAFA"/>
<path d="M137.013 133.591C136.98 133.666 135.701 133.084 133.541 132.386C131.39 131.689 128.342 130.941 124.903 130.634C121.465 130.335 118.333 130.534 116.091 130.85C113.848 131.157 112.486 131.498 112.461 131.423C112.453 131.398 112.785 131.29 113.4 131.116C114.014 130.941 114.911 130.742 116.041 130.543C118.283 130.152 121.456 129.895 124.936 130.202C128.417 130.518 131.49 131.323 133.633 132.096C134.704 132.486 135.56 132.835 136.133 133.117C136.714 133.4 137.03 133.566 137.013 133.591Z" fill="#FAFAFA"/>
<path d="M202.629 168.509C202.621 168.567 201.45 168.534 199.548 168.459C197.645 168.384 195.021 168.284 192.122 168.21C189.223 168.135 186.599 168.11 184.697 168.085C182.795 168.06 181.615 168.043 181.615 167.977C181.615 167.944 181.906 167.911 182.438 167.877C182.969 167.844 183.742 167.803 184.688 167.778C186.59 167.72 189.223 167.703 192.13 167.769C195.037 167.844 197.662 167.994 199.556 168.143C200.503 168.218 201.275 168.293 201.798 168.359C202.338 168.434 202.629 168.484 202.629 168.509Z" fill="#FAFAFA"/>
<path d="M219.025 165.41C219.05 165.485 217.987 165.842 216.367 166.64C214.747 167.437 212.604 168.733 210.553 170.56C208.501 172.396 206.965 174.372 205.993 175.892C205.013 177.412 204.539 178.426 204.465 178.392C204.44 178.384 204.539 178.118 204.739 177.645C204.93 177.171 205.27 176.515 205.735 175.726C206.657 174.148 208.186 172.097 210.27 170.236C212.364 168.376 214.573 167.097 216.242 166.366C217.081 166 217.771 165.734 218.261 165.601C218.742 165.444 219.017 165.377 219.025 165.41Z" fill="#FAFAFA"/>
<path d="M210.935 138.782C210.943 138.89 209.24 138.516 206.715 139.372C205.453 139.77 204.024 140.46 202.454 141.265C200.885 142.063 199.157 143.001 197.189 143.633C193.252 144.92 189.406 144.812 186.781 144.314C185.461 144.065 184.414 143.741 183.708 143.483C183.011 143.217 182.628 143.035 182.645 143.01C182.67 142.927 184.207 143.591 186.831 144.006C189.439 144.422 193.202 144.48 197.056 143.217C198.983 142.603 200.694 141.689 202.272 140.908C203.85 140.119 205.32 139.455 206.616 139.081C207.911 138.691 209.016 138.591 209.772 138.633C210.146 138.633 210.436 138.691 210.636 138.716C210.835 138.74 210.943 138.765 210.935 138.782Z" fill="#FAFAFA"/>
<path d="M206.79 194.456C206.798 194.481 206.458 194.639 205.827 194.905C205.511 195.037 205.121 195.195 204.655 195.345C204.19 195.494 203.667 195.694 203.077 195.843C201.898 196.192 200.461 196.491 198.85 196.724C197.238 196.931 195.444 197.047 193.567 197.006C191.69 196.939 189.904 196.715 188.31 196.408C186.715 196.084 185.295 195.694 184.14 195.278C183.55 195.096 183.044 194.863 182.587 194.689C182.13 194.514 181.748 194.331 181.441 194.182C180.826 193.883 180.494 193.7 180.502 193.675C180.535 193.601 181.906 194.257 184.231 194.996C185.394 195.37 186.798 195.727 188.376 196.026C189.962 196.3 191.715 196.516 193.575 196.582C195.428 196.632 197.197 196.524 198.8 196.341C200.395 196.134 201.823 195.868 203.003 195.561C205.361 194.954 206.765 194.373 206.79 194.456Z" fill="#FAFAFA"/>
<path d="M225.877 219.033C225.869 219.041 225.752 218.95 225.553 218.767C225.362 218.576 225.046 218.319 224.698 217.928C223.975 217.181 223.028 216.001 222.073 214.407C220.129 211.234 218.477 206.192 218.369 200.494C218.269 194.805 219.382 189.738 220.254 186.159C220.702 184.364 221.101 182.919 221.392 181.923C221.533 181.466 221.641 181.092 221.741 180.785C221.824 180.527 221.874 180.394 221.89 180.394C221.907 180.394 221.882 180.544 221.824 180.81C221.749 181.125 221.666 181.507 221.558 181.972C221.309 183.044 220.968 184.481 220.553 186.233C219.756 189.83 218.701 194.863 218.8 200.494C218.908 206.117 220.487 211.093 222.33 214.257C223.244 215.852 224.141 217.048 224.822 217.82C225.495 218.593 225.902 219 225.877 219.033Z" fill="#FAFAFA"/>
<path d="M256.102 190.826C256.035 190.926 254.673 189.423 251.708 188.36C250.238 187.82 248.427 187.371 246.392 186.981C244.357 186.566 242.09 186.192 239.773 185.453C235.138 183.974 231.5 181.325 229.249 179.124C228.111 178.019 227.297 177.03 226.766 176.324C226.492 175.976 226.309 175.685 226.176 175.494C226.051 175.303 225.985 175.195 226.002 175.187C226.026 175.17 226.334 175.544 226.899 176.216C227.463 176.881 228.319 177.828 229.465 178.899C231.741 181.026 235.354 183.584 239.914 185.037C242.181 185.76 244.44 186.15 246.475 186.582C248.519 186.997 250.346 187.487 251.824 188.069C253.303 188.65 254.407 189.34 255.097 189.896C255.462 190.154 255.695 190.411 255.869 190.569C256.035 190.727 256.118 190.818 256.102 190.826Z" fill="#FAFAFA"/>
<path d="M265.603 163.11C265.578 163.126 265.263 162.852 264.714 162.337C264.44 162.08 264.108 161.764 263.693 161.415C263.286 161.066 262.837 160.651 262.297 160.244C261.251 159.389 259.947 158.458 258.444 157.512C256.924 156.59 255.196 155.659 253.319 154.845C251.425 154.048 249.565 153.442 247.845 152.977C246.118 152.545 244.548 152.237 243.211 152.071C242.546 151.963 241.94 151.93 241.4 151.872C240.868 151.814 240.403 151.789 240.03 151.772C239.274 151.731 238.858 151.689 238.858 151.664C238.858 151.631 239.274 151.614 240.038 151.606C240.42 151.598 240.885 151.598 241.417 151.639C241.956 151.673 242.571 151.689 243.244 151.781C244.598 151.913 246.192 152.188 247.945 152.603C249.689 153.051 251.575 153.649 253.485 154.463C255.387 155.286 257.131 156.241 258.651 157.188C260.163 158.159 261.467 159.131 262.489 160.02C263.02 160.444 263.452 160.875 263.851 161.249C264.249 161.615 264.573 161.947 264.831 162.229C265.346 162.777 265.628 163.093 265.603 163.11Z" fill="#FAFAFA"/>
<path d="M192.928 124.986C192.953 125.036 192.355 125.351 191.35 125.742C190.345 126.14 188.925 126.614 187.322 126.988C185.71 127.361 184.232 127.569 183.152 127.652C182.072 127.735 181.408 127.727 181.399 127.669C181.391 127.536 184.041 127.312 187.222 126.564C190.403 125.833 192.878 124.861 192.928 124.986Z" fill="#FAFAFA"/>
<path d="M222.389 241.974C222.854 243.585 221.508 245.13 219.847 244.906C218.95 244.781 218.211 244.15 217.945 243.278L217.247 240.661L217.347 240.695C217.787 242.264 216.276 243.701 214.656 243.543C213.56 243.519 212.621 241.957 212.314 241.118C210.503 241.334 208.792 240.271 208.094 239.092L203.219 231.483L194.19 224.88L199.647 205.37L219.083 217.945C219.847 218.535 219.963 218.792 221.176 219.913L233.718 231.442C232.298 232.297 231.085 232.231 229.116 231.442C227.148 230.653 218.477 224.806 218.477 224.806L222.389 241.974Z" fill="#FFBE9D"/>
<path d="M205.769 225.918C205.785 225.893 205.993 226.018 206.35 226.259C206.549 226.4 206.765 226.55 206.99 226.707C207.239 226.874 207.538 227.106 207.795 227.405C208.053 227.704 208.294 228.086 208.451 228.535C208.601 228.967 208.759 229.423 208.925 229.897C209.257 230.869 209.614 231.924 209.988 233.02C210.727 235.238 211.375 237.256 211.824 238.726C212.272 240.196 212.521 241.11 212.463 241.126C212.405 241.143 212.056 240.263 211.533 238.817C211.01 237.372 210.32 235.379 209.573 233.161C209.207 232.056 208.867 231.01 208.543 230.03C208.393 229.556 208.244 229.1 208.103 228.659C207.97 228.252 207.77 227.895 207.546 227.604C207.322 227.305 207.073 227.098 206.832 226.907C206.616 226.724 206.425 226.558 206.234 226.4C205.918 226.109 205.752 225.943 205.769 225.918Z" fill="#EB996E"/>
<path d="M217.455 241.077C217.422 241.085 217.33 240.794 217.181 240.271C217.006 239.656 216.799 238.909 216.558 238.045C216.035 236.168 215.32 233.568 214.415 230.736C213.501 227.912 212.563 225.37 211.425 223.817C210.868 223.036 210.287 222.513 209.83 222.231C209.373 221.948 209.083 221.865 209.099 221.824C209.108 221.807 209.182 221.824 209.324 221.857C209.465 221.882 209.664 221.965 209.922 222.089C210.42 222.339 211.068 222.854 211.674 223.643C212.912 225.221 213.908 227.779 214.83 230.611C215.736 233.452 216.408 236.068 216.857 237.97C217.081 238.925 217.247 239.698 217.347 240.229C217.447 240.769 217.488 241.068 217.455 241.077Z" fill="#EB996E"/>
<path d="M222.472 242.256C222.447 242.264 222.322 241.957 222.131 241.384C221.924 240.719 221.666 239.914 221.359 238.959C220.728 236.907 219.88 234.067 218.975 230.927C218.095 227.829 217.306 225.03 216.699 222.87C216.375 221.865 215.852 221.176 215.37 220.844C214.897 220.495 214.556 220.453 214.565 220.412C214.565 220.403 214.656 220.395 214.814 220.428C214.972 220.462 215.204 220.536 215.47 220.702C216.01 221.01 216.624 221.732 216.99 222.771C217.671 224.822 218.477 227.663 219.399 230.811C220.304 233.959 221.101 236.807 221.658 238.884C221.907 239.847 222.123 240.67 222.297 241.342C222.43 241.924 222.497 242.248 222.472 242.256Z" fill="#EB996E"/>
<path d="M340.498 62.1441C340.498 63.7471 341.802 65.0511 343.405 65.0511C345.008 65.0511 346.312 63.7471 346.312 62.1441C346.312 60.5411 345.008 59.2371 343.405 59.2371C341.802 59.2371 340.498 60.5411 340.498 62.1441Z" fill="#455A64"/>
<path d="M331.768 65.0511C333.374 65.0511 334.675 63.7496 334.675 62.1441C334.675 60.5386 333.374 59.2371 331.768 59.2371C330.163 59.2371 328.861 60.5386 328.861 62.1441C328.861 63.7496 330.163 65.0511 331.768 65.0511Z" fill="#455A64"/>
<path d="M317.258 60.6907C316.452 62.0778 316.934 63.8635 318.321 64.6609C319.708 65.4666 321.494 64.9848 322.291 63.5977C323.097 62.2107 322.615 60.4249 321.228 59.6276C319.841 58.8219 318.055 59.3036 317.258 60.6907Z" fill="#455A64"/>
<path d="M331.585 28.19C331.585 28.1734 331.386 28.1734 330.995 28.1817C330.572 28.19 329.999 28.2066 329.268 28.2316C328.886 28.2482 328.462 28.2482 327.997 28.2897C327.532 28.3561 327.025 28.4226 326.477 28.5057C325.921 28.5887 325.331 28.6718 324.7 28.7631C324.077 28.9209 323.412 29.0788 322.714 29.2532C319.924 29.9675 316.543 31.1967 313.08 33.4559C309.624 35.6736 306.036 38.8464 303.121 43.1571C300.264 47.4762 298.054 52.8999 297.473 59.0047C297.415 60.5329 297.232 62.0861 297.382 63.6642C297.44 64.4533 297.423 65.2506 297.54 66.048C297.656 66.8454 297.78 67.6427 297.897 68.4484C298.545 71.6295 299.491 74.8937 301.136 77.9253C302.739 80.9653 304.807 83.864 307.324 86.4388C309.899 88.9638 312.897 91.1565 316.244 92.8426C319.575 94.5453 323.271 95.7247 327.117 96.1816C328.072 96.3726 329.044 96.3726 330.015 96.4307C330.987 96.4972 331.967 96.5304 332.947 96.4806C334.907 96.3975 336.876 96.1566 338.819 95.7413C343.039 94.8443 347.017 93.125 350.506 90.8243L350.149 90.8575C354.202 92.4855 358.172 94.0802 362.051 95.6334L362.757 95.9158L362.558 95.1849C361.353 90.816 360.19 86.5717 359.061 82.4603L359.003 82.776C362.342 78.3323 364.476 73.2658 365.357 68.2324C365.797 65.7158 365.988 63.2074 365.822 60.7821C365.772 59.5695 365.714 58.3651 365.481 57.2023C365.39 56.6209 365.298 56.0395 365.207 55.4581C365.099 54.885 364.925 54.3285 364.792 53.772C362.491 44.81 356.976 38.1986 351.511 34.4111C348.778 32.4841 346.079 31.1054 343.604 30.2416C342.989 30.0173 342.391 29.8097 341.826 29.602C341.236 29.4525 340.68 29.3113 340.132 29.1701C339.592 29.0372 339.077 28.9126 338.587 28.7881C338.089 28.6967 337.615 28.6385 337.167 28.5721C336.27 28.4558 335.472 28.3063 334.783 28.2648C334.102 28.2399 333.52 28.2233 333.03 28.2066C332.59 28.1983 332.233 28.19 331.959 28.1817C331.71 28.1734 331.585 28.1734 331.585 28.19C331.585 28.1983 331.71 28.2149 331.942 28.2399C332.216 28.2648 332.565 28.2897 333.005 28.3229C333.487 28.3561 334.069 28.3977 334.741 28.4392C335.431 28.489 336.211 28.6635 337.1 28.7964C340.605 29.4359 345.855 30.8396 351.22 34.7599C356.577 38.5474 361.96 45.1007 364.169 53.9049C364.302 54.4531 364.468 55.0013 364.568 55.5577C364.651 56.1225 364.742 56.6956 364.825 57.2687C365.041 58.4149 365.091 59.5861 365.141 60.7821C365.298 63.1659 365.099 65.6244 364.659 68.0829C363.779 73.0166 361.677 77.9669 358.396 82.3108L358.288 82.452L358.338 82.6264C359.459 86.7378 360.622 90.9904 361.81 95.3593L362.317 94.9108C358.438 93.3493 354.468 91.7462 350.414 90.1183L350.232 90.0436L350.066 90.1515C346.652 92.3941 342.765 94.0802 338.637 94.9523C336.735 95.3593 334.816 95.6002 332.897 95.6749C331.942 95.7164 330.987 95.6832 330.032 95.6251C329.085 95.5669 328.13 95.5669 327.2 95.3842C323.437 94.944 319.832 93.7978 316.568 92.1366C313.296 90.4921 310.355 88.3492 307.83 85.8823C305.355 83.3657 303.329 80.5334 301.751 77.5599C300.139 74.5947 299.201 71.4053 298.553 68.2906C298.428 67.5015 298.312 66.7208 298.187 65.94C298.071 65.1593 298.088 64.3785 298.03 63.6061C297.88 62.0612 298.054 60.5329 298.104 59.0379C298.652 53.0494 300.787 47.7087 303.57 43.4395C306.41 39.1786 309.923 36.0224 313.312 33.7965C316.701 31.5373 320.032 30.2831 322.789 29.5273C323.479 29.3445 324.135 29.1701 324.749 29.004C325.372 28.9043 325.962 28.8047 326.51 28.7133C327.05 28.6219 327.557 28.5389 328.022 28.4641C328.487 28.4143 328.911 28.3977 329.284 28.3728C330.007 28.3229 330.58 28.2814 331.004 28.2482C331.386 28.2233 331.585 28.1983 331.585 28.19Z" fill="#455A64"/>
</g>
<defs>
<clipPath id="clip0">
<rect width="576.474" height="302" fill="white"/>
</clipPath>
</defs>
</svg>
