<svg width="32" height="40" viewBox="0 0 32 40" fill="none" xmlns="http://www.w3.org/2000/svg">
<path fill-rule="evenodd" clip-rule="evenodd" d="M12.6101 3.72945C12.7755 1.35043 15.0324 -0.489179 17.4648 0.11639L18.1289 0.284321C19.307 0.579472 20.3527 1.44457 20.7039 2.73968C21.2636 4.81591 22.06 9.12869 20.8616 14.215C21.2363 14.1632 21.6121 14.1199 21.9888 14.0852C23.8029 13.9198 26.2354 13.902 28.3905 14.6195C29.7085 15.0597 30.9197 16.3523 31.4438 17.8586C31.912 19.2122 31.8509 20.8152 30.8484 22.268C30.996 22.5708 31.1105 22.8838 31.1995 23.1916C31.3955 23.8786 31.4871 24.6343 31.4871 25.3696C31.4871 26.105 31.3955 26.8607 31.1995 27.5477C31.1003 27.8912 30.9705 28.2423 30.7924 28.5756C31.2224 29.5603 31.0647 30.6595 30.7848 31.4966C30.4983 32.3232 30.0789 33.0975 29.5431 33.7891C29.6805 34.1758 29.7365 34.583 29.7365 34.9722C29.7365 35.7483 29.5101 36.5625 29.0928 37.2928C28.2429 38.7838 26.556 40 24.1719 40V37.4556C25.6044 37.4556 26.4644 36.7635 26.8842 36.0307C27.075 35.7097 27.1809 35.3455 27.1921 34.9722C27.1921 34.6669 27.103 34.5524 27.0903 34.5397L26.1896 33.639L27.0878 32.7383C27.6017 32.2268 28.1234 31.4381 28.3727 30.6926C28.6373 29.8987 28.4821 29.5705 28.36 29.4509L27.4618 28.5502L28.36 27.6494C28.4694 27.5426 28.6271 27.2932 28.7518 26.848C28.874 26.423 28.9427 25.9065 28.9427 25.3696C28.9427 24.8328 28.874 24.3163 28.7518 23.8913C28.6246 23.4486 28.4694 23.1967 28.36 23.0899L27.4618 22.1891L28.36 21.2884C29.2582 20.3928 29.309 19.4743 29.0393 18.6931C28.7289 17.8026 28.0318 17.1843 27.5865 17.0342C25.925 16.482 23.9047 16.4642 22.2178 16.6169C21.2818 16.704 20.3521 16.8494 19.4342 17.052L19.3986 17.0596L19.3909 17.0622C19.1699 17.1171 18.9382 17.1116 18.72 17.0464C18.5018 16.9812 18.3052 16.8587 18.1505 16.6915C17.9958 16.5244 17.8889 16.3188 17.8408 16.0962C17.7926 15.8736 17.8052 15.6422 17.877 15.4261C19.1574 11.5373 19.2856 7.36118 18.246 3.40122C18.1696 3.11879 17.9203 2.85417 17.5132 2.7524L16.8465 2.58701C16.0679 2.39109 15.213 2.98394 15.1494 3.90501C14.9586 6.65807 14.5413 9.37549 13.923 11.1566C13.4803 12.4339 12.3887 14.3829 10.773 16.1869C9.15224 17.9985 6.90807 19.7745 4.12194 20.5327C3.11945 20.8075 2.54441 21.5403 2.54441 22.1866V32.3693C2.54441 33.0309 3.10418 33.6797 3.95147 33.7687C7.24139 34.1173 8.87744 35.1173 10.2896 35.9773L10.3914 36.0409C11.0784 36.4582 11.6508 36.794 12.3658 37.0409C13.0706 37.2826 13.9688 37.4556 15.2665 37.4556H24.1719V40H15.2665C13.7271 40 12.5439 39.7939 11.5364 39.4453C10.67 39.1289 9.84204 38.7158 9.06827 38.2138L8.94614 38.1375C7.66376 37.3564 6.40428 36.5879 3.6843 36.3004C1.73529 36.0918 0 34.5193 0 32.3668V22.1891C0 20.0264 1.74292 18.5455 3.45276 18.0799C5.61297 17.4896 7.45766 16.0775 8.87744 14.4923C10.3023 12.897 11.203 11.2355 11.5211 10.322C12.0274 8.85898 12.4269 6.40617 12.6101 3.732V3.72945Z" fill="black"/>
</svg>
