<svg width="33" height="32" viewBox="0 0 33 32" fill="none" xmlns="http://www.w3.org/2000/svg">
<path d="M17.7481 0.855521L21.4176 9.22502C21.5556 9.54 21.7757 9.81216 22.0548 10.0131C22.3339 10.214 22.6618 10.3363 23.0043 10.3673L31.9435 11.1688C32.955 11.316 33.3585 12.5565 32.6251 13.2707L25.8913 18.9276C25.3461 19.3856 25.098 20.1054 25.2479 20.8006L27.2054 29.9634C27.3771 30.9694 26.3221 31.7381 25.417 31.2611L17.6145 26.6919C17.3203 26.5192 16.9852 26.4281 16.644 26.4281C16.3028 26.4281 15.9677 26.5192 15.6735 26.6919L7.87102 31.2583C6.96864 31.7327 5.91086 30.9666 6.08261 29.9607L8.04004 20.7978C8.18726 20.1026 7.9419 19.3829 7.39665 18.9249L0.660161 13.2735C-0.070466 12.5619 0.333015 11.3188 1.34172 11.1715L10.281 10.37C10.6235 10.3391 10.9514 10.2167 11.2305 10.0158C11.5096 9.81488 11.7296 9.54273 11.8677 9.22774L15.5371 0.858247C15.9924 -0.057763 17.2956 -0.0577629 17.7481 0.855521Z" fill="#FFDB58"/>
</svg>
