<svg width="48" height="48" viewBox="0 0 48 48" fill="none" xmlns="http://www.w3.org/2000/svg">
<path d="M19.0714 1V7.57143L15.7857 9.21429L10.8571 4.28571L4.28571 10.8571L9.21429 15.7857L7.57143 19.0714H1V28.9286H7.57143L9.21429 32.2143L4.28571 37.1429L10.8571 43.7143L15.7857 38.7857L19.0714 40.4286V47H28.9286V40.4286L32.2143 38.7857L37.1429 43.7143L43.7143 37.1429L38.7857 32.2143L40.4286 28.9286H47V19.0714H40.4286L38.7857 15.7857L43.7143 10.8571L37.1429 4.28571L32.2143 9.21429L28.9286 7.57143V1H19.0714Z" stroke="black" stroke-width="2" stroke-linecap="round" stroke-linejoin="round"/>
<path d="M24.0001 30.5711C27.6294 30.5711 30.5716 27.629 30.5716 23.9997C30.5716 20.3704 27.6294 17.4282 24.0001 17.4282C20.3708 17.4282 17.4287 20.3704 17.4287 23.9997C17.4287 27.629 20.3708 30.5711 24.0001 30.5711Z" stroke="black" stroke-width="2" stroke-linecap="round" stroke-linejoin="round"/>
</svg>
