<svg width="34" height="48" viewBox="0 0 34 48" fill="none" xmlns="http://www.w3.org/2000/svg">
<path d="M29.0222 5.66404H22.0712C20.8151 5.66804 20.8621 7.54005 22.0712 7.52905H29.0222V8.48606H22.0712C20.8221 8.47506 20.8681 10.3461 22.0712 10.3511H29.0222V11.3291H22.0712C20.8221 11.3291 20.8681 13.1991 22.0712 13.1941H29.0222V14.1261H22.0712C20.8481 14.1351 20.8681 16.0071 22.0712 16.0131H29.0222V16.9471H22.0712C20.8481 16.9431 20.8431 18.8121 22.0712 18.8121H29.0222V19.7441H22.0712C20.8481 19.7481 20.8431 21.6192 22.0712 21.6101H29.0222V22.5652H22.0712C20.8481 22.5542 20.8431 24.4232 22.0712 24.4302H29.0222V25.3602H22.0712C20.8481 25.3592 20.8681 27.2322 22.0712 27.2262H29.0222V45.3853C29.0262 48.1523 33.2292 48.1023 33.2412 45.3853V2.89002C33.2292 1.62601 32.1912 0.0280002 30.4832 0.0230002H22.0712C20.8151 0.0240002 20.8621 1.89601 22.0712 1.88801L29.0222 1.91101V2.84102H22.0712C20.8171 2.83502 20.8641 4.70603 22.0712 4.70703H29.0222V5.66404ZM21.5931 37.8583C21.5891 34.6282 18.2411 31.1542 14.2411 33.4042V21.0501L11.6541 0.675005C11.6001 0.136001 11.1431 0.00900006 10.8361 0C10.5191 0.00900006 9.88407 0.136001 9.81507 0.675005L7.24105 21.0501V33.4042C3.24102 31.1542 0.00100001 34.6502 0 37.8333C0.00100001 40.6653 2.18102 42.9913 5.13104 42.9843C8.10306 42.9913 10.2411 40.3843 10.2411 37.8333V25.0002H11.2411V37.8333C11.2411 40.6893 13.4531 42.8033 15.9111 42.9373C15.8701 44.5033 16.3811 46.7373 17.3431 47.6233C18.4711 48.6633 19.8141 47.3333 19.2631 46.2503C18.7311 45.2423 18.2091 44.6453 18.6331 42.4443C20.4051 41.6243 21.5891 39.8983 21.5931 37.8583ZM5.24504 40.3993C4.57072 40.3993 3.92402 40.1314 3.4472 39.6546C2.97039 39.1778 2.70252 38.5311 2.70252 37.8568C2.70252 37.1824 2.97039 36.5357 3.4472 36.0589C3.92402 35.5821 4.57072 35.3142 5.24504 35.3142C6.63105 35.3222 7.76005 36.4593 7.77005 37.8583C7.7672 38.5285 7.50076 39.1708 7.0283 39.6462C6.55584 40.1217 5.91528 40.3922 5.24504 40.3993ZM13.8161 37.8583C13.8184 37.1874 14.0847 36.5444 14.5574 36.0683C15.0302 35.5922 15.6713 35.3213 16.3421 35.3142C17.0132 35.3203 17.6548 35.5909 18.1276 36.0672C18.6003 36.5435 18.8661 37.1871 18.8671 37.8583C18.8661 38.5291 18.6002 39.1724 18.1274 39.6482C17.6545 40.1241 17.0129 40.394 16.3421 40.3993C15.6714 40.3932 15.0302 40.1231 14.5573 39.6474C14.0845 39.1718 13.8182 38.529 13.8161 37.8583Z" fill="white"/>
</svg>
