<svg width="52" height="43" viewBox="0 0 52 43" fill="none" xmlns="http://www.w3.org/2000/svg">
<path d="M2 17.2727L7.15182 5.25227C7.99045 3.29546 10.1273 2 12.515 2H39.485C41.8727 2 44.0095 3.29546 44.8482 5.25227L50 17.2727" stroke="white" stroke-width="3" stroke-linecap="round" stroke-linejoin="round"/>
<path d="M2 17.2725H50V36.9088H2V17.2725Z" stroke="white" stroke-width="3" stroke-linecap="round" stroke-linejoin="round"/>
<path d="M6.36364 36.9092V41.2728H2V36.9092" stroke="white" stroke-width="3" stroke-linecap="round" stroke-linejoin="round"/>
<path d="M50 36.9092V41.2728H45.6364V36.9092" stroke="white" stroke-width="3" stroke-linecap="round" stroke-linejoin="round"/>
<path d="M10.7273 28.182C11.9323 28.182 12.9091 27.2052 12.9091 26.0002C12.9091 24.7952 11.9323 23.8184 10.7273 23.8184C9.52229 23.8184 8.54546 24.7952 8.54546 26.0002C8.54546 27.2052 9.52229 28.182 10.7273 28.182Z" stroke="white" stroke-width="3" stroke-linecap="round" stroke-linejoin="round"/>
<path d="M41.2727 28.182C42.4777 28.182 43.4545 27.2052 43.4545 26.0002C43.4545 24.7952 42.4777 23.8184 41.2727 23.8184C40.0677 23.8184 39.0909 24.7952 39.0909 26.0002C39.0909 27.2052 40.0677 28.182 41.2727 28.182Z" stroke="white" stroke-width="3" stroke-linecap="round" stroke-linejoin="round"/>
</svg>
