<svg width="35" height="29" viewBox="0 0 35 29" fill="none" xmlns="http://www.w3.org/2000/svg">
<path d="M34.1405 15.3931C34.2018 15.0714 34.2324 14.7344 34.2324 14.3821C34.2324 14.0298 34.2018 13.6928 34.1405 13.3711C33.7576 11.058 32.0572 9.17382 29.836 8.51512C29.0242 6.79945 27.8753 5.29824 26.4813 4.05744C24.061 1.89753 20.8747 0.595459 17.3821 0.595459C13.8895 0.595459 10.7032 1.89753 8.2829 4.05744C6.8736 5.29824 5.72471 6.81477 4.92815 8.51512C2.70697 9.17382 1.00661 11.0427 0.623649 13.3711C0.562375 13.6928 0.531738 14.0298 0.531738 14.3821C0.531738 14.7344 0.562375 15.0714 0.623649 15.3931C1.00661 17.7062 2.70697 19.5904 4.92815 20.2491C5.72471 21.9495 6.8736 23.4507 8.25226 24.6761C10.6726 26.8514 13.8742 28.1688 17.3821 28.1688C20.89 28.1688 24.0916 26.8514 26.5272 24.6761C27.9059 23.4507 29.0548 21.9341 29.8514 20.2491C32.0572 19.5904 33.7576 17.7215 34.1405 15.3931ZM28.105 17.4458C27.9519 17.4458 27.814 17.4152 27.6608 17.3999C27.3544 18.4262 26.9102 19.3759 26.3434 20.2491C24.4286 23.1749 21.1351 25.1051 17.3821 25.1051C13.6291 25.1051 10.3356 23.1749 8.42077 20.2491C7.85398 19.3759 7.40975 18.4262 7.10338 17.3999C6.95019 17.4152 6.81232 17.4458 6.65914 17.4458C4.9741 17.4458 3.59544 16.0671 3.59544 14.3821C3.59544 12.6971 4.9741 11.3184 6.65914 11.3184C6.81232 11.3184 6.95019 11.349 7.10338 11.3644C7.40975 10.338 7.85398 9.38828 8.42077 8.51512C10.3356 5.58929 13.6291 3.65916 17.3821 3.65916C21.1351 3.65916 24.4286 5.58929 26.3434 8.51512C26.9102 9.38828 27.3544 10.338 27.6608 11.3644C27.814 11.349 27.9519 11.3184 28.105 11.3184C29.7901 11.3184 31.1687 12.6971 31.1687 14.3821C31.1687 16.0671 29.7901 17.4458 28.105 17.4458ZM10.4888 17.4458C11.653 20.1572 14.3031 22.0414 17.3821 22.0414C20.4611 22.0414 23.1112 20.1572 24.2754 17.4458H10.4888Z" fill="#676767"/>
</svg>
