<svg width="28" height="28" viewBox="0 0 28 28" fill="none" xmlns="http://www.w3.org/2000/svg">
<mask id="path-1-inside-1" fill="white">
<path d="M13.1204 16.6996C12.6806 16.6996 12.3075 16.4586 12.1219 16.1437C11.8384 15.6617 11.9989 15.1039 12.4909 14.8454C12.9245 14.618 12.9287 13.8444 12.8119 13.1447C11.1984 15.1291 10.004 16.3089 6.45807 16.3089C5.33656 16.3089 4.41725 16.0621 3.44375 15.7997L3.1936 15.7317C2.91843 15.6578 2.75792 15.3896 2.83713 15.133C2.91634 14.8765 3.20402 14.7268 3.47919 14.8007L3.73142 14.8687C4.63197 15.1117 5.48248 15.341 6.45807 15.341C9.74757 15.341 10.6168 14.2603 12.3491 12.1087L12.6431 11.7453C12.7577 11.6015 12.9495 11.5315 13.1392 11.5587C13.3289 11.5859 13.4873 11.7103 13.5499 11.8794C13.6604 12.1787 14.5838 14.8201 13.0329 15.6734C13.0412 15.6909 13.0579 15.7103 13.0788 15.722C13.1121 15.7394 13.1621 15.7336 13.2268 15.7006C14.0314 15.3021 15.303 14.0446 14.957 11.86C14.9236 11.6481 15.0424 11.4401 15.2509 11.3507C15.4594 11.2594 15.7053 11.308 15.8596 11.4673C17.8504 13.5587 20.8063 14.7579 23.9687 14.7579C24.075 14.7579 24.1792 14.754 24.2835 14.7521L24.3397 14.7501C24.6358 14.7404 24.8671 14.9523 24.8755 15.2186C24.8838 15.4868 24.6587 15.7103 24.3731 15.7181L24.3189 15.72C24.2022 15.7239 24.0875 15.7278 23.9708 15.7278C20.9856 15.7278 18.1631 14.7462 16.0389 12.9989C15.8763 14.9464 14.5838 16.1282 13.7146 16.5577C13.5082 16.6568 13.3081 16.6996 13.1204 16.6996Z"/>
</mask>
<path d="M12.1219 16.1437L10.398 17.1577L10.3988 17.159L12.1219 16.1437ZM12.4909 14.8454L11.562 13.0742L11.5606 13.0749L12.4909 14.8454ZM12.8119 13.1447L14.7847 12.8156L14.0555 8.44493L11.2601 11.883L12.8119 13.1447ZM3.44375 15.7997L2.91892 17.7296L2.92326 17.7308L3.44375 15.7997ZM3.1936 15.7317L3.71842 13.8017L3.71207 13.8L3.1936 15.7317ZM3.47919 14.8007L3.99997 12.8697L3.99766 12.869L3.47919 14.8007ZM3.73142 14.8687L4.25237 12.9377L4.25221 12.9377L3.73142 14.8687ZM12.3491 12.1087L10.794 10.8511L10.7913 10.8545L12.3491 12.1087ZM12.6431 11.7453L14.1982 13.0029L14.207 12.992L12.6431 11.7453ZM13.5499 11.8794L15.4261 11.1868L15.4257 11.1856L13.5499 11.8794ZM13.0329 15.6734L12.0688 13.921L10.4156 14.8306L11.2275 16.5339L13.0329 15.6734ZM13.0788 15.722L12.1023 17.4674L12.1259 17.4806L12.1498 17.4931L13.0788 15.722ZM13.2268 15.7006L12.3393 13.9083L12.3277 13.914L12.3163 13.9198L13.2268 15.7006ZM14.957 11.86L12.9813 12.171L12.9816 12.1729L14.957 11.86ZM15.2509 11.3507L16.0392 13.1888L16.0465 13.1857L16.0536 13.1826L15.2509 11.3507ZM15.8596 11.4673L17.3082 10.0884L17.3025 10.0824L17.2967 10.0764L15.8596 11.4673ZM24.2835 14.7521L24.3207 16.7517L24.3366 16.7514L24.3525 16.7509L24.2835 14.7521ZM24.3397 14.7501L24.2741 12.7512L24.2707 12.7513L24.3397 14.7501ZM24.8755 15.2186L26.8745 15.1564L26.8745 15.156L24.8755 15.2186ZM24.3731 15.7181L24.3187 13.7188L24.3101 13.719L24.3015 13.7194L24.3731 15.7181ZM24.3189 15.72L24.3855 17.7189L24.3905 17.7187L24.3189 15.72ZM16.0389 12.9989L17.3094 11.4543L14.3632 9.03086L14.0458 12.8325L16.0389 12.9989ZM13.7146 16.5577L14.5805 18.3605L14.5905 18.3557L14.6006 18.3508L13.7146 16.5577ZM13.1204 14.6996C13.4106 14.6996 13.6822 14.8521 13.845 15.1284L10.3988 17.159C10.9327 18.0651 11.9506 18.6996 13.1204 18.6996V14.6996ZM13.8458 15.1298C13.9662 15.3344 14.0309 15.6369 13.9389 15.9594C13.8471 16.2813 13.6329 16.5046 13.4212 16.6158L11.5606 13.0749C10.0583 13.8643 9.53504 15.6904 10.398 17.1577L13.8458 15.1298ZM13.4198 16.6166C14.5202 16.0394 14.7739 14.9413 14.8407 14.4328C14.9182 13.8436 14.8579 13.2543 14.7847 12.8156L10.8392 13.4738C10.8587 13.5905 10.8703 13.6942 10.8748 13.7795C10.877 13.8214 10.8773 13.8543 10.8766 13.8785C10.876 13.903 10.8746 13.9135 10.8748 13.9115C10.875 13.9101 10.8779 13.8878 10.8887 13.8495C10.8994 13.8115 10.9211 13.7464 10.9629 13.6653C11.0509 13.4948 11.2348 13.2458 11.562 13.0742L13.4198 16.6166ZM11.2601 11.883C10.4551 12.8731 9.95409 13.3968 9.36207 13.7375C8.81447 14.0527 8.00578 14.3089 6.45807 14.3089V18.3089C8.45627 18.3089 10.0178 17.9753 11.3572 17.2044C12.6523 16.4591 13.5553 15.4008 14.3637 14.4064L11.2601 11.883ZM6.45807 14.3089C5.63448 14.3089 4.95252 14.135 3.96424 13.8686L2.92326 17.7308C3.88199 17.9892 5.03864 18.3089 6.45807 18.3089V14.3089ZM3.96857 13.8698L3.71842 13.8018L2.66877 17.6616L2.91892 17.7296L3.96857 13.8698ZM3.71207 13.8C4.40669 13.9865 5.04042 14.7763 4.74812 15.7231L0.926145 14.543C0.475406 16.0028 1.43017 17.3291 2.67512 17.6633L3.71207 13.8ZM4.74812 15.7231C4.48173 16.5858 3.62924 16.9117 2.96071 16.7323L3.99766 12.869C2.7788 12.5419 1.35096 13.1671 0.926145 14.543L4.74812 15.7231ZM2.9584 16.7317L3.21064 16.7997L4.25221 12.9377L3.99997 12.8697L2.9584 16.7317ZM3.21048 16.7997C4.08256 17.0349 5.17898 17.341 6.45807 17.341V13.341C5.78599 13.341 5.18137 13.1884 4.25237 12.9377L3.21048 16.7997ZM6.45807 17.341C8.32689 17.341 9.7861 17.0326 11.0632 16.2178C12.24 15.4671 13.0989 14.3666 13.907 13.363L10.7913 10.8545C9.86705 12.0025 9.42522 12.5181 8.91187 12.8456C8.49893 13.1091 7.87875 13.341 6.45807 13.341V17.341ZM13.9043 13.3664L14.1982 13.0029L11.088 10.4877L10.794 10.8511L13.9043 13.3664ZM14.207 12.992C13.8404 13.4518 13.3039 13.6028 12.8552 13.5384L13.4232 9.57896C12.5952 9.46018 11.675 9.75111 11.0792 10.4986L14.207 12.992ZM12.8552 13.5384C12.3677 13.4685 11.8828 13.1376 11.674 12.5731L15.4257 11.1856C15.0919 10.283 14.2901 9.70331 13.4232 9.57896L12.8552 13.5384ZM11.6736 12.572C11.7079 12.6649 11.8861 13.1829 11.9184 13.6947C11.9343 13.9468 11.9055 14.074 11.895 14.1043C11.8931 14.1097 11.9034 14.0783 11.9402 14.032C11.98 13.982 12.0282 13.9434 12.0688 13.921L13.9969 17.4257C15.8503 16.4061 15.9726 14.4275 15.9104 13.4426C15.8411 12.3455 15.5023 11.3932 15.4261 11.1868L11.6736 12.572ZM11.2275 16.5339C11.4025 16.901 11.6976 17.241 12.1023 17.4674L14.0552 13.9765C14.254 14.0878 14.4079 14.2205 14.5235 14.3463C14.6375 14.4702 14.7486 14.6247 14.8383 14.8128L11.2275 16.5339ZM12.1498 17.4931C13.0826 17.9823 13.9238 17.5904 14.1373 17.4813L12.3163 13.9198C12.4143 13.8697 12.6049 13.7851 12.8688 13.7488C13.1399 13.7116 13.5635 13.7178 14.0077 13.9508L12.1498 17.4931ZM14.1143 17.4929C15.5332 16.7902 17.4428 14.7694 16.9323 11.5471L12.9816 12.1729C13.0808 12.7988 12.9438 13.191 12.7999 13.4353C12.632 13.7206 12.4116 13.8725 12.3393 13.9083L14.1143 17.4929ZM16.9326 11.5489C17.0506 12.2983 16.6166 12.9412 16.0392 13.1888L14.4626 9.51265C13.4683 9.93909 12.7966 10.9979 12.9813 12.171L16.9326 11.5489ZM16.0536 13.1826C15.5069 13.4222 14.8571 13.3073 14.4225 12.8583L17.2967 10.0764C16.5536 9.30861 15.4119 9.09658 14.4482 9.51889L16.0536 13.1826ZM14.411 12.8463C16.8175 15.3744 20.3168 16.7579 23.9687 16.7579V12.7579C21.2959 12.7579 18.8833 11.743 17.3082 10.0884L14.411 12.8463ZM23.9687 16.7579C24.0969 16.7579 24.2685 16.7527 24.3207 16.7517L24.2462 12.7524C24.0899 12.7553 24.0531 12.7579 23.9687 12.7579V16.7579ZM24.3525 16.7509L24.4088 16.7489L24.2707 12.7513L24.2144 12.7533L24.3525 16.7509ZM24.4054 16.7491C23.7028 16.7721 22.906 16.2238 22.8765 15.2812L26.8745 15.156C26.8283 13.6808 25.5687 12.7087 24.2741 12.7512L24.4054 16.7491ZM22.8764 15.2807C22.8466 14.3221 23.6208 13.7378 24.3187 13.7188L24.4275 17.7173C25.6966 17.6828 26.921 16.6515 26.8745 15.1564L22.8764 15.2807ZM24.3015 13.7194L24.2473 13.7213L24.3905 17.7187L24.4447 17.7168L24.3015 13.7194ZM24.2523 13.7211C24.1291 13.7252 24.0484 13.7278 23.9708 13.7278V17.7278C24.1266 17.7278 24.2752 17.7226 24.3855 17.7189L24.2523 13.7211ZM23.9708 13.7278C21.4147 13.7278 19.05 12.8861 17.3094 11.4543L14.7683 14.5435C17.2762 16.6064 20.5566 17.7278 23.9708 17.7278V13.7278ZM14.0458 12.8325C13.9547 13.9239 13.2249 14.5688 12.8285 14.7647L14.6006 18.3508C15.9427 17.6875 17.7979 15.969 18.0319 13.1653L14.0458 12.8325ZM12.8486 14.7549C12.9012 14.7297 12.996 14.6996 13.1204 14.6996V18.6996C13.6201 18.6996 14.1152 18.584 14.5805 18.3605L12.8486 14.7549Z" fill="#676767" mask="url(#path-1-inside-1)"/>
<mask id="path-3-inside-2" fill="white">
<path d="M13.8729 24.2838C12.7326 24.2838 11.6528 23.9476 10.9878 23.382C10.7752 23.2032 10.7606 22.8961 10.9524 22.6978C11.1442 22.4996 11.4735 22.484 11.6862 22.6648C12.1656 23.071 12.9828 23.3139 13.8729 23.3139C14.763 23.3139 15.5802 23.071 16.0596 22.6648C16.2723 22.484 16.5996 22.4996 16.7934 22.6978C16.9873 22.8961 16.9706 23.2012 16.758 23.382C16.093 23.9456 15.0153 24.2838 13.8729 24.2838Z"/>
</mask>
<path d="M10.9878 23.382L12.2836 21.8585L12.2751 21.8513L10.9878 23.382ZM11.6862 22.6648L10.3908 24.1886L10.3933 24.1907L11.6862 22.6648ZM16.0596 22.6648L17.3525 24.1907L17.355 24.1886L16.0596 22.6648ZM16.758 23.382L18.0512 24.9076L18.0534 24.9058L16.758 23.382ZM13.8729 22.2838C13.0566 22.2838 12.4866 22.0312 12.2836 21.8585L9.69205 24.9054C10.819 25.864 12.4086 26.2838 13.8729 26.2838V22.2838ZM12.2751 21.8513C12.9526 22.421 13.0016 23.456 12.3899 24.0884L9.51492 21.3072C8.51965 22.3361 8.59783 23.9853 9.70057 24.9126L12.2751 21.8513ZM12.3899 24.0884C11.8406 24.6562 10.9732 24.6837 10.3908 24.1886L12.9816 21.141C11.9738 20.2843 10.4477 20.343 9.51492 21.3072L12.3899 24.0884ZM10.3933 24.1907C11.3583 25.0083 12.7027 25.3139 13.8729 25.3139V21.3139C13.604 21.3139 13.3703 21.2765 13.1949 21.2244C13.0088 21.1692 12.954 21.1176 12.979 21.1388L10.3933 24.1907ZM13.8729 25.3139C15.0431 25.3139 16.3875 25.0083 17.3525 24.1907L14.7668 21.1388C14.7918 21.1176 14.7371 21.1692 14.5509 21.2244C14.3756 21.2765 14.1419 21.3139 13.8729 21.3139V25.3139ZM17.355 24.1886C16.768 24.6877 15.9048 24.6496 15.3635 24.0961L18.2234 21.2995C17.2944 20.3495 15.7766 20.2804 14.7643 21.141L17.355 24.1886ZM15.3635 24.0961C14.7287 23.447 14.8117 22.4115 15.4626 21.8582L18.0534 24.9058C19.1296 23.9909 19.2459 22.3451 18.2234 21.2995L15.3635 24.0961ZM15.4648 21.8563C15.2588 22.0309 14.6878 22.2838 13.8729 22.2838V26.2838C15.3428 26.2838 16.9272 25.8603 18.0512 24.9076L15.4648 21.8563Z" fill="#676767" mask="url(#path-3-inside-2)"/>
<mask id="path-5-inside-3" fill="white">
<path d="M13.7752 27.4208C9.45379 27.4208 5.50764 24.8941 3.95671 21.1312C3.85456 20.8805 3.98797 20.6006 4.2548 20.5054C4.52372 20.4082 4.8239 20.5345 4.92604 20.7833C6.32481 24.173 9.88113 26.4509 13.7752 26.4509C17.6733 26.4509 21.2297 24.1711 22.6264 20.7755C22.7285 20.5268 23.0287 20.4024 23.2976 20.4976C23.5665 20.5928 23.6999 20.8727 23.5957 21.1234C22.0468 24.8922 18.0986 27.4208 13.7752 27.4208Z"/>
</mask>
<path d="M3.95671 21.1312L2.1045 21.8858L2.10761 21.8934L3.95671 21.1312ZM4.2548 20.5054L4.92712 22.389L4.93455 22.3863L4.2548 20.5054ZM4.92604 20.7833L3.07591 21.5429L3.07726 21.5462L4.92604 20.7833ZM22.6264 20.7755L24.476 21.5363L24.4765 21.5352L22.6264 20.7755ZM23.5957 21.1234L21.7489 20.3557L21.7458 20.3632L23.5957 21.1234ZM13.7752 25.4208C10.198 25.4208 7.02361 23.3237 5.8058 20.3691L2.10761 21.8934C3.99168 26.4645 8.70955 29.4208 13.7752 29.4208V25.4208ZM5.8089 20.3766C6.17113 21.2658 5.64473 22.1328 4.92711 22.389L3.58249 18.6218C2.33122 19.0684 1.53799 20.4952 2.10451 21.8858L5.8089 20.3766ZM4.93455 22.3863C4.27624 22.6242 3.41231 22.3623 3.07591 21.5429L6.77617 20.0237C6.23549 18.7068 4.77119 18.1922 3.57505 18.6244L4.93455 22.3863ZM3.07726 21.5462C4.80914 25.7432 9.13654 28.4509 13.7752 28.4509V24.4509C10.6257 24.4509 7.84047 22.6029 6.77482 20.0204L3.07726 21.5462ZM13.7752 28.4509C18.4185 28.4509 22.7467 25.7405 24.476 21.5363L20.7767 20.0147C19.7127 22.6016 16.9282 24.4509 13.7752 24.4509V28.4509ZM24.4765 21.5352C24.1354 22.3659 23.2684 22.609 22.6299 22.3829L23.9653 18.6123C22.7889 18.1957 21.3216 18.6876 20.7762 20.0159L24.4765 21.5352ZM22.6299 22.3829C21.9155 22.1299 21.3742 21.2571 21.7489 20.3557L25.4425 21.8912C26.0256 20.4884 25.2175 19.0558 23.9653 18.6123L22.6299 22.3829ZM21.7458 20.3632C20.5297 23.3222 17.3541 25.4208 13.7752 25.4208V29.4208C18.8431 29.4208 23.5639 26.4621 25.4456 21.8837L21.7458 20.3632Z" fill="#676767" mask="url(#path-5-inside-3)"/>
<path d="M3.33513 15.4474C3.33512 15.5368 3.33511 15.6377 3.33511 15.7515V15.4449L3.33513 15.4474Z" stroke="#676767" stroke-width="2"/>
<mask id="path-8-inside-4" fill="white">
<path d="M4.44227 21.4424C4.43602 21.4424 4.42768 21.4424 4.42143 21.4424C1.1778 21.32 0 19.0187 0 17.5008C0 15.8545 1.10901 14.7058 2.69538 14.7058C2.95387 14.7058 3.21445 14.7389 3.46877 14.801C3.74602 14.871 3.9107 15.1354 3.83566 15.3939C3.76061 15.6524 3.47711 15.8059 3.19985 15.7359C3.031 15.6932 2.86215 15.6718 2.69538 15.6718C1.55094 15.6718 1.03813 16.5892 1.03813 17.4988C1.03813 18.2899 1.65308 20.3676 4.46104 20.4745C4.74871 20.4862 4.96968 20.7097 4.95925 20.9779C4.94883 21.2384 4.71744 21.4424 4.44227 21.4424Z"/>
</mask>
<path d="M4.42143 21.4424L4.34598 23.441L4.38369 23.4424H4.42143V21.4424ZM3.46877 14.801L3.95817 12.8619L3.95103 12.86L3.94388 12.8583L3.46877 14.801ZM3.19985 15.7359L2.70888 17.6747L2.71045 17.6751L3.19985 15.7359ZM4.46104 20.4745L4.54205 18.4761L4.53712 18.476L4.46104 20.4745ZM4.95925 20.9779L6.95766 21.0579L6.95775 21.0556L4.95925 20.9779ZM4.44227 19.4424C4.44226 19.4424 4.44225 19.4424 4.44224 19.4424C4.44222 19.4424 4.44221 19.4424 4.4422 19.4424C4.44219 19.4424 4.44218 19.4424 4.44216 19.4424C4.44215 19.4424 4.44214 19.4424 4.44213 19.4424C4.44211 19.4424 4.4421 19.4424 4.44209 19.4424C4.44208 19.4424 4.44207 19.4424 4.44205 19.4424C4.44204 19.4424 4.44203 19.4424 4.44202 19.4424C4.442 19.4424 4.44199 19.4424 4.44198 19.4424C4.44197 19.4424 4.44195 19.4424 4.44194 19.4424C4.44193 19.4424 4.44192 19.4424 4.44191 19.4424C4.44189 19.4424 4.44188 19.4424 4.44187 19.4424C4.44186 19.4424 4.44184 19.4424 4.44183 19.4424C4.44182 19.4424 4.44181 19.4424 4.44179 19.4424C4.44178 19.4424 4.44177 19.4424 4.44176 19.4424C4.44174 19.4424 4.44173 19.4424 4.44172 19.4424C4.44171 19.4424 4.44169 19.4424 4.44168 19.4424C4.44167 19.4424 4.44166 19.4424 4.44164 19.4424C4.44163 19.4424 4.44162 19.4424 4.44161 19.4424C4.44159 19.4424 4.44158 19.4424 4.44157 19.4424C4.44156 19.4424 4.44154 19.4424 4.44153 19.4424C4.44152 19.4424 4.44151 19.4424 4.44149 19.4424C4.44148 19.4424 4.44147 19.4424 4.44146 19.4424C4.44144 19.4424 4.44143 19.4424 4.44142 19.4424C4.44141 19.4424 4.44139 19.4424 4.44138 19.4424C4.44137 19.4424 4.44136 19.4424 4.44134 19.4424C4.44133 19.4424 4.44132 19.4424 4.44131 19.4424C4.44129 19.4424 4.44128 19.4424 4.44127 19.4424C4.44126 19.4424 4.44124 19.4424 4.44123 19.4424C4.44122 19.4424 4.4412 19.4424 4.44119 19.4424C4.44118 19.4424 4.44117 19.4424 4.44115 19.4424C4.44114 19.4424 4.44113 19.4424 4.44112 19.4424C4.4411 19.4424 4.44109 19.4424 4.44108 19.4424C4.44107 19.4424 4.44105 19.4424 4.44104 19.4424C4.44103 19.4424 4.44101 19.4424 4.441 19.4424C4.44099 19.4424 4.44098 19.4424 4.44096 19.4424C4.44095 19.4424 4.44094 19.4424 4.44093 19.4424C4.44091 19.4424 4.4409 19.4424 4.44089 19.4424C4.44087 19.4424 4.44086 19.4424 4.44085 19.4424C4.44084 19.4424 4.44082 19.4424 4.44081 19.4424C4.4408 19.4424 4.44078 19.4424 4.44077 19.4424C4.44076 19.4424 4.44075 19.4424 4.44073 19.4424C4.44072 19.4424 4.44071 19.4424 4.4407 19.4424C4.44068 19.4424 4.44067 19.4424 4.44066 19.4424C4.44064 19.4424 4.44063 19.4424 4.44062 19.4424C4.44061 19.4424 4.44059 19.4424 4.44058 19.4424C4.44057 19.4424 4.44055 19.4424 4.44054 19.4424C4.44053 19.4424 4.44052 19.4424 4.4405 19.4424C4.44049 19.4424 4.44048 19.4424 4.44046 19.4424C4.44045 19.4424 4.44044 19.4424 4.44042 19.4424C4.44041 19.4424 4.4404 19.4424 4.44039 19.4424C4.44037 19.4424 4.44036 19.4424 4.44035 19.4424C4.44033 19.4424 4.44032 19.4424 4.44031 19.4424C4.4403 19.4424 4.44028 19.4424 4.44027 19.4424C4.44026 19.4424 4.44024 19.4424 4.44023 19.4424C4.44022 19.4424 4.4402 19.4424 4.44019 19.4424C4.44018 19.4424 4.44017 19.4424 4.44015 19.4424C4.44014 19.4424 4.44013 19.4424 4.44011 19.4424C4.4401 19.4424 4.44009 19.4424 4.44007 19.4424C4.44006 19.4424 4.44005 19.4424 4.44004 19.4424C4.44002 19.4424 4.44001 19.4424 4.44 19.4424C4.43998 19.4424 4.43997 19.4424 4.43996 19.4424C4.43994 19.4424 4.43993 19.4424 4.43992 19.4424C4.4399 19.4424 4.43989 19.4424 4.43988 19.4424C4.43987 19.4424 4.43985 19.4424 4.43984 19.4424C4.43983 19.4424 4.43981 19.4424 4.4398 19.4424C4.43979 19.4424 4.43977 19.4424 4.43976 19.4424C4.43975 19.4424 4.43973 19.4424 4.43972 19.4424C4.43971 19.4424 4.43969 19.4424 4.43968 19.4424C4.43967 19.4424 4.43966 19.4424 4.43964 19.4424C4.43963 19.4424 4.43962 19.4424 4.4396 19.4424C4.43959 19.4424 4.43958 19.4424 4.43956 19.4424C4.43955 19.4424 4.43954 19.4424 4.43952 19.4424C4.43951 19.4424 4.4395 19.4424 4.43948 19.4424C4.43947 19.4424 4.43946 19.4424 4.43944 19.4424C4.43943 19.4424 4.43942 19.4424 4.4394 19.4424C4.43939 19.4424 4.43938 19.4424 4.43936 19.4424C4.43935 19.4424 4.43934 19.4424 4.43933 19.4424C4.43931 19.4424 4.4393 19.4424 4.43929 19.4424C4.43927 19.4424 4.43926 19.4424 4.43925 19.4424C4.43923 19.4424 4.43922 19.4424 4.43921 19.4424C4.43919 19.4424 4.43918 19.4424 4.43917 19.4424C4.43915 19.4424 4.43914 19.4424 4.43913 19.4424C4.43911 19.4424 4.4391 19.4424 4.43909 19.4424C4.43907 19.4424 4.43906 19.4424 4.43905 19.4424C4.43903 19.4424 4.43902 19.4424 4.43901 19.4424C4.43899 19.4424 4.43898 19.4424 4.43897 19.4424C4.43895 19.4424 4.43894 19.4424 4.43893 19.4424C4.43891 19.4424 4.4389 19.4424 4.43889 19.4424C4.43887 19.4424 4.43886 19.4424 4.43885 19.4424C4.43883 19.4424 4.43882 19.4424 4.43881 19.4424C4.43879 19.4424 4.43878 19.4424 4.43877 19.4424C4.43875 19.4424 4.43874 19.4424 4.43872 19.4424C4.43871 19.4424 4.4387 19.4424 4.43868 19.4424C4.43867 19.4424 4.43866 19.4424 4.43864 19.4424C4.43863 19.4424 4.43862 19.4424 4.4386 19.4424C4.43859 19.4424 4.43858 19.4424 4.43856 19.4424C4.43855 19.4424 4.43854 19.4424 4.43852 19.4424C4.43851 19.4424 4.4385 19.4424 4.43848 19.4424C4.43847 19.4424 4.43846 19.4424 4.43844 19.4424C4.43843 19.4424 4.43842 19.4424 4.4384 19.4424C4.43839 19.4424 4.43837 19.4424 4.43836 19.4424C4.43835 19.4424 4.43833 19.4424 4.43832 19.4424C4.43831 19.4424 4.43829 19.4424 4.43828 19.4424C4.43827 19.4424 4.43825 19.4424 4.43824 19.4424C4.43823 19.4424 4.43821 19.4424 4.4382 19.4424C4.43819 19.4424 4.43817 19.4424 4.43816 19.4424C4.43815 19.4424 4.43813 19.4424 4.43812 19.4424C4.4381 19.4424 4.43809 19.4424 4.43808 19.4424C4.43806 19.4424 4.43805 19.4424 4.43804 19.4424C4.43802 19.4424 4.43801 19.4424 4.438 19.4424C4.43798 19.4424 4.43797 19.4424 4.43795 19.4424C4.43794 19.4424 4.43793 19.4424 4.43791 19.4424C4.4379 19.4424 4.43789 19.4424 4.43787 19.4424C4.43786 19.4424 4.43785 19.4424 4.43783 19.4424C4.43782 19.4424 4.43781 19.4424 4.43779 19.4424C4.43778 19.4424 4.43776 19.4424 4.43775 19.4424C4.43774 19.4424 4.43772 19.4424 4.43771 19.4424C4.4377 19.4424 4.43768 19.4424 4.43767 19.4424C4.43766 19.4424 4.43764 19.4424 4.43763 19.4424C4.43761 19.4424 4.4376 19.4424 4.43759 19.4424C4.43757 19.4424 4.43756 19.4424 4.43755 19.4424C4.43753 19.4424 4.43752 19.4424 4.4375 19.4424C4.43749 19.4424 4.43748 19.4424 4.43746 19.4424C4.43745 19.4424 4.43744 19.4424 4.43742 19.4424C4.43741 19.4424 4.4374 19.4424 4.43738 19.4424C4.43737 19.4424 4.43735 19.4424 4.43734 19.4424C4.43733 19.4424 4.43731 19.4424 4.4373 19.4424C4.43729 19.4424 4.43727 19.4424 4.43726 19.4424C4.43724 19.4424 4.43723 19.4424 4.43722 19.4424C4.4372 19.4424 4.43719 19.4424 4.43718 19.4424C4.43716 19.4424 4.43715 19.4424 4.43713 19.4424C4.43712 19.4424 4.43711 19.4424 4.43709 19.4424C4.43708 19.4424 4.43707 19.4424 4.43705 19.4424C4.43704 19.4424 4.43702 19.4424 4.43701 19.4424C4.437 19.4424 4.43698 19.4424 4.43697 19.4424C4.43695 19.4424 4.43694 19.4424 4.43693 19.4424C4.43691 19.4424 4.4369 19.4424 4.43689 19.4424C4.43687 19.4424 4.43686 19.4424 4.43684 19.4424C4.43683 19.4424 4.43682 19.4424 4.4368 19.4424C4.43679 19.4424 4.43678 19.4424 4.43676 19.4424C4.43675 19.4424 4.43673 19.4424 4.43672 19.4424C4.43671 19.4424 4.43669 19.4424 4.43668 19.4424C4.43666 19.4424 4.43665 19.4424 4.43664 19.4424C4.43662 19.4424 4.43661 19.4424 4.4366 19.4424C4.43658 19.4424 4.43657 19.4424 4.43655 19.4424C4.43654 19.4424 4.43653 19.4424 4.43651 19.4424C4.4365 19.4424 4.43648 19.4424 4.43647 19.4424C4.43646 19.4424 4.43644 19.4424 4.43643 19.4424C4.43642 19.4424 4.4364 19.4424 4.43639 19.4424C4.43637 19.4424 4.43636 19.4424 4.43635 19.4424C4.43633 19.4424 4.43632 19.4424 4.4363 19.4424C4.43629 19.4424 4.43628 19.4424 4.43626 19.4424C4.43625 19.4424 4.43623 19.4424 4.43622 19.4424C4.43621 19.4424 4.43619 19.4424 4.43618 19.4424C4.43616 19.4424 4.43615 19.4424 4.43614 19.4424C4.43612 19.4424 4.43611 19.4424 4.43609 19.4424C4.43608 19.4424 4.43607 19.4424 4.43605 19.4424C4.43604 19.4424 4.43603 19.4424 4.43601 19.4424C4.436 19.4424 4.43598 19.4424 4.43597 19.4424C4.43596 19.4424 4.43594 19.4424 4.43593 19.4424C4.43591 19.4424 4.4359 19.4424 4.43589 19.4424C4.43587 19.4424 4.43586 19.4424 4.43584 19.4424C4.43583 19.4424 4.43582 19.4424 4.4358 19.4424C4.43579 19.4424 4.43577 19.4424 4.43576 19.4424C4.43575 19.4424 4.43573 19.4424 4.43572 19.4424C4.4357 19.4424 4.43569 19.4424 4.43568 19.4424C4.43566 19.4424 4.43565 19.4424 4.43563 19.4424C4.43562 19.4424 4.43561 19.4424 4.43559 19.4424C4.43558 19.4424 4.43556 19.4424 4.43555 19.4424C4.43554 19.4424 4.43552 19.4424 4.43551 19.4424C4.43549 19.4424 4.43548 19.4424 4.43547 19.4424C4.43545 19.4424 4.43544 19.4424 4.43542 19.4424C4.43541 19.4424 4.4354 19.4424 4.43538 19.4424C4.43537 19.4424 4.43535 19.4424 4.43534 19.4424C4.43533 19.4424 4.43531 19.4424 4.4353 19.4424C4.43528 19.4424 4.43527 19.4424 4.43526 19.4424C4.43524 19.4424 4.43523 19.4424 4.43521 19.4424C4.4352 19.4424 4.43518 19.4424 4.43517 19.4424C4.43516 19.4424 4.43514 19.4424 4.43513 19.4424C4.43511 19.4424 4.4351 19.4424 4.43509 19.4424C4.43507 19.4424 4.43506 19.4424 4.43504 19.4424C4.43503 19.4424 4.43502 19.4424 4.435 19.4424C4.43499 19.4424 4.43497 19.4424 4.43496 19.4424C4.43495 19.4424 4.43493 19.4424 4.43492 19.4424C4.4349 19.4424 4.43489 19.4424 4.43488 19.4424C4.43486 19.4424 4.43485 19.4424 4.43483 19.4424C4.43482 19.4424 4.4348 19.4424 4.43479 19.4424C4.43478 19.4424 4.43476 19.4424 4.43475 19.4424C4.43473 19.4424 4.43472 19.4424 4.43471 19.4424C4.43469 19.4424 4.43468 19.4424 4.43466 19.4424C4.43465 19.4424 4.43464 19.4424 4.43462 19.4424C4.43461 19.4424 4.43459 19.4424 4.43458 19.4424C4.43456 19.4424 4.43455 19.4424 4.43454 19.4424C4.43452 19.4424 4.43451 19.4424 4.43449 19.4424C4.43448 19.4424 4.43447 19.4424 4.43445 19.4424C4.43444 19.4424 4.43442 19.4424 4.43441 19.4424C4.4344 19.4424 4.43438 19.4424 4.43437 19.4424C4.43435 19.4424 4.43434 19.4424 4.43432 19.4424C4.43431 19.4424 4.4343 19.4424 4.43428 19.4424C4.43427 19.4424 4.43425 19.4424 4.43424 19.4424C4.43423 19.4424 4.43421 19.4424 4.4342 19.4424C4.43418 19.4424 4.43417 19.4424 4.43415 19.4424C4.43414 19.4424 4.43413 19.4424 4.43411 19.4424C4.4341 19.4424 4.43408 19.4424 4.43407 19.4424C4.43406 19.4424 4.43404 19.4424 4.43403 19.4424C4.43401 19.4424 4.434 19.4424 4.43398 19.4424C4.43397 19.4424 4.43396 19.4424 4.43394 19.4424C4.43393 19.4424 4.43391 19.4424 4.4339 19.4424C4.43389 19.4424 4.43387 19.4424 4.43386 19.4424C4.43384 19.4424 4.43383 19.4424 4.43381 19.4424C4.4338 19.4424 4.43379 19.4424 4.43377 19.4424C4.43376 19.4424 4.43374 19.4424 4.43373 19.4424C4.43372 19.4424 4.4337 19.4424 4.43369 19.4424C4.43367 19.4424 4.43366 19.4424 4.43364 19.4424C4.43363 19.4424 4.43362 19.4424 4.4336 19.4424C4.43359 19.4424 4.43357 19.4424 4.43356 19.4424C4.43354 19.4424 4.43353 19.4424 4.43352 19.4424C4.4335 19.4424 4.43349 19.4424 4.43347 19.4424C4.43346 19.4424 4.43345 19.4424 4.43343 19.4424C4.43342 19.4424 4.4334 19.4424 4.43339 19.4424C4.43337 19.4424 4.43336 19.4424 4.43335 19.4424C4.43333 19.4424 4.43332 19.4424 4.4333 19.4424C4.43329 19.4424 4.43327 19.4424 4.43326 19.4424C4.43325 19.4424 4.43323 19.4424 4.43322 19.4424C4.4332 19.4424 4.43319 19.4424 4.43318 19.4424C4.43316 19.4424 4.43315 19.4424 4.43313 19.4424C4.43312 19.4424 4.4331 19.4424 4.43309 19.4424C4.43308 19.4424 4.43306 19.4424 4.43305 19.4424C4.43303 19.4424 4.43302 19.4424 4.433 19.4424C4.43299 19.4424 4.43298 19.4424 4.43296 19.4424C4.43295 19.4424 4.43293 19.4424 4.43292 19.4424C4.43291 19.4424 4.43289 19.4424 4.43288 19.4424C4.43286 19.4424 4.43285 19.4424 4.43283 19.4424C4.43282 19.4424 4.43281 19.4424 4.43279 19.4424C4.43278 19.4424 4.43276 19.4424 4.43275 19.4424C4.43273 19.4424 4.43272 19.4424 4.43271 19.4424C4.43269 19.4424 4.43268 19.4424 4.43266 19.4424C4.43265 19.4424 4.43263 19.4424 4.43262 19.4424C4.43261 19.4424 4.43259 19.4424 4.43258 19.4424C4.43256 19.4424 4.43255 19.4424 4.43253 19.4424C4.43252 19.4424 4.43251 19.4424 4.43249 19.4424C4.43248 19.4424 4.43246 19.4424 4.43245 19.4424C4.43244 19.4424 4.43242 19.4424 4.43241 19.4424C4.43239 19.4424 4.43238 19.4424 4.43236 19.4424C4.43235 19.4424 4.43234 19.4424 4.43232 19.4424C4.43231 19.4424 4.43229 19.4424 4.43228 19.4424C4.43226 19.4424 4.43225 19.4424 4.43224 19.4424C4.43222 19.4424 4.43221 19.4424 4.43219 19.4424C4.43218 19.4424 4.43216 19.4424 4.43215 19.4424C4.43214 19.4424 4.43212 19.4424 4.43211 19.4424C4.43209 19.4424 4.43208 19.4424 4.43206 19.4424C4.43205 19.4424 4.43204 19.4424 4.43202 19.4424C4.43201 19.4424 4.43199 19.4424 4.43198 19.4424C4.43196 19.4424 4.43195 19.4424 4.43194 19.4424C4.43192 19.4424 4.43191 19.4424 4.43189 19.4424C4.43188 19.4424 4.43187 19.4424 4.43185 19.4424C4.43184 19.4424 4.43182 19.4424 4.43181 19.4424C4.43179 19.4424 4.43178 19.4424 4.43177 19.4424C4.43175 19.4424 4.43174 19.4424 4.43172 19.4424C4.43171 19.4424 4.43169 19.4424 4.43168 19.4424C4.43167 19.4424 4.43165 19.4424 4.43164 19.4424C4.43162 19.4424 4.43161 19.4424 4.43159 19.4424C4.43158 19.4424 4.43157 19.4424 4.43155 19.4424C4.43154 19.4424 4.43152 19.4424 4.43151 19.4424C4.43149 19.4424 4.43148 19.4424 4.43147 19.4424C4.43145 19.4424 4.43144 19.4424 4.43142 19.4424C4.43141 19.4424 4.4314 19.4424 4.43138 19.4424C4.43137 19.4424 4.43135 19.4424 4.43134 19.4424C4.43132 19.4424 4.43131 19.4424 4.4313 19.4424C4.43128 19.4424 4.43127 19.4424 4.43125 19.4424C4.43124 19.4424 4.43122 19.4424 4.43121 19.4424C4.4312 19.4424 4.43118 19.4424 4.43117 19.4424C4.43115 19.4424 4.43114 19.4424 4.43112 19.4424C4.43111 19.4424 4.4311 19.4424 4.43108 19.4424C4.43107 19.4424 4.43105 19.4424 4.43104 19.4424C4.43102 19.4424 4.43101 19.4424 4.431 19.4424C4.43098 19.4424 4.43097 19.4424 4.43095 19.4424C4.43094 19.4424 4.43092 19.4424 4.43091 19.4424C4.4309 19.4424 4.43088 19.4424 4.43087 19.4424C4.43085 19.4424 4.43084 19.4424 4.43083 19.4424C4.43081 19.4424 4.4308 19.4424 4.43078 19.4424C4.43077 19.4424 4.43075 19.4424 4.43074 19.4424C4.43073 19.4424 4.43071 19.4424 4.4307 19.4424C4.43068 19.4424 4.43067 19.4424 4.43065 19.4424C4.43064 19.4424 4.43063 19.4424 4.43061 19.4424C4.4306 19.4424 4.43058 19.4424 4.43057 19.4424C4.43055 19.4424 4.43054 19.4424 4.43053 19.4424C4.43051 19.4424 4.4305 19.4424 4.43048 19.4424C4.43047 19.4424 4.43046 19.4424 4.43044 19.4424C4.43043 19.4424 4.43041 19.4424 4.4304 19.4424C4.43038 19.4424 4.43037 19.4424 4.43036 19.4424C4.43034 19.4424 4.43033 19.4424 4.43031 19.4424C4.4303 19.4424 4.43028 19.4424 4.43027 19.4424C4.43026 19.4424 4.43024 19.4424 4.43023 19.4424C4.43021 19.4424 4.4302 19.4424 4.43019 19.4424C4.43017 19.4424 4.43016 19.4424 4.43014 19.4424C4.43013 19.4424 4.43011 19.4424 4.4301 19.4424C4.43009 19.4424 4.43007 19.4424 4.43006 19.4424C4.43004 19.4424 4.43003 19.4424 4.43002 19.4424C4.43 19.4424 4.42999 19.4424 4.42997 19.4424C4.42996 19.4424 4.42994 19.4424 4.42993 19.4424C4.42992 19.4424 4.4299 19.4424 4.42989 19.4424C4.42987 19.4424 4.42986 19.4424 4.42984 19.4424C4.42983 19.4424 4.42982 19.4424 4.4298 19.4424C4.42979 19.4424 4.42977 19.4424 4.42976 19.4424C4.42975 19.4424 4.42973 19.4424 4.42972 19.4424C4.4297 19.4424 4.42969 19.4424 4.42967 19.4424C4.42966 19.4424 4.42965 19.4424 4.42963 19.4424C4.42962 19.4424 4.4296 19.4424 4.42959 19.4424C4.42958 19.4424 4.42956 19.4424 4.42955 19.4424C4.42953 19.4424 4.42952 19.4424 4.4295 19.4424C4.42949 19.4424 4.42948 19.4424 4.42946 19.4424C4.42945 19.4424 4.42943 19.4424 4.42942 19.4424C4.42941 19.4424 4.42939 19.4424 4.42938 19.4424C4.42936 19.4424 4.42935 19.4424 4.42934 19.4424C4.42932 19.4424 4.42931 19.4424 4.42929 19.4424C4.42928 19.4424 4.42926 19.4424 4.42925 19.4424C4.42924 19.4424 4.42922 19.4424 4.42921 19.4424C4.42919 19.4424 4.42918 19.4424 4.42917 19.4424C4.42915 19.4424 4.42914 19.4424 4.42912 19.4424C4.42911 19.4424 4.42909 19.4424 4.42908 19.4424C4.42907 19.4424 4.42905 19.4424 4.42904 19.4424C4.42902 19.4424 4.42901 19.4424 4.429 19.4424C4.42898 19.4424 4.42897 19.4424 4.42895 19.4424C4.42894 19.4424 4.42893 19.4424 4.42891 19.4424C4.4289 19.4424 4.42888 19.4424 4.42887 19.4424C4.42885 19.4424 4.42884 19.4424 4.42883 19.4424C4.42881 19.4424 4.4288 19.4424 4.42878 19.4424C4.42877 19.4424 4.42876 19.4424 4.42874 19.4424C4.42873 19.4424 4.42871 19.4424 4.4287 19.4424C4.42869 19.4424 4.42867 19.4424 4.42866 19.4424C4.42864 19.4424 4.42863 19.4424 4.42862 19.4424C4.4286 19.4424 4.42859 19.4424 4.42857 19.4424C4.42856 19.4424 4.42854 19.4424 4.42853 19.4424C4.42852 19.4424 4.4285 19.4424 4.42849 19.4424C4.42847 19.4424 4.42846 19.4424 4.42845 19.4424C4.42843 19.4424 4.42842 19.4424 4.4284 19.4424C4.42839 19.4424 4.42838 19.4424 4.42836 19.4424C4.42835 19.4424 4.42833 19.4424 4.42832 19.4424C4.42831 19.4424 4.42829 19.4424 4.42828 19.4424C4.42826 19.4424 4.42825 19.4424 4.42824 19.4424C4.42822 19.4424 4.42821 19.4424 4.42819 19.4424C4.42818 19.4424 4.42817 19.4424 4.42815 19.4424C4.42814 19.4424 4.42812 19.4424 4.42811 19.4424C4.4281 19.4424 4.42808 19.4424 4.42807 19.4424C4.42805 19.4424 4.42804 19.4424 4.42803 19.4424C4.42801 19.4424 4.428 19.4424 4.42798 19.4424C4.42797 19.4424 4.42796 19.4424 4.42794 19.4424C4.42793 19.4424 4.42791 19.4424 4.4279 19.4424C4.42789 19.4424 4.42787 19.4424 4.42786 19.4424C4.42784 19.4424 4.42783 19.4424 4.42782 19.4424C4.4278 19.4424 4.42779 19.4424 4.42777 19.4424C4.42776 19.4424 4.42775 19.4424 4.42773 19.4424C4.42772 19.4424 4.4277 19.4424 4.42769 19.4424C4.42768 19.4424 4.42766 19.4424 4.42765 19.4424C4.42763 19.4424 4.42762 19.4424 4.42761 19.4424C4.42759 19.4424 4.42758 19.4424 4.42757 19.4424C4.42755 19.4424 4.42754 19.4424 4.42752 19.4424C4.42751 19.4424 4.4275 19.4424 4.42748 19.4424C4.42747 19.4424 4.42745 19.4424 4.42744 19.4424C4.42743 19.4424 4.42741 19.4424 4.4274 19.4424C4.42738 19.4424 4.42737 19.4424 4.42736 19.4424C4.42734 19.4424 4.42733 19.4424 4.42731 19.4424C4.4273 19.4424 4.42729 19.4424 4.42727 19.4424C4.42726 19.4424 4.42725 19.4424 4.42723 19.4424C4.42722 19.4424 4.4272 19.4424 4.42719 19.4424C4.42718 19.4424 4.42716 19.4424 4.42715 19.4424C4.42713 19.4424 4.42712 19.4424 4.42711 19.4424C4.42709 19.4424 4.42708 19.4424 4.42706 19.4424C4.42705 19.4424 4.42704 19.4424 4.42702 19.4424C4.42701 19.4424 4.427 19.4424 4.42698 19.4424C4.42697 19.4424 4.42695 19.4424 4.42694 19.4424C4.42693 19.4424 4.42691 19.4424 4.4269 19.4424C4.42689 19.4424 4.42687 19.4424 4.42686 19.4424C4.42684 19.4424 4.42683 19.4424 4.42682 19.4424C4.4268 19.4424 4.42679 19.4424 4.42677 19.4424C4.42676 19.4424 4.42675 19.4424 4.42673 19.4424C4.42672 19.4424 4.42671 19.4424 4.42669 19.4424C4.42668 19.4424 4.42666 19.4424 4.42665 19.4424C4.42664 19.4424 4.42662 19.4424 4.42661 19.4424C4.4266 19.4424 4.42658 19.4424 4.42657 19.4424C4.42655 19.4424 4.42654 19.4424 4.42653 19.4424C4.42651 19.4424 4.4265 19.4424 4.42649 19.4424C4.42647 19.4424 4.42646 19.4424 4.42644 19.4424C4.42643 19.4424 4.42642 19.4424 4.4264 19.4424C4.42639 19.4424 4.42638 19.4424 4.42636 19.4424C4.42635 19.4424 4.42633 19.4424 4.42632 19.4424C4.42631 19.4424 4.42629 19.4424 4.42628 19.4424C4.42627 19.4424 4.42625 19.4424 4.42624 19.4424C4.42622 19.4424 4.42621 19.4424 4.4262 19.4424C4.42618 19.4424 4.42617 19.4424 4.42616 19.4424C4.42614 19.4424 4.42613 19.4424 4.42612 19.4424C4.4261 19.4424 4.42609 19.4424 4.42607 19.4424C4.42606 19.4424 4.42605 19.4424 4.42603 19.4424C4.42602 19.4424 4.42601 19.4424 4.42599 19.4424C4.42598 19.4424 4.42596 19.4424 4.42595 19.4424C4.42594 19.4424 4.42592 19.4424 4.42591 19.4424C4.4259 19.4424 4.42588 19.4424 4.42587 19.4424C4.42586 19.4424 4.42584 19.4424 4.42583 19.4424C4.42581 19.4424 4.4258 19.4424 4.42579 19.4424C4.42577 19.4424 4.42576 19.4424 4.42575 19.4424C4.42573 19.4424 4.42572 19.4424 4.42571 19.4424C4.42569 19.4424 4.42568 19.4424 4.42567 19.4424C4.42565 19.4424 4.42564 19.4424 4.42562 19.4424C4.42561 19.4424 4.4256 19.4424 4.42558 19.4424C4.42557 19.4424 4.42556 19.4424 4.42554 19.4424C4.42553 19.4424 4.42552 19.4424 4.4255 19.4424C4.42549 19.4424 4.42548 19.4424 4.42546 19.4424C4.42545 19.4424 4.42544 19.4424 4.42542 19.4424C4.42541 19.4424 4.42539 19.4424 4.42538 19.4424C4.42537 19.4424 4.42535 19.4424 4.42534 19.4424C4.42533 19.4424 4.42531 19.4424 4.4253 19.4424C4.42529 19.4424 4.42527 19.4424 4.42526 19.4424C4.42525 19.4424 4.42523 19.4424 4.42522 19.4424C4.42521 19.4424 4.42519 19.4424 4.42518 19.4424C4.42517 19.4424 4.42515 19.4424 4.42514 19.4424C4.42512 19.4424 4.42511 19.4424 4.4251 19.4424C4.42508 19.4424 4.42507 19.4424 4.42506 19.4424C4.42504 19.4424 4.42503 19.4424 4.42502 19.4424C4.425 19.4424 4.42499 19.4424 4.42498 19.4424C4.42496 19.4424 4.42495 19.4424 4.42494 19.4424C4.42492 19.4424 4.42491 19.4424 4.4249 19.4424C4.42488 19.4424 4.42487 19.4424 4.42486 19.4424C4.42484 19.4424 4.42483 19.4424 4.42482 19.4424C4.4248 19.4424 4.42479 19.4424 4.42478 19.4424C4.42476 19.4424 4.42475 19.4424 4.42474 19.4424C4.42472 19.4424 4.42471 19.4424 4.4247 19.4424C4.42468 19.4424 4.42467 19.4424 4.42466 19.4424C4.42464 19.4424 4.42463 19.4424 4.42462 19.4424C4.4246 19.4424 4.42459 19.4424 4.42458 19.4424C4.42456 19.4424 4.42455 19.4424 4.42454 19.4424C4.42452 19.4424 4.42451 19.4424 4.4245 19.4424C4.42448 19.4424 4.42447 19.4424 4.42446 19.4424C4.42444 19.4424 4.42443 19.4424 4.42442 19.4424C4.4244 19.4424 4.42439 19.4424 4.42438 19.4424C4.42436 19.4424 4.42435 19.4424 4.42434 19.4424C4.42432 19.4424 4.42431 19.4424 4.4243 19.4424C4.42428 19.4424 4.42427 19.4424 4.42426 19.4424C4.42424 19.4424 4.42423 19.4424 4.42422 19.4424C4.4242 19.4424 4.42419 19.4424 4.42418 19.4424C4.42417 19.4424 4.42415 19.4424 4.42414 19.4424C4.42413 19.4424 4.42411 19.4424 4.4241 19.4424C4.42409 19.4424 4.42407 19.4424 4.42406 19.4424C4.42405 19.4424 4.42403 19.4424 4.42402 19.4424C4.42401 19.4424 4.42399 19.4424 4.42398 19.4424C4.42397 19.4424 4.42395 19.4424 4.42394 19.4424C4.42393 19.4424 4.42391 19.4424 4.4239 19.4424C4.42389 19.4424 4.42388 19.4424 4.42386 19.4424C4.42385 19.4424 4.42384 19.4424 4.42382 19.4424C4.42381 19.4424 4.4238 19.4424 4.42378 19.4424C4.42377 19.4424 4.42376 19.4424 4.42374 19.4424C4.42373 19.4424 4.42372 19.4424 4.42371 19.4424C4.42369 19.4424 4.42368 19.4424 4.42367 19.4424C4.42365 19.4424 4.42364 19.4424 4.42363 19.4424C4.42361 19.4424 4.4236 19.4424 4.42359 19.4424C4.42358 19.4424 4.42356 19.4424 4.42355 19.4424C4.42354 19.4424 4.42352 19.4424 4.42351 19.4424C4.4235 19.4424 4.42348 19.4424 4.42347 19.4424C4.42346 19.4424 4.42345 19.4424 4.42343 19.4424C4.42342 19.4424 4.42341 19.4424 4.42339 19.4424C4.42338 19.4424 4.42337 19.4424 4.42335 19.4424C4.42334 19.4424 4.42333 19.4424 4.42332 19.4424C4.4233 19.4424 4.42329 19.4424 4.42328 19.4424C4.42326 19.4424 4.42325 19.4424 4.42324 19.4424C4.42323 19.4424 4.42321 19.4424 4.4232 19.4424C4.42319 19.4424 4.42317 19.4424 4.42316 19.4424C4.42315 19.4424 4.42314 19.4424 4.42312 19.4424C4.42311 19.4424 4.4231 19.4424 4.42308 19.4424C4.42307 19.4424 4.42306 19.4424 4.42305 19.4424C4.42303 19.4424 4.42302 19.4424 4.42301 19.4424C4.42299 19.4424 4.42298 19.4424 4.42297 19.4424C4.42296 19.4424 4.42294 19.4424 4.42293 19.4424C4.42292 19.4424 4.4229 19.4424 4.42289 19.4424C4.42288 19.4424 4.42287 19.4424 4.42285 19.4424C4.42284 19.4424 4.42283 19.4424 4.42281 19.4424C4.4228 19.4424 4.42279 19.4424 4.42278 19.4424C4.42276 19.4424 4.42275 19.4424 4.42274 19.4424C4.42273 19.4424 4.42271 19.4424 4.4227 19.4424C4.42269 19.4424 4.42267 19.4424 4.42266 19.4424C4.42265 19.4424 4.42264 19.4424 4.42262 19.4424C4.42261 19.4424 4.4226 19.4424 4.42259 19.4424C4.42257 19.4424 4.42256 19.4424 4.42255 19.4424C4.42254 19.4424 4.42252 19.4424 4.42251 19.4424C4.4225 19.4424 4.42248 19.4424 4.42247 19.4424C4.42246 19.4424 4.42245 19.4424 4.42243 19.4424C4.42242 19.4424 4.42241 19.4424 4.4224 19.4424C4.42238 19.4424 4.42237 19.4424 4.42236 19.4424C4.42235 19.4424 4.42233 19.4424 4.42232 19.4424C4.42231 19.4424 4.4223 19.4424 4.42228 19.4424C4.42227 19.4424 4.42226 19.4424 4.42225 19.4424C4.42223 19.4424 4.42222 19.4424 4.42221 19.4424C4.42219 19.4424 4.42218 19.4424 4.42217 19.4424C4.42216 19.4424 4.42214 19.4424 4.42213 19.4424C4.42212 19.4424 4.42211 19.4424 4.4221 19.4424C4.42208 19.4424 4.42207 19.4424 4.42206 19.4424C4.42205 19.4424 4.42203 19.4424 4.42202 19.4424C4.42201 19.4424 4.422 19.4424 4.42198 19.4424C4.42197 19.4424 4.42196 19.4424 4.42195 19.4424C4.42193 19.4424 4.42192 19.4424 4.42191 19.4424C4.4219 19.4424 4.42188 19.4424 4.42187 19.4424C4.42186 19.4424 4.42185 19.4424 4.42183 19.4424C4.42182 19.4424 4.42181 19.4424 4.4218 19.4424C4.42178 19.4424 4.42177 19.4424 4.42176 19.4424C4.42175 19.4424 4.42173 19.4424 4.42172 19.4424C4.42171 19.4424 4.4217 19.4424 4.42169 19.4424C4.42167 19.4424 4.42166 19.4424 4.42165 19.4424C4.42164 19.4424 4.42162 19.4424 4.42161 19.4424C4.4216 19.4424 4.42159 19.4424 4.42158 19.4424C4.42156 19.4424 4.42155 19.4424 4.42154 19.4424C4.42153 19.4424 4.42151 19.4424 4.4215 19.4424C4.42149 19.4424 4.42148 19.4424 4.42146 19.4424C4.42145 19.4424 4.42144 19.4424 4.42143 19.4424V23.4424C4.42144 23.4424 4.42145 23.4424 4.42146 23.4424C4.42148 23.4424 4.42149 23.4424 4.4215 23.4424C4.42151 23.4424 4.42153 23.4424 4.42154 23.4424C4.42155 23.4424 4.42156 23.4424 4.42158 23.4424C4.42159 23.4424 4.4216 23.4424 4.42161 23.4424C4.42162 23.4424 4.42164 23.4424 4.42165 23.4424C4.42166 23.4424 4.42167 23.4424 4.42169 23.4424C4.4217 23.4424 4.42171 23.4424 4.42172 23.4424C4.42173 23.4424 4.42175 23.4424 4.42176 23.4424C4.42177 23.4424 4.42178 23.4424 4.4218 23.4424C4.42181 23.4424 4.42182 23.4424 4.42183 23.4424C4.42185 23.4424 4.42186 23.4424 4.42187 23.4424C4.42188 23.4424 4.4219 23.4424 4.42191 23.4424C4.42192 23.4424 4.42193 23.4424 4.42195 23.4424C4.42196 23.4424 4.42197 23.4424 4.42198 23.4424C4.422 23.4424 4.42201 23.4424 4.42202 23.4424C4.42203 23.4424 4.42205 23.4424 4.42206 23.4424C4.42207 23.4424 4.42208 23.4424 4.4221 23.4424C4.42211 23.4424 4.42212 23.4424 4.42213 23.4424C4.42214 23.4424 4.42216 23.4424 4.42217 23.4424C4.42218 23.4424 4.42219 23.4424 4.42221 23.4424C4.42222 23.4424 4.42223 23.4424 4.42225 23.4424C4.42226 23.4424 4.42227 23.4424 4.42228 23.4424C4.4223 23.4424 4.42231 23.4424 4.42232 23.4424C4.42233 23.4424 4.42235 23.4424 4.42236 23.4424C4.42237 23.4424 4.42238 23.4424 4.4224 23.4424C4.42241 23.4424 4.42242 23.4424 4.42243 23.4424C4.42245 23.4424 4.42246 23.4424 4.42247 23.4424C4.42248 23.4424 4.4225 23.4424 4.42251 23.4424C4.42252 23.4424 4.42254 23.4424 4.42255 23.4424C4.42256 23.4424 4.42257 23.4424 4.42259 23.4424C4.4226 23.4424 4.42261 23.4424 4.42262 23.4424C4.42264 23.4424 4.42265 23.4424 4.42266 23.4424C4.42267 23.4424 4.42269 23.4424 4.4227 23.4424C4.42271 23.4424 4.42273 23.4424 4.42274 23.4424C4.42275 23.4424 4.42276 23.4424 4.42278 23.4424C4.42279 23.4424 4.4228 23.4424 4.42281 23.4424C4.42283 23.4424 4.42284 23.4424 4.42285 23.4424C4.42287 23.4424 4.42288 23.4424 4.42289 23.4424C4.4229 23.4424 4.42292 23.4424 4.42293 23.4424C4.42294 23.4424 4.42296 23.4424 4.42297 23.4424C4.42298 23.4424 4.42299 23.4424 4.42301 23.4424C4.42302 23.4424 4.42303 23.4424 4.42305 23.4424C4.42306 23.4424 4.42307 23.4424 4.42308 23.4424C4.4231 23.4424 4.42311 23.4424 4.42312 23.4424C4.42314 23.4424 4.42315 23.4424 4.42316 23.4424C4.42317 23.4424 4.42319 23.4424 4.4232 23.4424C4.42321 23.4424 4.42323 23.4424 4.42324 23.4424C4.42325 23.4424 4.42326 23.4424 4.42328 23.4424C4.42329 23.4424 4.4233 23.4424 4.42332 23.4424C4.42333 23.4424 4.42334 23.4424 4.42335 23.4424C4.42337 23.4424 4.42338 23.4424 4.42339 23.4424C4.42341 23.4424 4.42342 23.4424 4.42343 23.4424C4.42345 23.4424 4.42346 23.4424 4.42347 23.4424C4.42348 23.4424 4.4235 23.4424 4.42351 23.4424C4.42352 23.4424 4.42354 23.4424 4.42355 23.4424C4.42356 23.4424 4.42358 23.4424 4.42359 23.4424C4.4236 23.4424 4.42361 23.4424 4.42363 23.4424C4.42364 23.4424 4.42365 23.4424 4.42367 23.4424C4.42368 23.4424 4.42369 23.4424 4.42371 23.4424C4.42372 23.4424 4.42373 23.4424 4.42374 23.4424C4.42376 23.4424 4.42377 23.4424 4.42378 23.4424C4.4238 23.4424 4.42381 23.4424 4.42382 23.4424C4.42384 23.4424 4.42385 23.4424 4.42386 23.4424C4.42388 23.4424 4.42389 23.4424 4.4239 23.4424C4.42391 23.4424 4.42393 23.4424 4.42394 23.4424C4.42395 23.4424 4.42397 23.4424 4.42398 23.4424C4.42399 23.4424 4.42401 23.4424 4.42402 23.4424C4.42403 23.4424 4.42405 23.4424 4.42406 23.4424C4.42407 23.4424 4.42409 23.4424 4.4241 23.4424C4.42411 23.4424 4.42413 23.4424 4.42414 23.4424C4.42415 23.4424 4.42417 23.4424 4.42418 23.4424C4.42419 23.4424 4.4242 23.4424 4.42422 23.4424C4.42423 23.4424 4.42424 23.4424 4.42426 23.4424C4.42427 23.4424 4.42428 23.4424 4.4243 23.4424C4.42431 23.4424 4.42432 23.4424 4.42434 23.4424C4.42435 23.4424 4.42436 23.4424 4.42438 23.4424C4.42439 23.4424 4.4244 23.4424 4.42442 23.4424C4.42443 23.4424 4.42444 23.4424 4.42446 23.4424C4.42447 23.4424 4.42448 23.4424 4.4245 23.4424C4.42451 23.4424 4.42452 23.4424 4.42454 23.4424C4.42455 23.4424 4.42456 23.4424 4.42458 23.4424C4.42459 23.4424 4.4246 23.4424 4.42462 23.4424C4.42463 23.4424 4.42464 23.4424 4.42466 23.4424C4.42467 23.4424 4.42468 23.4424 4.4247 23.4424C4.42471 23.4424 4.42472 23.4424 4.42474 23.4424C4.42475 23.4424 4.42476 23.4424 4.42478 23.4424C4.42479 23.4424 4.4248 23.4424 4.42482 23.4424C4.42483 23.4424 4.42484 23.4424 4.42486 23.4424C4.42487 23.4424 4.42488 23.4424 4.4249 23.4424C4.42491 23.4424 4.42492 23.4424 4.42494 23.4424C4.42495 23.4424 4.42496 23.4424 4.42498 23.4424C4.42499 23.4424 4.425 23.4424 4.42502 23.4424C4.42503 23.4424 4.42504 23.4424 4.42506 23.4424C4.42507 23.4424 4.42508 23.4424 4.4251 23.4424C4.42511 23.4424 4.42512 23.4424 4.42514 23.4424C4.42515 23.4424 4.42517 23.4424 4.42518 23.4424C4.42519 23.4424 4.42521 23.4424 4.42522 23.4424C4.42523 23.4424 4.42525 23.4424 4.42526 23.4424C4.42527 23.4424 4.42529 23.4424 4.4253 23.4424C4.42531 23.4424 4.42533 23.4424 4.42534 23.4424C4.42535 23.4424 4.42537 23.4424 4.42538 23.4424C4.42539 23.4424 4.42541 23.4424 4.42542 23.4424C4.42544 23.4424 4.42545 23.4424 4.42546 23.4424C4.42548 23.4424 4.42549 23.4424 4.4255 23.4424C4.42552 23.4424 4.42553 23.4424 4.42554 23.4424C4.42556 23.4424 4.42557 23.4424 4.42558 23.4424C4.4256 23.4424 4.42561 23.4424 4.42562 23.4424C4.42564 23.4424 4.42565 23.4424 4.42567 23.4424C4.42568 23.4424 4.42569 23.4424 4.42571 23.4424C4.42572 23.4424 4.42573 23.4424 4.42575 23.4424C4.42576 23.4424 4.42577 23.4424 4.42579 23.4424C4.4258 23.4424 4.42581 23.4424 4.42583 23.4424C4.42584 23.4424 4.42586 23.4424 4.42587 23.4424C4.42588 23.4424 4.4259 23.4424 4.42591 23.4424C4.42592 23.4424 4.42594 23.4424 4.42595 23.4424C4.42596 23.4424 4.42598 23.4424 4.42599 23.4424C4.42601 23.4424 4.42602 23.4424 4.42603 23.4424C4.42605 23.4424 4.42606 23.4424 4.42607 23.4424C4.42609 23.4424 4.4261 23.4424 4.42612 23.4424C4.42613 23.4424 4.42614 23.4424 4.42616 23.4424C4.42617 23.4424 4.42618 23.4424 4.4262 23.4424C4.42621 23.4424 4.42622 23.4424 4.42624 23.4424C4.42625 23.4424 4.42627 23.4424 4.42628 23.4424C4.42629 23.4424 4.42631 23.4424 4.42632 23.4424C4.42633 23.4424 4.42635 23.4424 4.42636 23.4424C4.42638 23.4424 4.42639 23.4424 4.4264 23.4424C4.42642 23.4424 4.42643 23.4424 4.42644 23.4424C4.42646 23.4424 4.42647 23.4424 4.42649 23.4424C4.4265 23.4424 4.42651 23.4424 4.42653 23.4424C4.42654 23.4424 4.42655 23.4424 4.42657 23.4424C4.42658 23.4424 4.4266 23.4424 4.42661 23.4424C4.42662 23.4424 4.42664 23.4424 4.42665 23.4424C4.42666 23.4424 4.42668 23.4424 4.42669 23.4424C4.42671 23.4424 4.42672 23.4424 4.42673 23.4424C4.42675 23.4424 4.42676 23.4424 4.42677 23.4424C4.42679 23.4424 4.4268 23.4424 4.42682 23.4424C4.42683 23.4424 4.42684 23.4424 4.42686 23.4424C4.42687 23.4424 4.42689 23.4424 4.4269 23.4424C4.42691 23.4424 4.42693 23.4424 4.42694 23.4424C4.42695 23.4424 4.42697 23.4424 4.42698 23.4424C4.427 23.4424 4.42701 23.4424 4.42702 23.4424C4.42704 23.4424 4.42705 23.4424 4.42706 23.4424C4.42708 23.4424 4.42709 23.4424 4.42711 23.4424C4.42712 23.4424 4.42713 23.4424 4.42715 23.4424C4.42716 23.4424 4.42718 23.4424 4.42719 23.4424C4.4272 23.4424 4.42722 23.4424 4.42723 23.4424C4.42725 23.4424 4.42726 23.4424 4.42727 23.4424C4.42729 23.4424 4.4273 23.4424 4.42731 23.4424C4.42733 23.4424 4.42734 23.4424 4.42736 23.4424C4.42737 23.4424 4.42738 23.4424 4.4274 23.4424C4.42741 23.4424 4.42743 23.4424 4.42744 23.4424C4.42745 23.4424 4.42747 23.4424 4.42748 23.4424C4.4275 23.4424 4.42751 23.4424 4.42752 23.4424C4.42754 23.4424 4.42755 23.4424 4.42757 23.4424C4.42758 23.4424 4.42759 23.4424 4.42761 23.4424C4.42762 23.4424 4.42763 23.4424 4.42765 23.4424C4.42766 23.4424 4.42768 23.4424 4.42769 23.4424C4.4277 23.4424 4.42772 23.4424 4.42773 23.4424C4.42775 23.4424 4.42776 23.4424 4.42777 23.4424C4.42779 23.4424 4.4278 23.4424 4.42782 23.4424C4.42783 23.4424 4.42784 23.4424 4.42786 23.4424C4.42787 23.4424 4.42789 23.4424 4.4279 23.4424C4.42791 23.4424 4.42793 23.4424 4.42794 23.4424C4.42796 23.4424 4.42797 23.4424 4.42798 23.4424C4.428 23.4424 4.42801 23.4424 4.42803 23.4424C4.42804 23.4424 4.42805 23.4424 4.42807 23.4424C4.42808 23.4424 4.4281 23.4424 4.42811 23.4424C4.42812 23.4424 4.42814 23.4424 4.42815 23.4424C4.42817 23.4424 4.42818 23.4424 4.42819 23.4424C4.42821 23.4424 4.42822 23.4424 4.42824 23.4424C4.42825 23.4424 4.42826 23.4424 4.42828 23.4424C4.42829 23.4424 4.42831 23.4424 4.42832 23.4424C4.42833 23.4424 4.42835 23.4424 4.42836 23.4424C4.42838 23.4424 4.42839 23.4424 4.4284 23.4424C4.42842 23.4424 4.42843 23.4424 4.42845 23.4424C4.42846 23.4424 4.42847 23.4424 4.42849 23.4424C4.4285 23.4424 4.42852 23.4424 4.42853 23.4424C4.42854 23.4424 4.42856 23.4424 4.42857 23.4424C4.42859 23.4424 4.4286 23.4424 4.42862 23.4424C4.42863 23.4424 4.42864 23.4424 4.42866 23.4424C4.42867 23.4424 4.42869 23.4424 4.4287 23.4424C4.42871 23.4424 4.42873 23.4424 4.42874 23.4424C4.42876 23.4424 4.42877 23.4424 4.42878 23.4424C4.4288 23.4424 4.42881 23.4424 4.42883 23.4424C4.42884 23.4424 4.42885 23.4424 4.42887 23.4424C4.42888 23.4424 4.4289 23.4424 4.42891 23.4424C4.42893 23.4424 4.42894 23.4424 4.42895 23.4424C4.42897 23.4424 4.42898 23.4424 4.429 23.4424C4.42901 23.4424 4.42902 23.4424 4.42904 23.4424C4.42905 23.4424 4.42907 23.4424 4.42908 23.4424C4.42909 23.4424 4.42911 23.4424 4.42912 23.4424C4.42914 23.4424 4.42915 23.4424 4.42917 23.4424C4.42918 23.4424 4.42919 23.4424 4.42921 23.4424C4.42922 23.4424 4.42924 23.4424 4.42925 23.4424C4.42926 23.4424 4.42928 23.4424 4.42929 23.4424C4.42931 23.4424 4.42932 23.4424 4.42934 23.4424C4.42935 23.4424 4.42936 23.4424 4.42938 23.4424C4.42939 23.4424 4.42941 23.4424 4.42942 23.4424C4.42943 23.4424 4.42945 23.4424 4.42946 23.4424C4.42948 23.4424 4.42949 23.4424 4.4295 23.4424C4.42952 23.4424 4.42953 23.4424 4.42955 23.4424C4.42956 23.4424 4.42958 23.4424 4.42959 23.4424C4.4296 23.4424 4.42962 23.4424 4.42963 23.4424C4.42965 23.4424 4.42966 23.4424 4.42967 23.4424C4.42969 23.4424 4.4297 23.4424 4.42972 23.4424C4.42973 23.4424 4.42975 23.4424 4.42976 23.4424C4.42977 23.4424 4.42979 23.4424 4.4298 23.4424C4.42982 23.4424 4.42983 23.4424 4.42984 23.4424C4.42986 23.4424 4.42987 23.4424 4.42989 23.4424C4.4299 23.4424 4.42992 23.4424 4.42993 23.4424C4.42994 23.4424 4.42996 23.4424 4.42997 23.4424C4.42999 23.4424 4.43 23.4424 4.43002 23.4424C4.43003 23.4424 4.43004 23.4424 4.43006 23.4424C4.43007 23.4424 4.43009 23.4424 4.4301 23.4424C4.43011 23.4424 4.43013 23.4424 4.43014 23.4424C4.43016 23.4424 4.43017 23.4424 4.43019 23.4424C4.4302 23.4424 4.43021 23.4424 4.43023 23.4424C4.43024 23.4424 4.43026 23.4424 4.43027 23.4424C4.43028 23.4424 4.4303 23.4424 4.43031 23.4424C4.43033 23.4424 4.43034 23.4424 4.43036 23.4424C4.43037 23.4424 4.43038 23.4424 4.4304 23.4424C4.43041 23.4424 4.43043 23.4424 4.43044 23.4424C4.43046 23.4424 4.43047 23.4424 4.43048 23.4424C4.4305 23.4424 4.43051 23.4424 4.43053 23.4424C4.43054 23.4424 4.43055 23.4424 4.43057 23.4424C4.43058 23.4424 4.4306 23.4424 4.43061 23.4424C4.43063 23.4424 4.43064 23.4424 4.43065 23.4424C4.43067 23.4424 4.43068 23.4424 4.4307 23.4424C4.43071 23.4424 4.43073 23.4424 4.43074 23.4424C4.43075 23.4424 4.43077 23.4424 4.43078 23.4424C4.4308 23.4424 4.43081 23.4424 4.43083 23.4424C4.43084 23.4424 4.43085 23.4424 4.43087 23.4424C4.43088 23.4424 4.4309 23.4424 4.43091 23.4424C4.43092 23.4424 4.43094 23.4424 4.43095 23.4424C4.43097 23.4424 4.43098 23.4424 4.431 23.4424C4.43101 23.4424 4.43102 23.4424 4.43104 23.4424C4.43105 23.4424 4.43107 23.4424 4.43108 23.4424C4.4311 23.4424 4.43111 23.4424 4.43112 23.4424C4.43114 23.4424 4.43115 23.4424 4.43117 23.4424C4.43118 23.4424 4.4312 23.4424 4.43121 23.4424C4.43122 23.4424 4.43124 23.4424 4.43125 23.4424C4.43127 23.4424 4.43128 23.4424 4.4313 23.4424C4.43131 23.4424 4.43132 23.4424 4.43134 23.4424C4.43135 23.4424 4.43137 23.4424 4.43138 23.4424C4.4314 23.4424 4.43141 23.4424 4.43142 23.4424C4.43144 23.4424 4.43145 23.4424 4.43147 23.4424C4.43148 23.4424 4.43149 23.4424 4.43151 23.4424C4.43152 23.4424 4.43154 23.4424 4.43155 23.4424C4.43157 23.4424 4.43158 23.4424 4.43159 23.4424C4.43161 23.4424 4.43162 23.4424 4.43164 23.4424C4.43165 23.4424 4.43167 23.4424 4.43168 23.4424C4.43169 23.4424 4.43171 23.4424 4.43172 23.4424C4.43174 23.4424 4.43175 23.4424 4.43177 23.4424C4.43178 23.4424 4.43179 23.4424 4.43181 23.4424C4.43182 23.4424 4.43184 23.4424 4.43185 23.4424C4.43187 23.4424 4.43188 23.4424 4.43189 23.4424C4.43191 23.4424 4.43192 23.4424 4.43194 23.4424C4.43195 23.4424 4.43196 23.4424 4.43198 23.4424C4.43199 23.4424 4.43201 23.4424 4.43202 23.4424C4.43204 23.4424 4.43205 23.4424 4.43206 23.4424C4.43208 23.4424 4.43209 23.4424 4.43211 23.4424C4.43212 23.4424 4.43214 23.4424 4.43215 23.4424C4.43216 23.4424 4.43218 23.4424 4.43219 23.4424C4.43221 23.4424 4.43222 23.4424 4.43224 23.4424C4.43225 23.4424 4.43226 23.4424 4.43228 23.4424C4.43229 23.4424 4.43231 23.4424 4.43232 23.4424C4.43234 23.4424 4.43235 23.4424 4.43236 23.4424C4.43238 23.4424 4.43239 23.4424 4.43241 23.4424C4.43242 23.4424 4.43244 23.4424 4.43245 23.4424C4.43246 23.4424 4.43248 23.4424 4.43249 23.4424C4.43251 23.4424 4.43252 23.4424 4.43253 23.4424C4.43255 23.4424 4.43256 23.4424 4.43258 23.4424C4.43259 23.4424 4.43261 23.4424 4.43262 23.4424C4.43263 23.4424 4.43265 23.4424 4.43266 23.4424C4.43268 23.4424 4.43269 23.4424 4.43271 23.4424C4.43272 23.4424 4.43273 23.4424 4.43275 23.4424C4.43276 23.4424 4.43278 23.4424 4.43279 23.4424C4.43281 23.4424 4.43282 23.4424 4.43283 23.4424C4.43285 23.4424 4.43286 23.4424 4.43288 23.4424C4.43289 23.4424 4.43291 23.4424 4.43292 23.4424C4.43293 23.4424 4.43295 23.4424 4.43296 23.4424C4.43298 23.4424 4.43299 23.4424 4.433 23.4424C4.43302 23.4424 4.43303 23.4424 4.43305 23.4424C4.43306 23.4424 4.43308 23.4424 4.43309 23.4424C4.4331 23.4424 4.43312 23.4424 4.43313 23.4424C4.43315 23.4424 4.43316 23.4424 4.43318 23.4424C4.43319 23.4424 4.4332 23.4424 4.43322 23.4424C4.43323 23.4424 4.43325 23.4424 4.43326 23.4424C4.43327 23.4424 4.43329 23.4424 4.4333 23.4424C4.43332 23.4424 4.43333 23.4424 4.43335 23.4424C4.43336 23.4424 4.43337 23.4424 4.43339 23.4424C4.4334 23.4424 4.43342 23.4424 4.43343 23.4424C4.43345 23.4424 4.43346 23.4424 4.43347 23.4424C4.43349 23.4424 4.4335 23.4424 4.43352 23.4424C4.43353 23.4424 4.43354 23.4424 4.43356 23.4424C4.43357 23.4424 4.43359 23.4424 4.4336 23.4424C4.43362 23.4424 4.43363 23.4424 4.43364 23.4424C4.43366 23.4424 4.43367 23.4424 4.43369 23.4424C4.4337 23.4424 4.43372 23.4424 4.43373 23.4424C4.43374 23.4424 4.43376 23.4424 4.43377 23.4424C4.43379 23.4424 4.4338 23.4424 4.43381 23.4424C4.43383 23.4424 4.43384 23.4424 4.43386 23.4424C4.43387 23.4424 4.43389 23.4424 4.4339 23.4424C4.43391 23.4424 4.43393 23.4424 4.43394 23.4424C4.43396 23.4424 4.43397 23.4424 4.43398 23.4424C4.434 23.4424 4.43401 23.4424 4.43403 23.4424C4.43404 23.4424 4.43406 23.4424 4.43407 23.4424C4.43408 23.4424 4.4341 23.4424 4.43411 23.4424C4.43413 23.4424 4.43414 23.4424 4.43415 23.4424C4.43417 23.4424 4.43418 23.4424 4.4342 23.4424C4.43421 23.4424 4.43423 23.4424 4.43424 23.4424C4.43425 23.4424 4.43427 23.4424 4.43428 23.4424C4.4343 23.4424 4.43431 23.4424 4.43432 23.4424C4.43434 23.4424 4.43435 23.4424 4.43437 23.4424C4.43438 23.4424 4.4344 23.4424 4.43441 23.4424C4.43442 23.4424 4.43444 23.4424 4.43445 23.4424C4.43447 23.4424 4.43448 23.4424 4.43449 23.4424C4.43451 23.4424 4.43452 23.4424 4.43454 23.4424C4.43455 23.4424 4.43456 23.4424 4.43458 23.4424C4.43459 23.4424 4.43461 23.4424 4.43462 23.4424C4.43464 23.4424 4.43465 23.4424 4.43466 23.4424C4.43468 23.4424 4.43469 23.4424 4.43471 23.4424C4.43472 23.4424 4.43473 23.4424 4.43475 23.4424C4.43476 23.4424 4.43478 23.4424 4.43479 23.4424C4.4348 23.4424 4.43482 23.4424 4.43483 23.4424C4.43485 23.4424 4.43486 23.4424 4.43488 23.4424C4.43489 23.4424 4.4349 23.4424 4.43492 23.4424C4.43493 23.4424 4.43495 23.4424 4.43496 23.4424C4.43497 23.4424 4.43499 23.4424 4.435 23.4424C4.43502 23.4424 4.43503 23.4424 4.43504 23.4424C4.43506 23.4424 4.43507 23.4424 4.43509 23.4424C4.4351 23.4424 4.43511 23.4424 4.43513 23.4424C4.43514 23.4424 4.43516 23.4424 4.43517 23.4424C4.43518 23.4424 4.4352 23.4424 4.43521 23.4424C4.43523 23.4424 4.43524 23.4424 4.43526 23.4424C4.43527 23.4424 4.43528 23.4424 4.4353 23.4424C4.43531 23.4424 4.43533 23.4424 4.43534 23.4424C4.43535 23.4424 4.43537 23.4424 4.43538 23.4424C4.4354 23.4424 4.43541 23.4424 4.43542 23.4424C4.43544 23.4424 4.43545 23.4424 4.43547 23.4424C4.43548 23.4424 4.43549 23.4424 4.43551 23.4424C4.43552 23.4424 4.43554 23.4424 4.43555 23.4424C4.43556 23.4424 4.43558 23.4424 4.43559 23.4424C4.43561 23.4424 4.43562 23.4424 4.43563 23.4424C4.43565 23.4424 4.43566 23.4424 4.43568 23.4424C4.43569 23.4424 4.4357 23.4424 4.43572 23.4424C4.43573 23.4424 4.43575 23.4424 4.43576 23.4424C4.43577 23.4424 4.43579 23.4424 4.4358 23.4424C4.43582 23.4424 4.43583 23.4424 4.43584 23.4424C4.43586 23.4424 4.43587 23.4424 4.43589 23.4424C4.4359 23.4424 4.43591 23.4424 4.43593 23.4424C4.43594 23.4424 4.43596 23.4424 4.43597 23.4424C4.43598 23.4424 4.436 23.4424 4.43601 23.4424C4.43603 23.4424 4.43604 23.4424 4.43605 23.4424C4.43607 23.4424 4.43608 23.4424 4.43609 23.4424C4.43611 23.4424 4.43612 23.4424 4.43614 23.4424C4.43615 23.4424 4.43616 23.4424 4.43618 23.4424C4.43619 23.4424 4.43621 23.4424 4.43622 23.4424C4.43623 23.4424 4.43625 23.4424 4.43626 23.4424C4.43628 23.4424 4.43629 23.4424 4.4363 23.4424C4.43632 23.4424 4.43633 23.4424 4.43635 23.4424C4.43636 23.4424 4.43637 23.4424 4.43639 23.4424C4.4364 23.4424 4.43642 23.4424 4.43643 23.4424C4.43644 23.4424 4.43646 23.4424 4.43647 23.4424C4.43648 23.4424 4.4365 23.4424 4.43651 23.4424C4.43653 23.4424 4.43654 23.4424 4.43655 23.4424C4.43657 23.4424 4.43658 23.4424 4.4366 23.4424C4.43661 23.4424 4.43662 23.4424 4.43664 23.4424C4.43665 23.4424 4.43666 23.4424 4.43668 23.4424C4.43669 23.4424 4.43671 23.4424 4.43672 23.4424C4.43673 23.4424 4.43675 23.4424 4.43676 23.4424C4.43678 23.4424 4.43679 23.4424 4.4368 23.4424C4.43682 23.4424 4.43683 23.4424 4.43684 23.4424C4.43686 23.4424 4.43687 23.4424 4.43689 23.4424C4.4369 23.4424 4.43691 23.4424 4.43693 23.4424C4.43694 23.4424 4.43695 23.4424 4.43697 23.4424C4.43698 23.4424 4.437 23.4424 4.43701 23.4424C4.43702 23.4424 4.43704 23.4424 4.43705 23.4424C4.43707 23.4424 4.43708 23.4424 4.43709 23.4424C4.43711 23.4424 4.43712 23.4424 4.43713 23.4424C4.43715 23.4424 4.43716 23.4424 4.43718 23.4424C4.43719 23.4424 4.4372 23.4424 4.43722 23.4424C4.43723 23.4424 4.43724 23.4424 4.43726 23.4424C4.43727 23.4424 4.43729 23.4424 4.4373 23.4424C4.43731 23.4424 4.43733 23.4424 4.43734 23.4424C4.43735 23.4424 4.43737 23.4424 4.43738 23.4424C4.4374 23.4424 4.43741 23.4424 4.43742 23.4424C4.43744 23.4424 4.43745 23.4424 4.43746 23.4424C4.43748 23.4424 4.43749 23.4424 4.4375 23.4424C4.43752 23.4424 4.43753 23.4424 4.43755 23.4424C4.43756 23.4424 4.43757 23.4424 4.43759 23.4424C4.4376 23.4424 4.43761 23.4424 4.43763 23.4424C4.43764 23.4424 4.43766 23.4424 4.43767 23.4424C4.43768 23.4424 4.4377 23.4424 4.43771 23.4424C4.43772 23.4424 4.43774 23.4424 4.43775 23.4424C4.43776 23.4424 4.43778 23.4424 4.43779 23.4424C4.43781 23.4424 4.43782 23.4424 4.43783 23.4424C4.43785 23.4424 4.43786 23.4424 4.43787 23.4424C4.43789 23.4424 4.4379 23.4424 4.43791 23.4424C4.43793 23.4424 4.43794 23.4424 4.43795 23.4424C4.43797 23.4424 4.43798 23.4424 4.438 23.4424C4.43801 23.4424 4.43802 23.4424 4.43804 23.4424C4.43805 23.4424 4.43806 23.4424 4.43808 23.4424C4.43809 23.4424 4.4381 23.4424 4.43812 23.4424C4.43813 23.4424 4.43815 23.4424 4.43816 23.4424C4.43817 23.4424 4.43819 23.4424 4.4382 23.4424C4.43821 23.4424 4.43823 23.4424 4.43824 23.4424C4.43825 23.4424 4.43827 23.4424 4.43828 23.4424C4.43829 23.4424 4.43831 23.4424 4.43832 23.4424C4.43833 23.4424 4.43835 23.4424 4.43836 23.4424C4.43837 23.4424 4.43839 23.4424 4.4384 23.4424C4.43842 23.4424 4.43843 23.4424 4.43844 23.4424C4.43846 23.4424 4.43847 23.4424 4.43848 23.4424C4.4385 23.4424 4.43851 23.4424 4.43852 23.4424C4.43854 23.4424 4.43855 23.4424 4.43856 23.4424C4.43858 23.4424 4.43859 23.4424 4.4386 23.4424C4.43862 23.4424 4.43863 23.4424 4.43864 23.4424C4.43866 23.4424 4.43867 23.4424 4.43868 23.4424C4.4387 23.4424 4.43871 23.4424 4.43872 23.4424C4.43874 23.4424 4.43875 23.4424 4.43877 23.4424C4.43878 23.4424 4.43879 23.4424 4.43881 23.4424C4.43882 23.4424 4.43883 23.4424 4.43885 23.4424C4.43886 23.4424 4.43887 23.4424 4.43889 23.4424C4.4389 23.4424 4.43891 23.4424 4.43893 23.4424C4.43894 23.4424 4.43895 23.4424 4.43897 23.4424C4.43898 23.4424 4.43899 23.4424 4.43901 23.4424C4.43902 23.4424 4.43903 23.4424 4.43905 23.4424C4.43906 23.4424 4.43907 23.4424 4.43909 23.4424C4.4391 23.4424 4.43911 23.4424 4.43913 23.4424C4.43914 23.4424 4.43915 23.4424 4.43917 23.4424C4.43918 23.4424 4.43919 23.4424 4.43921 23.4424C4.43922 23.4424 4.43923 23.4424 4.43925 23.4424C4.43926 23.4424 4.43927 23.4424 4.43929 23.4424C4.4393 23.4424 4.43931 23.4424 4.43933 23.4424C4.43934 23.4424 4.43935 23.4424 4.43936 23.4424C4.43938 23.4424 4.43939 23.4424 4.4394 23.4424C4.43942 23.4424 4.43943 23.4424 4.43944 23.4424C4.43946 23.4424 4.43947 23.4424 4.43948 23.4424C4.4395 23.4424 4.43951 23.4424 4.43952 23.4424C4.43954 23.4424 4.43955 23.4424 4.43956 23.4424C4.43958 23.4424 4.43959 23.4424 4.4396 23.4424C4.43962 23.4424 4.43963 23.4424 4.43964 23.4424C4.43966 23.4424 4.43967 23.4424 4.43968 23.4424C4.43969 23.4424 4.43971 23.4424 4.43972 23.4424C4.43973 23.4424 4.43975 23.4424 4.43976 23.4424C4.43977 23.4424 4.43979 23.4424 4.4398 23.4424C4.43981 23.4424 4.43983 23.4424 4.43984 23.4424C4.43985 23.4424 4.43987 23.4424 4.43988 23.4424C4.43989 23.4424 4.4399 23.4424 4.43992 23.4424C4.43993 23.4424 4.43994 23.4424 4.43996 23.4424C4.43997 23.4424 4.43998 23.4424 4.44 23.4424C4.44001 23.4424 4.44002 23.4424 4.44004 23.4424C4.44005 23.4424 4.44006 23.4424 4.44007 23.4424C4.44009 23.4424 4.4401 23.4424 4.44011 23.4424C4.44013 23.4424 4.44014 23.4424 4.44015 23.4424C4.44017 23.4424 4.44018 23.4424 4.44019 23.4424C4.4402 23.4424 4.44022 23.4424 4.44023 23.4424C4.44024 23.4424 4.44026 23.4424 4.44027 23.4424C4.44028 23.4424 4.4403 23.4424 4.44031 23.4424C4.44032 23.4424 4.44033 23.4424 4.44035 23.4424C4.44036 23.4424 4.44037 23.4424 4.44039 23.4424C4.4404 23.4424 4.44041 23.4424 4.44042 23.4424C4.44044 23.4424 4.44045 23.4424 4.44046 23.4424C4.44048 23.4424 4.44049 23.4424 4.4405 23.4424C4.44052 23.4424 4.44053 23.4424 4.44054 23.4424C4.44055 23.4424 4.44057 23.4424 4.44058 23.4424C4.44059 23.4424 4.44061 23.4424 4.44062 23.4424C4.44063 23.4424 4.44064 23.4424 4.44066 23.4424C4.44067 23.4424 4.44068 23.4424 4.4407 23.4424C4.44071 23.4424 4.44072 23.4424 4.44073 23.4424C4.44075 23.4424 4.44076 23.4424 4.44077 23.4424C4.44078 23.4424 4.4408 23.4424 4.44081 23.4424C4.44082 23.4424 4.44084 23.4424 4.44085 23.4424C4.44086 23.4424 4.44087 23.4424 4.44089 23.4424C4.4409 23.4424 4.44091 23.4424 4.44093 23.4424C4.44094 23.4424 4.44095 23.4424 4.44096 23.4424C4.44098 23.4424 4.44099 23.4424 4.441 23.4424C4.44101 23.4424 4.44103 23.4424 4.44104 23.4424C4.44105 23.4424 4.44107 23.4424 4.44108 23.4424C4.44109 23.4424 4.4411 23.4424 4.44112 23.4424C4.44113 23.4424 4.44114 23.4424 4.44115 23.4424C4.44117 23.4424 4.44118 23.4424 4.44119 23.4424C4.4412 23.4424 4.44122 23.4424 4.44123 23.4424C4.44124 23.4424 4.44126 23.4424 4.44127 23.4424C4.44128 23.4424 4.44129 23.4424 4.44131 23.4424C4.44132 23.4424 4.44133 23.4424 4.44134 23.4424C4.44136 23.4424 4.44137 23.4424 4.44138 23.4424C4.44139 23.4424 4.44141 23.4424 4.44142 23.4424C4.44143 23.4424 4.44144 23.4424 4.44146 23.4424C4.44147 23.4424 4.44148 23.4424 4.44149 23.4424C4.44151 23.4424 4.44152 23.4424 4.44153 23.4424C4.44154 23.4424 4.44156 23.4424 4.44157 23.4424C4.44158 23.4424 4.44159 23.4424 4.44161 23.4424C4.44162 23.4424 4.44163 23.4424 4.44164 23.4424C4.44166 23.4424 4.44167 23.4424 4.44168 23.4424C4.44169 23.4424 4.44171 23.4424 4.44172 23.4424C4.44173 23.4424 4.44174 23.4424 4.44176 23.4424C4.44177 23.4424 4.44178 23.4424 4.44179 23.4424C4.44181 23.4424 4.44182 23.4424 4.44183 23.4424C4.44184 23.4424 4.44186 23.4424 4.44187 23.4424C4.44188 23.4424 4.44189 23.4424 4.44191 23.4424C4.44192 23.4424 4.44193 23.4424 4.44194 23.4424C4.44195 23.4424 4.44197 23.4424 4.44198 23.4424C4.44199 23.4424 4.442 23.4424 4.44202 23.4424C4.44203 23.4424 4.44204 23.4424 4.44205 23.4424C4.44207 23.4424 4.44208 23.4424 4.44209 23.4424C4.4421 23.4424 4.44211 23.4424 4.44213 23.4424C4.44214 23.4424 4.44215 23.4424 4.44216 23.4424C4.44218 23.4424 4.44219 23.4424 4.4422 23.4424C4.44221 23.4424 4.44222 23.4424 4.44224 23.4424C4.44225 23.4424 4.44226 23.4424 4.44227 23.4424V19.4424ZM4.49688 19.4439C3.37743 19.4016 2.79595 19.0082 2.48324 18.6596C2.12741 18.2628 2 17.7897 2 17.5008H-2C-2 18.7297 -1.53851 20.1663 -0.494538 21.3303C0.592565 22.5424 2.2218 23.3608 4.34598 23.441L4.49688 19.4439ZM2 17.5008C2 17.1339 2.11697 16.9525 2.1922 16.8745C2.26241 16.8017 2.40276 16.7058 2.69538 16.7058V12.7058C1.40163 12.7058 0.19429 13.1842 -0.686597 14.0974C-1.56247 15.0053 -2 16.2214 -2 17.5008H2ZM2.69538 16.7058C2.78449 16.7058 2.88555 16.7174 2.99365 16.7438L3.94388 12.8583C3.54334 12.7603 3.12325 12.7058 2.69538 12.7058V16.7058ZM2.97937 16.7402C2.2897 16.5662 1.63792 15.7905 1.91496 14.8363L5.75636 15.9514C6.18348 14.4802 5.20234 13.1758 3.95817 12.8619L2.97937 16.7402ZM1.91496 14.8363C2.16676 13.9689 3.01709 13.6271 3.68926 13.7967L2.71045 17.6751C3.93713 17.9847 5.35446 17.3358 5.75636 15.9514L1.91496 14.8363ZM3.69083 13.7971C3.3676 13.7153 3.0339 13.6718 2.69538 13.6718V17.6718C2.6904 17.6718 2.69441 17.6711 2.70888 17.6747L3.69083 13.7971ZM2.69538 13.6718C1.52282 13.6718 0.526248 14.1722 -0.131223 15.0037C-0.74064 15.7744 -0.961871 16.6989 -0.961871 17.4988H3.03813C3.03813 17.4559 3.04459 17.4278 3.04735 17.4189C3.05004 17.4102 3.0432 17.4382 3.0064 17.4847C2.96595 17.5358 2.90172 17.5928 2.81833 17.6328C2.7346 17.6729 2.68216 17.6718 2.69538 17.6718V13.6718ZM-0.961871 17.4988C-0.961871 18.2948 -0.685401 19.466 0.134125 20.4917C1.02154 21.6023 2.43248 22.3987 4.38495 22.4731L4.53712 18.476C4.0827 18.4587 3.79694 18.3658 3.62306 18.2804C3.45066 18.1958 3.33866 18.0944 3.25908 17.9948C3.06914 17.757 3.03813 17.4939 3.03813 17.4988H-0.961871ZM4.38003 22.4729C3.69679 22.4452 2.92341 21.8615 2.96076 20.9003L6.95775 21.0556C7.01594 19.5579 5.80063 18.5272 4.54205 18.4762L4.38003 22.4729ZM2.96085 20.8979C2.99861 19.9545 3.78046 19.4424 4.44227 19.4424V23.4424C5.65442 23.4424 6.89905 22.5223 6.95765 21.0579L2.96085 20.8979Z" fill="#676767" mask="url(#path-8-inside-4)"/>
<mask id="path-10-inside-5" fill="white">
<path d="M23.1099 21.4366C22.8389 21.4366 22.6096 21.2403 22.5929 20.9837C22.5742 20.7175 22.793 20.4862 23.0786 20.4706C25.6906 20.3171 26.3806 18.4609 26.3806 17.5008C26.3806 16.5911 25.8678 15.6737 24.7234 15.6737C24.6442 15.6737 24.5629 15.6796 24.4795 15.6893C24.196 15.7243 23.9354 15.5357 23.9 15.2695C23.8645 15.0032 24.0646 14.7622 24.3502 14.7291C24.4774 14.7136 24.6025 14.7058 24.7255 14.7058C26.3118 14.7058 27.4208 15.8545 27.4208 17.5008C27.4208 18.9818 26.2826 21.252 23.1453 21.4366C23.1328 21.4366 23.1203 21.4366 23.1099 21.4366Z"/>
</mask>
<path d="M22.5929 20.9837L24.5887 20.854L24.588 20.8432L22.5929 20.9837ZM23.0786 20.4706L23.1874 22.4677L23.196 22.4672L23.0786 20.4706ZM24.4795 15.6893L24.2479 13.7027L24.2345 13.7043L24.4795 15.6893ZM24.3502 14.7291L24.5801 16.7159L24.593 16.7143L24.3502 14.7291ZM23.1453 21.4366V23.4366H23.2041L23.2628 23.4332L23.1453 21.4366ZM23.1099 19.4366C23.7552 19.4366 24.5284 19.9263 24.5887 20.854L20.5971 21.1135C20.6908 22.5543 21.9226 23.4366 23.1099 23.4366V19.4366ZM24.588 20.8432C24.6569 21.8212 23.8825 22.4298 23.1874 22.4677L22.9699 18.4736C21.7036 18.5425 20.4914 19.6137 20.5979 21.1243L24.588 20.8432ZM23.196 22.4672C25.0101 22.3605 26.369 21.6283 27.2502 20.5629C28.0791 19.5608 28.3806 18.3911 28.3806 17.5008H24.3806C24.3806 17.5705 24.3371 17.809 24.168 18.0134C24.0512 18.1546 23.7591 18.4272 22.9613 18.4741L23.196 22.4672ZM28.3806 17.5008C28.3806 16.7009 28.1594 15.7764 27.55 15.0056C26.8925 14.1742 25.8959 13.6737 24.7234 13.6737V17.6737C24.7366 17.6737 24.6842 17.6749 24.6004 17.6347C24.517 17.5947 24.4528 17.5378 24.4124 17.4866C24.3756 17.4401 24.3687 17.4121 24.3714 17.4208C24.3742 17.4298 24.3806 17.4578 24.3806 17.5008H28.3806ZM24.7234 13.6737C24.5477 13.6737 24.3866 13.6866 24.2479 13.7027L24.711 17.6758C24.7244 17.6743 24.7318 17.6737 24.7342 17.6736C24.7366 17.6734 24.7326 17.6737 24.7234 17.6737V13.6737ZM24.2345 13.7043C24.9223 13.6195 25.758 14.0705 25.8825 15.0056L21.9174 15.5333C22.1128 17.001 23.4697 17.8291 24.7244 17.6742L24.2345 13.7043ZM25.8825 15.0056C26.0106 15.9682 25.2802 16.6349 24.5801 16.7159L24.1204 12.7424C22.8491 12.8895 21.7184 14.0381 21.9174 15.5333L25.8825 15.0056ZM24.593 16.7143C24.6429 16.7082 24.6869 16.7058 24.7255 16.7058V12.7058C24.5181 12.7058 24.3119 12.7189 24.1075 12.7439L24.593 16.7143ZM24.7255 16.7058C25.0181 16.7058 25.1584 16.8017 25.2286 16.8745C25.3039 16.9525 25.4208 17.1339 25.4208 17.5008H29.4208C29.4208 16.2214 28.9833 15.0053 28.1074 14.0974C27.2265 13.1842 26.0192 12.7058 24.7255 12.7058V16.7058ZM25.4208 17.5008C25.4208 17.777 25.299 18.2428 24.9524 18.6401C24.6478 18.9894 24.0903 19.3775 23.0278 19.4401L23.2628 23.4332C27.5959 23.1781 29.4208 19.8961 29.4208 17.5008H25.4208ZM23.1453 19.4366C23.1342 19.4366 23.1189 19.4366 23.1099 19.4366V23.4366C23.1251 23.4366 23.1109 23.4366 23.1268 23.4366C23.1349 23.4366 23.137 23.4366 23.1453 23.4366V19.4366Z" fill="#676767" mask="url(#path-10-inside-5)"/>
<mask id="path-12-inside-6" fill="white">
<path d="M18.6673 19.547C18.2379 19.547 17.8877 19.2224 17.8877 18.82V17.8404C17.8877 17.4401 18.2358 17.1135 18.6673 17.1135C19.0968 17.1135 19.447 17.4381 19.447 17.8404V18.82C19.447 19.2224 19.0988 19.547 18.6673 19.547Z"/>
</mask>
<path d="M19.447 18.82H17.447H19.447ZM18.6673 17.547C19.2047 17.547 19.8877 17.9849 19.8877 18.82H15.8877C15.8877 20.4599 17.2711 21.547 18.6673 21.547V17.547ZM19.8877 18.82V17.8404H15.8877V18.82H19.8877ZM19.8877 17.8404C19.8877 18.6709 19.2098 19.1135 18.6673 19.1135V15.1135C17.2619 15.1135 15.8877 16.2093 15.8877 17.8404H19.8877ZM18.6673 19.1135C18.13 19.1135 17.447 18.6756 17.447 17.8404H21.447C21.447 16.2006 20.0635 15.1135 18.6673 15.1135V19.1135ZM17.447 17.8404V18.82H21.447V17.8404H17.447ZM17.447 18.82C17.447 17.9882 18.1285 17.547 18.6673 17.547V21.547C20.0692 21.547 21.447 20.4565 21.447 18.82H17.447Z" fill="#676767" mask="url(#path-12-inside-6)"/>
<mask id="path-14-inside-7" fill="white">
<path d="M8.88218 19.5472C8.45275 19.5472 8.10254 19.2226 8.10254 18.8203V17.8407C8.10254 17.4403 8.45067 17.1138 8.88218 17.1138C9.3116 17.1138 9.66182 17.4384 9.66182 17.8407V18.8203C9.66182 19.2226 9.31369 19.5472 8.88218 19.5472Z"/>
</mask>
<path d="M8.88218 17.5472C9.41953 17.5472 10.1025 17.9851 10.1025 18.8203H6.10254C6.10254 20.4601 7.48597 21.5472 8.88218 21.5472V17.5472ZM10.1025 18.8203V17.8407H6.10254V18.8203H10.1025ZM10.1025 17.8407C10.1025 18.6711 9.42463 19.1138 8.88218 19.1138V15.1138C7.4767 15.1138 6.10254 16.2095 6.10254 17.8407H10.1025ZM8.88218 19.1138C8.34482 19.1138 7.66182 18.6759 7.66182 17.8407H11.6618C11.6618 16.2009 10.2784 15.1138 8.88218 15.1138V19.1138ZM7.66182 17.8407V18.8203H11.6618V17.8407H7.66182ZM7.66182 18.8203C7.66182 17.9885 8.34331 17.5472 8.88218 17.5472V21.5472C10.2841 21.5472 11.6618 20.4568 11.6618 18.8203H7.66182Z" fill="#676767" mask="url(#path-14-inside-7)"/>
<path d="M9.93273 1.46434C8.82586 2.44063 8.13428 3.82256 8.13428 5.35277C8.13428 5.7998 8.19473 6.24489 8.31147 6.67638M9.93273 1.46434L8.9431 7.02623C8.66585 7.09037 8.38234 6.93488 8.31147 6.67638M9.93273 1.46434C8.85523 2.43482 8.17241 3.80481 8.17241 5.35277C8.17241 5.79911 8.23162 6.24156 8.34465 6.66728L8.31147 6.67638M9.93273 1.46434L8.34468 6.66739L8.31147 6.67638M19.3924 6.70173L19.3932 6.69895L19.3924 6.70173ZM18.5739 5.35277C18.5739 4.08489 17.9939 2.94153 17.0684 2.14074L18.428 6.43731C18.5239 6.08357 18.5739 5.71817 18.5739 5.35277Z" stroke="#676767" stroke-width="2"/>
</svg>
