<svg width="48" height="52" viewBox="0 0 48 52" fill="none" xmlns="http://www.w3.org/2000/svg">
<path fill-rule="evenodd" clip-rule="evenodd" d="M22.6929 0.542377C22.8644 0.370451 23.0681 0.234047 23.2924 0.140977C23.5167 0.0479069 23.7572 0 24 0C24.2428 0 24.4833 0.0479069 24.7076 0.140977C24.9319 0.234047 25.1356 0.370451 25.3071 0.542377L47.4609 22.6962C47.6323 22.868 47.768 23.0718 47.8605 23.2961C47.953 23.5204 48.0004 23.7607 48 24.0033V49.8494C48 50.3391 47.8055 50.8087 47.4593 51.1549C47.1131 51.5011 46.6435 51.6956 46.1538 51.6956H29.5385C29.0488 51.6956 28.5793 51.5011 28.233 51.1549C27.8868 50.8087 27.6923 50.3391 27.6923 49.8494V35.0802H20.3077V49.8494C20.3077 50.3391 20.1132 50.8087 19.767 51.1549C19.4207 51.5011 18.9512 51.6956 18.4615 51.6956H1.84616C1.35653 51.6956 0.88695 51.5011 0.540729 51.1549C0.194508 50.8087 2.9446e-06 50.3391 2.9446e-06 49.8494V24.0033C-0.000430337 23.7607 0.0469568 23.5204 0.139455 23.2961C0.231954 23.0718 0.36775 22.868 0.53908 22.6962L22.6929 0.542377ZM3.69231 24.7676V48.0033H16.6154V33.2341C16.6154 32.7444 16.8099 32.2749 17.1561 31.9286C17.5023 31.5824 17.9719 31.3879 18.4615 31.3879H29.5385C30.0281 31.3879 30.4977 31.5824 30.8439 31.9286C31.1901 32.2749 31.3846 32.7444 31.3846 33.2341V48.0033H44.3077V24.7676L24 4.45991L3.69231 24.7676Z" fill="white"/>
</svg>
