<svg width="52" height="56" viewBox="0 0 52 56" fill="none" xmlns="http://www.w3.org/2000/svg">
<path d="M49.7164 17.0364L47.4705 13.1379C47.1911 12.6524 46.7303 12.2978 46.1895 12.152C45.6486 12.0062 45.072 12.0813 44.5865 12.3606L31.1701 20.1331C31.0868 20.1812 30.9923 20.2064 30.8961 20.2062C30.8 20.206 30.7056 20.1804 30.6225 20.1319C30.5394 20.0835 30.4707 20.0139 30.4232 19.9303C30.3756 19.8467 30.3511 19.752 30.3519 19.6559L30.3628 4.18176C30.3628 3.60312 30.133 3.04818 29.7238 2.63902C29.3147 2.22986 28.7597 2 28.1811 2H23.8176C23.2389 2 22.684 2.22986 22.2748 2.63902C21.8657 3.04818 21.6358 3.60312 21.6358 4.18176L21.6454 19.6681C21.6462 19.7643 21.6216 19.859 21.5741 19.9426C21.5266 20.0262 21.4578 20.0957 21.3748 20.1442C21.2917 20.1926 21.1973 20.2183 21.1011 20.2185C21.005 20.2187 20.9105 20.1935 20.8272 20.1454L7.41076 12.3729C6.92523 12.0936 6.34864 12.0185 5.80779 12.1643C5.26695 12.31 4.80615 12.6647 4.52675 13.1501L2.28227 17.05C2.1437 17.2897 2.05384 17.5545 2.01784 17.829C1.98185 18.1035 2.00043 18.3825 2.07252 18.6498C2.14461 18.9171 2.26879 19.1676 2.43794 19.3868C2.60708 19.606 2.81785 19.7897 3.05815 19.9272L16.4882 27.7106C16.5702 27.7588 16.6383 27.8275 16.6855 27.91C16.7328 27.9925 16.7576 28.086 16.7576 28.1811C16.7576 28.2762 16.7328 28.3696 16.6855 28.4521C16.6383 28.5347 16.5702 28.6034 16.4882 28.6515L3.05815 36.4349C2.57611 36.7158 2.22429 37.1754 2.07903 37.7141C1.93377 38.2528 2.0068 38.827 2.28227 39.3121L4.52811 43.2106C4.80751 43.6961 5.26831 44.0508 5.80916 44.1965C6.35 44.3423 6.9266 44.2672 7.41212 43.9879L20.8286 36.2154C20.9118 36.1673 21.0063 36.1421 21.1025 36.1423C21.1987 36.1425 21.2931 36.1682 21.3761 36.2166C21.4592 36.2651 21.528 36.3346 21.5755 36.4182C21.623 36.5018 21.6476 36.5965 21.6467 36.6927L21.6358 52.1804C21.6358 52.759 21.8657 53.314 22.2748 53.7231C22.684 54.1323 23.2389 54.3622 23.8176 54.3622H28.1811C28.7597 54.3622 29.3147 54.1323 29.7238 53.7231C30.133 53.314 30.3628 52.759 30.3628 52.1804L30.3533 36.6804C30.3524 36.5842 30.377 36.4895 30.4245 36.4059C30.472 36.3223 30.5408 36.2528 30.6239 36.2043C30.7069 36.1559 30.8013 36.1302 30.8975 36.13C30.9937 36.1298 31.0882 36.155 31.1714 36.2031L44.5879 43.9756C45.0734 44.255 45.65 44.33 46.1908 44.1842C46.7317 44.0385 47.1925 43.6839 47.4719 43.1984L49.7177 39.2999C49.8563 39.0601 49.9462 38.7954 49.9822 38.5209C50.0182 38.2463 49.9996 37.9674 49.9275 37.7001C49.8554 37.4327 49.7312 37.1823 49.5621 36.9631C49.3929 36.7439 49.1822 36.5602 48.9418 36.4227L35.5118 28.6392C35.4298 28.5911 35.3617 28.5224 35.3145 28.4399C35.2672 28.3573 35.2424 28.2639 35.2424 28.1688C35.2424 28.0737 35.2672 27.9803 35.3145 27.8977C35.3617 27.8152 35.4298 27.7465 35.5118 27.6984L48.9418 19.9149C49.4248 19.6346 49.7774 19.1746 49.9225 18.6353C50.0676 18.096 49.9935 17.5213 49.7164 17.0364V17.0364Z" stroke="white" stroke-width="3" stroke-linecap="round" stroke-linejoin="round"/>
</svg>
