<svg width="490" height="218" viewBox="0 0 490 218" fill="none" xmlns="http://www.w3.org/2000/svg">
<g clip-path="url(#clip0)">
<rect width="490" height="218" rx="35" fill="#FADCC6"/>
<g clip-path="url(#clip1)">
<path d="M407.181 50.8599H451.951C451.951 50.8599 447.995 43.6558 436.467 44.7044C425.464 45.7054 424.898 41.1569 419.308 40.5985C413.711 40.0402 409.047 44.3299 407.181 50.8599Z" fill="#E0E0E0"/>
<path d="M290.16 169.216C290.16 169.216 285.672 171.64 292.202 181.009C298.732 190.379 302.981 194.873 302.981 194.873C302.981 194.873 304.214 197.086 302.294 197.719C300.373 198.352 295.941 198.257 295.396 200.79C294.831 203.411 296.969 205.522 300.939 207.081C304.901 208.641 313.467 212.379 314.237 212.719C314.993 213.053 315.844 214.047 314.611 214.687C313.372 215.327 303.764 217.69 305.153 222.184C306.549 226.678 318.309 229.211 319.589 229.511C320.869 229.81 321.23 230.287 321.223 230.968C321.216 231.649 317.907 232.139 315.204 232.922C312.5 233.705 309.498 235.087 310.519 237.614C311.54 240.14 318.935 244.722 335.256 244.082L342.801 243.292L346.015 236.381C351.993 221.176 350.094 212.685 348.044 210.888C345.994 209.09 343.7 211.473 342.072 213.768C340.445 216.063 338.893 219.025 338.246 218.807C337.599 218.589 337.272 218.092 337.408 216.784C337.544 215.477 339.022 203.534 335.236 200.742C331.45 197.95 326.057 206.251 325.043 207.204C324.028 208.164 323.375 207.034 323.306 206.203C323.238 205.359 322.523 196.044 322.353 191.788C322.183 187.532 320.896 184.816 318.234 184.489C315.667 184.169 314.298 188.384 313.066 189.991C311.833 191.591 310.151 189.698 310.151 189.698C310.151 189.698 307.298 184.203 300.605 174.956C293.905 165.709 290.064 169.25 290.064 169.25" fill="#EBEBEB"/>
<path d="M343.441 245.015C338.545 238.206 330.054 225.956 322.707 215.47C315.36 204.991 308.708 195.512 303.846 188.676C301.415 185.265 299.447 182.507 298.085 180.587C297.411 179.64 296.887 178.898 296.519 178.388C296.349 178.142 296.213 177.952 296.118 177.809C296.029 177.679 295.988 177.604 295.988 177.604C295.988 177.604 296.043 177.666 296.138 177.788C296.24 177.925 296.376 178.108 296.56 178.353C296.935 178.857 297.473 179.593 298.16 180.526C299.549 182.419 301.538 185.163 303.982 188.574C308.878 195.383 315.558 204.848 322.898 215.327C330.245 225.806 338.715 238.069 343.57 244.906" fill="#E0E0E0"/>
<path d="M301.599 201.178C301.606 201.165 301.796 201.192 302.144 201.253C302.491 201.314 302.988 201.417 303.608 201.553C304.84 201.818 306.529 202.234 308.388 202.724C310.219 203.214 311.874 203.657 313.14 203.997C313.712 204.147 314.196 204.27 314.584 204.372C314.924 204.46 315.115 204.515 315.108 204.528C315.108 204.542 314.911 204.522 314.564 204.46C314.216 204.399 313.719 204.297 313.1 204.154C311.867 203.875 310.185 203.439 308.326 202.949C306.495 202.472 304.833 202.043 303.567 201.709C302.995 201.56 302.511 201.437 302.123 201.342C301.783 201.246 301.592 201.192 301.599 201.178Z" fill="#E0E0E0"/>
<path d="M315.551 203.976C315.49 203.963 316.191 200.436 317.117 196.105C318.043 191.768 318.847 188.268 318.915 188.281C318.976 188.295 318.281 191.822 317.349 196.153C316.422 200.49 315.619 203.99 315.551 203.976Z" fill="#E0E0E0"/>
<path d="M326.105 220.577C326.091 220.57 326.18 220.386 326.343 220.073C326.534 219.712 326.779 219.263 327.065 218.732C327.671 217.601 328.509 216.035 329.36 214.272C330.218 212.508 330.939 210.887 331.457 209.709C331.702 209.158 331.906 208.688 332.07 208.314C332.213 207.987 332.301 207.803 332.322 207.81C332.335 207.817 332.281 208.007 332.158 208.348C332.036 208.688 331.859 209.178 331.614 209.771C331.137 210.969 330.436 212.603 329.578 214.374C328.72 216.144 327.862 217.703 327.215 218.813C326.888 219.372 326.623 219.814 326.425 220.121C326.234 220.42 326.125 220.59 326.105 220.577Z" fill="#E0E0E0"/>
<path d="M400.113 135.388C392.004 126.298 392.787 113.184 395.851 101.949C396.361 100.076 396.627 98.0335 397.921 96.5831C399.214 95.1396 401.577 94.4995 403.082 95.6979C404.328 96.6921 404.553 98.4692 405.023 100.008C405.642 102.051 406.848 103.91 408.454 105.292C409.51 106.204 410.906 106.933 412.254 106.565C414.099 106.055 414.821 103.842 415.257 101.962C416.067 98.4556 416.871 94.9421 417.681 91.4354C418.117 89.5561 418.566 87.6291 419.574 85.9881C420.582 84.3403 422.263 82.9921 424.17 82.9104C426.076 82.8355 428.044 84.388 427.983 86.315C427.956 87.1184 427.615 87.8743 427.479 88.6709C427.35 89.4608 427.506 90.4141 428.194 90.809C428.895 91.2039 429.774 90.8498 430.462 90.4345C432.852 88.9978 434.744 86.8597 436.556 84.7216C438.36 82.5836 440.144 80.3774 442.398 78.7228C444.652 77.0682 447.471 76.006 450.201 76.4894C452.932 76.9729 455.403 79.3152 455.458 82.1206C455.512 84.9327 453.327 87.2546 451.141 89.0046C447.893 91.5988 444.27 93.7097 440.43 95.2621C439.736 95.5413 438.987 95.8477 438.598 96.4878C437.89 97.6453 438.789 99.1706 439.926 99.8787C441.22 100.675 442.772 100.893 444.196 101.411C445.619 101.928 447.055 102.956 447.28 104.468C447.593 106.572 445.51 108.206 443.617 109.153C439.824 111.046 435.711 112.278 431.524 112.775C430.019 112.952 428.46 113.054 427.118 113.763C425.77 114.471 424.701 116.003 425.062 117.487C425.423 118.971 427.05 119.809 428.562 119.877C430.073 119.952 431.558 119.475 433.063 119.278C435.875 118.917 439.17 119.884 440.301 122.505C441.043 124.228 440.655 126.298 439.688 127.919C438.721 129.539 437.25 130.779 435.739 131.888C430.448 135.763 424.218 138.418 417.735 139.079C411.239 139.732 405.554 138.977 400.113 135.388Z" fill="#F5F5F5"/>
<path d="M401.754 136.485C403.225 132.093 401.686 134.299 404.716 128.988C407.739 123.67 411.532 118.114 415.699 112.435C416.748 111.019 417.783 109.623 418.804 108.241C419.826 106.865 420.84 105.503 421.909 104.237C424.047 101.684 426.294 99.3957 428.494 97.2849C430.693 95.174 432.858 93.2539 434.894 91.4699C436.937 89.6927 438.871 88.0721 440.696 86.6694C444.338 83.8505 447.546 81.9303 449.799 80.6978C450.923 80.0782 451.815 79.6288 452.421 79.3292C452.714 79.1862 452.938 79.0773 453.115 78.9956C453.272 78.9207 453.354 78.8866 453.354 78.8934C453.354 78.9002 453.279 78.9479 453.129 79.0296C452.959 79.1181 452.734 79.2407 452.455 79.3973C451.863 79.7173 450.984 80.1872 449.867 80.8204C447.641 82.0869 444.468 84.0343 440.852 86.8669C439.041 88.2764 437.121 89.9038 435.092 91.6946C433.063 93.4854 430.911 95.4123 428.718 97.5232C426.533 99.634 424.299 101.922 422.175 104.462C421.113 105.728 420.105 107.076 419.083 108.452C418.062 109.827 417.034 111.23 415.985 112.639C411.818 118.311 408.025 123.847 405.002 129.145C401.965 134.435 403.491 132.195 401.993 136.56" fill="#E0E0E0"/>
<path d="M422.011 104.243C421.984 104.243 421.991 103.944 422.018 103.399C422.045 102.854 422.107 102.071 422.195 101.104C422.372 99.1703 422.706 96.508 423.094 93.5732C423.475 90.6385 423.775 87.9761 423.925 86.0423C424 85.0755 424.054 84.2924 424.088 83.7545C424.122 83.2098 424.149 82.9102 424.177 82.9102C424.204 82.9102 424.218 83.2098 424.224 83.7545C424.238 84.2992 424.218 85.0823 424.177 86.056C424.095 87.9966 423.836 90.6725 423.448 93.6141C423.067 96.508 422.713 99.1295 422.447 101.131C422.331 102.037 422.236 102.8 422.161 103.412C422.086 103.95 422.039 104.243 422.011 104.243Z" fill="#E0E0E0"/>
<path d="M447.253 105.449C447.246 105.476 446.892 105.428 446.259 105.333C445.625 105.245 444.713 105.102 443.576 104.972C441.309 104.686 438.156 104.4 434.663 104.244C431.17 104.087 428.01 104.08 425.716 104.141C424.572 104.162 423.646 104.21 423.006 104.23C422.366 104.257 422.011 104.264 422.005 104.237C422.005 104.21 422.352 104.162 422.992 104.087C423.632 104.019 424.558 103.937 425.702 103.883C427.997 103.753 431.17 103.719 434.67 103.876C438.169 104.039 441.329 104.366 443.596 104.713C444.733 104.877 445.646 105.054 446.272 105.19C446.912 105.34 447.26 105.428 447.253 105.449Z" fill="#E0E0E0"/>
<path d="M405.125 128.606C405.111 128.606 405.077 128.497 405.029 128.273C404.975 128.007 404.907 127.687 404.825 127.299C404.648 126.455 404.43 125.222 404.172 123.704C403.661 120.66 403.089 116.432 402.517 111.754C401.945 107.076 401.414 102.847 400.971 99.7969C400.753 98.3125 400.57 97.0937 400.433 96.1813C400.379 95.7863 400.331 95.4663 400.29 95.1939C400.263 94.9692 400.249 94.8467 400.263 94.8467C400.277 94.8467 400.311 94.9624 400.358 95.1803C400.413 95.4459 400.481 95.7659 400.563 96.154C400.74 96.9984 400.958 98.2308 401.216 99.7492C401.727 102.793 402.299 107.021 402.871 111.699C403.443 116.377 403.974 120.599 404.417 123.656C404.641 125.14 404.818 126.359 404.955 127.272C405.009 127.667 405.057 127.993 405.098 128.259C405.125 128.491 405.132 128.606 405.125 128.606Z" fill="#E0E0E0"/>
<path d="M439.695 125.862C439.695 125.876 439.572 125.896 439.347 125.917C439.075 125.944 438.741 125.971 438.34 126.005C437.414 126.08 436.161 126.182 434.636 126.305C431.51 126.557 427.193 126.959 422.427 127.408C417.66 127.857 413.337 128.218 410.204 128.409C408.638 128.504 407.372 128.565 406.493 128.593C406.092 128.6 405.751 128.613 405.486 128.62C405.254 128.62 405.132 128.613 405.132 128.606C405.132 128.593 405.254 128.572 405.479 128.552C405.751 128.525 406.085 128.497 406.487 128.463C407.413 128.388 408.666 128.286 410.191 128.164C413.316 127.912 417.633 127.51 422.4 127.061C427.166 126.611 431.49 126.25 434.622 126.06C436.188 125.964 437.455 125.903 438.333 125.876C438.741 125.869 439.068 125.855 439.341 125.849C439.572 125.849 439.695 125.855 439.695 125.862Z" fill="#E0E0E0"/>
<path d="M466.509 195.165C466.516 195.165 466.475 195.274 466.393 195.485C466.298 195.71 466.175 196.01 466.019 196.391C465.671 197.208 465.181 198.359 464.568 199.816C463.288 202.778 461.484 206.959 459.319 211.957L459.285 212.032L459.203 212.045C454.362 212.842 448.717 213.775 442.711 214.769C440.832 215.075 438.98 215.382 437.182 215.674L436.93 215.715L436.991 215.47C438.333 210.166 439.572 205.284 440.628 201.137L440.702 201.294C436.678 199.496 433.355 198.012 431.013 196.963C429.876 196.445 428.977 196.037 428.337 195.744C428.044 195.608 427.82 195.499 427.643 195.417C427.486 195.342 427.404 195.302 427.411 195.295C427.418 195.288 427.5 195.315 427.663 195.383C427.847 195.458 428.078 195.553 428.378 195.676C429.025 195.948 429.93 196.337 431.081 196.827C433.437 197.848 436.774 199.299 440.818 201.048L440.927 201.096L440.9 201.212C439.865 205.365 438.646 210.254 437.325 215.565L437.134 215.361C438.932 215.068 440.777 214.762 442.663 214.456C448.669 213.482 454.321 212.563 459.162 211.773L459.053 211.861C461.259 206.884 463.104 202.723 464.412 199.768C465.059 198.325 465.576 197.188 465.944 196.377C466.114 196.003 466.257 195.71 466.359 195.485C466.448 195.261 466.502 195.159 466.509 195.165Z" fill="#E0E0E0"/>
<path d="M439.123 213.713L438.673 214.905L439.395 215.947L438.129 215.885L437.359 216.893L437.026 215.667L435.827 215.252L436.889 214.558L436.917 213.284L437.911 214.081L439.123 213.713Z" fill="#E0E0E0"/>
<path d="M427.799 194.478L427.574 195.07L427.935 195.588L427.309 195.56L426.921 196.057L426.757 195.451L426.165 195.24L426.689 194.893L426.703 194.267L427.2 194.662L427.799 194.478Z" fill="#E0E0E0"/>
<path d="M459.782 211.208L459.557 211.801L459.918 212.318L459.291 212.284L458.903 212.788L458.74 212.182L458.147 211.971L458.672 211.624L458.685 210.99L459.182 211.385L459.782 211.208Z" fill="#E0E0E0"/>
<path d="M441.329 200.585L441.104 201.177L441.465 201.695L440.832 201.668L440.451 202.165L440.287 201.559L439.688 201.348L440.219 201L440.233 200.374L440.723 200.769L441.329 200.585Z" fill="#E0E0E0"/>
<path d="M467.278 194.573L467.054 195.166L467.415 195.683L466.781 195.649L466.4 196.153L466.23 195.547L465.637 195.336L466.169 194.989L466.182 194.355L466.672 194.75L467.278 194.573Z" fill="#E0E0E0"/>
<path d="M267.976 103.781H303.621C303.621 103.781 300.469 98.0476 291.297 98.8783C282.533 99.6749 282.091 96.0593 277.631 95.6099C273.171 95.1605 269.46 98.5787 267.976 103.781Z" fill="#F5F5F5"/>
<path d="M449.016 128.565H478.302C478.302 128.565 475.715 123.854 468.17 124.541C460.973 125.195 460.605 122.219 456.942 121.858C453.286 121.491 450.235 124.296 449.016 128.565Z" fill="#F5F5F5"/>
<path d="M390.533 186.375C391.99 175.399 384.269 166.342 374.627 160.902C364.985 155.461 353.798 153.637 343.148 150.613C333.105 147.76 323.116 143.593 315.673 136.267C308.231 128.94 303.771 117.93 306.447 107.832C307.121 105.299 308.32 102.752 310.492 101.288C312.671 99.8242 315.994 99.865 317.614 101.921C321.073 106.306 314.332 114.157 318.554 117.814C319.521 118.651 320.855 118.965 321.856 119.761C324.525 121.886 323.661 126.026 324.035 129.417C324.777 136.124 331.069 140.781 337.245 143.498C345.518 147.134 354.479 148.85 363.256 151.008C372.033 153.167 380.878 155.884 388.191 161.195C395.504 166.506 401.843 174.82 401.795 183.855C401.782 186.382 401.462 189.487 399.875 191.454C398.289 193.422 396.273 193.831 393.985 192.755C391.697 191.679 390.111 190.018 390.533 186.375Z" fill="#F4D962"/>
<g opacity="0.8">
<path opacity="0.8" d="M390.533 186.375C391.99 175.399 384.269 166.342 374.627 160.902C364.985 155.461 353.798 153.637 343.148 150.613C333.105 147.76 323.116 143.593 315.673 136.267C308.231 128.94 303.771 117.93 306.447 107.832C307.121 105.299 308.32 102.752 310.492 101.288C312.671 99.8242 315.994 99.865 317.614 101.921C321.073 106.306 314.332 114.157 318.554 117.814C319.521 118.651 320.855 118.965 321.856 119.761C324.525 121.886 323.661 126.026 324.035 129.417C324.777 136.124 331.069 140.781 337.245 143.498C345.518 147.134 354.479 148.85 363.256 151.008C372.033 153.167 380.878 155.884 388.191 161.195C395.504 166.506 401.843 174.82 401.795 183.855C401.782 186.382 401.462 189.487 399.875 191.454C398.289 193.422 396.273 193.831 393.985 192.755C391.697 191.679 390.111 190.018 390.533 186.375Z" fill="white"/>
</g>
<path d="M343.89 99.1369C343.543 95.0718 346.573 91.5311 350.019 89.6313C353.464 87.7316 357.407 86.9622 360.961 85.2803C369.779 81.0995 375.383 71.2671 375.798 61.176C376.213 51.0849 371.842 41.0074 364.999 33.5923C362.221 30.5827 358.796 27.4301 358.755 23.3173C358.714 19.0276 362.867 15.6503 367.021 15.7048C371.175 15.7592 375.001 18.5373 377.487 22.0372C379.972 25.5371 381.347 29.7043 382.689 33.7898C381.736 32.0807 383.697 29.963 385.583 30.1401C387.469 30.3239 388.96 31.8968 390.124 33.4629C395.129 40.1971 397.601 48.8515 396.913 57.1859C396.225 65.5202 392.371 73.4529 386.359 78.941C379.638 85.0624 370.752 87.9359 362.139 90.6527C356.14 92.5456 350.148 94.4386 344.149 96.3315" fill="#F4D962"/>
<g opacity="0.8">
<path opacity="0.8" d="M343.89 99.1369C343.543 95.0718 346.573 91.5311 350.019 89.6313C353.464 87.7316 357.407 86.9622 360.961 85.2803C369.779 81.0995 375.383 71.2671 375.798 61.176C376.213 51.0849 371.842 41.0074 364.999 33.5923C362.221 30.5827 358.796 27.4301 358.755 23.3173C358.714 19.0276 362.867 15.6503 367.021 15.7048C371.175 15.7592 375.001 18.5373 377.487 22.0372C379.972 25.5371 381.347 29.7043 382.689 33.7898C381.736 32.0807 383.697 29.963 385.583 30.1401C387.469 30.3239 388.96 31.8968 390.124 33.4629C395.129 40.1971 397.601 48.8515 396.913 57.1859C396.225 65.5202 392.371 73.4529 386.359 78.941C379.638 85.0624 370.752 87.9359 362.139 90.6527C356.14 92.5456 350.148 94.4386 344.149 96.3315" fill="white"/>
</g>
<path d="M338.886 13.7161C337.102 14.4651 336.121 16.7325 336.795 18.5506C337.469 20.3686 339.689 21.4444 341.534 20.852C343.38 20.2596 344.551 18.0875 344.04 16.215C343.53 14.3425 341.412 13.0828 339.519 13.5118" fill="#F4D962"/>
<g opacity="0.8">
<path opacity="0.8" d="M338.886 13.7161C337.102 14.4651 336.121 16.7325 336.795 18.5506C337.469 20.3686 339.689 21.4444 341.534 20.852C343.38 20.2596 344.551 18.0875 344.04 16.215C343.53 14.3425 341.412 13.0828 339.519 13.5118" fill="white"/>
</g>
<path d="M361.063 276.078C358.857 271.509 360.777 265.81 364.291 262.147C367.804 258.483 372.598 256.393 377.248 254.35C387.496 249.836 398.35 244.457 403.566 234.543C405.322 231.199 406.323 227.522 407.311 223.873C409.224 216.819 411.015 208.804 407.168 202.587C406.058 200.797 404.396 199.21 402.326 198.842C399.97 198.427 397.546 199.721 396.089 201.627C394.639 203.527 394.012 205.944 393.713 208.314C393.141 212.835 393.617 217.431 393.141 221.959C392.664 226.487 391.01 231.227 387.271 233.835C382.736 237.001 376.261 236.286 371.849 239.629C368.288 242.325 366.933 247.01 364.154 250.503C361.812 253.438 358.544 255.447 355.541 257.7C352.545 259.961 349.644 262.712 348.623 266.328C347.567 270.079 348.888 274.396 351.871 276.909C354.853 279.422 359.327 280 362.847 278.325" fill="#F4D962"/>
<g opacity="0.8">
<path opacity="0.8" d="M361.063 276.078C358.857 271.509 360.777 265.81 364.291 262.147C367.804 258.483 372.598 256.393 377.248 254.35C387.496 249.836 398.35 244.457 403.566 234.543C405.322 231.199 406.323 227.522 407.311 223.873C409.224 216.819 411.015 208.804 407.168 202.587C406.058 200.797 404.396 199.21 402.326 198.842C399.97 198.427 397.546 199.721 396.089 201.627C394.639 203.527 394.012 205.944 393.713 208.314C393.141 212.835 393.617 217.431 393.141 221.959C392.664 226.487 391.01 231.227 387.271 233.835C382.736 237.001 376.261 236.286 371.849 239.629C368.288 242.325 366.933 247.01 364.154 250.503C361.812 253.438 358.544 255.447 355.541 257.7C352.545 259.961 349.644 262.712 348.623 266.328C347.567 270.079 348.888 274.396 351.871 276.909C354.853 279.422 359.327 280 362.847 278.325" fill="white"/>
</g>
<path d="M292.883 45.263C289.275 42.5871 287.068 38.1067 287.15 33.6126C287.232 29.1186 289.595 24.7267 293.292 22.1733C295.382 20.7366 297.868 19.8514 299.727 18.1219C301.381 16.583 302.457 14.4518 304.309 13.1581C306.611 11.5511 309.947 11.6192 312.18 13.3283C314.414 15.0306 315.36 18.2308 314.414 20.8796C313.563 23.2696 311.418 25.0127 310.519 27.3891C309.552 29.9425 310.179 32.8092 309.818 35.5124C309.375 38.842 307.353 41.9266 304.479 43.6561C301.606 45.3856 297.936 45.7329 294.783 44.5617" fill="#F4D962"/>
<g opacity="0.8">
<path opacity="0.8" d="M292.883 45.263C289.275 42.5871 287.068 38.1067 287.15 33.6126C287.232 29.1186 289.595 24.7267 293.292 22.1733C295.382 20.7366 297.868 19.8514 299.727 18.1219C301.381 16.583 302.457 14.4518 304.309 13.1581C306.611 11.5511 309.947 11.6192 312.18 13.3283C314.414 15.0306 315.36 18.2308 314.414 20.8796C313.563 23.2696 311.418 25.0127 310.519 27.3891C309.552 29.9425 310.179 32.8092 309.818 35.5124C309.375 38.842 307.353 41.9266 304.479 43.6561C301.606 45.3856 297.936 45.7329 294.783 44.5617" fill="white"/>
</g>
<path d="M297.827 51.6021H296.833C294.797 51.6021 293.149 49.9543 293.149 47.9184V30.6641H301.517V47.9184C301.517 49.9475 299.863 51.6021 297.827 51.6021Z" fill="#F4D962"/>
<path d="M293.149 30.6641L297.33 22.9902L301.517 30.6641H293.149Z" fill="#FFBE9D"/>
<path d="M295.675 26.0271C295.675 26.0271 296.948 27.9405 298.991 26.0271L297.337 22.9902L295.675 26.0271Z" fill="#F4D962"/>
<path d="M301.633 47.0745C301.633 47.1699 299.727 47.2448 297.377 47.2448C295.028 47.2448 293.122 47.1699 293.122 47.0745C293.122 46.9792 295.028 46.9043 297.377 46.9043C299.727 46.9043 301.633 46.9792 301.633 47.0745Z" fill="#263238"/>
<path d="M301.545 45.7943C301.545 45.8896 299.679 45.9645 297.377 45.9645C295.076 45.9645 293.21 45.8896 293.21 45.7943C293.21 45.6989 295.076 45.624 297.377 45.624C299.679 45.624 301.545 45.6989 301.545 45.7943Z" fill="#263238"/>
<path d="M295.607 30.7871C295.702 30.7871 295.777 34.1304 295.777 38.2499C295.777 42.3694 295.702 45.7127 295.607 45.7127C295.512 45.7127 295.437 42.3762 295.437 38.2499C295.437 34.1304 295.512 30.7871 295.607 30.7871Z" fill="#FAFAFA"/>
<path d="M298.991 30.7871C299.086 30.7871 299.161 34.1304 299.161 38.2499C299.161 42.3694 299.086 45.7127 298.991 45.7127C298.896 45.7127 298.821 42.3762 298.821 38.2499C298.821 34.1304 298.896 30.7871 298.991 30.7871Z" fill="#FAFAFA"/>
<path d="M422.005 127.517C420.214 127.469 418.321 127.531 416.373 127.769C404.641 129.226 395.898 139.304 395.919 151.124C395.926 154.57 396.293 158.417 397.376 162.257C400.651 173.873 401.659 184.108 401.284 189.092L412.247 194.982C412.247 194.982 417.32 187.689 422.222 184.55C427.125 181.404 443.44 173.002 449.902 164.354C454.069 158.784 454.865 147.352 444.938 137.349C438.871 131.242 430.611 127.755 422.005 127.517Z" fill="#F4D962"/>
<path d="M396.096 201.777L405.996 207.123L399.548 215.314L392.95 212.311L396.096 201.777Z" fill="#455A64"/>
<path d="M396.573 202.104C396.484 202.07 397.465 199.136 398.765 195.54C400.066 191.945 401.189 189.058 401.278 189.092C401.366 189.126 400.386 192.061 399.085 195.656C397.791 199.251 396.661 202.138 396.573 202.104Z" fill="#263238"/>
<path d="M405.37 206.721C405.288 206.673 406.841 203.895 408.836 200.518C410.831 197.141 412.513 194.444 412.594 194.492C412.676 194.539 411.124 197.318 409.129 200.695C407.134 204.072 405.452 206.769 405.37 206.721Z" fill="#263238"/>
<g opacity="0.4">
<path opacity="0.4" d="M425.307 127.824C424.864 127.851 419.417 134.224 417.007 138.541C408.897 153.065 408.536 167.194 406.282 183.672C405.962 186.028 404.791 191.101 404.812 190.985C406.01 191.925 410.041 193.797 410.041 193.797C410.041 193.797 413.84 189.208 415.352 186.9C421.405 177.653 427.969 170.449 433.151 160.691C438.333 150.934 443.317 142.279 438.524 132.325C438.524 132.331 430.223 127.551 425.307 127.824Z" fill="black"/>
</g>
<path d="M449.942 165.819C449.936 165.819 449.888 165.716 449.799 165.505C449.711 165.301 449.602 164.981 449.418 164.586C449.064 163.796 448.478 162.652 447.505 161.365C446.531 160.092 445.169 158.649 443.297 157.443C441.458 156.204 439.082 155.224 436.399 154.89L436.331 154.883L436.29 154.829C435.03 153.133 433.587 151.376 431.864 149.749C430.148 148.128 428.14 146.637 425.825 145.589C423.516 144.56 421.031 144.104 418.689 144.227C416.346 144.343 414.147 145.092 412.445 146.31L412.349 146.378L412.261 146.297C410.225 144.506 407.787 143.58 405.588 143.335C403.375 143.083 401.414 143.485 399.916 144.057C398.411 144.629 397.342 145.364 396.661 145.888C396.321 146.154 396.062 146.372 395.898 146.528C395.728 146.678 395.64 146.753 395.633 146.746C395.626 146.739 395.708 146.651 395.864 146.487C396.021 146.324 396.266 146.092 396.6 145.807C397.274 145.248 398.329 144.486 399.855 143.88C401.366 143.274 403.361 142.838 405.622 143.076C407.869 143.308 410.368 144.234 412.465 146.065L412.274 146.058C414.018 144.799 416.278 144.023 418.682 143.893C421.079 143.757 423.618 144.22 425.974 145.275C428.33 146.338 430.366 147.856 432.103 149.504C433.839 151.152 435.289 152.929 436.542 154.638L436.44 154.577C439.184 154.931 441.588 155.952 443.44 157.225C445.326 158.471 446.688 159.949 447.655 161.25C448.615 162.564 449.18 163.728 449.513 164.538C449.684 164.94 449.772 165.267 449.847 165.478C449.915 165.703 449.949 165.812 449.942 165.819Z" fill="#263238"/>
<path d="M429.563 180.288C429.495 180.308 429.508 179.3 428.616 177.905C428.167 177.23 427.493 176.461 426.512 175.882C425.552 175.29 424.272 174.888 422.883 175.024L422.747 175.038L422.726 174.902C422.509 173.492 421.923 171.994 420.929 170.666C419.941 169.345 418.552 168.168 416.864 167.507C415.475 166.955 413.997 166.758 412.615 166.853C411.226 166.955 409.925 167.35 408.829 167.922L408.727 167.977L408.645 167.888C407.549 166.717 406.133 166.057 404.839 165.825C403.538 165.56 402.354 165.696 401.427 165.934C399.555 166.445 398.758 167.35 398.717 167.276C398.711 167.269 398.758 167.221 398.86 167.126C398.963 167.037 399.106 166.894 399.323 166.738C399.752 166.431 400.427 166.029 401.373 165.75C402.313 165.478 403.531 165.321 404.88 165.573C406.221 165.791 407.705 166.452 408.863 167.677L408.679 167.643C409.809 167.037 411.151 166.622 412.588 166.513C414.018 166.411 415.55 166.608 416.986 167.18C418.743 167.861 420.173 169.087 421.188 170.455C422.209 171.831 422.801 173.383 423.012 174.84L422.856 174.718C424.32 174.589 425.654 175.031 426.635 175.664C427.643 176.284 428.317 177.087 428.759 177.796C429.195 178.511 429.393 179.151 429.488 179.586C429.536 179.804 429.542 179.975 429.556 180.09C429.57 180.226 429.576 180.288 429.563 180.288Z" fill="#263238"/>
<path d="M404.083 209.703C404.056 209.724 403.974 209.567 403.722 209.465C403.47 209.356 403.055 209.342 402.565 209.499C402.313 209.567 402.027 209.655 401.686 209.662C401.346 209.669 400.971 209.506 400.706 209.233C400.181 208.689 399.977 207.892 399.487 207.347C399.242 207.082 398.915 206.939 398.574 206.966C398.234 206.979 397.887 207.095 397.539 207.17C397.199 207.252 396.838 207.306 396.505 207.225C396.171 207.156 395.905 206.993 395.694 206.809C395.272 206.442 395.088 206.006 395.041 205.706C394.993 205.407 395.041 205.236 395.054 205.236C395.081 205.236 395.081 205.4 395.17 205.672C395.252 205.938 395.456 206.312 395.844 206.619C396.041 206.768 396.28 206.898 396.559 206.945C396.831 207 397.138 206.952 397.465 206.864C397.791 206.782 398.146 206.653 398.561 206.625C398.976 206.591 399.439 206.782 399.732 207.109C400.311 207.763 400.488 208.546 400.93 209.009C401.148 209.24 401.414 209.369 401.693 209.376C401.972 209.39 402.245 209.315 402.503 209.267C403.021 209.131 403.504 209.179 403.777 209.349C404.056 209.512 404.097 209.703 404.083 209.703Z" fill="#263238"/>
<path d="M405.22 208.116C405.179 208.198 403.014 207.129 400.392 205.733C397.771 204.33 395.674 203.132 395.721 203.05C395.762 202.969 397.928 204.038 400.549 205.433C403.171 206.829 405.261 208.035 405.22 208.116Z" fill="#263238"/>
<path d="M403.252 210.608C403.259 210.636 403.116 210.676 402.878 210.785C402.755 210.84 402.619 210.921 402.428 210.996C402.238 211.078 401.993 211.105 401.747 211.085C401.25 211.051 400.644 210.894 400.113 210.458C399.855 210.247 399.63 209.934 399.494 209.601C399.351 209.281 399.235 208.947 399.017 208.709C398.568 208.225 397.832 208.171 397.226 208.191C396.6 208.211 395.987 208.232 395.504 208.028C395.027 207.83 394.741 207.49 394.632 207.231C394.523 206.965 394.557 206.802 394.577 206.802C394.605 206.795 394.618 206.952 394.748 207.17C394.877 207.388 395.156 207.653 395.585 207.803C396.014 207.953 396.573 207.919 397.213 207.878C397.832 207.844 398.67 207.857 399.269 208.477C399.548 208.79 399.664 209.158 399.8 209.464C399.929 209.778 400.1 210.023 400.324 210.22C400.774 210.615 401.319 210.785 401.775 210.847C402.231 210.928 402.565 210.738 402.837 210.663C403.096 210.588 403.245 210.595 403.252 210.608Z" fill="#263238"/>
<path d="M328.495 147.019L345.62 144.479L337.435 132.883L333.044 133.142C330.088 133.319 327.487 135.143 326.316 137.86C325.697 139.304 325.519 140.904 325.819 142.443L328.495 147.019Z" fill="#F4D962"/>
<path opacity="0.4" d="M328.495 147.019L345.62 144.479L337.435 132.883L333.044 133.142C330.088 133.319 327.487 135.143 326.316 137.86C325.697 139.304 325.519 140.904 325.819 142.443L328.495 147.019Z" fill="black"/>
<path d="M402.04 165.989C402.217 166.479 402.408 167.058 402.606 167.752C402.776 168.352 402.83 168.971 402.789 169.584C402.742 170.333 402.633 171.327 402.401 171.851C402.122 172.498 402.776 173.152 403.327 172.832C403.879 172.505 404.703 170.735 404.648 168.46C404.601 166.179 406.923 168.91 407.787 169.89C408.652 170.871 411.471 173.778 411.982 173.751C412.731 173.71 412.826 172.9 411.941 171.94C411.042 170.966 408.598 167.916 409.135 167.487C409.667 167.065 414.004 172.11 414.004 172.11C414.004 172.11 414.753 173.343 415.393 172.859C416.551 171.994 411.546 166.969 411.056 166.499C410.715 166.173 411.287 165.682 411.634 166.05C411.989 166.431 415.842 171.191 417.027 170.319C417.933 169.652 412.949 166.145 412.697 164.715C412.445 163.286 416.21 167.759 417.048 167.092C417.361 166.84 417.558 166.615 415.032 164.355C413.807 163.258 409.135 159.99 409.135 159.99L395.081 119.748L384.228 125.965L402.04 165.989Z" fill="#FFBE9D"/>
<path d="M318.384 89.8894L302.682 71.1507C302.477 70.5039 302.232 69.8774 301.912 69.285C301.129 67.8211 299.829 66.5478 298.208 66.1937C297.214 65.9758 296.07 66.0779 295.294 65.4243C294.947 65.1315 294.708 64.7161 294.347 64.4438C293.98 64.1714 293.374 64.1169 293.135 64.5118C292.972 64.791 293.074 65.1451 293.203 65.4447C293.789 66.8269 294.735 68.0526 295.927 68.965C294.456 69.4144 292.352 70.0885 292.352 70.0885C292.352 70.0885 289.029 66.4865 287.334 66.5001C285.638 66.5137 288.709 69.714 288.709 69.714C288.709 69.714 285.986 67.1946 285.141 67.9096C284.297 68.6177 286.462 70.4834 286.462 70.4834C285.775 70.1157 285.026 69.7344 284.256 69.8638C283.487 69.9932 282.826 70.8988 283.242 71.5593C283.398 71.8112 283.671 71.9678 283.936 72.1108C285.332 72.8871 286.721 73.6633 288.117 74.4395C288.818 74.8277 289.554 75.2294 290.35 75.2566C292.468 75.3247 294.082 74.0106 296.206 74.065C296.206 74.065 308.047 98.9932 309.246 100.28C310.444 101.567 336.462 103.317 336.462 103.317L351.517 90.3456L318.384 89.8894Z" fill="#FFBE9D"/>
<path d="M375.553 227.38L357.366 215.137L363.385 156.041L346.158 145.984L330.408 142.334C330.408 142.334 323.831 156.02 320.903 164.784C314.679 183.42 310.315 190.093 311.309 203.602C311.622 207.879 327.412 218.569 337.381 224.513C337.517 225.875 337.694 227.067 337.912 228.054C341.317 243.456 351.714 263.931 351.714 263.931L367.518 256.584L362.418 239.119L367.729 242.217L375.553 227.38ZM336.462 189.276L338.586 179.805C338.137 185.831 337.728 192.109 337.435 198.135C336.414 195.35 336.06 192.252 336.462 189.276Z" fill="#263238"/>
<path d="M351.714 263.925C351.707 263.925 351.666 263.843 351.592 263.673C351.51 263.489 351.401 263.244 351.265 262.931C350.979 262.256 350.57 261.29 350.046 260.05C348.997 257.545 347.492 253.909 345.688 249.394C343.89 244.88 341.746 239.5 339.594 233.44C339.056 231.922 338.532 230.363 338.035 228.749C337.817 227.932 337.538 227.128 337.395 226.263C337.354 226.052 337.306 225.835 337.272 225.623L337.197 224.977C337.149 224.548 337.102 224.112 337.054 223.676C336.87 221.933 336.714 220.163 336.605 218.358C336.55 217.459 336.496 216.547 336.462 215.628C336.428 214.715 336.387 213.782 336.441 212.856C336.707 205.428 337.333 198.394 337.844 191.986C338.382 185.586 338.859 179.818 339.267 174.97C339.662 170.129 339.934 166.207 340.091 163.49C340.173 162.135 340.22 161.08 340.254 160.365C340.275 160.018 340.288 159.752 340.295 159.555C340.309 159.371 340.316 159.275 340.322 159.275C340.329 159.275 340.329 159.371 340.329 159.555C340.329 159.752 340.322 160.024 340.316 160.372C340.309 161.087 340.282 162.142 340.214 163.504C340.098 166.221 339.859 170.15 339.499 174.998C339.11 179.846 338.654 185.613 338.15 192.02C337.653 198.428 337.04 205.475 336.775 212.877C336.72 213.803 336.761 214.715 336.795 215.628C336.829 216.54 336.877 217.446 336.938 218.344C337.054 220.142 337.204 221.912 337.381 223.649C337.429 224.085 337.476 224.514 337.524 224.943L337.599 225.583C337.633 225.794 337.681 225.998 337.721 226.209C337.858 227.04 338.13 227.85 338.348 228.66C338.838 230.267 339.356 231.827 339.894 233.338C342.032 239.391 344.149 244.777 345.92 249.306C347.71 253.806 349.168 257.456 350.182 259.996C350.679 261.242 351.074 262.222 351.346 262.903C351.469 263.223 351.571 263.475 351.646 263.659C351.694 263.836 351.721 263.925 351.714 263.925Z" fill="#455A64"/>
<path d="M339.56 157.287C339.546 157.307 339.403 157.185 339.144 156.953C338.906 156.701 338.62 156.286 338.375 155.721C337.885 154.584 337.64 152.881 337.599 151.029C337.565 149.171 337.701 147.495 337.824 146.297C337.946 145.092 338.048 144.35 338.096 144.356C338.144 144.356 338.123 145.112 338.062 146.318C338.001 147.523 337.905 149.191 337.939 151.029C337.973 152.861 338.184 154.522 338.6 155.639C338.804 156.198 339.049 156.613 339.247 156.878C339.465 157.117 339.573 157.267 339.56 157.287Z" fill="#455A64"/>
<path d="M332.758 143.219C332.792 143.212 332.955 143.838 332.894 144.873C332.839 145.895 332.485 147.338 331.593 148.659C330.694 149.98 329.482 150.831 328.55 151.26C327.61 151.696 326.97 151.771 326.963 151.737C326.949 151.683 327.562 151.519 328.441 151.042C329.319 150.573 330.456 149.728 331.314 148.469C332.172 147.209 332.546 145.84 332.662 144.853C332.778 143.852 332.703 143.226 332.758 143.219Z" fill="#455A64"/>
<path d="M361.015 177.578C361.022 177.578 361.022 177.639 361.009 177.755C360.995 177.891 360.981 178.068 360.968 178.279C360.92 178.763 360.852 179.444 360.763 180.295C360.573 182.072 360.294 184.598 359.953 187.71C359.245 193.988 358.265 202.622 357.182 212.155C356.767 216.928 357.182 221.524 358.081 225.569C358.523 227.598 359.109 229.484 359.728 231.227C360.341 232.97 360.913 234.598 361.431 236.089C362.459 239.044 363.29 241.448 363.875 243.136C364.148 243.953 364.365 244.593 364.522 245.056C364.59 245.261 364.638 245.424 364.686 245.56C364.72 245.676 364.733 245.731 364.726 245.737C364.72 245.737 364.692 245.683 364.651 245.574C364.604 245.445 364.536 245.281 364.461 245.084C364.291 244.627 364.052 243.987 363.753 243.184C363.14 241.502 362.275 239.112 361.206 236.171C360.675 234.686 360.089 233.066 359.463 231.322C358.83 229.579 358.23 227.68 357.774 225.644C356.855 221.572 356.426 216.942 356.848 212.128C357.91 202.568 358.966 193.94 359.715 187.683C360.096 184.578 360.409 182.052 360.627 180.281C360.743 179.43 360.832 178.756 360.893 178.273C360.927 178.062 360.947 177.885 360.968 177.748C361.002 177.639 361.015 177.578 361.015 177.578Z" fill="#455A64"/>
<path d="M330.408 142.218L333.2 135.096L339.56 144.581L331.076 142.463" fill="#FFBE9D"/>
<path d="M397.015 120.796L389.464 103.862C388.558 101.138 386.87 100.716 385.447 99.1365L366.524 88.4666C352.736 82.815 345.225 101.765 345.225 101.765L332.689 130.356C317.948 135.245 328.386 146.562 328.386 146.562C328.386 146.562 324.376 139.589 328.318 137.077C332.444 134.442 337.027 141.38 341.426 147.971C346.621 155.747 363.494 160.8 363.494 160.8C365.469 158.716 364.917 151.437 366.463 147.529C366.953 146.29 378.637 119.223 378.637 119.223L383.165 130.2C383.165 130.2 388.974 123.391 391.786 122.308C394.591 121.225 397.015 120.796 397.015 120.796Z" fill="#F4D962"/>
<path d="M363.487 132.828C363.501 132.849 363.296 132.999 362.915 133.23C362.527 133.462 361.948 133.761 361.192 134.047C359.694 134.626 357.427 135.068 354.976 134.694C352.518 134.313 350.495 133.203 349.242 132.202C348.609 131.705 348.146 131.242 347.847 130.908C347.547 130.568 347.404 130.37 347.424 130.357C347.472 130.309 348.105 131.085 349.392 132.018C350.659 132.951 352.647 133.999 355.037 134.367C357.427 134.735 359.633 134.34 361.124 133.829C362.616 133.312 363.453 132.774 363.487 132.828Z" fill="#263238"/>
<path d="M332.124 105.973L343.802 107.076L362.486 87.3296L351.496 86.9551L331.927 88.8889C331.927 88.8821 333.663 97.0394 332.124 105.973Z" fill="#F4D962"/>
<path d="M348.344 95.5686C348.357 95.5755 348.303 95.698 348.201 95.9295C348.078 96.1951 347.921 96.5287 347.731 96.9373C347.302 97.8497 346.716 99.1026 345.994 100.635C344.544 103.767 342.617 108.125 340.527 112.959C338.436 117.794 336.537 122.172 335.1 125.311C334.385 126.884 333.793 128.15 333.364 129.015C333.159 129.424 332.996 129.75 332.866 130.009C332.751 130.234 332.683 130.35 332.676 130.35C332.662 130.343 332.71 130.22 332.805 129.982C332.921 129.716 333.064 129.376 333.241 128.961C333.643 128.035 334.201 126.768 334.875 125.216C336.257 122.008 338.137 117.651 340.207 112.83C342.297 107.995 344.258 103.644 345.77 100.539C346.519 98.9868 347.145 97.7339 347.601 96.8828C347.812 96.4811 347.99 96.161 348.126 95.9023C348.262 95.6776 348.33 95.5618 348.344 95.5686Z" fill="#263238"/>
<path d="M383.989 101.316C384.023 101.37 383.295 101.751 382.307 102.589C381.81 103.004 381.273 103.563 380.728 104.223C380.203 104.897 379.686 105.687 379.243 106.572C378.821 107.464 378.522 108.356 378.317 109.187C378.133 110.024 378.031 110.787 378.011 111.434C377.963 112.728 378.113 113.531 378.052 113.545C378.031 113.552 377.977 113.354 377.909 112.986C377.868 112.803 377.834 112.585 377.82 112.319C377.8 112.06 377.759 111.761 377.773 111.427C377.759 110.767 377.841 109.977 378.011 109.112C378.202 108.254 378.501 107.335 378.937 106.416C379.386 105.503 379.924 104.7 380.483 104.019C381.055 103.352 381.62 102.8 382.151 102.398C382.403 102.18 382.662 102.031 382.879 101.881C383.097 101.731 383.295 101.622 383.458 101.54C383.792 101.377 383.976 101.295 383.989 101.316Z" fill="#263238"/>
<path d="M387.251 74.1884L376.295 94.6702C374.504 98.0135 370.439 99.4025 366.973 97.8569C363.16 96.1546 361.587 91.5789 363.535 87.8883C364.57 85.9341 365.428 84.3408 365.428 84.3408C365.428 84.3408 360.661 81.2562 362.895 76.1086C364.883 71.5192 372.182 58.5546 373.728 55.8174L382.961 59.9505C388.15 62.6401 390.09 69.0815 387.251 74.1884Z" fill="#FFBE9D"/>
<path d="M365.455 84.2588C365.455 84.2588 368.574 85.9679 372.979 85.3482C372.979 85.3482 369.752 88.3238 364.849 85.5798L365.455 84.2588Z" fill="#EB996E"/>
<path d="M368.975 67.8897C368.791 68.271 368.955 68.7408 369.35 68.9451C369.745 69.1494 370.215 69.0064 370.398 68.6251C370.582 68.2438 370.419 67.7739 370.024 67.5697C369.629 67.3654 369.159 67.5084 368.975 67.8897Z" fill="#263238"/>
<path d="M369.017 67.2364C369.065 67.3726 369.8 67.2092 370.59 67.5633C371.38 67.9037 371.775 68.571 371.904 68.5097C371.965 68.4893 371.952 68.2714 371.781 67.9786C371.618 67.6858 371.271 67.3181 370.78 67.1002C370.29 66.8823 369.793 66.8823 369.48 66.9572C369.146 67.039 368.99 67.1751 369.017 67.2364Z" fill="#263238"/>
<path d="M376.329 71.5055C376.145 71.8869 376.309 72.3567 376.704 72.561C377.099 72.7652 377.568 72.6222 377.752 72.2409C377.936 71.8596 377.773 71.3898 377.378 71.1855C376.99 70.9812 376.52 71.131 376.329 71.5055Z" fill="#263238"/>
<path d="M376.683 70.8448C376.731 70.981 377.466 70.8176 378.256 71.1717C379.046 71.5121 379.441 72.1794 379.57 72.1181C379.632 72.0909 379.618 71.8798 379.448 71.587C379.284 71.2942 378.937 70.9265 378.447 70.7086C377.957 70.4907 377.459 70.4907 377.146 70.5656C376.813 70.6474 376.656 70.7767 376.683 70.8448Z" fill="#263238"/>
<path d="M371.215 75.4005C371.236 75.3596 370.786 75.0532 370.044 74.597C369.854 74.4881 369.683 74.3587 369.711 74.2089C369.731 74.0455 369.908 73.8616 370.112 73.671C370.521 73.2692 370.943 72.8471 371.392 72.4045C373.19 70.5933 374.593 69.0748 374.518 68.9999C374.443 68.925 372.925 70.3345 371.127 72.1457C370.691 72.5951 370.269 73.0241 369.867 73.4327C369.69 73.6301 369.445 73.8276 369.411 74.1749C369.397 74.3519 369.5 74.5221 369.608 74.6174C369.717 74.7128 369.833 74.7672 369.929 74.8149C370.698 75.2166 371.195 75.4413 371.215 75.4005Z" fill="#263238"/>
<path d="M373.285 76.9804C373.163 76.9123 372.775 77.7703 371.774 78.0494C370.773 78.3286 369.908 77.8247 369.847 77.9473C369.813 77.995 369.976 78.206 370.357 78.3831C370.725 78.5669 371.331 78.6895 371.944 78.5193C372.557 78.349 372.972 77.9337 373.156 77.6C373.347 77.2528 373.347 77.0008 373.285 76.9804Z" fill="#263238"/>
<path d="M377.854 67.6715C377.834 67.9234 378.665 68.1686 379.543 68.6929C380.428 69.1967 381.048 69.8028 381.259 69.6666C381.354 69.5985 381.313 69.3397 381.109 68.9993C380.905 68.6588 380.517 68.2503 379.992 67.9371C379.468 67.6306 378.917 67.4877 378.522 67.474C378.113 67.4604 377.868 67.5489 377.854 67.6715Z" fill="#263238"/>
<path d="M370.323 65.0913C370.385 65.3297 371.004 65.3909 371.665 65.6701C372.332 65.9289 372.816 66.3306 373.027 66.2012C373.122 66.1331 373.115 65.9152 372.952 65.6429C372.788 65.3705 372.455 65.0505 371.998 64.8666C371.542 64.6828 371.086 64.6692 370.773 64.7509C370.46 64.8258 370.303 64.9756 370.323 65.0913Z" fill="#263238"/>
<path d="M383.806 77.2598C383.908 77.2598 387.789 77.7909 386.107 81.2431C384.432 84.6953 381.313 82.2985 381.354 82.1964C381.402 82.0942 383.806 77.2598 383.806 77.2598Z" fill="#FFBE9D"/>
<path d="M383.05 81.4001C383.07 81.3932 383.091 81.4681 383.166 81.5703C383.24 81.6656 383.397 81.7746 383.608 81.795C384.037 81.8358 384.623 81.4069 384.943 80.794C385.106 80.4876 385.181 80.154 385.195 79.8544C385.215 79.548 385.133 79.296 384.97 79.1735C384.807 79.0441 384.623 79.0918 384.534 79.1667C384.439 79.2416 384.432 79.3233 384.412 79.3165C384.398 79.3233 384.364 79.2211 384.459 79.0918C384.507 79.0305 384.589 78.9692 384.698 78.942C384.813 78.9147 384.95 78.942 385.072 79.0169C385.331 79.1667 385.447 79.5275 385.44 79.8544C385.447 80.1948 385.365 80.5693 385.181 80.9166C384.82 81.5975 384.146 82.081 383.581 81.9788C383.309 81.9244 383.138 81.7541 383.077 81.6179C383.016 81.4886 383.029 81.4001 383.05 81.4001Z" fill="#EB996E"/>
<path d="M385.807 78.0152C385.331 77.6475 384.187 77.7292 383.737 78.1241C383.288 78.519 382.982 79.0638 382.532 79.4655C382.083 79.8672 381.368 80.0851 380.891 79.7242C380.564 79.4723 380.455 79.0093 380.517 78.6007C380.585 78.1922 380.796 77.8245 381.014 77.4704C381.953 75.9316 383.023 74.4608 383.819 72.847C384.623 71.2333 385.154 69.4152 384.915 67.6244C384.677 65.8336 383.554 64.0905 381.851 63.4913C380.728 63.0896 379.475 63.2121 378.324 62.8785C376.962 62.4836 375.812 61.4281 375.301 60.1004C375.233 59.9301 374.852 59.3241 374.852 59.3241C374.892 59.2424 375.294 58.5411 375.703 58.4049C378.733 57.3835 382.845 58.5547 385.358 60.5361C387.871 62.5176 389.627 65.7043 389.661 68.9046C389.695 72.098 387.68 75.632 385.807 78.0152Z" fill="#263238"/>
<path d="M385.841 77.6675C386.802 76.0401 388.354 74.8553 389.539 73.3845C390.724 71.9138 391.541 69.837 390.696 68.1483C390.41 67.5695 389.947 67.0861 389.702 66.4869C389.457 65.8877 389.457 65.2204 389.369 64.5735C389.083 62.5853 387.823 60.7672 386.073 59.7867C384.861 59.1126 383.465 58.8334 382.233 58.1866C380.285 57.1652 378.862 55.2655 376.819 54.462C376.138 54.1964 375.349 54.0603 374.702 54.4007C374.055 54.7344 373.708 55.674 374.177 56.2324C374.096 55.5787 373.245 55.2246 372.645 55.4902C372.046 55.7625 371.74 56.4775 371.781 57.1312C371.821 57.7848 372.148 58.3909 372.523 58.9356C373.762 60.7128 375.662 62.0201 377.766 62.5444L382.464 62.1767L386.318 65.0297L389.171 69.5714L383.996 76.292L385.841 77.6675Z" fill="#263238"/>
<path d="M356.433 50.8729C355.84 41.7214 347.949 34.7898 338.797 35.3754C329.646 35.9677 322.714 43.8595 323.3 53.011C323.729 59.6362 327.984 65.0971 333.772 67.385C333.901 69.346 334.044 71.5658 334.044 71.5658L348.561 70.6261C348.561 70.6261 348.5 68.277 348.398 66.1798C353.559 63.0885 356.848 57.2871 356.433 50.8729Z" fill="#F4D962"/>
<path d="M343.312 70.8981C343.312 70.8981 343.312 70.83 343.312 70.6938C343.318 70.5508 343.325 70.3533 343.339 70.0946C343.366 69.5635 343.414 68.7872 343.496 67.7795C343.577 66.7786 343.693 65.5461 343.925 64.1366C344.156 62.7271 344.496 61.1202 345.13 59.4315C345.45 58.5872 345.824 57.7156 346.335 56.8645C346.6 56.4491 346.934 56.0338 347.404 55.775C347.874 55.5163 348.473 55.4754 348.977 55.7274C349.229 55.8499 349.447 56.0746 349.542 56.347C349.651 56.6193 349.637 56.9326 349.528 57.2049C349.304 57.7429 348.841 58.1446 348.323 58.3897C347.254 58.8459 345.988 58.8255 344.864 58.3693C343.734 57.9131 342.801 56.9462 342.345 55.7546C342.127 55.1622 341.984 54.5085 342.12 53.848C342.236 53.1944 342.821 52.5815 343.55 52.602C343.911 52.602 344.251 52.8267 344.428 53.1331C344.612 53.4327 344.68 53.8004 344.626 54.1476C344.51 54.849 344.047 55.4005 343.57 55.8703C342.583 56.8032 341.194 57.3752 339.785 57.239C338.382 57.1096 337.081 56.2721 336.428 55.0601C336.087 54.4677 335.965 53.7255 336.189 53.0582C336.298 52.7313 336.53 52.4181 336.87 52.2819C337.197 52.1321 337.585 52.1662 337.898 52.3092C338.212 52.4522 338.477 52.6973 338.647 52.9901C338.818 53.2829 338.913 53.6029 338.961 53.9297C339.049 54.5766 339.002 55.2303 338.831 55.8363C338.504 57.0619 337.715 58.131 336.673 58.7642C335.638 59.4043 334.412 59.6358 333.275 59.4587C332.717 59.3702 332.138 59.1864 331.729 58.7642C331.334 58.3489 331.185 57.6611 331.532 57.1777C331.702 56.9394 331.981 56.8032 332.254 56.7623C332.526 56.7283 332.805 56.7623 333.057 56.8645C333.568 57.0756 333.895 57.5113 334.147 57.9335C334.623 58.8051 335.011 59.6562 335.406 60.4665C336.945 63.7213 338.062 66.4109 338.818 68.2766C339.192 69.2094 339.471 69.938 339.662 70.435C339.751 70.6802 339.819 70.864 339.873 71.0002C339.921 71.1296 339.941 71.1977 339.941 71.1977C339.941 71.1977 339.907 71.1364 339.859 71.007C339.805 70.8708 339.73 70.687 339.628 70.4487C339.424 69.9516 339.124 69.2298 338.75 68.3038C337.973 66.4517 336.836 63.7689 335.284 60.5278C334.889 59.7243 334.487 58.8595 334.024 58.0084C333.779 57.5999 333.459 57.1913 333.009 57.0075C332.574 56.8236 331.981 56.8645 331.689 57.2662C331.403 57.6611 331.525 58.274 331.872 58.6348C332.233 59.0162 332.771 59.1932 333.316 59.2749C334.405 59.4451 335.597 59.2204 336.584 58.6008C337.578 57.988 338.341 56.9598 338.647 55.7818C338.811 55.1962 338.852 54.563 338.77 53.9502C338.688 53.351 338.395 52.7313 337.824 52.4862C337.551 52.3636 337.231 52.3364 336.959 52.459C336.686 52.5747 336.489 52.8267 336.387 53.1195C336.189 53.7119 336.291 54.3996 336.618 54.9579C337.238 56.1087 338.484 56.9053 339.819 57.0347C341.16 57.1641 342.501 56.6125 343.448 55.7205C343.911 55.2711 344.347 54.74 344.449 54.1136C344.496 53.814 344.435 53.494 344.279 53.2352C344.122 52.9765 343.856 52.8062 343.564 52.7994C343.271 52.7926 342.978 52.9152 342.76 53.1195C342.535 53.3169 342.399 53.5961 342.338 53.8889C342.209 54.4813 342.338 55.1145 342.549 55.6797C342.978 56.8236 343.877 57.7497 344.959 58.1854C346.029 58.628 347.261 58.6417 348.269 58.2195C348.759 57.988 349.195 57.6135 349.392 57.1368C349.603 56.6602 349.379 56.0882 348.922 55.8772C348.48 55.6525 347.921 55.6865 347.499 55.918C347.064 56.1563 346.743 56.5444 346.485 56.9462C345.981 57.7769 345.6 58.6485 345.286 59.4792C344.646 61.1542 344.299 62.7476 344.061 64.157C343.822 65.5665 343.693 66.7854 343.604 67.7863C343.523 68.7804 343.455 69.5567 343.414 70.0946C343.393 70.3533 343.373 70.5508 343.366 70.6938C343.325 70.83 343.312 70.8981 343.312 70.8981Z" fill="#263238"/>
<path d="M347.622 73.3902L335.154 74.1936C334.637 74.2277 334.194 73.8328 334.16 73.3153C334.126 72.7978 334.521 72.3552 335.039 72.3211L347.506 71.5177C348.024 71.4836 348.466 71.8785 348.5 72.396C348.534 72.9067 348.139 73.3561 347.622 73.3902Z" fill="#263238"/>
<path d="M347.676 74.2081L335.209 75.0116C334.691 75.0457 334.303 75.4882 334.33 76.0057C334.364 76.5232 334.807 76.9114 335.325 76.8841L336.693 76.7956L338.729 80.1321C338.961 80.5134 339.39 80.7381 339.832 80.704L344.285 80.4181C344.735 80.3908 345.13 80.1116 345.314 79.6963L346.852 76.1351L347.785 76.0738C348.303 76.0398 348.691 75.5972 348.664 75.0797C348.636 74.5622 348.194 74.1741 347.676 74.2081Z" fill="#263238"/>
<g opacity="0.2">
<path opacity="0.2" d="M328.543 42.0751C329.591 40.972 330.708 40.1753 331.716 39.6578C332.723 39.1335 333.602 38.8543 334.221 38.7522C334.841 38.6433 335.202 38.6841 335.243 38.8135C335.331 39.1063 334.106 39.6374 332.485 40.8767C330.871 42.0887 328.883 44.1655 327.787 46.9776C326.697 49.7966 326.765 52.6701 327.14 54.6515C327.501 56.6602 328.052 57.8722 327.78 58.0288C327.664 58.0969 327.371 57.8858 326.983 57.3888C326.595 56.8917 326.132 56.095 325.744 55.0328C325.349 53.9706 325.063 52.6224 325.029 51.104C324.995 49.5855 325.247 47.8969 325.88 46.2422" fill="white"/>
</g>
<g opacity="0.2">
<path opacity="0.2" d="M339.274 39.2701C338.225 39.3314 337.279 39.0999 337.136 38.5552C337.074 38.2828 337.245 37.9764 337.612 37.7244C337.973 37.4725 338.525 37.275 339.158 37.241C339.785 37.2069 340.357 37.3295 340.745 37.5406C341.14 37.7517 341.344 38.0309 341.317 38.31" fill="white"/>
</g>
<path d="M345.109 80.0024C345.096 80.0364 344.776 79.9139 344.238 79.7913C343.7 79.6755 342.937 79.587 342.106 79.6619C341.269 79.7436 340.54 79.9683 340.036 80.1862C339.533 80.4041 339.233 80.5811 339.219 80.5539C339.206 80.5335 339.478 80.3088 339.982 80.0568C340.486 79.8049 341.235 79.5462 342.093 79.4645C342.951 79.3827 343.741 79.4985 344.279 79.6551C344.816 79.8117 345.123 79.9888 345.109 80.0024Z" fill="#455A64"/>
<path d="M346.893 76.1758C346.9 76.2303 344.646 76.4209 341.868 76.6048C339.09 76.7818 336.829 76.884 336.829 76.8295C336.823 76.775 339.076 76.5844 341.855 76.4005C344.633 76.2235 346.893 76.1213 346.893 76.1758Z" fill="#455A64"/>
<path d="M346.212 77.7078C346.212 77.7351 345.749 77.8168 344.993 77.9121C344.238 78.0074 343.189 78.1232 342.025 78.2117C340.86 78.3002 339.812 78.3547 339.049 78.3819C338.287 78.4024 337.817 78.3955 337.81 78.3683C337.81 78.3411 338.28 78.2934 339.036 78.2321C339.859 78.1708 340.874 78.0891 342.004 78.0074C343.135 77.9189 344.149 77.8304 344.973 77.7691C345.736 77.7078 346.206 77.6806 346.212 77.7078Z" fill="#455A64"/>
<path d="M256.441 161.099L259.151 165.436C259.151 165.436 270.699 154.807 282.159 157.81C282.152 157.81 271.857 149.081 256.441 161.099Z" fill="#F4D962" stroke="#030402" stroke-miterlimit="10"/>
<path d="M282.152 157.811C282.152 157.811 290.63 148.605 303.063 150.702L306.454 151.213L305.371 149.252C305.365 149.258 283.746 141.857 282.152 157.811Z" fill="#F4D962" stroke="#050504" stroke-miterlimit="10"/>
<path d="M264.259 126.775C264.259 126.775 247.277 123.854 236.144 129.88L253.827 163.177C253.827 163.177 268.303 149.225 282.153 157.818L264.259 126.775Z" fill="#F5F5F5"/>
<path d="M264.258 126.774C264.258 126.774 264.292 126.815 264.346 126.911C264.408 127.013 264.496 127.156 264.598 127.333C264.83 127.721 265.157 128.272 265.579 128.987C266.437 130.458 267.683 132.589 269.263 135.293C272.429 140.747 276.923 148.502 282.282 157.742C282.322 157.817 282.302 157.906 282.227 157.947C282.179 157.974 282.118 157.974 282.071 157.947C280.15 156.769 277.944 155.87 275.561 155.448C274.369 155.25 273.137 155.168 271.891 155.196C270.645 155.243 269.385 155.407 268.132 155.665C263.114 156.775 258.245 159.499 254.085 163.162L253.942 163.299C253.874 163.367 253.765 163.36 253.704 163.292C253.69 163.278 253.683 163.264 253.676 163.251C247.106 150.858 241.018 139.371 236.02 129.941C235.986 129.873 236.007 129.791 236.075 129.757H236.082C239.977 127.741 243.926 126.87 247.398 126.407C250.885 125.957 253.949 125.944 256.455 126.012C258.96 126.093 260.915 126.298 262.242 126.461C262.903 126.543 263.414 126.618 263.754 126.672C263.917 126.699 264.04 126.727 264.142 126.74C264.217 126.761 264.258 126.768 264.258 126.774C264.258 126.774 264.21 126.774 264.122 126.761C264.026 126.747 263.897 126.734 263.734 126.713C263.393 126.672 262.882 126.604 262.222 126.543C260.894 126.407 258.94 126.23 256.441 126.168C253.942 126.121 250.885 126.155 247.419 126.625C243.967 127.108 240.045 127.993 236.204 129.995L236.259 129.804C241.27 139.228 247.378 150.702 253.969 163.087L253.704 163.053L253.854 162.91C255.951 161.031 258.239 159.458 260.622 158.158C263.012 156.871 265.511 155.883 268.057 155.339C269.331 155.073 270.611 154.916 271.877 154.862C273.144 154.842 274.397 154.923 275.609 155.128C278.033 155.563 280.28 156.483 282.22 157.681L282.009 157.885C276.705 148.632 272.259 140.876 269.133 135.415C267.581 132.692 266.355 130.54 265.518 129.055C265.109 128.327 264.789 127.762 264.564 127.367C264.462 127.183 264.38 127.04 264.326 126.931C264.285 126.829 264.258 126.774 264.258 126.774Z" fill="#263238"/>
<path d="M290.95 119.94C290.95 119.94 278.108 111.755 264.477 126.769L282.371 157.812C282.371 157.812 286.021 145.215 307.388 149.593L290.95 119.94Z" fill="#F5F5F5"/>
<path d="M290.95 119.938C290.95 119.938 290.984 119.979 291.038 120.068C291.099 120.17 291.174 120.299 291.276 120.47C291.488 120.837 291.787 121.368 292.175 122.049C292.965 123.452 294.109 125.488 295.559 128.069C298.46 133.278 302.593 140.679 307.516 149.524C307.557 149.599 307.53 149.688 307.462 149.728C307.434 149.742 307.4 149.749 307.366 149.742H307.36C306.318 149.572 305.256 149.395 304.18 149.218C303.642 149.109 303.09 149.081 302.539 149.034C301.987 148.993 301.429 148.945 300.864 148.898C300.299 148.83 299.733 148.843 299.161 148.857C298.589 148.864 298.011 148.87 297.432 148.877C296.853 148.891 296.274 148.993 295.689 149.047C295.103 149.122 294.511 149.15 293.932 149.313C293.353 149.442 292.768 149.579 292.175 149.708C291.603 149.905 291.031 150.11 290.459 150.307C289.881 150.505 289.356 150.825 288.791 151.077C288.505 151.199 288.246 151.363 287.988 151.533L287.205 152.037C286.687 152.384 286.224 152.806 285.741 153.201C285.312 153.657 284.828 154.066 284.454 154.576C283.65 155.543 282.963 156.66 282.547 157.845V157.852C282.513 157.94 282.418 157.988 282.329 157.954C282.288 157.94 282.261 157.913 282.241 157.879C282.016 157.484 281.764 157.055 281.519 156.626C275.193 145.629 269.297 135.388 264.367 126.822C264.333 126.768 264.346 126.7 264.387 126.652C267.411 123.35 270.754 120.837 274.083 119.367C277.406 117.862 280.641 117.487 283.228 117.651C285.829 117.814 287.797 118.447 289.077 118.958C289.717 119.217 290.194 119.462 290.507 119.632C290.657 119.721 290.766 119.782 290.854 119.836C290.916 119.911 290.95 119.938 290.95 119.938C290.95 119.938 290.902 119.918 290.827 119.877C290.739 119.83 290.616 119.768 290.466 119.693C290.146 119.537 289.67 119.305 289.023 119.06C287.736 118.57 285.775 117.971 283.194 117.834C280.634 117.691 277.434 118.086 274.152 119.598C270.87 121.069 267.567 123.581 264.578 126.863L264.598 126.7C269.535 135.252 275.452 145.493 281.791 156.476C282.036 156.905 282.282 157.334 282.513 157.729L282.207 157.763C282.649 156.49 283.351 155.373 284.175 154.372C284.563 153.848 285.053 153.426 285.496 152.963C285.993 152.561 286.469 152.125 287 151.778L287.804 151.267C288.069 151.09 288.335 150.927 288.621 150.797C289.193 150.539 289.731 150.219 290.323 150.014C290.909 149.81 291.494 149.606 292.073 149.408C292.672 149.272 293.265 149.143 293.857 149.007C294.443 148.843 295.049 148.816 295.634 148.741C296.227 148.687 296.812 148.584 297.405 148.571C297.99 148.564 298.576 148.557 299.155 148.55C299.733 148.537 300.312 148.53 300.877 148.598C301.442 148.646 302.008 148.693 302.566 148.734C303.124 148.782 303.683 148.809 304.221 148.925C305.303 149.109 306.372 149.286 307.421 149.463L307.257 149.681C302.382 140.829 298.297 133.414 295.423 128.198C294 125.597 292.883 123.547 292.107 122.131C291.733 121.436 291.447 120.899 291.242 120.524C291.147 120.347 291.079 120.211 291.025 120.109C290.97 119.993 290.95 119.945 290.95 119.938Z" fill="#263238"/>
<path d="M240.923 113.871L260.071 150.742C260.071 150.742 275.636 150.062 282.221 157.647L264.476 126.774C264.476 126.774 254.072 113.871 240.923 113.871Z" fill="#F5F5F5"/>
<path d="M240.923 113.871C240.923 113.871 241.08 113.871 241.406 113.885C241.754 113.898 242.244 113.919 242.884 113.946C243.047 113.953 243.224 113.96 243.401 113.973C243.579 114 243.762 114.035 243.96 114.069C244.355 114.137 244.777 114.205 245.24 114.28C245.71 114.334 246.186 114.491 246.704 114.627C247.215 114.784 247.787 114.886 248.345 115.11C252.921 116.636 259.062 120.326 264.578 126.679L264.585 126.693V126.699C269.637 135.47 275.752 146.092 282.356 157.558C282.404 157.64 282.377 157.742 282.295 157.79C282.227 157.831 282.145 157.817 282.091 157.763L282.084 157.756C281.846 157.518 281.587 157.266 281.335 157.007C279.912 155.625 278.223 154.535 276.433 153.766C274.649 152.976 272.81 152.37 270.958 151.968C267.254 151.137 263.563 150.824 260.07 150.892H260.063C260.002 150.892 259.948 150.858 259.92 150.804C254.337 139.977 249.571 130.73 246.186 124.173C244.518 120.925 243.197 118.345 242.278 116.561C241.835 115.689 241.488 115.015 241.25 114.545C241.141 114.327 241.052 114.157 240.991 114.028C240.943 113.926 240.916 113.871 240.923 113.871C240.93 113.871 240.964 113.932 241.025 114.055C241.093 114.184 241.189 114.361 241.304 114.586C241.556 115.063 241.917 115.744 242.38 116.622C243.32 118.406 244.675 120.987 246.384 124.241C249.788 130.751 254.589 139.93 260.213 150.674L260.063 150.593C263.591 150.518 267.295 150.824 271.033 151.662C272.905 152.063 274.764 152.676 276.576 153.473C278.394 154.256 280.116 155.359 281.573 156.775C281.839 157.041 282.098 157.3 282.343 157.545L282.07 157.742C275.486 146.262 269.385 135.633 264.346 126.849L264.36 126.87C261.664 123.703 258.722 121.218 255.978 119.284C253.207 117.378 250.565 116.05 248.29 115.281C247.732 115.049 247.174 114.94 246.663 114.784C246.146 114.641 245.669 114.477 245.206 114.416C244.75 114.334 244.328 114.259 243.933 114.184C243.742 114.15 243.551 114.116 243.374 114.082C243.197 114.062 243.034 114.055 242.877 114.041C241.72 113.932 241.182 113.892 240.923 113.871Z" fill="#263238"/>
<path d="M262.944 78.001L263.352 78.6819C263.815 79.4513 264.483 80.0641 265.286 80.4659L266.001 80.82L265.32 81.2285C264.551 81.6915 263.938 82.3588 263.536 83.1623L263.182 83.8772L262.773 83.1963C262.31 82.4269 261.643 81.8141 260.84 81.4123L260.125 81.0583L260.806 80.6497C261.575 80.1867 262.188 79.5194 262.59 78.7159L262.944 78.001Z" fill="#F4D962"/>
<path d="M437.659 102.228L438.067 102.908C438.53 103.678 439.198 104.291 440.001 104.692L440.716 105.047L440.035 105.455C439.266 105.918 438.653 106.585 438.251 107.389L437.897 108.104L437.489 107.423C437.026 106.653 436.358 106.041 435.555 105.639L434.84 105.285L435.521 104.876C436.29 104.413 436.903 103.746 437.305 102.942L437.659 102.228Z" fill="#F4D962"/>
<path d="M432.831 75.8691L433.029 75.9508C433.246 76.0394 433.492 76.0666 433.723 76.0189L433.934 75.9781L433.852 76.1755C433.764 76.3934 433.737 76.6386 433.784 76.8701L433.825 77.0812L433.628 76.9995C433.41 76.9109 433.165 76.8837 432.933 76.9314L432.722 76.9722L432.804 76.7748C432.892 76.5569 432.92 76.3117 432.872 76.0802L432.831 75.8691Z" fill="#F4D962"/>
<path d="M270.624 59.6504L270.822 59.7321C271.04 59.8206 271.285 59.8479 271.516 59.8002L271.727 59.7593L271.646 59.9568C271.557 60.1747 271.53 60.4198 271.578 60.6513L271.619 60.8624L271.421 60.7807C271.203 60.6922 270.958 60.6649 270.727 60.7126L270.515 60.7535L270.597 60.556C270.686 60.3381 270.713 60.093 270.665 59.8615L270.624 59.6504Z" fill="#F4D962"/>
<path d="M290.643 197.991L290.841 198.073C291.059 198.161 291.304 198.189 291.535 198.141L291.746 198.1L291.665 198.298C291.576 198.516 291.549 198.761 291.596 198.992L291.637 199.203L291.44 199.122C291.222 199.033 290.977 199.006 290.745 199.053L290.534 199.094L290.616 198.897C290.704 198.679 290.732 198.434 290.684 198.202L290.643 197.991Z" fill="#F4D962"/>
<path d="M264.877 209.355C272.376 209.355 278.455 203.276 278.455 195.778C278.455 188.279 272.376 182.2 264.877 182.2C257.379 182.2 251.3 188.279 251.3 195.778C251.3 203.276 257.379 209.355 264.877 209.355Z" fill="#F4D962"/>
<g opacity="0.3">
<g opacity="0.3">
<g opacity="0.3">
<g opacity="0.3">
<path opacity="0.3" d="M263.114 200.02C263.114 201.245 262.12 202.233 260.901 202.233C259.675 202.233 258.688 201.238 258.688 200.02C258.688 198.794 259.682 197.807 260.901 197.807C262.12 197.807 263.114 198.794 263.114 200.02Z" fill="white"/>
</g>
</g>
</g>
</g>
<g opacity="0.3">
<g opacity="0.3">
<g opacity="0.3">
<g opacity="0.3">
<path opacity="0.3" d="M259.968 193.626C259.968 194.341 259.389 194.913 258.681 194.913C257.966 194.913 257.394 194.334 257.394 193.626C257.394 192.911 257.973 192.339 258.681 192.339C259.396 192.339 259.968 192.918 259.968 193.626Z" fill="white"/>
</g>
</g>
</g>
</g>
<path d="M251.702 199.08C251.763 199.319 240.079 210.526 243.088 212.916C246.098 215.306 258.77 209.178 269.569 200.456C280.368 191.733 290.235 181.138 287.531 178.333C284.828 175.528 271.333 183.828 271.333 183.828L272.946 184.856C272.946 184.856 281.104 179.62 283.691 181.656C286.272 183.685 278.911 191.624 268.527 199.203C258.143 206.781 248.107 212.106 246.547 210.029C244.988 207.953 252.342 201.028 252.342 201.028L251.702 199.08Z" fill="#F4D962"/>
<g opacity="0.3">
<g opacity="0.3">
<g opacity="0.3">
<g opacity="0.3">
<path opacity="0.3" d="M251.702 199.08C251.763 199.319 240.079 210.526 243.088 212.916C246.098 215.306 258.77 209.178 269.569 200.456C280.368 191.733 290.235 181.138 287.531 178.333C284.828 175.528 271.333 183.828 271.333 183.828L272.946 184.856C272.946 184.856 281.104 179.62 283.691 181.656C286.272 183.685 278.911 191.624 268.527 199.203C258.143 206.781 248.107 212.106 246.547 210.029C244.988 207.953 252.342 201.028 252.342 201.028L251.702 199.08Z" fill="black"/>
</g>
</g>
</g>
</g>
<g opacity="0.3">
<g opacity="0.3">
<g opacity="0.3">
<g opacity="0.3">
<g opacity="0.3">
<path opacity="0.3" d="M257.394 186.211C257.503 186.34 256.584 187.123 255.542 188.69C254.5 190.235 253.411 192.68 253.35 195.512C253.295 198.352 254.289 200.837 255.27 202.424C256.25 204.031 257.135 204.848 257.02 204.977C256.952 205.072 255.862 204.439 254.65 202.839C254.051 202.042 253.452 201 253.002 199.748C252.553 198.502 252.274 197.038 252.301 195.492C252.342 193.946 252.676 192.496 253.173 191.27C253.67 190.038 254.31 189.016 254.943 188.247C256.209 186.701 257.326 186.116 257.394 186.211Z" fill="white"/>
</g>
</g>
</g>
</g>
</g>
<path d="M422.27 76.6616C426.736 72.3814 426.887 65.2909 422.607 60.8245C418.327 56.3581 411.236 56.2071 406.77 60.4873C402.303 64.7675 402.153 71.858 406.433 76.3244C410.713 80.7908 417.803 80.9418 422.27 76.6616Z" fill="#F4D962"/>
<g opacity="0.4">
<g opacity="0.4">
<g opacity="0.4">
<g opacity="0.4">
<path opacity="0.4" d="M418.178 64.2863C418.205 63.2786 419.036 62.4819 420.05 62.5023C421.058 62.5296 421.855 63.3603 421.834 64.3748C421.807 65.3826 420.976 66.1793 419.962 66.1588C418.947 66.1316 418.151 65.2941 418.178 64.2863Z" fill="black"/>
</g>
</g>
</g>
</g>
<g opacity="0.4">
<g opacity="0.4">
<g opacity="0.4">
<g opacity="0.4">
<path opacity="0.4" d="M421.828 68.5558C421.841 67.9702 422.331 67.5072 422.917 67.5208C423.503 67.5344 423.966 68.0247 423.952 68.6103C423.938 69.1958 423.448 69.6589 422.863 69.6452C422.277 69.6248 421.814 69.1414 421.828 68.5558Z" fill="black"/>
</g>
</g>
</g>
</g>
<g opacity="0.4">
<g opacity="0.4">
<g opacity="0.4">
<g opacity="0.4">
<path opacity="0.4" d="M420.404 71.8176C420.622 71.8244 420.793 72.0014 420.786 72.2193C420.779 72.4372 420.602 72.6074 420.384 72.6006C420.166 72.5938 419.996 72.4168 420.003 72.1989C420.01 71.981 420.187 71.8108 420.404 71.8176Z" fill="black"/>
</g>
</g>
</g>
</g>
</g>
<path d="M47.68 135.77C48.36 135.77 48.935 135.535 49.405 135.065C49.865 134.605 50.095 134.02 50.095 133.31C50.095 132.61 49.865 132.03 49.405 131.57C48.935 131.1 48.36 130.865 47.68 130.865C46.99 130.865 46.41 131.1 45.94 131.57C45.48 132.03 45.25 132.61 45.25 133.31C45.25 134.02 45.48 134.605 45.94 135.065C46.41 135.535 46.99 135.77 47.68 135.77ZM47.68 137.195C46.5 137.195 45.53 136.82 44.77 136.07C44.01 135.32 43.63 134.4 43.63 133.31C43.63 132.23 44.01 131.315 44.77 130.565C45.53 129.815 46.5 129.44 47.68 129.44C48.84 129.44 49.805 129.815 50.575 130.565C51.335 131.315 51.715 132.23 51.715 133.31C51.715 134.39 51.335 135.31 50.575 136.07C49.805 136.82 48.84 137.195 47.68 137.195ZM56.5506 137H54.9306V131.06H52.4406V129.635H59.0256V131.06H56.5506V137ZM66.9486 137H65.3286V128.27L63.0336 129.5V127.895L65.5086 126.5H66.9486V137ZM73.6661 137.195C72.3361 137.195 71.2661 136.67 70.4561 135.62C69.6561 134.55 69.2561 133.26 69.2561 131.75C69.2561 130.25 69.6561 128.965 70.4561 127.895C71.2661 126.835 72.3361 126.305 73.6661 126.305C75.0161 126.305 76.0861 126.835 76.8761 127.895C77.6861 128.955 78.0911 130.24 78.0911 131.75C78.0911 133.27 77.6861 134.56 76.8761 135.62C76.0861 136.67 75.0161 137.195 73.6661 137.195ZM73.6661 135.65C74.4961 135.65 75.1661 135.275 75.6761 134.525C76.1861 133.775 76.4411 132.85 76.4411 131.75C76.4411 130.65 76.1861 129.725 75.6761 128.975C75.1661 128.225 74.4961 127.85 73.6661 127.85C72.8461 127.85 72.1811 128.23 71.6711 128.99C71.1611 129.74 70.9061 130.66 70.9061 131.75C70.9061 132.83 71.1611 133.755 71.6711 134.525C72.1811 135.275 72.8461 135.65 73.6661 135.65ZM84.2569 137.195C82.9269 137.195 81.8569 136.67 81.0469 135.62C80.2469 134.55 79.8469 133.26 79.8469 131.75C79.8469 130.25 80.2469 128.965 81.0469 127.895C81.8569 126.835 82.9269 126.305 84.2569 126.305C85.6069 126.305 86.6769 126.835 87.4669 127.895C88.2769 128.955 88.6819 130.24 88.6819 131.75C88.6819 133.27 88.2769 134.56 87.4669 135.62C86.6769 136.67 85.6069 137.195 84.2569 137.195ZM84.2569 135.65C85.0869 135.65 85.7569 135.275 86.2669 134.525C86.7769 133.775 87.0319 132.85 87.0319 131.75C87.0319 130.65 86.7769 129.725 86.2669 128.975C85.7569 128.225 85.0869 127.85 84.2569 127.85C83.4369 127.85 82.7719 128.23 82.2619 128.99C81.7519 129.74 81.4969 130.66 81.4969 131.75C81.4969 132.83 81.7519 133.755 82.2619 134.525C82.7719 135.275 83.4369 135.65 84.2569 135.65ZM94.8477 137.195C93.5177 137.195 92.4477 136.67 91.6377 135.62C90.8377 134.55 90.4377 133.26 90.4377 131.75C90.4377 130.25 90.8377 128.965 91.6377 127.895C92.4477 126.835 93.5177 126.305 94.8477 126.305C96.1977 126.305 97.2677 126.835 98.0577 127.895C98.8677 128.955 99.2727 130.24 99.2727 131.75C99.2727 133.27 98.8677 134.56 98.0577 135.62C97.2677 136.67 96.1977 137.195 94.8477 137.195ZM94.8477 135.65C95.6777 135.65 96.3477 135.275 96.8577 134.525C97.3677 133.775 97.6227 132.85 97.6227 131.75C97.6227 130.65 97.3677 129.725 96.8577 128.975C96.3477 128.225 95.6777 127.85 94.8477 127.85C94.0277 127.85 93.3627 128.23 92.8527 128.99C92.3427 129.74 92.0877 130.66 92.0877 131.75C92.0877 132.83 92.3427 133.755 92.8527 134.525C93.3627 135.275 94.0277 135.65 94.8477 135.65ZM108.645 137.195C107.535 137.195 106.595 136.83 105.825 136.1C105.055 135.36 104.67 134.425 104.67 133.295C104.67 132.165 105.055 131.24 105.825 130.52C106.605 129.8 107.55 129.44 108.66 129.44C109.5 129.44 110.24 129.61 110.88 129.95V131.345C110.21 131.025 109.55 130.865 108.9 130.865C108.16 130.865 107.54 131.095 107.04 131.555C106.54 132.025 106.29 132.61 106.29 133.31C106.29 134.02 106.54 134.61 107.04 135.08C107.54 135.54 108.16 135.77 108.9 135.77C109.69 135.77 110.39 135.585 111 135.215V136.595C110.3 136.995 109.515 137.195 108.645 137.195ZM116.367 135.77C117.047 135.77 117.622 135.535 118.092 135.065C118.552 134.605 118.782 134.02 118.782 133.31C118.782 132.61 118.552 132.03 118.092 131.57C117.622 131.1 117.047 130.865 116.367 130.865C115.677 130.865 115.097 131.1 114.627 131.57C114.167 132.03 113.937 132.61 113.937 133.31C113.937 134.02 114.167 134.605 114.627 135.065C115.097 135.535 115.677 135.77 116.367 135.77ZM116.367 137.195C115.187 137.195 114.217 136.82 113.457 136.07C112.697 135.32 112.317 134.4 112.317 133.31C112.317 132.23 112.697 131.315 113.457 130.565C114.217 129.815 115.187 129.44 116.367 129.44C117.527 129.44 118.492 129.815 119.262 130.565C120.022 131.315 120.402 132.23 120.402 133.31C120.402 134.39 120.022 135.31 119.262 136.07C118.492 136.82 117.527 137.195 116.367 137.195ZM123.747 137H122.187V129.635H123.777L126.297 132.695L128.832 129.635H130.422V137H128.862V131.84L126.612 134.555H125.982L123.747 131.84V137ZM136.259 135.77C136.939 135.77 137.514 135.535 137.984 135.065C138.444 134.605 138.674 134.02 138.674 133.31C138.674 132.61 138.444 132.03 137.984 131.57C137.514 131.1 136.939 130.865 136.259 130.865C135.569 130.865 134.989 131.1 134.519 131.57C134.059 132.03 133.829 132.61 133.829 133.31C133.829 134.02 134.059 134.605 134.519 135.065C134.989 135.535 135.569 135.77 136.259 135.77ZM136.259 137.195C135.079 137.195 134.109 136.82 133.349 136.07C132.589 135.32 132.209 134.4 132.209 133.31C132.209 132.23 132.589 131.315 133.349 130.565C134.109 129.815 135.079 129.44 136.259 129.44C137.419 129.44 138.384 129.815 139.154 130.565C139.914 131.315 140.294 132.23 140.294 133.31C140.294 134.39 139.914 135.31 139.154 136.07C138.384 136.82 137.419 137.195 136.259 137.195ZM146.325 137H142.08V129.635H146.1C146.82 129.635 147.385 129.81 147.795 130.16C148.205 130.5 148.41 130.95 148.41 131.51C148.41 131.87 148.32 132.195 148.14 132.485C147.97 132.765 147.745 132.97 147.465 133.1C148.425 133.38 148.905 134.01 148.905 134.99C148.905 135.62 148.675 136.115 148.215 136.475C147.765 136.825 147.135 137 146.325 137ZM143.7 133.88V135.695H146.04C146.42 135.695 146.715 135.615 146.925 135.455C147.145 135.295 147.255 135.075 147.255 134.795C147.255 134.505 147.145 134.28 146.925 134.12C146.715 133.96 146.42 133.88 146.04 133.88H143.7ZM143.7 130.94V132.575H145.71C146.06 132.575 146.33 132.505 146.52 132.365C146.72 132.215 146.82 132.015 146.82 131.765C146.82 131.215 146.45 130.94 145.71 130.94H143.7Z" fill="black"/>
<path d="M45.715 91H44.305V80.5H45.955V88.21L51.73 80.5H53.17V91H51.52V83.26L45.715 91ZM57.2447 91H55.6247V83.635H57.2447V86.515H60.9797V83.635H62.5997V91H60.9797V87.94H57.2447V91ZM65.6318 93.025H64.0718V89.575H65.0318C65.4218 88.985 65.6918 88.26 65.8418 87.4C65.9918 86.57 66.0768 85.315 66.0968 83.635H71.9618V89.575H73.2368V93.025H71.7068V91H65.6318V93.025ZM66.7418 89.575H70.3418V85.06H67.5818C67.5818 86.97 67.3018 88.475 66.7418 89.575ZM76.3731 91H74.8581V83.635H76.4781V88.63L80.4531 83.635H81.9681V91H80.3481V85.99L76.3731 91ZM88.5221 91H84.2771V83.635H88.2971C89.0171 83.635 89.5821 83.81 89.9921 84.16C90.4021 84.5 90.6071 84.95 90.6071 85.51C90.6071 85.87 90.5171 86.195 90.3371 86.485C90.1671 86.765 89.9421 86.97 89.6621 87.1C90.6221 87.38 91.1021 88.01 91.1021 88.99C91.1021 89.62 90.8721 90.115 90.4121 90.475C89.9621 90.825 89.3321 91 88.5221 91ZM85.8971 87.88V89.695H88.2371C88.6171 89.695 88.9121 89.615 89.1221 89.455C89.3421 89.295 89.4521 89.075 89.4521 88.795C89.4521 88.505 89.3421 88.28 89.1221 88.12C88.9121 87.96 88.6171 87.88 88.2371 87.88H85.8971ZM85.8971 84.94V86.575H87.9071C88.2571 86.575 88.5271 86.505 88.7171 86.365C88.9171 86.215 89.0171 86.015 89.0171 85.765C89.0171 85.215 88.6471 84.94 87.9071 84.94H85.8971ZM94.5079 91H92.9929V83.635H94.6129V88.63L98.5879 83.635H100.103V91H98.4829V85.99L94.5079 91ZM103.132 93.025H101.572V89.575H102.532C102.922 88.985 103.192 88.26 103.342 87.4C103.492 86.57 103.577 85.315 103.597 83.635H109.462V89.575H110.737V93.025H109.207V91H103.132V93.025ZM104.242 89.575H107.842V85.06H105.082C105.082 86.97 104.802 88.475 104.242 89.575ZM113.108 94.075C112.498 94.075 112.053 93.995 111.773 93.835V92.41C112.093 92.57 112.448 92.65 112.838 92.65C113.248 92.65 113.593 92.5 113.873 92.2C114.163 91.9 114.453 91.41 114.743 90.73L111.518 83.635H113.318L115.538 88.825L117.683 83.635H119.438L115.913 91.795C115.253 93.315 114.318 94.075 113.108 94.075ZM127.696 89.74C127.856 89.74 128.001 89.705 128.131 89.635V90.865C127.911 91.025 127.596 91.105 127.186 91.105C126.346 91.105 125.831 90.755 125.641 90.055C124.971 90.815 124.066 91.195 122.926 91.195C122.136 91.195 121.476 90.975 120.946 90.535C120.426 90.105 120.166 89.5 120.166 88.72C120.166 87.94 120.451 87.34 121.021 86.92C121.581 86.49 122.281 86.275 123.121 86.275C124.011 86.275 124.796 86.465 125.476 86.845V86.44C125.476 85.37 124.756 84.835 123.316 84.835C122.476 84.835 121.701 85.055 120.991 85.495V84.07C121.721 83.65 122.616 83.44 123.676 83.44C124.716 83.44 125.541 83.69 126.151 84.19C126.771 84.68 127.081 85.37 127.081 86.26V89.005C127.081 89.235 127.136 89.415 127.246 89.545C127.366 89.675 127.516 89.74 127.696 89.74ZM125.476 88.915V88.015C124.856 87.665 124.201 87.49 123.511 87.49C122.971 87.49 122.546 87.59 122.236 87.79C121.936 87.99 121.786 88.27 121.786 88.63C121.786 89.01 121.926 89.3 122.206 89.5C122.496 89.7 122.886 89.8 123.376 89.8C123.776 89.8 124.166 89.72 124.546 89.56C124.926 89.39 125.236 89.175 125.476 88.915ZM135.071 85.06H132.296L132.266 86.125C132.256 87.185 132.146 88.095 131.936 88.855C131.586 90.255 130.741 90.98 129.401 91.03C129.191 91.03 129.021 91.01 128.891 90.97V89.575C129.001 89.605 129.111 89.62 129.221 89.62C129.751 89.62 130.126 89.35 130.346 88.81C130.566 88.26 130.686 87.335 130.706 86.035L130.751 83.635H136.691V91H135.071V85.06ZM142.814 91H139.004V83.635H140.624V85.87H142.739C143.639 85.87 144.359 86.105 144.899 86.575C145.439 87.035 145.709 87.655 145.709 88.435C145.709 89.165 145.454 89.78 144.944 90.28C144.434 90.76 143.724 91 142.814 91ZM140.624 87.235V89.635H142.559C143.029 89.635 143.399 89.53 143.669 89.32C143.939 89.1 144.074 88.805 144.074 88.435C144.074 88.055 143.939 87.76 143.669 87.55C143.409 87.34 143.039 87.235 142.559 87.235H140.624ZM149.12 91H147.5V83.635H149.12V86.515H152.855V83.635H154.475V91H152.855V87.94H149.12V91ZM165.817 91H164.197V83.635H165.817V91ZM160.267 91H156.787V83.635H158.407V85.87H160.192C161.092 85.87 161.812 86.105 162.352 86.575C162.892 87.035 163.162 87.655 163.162 88.435C163.162 89.165 162.907 89.78 162.397 90.28C161.887 90.76 161.177 91 160.267 91ZM158.407 87.235V89.635H160.012C160.482 89.635 160.852 89.53 161.122 89.32C161.392 89.1 161.527 88.805 161.527 88.435C161.527 88.055 161.392 87.76 161.122 87.55C160.862 87.34 160.492 87.235 160.012 87.235H158.407ZM169.64 91H168.125V83.635H169.745V88.63L173.72 83.635H175.235V91H173.615V85.99L169.64 91ZM173.54 81.97C173.06 82.42 172.44 82.645 171.68 82.645C170.92 82.645 170.3 82.42 169.82 81.97C169.34 81.52 169.095 80.92 169.085 80.17H170.45C170.45 80.53 170.56 80.825 170.78 81.055C171.01 81.285 171.305 81.4 171.665 81.4C172.025 81.4 172.315 81.285 172.535 81.055C172.765 80.825 172.885 80.53 172.895 80.17H174.275C174.265 80.92 174.02 81.52 173.54 81.97ZM183.915 91.195C182.795 91.195 181.86 91.02 181.11 90.67V89.2C181.95 89.6 182.81 89.8 183.69 89.8C184.33 89.8 184.835 89.71 185.205 89.53C185.575 89.34 185.76 89.075 185.76 88.735C185.76 88.115 185.22 87.805 184.14 87.805H182.775V86.5H184.14C185.06 86.5 185.52 86.23 185.52 85.69C185.52 85.12 184.925 84.835 183.735 84.835C182.955 84.835 182.15 85.015 181.32 85.375V83.95C182.07 83.61 182.99 83.44 184.08 83.44C184.98 83.44 185.72 83.625 186.3 83.995C186.89 84.375 187.185 84.85 187.185 85.42C187.185 86.23 186.81 86.77 186.06 87.04C187 87.34 187.47 87.945 187.47 88.855C187.47 89.545 187.145 90.11 186.495 90.55C185.855 90.98 184.995 91.195 183.915 91.195ZM196.28 89.74C196.44 89.74 196.585 89.705 196.715 89.635V90.865C196.495 91.025 196.18 91.105 195.77 91.105C194.93 91.105 194.415 90.755 194.225 90.055C193.555 90.815 192.65 91.195 191.51 91.195C190.72 91.195 190.06 90.975 189.53 90.535C189.01 90.105 188.75 89.5 188.75 88.72C188.75 87.94 189.035 87.34 189.605 86.92C190.165 86.49 190.865 86.275 191.705 86.275C192.595 86.275 193.38 86.465 194.06 86.845V86.44C194.06 85.37 193.34 84.835 191.9 84.835C191.06 84.835 190.285 85.055 189.575 85.495V84.07C190.305 83.65 191.2 83.44 192.26 83.44C193.3 83.44 194.125 83.69 194.735 84.19C195.355 84.68 195.665 85.37 195.665 86.26V89.005C195.665 89.235 195.72 89.415 195.83 89.545C195.95 89.675 196.1 89.74 196.28 89.74ZM194.06 88.915V88.015C193.44 87.665 192.785 87.49 192.095 87.49C191.555 87.49 191.13 87.59 190.82 87.79C190.52 87.99 190.37 88.27 190.37 88.63C190.37 89.01 190.51 89.3 190.79 89.5C191.08 89.7 191.47 89.8 191.96 89.8C192.36 89.8 192.75 89.72 193.13 89.56C193.51 89.39 193.82 89.175 194.06 88.915ZM199.935 91H198.315V83.635H199.935V86.515H203.67V83.635H205.29V91H203.67V87.94H199.935V91ZM208.832 91H206.972L209.057 88.135C208.537 88.005 208.132 87.75 207.842 87.37C207.562 86.99 207.422 86.52 207.422 85.96C207.422 85.25 207.657 84.685 208.127 84.265C208.607 83.845 209.297 83.635 210.197 83.635H214.067V91H212.447V88.465H210.662L208.832 91ZM210.422 87.16H212.447V84.94H210.422C209.992 84.94 209.657 85.04 209.417 85.24C209.187 85.43 209.072 85.7 209.072 86.05C209.072 86.4 209.187 86.675 209.417 86.875C209.657 87.065 209.992 87.16 210.422 87.16ZM219.632 91H218.012V85.06H215.522V83.635H222.107V85.06H219.632V91ZM225.099 91H223.584V83.635H225.204V88.63L229.179 83.635H230.694V91H229.074V85.99L225.099 91ZM234.233 91H232.373L234.458 88.135C233.938 88.005 233.533 87.75 233.243 87.37C232.963 86.99 232.823 86.52 232.823 85.96C232.823 85.25 233.058 84.685 233.528 84.265C234.008 83.845 234.698 83.635 235.598 83.635H239.468V91H237.848V88.465H236.063L234.233 91ZM235.823 87.16H237.848V84.94H235.823C235.393 84.94 235.058 85.04 234.818 85.24C234.588 85.43 234.473 85.7 234.473 86.05C234.473 86.4 234.588 86.675 234.818 86.875C235.058 87.065 235.393 87.16 235.823 87.16ZM47.605 110.195C46.495 110.195 45.555 109.83 44.785 109.1C44.015 108.36 43.63 107.425 43.63 106.295C43.63 105.165 44.015 104.24 44.785 103.52C45.565 102.8 46.51 102.44 47.62 102.44C48.46 102.44 49.2 102.61 49.84 102.95V104.345C49.17 104.025 48.51 103.865 47.86 103.865C47.12 103.865 46.5 104.095 46 104.555C45.5 105.025 45.25 105.61 45.25 106.31C45.25 107.02 45.5 107.61 46 108.08C46.5 108.54 47.12 108.77 47.86 108.77C48.65 108.77 49.35 108.585 49.96 108.215V109.595C49.26 109.995 48.475 110.195 47.605 110.195ZM56.5645 112.025H55.0045V108.575H55.9645C56.3545 107.985 56.6245 107.26 56.7745 106.4C56.9245 105.57 57.0095 104.315 57.0295 102.635H62.8945V108.575H64.1695V112.025H62.6395V110H56.5645V112.025ZM57.6745 108.575H61.2745V104.06H58.5145C58.5145 105.97 58.2345 107.475 57.6745 108.575ZM65.2657 106.31C65.2657 105.2 65.6157 104.28 66.3157 103.55C67.0257 102.81 67.9357 102.44 69.0457 102.44C69.8057 102.44 70.4507 102.64 70.9807 103.04C72.0207 103.78 72.5407 104.89 72.5407 106.37V106.79H66.9007C67.0007 107.41 67.2957 107.895 67.7857 108.245C68.2857 108.595 68.9157 108.77 69.6757 108.77C70.5157 108.77 71.3057 108.55 72.0457 108.11V109.475C71.3657 109.955 70.4607 110.195 69.3307 110.195C68.2007 110.195 67.2357 109.835 66.4357 109.115C65.6557 108.395 65.2657 107.46 65.2657 106.31ZM66.9157 105.56H70.9057C70.8857 105.1 70.7107 104.695 70.3807 104.345C70.0407 103.985 69.5707 103.805 68.9707 103.805C68.4007 103.805 67.9257 103.975 67.5457 104.315C67.1757 104.645 66.9657 105.06 66.9157 105.56ZM77.4979 110H75.8779V104.06H73.3879V102.635H79.9729V104.06H77.4979V110ZM85.2599 110H81.4499V102.635H83.0699V104.87H85.1849C86.0849 104.87 86.8049 105.105 87.3449 105.575C87.8849 106.035 88.1549 106.655 88.1549 107.435C88.1549 108.165 87.8999 108.78 87.3899 109.28C86.8799 109.76 86.1699 110 85.2599 110ZM83.0699 106.235V108.635H85.0049C85.4749 108.635 85.8449 108.53 86.1149 108.32C86.3849 108.1 86.5199 107.805 86.5199 107.435C86.5199 107.055 86.3849 106.76 86.1149 106.55C85.8549 106.34 85.4849 106.235 85.0049 106.235H83.0699ZM91.506 110H89.946V102.635H91.536L94.056 105.695L96.591 102.635H98.181V110H96.621V104.84L94.371 107.555H93.741L91.506 104.84V110ZM102.008 110H100.493V102.635H102.113V107.63L106.088 102.635H107.603V110H105.983V104.99L102.008 110Z" fill="black"/>
</g>
<defs>
<clipPath id="clip0">
<rect width="490" height="218" rx="35" fill="white"/>
</clipPath>
<clipPath id="clip1">
<rect width="242.302" height="298.75" fill="white" transform="translate(236 12)"/>
</clipPath>
</defs>
</svg>
