<svg width="22" height="24" viewBox="0 0 22 24" fill="none" xmlns="http://www.w3.org/2000/svg">
<path d="M18.2673 0.23877C17.7778 0.240001 17.2935 0.341933 16.8422 0.538685C16.3908 0.735437 15.9814 1.02311 15.6376 1.38512L1.3284 16.2548L1.27229 16.5491L0.28233 21.7214L0 23.1019L1.3293 22.8085L6.30627 21.7797L6.5886 21.7204L20.8978 6.85075C21.2471 6.49408 21.5245 6.06868 21.7139 5.5994C21.9032 5.13012 22.0007 4.62634 22.0007 4.11747C22.0007 3.60859 21.9032 3.10481 21.7139 2.63553C21.5245 2.16625 21.2471 1.74085 20.8978 1.38418C20.5538 1.02223 20.1443 0.734663 19.6928 0.53807C19.2413 0.341478 18.7568 0.239754 18.2673 0.23877ZM18.2673 2.03118C18.7234 2.03118 19.183 2.24747 19.6246 2.70733C20.5051 3.6214 20.5051 4.61353 19.6246 5.52854L18.9749 6.1746L16.2874 3.38254L16.9099 2.70733C17.3524 2.24747 17.8112 2.03118 18.2673 2.03118ZM15.016 4.70569L17.7017 7.49775L6.75872 18.8691C6.16796 17.6679 5.22742 16.6911 4.07116 16.078L15.016 4.70569ZM2.91288 17.6071C3.44844 17.831 3.93493 18.1651 4.34312 18.5893C4.75131 19.0135 5.07279 19.5191 5.28825 20.0756L2.31836 20.6926L2.91288 17.6071Z" fill="black"/>
</svg>
