<svg width="492" height="471" viewBox="0 0 492 471" fill="none" xmlns="http://www.w3.org/2000/svg">
<g clip-path="url(#clip0)">
<path d="M277.76 468.72C258.594 459.643 250.941 438.063 248.237 417.973C247.781 414.614 246.825 411.166 247.915 407.973C249.005 404.781 252.375 402.155 255.59 403.056C258.26 403.802 259.828 406.505 261.619 408.652C264 411.51 267.192 413.668 270.707 414.803C273.021 415.548 275.757 415.771 277.66 414.269C280.274 412.2 279.94 408.162 279.35 404.847C278.26 398.674 277.181 392.489 276.091 386.315C275.513 383 274.923 379.619 275.424 376.293C275.924 372.967 277.704 369.663 280.719 368.239C283.722 366.827 287.938 367.983 289.15 371.12C289.651 372.422 289.618 373.879 289.94 375.236C290.263 376.593 291.164 378.017 292.543 378.173C293.934 378.34 295.102 377.172 295.925 376.037C298.784 372.11 300.374 367.394 301.82 362.744C303.266 358.083 304.635 353.333 307.115 349.151C309.607 344.968 313.411 341.353 318.117 340.274C322.822 339.206 328.384 341.275 330.375 345.736C332.366 350.208 330.442 355.414 328.117 359.707C324.657 366.07 320.286 371.921 315.18 377.016C314.257 377.939 313.267 378.929 313.066 380.231C312.722 382.567 315.191 384.402 317.494 384.769C320.108 385.17 322.744 384.469 325.38 384.335C328.017 384.202 331.02 384.869 332.411 387.15C334.346 390.309 332.11 394.347 329.707 397.15C324.913 402.756 319.151 407.517 312.766 411.166C310.475 412.467 308.039 413.691 306.359 415.737C304.679 417.784 304.001 420.966 305.58 423.101C307.171 425.237 310.341 425.471 312.822 424.57C315.302 423.669 317.349 421.889 319.629 420.554C323.901 418.062 329.841 417.384 333.423 420.821C335.781 423.09 336.56 426.661 336.115 429.92C335.67 433.168 334.146 436.161 332.477 438.975C326.615 448.786 318.428 457.273 308.472 462.724C298.55 468.141 288.917 470.789 277.76 468.72Z" fill="#F5F5F5"/>
<path d="M280.796 455.327C282.031 444.748 284.345 433.257 287.181 421.322C287.904 418.34 288.616 415.393 289.317 412.489C290.029 409.597 290.719 406.727 291.586 403.958C293.277 398.418 295.335 393.223 297.426 388.34C299.529 383.468 301.698 378.918 303.756 374.669C305.825 370.431 307.827 366.515 309.807 363.033C313.745 356.037 317.582 350.786 320.352 347.282C321.743 345.525 322.855 344.201 323.634 343.311C324.001 342.888 324.301 342.555 324.513 342.31C324.713 342.087 324.824 341.976 324.824 341.987C324.835 341.998 324.746 342.121 324.557 342.354C324.346 342.61 324.068 342.955 323.723 343.4C322.989 344.312 321.898 345.669 320.541 347.438C317.827 350.975 314.056 356.259 310.185 363.256C308.239 366.749 306.259 370.664 304.212 374.902C302.176 379.152 300.029 383.701 297.949 388.573C295.869 393.446 293.833 398.629 292.165 404.136C291.319 406.883 290.619 409.731 289.918 412.634C289.217 415.537 288.505 418.474 287.793 421.455C284.957 433.38 282.632 444.837 281.375 455.382" fill="#E0E0E0"/>
<path d="M291.754 403.902C291.709 403.913 291.52 403.435 291.186 402.545C290.853 401.655 290.419 400.353 289.907 398.74C288.884 395.515 287.616 391.021 286.236 386.048C284.857 381.076 283.533 376.604 282.454 373.412C281.92 371.81 281.475 370.52 281.164 369.63C280.852 368.74 280.697 368.239 280.73 368.217C280.775 368.206 280.997 368.673 281.386 369.541C281.776 370.408 282.287 371.676 282.866 373.267C284.056 376.437 285.446 380.909 286.826 385.881C288.172 390.787 289.395 395.225 290.33 398.618C290.764 400.142 291.12 401.432 291.42 402.467C291.676 403.379 291.798 403.891 291.754 403.902Z" fill="#E0E0E0"/>
<path d="M333.056 388.718C333.067 388.762 332.466 388.929 331.387 389.207C330.308 389.485 328.751 389.886 326.837 390.442C323 391.521 317.76 393.201 312.054 395.314C306.348 397.428 301.264 399.575 297.638 401.221C295.813 402.033 294.356 402.734 293.355 403.212C292.343 403.69 291.775 403.935 291.764 403.902C291.742 403.857 292.276 403.546 293.255 402.99C294.234 402.445 295.669 401.688 297.471 400.821C301.064 399.063 306.136 396.849 311.854 394.725C317.582 392.611 322.866 390.987 326.737 390.019C328.673 389.519 330.252 389.174 331.354 388.974C332.444 388.774 333.056 388.673 333.056 388.718Z" fill="#E0E0E0"/>
<path d="M281.186 454.448C281.164 454.459 281.041 454.303 280.808 453.981C280.541 453.592 280.218 453.124 279.818 452.557C278.961 451.322 277.771 449.498 276.336 447.229C273.455 442.69 269.662 436.294 265.579 429.186C261.497 422.067 257.771 415.649 254.99 411.054C253.633 408.819 252.509 406.983 251.675 405.626C251.319 405.037 251.018 404.547 250.785 404.147C250.585 403.802 250.496 403.624 250.507 403.602C250.529 403.59 250.651 403.757 250.885 404.069C251.152 404.458 251.475 404.925 251.875 405.493C252.732 406.727 253.922 408.552 255.357 410.821C258.238 415.359 262.031 421.755 266.113 428.875C270.196 435.983 273.922 442.412 276.703 447.006C278.071 449.231 279.184 451.078 280.018 452.435C280.374 453.024 280.674 453.514 280.908 453.914C281.108 454.248 281.208 454.437 281.186 454.448Z" fill="#E0E0E0"/>
<path d="M334.78 426.594C334.791 426.617 334.613 426.728 334.257 426.917C333.834 427.139 333.322 427.417 332.699 427.751C331.265 428.496 329.318 429.509 326.96 430.743C322.121 433.269 315.469 436.839 308.127 440.799C300.786 444.759 294.089 448.263 289.195 450.699C286.747 451.912 284.756 452.88 283.366 453.514C282.721 453.803 282.198 454.048 281.764 454.237C281.397 454.392 281.197 454.47 281.186 454.448C281.174 454.426 281.352 454.315 281.708 454.114C282.131 453.892 282.643 453.614 283.266 453.28C284.701 452.535 286.647 451.523 289.006 450.288C293.844 447.763 300.496 444.192 307.849 440.232C315.191 436.272 321.876 432.768 326.782 430.332C329.229 429.119 331.22 428.152 332.61 427.518C333.256 427.228 333.778 426.984 334.212 426.795C334.579 426.65 334.768 426.572 334.78 426.594Z" fill="#E0E0E0"/>
<path d="M138.669 229.96C138.669 229.96 125.454 231.796 132.874 260.74C140.293 289.684 146.589 304.6 146.589 304.6C146.589 304.6 147.59 311.152 142.295 310.952C137.012 310.752 126.233 306.458 122.573 312.165C118.78 318.082 122.095 325.202 130.382 332.666C138.669 340.13 156.233 357.138 157.813 358.684C159.37 360.197 160.549 363.412 156.923 363.845C153.297 364.279 127.568 361.265 126.867 373.556C126.166 385.848 152.674 402.834 155.533 404.747C158.391 406.66 158.848 408.151 158.202 409.82C157.557 411.477 149.014 409.653 141.661 409.097C134.309 408.54 125.688 409.174 125.877 416.305C126.066 423.435 139.982 441.444 180.594 454.826L199.816 459.798L214.021 445.805C242.609 414.002 245.735 391.465 242.364 385.181C238.983 378.907 231.185 382.633 225.078 386.771C218.971 390.909 212.464 396.749 211.084 395.626C209.705 394.502 209.349 392.978 210.884 389.897C212.419 386.816 226.98 358.895 220.262 348.584C213.543 338.261 192.719 353.667 189.36 355.091C186 356.515 185.422 353.133 186.023 351.053C186.623 348.928 193.42 325.435 196.902 314.845C200.383 304.256 199.727 296.425 193.498 293.176C187.491 290.04 180.272 299.128 175.789 301.92C171.306 304.723 168.914 298.538 168.914 298.538C168.914 298.538 166.957 282.464 159.014 253.654C151.072 224.843 138.402 230.005 138.402 230.005" fill="#EBEBEB"/>
<path d="M199.816 464.593C194.065 443.413 184.477 405.604 176.067 373.178C167.669 340.764 160.038 311.43 154.387 290.217C151.562 279.639 149.27 271.062 147.679 265.111C146.89 262.163 146.278 259.872 145.855 258.281C145.655 257.514 145.51 256.924 145.399 256.501C145.299 256.101 145.266 255.89 145.266 255.89C145.266 255.89 145.343 256.09 145.466 256.49C145.588 256.913 145.766 257.503 145.978 258.259C146.422 259.839 147.079 262.13 147.913 265.056C149.582 270.962 151.94 279.528 154.81 290.117C160.561 311.297 168.258 340.619 176.657 373.033C185.055 405.459 194.588 443.291 200.228 464.493" fill="#E0E0E0"/>
<path d="M137.412 318.783C137.434 318.75 137.879 318.994 138.68 319.462C139.481 319.929 140.605 320.641 141.995 321.531C144.765 323.322 148.536 325.88 152.64 328.794C156.678 331.675 160.327 334.278 163.13 336.27C164.398 337.159 165.466 337.916 166.323 338.517C167.079 339.039 167.491 339.351 167.468 339.384C167.446 339.418 166.99 339.184 166.2 338.717C165.41 338.25 164.276 337.538 162.896 336.625C160.138 334.812 156.411 332.198 152.307 329.284C148.246 326.436 144.576 323.855 141.773 321.887C140.504 320.997 139.437 320.251 138.569 319.651C137.79 319.128 137.39 318.816 137.412 318.783Z" fill="#E0E0E0"/>
<path d="M169.059 338.45C168.915 338.361 173.865 330.363 180.105 320.585C186.357 310.808 191.529 302.954 191.674 303.043C191.818 303.132 186.868 311.13 180.617 320.908C174.387 330.686 169.204 338.539 169.059 338.45Z" fill="#E0E0E0"/>
<path d="M179.716 388.807C179.694 388.774 180.061 388.418 180.773 387.784C181.573 387.083 182.575 386.204 183.776 385.158C186.301 382.945 189.783 379.864 193.498 376.326C197.225 372.8 200.484 369.485 202.82 367.071C203.921 365.937 204.855 364.98 205.59 364.212C206.246 363.545 206.624 363.178 206.657 363.211C206.691 363.245 206.368 363.656 205.768 364.379C205.167 365.102 204.266 366.126 203.131 367.372C200.873 369.863 197.647 373.234 193.921 376.782C190.194 380.331 186.657 383.367 184.054 385.503C182.753 386.571 181.685 387.417 180.928 387.984C180.172 388.551 179.738 388.84 179.716 388.807Z" fill="#E0E0E0"/>
<path d="M147.179 377.327C147.19 377.283 147.657 377.405 148.492 377.65C149.448 377.95 150.627 378.306 152.007 378.74C154.966 379.686 159.048 381.032 163.542 382.556C168.036 384.079 172.096 385.492 175.022 386.538C176.379 387.038 177.535 387.461 178.481 387.817C179.293 388.128 179.738 388.329 179.727 388.362C179.716 388.407 179.249 388.284 178.414 388.039C177.458 387.739 176.279 387.383 174.899 386.949C171.94 386.004 167.858 384.658 163.364 383.134C158.87 381.61 154.81 380.197 151.884 379.152C150.527 378.651 149.37 378.228 148.425 377.872C147.602 377.561 147.168 377.361 147.179 377.327Z" fill="#E0E0E0"/>
<path d="M150.939 422.979C150.95 422.934 151.55 423.09 152.618 423.402C153.797 423.758 155.31 424.225 157.135 424.781C160.939 425.971 166.178 427.651 171.962 429.553C177.747 431.444 182.964 433.202 186.735 434.492C188.537 435.126 190.027 435.649 191.184 436.06C192.23 436.439 192.808 436.672 192.786 436.717C192.775 436.761 192.174 436.605 191.106 436.294C189.927 435.938 188.414 435.471 186.59 434.915C182.786 433.724 177.547 432.045 171.762 430.143C165.989 428.252 160.761 426.494 156.99 425.204C155.188 424.57 153.697 424.047 152.54 423.635C151.495 423.257 150.928 423.023 150.939 422.979Z" fill="#E0E0E0"/>
<path d="M191.885 436.105C191.852 436.072 192.319 435.604 193.186 434.781C194.132 433.891 195.378 432.723 196.868 431.322C199.972 428.396 204.243 424.336 208.837 419.72C213.432 415.115 217.492 410.832 220.406 407.706C221.808 406.204 222.965 404.97 223.854 404.013C224.678 403.145 225.145 402.678 225.178 402.7C225.212 402.734 224.8 403.246 224.044 404.169C223.276 405.092 222.153 406.405 220.729 407.995C217.892 411.199 213.888 415.526 209.282 420.154C204.688 424.781 200.35 428.797 197.169 431.644C195.578 433.068 194.265 434.203 193.353 434.97C192.43 435.727 191.918 436.138 191.885 436.105Z" fill="#E0E0E0"/>
<path d="M81.2704 57.3538L70.4137 53.9722C70.4137 53.9722 67.566 63.0825 58.0441 60.2905C53.0941 58.8444 51.5479 54.8176 51.292 52.0256C50.9806 48.7886 52.371 45.6294 54.8071 43.4714C57.5992 41.0131 62.4936 39.5114 69.4014 43.0821L77.0323 18.61L66.2979 15.2617L61.8373 29.6002C61.8373 29.6002 45.5633 28.7993 40.3908 45.3847C35.4408 61.2582 48.5222 69.3897 54.618 71.2918C59.2789 72.7379 75.4972 76.5645 81.2704 57.3538Z" fill="#F5F5F5"/>
<path d="M67.7512 10.1754L78.646 13.5742L81.8195 3.40151L70.9247 0.00274443L67.7512 10.1754Z" fill="#F5F5F5"/>
<path d="M111.238 29.7114L115.587 28.5657C115.587 28.5657 114.619 24.9171 118.401 23.8492C120.359 23.293 121.727 24.3164 122.395 25.1952C123.184 26.2186 123.374 27.5645 123.018 28.7993C122.606 30.212 121.271 31.7359 118.212 31.9918L120.793 41.7917L125.087 40.6571L123.574 34.9173C123.574 34.9173 129.191 31.7693 127.434 25.1284C125.754 18.7768 119.669 18.799 117.222 19.4442C115.365 19.9337 109.124 22.0694 111.238 29.7114Z" fill="#EBEBEB"/>
<path d="M125.676 42.669L121.309 43.821L122.385 47.8974L126.751 46.7453L125.676 42.669Z" fill="#EBEBEB"/>
<path d="M470.312 142.294L474.539 143.829C474.539 143.829 475.829 140.281 479.533 141.549C481.457 142.205 482.003 143.829 482.058 144.931C482.125 146.221 481.524 147.434 480.512 148.246C479.366 149.169 477.408 149.669 474.739 148.134L471.29 157.667L475.473 159.18L477.497 153.596C477.497 153.596 483.905 154.208 486.252 147.745C488.488 141.56 483.471 138.123 481.09 137.255C479.277 136.61 472.937 134.808 470.312 142.294Z" fill="#EBEBEB"/>
<path d="M474.822 161.161L470.576 159.622L469.14 163.586L473.386 165.124L474.822 161.161Z" fill="#EBEBEB"/>
<path d="M21.7145 190.716L30.6579 187.268C30.6579 187.268 27.7658 179.759 35.519 176.611C39.5458 174.976 42.6715 176.823 44.3067 178.536C46.2089 180.516 46.943 183.319 46.4647 186.022C45.9085 189.103 43.4613 192.663 37.0207 193.92L44.7961 214.087L53.6395 210.683L49.0899 198.87C49.0899 198.87 60.2581 190.883 54.9966 177.212C49.9575 164.13 37.054 165.61 32.0373 167.545C28.1885 169.025 15.4629 174.998 21.7145 190.716Z" fill="#F5F5F5"/>
<path d="M55.3504 214.792L46.3721 218.251L49.6032 226.638L58.5815 223.179L55.3504 214.792Z" fill="#F5F5F5"/>
<path d="M473.793 224.654L467.452 227.102C467.452 227.102 469.499 232.43 464.004 234.655C461.145 235.811 458.932 234.499 457.775 233.298C456.429 231.896 455.906 229.905 456.251 227.992C456.64 225.8 458.375 223.286 462.936 222.396L457.43 208.102L451.156 210.516L454.382 218.892C454.382 218.892 446.462 224.554 450.199 234.243C453.77 243.509 462.914 242.463 466.473 241.095C469.21 240.016 478.22 235.789 473.793 224.654Z" fill="#F5F5F5"/>
<path d="M449.982 207.595L456.344 205.144L454.057 199.206L447.694 201.658L449.982 207.595Z" fill="#F5F5F5"/>
<path d="M491.702 470.633C491.702 470.789 381.744 470.922 246.135 470.922C110.481 470.922 0.545898 470.789 0.545898 470.633C0.545898 470.477 110.481 470.344 246.135 470.344C381.744 470.344 491.702 470.466 491.702 470.633Z" fill="#263238"/>
<path d="M71.0814 441.745C72.1381 437.651 69.4573 433.546 66.4428 430.576C63.4394 427.606 59.8464 424.948 58.278 421.021C55.7418 414.658 59.1456 406.427 54.8296 401.121C52.2823 397.995 47.7216 396.96 45.4635 393.623C44.2844 391.877 43.895 389.73 43.4278 387.661C41.0585 377.149 35.797 367.316 28.3775 359.496C27.8658 368.851 29.9237 378.339 34.2842 386.638C36.0306 389.975 38.1886 393.223 38.767 396.949C39.7125 402.99 36.3309 409.219 37.8215 415.159C39.5234 421.944 47.1432 426.494 47.5102 433.48C47.8106 439.386 42.6714 444.57 43.0496 450.477C43.2165 452.991 44.3845 455.327 45.6748 457.485C50.2467 465.082 56.9543 470.31 67.1213 470.132L79.5799 470.566L71.0814 441.745Z" fill="#FFDB58"/>
<g opacity="0.3">
<g opacity="0.3">
<g opacity="0.3">
<g opacity="0.3">
<path opacity="0.3" d="M71.0814 441.745C72.1381 437.651 69.4573 433.546 66.4428 430.576C63.4394 427.606 59.8464 424.948 58.278 421.021C55.7418 414.658 59.1456 406.427 54.8296 401.121C52.2823 397.995 47.7216 396.96 45.4635 393.623C44.2844 391.877 43.895 389.73 43.4278 387.661C41.0585 377.149 35.797 367.316 28.3775 359.496C27.8658 368.851 29.9237 378.339 34.2842 386.638C36.0306 389.975 38.1886 393.223 38.767 396.949C39.7125 402.99 36.3309 409.219 37.8215 415.159C39.5234 421.944 47.1432 426.494 47.5102 433.48C47.8106 439.386 42.6714 444.57 43.0496 450.477C43.2165 452.991 44.3845 455.327 45.6748 457.485C50.2467 465.082 56.9543 470.31 67.1213 470.132L79.5799 470.566L71.0814 441.745Z" fill="black"/>
</g>
</g>
</g>
</g>
<path d="M82.0936 470.9C82.0936 470.9 83.2838 471.178 85.5197 470.822C86.632 470.655 88.0114 470.366 89.5687 469.799C91.1149 469.231 92.8836 468.43 94.5632 467.062C95.3753 466.35 96.1873 465.483 96.6211 464.326C97.055 463.169 97.1328 461.901 97.2107 460.599C97.2774 459.298 97.2774 457.941 97.4999 456.572C97.7113 455.204 98.2452 453.858 99.0238 452.568C100.492 449.987 102.928 447.551 103.718 444.047C104.575 440.599 103.963 436.872 103.384 433.124C102.806 429.386 102.25 425.315 103.674 421.422C105.008 417.528 107.745 414.013 109.102 409.619C110.459 405.181 109.825 400.409 110.114 395.704C110.248 393.345 110.704 390.976 111.738 388.785C112.75 386.582 114.141 384.502 115.231 382.177C117.445 377.483 117.834 372.166 118.435 366.96C118.735 364.335 119.024 361.676 119.325 359.006C119.625 356.314 119.859 353.634 120.704 351.042C121.471 348.428 122.584 345.903 123.685 343.333C124.219 342.043 124.797 340.741 125.131 339.306C125.376 337.838 125.443 336.459 125.532 335.024C125.676 332.165 125.554 329.273 125.198 326.403C124.864 323.533 124.341 320.674 124.03 317.793C124.008 317.626 123.997 317.448 123.974 317.293L123.908 316.714L123.396 316.97C120.726 318.305 118.446 320.296 116.688 322.632C114.909 324.946 113.607 327.56 112.573 330.229C110.492 335.58 109.747 341.186 108.69 346.537C107.667 351.887 106.321 357.149 103.573 361.598C102.205 363.812 100.559 365.836 99.1128 368.006C97.6668 370.152 96.3987 372.511 96.0204 375.102C95.2863 380.375 98.1896 385.003 97.5778 389.663C97.3664 391.977 96.4431 394.146 95.3085 396.126C94.1739 398.117 92.8502 399.964 91.5821 401.822C90.3251 403.679 89.1237 405.559 88.2339 407.573C87.3328 409.575 86.8434 411.722 86.6988 413.813C86.3984 418.018 86.988 422 86.6877 425.76C86.4318 429.531 85.1081 432.946 83.6175 435.994C82.1158 439.064 80.4361 441.834 79.0345 444.514C78.3226 445.86 77.6775 447.173 77.1435 448.486C76.5762 449.798 76.3092 451.144 76.0534 452.423C75.6418 455.004 75.6863 457.407 75.9644 459.531C76.5095 463.803 78.1002 466.873 79.524 468.597C79.8466 469.053 80.2359 469.387 80.5362 469.687C80.8255 469.999 81.1147 470.21 81.3594 470.377C81.8488 470.744 82.0936 470.9 82.0936 470.9C82.1492 470.833 81.0702 470.266 79.6797 468.519C78.3115 466.784 76.7876 463.736 76.2981 459.509C76.0534 457.418 76.0311 455.037 76.4538 452.501C76.7208 451.244 76.9989 449.932 77.5551 448.652C78.089 447.362 78.7453 446.061 79.4572 444.737C80.87 442.078 82.5608 439.308 84.107 436.227C85.6309 433.157 87.0102 429.675 87.2883 425.815C87.6109 421.978 87.0325 417.973 87.3551 413.869C87.4997 411.822 87.978 409.775 88.8568 407.84C89.7244 405.893 90.9035 404.046 92.1605 402.211C93.4175 400.364 94.7635 398.518 95.9315 396.482C97.0994 394.469 98.0672 392.211 98.3119 389.752C98.9126 384.78 96.0316 380.119 96.7769 375.225C97.1328 372.8 98.3453 370.542 99.758 368.439C101.182 366.315 102.839 364.29 104.241 362.01C107.066 357.438 108.446 352.065 109.48 346.693C110.537 341.309 111.293 335.758 113.329 330.519C114.341 327.916 115.62 325.368 117.345 323.121C119.047 320.863 121.227 318.972 123.763 317.693L123.185 317.37C123.207 317.526 123.218 317.704 123.24 317.871C123.552 320.785 124.074 323.644 124.408 326.481C124.753 329.317 124.875 332.154 124.742 334.968C124.664 336.359 124.575 337.816 124.364 339.128C124.063 340.441 123.496 341.731 122.962 343.011C121.872 345.569 120.737 348.139 119.959 350.808C119.091 353.467 118.846 356.248 118.557 358.906C118.257 361.587 117.968 364.246 117.678 366.871C117.089 372.11 116.688 377.338 114.564 381.866C113.507 384.124 112.116 386.204 111.082 388.484C110.014 390.753 109.536 393.256 109.413 395.659C109.146 400.464 109.769 405.17 108.468 409.419C107.178 413.657 104.463 417.195 103.084 421.21C101.616 425.27 102.227 429.475 102.817 433.202C103.418 436.95 104.018 440.599 103.217 443.914C102.494 447.262 100.125 449.676 98.6345 452.334C97.8559 453.647 97.2997 455.082 97.0883 456.495C96.8658 457.918 96.877 459.276 96.8214 460.577C96.7546 461.856 96.6879 463.113 96.2874 464.192C95.8981 465.271 95.1305 466.117 94.3519 466.817C92.7278 468.163 90.9925 468.987 89.4686 469.565C87.9335 470.143 86.5764 470.466 85.4752 470.644C84.3739 470.844 83.5174 470.878 82.939 470.889C82.3939 470.889 82.0936 470.9 82.0936 470.9Z" fill="#263238"/>
<path d="M121.45 324.156C121.438 324.156 121.394 324.278 121.327 324.534C121.249 324.834 121.16 325.201 121.049 325.657C120.804 326.636 120.515 328.116 120.037 329.973C119.547 331.82 118.413 333.911 117.456 336.481C116.455 339.028 115.432 341.987 114.497 345.313C113.552 348.639 112.706 352.321 111.827 356.27C110.915 360.219 110.014 364.446 107.845 368.439C106.822 370.464 105.676 372.511 104.764 374.746C103.83 376.982 103.318 379.441 102.973 381.899C102.372 386.838 101.471 391.844 100.292 396.972C97.7894 407.183 95.42 416.905 93.2509 425.749C91.0373 434.57 89.035 442.523 87.3442 449.22C85.709 455.86 84.3742 461.255 83.4287 465.06C82.9948 466.884 82.65 468.33 82.4053 469.376C82.3052 469.832 82.2273 470.199 82.1606 470.499C82.105 470.755 82.0938 470.889 82.105 470.889C82.1161 470.889 82.1606 470.766 82.2384 470.521C82.3274 470.232 82.4275 469.865 82.561 469.409C82.8502 468.375 83.2396 466.94 83.729 465.127C84.7301 461.333 86.1429 455.961 87.8893 449.342C89.6246 442.657 91.6825 434.714 93.9628 425.915C96.1542 417.061 98.5458 407.339 101.071 397.127C102.25 392.01 103.162 386.905 103.752 381.999C104.097 379.563 104.575 377.194 105.476 375.024C106.355 372.844 107.489 370.809 108.513 368.762C110.704 364.702 111.616 360.341 112.484 356.415C113.34 352.454 114.141 348.773 115.053 345.458C115.954 342.143 116.922 339.184 117.89 336.637C118.802 334.067 119.903 331.965 120.359 330.051C120.793 328.16 121.027 326.692 121.227 325.691C121.305 325.235 121.372 324.857 121.427 324.556C121.449 324.3 121.472 324.167 121.45 324.156Z" fill="#263238"/>
<path d="M84.2962 470.933C92.4276 466.094 94.7636 451.422 91.3709 442.579C87.9781 433.747 82.0381 425.671 81.1259 416.249C80.4251 409.008 82.7945 401.577 81.1037 394.502C78.8233 384.947 69.5017 377.55 69.6129 367.739C69.6685 362.232 72.8054 357.049 72.5607 351.543C72.2492 344.79 67.0767 339.44 63.8619 333.489C58.9453 324.39 58.6227 313.622 56.943 303.421C55.2633 293.221 51.37 282.286 42.3265 277.27C40.9916 285.935 38.7112 291.864 39.4232 303.61C39.679 307.826 44.5734 315.891 45.2409 325.135C45.6413 330.652 45.9194 336.192 46.2531 341.709C46.5868 347.082 46.9317 352.566 48.8561 357.594C50.3355 361.454 52.7049 364.947 53.8061 368.929C55.864 376.415 53.1609 384.524 54.8295 392.111C56.2422 398.54 60.6917 404.069 61.6038 410.587C62.8831 419.742 56.9541 429.264 59.9909 437.996C61.4926 442.334 65.0633 445.816 66.0756 450.288C66.8653 453.758 66.0088 457.44 66.7207 460.922C67.8665 466.539 78.5897 470.911 84.3073 470.555" fill="#FFDB58"/>
<path d="M44.5735 285.868C44.5624 285.868 44.5735 286.035 44.6069 286.358C44.6514 286.725 44.7181 287.192 44.7849 287.781C44.974 289.027 45.1853 290.874 45.608 293.243C46.0641 295.635 47.2988 298.327 48.2777 301.564C49.3122 304.801 50.3467 308.527 51.2589 312.71C52.1821 316.881 52.9608 321.509 53.7839 326.481C54.6293 331.42 55.4859 336.87 57.9553 342.043C59.1011 344.646 60.3803 347.249 61.3369 350.019C62.3269 352.777 62.7719 355.758 63.05 358.806C63.4727 364.947 64.2847 371.332 65.4416 377.761C67.9333 390.598 70.3026 402.823 72.4718 413.958C74.7521 425.048 76.7989 435.037 78.5231 443.447C80.2695 451.789 81.6822 458.564 82.6722 463.314C83.1728 465.616 83.5621 467.418 83.8402 468.709C83.9737 469.287 84.0849 469.754 84.1628 470.11C84.2406 470.422 84.2851 470.588 84.2963 470.577C84.3074 470.577 84.2851 470.411 84.2406 470.088C84.1739 469.732 84.096 469.265 83.9959 468.675C83.7512 467.385 83.4064 465.572 82.9725 463.258C82.0381 458.508 80.7144 451.712 79.0681 443.347C77.3884 434.926 75.3973 424.926 73.1837 413.824C71.0479 402.7 68.6897 390.476 66.2202 377.639C65.0745 371.198 64.2625 364.913 63.8286 358.751C63.5394 355.681 63.0722 352.61 62.0488 349.785C61.0588 346.948 59.7574 344.334 58.6227 341.765C56.1755 336.659 55.3079 331.342 54.4291 326.381C53.5837 321.42 52.7717 316.781 51.8039 312.598C50.8473 308.416 49.7794 304.678 48.6893 301.441C47.6548 298.182 46.3867 295.524 45.8972 293.188C45.43 290.852 45.1742 288.994 44.9295 287.759C44.8182 287.17 44.7292 286.714 44.6625 286.347C44.6291 286.024 44.5846 285.868 44.5735 285.868Z" fill="#263238"/>
<path d="M436.874 53.4941H432.446C432.446 53.4941 432.446 57.2094 428.586 57.2762C426.584 57.3096 425.538 55.997 425.116 54.9847C424.626 53.8167 424.771 52.4819 425.427 51.4029C426.184 50.1681 427.819 49.0335 430.811 49.5675V39.5784H426.428V45.4294C426.428 45.4294 420.288 47.0201 420.288 53.7833C420.288 60.2573 426.095 61.759 428.575 61.759C430.477 61.7702 436.951 61.303 436.874 53.4941Z" fill="#FFDB58"/>
<path d="M426.376 37.5303H430.814V33.3811H426.376V37.5303Z" fill="#FFDB58"/>
<path d="M461.123 47.5651C461.134 47.5651 461.134 47.376 461.134 47.0089C461.123 46.5973 461.112 46.0522 461.09 45.3626C461.067 44.9955 461.079 44.595 461.034 44.1501C460.967 43.7051 460.901 43.2157 460.834 42.6929C460.756 42.1701 460.678 41.6028 460.589 41.0021C460.444 40.4125 460.289 39.7785 460.122 39.111C459.432 36.4525 458.264 33.2266 456.117 29.934C454.004 26.6414 450.978 23.2153 446.874 20.4455C442.758 17.7202 437.585 15.6178 431.768 15.0616C430.31 15.006 428.831 14.828 427.329 14.9726C426.584 15.0282 425.816 15.006 425.06 15.1172C424.304 15.2285 423.536 15.3508 422.768 15.462C419.732 16.085 416.628 16.986 413.736 18.5433C410.833 20.0673 408.074 22.0362 405.616 24.4389C403.213 26.8861 401.122 29.756 399.509 32.9374C397.885 36.1188 396.761 39.6339 396.327 43.2936C396.149 44.2057 396.149 45.129 396.094 46.0522C396.038 46.9755 395.994 47.9099 396.038 48.8443C396.116 50.7131 396.35 52.593 396.75 54.4395C397.607 58.4663 399.242 62.2484 401.433 65.5743L401.4 65.2406C399.854 69.1006 398.33 72.8937 396.85 76.5868L396.583 77.2542L397.284 77.0651C401.444 75.9194 405.493 74.807 409.42 73.728L409.12 73.6724C413.347 76.8538 418.185 78.8894 422.98 79.7237C425.371 80.1464 427.774 80.3244 430.077 80.1686C431.234 80.1242 432.379 80.0685 433.492 79.8461C434.048 79.7571 434.604 79.6792 435.149 79.5902C435.694 79.4901 436.228 79.3232 436.751 79.1898C445.294 76.9984 451.601 71.7369 455.205 66.531C457.041 63.928 458.364 61.3473 459.176 59.0002C459.388 58.4107 459.588 57.8434 459.788 57.2983C459.933 56.7421 460.066 56.1971 460.2 55.6854C460.322 55.1737 460.444 54.6842 460.567 54.2059C460.656 53.7276 460.711 53.2715 460.767 52.8488C460.878 51.9923 461.023 51.2359 461.056 50.5796C461.078 49.9344 461.101 49.3782 461.112 48.911C461.123 48.4883 461.123 48.1546 461.134 47.8877C461.134 47.6874 461.134 47.5651 461.123 47.5651C461.112 47.5651 461.101 47.6763 461.079 47.9099C461.056 48.1657 461.034 48.4995 461.001 48.9222C460.967 49.3782 460.934 49.9344 460.889 50.5796C460.834 51.2359 460.678 51.9812 460.545 52.8266C459.933 56.1637 458.598 61.1694 454.86 66.2863C451.245 71.392 445.005 76.5201 436.606 78.6225C436.084 78.7448 435.561 78.9117 435.027 79.0007C434.482 79.0785 433.948 79.1675 433.392 79.2454C432.301 79.4567 431.178 79.5012 430.043 79.5457C427.774 79.6903 425.427 79.5124 423.08 79.0896C418.386 78.2442 413.658 76.242 409.52 73.1162L409.387 73.0161L409.22 73.0606C405.304 74.1285 401.244 75.2297 397.084 76.3755L397.506 76.8538C398.997 73.1607 400.521 69.3675 402.078 65.5076L402.145 65.3296L402.034 65.1739C399.887 61.9146 398.296 58.2105 397.451 54.2838C397.062 52.4706 396.839 50.6463 396.761 48.8109C396.717 47.8988 396.75 46.9866 396.806 46.0745C396.861 45.1735 396.861 44.2613 397.028 43.3714C397.451 39.7896 398.541 36.3524 400.132 33.2377C401.7 30.1231 403.736 27.3199 406.094 24.9061C408.497 22.5479 411.189 20.6123 414.025 19.1106C416.851 17.5756 419.899 16.6745 422.869 16.0627C423.625 15.9515 424.37 15.8291 425.104 15.7179C425.85 15.6067 426.595 15.6178 427.329 15.5622C428.809 15.4176 430.255 15.5844 431.69 15.6289C437.396 16.1517 442.491 18.1874 446.562 20.8348C450.622 23.5379 453.637 26.8861 455.75 30.1231C457.908 33.3601 459.098 36.5303 459.822 39.1555C460 39.8118 460.166 40.4348 460.322 41.0243C460.422 41.625 460.511 42.1812 460.6 42.704C460.689 43.2268 460.767 43.7051 460.834 44.139C460.878 44.5839 460.889 44.9844 460.923 45.3403C460.978 46.03 461.012 46.5751 461.045 46.9755C461.09 47.376 461.112 47.5651 461.123 47.5651Z" fill="#263238"/>
<path d="M129.403 178.758H193.642C193.642 178.758 193.642 124.819 249.695 123.851C278.805 123.351 293.9 142.417 300.029 157.034C307.149 173.997 304.991 193.33 295.457 209.07C284.556 227.035 261.096 245.089 217.803 237.458L217.391 380.587H280.919V295.735C280.919 295.735 370.009 272.709 370.009 174.52C370.009 80.5803 294.045 60.2906 253.21 58.978C230.495 58.255 222.252 57.2761 194.154 61.2695C158.358 66.353 128.646 107.922 129.403 178.758Z" fill="#FFDB58"/>
<path d="M281.686 410.42H217.213V470.633H281.686V410.42Z" fill="#FFDB58"/>
<path opacity="0.1" d="M281.686 410.42H217.213V470.633H281.686V410.42Z" fill="black"/>
<path opacity="0.1" d="M129.403 178.758H193.642C193.642 178.758 193.642 124.819 249.695 123.851C278.805 123.351 293.9 142.417 300.029 157.034C307.149 173.997 304.991 193.33 295.457 209.07C284.556 227.035 261.096 245.089 217.803 237.458L217.391 380.587H280.919V295.735C280.919 295.735 370.009 272.709 370.009 174.52C370.009 80.5803 294.045 60.2906 253.21 58.978C230.495 58.255 222.252 57.2761 194.154 61.2695C158.358 66.353 128.646 107.922 129.403 178.758Z" fill="black"/>
<path d="M102.795 178.758H167.034C167.034 178.758 167.034 124.819 223.087 123.851C252.197 123.351 267.292 142.417 273.421 157.033C280.541 173.997 278.383 193.33 268.85 209.07C257.948 227.035 234.077 243.365 190.783 235.734V380.587H254.311V295.735C254.311 295.735 343.401 272.709 343.401 174.52C343.401 80.5802 259.161 58.7555 223.098 58.7666C195.522 58.7555 101.582 65.4297 102.795 178.758Z" fill="#FFDB58"/>
<path opacity="0.3" d="M102.795 178.758H167.034C167.034 178.758 167.034 124.819 223.087 123.851C252.197 123.351 267.292 142.417 273.421 157.033C280.541 173.997 278.383 193.33 268.85 209.07C257.948 227.035 234.077 243.365 190.783 235.734V380.587H254.311V295.735C254.311 295.735 343.401 272.709 343.401 174.52C343.401 80.5802 259.161 58.7555 223.098 58.7666C195.522 58.7555 101.582 65.4297 102.795 178.758Z" fill="black"/>
<path d="M255.078 410.42H190.605V470.633H255.078V410.42Z" fill="#FFDB58"/>
<path opacity="0.3" d="M255.078 410.42H190.605V470.633H255.078V410.42Z" fill="black"/>
<path d="M230.339 124.152C230.339 124.174 230.005 124.152 229.382 124.096C228.748 124.063 227.836 123.885 226.646 123.874C224.265 123.718 220.806 123.774 216.568 124.297C212.341 124.83 207.346 125.876 202.029 127.712C199.382 128.668 196.634 129.758 193.931 131.193C191.206 132.573 188.503 134.263 186.011 136.321C183.497 138.357 181.372 140.737 179.526 143.173C177.668 145.61 176.055 148.09 174.665 150.537C171.928 155.465 170.071 160.215 168.914 164.32C167.735 168.413 167.212 171.839 166.978 174.209C166.845 175.399 166.8 176.322 166.778 176.945C166.745 177.568 166.711 177.902 166.689 177.902C166.667 177.902 166.656 177.568 166.656 176.945C166.656 176.311 166.656 175.388 166.756 174.186C166.923 171.795 167.379 168.335 168.513 164.197C169.626 160.059 171.461 155.254 174.198 150.27C175.588 147.801 177.201 145.287 179.07 142.818C180.927 140.359 183.074 137.934 185.633 135.865C188.169 133.774 190.905 132.072 193.664 130.682C196.401 129.235 199.181 128.145 201.851 127.2C207.224 125.364 212.263 124.352 216.523 123.874C220.784 123.407 224.277 123.407 226.657 123.64C227.858 123.685 228.771 123.907 229.393 123.974C230.016 124.074 230.35 124.13 230.339 124.152Z" fill="#263238"/>
<path d="M327.138 112.683C327.127 112.683 327.06 112.605 326.926 112.427C326.782 112.227 326.593 111.971 326.359 111.649C325.847 110.926 325.147 109.925 324.246 108.645C323.778 108 323.3 107.255 322.711 106.487C322.088 105.742 321.42 104.93 320.708 104.051C319.985 103.172 319.218 102.238 318.406 101.248C317.571 100.28 316.593 99.3348 315.625 98.2892C314.624 97.2769 313.634 96.1534 312.51 95.0855C311.353 94.0399 310.163 92.9609 308.917 91.8374C308.294 91.2812 307.682 90.6917 307.015 90.1355C306.336 89.6015 305.647 89.0565 304.946 88.5003C303.533 87.4102 302.132 86.2311 300.608 85.1298C294.512 80.7137 287.382 76.4644 279.562 72.6935C277.582 71.8036 275.624 70.9137 273.699 70.0461C271.731 69.2785 269.784 68.5221 267.871 67.788C265.98 66.9982 264.044 66.442 262.175 65.8302C260.295 65.2518 258.482 64.5732 256.647 64.1394C254.823 63.6611 253.054 63.1939 251.33 62.7378C249.606 62.2817 247.892 62.0148 246.257 61.6588C244.611 61.3473 243.043 60.9469 241.496 60.7467C239.961 60.5242 238.482 60.3128 237.069 60.1015C234.255 59.6232 231.674 59.523 229.427 59.3006C228.304 59.2116 227.247 59.0892 226.279 59.0447C225.311 59.0225 224.433 59.0002 223.632 58.978C222.074 58.9224 220.84 58.889 219.961 58.8556C219.572 58.8334 219.249 58.8222 219.004 58.8111C218.793 58.8 218.682 58.7889 218.682 58.7778C218.682 58.7666 218.793 58.7555 219.004 58.7555C219.249 58.7555 219.572 58.7444 219.961 58.7444C220.84 58.7444 222.074 58.7444 223.632 58.7555C224.433 58.7666 225.322 58.7666 226.29 58.7778C227.258 58.8111 228.315 58.9112 229.449 58.9891C231.707 59.1893 234.299 59.2561 237.125 59.7121C238.537 59.9012 240.028 60.1015 241.563 60.3128C243.109 60.4908 244.689 60.8913 246.346 61.1916C247.993 61.5364 249.706 61.8034 251.441 62.2483C253.176 62.6933 254.956 63.1605 256.791 63.6277C258.638 64.0504 260.451 64.7178 262.342 65.3074C264.222 65.9192 266.169 66.4754 268.071 67.2651C269.984 68.0104 271.942 68.7557 273.922 69.5233C275.857 70.402 277.826 71.2808 279.806 72.1818C287.66 75.9639 294.812 80.2465 300.919 84.7071C302.454 85.8084 303.856 87.0097 305.269 88.111C305.969 88.6672 306.659 89.2233 307.338 89.7573C308.005 90.3135 308.617 90.9141 309.24 91.4703C310.474 92.6049 311.676 93.7062 312.822 94.7518C313.945 95.8308 314.935 96.9654 315.925 97.9888C316.893 99.0344 317.861 100.002 318.695 100.981C319.496 101.982 320.263 102.928 320.964 103.818C321.676 104.708 322.332 105.531 322.933 106.287C323.5 107.077 323.979 107.822 324.424 108.49C325.291 109.791 325.97 110.826 326.448 111.56C326.659 111.893 326.826 112.16 326.96 112.361C327.093 112.583 327.149 112.672 327.138 112.683Z" fill="#263238"/>
<path d="M320.441 250.606C320.452 250.617 320.285 250.851 319.952 251.274C319.573 251.741 319.084 252.353 318.472 253.12C317.827 253.921 317.026 254.889 316.047 255.968C315.068 257.058 314 258.326 312.699 259.627C311.431 260.962 310.04 262.408 308.461 263.888C306.926 265.412 305.19 266.936 303.377 268.56C299.695 271.73 295.502 275.056 290.897 278.26C286.269 281.43 281.664 284.166 277.392 286.48C275.234 287.592 273.188 288.683 271.219 289.573C269.272 290.518 267.426 291.308 265.724 292.02C264.044 292.765 262.475 293.321 261.118 293.844C259.761 294.378 258.571 294.778 257.592 295.101C256.658 295.401 255.912 295.646 255.345 295.835C254.833 295.991 254.555 296.069 254.544 296.047C254.533 296.024 254.8 295.913 255.301 295.724C255.857 295.513 256.591 295.234 257.514 294.89C258.482 294.545 259.65 294.111 260.996 293.544C262.342 292.987 263.899 292.409 265.557 291.642C267.236 290.907 269.072 290.106 270.996 289.139C272.954 288.238 274.979 287.136 277.125 286.013C281.375 283.688 285.935 280.941 290.552 277.781C295.146 274.6 299.328 271.296 303.01 268.159C304.823 266.558 306.57 265.056 308.105 263.543C309.684 262.086 311.097 260.651 312.376 259.349C313.689 258.07 314.779 256.824 315.769 255.756C316.77 254.7 317.593 253.754 318.261 252.975C318.906 252.241 319.429 251.652 319.829 251.207C320.23 250.806 320.43 250.595 320.441 250.606Z" fill="#263238"/>
<path d="M253.187 375.536C253.031 375.536 252.898 357.672 252.898 335.636C252.898 313.589 253.031 295.724 253.187 295.724C253.343 295.724 253.476 313.589 253.476 335.636C253.476 357.672 253.343 375.536 253.187 375.536Z" fill="#263238"/>
<path d="M255.634 466.551C255.479 466.551 255.345 454.014 255.345 438.552C255.345 423.079 255.479 410.543 255.634 410.543C255.79 410.543 255.924 423.079 255.924 438.552C255.924 454.014 255.79 466.551 255.634 466.551Z" fill="#263238"/>
<path d="M318.873 170.226C317.75 172.462 321.91 174.275 324.302 174.998C326.704 175.721 329.263 175.643 331.755 175.51C335.069 175.332 338.507 175.021 341.388 173.374C343.946 171.906 345.859 169.492 347.194 166.867C348.529 164.231 349.341 161.372 350.142 158.535C350.153 158.524 323.868 160.248 318.873 170.226Z" fill="#FFDB58"/>
<g opacity="0.4">
<path opacity="0.4" d="M318.873 170.226C317.75 172.462 321.91 174.275 324.302 174.998C326.704 175.721 329.263 175.643 331.755 175.51C335.069 175.332 338.507 175.021 341.388 173.374C343.946 171.906 345.859 169.492 347.194 166.867C348.529 164.231 349.341 161.372 350.142 158.535C350.153 158.524 323.868 160.248 318.873 170.226Z" fill="black"/>
</g>
<path d="M393.112 163.096C397.406 166.155 402.678 167.812 407.951 167.757C410.476 167.723 413.157 167.234 415.015 165.532C415.871 164.753 416.516 163.741 417.395 162.996C417.996 162.484 418.697 162.095 419.264 161.539C419.831 160.983 420.254 160.193 420.087 159.425C419.909 158.635 419.253 157.367 418.552 156.967C415.537 155.254 411.933 155.321 408.463 155.398C404.992 155.476 401.577 156.288 398.285 157.39C395.593 158.291 392.778 159.57 391.41 162.062" fill="#E8505B"/>
<g opacity="0.4">
<path opacity="0.4" d="M420.076 159.436C419.898 158.646 418.808 157.601 418.107 157.2C415.093 155.487 411.923 155.331 408.452 155.409C404.981 155.487 401.566 156.299 398.274 157.4C395.582 158.301 392.768 159.581 391.399 162.072L393.112 163.096C397.406 166.155 402.679 167.812 407.952 167.757C410.477 167.723 413.157 167.234 415.015 165.532C415.872 164.753 416.517 163.741 417.396 162.996C417.996 162.484 418.697 162.095 419.264 161.538C419.821 160.993 420.254 160.204 420.076 159.436Z" fill="black"/>
</g>
<path d="M341.81 203.03L397.262 203.753C397.751 203.764 398.096 203.286 397.951 202.819L391.444 182.529C391.444 182.529 392.401 172.395 393.724 160.193C395.738 141.683 398.408 118.401 398.441 118.457C394.659 107.822 372.278 106.02 372.278 106.02L346.771 107.533L345.87 106.031L338.529 109.446C336.927 110.192 335.392 111.059 333.923 112.038C329.085 115.286 317.394 122.717 315.258 131.015C310.33 150.193 318.673 171.606 318.673 171.606L324.023 167.423C325.425 166.366 326.749 165.443 328.273 164.587L339.018 193.386C339.018 193.386 336.782 194.743 336.682 197.079C336.615 199.415 337.861 202.229 341.81 203.03Z" fill="#FFDB58"/>
<g opacity="0.3">
<path opacity="0.3" d="M365.581 169.081C367.339 159.625 366.416 149.903 365.47 140.337C362.389 148.168 362.5 156.989 359.241 164.742C358.885 165.577 358.496 166.411 358.373 167.312C358.251 168.213 358.44 169.203 359.118 169.815C360.008 170.627 361.321 170.193 362.511 170.048C363.779 169.904 364.447 169.47 365.581 169.081Z" fill="black"/>
</g>
<g opacity="0.4">
<path opacity="0.4" d="M345.158 190.961C349.63 192.518 354.347 189.637 359.052 189.126C362.167 188.792 365.281 189.504 368.374 190.004C374.614 191.017 380.999 191.172 387.284 190.472C388.241 190.36 389.231 190.227 390.065 189.748C390.899 189.27 391.578 187.946 391.522 186.99C381.055 185.911 370.576 185.277 360.109 184.198C357.484 183.931 354.769 183.664 352.255 184.442C349.085 185.421 346.649 187.913 344.424 190.36" fill="black"/>
</g>
<path d="M418.486 155.765C413.948 145.576 397.996 117.366 397.996 117.366L385.638 132.862L388.519 163.285C388.519 163.285 395.048 155.999 413.302 155.854C417.552 155.821 420.099 159.436 420.099 159.436L418.486 155.765Z" fill="#FFDB58"/>
<path d="M344.268 150.382C344.113 150.426 343.178 147.445 342.188 143.73C341.187 140.014 340.509 136.966 340.664 136.922C340.82 136.877 341.754 139.859 342.744 143.574C343.734 147.289 344.424 150.337 344.268 150.382Z" fill="#263238"/>
<path d="M384.692 130.804C384.714 130.771 385.126 131.127 385.838 131.772C386.527 132.439 387.517 133.44 388.596 134.797C390.754 137.467 393.391 141.65 394.503 146.878C395.059 149.481 395.148 152.039 394.859 154.331C394.57 156.611 394.136 158.613 393.858 160.304C393.569 161.995 393.391 163.374 393.302 164.331C393.213 165.287 393.191 165.821 393.146 165.821C393.113 165.821 393.057 165.287 393.079 164.32C393.102 163.352 393.213 161.95 393.458 160.248C393.691 158.535 394.08 156.522 394.336 154.275C394.592 152.039 394.481 149.547 393.947 147.011C392.868 141.905 390.343 137.767 388.285 135.064C386.205 132.306 384.603 130.882 384.692 130.804Z" fill="#263238"/>
<path d="M373.368 200.605C373.379 200.639 372.945 200.772 372.156 200.961C371.766 201.061 371.277 201.172 370.71 201.239C370.142 201.317 369.497 201.439 368.763 201.473C367.317 201.617 365.582 201.606 363.668 201.439C361.755 201.239 359.675 200.861 357.55 200.216C355.437 199.548 353.501 198.681 351.81 197.757C350.142 196.812 348.707 195.833 347.595 194.899C347.016 194.465 346.549 193.998 346.126 193.608C345.692 193.23 345.359 192.863 345.092 192.552C344.547 191.951 344.269 191.606 344.291 191.584C344.369 191.506 345.57 192.841 347.839 194.576C348.963 195.455 350.398 196.378 352.055 197.29C353.724 198.169 355.637 199.003 357.706 199.66C359.786 200.294 361.833 200.683 363.713 200.905C365.593 201.095 367.295 201.139 368.73 201.061C371.599 200.917 373.346 200.494 373.368 200.605Z" fill="#263238"/>
<path d="M390.487 194.265C390.554 194.253 390.776 194.854 390.91 195.889C391.043 196.912 391.066 198.391 390.61 199.938C390.165 201.495 389.241 202.719 388.429 203.386C387.617 204.065 386.994 204.276 386.961 204.22C386.917 204.142 387.451 203.798 388.151 203.086C388.841 202.385 389.642 201.228 390.053 199.771C390.91 196.834 390.276 194.276 390.487 194.265Z" fill="#263238"/>
<path d="M387.473 198.18C387.618 198.147 387.907 199.771 387.195 201.606C386.494 203.442 385.181 204.443 385.092 204.32C384.97 204.198 386.005 203.097 386.65 201.395C387.328 199.704 387.306 198.18 387.473 198.18Z" fill="#263238"/>
<path d="M377.551 161.572C377.673 161.694 376.638 162.851 375.571 164.42C374.492 165.977 373.78 167.356 373.624 167.29C373.479 167.234 373.98 165.71 375.092 164.097C376.194 162.473 377.451 161.461 377.551 161.572Z" fill="#263238"/>
<path d="M339.485 134.642C339.419 134.708 338.54 134.008 337.027 133.018C335.514 132.028 333.323 130.804 330.731 129.825C328.139 128.868 325.681 128.357 323.89 128.112C322.099 127.867 320.964 127.823 320.964 127.734C320.964 127.667 322.099 127.567 323.934 127.712C325.77 127.856 328.295 128.312 330.931 129.291C333.568 130.281 335.781 131.594 337.249 132.684C338.74 133.763 339.53 134.586 339.485 134.642Z" fill="#263238"/>
<path d="M397.996 116.988C398.107 117.144 395.104 118.968 392.379 122.25C389.62 125.498 388.319 128.768 388.152 128.69C388.085 128.668 388.318 127.823 388.93 126.532C389.531 125.253 390.543 123.551 391.934 121.883C393.335 120.225 394.837 118.935 396.005 118.123C397.162 117.311 397.952 116.933 397.996 116.988Z" fill="#263238"/>
<path d="M375.092 107.822C375.114 107.811 375.192 107.989 375.337 108.334C375.504 108.679 375.671 109.202 375.86 109.891C376.216 111.271 376.405 113.395 375.838 115.92C375.259 118.412 373.869 121.304 371.299 123.585C368.752 125.876 364.992 127.244 361.065 127.233C357.127 127.211 353.423 125.854 350.731 123.785C348.006 121.727 346.193 119.168 345.047 116.888C343.913 114.585 343.39 112.561 343.156 111.159C343.045 110.459 342.967 109.902 342.956 109.535C342.934 109.157 342.922 108.968 342.945 108.968C343 108.957 343.067 109.747 343.379 111.126C343.679 112.505 344.257 114.474 345.414 116.71C346.593 118.913 348.384 121.393 351.054 123.362C353.679 125.353 357.261 126.632 361.076 126.666C364.881 126.677 368.496 125.375 370.954 123.195C373.446 121.026 374.836 118.245 375.448 115.831C376.049 113.395 375.927 111.326 375.648 109.947C375.37 108.568 375.025 107.856 375.092 107.822Z" fill="#263238"/>
<g opacity="0.3">
<path opacity="0.3" d="M378.986 163.552C378.964 162.996 378.897 162.34 378.418 162.062C378.118 161.884 377.729 161.928 377.406 162.084C377.095 162.24 376.839 162.495 376.605 162.751C375.259 164.208 374.314 165.632 373.635 167.501L379.086 167.034C379.041 165.877 379.019 164.698 378.986 163.552Z" fill="black"/>
</g>
<g opacity="0.3">
<path opacity="0.3" d="M397.084 152.084C396.661 148.969 395.07 146.11 393.135 143.63C395.482 151.327 394.692 155.677 393.379 160.938L393.669 160.204C395.17 157.123 397.506 155.198 397.084 152.084Z" fill="black"/>
</g>
<path d="M386.194 410.665L382.868 460.555L361.177 460.299L357.762 408.429L386.194 410.665Z" fill="#FFBE9D"/>
<path d="M383.48 453.992V455.438C383.48 455.438 407.929 465.282 408.185 469.921L359.619 469.632L360.376 453.48C367.584 456.862 375.148 457.273 383.48 453.992Z" fill="#FFDB58"/>
<path d="M365.27 458.664C364.325 458.92 363.668 459.965 363.891 460.922C364.102 461.878 365.17 462.546 366.115 462.312C367.061 462.079 367.884 460.833 367.573 459.921C367.25 458.997 365.96 458.274 365.103 458.73" fill="white"/>
<path d="M359.63 469.632L359.808 465.75L406.294 467.44C406.294 467.44 408.452 468.397 408.196 469.91L359.63 469.632Z" fill="#263238"/>
<path d="M383.658 455.571C383.647 455.805 382.467 455.905 381.288 456.662C380.098 457.385 379.486 458.408 379.275 458.319C379.052 458.275 379.42 456.851 380.855 455.961C382.278 455.06 383.713 455.349 383.658 455.571Z" fill="#263238"/>
<path d="M388.741 457.707C388.797 457.941 387.762 458.33 386.95 459.331C386.105 460.31 385.905 461.389 385.66 461.378C385.437 461.411 385.282 460.021 386.316 458.797C387.339 457.574 388.741 457.474 388.741 457.707Z" fill="#263238"/>
<path d="M391.6 463.814C391.389 463.859 391.066 462.68 391.678 461.378C392.29 460.077 393.402 459.576 393.502 459.765C393.636 459.965 392.913 460.655 392.423 461.723C391.911 462.791 391.834 463.792 391.6 463.814Z" fill="#263238"/>
<path d="M382.233 45.7964C383.479 42.6818 381.966 38.8997 379.263 36.9086C376.56 34.9174 372.945 34.4836 369.63 35.0175C366.315 35.5403 363.201 36.9308 360.131 38.299C357.35 35.507 352.945 34.4391 349.196 35.6627C345.447 36.8863 342.522 40.3347 341.921 44.2391C339.53 43.6273 336.838 44.4504 335.18 46.2747C333.523 48.1101 332.989 50.8688 333.845 53.1825L348.885 58.4663L365.303 87.3546C370.109 91.4481 377.951 91.3369 382.634 87.1098C387.317 82.8828 388.218 75.074 384.625 69.8904C385.548 69.0783 386.316 68.0994 386.928 67.0427C389.531 65.4297 391.566 62.9269 392.245 59.9235C393.68 53.583 388.696 46.5528 382.233 45.7964Z" fill="#263238"/>
<path d="M372.278 106.02C371.343 101.315 370.698 98.0999 370.698 98.1333C370.698 98.1333 379.564 94.6849 378.952 82.2931C378.652 76.1306 376.294 66.4307 374.124 58.544C372.167 51.4471 365.548 43.6271 358.54 45.8852L337.361 56.2303C335.236 56.9199 334.858 58.9111 335.358 61.0913L335.392 62.1592L343.634 96.2645L347.116 111.504C348.662 117.989 354.892 122.227 361.488 121.271C368.796 120.225 373.724 113.262 372.278 106.02Z" fill="#FFBE9D"/>
<path d="M373.991 66.7866C374.191 67.5875 373.668 68.4218 372.834 68.6443C372 68.8668 371.154 68.3996 370.954 67.5875C370.754 66.7866 371.276 65.9524 372.111 65.7299C372.945 65.5074 373.79 65.9857 373.991 66.7866Z" fill="#263238"/>
<path d="M373.079 64.4173C372.934 64.662 371.588 64.0391 369.931 64.395C368.273 64.7176 367.239 65.83 367.016 65.6631C366.905 65.5964 367.027 65.1848 367.472 64.6954C367.917 64.2059 368.718 63.6498 369.753 63.4273C370.787 63.2159 371.733 63.4162 372.311 63.6943C372.901 63.9835 373.156 64.3061 373.079 64.4173Z" fill="#263238"/>
<path d="M357.895 70.4798C358.095 71.2807 357.572 72.115 356.738 72.3375C355.904 72.5599 355.058 72.0927 354.858 71.2807C354.658 70.4798 355.181 69.6455 356.015 69.423C356.86 69.2006 357.695 69.6678 357.895 70.4798Z" fill="#263238"/>
<path d="M357.083 68.3441C356.938 68.5888 355.592 67.9658 353.935 68.3218C352.278 68.6444 351.243 69.7568 351.021 69.5899C350.909 69.5232 351.032 69.1116 351.477 68.6221C351.922 68.1327 352.722 67.5765 353.757 67.354C354.791 67.1427 355.737 67.3429 356.315 67.621C356.905 67.8991 357.161 68.2328 357.083 68.3441Z" fill="#263238"/>
<path d="M365.459 78.8002C365.436 78.7113 366.427 78.3108 368.039 77.7546C368.451 77.6211 368.84 77.4543 368.84 77.1539C368.874 76.8314 368.607 76.4087 368.295 75.9637C367.684 75.0293 367.038 74.0393 366.371 73.0048C363.679 68.7889 361.632 65.2849 361.799 65.1848C361.966 65.0736 364.291 68.4107 366.983 72.6266C367.639 73.6722 368.262 74.6622 368.863 75.6077C369.118 76.0527 369.508 76.5421 369.43 77.2207C369.385 77.5655 369.118 77.8547 368.863 77.9882C368.607 78.1328 368.373 78.1773 368.162 78.2329C366.527 78.6668 365.481 78.8892 365.459 78.8002Z" fill="#263238"/>
<path d="M370.709 98.1333C370.709 98.1333 362.756 100.347 353.757 97.2212C353.757 97.2212 359.575 104.83 371.343 101.192L370.709 98.1333Z" fill="#EB996E"/>
<path d="M357.394 65.9858C357.283 66.4641 355.581 66.453 353.646 66.9313C351.699 67.3651 350.175 68.1438 349.863 67.7655C349.719 67.5876 349.952 67.1204 350.531 66.5976C351.109 66.0747 352.077 65.5408 353.245 65.2627C354.413 64.9846 355.514 65.0402 356.271 65.2516C357.038 65.4407 357.439 65.7522 357.394 65.9858Z" fill="#263238"/>
<path d="M372.445 59.1559C372.178 59.6009 370.754 59.5008 369.13 59.8233C367.495 60.1014 366.193 60.7021 365.793 60.3795C365.615 60.2127 365.748 59.8011 366.282 59.3117C366.794 58.8333 367.728 58.3328 368.852 58.1325C369.975 57.9323 371.01 58.0658 371.655 58.3328C372.289 58.5997 372.567 58.9446 372.445 59.1559Z" fill="#263238"/>
<path d="M342.578 48.2658C343.067 50.6685 344.669 52.8154 346.827 53.9723C348.985 55.1291 351.666 55.2737 353.935 54.3505C355.693 53.6386 357.517 52.2926 359.297 52.9378C361.177 53.6163 361.766 56.1191 363.513 57.098C366.004 58.4996 369.008 56.0746 371.855 56.3194C374.058 56.5085 375.76 58.2215 377.484 59.6009C379.208 60.9802 381.6 62.1371 383.546 61.0914C383.024 59.256 382.501 57.3984 381.578 55.7298C380.654 54.0613 379.275 52.5707 377.506 51.881C376.527 51.5028 375.471 51.3693 374.536 50.891C372.523 49.8565 371.633 47.5205 370.165 45.8075C368.274 43.5939 365.27 42.3814 362.378 42.6817C359.964 42.9264 357.684 44.1389 355.27 44.0388C353.479 43.9609 351.766 43.1712 349.975 43.1934C346.493 43.249 343.868 46.308 341.933 49.2002" fill="#263238"/>
<path d="M354.302 50.813C352.711 50.6907 349.43 50.357 348.351 49.2223C346.015 46.7529 342.522 45.4625 339.407 46.2857C336.293 47.1088 333.779 50.2346 333.823 53.6941C330.008 54.5172 326.782 57.6875 325.703 61.6698C324.624 65.652 325.725 70.3018 328.484 73.3497C329.207 74.1506 330.308 75.9971 330.308 75.9971C330.308 75.9971 328.873 77.788 328.328 79.0005C325.792 84.6291 332.688 86.7871 332.688 86.7871C332.711 90.5691 336.192 90.5469 338.428 90.5358C340.575 90.5247 341.899 96.487 343.645 96.2534L341.877 77.8325C342.088 77.9215 342.355 77.9771 342.689 77.9771C346.905 78.055 345.803 70.0793 344.435 68.0103C345.625 66.4196 346.827 64.7955 347.594 62.9267C348.362 61.0468 348.417 56.3638 347.761 54.3949C349.241 54.1946 355.003 50.8686 354.302 50.813Z" fill="#263238"/>
<path d="M342.511 78.8226C341.855 76.2976 338.718 75.1741 336.771 76.9094C335.703 77.866 335.069 79.4678 335.736 82.1486C337.527 89.3123 344.346 86.0308 344.313 85.8195C344.291 85.6971 343.278 81.7815 342.511 78.8226Z" fill="#FFBE9D"/>
<path d="M341.443 83.6616C341.41 83.6505 341.343 83.7839 341.154 83.9285C340.976 84.0732 340.631 84.2289 340.231 84.1844C339.407 84.0954 338.462 83.0498 338.106 81.7705C337.928 81.1254 337.906 80.4691 338.006 79.9018C338.095 79.3233 338.34 78.8673 338.707 78.7115C339.063 78.5335 339.385 78.6893 339.53 78.8673C339.674 79.0452 339.663 79.201 339.708 79.201C339.73 79.2121 339.83 79.0452 339.697 78.756C339.63 78.6225 339.508 78.4779 339.307 78.3778C339.096 78.2777 338.829 78.2777 338.573 78.3667C338.028 78.5447 337.661 79.1787 337.55 79.8016C337.405 80.4357 337.416 81.181 337.616 81.904C338.028 83.339 339.107 84.4959 340.208 84.5404C340.742 84.5404 341.132 84.2845 341.298 84.062C341.476 83.8284 341.476 83.6616 341.443 83.6616Z" fill="#EB996E"/>
<path d="M380.921 68.8224C380.876 68.7668 381.566 68.3218 382.478 67.2095C383.368 66.0971 384.458 64.2172 384.714 61.6476C384.836 60.3795 384.77 58.9446 384.314 57.5207C383.858 56.108 383.034 54.6731 381.766 53.5718C379.297 51.3248 375.214 50.2903 371.544 51.5807C371.21 51.6919 370.898 51.8588 370.576 51.9922C370.276 52.148 369.986 52.3259 369.697 52.4928L369.252 52.7375L369.241 52.2481C369.23 51.3804 368.907 50.5462 368.34 49.9121C367.784 49.2669 367.061 48.7775 366.282 48.4438C364.725 47.7541 363.045 47.743 361.51 48.0989C358.44 48.7997 355.837 50.2013 353.379 50.4794C350.943 50.7909 348.918 50.1902 347.828 49.367C347.261 48.9777 346.949 48.5328 346.738 48.2547C346.56 47.9432 346.471 47.7875 346.493 47.7764C346.549 47.7319 346.849 48.4549 347.95 49.1891C349.029 49.9232 350.976 50.4349 353.323 50.0901C354.491 49.9232 355.737 49.5005 357.061 49.0111C358.384 48.5216 359.808 47.9432 361.399 47.5872C362.2 47.4204 363.034 47.2869 363.913 47.3314C364.78 47.3759 365.67 47.5761 366.505 47.9321C367.339 48.288 368.14 48.822 368.774 49.545C369.419 50.2681 369.808 51.2469 369.82 52.2592L369.375 52.0145C369.675 51.8476 369.986 51.6474 370.309 51.4805C370.643 51.3359 370.976 51.158 371.332 51.0467C375.237 49.6785 379.508 50.7909 382.111 53.1825C383.435 54.3616 384.303 55.8967 384.759 57.3872C385.215 58.8889 385.259 60.3795 385.103 61.7032C384.792 64.3618 383.602 66.2751 382.634 67.3652C382.145 67.9103 381.711 68.2996 381.388 68.5109C381.099 68.7223 380.932 68.8335 380.921 68.8224Z" fill="#455A64"/>
<path d="M379.464 43.6717C379.419 43.7496 378.707 43.1044 377.161 42.8819C376.405 42.7818 375.437 42.7818 374.425 43.1267C373.412 43.4381 372.344 44.1167 371.61 45.1734L371.343 45.5628L371.176 45.1178C370.275 42.7151 367.65 40.4347 364.391 40.0788C361.944 39.8007 359.719 40.9019 357.873 41.9587C356.004 43.0488 354.302 44.1167 352.7 44.6284C351.12 45.1845 349.708 45.2513 348.784 45.0844C348.317 45.0066 347.972 44.8953 347.75 44.7952C347.527 44.6951 347.405 44.6395 347.416 44.6172C347.438 44.5616 347.917 44.7618 348.818 44.8508C349.719 44.9398 351.043 44.8175 352.567 44.2279C354.102 43.6828 355.726 42.615 357.606 41.4804C358.551 40.9242 359.574 40.3569 360.72 39.9564C361.866 39.5448 363.156 39.3446 364.458 39.4781C367.951 39.8674 370.732 42.3258 371.644 44.9176L371.199 44.862C372.033 43.694 373.223 43.0043 374.313 42.704C375.403 42.3703 376.427 42.4147 377.217 42.5594C378.018 42.7151 378.596 43.0043 378.963 43.2268C379.308 43.4937 379.475 43.6495 379.464 43.6717Z" fill="#455A64"/>
<path d="M364.814 82.0932C364.313 81.6037 363.557 81.448 362.856 81.5259C362.199 81.6037 361.399 82.1822 360.976 82.8941C360.965 82.9052 360.954 82.9163 360.942 82.9386C360.92 82.9719 360.898 82.9942 360.876 83.0276L360.898 83.0053C360.742 83.2612 360.653 83.5504 360.687 83.8507C360.753 84.507 361.254 85.0632 361.844 85.3524C362.778 85.8196 364.024 85.6861 364.758 84.9297C365.525 84.1733 365.57 82.8162 364.814 82.0932Z" fill="#E8505B"/>
<path d="M365.37 85.5525C365.281 85.5748 365.17 85.2188 364.881 84.7516C364.591 84.2844 364.069 83.706 363.334 83.3612C362.589 83.0274 361.81 83.0163 361.277 83.1053C360.731 83.1832 360.398 83.3389 360.353 83.261C360.309 83.2054 360.587 82.9162 361.176 82.7049C361.755 82.4935 362.678 82.4268 363.579 82.8272C364.469 83.2388 365.025 83.9841 365.248 84.5514C365.481 85.1521 365.448 85.5414 365.37 85.5525Z" fill="#263238"/>
<path d="M342.666 86.9207C342.722 86.8874 342.989 87.4769 342.566 88.3223C342.355 88.7228 341.977 89.1677 341.376 89.3902C340.786 89.6238 340.019 89.5348 339.418 89.1566C338.806 88.7784 338.406 88.1332 338.361 87.4881C338.306 86.854 338.551 86.3201 338.818 85.953C339.396 85.2077 340.041 85.1966 340.041 85.2633C340.075 85.3523 339.552 85.5192 339.162 86.1866C338.973 86.5092 338.829 86.9652 338.895 87.4324C338.951 87.8996 339.263 88.3668 339.73 88.6672C340.197 88.9564 340.764 89.0343 341.209 88.8896C341.665 88.745 342.01 88.4224 342.221 88.111C342.655 87.4769 342.577 86.9319 342.666 86.9207Z" fill="#E8505B"/>
<path d="M338.918 86.4981C338.985 86.5314 338.884 86.8763 338.395 87.1099C338.161 87.2211 337.828 87.2878 337.472 87.1989C337.105 87.1099 336.76 86.8429 336.56 86.4758C336.359 86.1087 336.326 85.6638 336.448 85.3189C336.571 84.9741 336.804 84.7294 337.027 84.5959C337.494 84.3178 337.839 84.429 337.828 84.4958C337.839 84.5848 337.55 84.6404 337.283 84.9185C336.993 85.1855 336.793 85.7083 337.071 86.1977C337.338 86.6983 337.883 86.8095 338.262 86.7205C338.64 86.6427 338.84 86.4424 338.918 86.4981Z" fill="#E8505B"/>
<path d="M351.143 185.288C351.143 185.288 378.685 186.889 394.959 187.034C407.574 187.145 413.191 183.797 415.705 175.699C417.819 168.891 413.269 155.854 413.269 155.854C404.748 155.899 399.476 157.078 393.992 159.647L395.449 165.61L351.043 169.436L351.143 185.288Z" fill="#FFBE9D"/>
<path d="M404.737 171.973C404.581 172.073 403.291 169.659 400.577 167.846C397.896 165.988 395.17 165.665 395.215 165.487C395.226 165.421 395.905 165.398 396.984 165.643C398.051 165.877 399.509 166.422 400.899 167.379C402.29 168.335 403.335 169.481 403.936 170.393C404.559 171.294 404.792 171.939 404.737 171.973Z" fill="#EB996E"/>
<path d="M341.065 159.603C341.065 159.603 332.544 161.65 326.292 165.832L332.944 183.919C335.169 189.859 341.977 192.774 347.361 189.693C355.737 184.909 358.696 170.938 358.696 170.938L367.906 131.026L352.656 121.471L341.065 159.603Z" fill="#FFBE9D"/>
<path d="M352.644 121.471L353.256 108.345L349.852 95.0521C349.663 94.3179 349.574 93.3946 350.164 92.9497C350.787 92.4825 351.721 92.5048 352.222 93.0164C353.156 93.9731 357.606 105.642 357.606 105.642C357.606 105.642 364.358 101.582 365.559 101.393C366.76 101.192 368.262 104.83 368.362 105.108C368.451 105.397 368.373 107.544 368.373 107.544C368.373 107.544 372.545 107.666 372.923 108.245C373.301 108.812 373.401 111.782 373.401 111.782C373.401 111.782 375.17 112.349 375.448 113.684C375.737 115.019 376.305 117.222 375.47 117.711C374.636 118.189 372.878 119.157 372.878 119.157C372.878 119.157 372.167 125.965 371.989 126.588C371.811 127.211 367.895 131.026 367.895 131.026L352.644 121.471Z" fill="#FFBE9D"/>
<path d="M338.462 189.971C338.484 189.937 338.873 190.204 339.741 190.494C340.598 190.783 341.944 191.039 343.668 190.805C345.381 190.571 347.483 189.826 349.363 188.18C351.221 186.5 353.101 184.275 354.658 181.483C355.437 180.082 356.137 178.547 356.716 176.889C357.317 175.232 357.706 173.43 358.14 171.561C359.019 167.812 359.953 163.774 360.954 159.492C362.956 150.915 365.203 141.316 367.628 130.982L367.651 130.904L367.706 130.848C368.474 130.092 369.241 129.324 370.009 128.535C370.387 128.134 370.765 127.734 371.132 127.322C371.31 127.111 371.499 126.899 371.633 126.699C371.766 126.566 371.766 126.299 371.822 126.009C372.122 123.785 372.356 121.482 372.601 119.168L372.612 119.024L372.745 118.946C373.446 118.557 374.147 118.156 374.87 117.756C375.026 117.656 375.27 117.544 375.37 117.466C375.459 117.4 375.537 117.266 375.571 117.088C375.648 116.755 375.626 116.332 375.582 115.931C375.482 115.153 375.292 114.241 375.092 113.518C374.814 112.839 374.058 112.361 373.324 112.094L373.135 112.027L373.123 111.838C373.101 111.193 373.057 110.525 372.979 109.869C372.945 109.535 372.901 109.213 372.834 108.89C372.801 108.745 372.756 108.567 372.712 108.478C372.678 108.401 372.69 108.456 372.645 108.412C372.589 108.389 372.534 108.356 372.456 108.334C371.221 107.989 369.764 107.945 368.385 107.878L368.095 107.867L368.107 107.577C368.129 106.888 368.162 106.12 368.129 105.408C368.151 105.219 367.973 104.93 367.873 104.663C367.751 104.396 367.628 104.129 367.495 103.873C367.228 103.35 366.927 102.85 366.583 102.405C366.405 102.182 366.216 101.982 366.015 101.849C365.793 101.715 365.693 101.682 365.426 101.782C364.914 101.96 364.38 102.238 363.857 102.505C361.777 103.584 359.764 104.763 357.784 105.942L357.495 106.109L357.372 105.798C356.315 103.161 355.281 100.558 354.258 97.9999C353.746 96.7207 353.234 95.4415 352.734 94.1845C352.545 93.5505 352.1 93.1834 351.51 93.0388C350.92 92.883 350.342 93.0721 350.064 93.5727C349.93 93.8063 349.864 94.0955 349.897 94.3625C349.93 94.6072 350.053 94.9854 350.12 95.2858C350.286 95.9309 350.453 96.565 350.62 97.199C350.954 98.4671 351.288 99.7352 351.61 100.981C352.266 103.473 352.912 105.931 353.535 108.323L353.546 108.367V108.412C353.323 112.984 353.112 117.366 352.912 121.538V121.571L352.9 121.604C348.696 135.287 345.214 146.633 342.767 154.575C341.543 158.513 340.575 161.616 339.908 163.752C339.574 164.787 339.318 165.588 339.14 166.155C338.962 166.7 338.851 166.978 338.851 166.978C338.851 166.978 338.918 166.689 339.063 166.144C339.229 165.565 339.463 164.764 339.763 163.719C340.397 161.572 341.321 158.457 342.5 154.497C344.891 146.533 348.318 135.164 352.433 121.46L352.422 121.515C352.611 117.344 352.811 112.961 353.012 108.389L353.023 108.467C352.389 106.076 351.744 103.629 351.076 101.126C350.742 99.8799 350.409 98.6229 350.075 97.3436C349.908 96.7096 349.741 96.0644 349.563 95.4304C349.486 95.0855 349.385 94.8297 349.319 94.4181C349.274 94.0288 349.363 93.6283 349.563 93.2835C349.764 92.9387 350.075 92.6606 350.464 92.5271C350.854 92.3936 351.243 92.4047 351.61 92.4937C351.977 92.5827 352.333 92.7496 352.634 93.0165C352.934 93.2612 353.134 93.6839 353.234 93.9732C353.735 95.2301 354.246 96.5094 354.758 97.7886C355.782 100.347 356.827 102.95 357.884 105.586L357.472 105.442C359.463 104.263 361.477 103.083 363.579 101.982C364.113 101.715 364.625 101.437 365.226 101.226C365.392 101.181 365.548 101.115 365.782 101.148C365.982 101.181 366.171 101.259 366.305 101.359C366.605 101.548 366.816 101.793 367.005 102.038C367.395 102.527 367.695 103.061 367.973 103.606C368.107 103.873 368.24 104.151 368.374 104.429C368.474 104.719 368.663 104.952 368.685 105.375C368.718 106.165 368.685 106.91 368.663 107.611L368.385 107.31C369.82 107.388 371.199 107.411 372.634 107.8C372.723 107.822 372.823 107.878 372.923 107.922C373.012 107.967 373.19 108.123 373.212 108.212C373.324 108.423 373.346 108.59 373.39 108.779C373.468 109.135 373.513 109.468 373.546 109.813C373.624 110.492 373.668 111.159 373.691 111.827L373.49 111.56C374.347 111.882 375.204 112.383 375.615 113.317C375.882 114.229 376.027 115.008 376.149 115.887C376.194 116.321 376.227 116.766 376.127 117.244C376.082 117.478 375.96 117.745 375.726 117.934C375.493 118.1 375.348 118.156 375.159 118.267C374.436 118.668 373.724 119.068 373.023 119.458L373.168 119.235C372.923 121.56 372.678 123.851 372.378 126.098L372.311 126.532C372.3 126.666 372.2 126.91 372.1 127.022C371.922 127.278 371.733 127.489 371.555 127.7C371.177 128.123 370.799 128.535 370.409 128.935C369.642 129.736 368.863 130.503 368.095 131.26L368.173 131.126C365.726 141.449 363.457 151.038 361.421 159.614C360.398 163.897 359.441 167.935 358.551 171.672C358.106 173.541 357.695 175.365 357.083 177.034C356.482 178.714 355.759 180.26 354.969 181.672C353.368 184.487 351.454 186.723 349.552 188.402C347.606 190.071 345.448 190.805 343.712 191.005C341.955 191.217 340.575 190.916 339.73 190.605C339.296 190.449 338.985 190.293 338.785 190.182C338.562 190.037 338.462 189.971 338.462 189.971Z" fill="#EB996E"/>
<path d="M368.373 107.522C368.373 107.6 367.995 107.644 367.406 107.678C366.816 107.711 366.015 107.733 365.192 107.945C364.369 108.156 363.702 108.568 363.301 108.957C362.889 109.335 362.712 109.658 362.634 109.624C362.567 109.602 362.611 109.202 362.99 108.69C363.357 108.178 364.102 107.633 365.036 107.388C365.971 107.155 366.816 107.211 367.417 107.277C368.017 107.344 368.373 107.444 368.373 107.522Z" fill="#EB996E"/>
<path d="M365.114 107.644C364.97 107.589 364.959 107.244 365.092 106.877C365.226 106.51 365.459 106.254 365.615 106.309C365.759 106.365 365.771 106.71 365.637 107.077C365.493 107.455 365.259 107.7 365.114 107.644Z" fill="#EB996E"/>
<path d="M373.59 111.693C373.59 111.86 372.1 112.038 370.287 112.149C369.386 112.227 368.718 112.55 368.451 113.028C368.162 113.484 368.251 113.862 368.173 113.885C368.117 113.94 367.817 113.507 368.084 112.839C368.206 112.528 368.485 112.183 368.874 111.96C369.263 111.738 369.742 111.627 370.209 111.571C372.089 111.449 373.59 111.538 373.59 111.693Z" fill="#EB996E"/>
<path d="M372.845 115.687C373.001 115.698 373.101 116.521 373.057 117.522C373.012 118.534 372.845 119.335 372.69 119.335C372.534 119.324 372.434 118.501 372.478 117.5C372.523 116.499 372.679 115.687 372.845 115.687Z" fill="#EB996E"/>
<path d="M377.473 145.654L378.463 142.239C378.663 141.549 379.519 141.338 380.02 141.85L381.31 143.162L382.111 139.959C382.323 139.113 383.479 139.002 383.858 139.781L385.682 143.574L377.473 145.654Z" fill="white"/>
<path d="M385.693 145.042C385.727 145.198 383.969 145.765 381.767 146.31C379.553 146.855 377.74 147.178 377.695 147.022C377.662 146.867 379.419 146.299 381.622 145.754C383.836 145.198 385.66 144.886 385.693 145.042Z" fill="white"/>
<path d="M319.54 126.021C319.563 126.043 319.129 126.443 318.55 127.344C317.983 128.234 317.349 129.669 317.038 131.549C316.715 133.418 316.693 135.698 316.837 138.212C316.96 140.726 317.16 143.496 317.471 146.388C318.083 152.172 319.018 157.367 319.818 161.094C320.219 162.962 320.575 164.464 320.82 165.499C320.931 165.955 321.02 166.355 321.109 166.689C321.176 166.967 321.198 167.111 321.198 167.111C321.198 167.111 321.142 166.978 321.064 166.7C320.975 166.366 320.864 165.977 320.731 165.521C320.453 164.486 320.074 162.996 319.663 161.127C318.817 157.4 317.861 152.206 317.249 146.41C316.937 143.518 316.748 140.748 316.637 138.223C316.504 135.709 316.537 133.407 316.893 131.516C317.227 129.625 317.883 128.179 318.484 127.3C319.084 126.41 319.54 126.021 319.54 126.021Z" fill="white"/>
<path d="M342.956 110.903C342.956 110.915 342.878 110.959 342.711 111.037C342.488 111.148 342.244 111.259 341.977 111.382C341.343 111.682 340.419 112.127 339.318 112.739C337.093 113.929 334.135 115.776 330.964 117.967C327.794 120.147 324.969 122.216 322.922 123.685C321.976 124.352 321.164 124.93 320.475 125.409C320.23 125.576 320.007 125.731 319.807 125.865C319.651 125.965 319.574 126.021 319.562 126.009C319.562 125.998 319.629 125.943 319.774 125.82C319.974 125.665 320.185 125.509 320.419 125.331C321.086 124.83 321.887 124.23 322.822 123.54C324.857 122.038 327.649 119.947 330.831 117.767C334.012 115.575 336.993 113.751 339.24 112.594C340.353 112.005 341.287 111.571 341.943 111.293C342.221 111.182 342.466 111.081 342.7 110.981C342.856 110.926 342.945 110.892 342.956 110.903Z" fill="white"/>
<path d="M396.005 118.134C395.994 118.145 395.938 118.089 395.816 117.989C395.66 117.856 395.493 117.711 395.315 117.555C394.881 117.188 394.225 116.666 393.368 116.098C391.666 114.941 389.13 113.64 386.216 112.483C383.301 111.315 380.576 110.492 378.596 109.947C377.606 109.669 376.794 109.469 376.238 109.335C376.015 109.279 375.804 109.224 375.593 109.168C375.448 109.124 375.37 109.101 375.37 109.09C375.37 109.079 375.448 109.09 375.604 109.113C375.815 109.146 376.026 109.19 376.26 109.235C376.827 109.346 377.639 109.524 378.64 109.78C380.643 110.281 383.379 111.093 386.305 112.261C389.23 113.429 391.778 114.763 393.457 115.954C395.17 117.155 396.005 118.134 396.005 118.134Z" fill="white"/>
<path d="M343.267 203.052C343.256 203.063 343.101 203.019 342.834 202.908C342.567 202.796 342.177 202.607 341.732 202.318C340.854 201.762 339.674 200.683 339.318 199.036C338.951 197.435 339.296 195.911 339.752 194.965C339.975 194.487 340.208 194.12 340.397 193.886C340.575 193.653 340.698 193.541 340.709 193.553C340.742 193.575 340.308 194.075 339.908 195.032C339.508 195.977 339.196 197.446 339.552 198.981C339.886 200.538 340.998 201.595 341.832 202.173C342.678 202.763 343.29 203.008 343.267 203.052Z" fill="white"/>
<path d="M339.73 191.005C339.797 190.983 340.031 191.617 340.264 192.407C340.498 193.197 340.631 193.853 340.576 193.864C340.509 193.886 340.275 193.252 340.042 192.462C339.808 191.673 339.663 191.016 339.73 191.005Z" fill="white"/>
<path d="M354.769 440.399L388.697 440.232L388.085 322.921L387.773 203.597L341.821 203.03L333.556 218.603C330.219 224.888 327.961 231.718 327.205 238.793C326.626 244.188 330.664 261.763 332.077 266.235L344.725 306.347L354.769 440.399Z" fill="#263238"/>
<path d="M397.718 203.764L435.005 305.402C439.387 319.028 437.919 332.532 430.411 345.113L387.128 429.598L362.79 399.152L399.008 323.467L367.083 271.741L372.456 203.876L387.495 203.631L397.718 203.764Z" fill="#263238"/>
<path d="M384.67 237.814C384.67 237.814 384.692 237.992 384.725 238.337C384.748 238.704 384.781 239.216 384.826 239.872C384.903 241.251 385.004 243.231 385.137 245.767C385.382 250.918 385.749 258.315 386.183 267.448C386.605 276.613 387.106 287.504 387.662 299.595C387.929 305.646 388.218 311.998 388.519 318.583C388.73 321.876 388.63 325.235 388.674 328.628C388.685 332.032 388.697 335.48 388.708 338.984C388.752 366.938 388.797 392.244 388.83 410.587C388.819 419.731 388.808 427.139 388.797 432.29C388.786 434.826 388.763 436.817 388.763 438.185C388.752 438.842 388.741 439.353 388.741 439.72C388.73 440.065 388.708 440.243 388.708 440.243C388.708 440.243 388.685 440.065 388.674 439.72C388.663 439.353 388.652 438.842 388.641 438.185C388.63 436.806 388.596 434.826 388.574 432.29C388.541 427.139 388.485 419.731 388.419 410.587C388.341 392.244 388.241 366.938 388.129 338.984C388.118 335.491 388.107 332.032 388.096 328.639C388.063 325.235 388.163 321.876 387.951 318.594C387.662 312.009 387.395 305.657 387.128 299.606C386.616 287.515 386.16 276.613 385.771 267.459C385.404 258.326 385.115 250.929 384.903 245.779C384.814 243.242 384.748 241.262 384.703 239.883C384.692 239.227 384.67 238.715 384.659 238.348C384.659 237.992 384.67 237.814 384.67 237.814Z" fill="#455A64"/>
<path d="M383.813 205.766C383.858 205.766 383.936 206.156 384.047 206.868C384.158 207.58 384.303 208.625 384.447 209.904C384.748 212.474 385.059 216.045 385.237 219.994C385.415 223.943 385.426 227.524 385.36 230.116C385.326 231.407 385.282 232.463 385.237 233.186C385.193 233.909 385.137 234.31 385.104 234.31C385.015 234.31 384.992 232.708 384.959 230.127C384.915 227.547 384.848 223.976 384.67 220.038C384.492 216.1 384.247 212.541 384.047 209.96C383.858 207.368 383.735 205.777 383.813 205.766Z" fill="#455A64"/>
<path d="M376.338 208.058C376.394 208.136 375.759 208.425 375.581 209.326C375.504 209.76 375.593 210.316 376.015 210.683C376.416 211.061 377.117 211.239 377.684 210.984C378.251 210.728 378.563 210.071 378.54 209.526C378.54 208.959 378.173 208.536 377.795 208.314C376.994 207.858 376.36 208.147 376.349 208.058C376.338 208.025 376.46 207.913 376.738 207.824C377.016 207.747 377.484 207.724 377.984 207.947C378.474 208.158 379.03 208.714 379.074 209.493C379.13 210.238 378.752 211.117 377.917 211.506C377.072 211.873 376.16 211.584 375.637 211.061C375.07 210.516 375.014 209.738 375.181 209.226C375.337 208.692 375.648 208.358 375.904 208.203C376.16 208.036 376.327 208.025 376.338 208.058Z" fill="#455A64"/>
<path d="M358.54 206.045C358.574 206.034 358.707 206.412 358.841 207.113C358.974 207.813 359.063 208.859 358.941 210.138C358.818 211.417 358.429 212.93 357.661 214.443C356.894 215.967 355.693 217.48 354.091 218.648C352.467 219.794 350.653 220.439 348.963 220.683C347.272 220.928 345.715 220.817 344.469 220.517C343.212 220.227 342.255 219.816 341.632 219.46C341.009 219.104 340.709 218.859 340.72 218.826C340.776 218.715 342.088 219.649 344.547 220.116C346.938 220.594 350.642 220.372 353.746 218.17C356.827 215.934 358.218 212.496 358.529 210.083C358.885 207.602 358.418 206.056 358.54 206.045Z" fill="#455A64"/>
<path d="M402.19 215.778C402.19 215.833 401.344 215.9 400.054 215.522C398.764 215.155 397.073 214.254 395.671 212.719C394.281 211.184 393.547 209.404 393.302 208.091C393.057 206.768 393.202 205.933 393.257 205.944C393.357 205.944 393.369 206.756 393.702 208.002C394.025 209.237 394.781 210.883 396.094 212.341C397.418 213.787 398.975 214.699 400.176 215.144C401.378 215.589 402.201 215.678 402.19 215.778Z" fill="#455A64"/>
<path d="M415.438 325.358C415.482 325.413 414.793 326.092 413.469 326.926C412.802 327.326 411.967 327.771 410.933 328.027C409.92 328.294 408.686 328.328 407.518 327.938C405.148 327.16 403.669 325.38 402.768 324.156C401.867 322.899 401.411 322.054 401.466 322.02C401.533 321.965 402.123 322.732 403.091 323.911C404.058 325.057 405.527 326.681 407.696 327.393C409.876 328.116 411.956 327.271 413.258 326.57C414.604 325.847 415.382 325.28 415.438 325.358Z" fill="#455A64"/>
<path d="M406.951 331.843C406.817 331.932 405.249 329.952 403.436 327.404C401.622 324.857 400.265 322.721 400.399 322.632C400.532 322.543 402.101 324.523 403.914 327.071C405.716 329.618 407.073 331.754 406.951 331.843Z" fill="#455A64"/>
<path d="M349.941 241.752C349.797 241.807 349.396 241.173 349.063 240.317C348.718 239.471 348.562 238.726 348.718 238.67C348.862 238.615 349.263 239.249 349.597 240.105C349.93 240.962 350.086 241.696 349.941 241.752Z" fill="#FAFAFA"/>
<path d="M371.477 244.833C371.321 244.833 371.188 244.277 371.188 243.598C371.188 242.92 371.321 242.364 371.477 242.364C371.633 242.364 371.766 242.92 371.766 243.598C371.766 244.288 371.633 244.833 371.477 244.833Z" fill="#FAFAFA"/>
<path d="M362.622 256.524C362.467 256.535 362.289 255.857 362.233 255C362.178 254.155 362.255 253.454 362.422 253.443C362.578 253.432 362.756 254.11 362.812 254.967C362.867 255.823 362.789 256.513 362.622 256.524Z" fill="#FAFAFA"/>
<path d="M346.449 265.145C346.315 265.245 345.859 264.833 345.258 264.399C344.669 263.966 344.135 263.654 344.191 263.498C344.235 263.354 344.925 263.443 345.603 263.932C346.282 264.422 346.582 265.056 346.449 265.145Z" fill="#FAFAFA"/>
<path d="M374.959 276.013C374.826 275.924 374.992 275.434 375.337 274.934C375.682 274.422 376.06 274.077 376.194 274.166C376.327 274.255 376.16 274.745 375.816 275.245C375.482 275.757 375.093 276.102 374.959 276.013Z" fill="#FAFAFA"/>
<path d="M357.328 279.094C357.172 279.094 357.039 278.171 357.039 277.047C357.039 275.913 357.172 275 357.328 275C357.484 275 357.617 275.924 357.617 277.047C357.617 278.171 357.484 279.094 357.328 279.094Z" fill="#FAFAFA"/>
<path d="M351.599 291.564C351.51 291.697 350.921 291.43 350.298 290.974C349.675 290.518 349.241 290.051 349.341 289.917C349.43 289.784 350.02 290.051 350.643 290.507C351.265 290.963 351.699 291.441 351.599 291.564Z" fill="#FAFAFA"/>
<path d="M369.431 295.913C369.497 296.058 369.13 296.358 368.63 296.592C368.118 296.814 367.651 296.881 367.584 296.736C367.517 296.592 367.884 296.291 368.385 296.058C368.897 295.835 369.364 295.768 369.431 295.913Z" fill="#FAFAFA"/>
<path d="M357.328 316.214C357.183 316.28 356.605 315.424 356.049 314.289C355.481 313.155 355.136 312.176 355.281 312.109C355.426 312.042 356.004 312.899 356.56 314.034C357.128 315.168 357.461 316.147 357.328 316.214Z" fill="#FAFAFA"/>
<path d="M377.017 314.367C376.872 314.289 377.128 313.544 377.584 312.688C378.04 311.842 378.518 311.208 378.663 311.286C378.807 311.364 378.552 312.109 378.095 312.966C377.639 313.822 377.161 314.445 377.017 314.367Z" fill="#FAFAFA"/>
<path d="M368.396 331.598C368.229 331.576 368.24 330.697 368.073 329.651C367.917 328.606 367.628 327.771 367.784 327.705C367.917 327.627 368.474 328.416 368.652 329.562C368.83 330.708 368.551 331.631 368.396 331.598Z" fill="#FAFAFA"/>
<path d="M359.163 341.453C359.041 341.565 358.485 341.142 357.928 340.519C357.361 339.896 356.994 339.307 357.116 339.195C357.239 339.084 357.795 339.507 358.351 340.13C358.918 340.753 359.285 341.342 359.163 341.453Z" fill="#FAFAFA"/>
<path d="M381.577 345.191C381.466 345.08 381.878 344.479 382.489 343.856C383.112 343.233 383.702 342.811 383.813 342.922C383.924 343.033 383.513 343.634 382.901 344.257C382.278 344.88 381.688 345.302 381.577 345.191Z" fill="#FAFAFA"/>
<path d="M368.685 359.919C368.529 359.896 368.529 359.051 368.685 358.028C368.841 357.004 369.097 356.192 369.252 356.226C369.408 356.248 369.408 357.093 369.252 358.117C369.097 359.14 368.841 359.952 368.685 359.919Z" fill="#FAFAFA"/>
<path d="M360.02 367.071C359.886 367.149 359.397 366.582 358.93 365.792C358.474 365.002 358.207 364.302 358.34 364.224C358.474 364.146 358.963 364.713 359.43 365.503C359.886 366.293 360.153 366.994 360.02 367.071Z" fill="#FAFAFA"/>
<path d="M380.899 376.104C380.988 376.237 380.42 376.805 379.631 377.372C378.841 377.939 378.118 378.295 378.029 378.162C377.94 378.028 378.507 377.461 379.297 376.894C380.098 376.326 380.81 375.97 380.899 376.104Z" fill="#FAFAFA"/>
<path d="M363.501 387.817C363.346 387.761 363.546 386.86 363.635 385.759C363.735 384.658 363.702 383.735 363.857 383.712C364.013 383.679 364.313 384.624 364.202 385.815C364.113 387.005 363.646 387.873 363.501 387.817Z" fill="#FAFAFA"/>
<path d="M370.454 404.625C370.331 404.725 369.864 404.347 369.408 403.78C368.952 403.212 368.685 402.678 368.819 402.578C368.941 402.478 369.408 402.856 369.864 403.424C370.309 403.991 370.576 404.525 370.454 404.625Z" fill="#FAFAFA"/>
<path d="M362.856 415.916C362.723 416.005 362.111 415.348 361.488 414.436C360.865 413.524 360.464 412.723 360.598 412.634C360.731 412.545 361.343 413.201 361.966 414.113C362.589 415.015 362.99 415.815 362.856 415.916Z" fill="#FAFAFA"/>
<path d="M383.78 401.755C383.635 401.699 383.646 401.288 383.813 400.832C383.98 400.376 384.247 400.053 384.392 400.109C384.536 400.164 384.525 400.576 384.358 401.032C384.192 401.488 383.936 401.811 383.78 401.755Z" fill="#FAFAFA"/>
<path d="M374.558 428.63C374.413 428.552 374.692 427.762 374.903 426.772C375.125 425.782 375.214 424.948 375.37 424.937C375.526 424.926 375.704 425.816 375.459 426.895C375.225 427.974 374.692 428.708 374.558 428.63Z" fill="#FAFAFA"/>
<path d="M380.554 256.713C380.41 256.78 380.054 256.335 379.764 255.712C379.475 255.089 379.353 254.533 379.497 254.466C379.642 254.399 379.998 254.844 380.287 255.467C380.576 256.079 380.699 256.635 380.554 256.713Z" fill="#FAFAFA"/>
<path d="M365.114 222.063C365.203 222.207 364.425 222.83 363.59 223.72C362.756 224.599 362.178 225.422 362.033 225.344C361.899 225.278 362.267 224.276 363.168 223.32C364.057 222.374 365.036 221.929 365.114 222.063Z" fill="#FAFAFA"/>
<path d="M378.863 221.651C378.707 221.685 378.441 221.028 378.051 220.261C377.673 219.493 377.306 218.893 377.428 218.781C377.54 218.67 378.151 219.159 378.574 220.005C378.997 220.85 379.019 221.629 378.863 221.651Z" fill="#FAFAFA"/>
<path d="M336.037 232.953C335.893 232.897 336.037 232.152 336.382 231.307C336.716 230.45 337.116 229.816 337.261 229.872C337.405 229.927 337.261 230.672 336.916 231.518C336.582 232.374 336.193 233.02 336.037 232.953Z" fill="#FAFAFA"/>
<path d="M337.427 249.761C337.327 249.883 336.693 249.527 336.015 248.96C335.336 248.393 334.869 247.836 334.969 247.714C335.069 247.592 335.703 247.948 336.382 248.515C337.06 249.071 337.528 249.638 337.427 249.761Z" fill="#FAFAFA"/>
<path d="M365.526 208.736C365.381 208.792 365.07 208.381 364.847 207.813C364.625 207.246 364.558 206.734 364.703 206.679C364.847 206.623 365.159 207.035 365.381 207.602C365.615 208.169 365.67 208.67 365.526 208.736Z" fill="#FAFAFA"/>
<path d="M392.434 216.946C392.278 216.912 392.29 216.245 392.468 215.444C392.646 214.654 392.913 214.042 393.068 214.076C393.224 214.109 393.213 214.777 393.035 215.577C392.857 216.367 392.59 216.979 392.434 216.946Z" fill="#FAFAFA"/>
<path d="M398.763 229.649C398.619 229.594 398.819 228.759 399.208 227.792C399.609 226.824 400.043 226.101 400.198 226.156C400.343 226.212 400.143 227.046 399.753 228.014C399.342 228.982 398.908 229.716 398.763 229.649Z" fill="#FAFAFA"/>
<path d="M394.247 239.916C394.103 239.983 393.58 239.216 393.068 238.203C392.556 237.18 392.256 236.301 392.401 236.223C392.545 236.157 393.068 236.924 393.58 237.936C394.091 238.96 394.392 239.838 394.247 239.916Z" fill="#FAFAFA"/>
<path d="M403.892 250.172C403.747 250.117 403.847 249.472 404.136 248.737C404.415 248.003 404.771 247.447 404.915 247.503C405.06 247.558 404.96 248.203 404.67 248.938C404.381 249.672 404.036 250.228 403.892 250.172Z" fill="#FAFAFA"/>
<path d="M395.271 260.217C395.137 260.306 394.793 260.006 394.515 259.55C394.236 259.094 394.114 258.66 394.248 258.571C394.381 258.482 394.726 258.782 395.004 259.238C395.282 259.694 395.404 260.128 395.271 260.217Z" fill="#FAFAFA"/>
<path d="M397.106 280.94C396.984 281.052 396.294 280.496 395.56 279.706C394.826 278.916 394.325 278.182 394.436 278.071C394.559 277.959 395.248 278.516 395.983 279.305C396.728 280.106 397.228 280.829 397.106 280.94Z" fill="#FAFAFA"/>
<path d="M408.397 269.038C408.274 269.138 407.663 268.571 407.04 267.781C406.417 266.991 406.016 266.268 406.139 266.168C406.261 266.068 406.873 266.635 407.496 267.425C408.119 268.215 408.53 268.938 408.397 269.038Z" fill="#FAFAFA"/>
<path d="M414.593 285.468C414.448 285.401 414.704 284.567 415.16 283.599C415.616 282.642 416.106 281.908 416.25 281.986C416.395 282.053 416.139 282.887 415.683 283.855C415.227 284.812 414.737 285.535 414.593 285.468Z" fill="#FAFAFA"/>
<path d="M401.422 298.983C401.277 299.072 400.766 298.449 400.043 297.793C399.331 297.137 398.675 296.669 398.752 296.514C398.819 296.369 399.653 296.636 400.443 297.359C401.233 298.093 401.556 298.916 401.422 298.983Z" fill="#FAFAFA"/>
<path d="M402.245 312.932C402.245 313.088 401.689 313.221 401.011 313.221C400.332 313.221 399.776 313.088 399.776 312.932C399.776 312.777 400.332 312.643 401.011 312.643C401.689 312.643 402.245 312.777 402.245 312.932Z" fill="#FAFAFA"/>
<path d="M415.783 309.039C415.638 308.95 415.927 308.26 416.139 307.382C416.361 306.514 416.439 305.769 416.606 305.758C416.762 305.735 416.951 306.558 416.706 307.526C416.461 308.505 415.916 309.128 415.783 309.039Z" fill="#FAFAFA"/>
<path d="M429.231 313.711C429.075 313.767 428.675 312.988 428.319 311.976C427.963 310.963 427.796 310.096 427.952 310.04C428.108 309.985 428.508 310.763 428.864 311.775C429.22 312.799 429.387 313.666 429.231 313.711Z" fill="#FAFAFA"/>
<path d="M427.095 332.844C426.951 332.766 427.296 331.831 427.863 330.764C428.43 329.685 428.998 328.873 429.142 328.95C429.287 329.028 428.942 329.963 428.375 331.031C427.807 332.11 427.229 332.922 427.095 332.844Z" fill="#FAFAFA"/>
<path d="M414.815 344.09C414.67 344.145 414.214 343.378 413.791 342.366C413.38 341.353 413.157 340.486 413.302 340.419C413.447 340.363 413.903 341.131 414.325 342.143C414.748 343.166 414.959 344.034 414.815 344.09Z" fill="#FAFAFA"/>
<path d="M401.222 348.428C401.222 348.584 400.765 348.717 400.198 348.717C399.631 348.717 399.175 348.584 399.175 348.428C399.175 348.272 399.631 348.139 400.198 348.139C400.765 348.139 401.222 348.261 401.222 348.428Z" fill="#FAFAFA"/>
<path d="M409.019 366.27C408.864 366.315 408.552 365.659 408.33 364.802C408.107 363.957 408.04 363.234 408.196 363.189C408.352 363.145 408.663 363.801 408.886 364.657C409.108 365.503 409.164 366.226 409.019 366.27Z" fill="#FAFAFA"/>
<path d="M399.164 360.319C399.03 360.241 399.186 359.707 399.531 359.14C399.876 358.573 400.254 358.184 400.398 358.261C400.532 358.339 400.376 358.873 400.031 359.44C399.687 360.008 399.308 360.408 399.164 360.319Z" fill="#FAFAFA"/>
<path d="M398.964 380.008C398.808 380.03 398.585 379.263 398.474 378.295C398.363 377.327 398.396 376.538 398.552 376.515C398.708 376.493 398.93 377.261 399.041 378.228C399.164 379.196 399.119 379.997 398.964 380.008Z" fill="#FAFAFA"/>
</g>
<defs>
<clipPath id="clip0">
<rect width="491.156" height="471" fill="white" transform="translate(0.545898)"/>
</clipPath>
</defs>
</svg>
