<svg width="512" height="490" viewBox="0 0 512 490" fill="none" xmlns="http://www.w3.org/2000/svg">
<g clip-path="url(#clip0)">
<path d="M68.5978 431.408V440.301H135.175V431.408H68.5978Z" fill="#E0E0E0"/>
<path d="M77.6697 431.771C77.9062 431.771 78.0835 433.64 78.0835 435.934C78.0835 438.24 77.8943 440.097 77.6697 440.097C77.4332 440.097 77.2558 438.228 77.2558 435.934C77.2439 433.64 77.4332 431.771 77.6697 431.771Z" fill="#FAFAFA"/>
<path d="M76.2151 431.594C76.4516 431.594 76.629 433.462 76.629 435.756C76.629 438.062 76.4398 439.919 76.2151 439.919C75.9786 439.919 75.8012 438.05 75.8012 435.756C75.8012 433.45 75.9786 431.594 76.2151 431.594Z" fill="#FAFAFA"/>
<path d="M130.021 431.771C130.258 431.771 130.435 433.64 130.435 435.934C130.435 438.24 130.246 440.097 130.021 440.097C129.784 440.097 129.607 438.228 129.607 435.934C129.607 433.64 129.796 431.771 130.021 431.771Z" fill="#FAFAFA"/>
<path d="M128.578 431.594C128.815 431.594 128.992 433.462 128.992 435.756C128.992 438.062 128.803 439.919 128.578 439.919C128.342 439.919 128.164 438.05 128.164 435.756C128.153 433.45 128.342 431.594 128.578 431.594Z" fill="#FAFAFA"/>
<path d="M119.875 436.123C119.875 436.359 112.247 436.537 102.846 436.537C93.433 436.537 85.8174 436.348 85.8174 436.123C85.8174 435.886 93.4449 435.709 102.846 435.709C112.247 435.697 119.875 435.886 119.875 436.123Z" fill="#FAFAFA"/>
<path d="M68.3032 471.451V489.237H134.881V471.451H68.3032Z" fill="#E0E0E0"/>
<path d="M135.733 484.229C135.745 484.241 135.614 484.312 135.366 484.442C135.118 484.572 134.751 484.738 134.255 484.951C133.261 485.353 131.771 485.932 129.737 486.239C127.739 486.523 125.066 486.606 122.417 485.199C121.116 484.501 119.875 483.449 118.941 482.041C118.018 480.646 117.427 478.813 117.734 476.921C117.888 475.975 118.29 475.041 118.952 474.272C119.603 473.503 120.643 472.936 121.755 472.995C122.867 473.042 123.872 473.681 124.581 474.52C125.291 475.36 125.764 476.424 125.87 477.56C126.13 479.818 125.184 482.16 123.576 483.863C121.992 485.636 119.626 486.713 117.179 486.984C114.719 487.28 112.165 486.89 109.752 486.062C107.34 485.234 104.951 483.874 103.26 481.699C102.432 480.622 101.841 479.274 101.746 477.855C101.628 476.436 102.077 474.911 103.165 473.858C103.709 473.326 104.466 472.983 105.247 472.948C106.027 472.912 106.796 473.161 107.423 473.563C108.712 474.355 109.528 475.727 109.87 477.158C110.497 480.067 109.35 483.094 107.245 484.998C105.14 486.914 102.385 487.765 99.7478 488.049C97.0989 488.309 94.4382 488.12 91.9785 487.28C89.5306 486.464 87.3311 484.856 86.0658 482.68C84.7768 480.551 84.3511 477.867 85.3208 475.608C85.782 474.497 86.8108 473.503 88.0406 473.314C89.235 473.09 90.4648 473.421 91.3991 474.118C93.2793 475.608 93.5868 478.163 92.9837 480.114C92.3687 482.112 91.0206 483.65 89.6252 484.844C86.7753 487.245 83.405 488.285 80.496 488.392C77.5514 488.498 75.0681 487.682 73.2588 486.748C71.4377 485.802 70.2315 484.726 69.4865 483.957C69.1199 483.567 68.8479 483.259 68.6942 483.035C68.5286 482.81 68.4458 482.704 68.4577 482.692C68.5404 482.574 69.7939 484.631 73.4125 486.464C75.21 487.339 77.6342 488.072 80.4842 487.931C83.2986 487.789 86.5388 486.736 89.2468 484.407C90.5713 483.248 91.8248 481.769 92.3687 479.948C92.9127 478.186 92.558 475.904 90.9852 474.698C90.2165 474.118 89.1522 473.846 88.1825 474.036C87.1892 474.201 86.4087 474.946 86.0067 475.928C85.167 477.903 85.5336 480.35 86.7398 482.302C87.9224 484.3 89.9327 485.766 92.2505 486.535C94.5683 487.316 97.1344 487.505 99.6769 487.245C102.196 486.973 104.785 486.145 106.701 484.395C108.593 482.692 109.622 479.913 109.066 477.359C108.759 476.117 108.049 474.946 106.985 474.296C105.944 473.61 104.584 473.634 103.733 474.497C102.87 475.325 102.456 476.614 102.574 477.832C102.645 479.073 103.165 480.244 103.91 481.237C105.436 483.224 107.706 484.537 110.001 485.341C112.33 486.145 114.766 486.523 117.084 486.251C119.39 485.991 121.554 485.021 123.032 483.39C124.534 481.817 125.397 479.676 125.173 477.666C125.007 475.715 123.517 473.799 121.72 473.681C120.833 473.622 119.981 474.059 119.414 474.722C118.822 475.384 118.456 476.223 118.314 477.063C118.018 478.778 118.539 480.469 119.39 481.793C120.253 483.118 121.424 484.146 122.642 484.82C125.125 486.192 127.739 486.18 129.702 485.944C131.7 485.684 133.202 485.175 134.195 484.82C135.212 484.43 135.721 484.206 135.733 484.229Z" fill="#FAFAFA"/>
<path d="M74.2529 440.547V471.411H134.882V440.547H74.2529Z" fill="#EBEBEB"/>
<path d="M84.3274 441.61C84.5639 441.61 84.7413 448.303 84.7413 456.545C84.7413 464.8 84.5521 471.481 84.3274 471.481C84.0909 471.481 83.9135 464.8 83.9135 456.545C83.9017 448.303 84.0909 441.61 84.3274 441.61Z" fill="#E0E0E0"/>
<path d="M88.9275 441.231C89.164 441.231 89.3414 447.83 89.3414 455.978C89.3414 464.126 89.1522 470.724 88.9275 470.724C88.691 470.724 88.5136 464.126 88.5136 455.978C88.5018 447.83 88.691 441.231 88.9275 441.231Z" fill="#E0E0E0"/>
<path d="M128.034 440.238C128.271 440.238 128.448 447.192 128.448 455.765C128.448 464.339 128.259 471.292 128.034 471.292C127.798 471.292 127.62 464.339 127.62 455.765C127.609 447.192 127.798 440.238 128.034 440.238Z" fill="#E0E0E0"/>
<path d="M122.63 440.652C122.867 440.652 123.044 447.428 123.044 455.777C123.044 464.138 122.855 470.902 122.63 470.902C122.394 470.902 122.216 464.126 122.216 455.777C122.204 447.428 122.394 440.652 122.63 440.652Z" fill="#E0E0E0"/>
<path d="M449.001 373.176C455.292 369.936 462.683 369.51 469.66 370.669C473.409 371.284 477.323 372.407 479.866 375.222C482.42 378.036 482.905 382.991 479.972 385.415C478.234 386.858 475.798 387.071 473.539 387.047C468.076 386.988 462.021 386.019 457.646 389.306C455.15 391.186 453.495 394.296 450.527 395.219C447.618 396.117 444.33 394.403 442.781 391.778C441.232 389.152 441.185 385.865 441.906 382.897C441.918 382.897 442.675 376.44 449.001 373.176Z" fill="#EBEBEB"/>
<path d="M434.598 345.375C438.441 350.862 445.915 349.052 449.38 345.694C452.844 342.347 454.311 337.487 455.635 332.851C458.674 322.268 461.749 311.175 459.49 300.39C458.816 297.174 457.61 293.957 455.34 291.569C453.081 289.18 449.592 287.761 446.411 288.601C442.639 289.594 440.309 293.283 438.607 296.796C433.628 307.107 431.003 318.543 430.955 330.001C430.955 335.358 431.582 340.964 434.598 345.375Z" fill="#EBEBEB"/>
<path d="M424.049 353.25C428.224 348.295 429.016 341.07 427.159 334.873C425.303 328.665 421.105 323.391 416.268 319.086C410.604 314.037 403.934 310.099 396.768 307.58C393.954 306.587 390.974 305.806 388.005 306.09C385.025 306.374 382.034 307.9 380.65 310.537C378.604 314.451 380.567 319.193 382.696 323.072C386.444 329.895 390.725 336.423 395.503 342.572C399.346 347.515 403.733 352.399 409.587 354.634C415.44 356.869 421.507 356.609 424.617 352.552" fill="#EBEBEB"/>
<path d="M434.338 428.188C434.409 428.188 434.527 427.301 434.68 425.693C434.858 423.872 435.083 421.602 435.343 418.882C435.662 416.02 436.076 412.614 436.868 408.901C437.66 405.2 438.902 401.191 440.499 397.111C442.154 393.067 444.164 389.389 446.518 386.444C448.859 383.488 451.567 381.348 454.122 380.118C456.664 378.864 458.946 378.344 460.531 378.119C462.127 377.954 463.014 377.835 463.014 377.765C463.014 377.694 462.127 377.682 460.484 377.729C458.864 377.835 456.487 378.249 453.802 379.467C451.106 380.662 448.232 382.838 445.773 385.853C443.301 388.857 441.22 392.617 439.541 396.733C437.921 400.871 436.691 404.928 435.934 408.712C435.177 412.484 434.834 415.937 434.61 418.823C434.397 421.708 434.314 424.049 434.267 425.669C434.255 427.278 434.267 428.176 434.338 428.188Z" fill="#E0E0E0"/>
<path d="M434.811 422.95C434.846 422.95 434.87 422.548 434.882 421.791C434.882 420.916 434.882 419.828 434.87 418.48C434.858 415.606 434.858 411.456 435.012 406.323C435.26 396.059 436.147 385.014 437.862 369.428C439.482 354.776 441.646 337.736 443.94 326.655C444.437 324.136 444.921 321.866 445.394 319.879C445.844 317.892 446.222 316.178 446.589 314.782C446.908 313.47 447.156 312.405 447.357 311.566C447.523 310.833 447.594 310.431 447.558 310.419C447.523 310.407 447.381 310.785 447.156 311.507C446.908 312.334 446.589 313.387 446.199 314.676C445.773 316.048 445.335 317.762 444.839 319.737C444.318 321.712 443.774 323.983 443.23 326.49C440.96 336.529 438.571 350.566 436.845 366.176C435.13 381.785 434.361 396 434.29 406.288C434.231 411.432 434.338 415.594 434.468 418.468C434.55 419.816 434.621 420.904 434.669 421.779C434.728 422.548 434.775 422.95 434.811 422.95Z" fill="#E0E0E0"/>
<path d="M434.882 395.538C434.953 395.538 434.941 394.308 434.858 392.085C434.728 389.862 434.42 386.657 433.794 382.72C433.131 378.794 432.209 374.134 430.743 369.073C430.116 366.755 428.626 361.209 425.031 352.919C420.301 341.685 413.868 332.509 408.274 326.821C406.962 325.307 405.495 324.219 404.336 323.155C403.733 322.646 403.201 322.138 402.657 321.724C402.113 321.345 401.605 320.991 401.132 320.671C399.287 319.418 398.258 318.744 398.223 318.803C398.057 319.028 402.35 321.546 407.766 327.317C413.158 333.064 419.414 342.182 424.109 353.321C426.722 359.364 428.555 364.745 429.844 369.321C431.346 374.335 432.339 378.947 433.084 382.838C433.794 386.728 434.208 389.909 434.456 392.109C434.657 394.32 434.811 395.538 434.882 395.538Z" fill="#E0E0E0"/>
<path d="M406.548 439.73L409.291 477.359H457.634L460.389 439.73H406.548Z" fill="#EBEBEB"/>
<path d="M466.148 424.889H401.877V439.718H466.148V424.889Z" fill="#EBEBEB"/>
<path d="M401.877 475.916V480.031H404.904H465.096V475.916H401.877Z" fill="#E0E0E0"/>
<path d="M407.86 486.807L404.904 479.57H462.79L459.337 486.807H407.86Z" fill="#E0E0E0"/>
<path d="M459.49 452.029C459.502 452.04 459.419 452.159 459.266 452.372C459.076 452.632 458.84 452.939 458.544 453.329C457.858 454.205 456.912 455.411 455.73 456.936L455.6 457.102L455.481 456.936C453.708 454.488 451.343 451.213 448.564 447.369H448.966C446.908 450.278 444.614 453.53 442.154 457.019L441.941 457.326L441.705 457.043C439.186 454.051 436.466 450.799 433.628 447.429L434.089 447.417C433.947 447.594 433.794 447.783 433.64 447.973C431.133 451.118 428.709 454.157 426.414 457.031L426.178 457.338L425.953 457.019C423.505 453.554 421.211 450.302 419.142 447.381L419.544 447.405C416.185 451.236 413.335 454.477 411.148 456.972L410.994 457.137L410.876 456.948C409.764 455.091 408.889 453.601 408.251 452.537C407.979 452.052 407.754 451.674 407.577 451.366C407.423 451.094 407.364 450.953 407.375 450.953C407.387 450.941 407.482 451.071 407.659 451.331C407.86 451.627 408.097 452.005 408.404 452.466C409.078 453.519 410.001 454.973 411.16 456.806L410.899 456.782C413.052 454.264 415.854 450.976 419.154 447.109L419.366 446.861L419.556 447.121C421.649 450.042 423.955 453.27 426.426 456.723L425.965 456.712C428.247 453.838 430.672 450.787 433.167 447.641C433.321 447.452 433.474 447.263 433.616 447.086L433.841 446.802L434.077 447.086C436.904 450.468 439.624 453.72 442.131 456.712L441.681 456.735C444.164 453.27 446.482 450.042 448.564 447.133L448.765 446.849L448.966 447.133C451.685 451.023 454.003 454.335 455.742 456.806L455.493 456.794C456.723 455.316 457.705 454.134 458.426 453.282C458.745 452.916 459.005 452.62 459.206 452.372C459.384 452.111 459.478 452.017 459.49 452.029Z" fill="#F5F5F5"/>
<path d="M461.063 439.481C461.063 439.647 448.954 439.777 434.006 439.777C419.059 439.777 406.95 439.647 406.95 439.481C406.95 439.316 419.059 439.186 434.006 439.186C448.942 439.174 461.063 439.304 461.063 439.481Z" fill="#F5F5F5"/>
<path d="M185.459 47.491C185.459 47.5028 185.364 47.4674 185.187 47.4082C184.974 47.3255 184.714 47.219 184.406 47.1008C183.673 46.7933 182.68 46.3794 181.426 45.8591C178.789 44.7357 175.076 43.1392 170.499 41.1762C161.252 37.1437 148.563 31.6212 134.538 25.5075C134.113 25.3183 133.687 25.1291 133.297 24.9635H133.557C119.78 30.8526 107.363 36.1622 98.3287 40.0291C93.8587 41.9094 90.2401 43.423 87.6621 44.511C86.4441 45.0077 85.4744 45.4097 84.753 45.6935C84.0908 45.9537 83.7361 46.0838 83.7242 46.072C83.7124 46.0483 84.0553 45.8827 84.7057 45.5753C85.4153 45.256 86.3613 44.8185 87.5675 44.2745C90.1218 43.1511 93.7167 41.5665 98.1513 39.6034C107.162 35.6892 119.555 30.3204 133.308 24.3604L133.438 24.3013L133.569 24.3604C133.959 24.5378 134.385 24.7152 134.81 24.9044C148.8 31.0773 161.465 36.6707 170.689 40.7387C175.23 42.7726 178.919 44.4282 181.533 45.6108C182.763 46.1784 183.744 46.6278 184.465 46.9707C184.773 47.1126 185.021 47.2427 185.222 47.3373C185.376 47.4319 185.459 47.4792 185.459 47.491Z" fill="#E0E0E0"/>
<path d="M241.535 42.3232H10.5956V215.247H241.535V42.3232Z" fill="#E0E0E0"/>
<path d="M234.333 50.3647H18.6724V208.14H234.333V50.3647Z" fill="#FAFAFA"/>
<path d="M66.3054 119.295C66.3054 119.295 66.53 145.784 67.8781 153.861L101.096 152.288C101.096 152.288 98.175 126.249 99.2984 119.295H66.3054Z" fill="#E0E0E0"/>
<path d="M82.6718 123.044C82.6718 123.044 82.7073 123.032 82.7901 123.032C82.8847 123.032 83.0029 123.021 83.1448 123.021C83.4641 122.997 83.9253 123.021 84.5284 123.092C85.1197 123.186 85.8529 123.352 86.6452 123.718C87.4256 124.085 88.2416 124.7 88.9393 125.539C89.6134 126.391 90.2401 127.455 90.5357 128.744C90.8077 130.021 90.6658 131.464 90.1928 132.848C89.9563 133.545 89.637 134.231 89.2586 134.893C88.8802 135.567 88.5018 136.23 88.1943 136.963C87.5676 138.417 87.0709 140.014 86.8462 141.681L86.8344 141.788H86.7279C85.6755 141.799 84.5757 141.823 83.4523 141.835C82.2697 141.859 81.1108 141.87 80.0111 141.894H79.8928V141.764C79.8337 140.097 79.0887 138.571 78.2964 137.223C77.8943 136.537 77.4568 135.91 77.0547 135.26C76.6526 134.621 76.2033 134.018 75.884 133.356C75.2336 132.032 75.1153 130.565 75.3637 129.312C75.6002 128.046 76.0259 126.899 76.6408 126.001C77.2676 125.102 78.0599 124.475 78.8049 124.049C79.5617 123.636 80.2594 123.399 80.8507 123.257C81.4301 123.115 81.8913 123.056 82.2106 123.032C82.3643 123.021 82.4826 123.021 82.5654 123.021C82.6363 123.032 82.6718 123.044 82.6718 123.044C82.6718 123.044 82.6363 123.056 82.5535 123.056C82.4589 123.068 82.3407 123.08 82.1988 123.092C81.8913 123.127 81.4301 123.198 80.8625 123.352C80.2949 123.505 79.5972 123.742 78.864 124.168C78.1308 124.593 77.374 125.208 76.7709 126.095C76.1796 126.97 75.7657 128.106 75.541 129.347C75.3045 130.577 75.4228 131.984 76.0614 133.261C76.3688 133.9 76.8182 134.491 77.2203 135.142C77.6223 135.78 78.0717 136.419 78.4738 137.105C79.2779 138.465 80.0466 140.014 80.1175 141.764L79.9874 141.646C81.0872 141.622 82.2461 141.61 83.4286 141.587C84.5521 141.575 85.6637 141.551 86.7043 141.539L86.586 141.646C86.8107 139.931 87.3192 138.335 87.9578 136.856C88.2771 136.123 88.6673 135.426 89.0339 134.763C89.4123 134.101 89.7198 133.439 89.9563 132.753C90.4411 131.393 90.583 129.998 90.3229 128.756C90.0509 127.526 89.4478 126.462 88.7974 125.622C88.1115 124.794 87.331 124.191 86.5742 123.813C85.8056 123.434 85.096 123.269 84.5048 123.162C83.9135 123.08 83.4523 123.044 83.133 123.056C82.9911 123.056 82.8728 123.044 82.7782 123.044C82.7191 123.056 82.6718 123.044 82.6718 123.044Z" fill="white"/>
<path d="M84.3746 141.492C84.3746 141.492 84.3628 141.456 84.351 141.385C84.3392 141.314 84.3273 141.208 84.3037 141.078C84.2564 140.806 84.1973 140.404 84.1263 139.895C83.9726 138.867 83.7597 137.377 83.606 135.508C83.5705 135.047 83.535 134.55 83.5232 134.042C83.5114 133.533 83.4877 133.001 83.5114 132.457C83.5469 131.913 83.6296 131.334 83.8898 130.79C84.1381 130.258 84.5638 129.761 85.1551 129.524C85.7346 129.276 86.4796 129.406 86.9644 129.867C87.2009 130.104 87.3547 130.435 87.3547 130.778C87.3547 131.121 87.2246 131.452 87.0117 131.724C86.8107 132.008 86.5269 132.221 86.2076 132.374C85.9001 132.528 85.5572 132.623 85.2261 132.705C84.5402 132.847 83.8425 132.93 83.133 132.954C82.4234 132.966 81.7139 132.954 81.028 132.847C80.6851 132.788 80.3422 132.705 80.0229 132.564C79.7036 132.422 79.4198 132.221 79.1833 131.972C78.9467 131.724 78.7694 131.416 78.6984 131.085C78.6156 130.754 78.6748 130.399 78.8167 130.104C78.9586 129.808 79.2069 129.548 79.5144 129.43C79.8218 129.3 80.1766 129.335 80.4604 129.477C80.7442 129.607 80.9926 129.832 81.1699 130.08C81.3473 130.329 81.4538 130.624 81.5247 130.908C81.6666 131.487 81.6548 132.055 81.6903 132.599C81.7494 133.687 81.7967 134.716 81.844 135.638C81.9386 137.495 82.0095 138.997 82.0687 140.049C82.0923 140.569 82.116 140.971 82.1278 141.243C82.1278 141.374 82.1396 141.48 82.1396 141.551C82.1396 141.622 82.1396 141.657 82.1396 141.657C82.1396 141.657 82.1396 141.622 82.1278 141.551C82.1278 141.48 82.116 141.374 82.1042 141.243C82.0923 140.96 82.0569 140.558 82.0332 140.049C81.9741 139.008 81.8913 137.507 81.773 135.65C81.7257 134.716 81.6666 133.699 81.6075 132.611C81.572 132.067 81.572 131.499 81.4419 130.932C81.371 130.648 81.2645 130.376 81.099 130.139C80.9334 129.903 80.6969 129.702 80.4249 129.572C80.153 129.442 79.8337 129.418 79.5498 129.536C79.266 129.643 79.0414 129.879 78.9113 130.163C78.7812 130.447 78.7339 130.766 78.8048 131.085C78.8758 131.393 79.0414 131.688 79.266 131.925C79.7154 132.41 80.3776 132.67 81.0399 132.776C81.7139 132.883 82.4234 132.895 83.133 132.871C83.8425 132.847 84.5402 132.776 85.2142 132.635C85.5454 132.564 85.8765 132.469 86.1721 132.315C86.4678 132.173 86.7397 131.96 86.9408 131.7C87.1418 131.44 87.2601 131.121 87.2601 130.813C87.2719 130.494 87.1181 130.198 86.9053 129.974C86.4559 129.536 85.7582 129.406 85.2024 129.643C84.6466 129.867 84.2327 130.352 83.9844 130.861C83.7361 131.381 83.6415 131.949 83.6178 132.493C83.5823 133.037 83.606 133.569 83.6178 134.077C83.6296 134.586 83.6651 135.071 83.7006 135.532C83.8425 137.388 84.0554 138.878 84.1854 139.919C84.2564 140.427 84.3155 140.83 84.351 141.102C84.3628 141.232 84.3865 141.338 84.3865 141.409C84.3746 141.456 84.3746 141.492 84.3746 141.492Z" fill="white"/>
<path d="M79.9992 141.669C80.011 141.681 80.0465 142.083 80.082 142.769C80.1175 143.573 80.1766 144.531 80.2357 145.643L80.2121 145.572C80.8743 146.34 81.6311 147.215 82.4471 148.15L82.3288 148.102C83.1448 148.055 84.0081 148.008 84.9186 147.96L84.8122 148.02C85.2261 147.511 85.6636 146.991 86.1012 146.447C86.314 146.187 86.5387 145.915 86.7516 145.666L86.7161 145.773C86.6806 144.259 86.6451 142.828 86.6215 141.516L86.7634 141.646C84.8831 141.669 83.2512 141.681 81.9386 141.705C81.4183 141.705 80.9571 141.705 80.5432 141.705C80.2003 141.681 80.011 141.681 79.9992 141.669C79.9874 141.657 80.153 141.646 80.4604 141.622C80.8625 141.598 81.3118 141.575 81.8203 141.551C83.1566 141.504 84.824 141.433 86.7397 141.362H86.8816V141.504C86.9171 142.816 86.9644 144.247 87.0117 145.761V145.82L86.9763 145.867C86.7634 146.127 86.5505 146.388 86.3258 146.66C85.8883 147.192 85.4508 147.724 85.0369 148.232L84.9896 148.28H84.9186C84.0199 148.327 83.1448 148.362 82.3288 148.41H82.2579L82.2106 148.362C81.4064 147.416 80.6733 146.53 80.011 145.749L79.9874 145.714V145.678C79.9756 144.531 79.9637 143.55 79.9637 142.722C79.9874 142.024 79.9874 141.657 79.9992 141.669Z" fill="white"/>
<path d="M86.6807 145.406C86.6807 145.418 86.5861 145.37 86.4323 145.3C86.2786 145.229 86.0539 145.134 85.7583 145.039C85.1906 144.838 84.351 144.649 83.4287 144.685C82.4944 144.708 81.6785 144.945 81.1227 145.181C80.8389 145.3 80.6142 145.406 80.4723 145.489C80.3186 145.572 80.2358 145.619 80.2358 145.607C80.2358 145.607 80.3067 145.548 80.4486 145.453C80.5905 145.359 80.8152 145.24 81.099 145.11C81.6548 144.862 82.4944 144.602 83.4287 144.578C84.3747 144.555 85.2143 144.744 85.7938 144.968C86.0776 145.075 86.3022 145.181 86.456 145.264C86.5979 145.359 86.6807 145.406 86.6807 145.406Z" fill="white"/>
<path d="M86.6688 144.377C86.6688 144.389 86.5742 144.342 86.4205 144.271C86.2668 144.2 86.0421 144.105 85.7464 144.011C85.1788 143.81 84.3392 143.632 83.4168 143.656C82.4826 143.679 81.6666 143.916 81.1108 144.152C80.827 144.271 80.6024 144.377 80.4605 144.46C80.3067 144.543 80.2239 144.59 80.2239 144.578C80.2239 144.578 80.2949 144.519 80.4368 144.424C80.5787 144.33 80.8034 144.212 81.0872 144.082C81.643 143.833 82.4826 143.573 83.4168 143.549C84.3629 143.526 85.2025 143.715 85.7819 143.94C86.0657 144.046 86.2904 144.152 86.4441 144.235C86.5979 144.318 86.6806 144.377 86.6688 144.377Z" fill="white"/>
<path d="M86.6097 143.396C86.6097 143.408 86.5151 143.36 86.3613 143.289C86.2076 143.218 85.9829 143.124 85.6873 143.029C85.1197 142.828 84.2801 142.639 83.3577 142.674C82.4235 142.698 81.6075 142.935 81.0517 143.171C80.7679 143.289 80.5432 143.396 80.4013 143.478C80.2476 143.561 80.1648 143.609 80.1648 143.597C80.1648 143.597 80.2357 143.538 80.3777 143.443C80.5196 143.348 80.7442 143.23 81.028 143.1C81.5838 142.852 82.4235 142.592 83.3577 142.568C84.3037 142.544 85.1433 142.733 85.7228 142.958C86.0066 143.065 86.2313 143.171 86.385 143.254C86.5387 143.337 86.6215 143.384 86.6097 143.396Z" fill="white"/>
<path d="M29.3153 76.0024C29.3153 76.0024 29.54 102.491 30.8881 110.568L64.1058 108.995C64.1058 108.995 61.1849 82.9558 62.3084 76.0024H29.3153Z" fill="#EBEBEB"/>
<path d="M57.3062 87.1303C57.318 87.3077 52.3395 87.757 46.1784 88.1236C40.0173 88.4902 35.027 88.6439 35.0152 88.4666C35.0033 88.2892 39.9819 87.8398 46.1429 87.4732C52.2922 87.0948 57.2943 86.9411 57.3062 87.1303Z" fill="white"/>
<path d="M57.3062 92.7353C57.318 92.9127 52.3395 93.3621 46.1784 93.7287C40.0173 94.0953 35.027 94.249 35.0152 94.0716C35.0033 93.8942 39.9819 93.4449 46.1429 93.0783C52.304 92.7117 57.2943 92.558 57.3062 92.7353Z" fill="white"/>
<path d="M51.6654 98.2464C51.6773 98.4237 48.8391 98.743 45.3388 98.9559C41.8266 99.1687 38.9767 99.1924 38.9649 99.015C38.9531 98.8376 41.7912 98.5183 45.2915 98.3055C48.8037 98.0926 51.6536 98.069 51.6654 98.2464Z" fill="white"/>
<path d="M27.7425 153.92C27.7425 153.92 27.9672 180.409 29.3153 188.486L62.533 186.913C62.533 186.913 59.6121 160.874 60.7355 153.92H27.7425Z" fill="#EBEBEB"/>
<path d="M55.7333 165.048C55.7452 165.226 50.7667 165.675 44.6056 166.042C38.4445 166.408 33.4542 166.562 33.4423 166.385C33.4305 166.207 38.409 165.758 44.5701 165.391C50.7193 165.025 55.7215 164.871 55.7333 165.048Z" fill="white"/>
<path d="M55.7333 170.653C55.7452 170.831 50.7667 171.28 44.6056 171.647C38.4445 172.013 33.4542 172.167 33.4423 171.99C33.4305 171.812 38.409 171.363 44.5701 170.996C50.7312 170.63 55.7215 170.476 55.7333 170.653Z" fill="white"/>
<path d="M50.0926 176.164C50.1044 176.342 47.2663 176.661 43.766 176.874C40.2538 177.087 37.4039 177.11 37.3921 176.933C37.3802 176.756 40.2184 176.436 43.7187 176.223C47.2309 176.011 50.0808 175.987 50.0926 176.164Z" fill="white"/>
<path d="M118.527 83.0151L121.814 159.408L217.175 160.567L212.894 84.0321L118.527 83.0151Z" fill="#EBEBEB"/>
<path d="M212.149 82.4707H117.415V154.003H212.149V82.4707Z" fill="#F5F5F5"/>
<path d="M212.149 154.003C212.149 154.003 212.125 153.542 212.125 152.679C212.113 151.792 212.113 150.515 212.09 148.859C212.078 145.501 212.054 140.617 212.019 134.385C211.983 121.909 211.936 104.064 211.877 82.4709L212.149 82.7429C185.364 82.7547 152.679 82.7783 117.427 82.802H117.415L117.746 82.4709C117.734 108.191 117.723 132.552 117.711 154.003L117.415 153.707C145.441 153.767 169.092 153.814 185.743 153.849C194.068 153.885 200.655 153.909 205.172 153.932C207.419 153.944 209.145 153.956 210.34 153.968C210.919 153.979 211.357 153.979 211.676 153.979C211.983 153.991 212.149 154.003 212.149 154.003C212.149 154.003 212.007 154.015 211.723 154.015C211.416 154.015 210.978 154.027 210.422 154.027C209.24 154.039 207.537 154.05 205.314 154.062C200.808 154.086 194.245 154.11 185.944 154.145C169.234 154.18 145.524 154.228 117.427 154.287H117.131V153.991C117.119 132.54 117.108 108.191 117.096 82.4591V82.1279H117.427H117.439C152.69 82.1516 185.376 82.1752 212.161 82.1871H212.433V82.4591C212.374 104.123 212.326 122.027 212.291 134.538C212.267 140.747 212.243 145.607 212.22 148.954C212.208 150.586 212.196 151.851 212.184 152.726C212.173 153.577 212.149 154.003 212.149 154.003Z" fill="#E0E0E0"/>
<path d="M167.248 97.6309H128.85V145.962H167.248V97.6309Z" fill="#F5F5F5"/>
<path d="M167.248 145.962C167.248 145.962 167.236 145.879 167.236 145.713C167.236 145.536 167.224 145.311 167.224 145.028C167.212 144.389 167.2 143.514 167.188 142.391C167.165 140.061 167.141 136.702 167.106 132.481C167.07 123.978 167.023 111.94 166.964 97.6429L167.259 97.9386C155.812 97.9504 142.722 97.9622 128.862 97.974C128.779 98.045 129.477 97.3591 129.181 97.6548V97.6666V97.6902V97.7375V97.844V98.0568V98.4707V99.3103V100.978C129.181 102.089 129.181 103.189 129.181 104.289C129.181 106.488 129.181 108.652 129.181 110.805C129.181 115.097 129.17 119.284 129.17 123.34C129.158 131.452 129.146 139.068 129.134 145.974L128.862 145.702C140.38 145.761 149.947 145.808 156.664 145.844C159.999 145.879 162.624 145.903 164.469 145.914C165.344 145.926 166.03 145.938 166.538 145.95C166.987 145.938 167.248 145.962 167.248 145.962C167.259 145.974 167.035 145.985 166.574 145.997C166.077 146.009 165.415 146.021 164.551 146.033C162.73 146.045 160.117 146.068 156.806 146.104C150.042 146.139 140.427 146.186 128.827 146.246H128.555V145.974C128.543 139.068 128.531 131.464 128.519 123.34C128.519 119.284 128.507 115.085 128.507 110.805C128.507 108.664 128.507 106.488 128.507 104.289C128.507 103.189 128.507 102.089 128.507 100.978V99.3103V98.4707V98.0568V97.844V97.7375V97.6784V97.6548V97.6429C128.212 97.9267 128.898 97.2409 128.838 97.3118C142.698 97.3236 155.789 97.3355 167.236 97.3473H167.531V97.6429C167.472 112.011 167.425 124.12 167.39 132.67C167.354 136.868 167.33 140.203 167.307 142.521C167.295 143.62 167.283 144.484 167.271 145.11C167.259 145.382 167.259 145.595 167.259 145.761C167.259 145.891 167.248 145.962 167.248 145.962Z" fill="#E0E0E0"/>
<path d="M203.907 86.5625H130.317V93.5277H203.907V86.5625Z" fill="#F5F5F5"/>
<path d="M203.906 93.5276C203.895 93.5158 203.895 93.3621 203.883 93.0546C203.871 92.7117 203.859 92.2742 203.847 91.7065C203.836 90.5003 203.8 88.7738 203.776 86.5743L203.906 86.7044C191.49 86.8226 163.203 86.8936 130.317 86.8936C130.967 86.2432 130.494 86.7162 130.648 86.5743V86.5861V86.5979V86.6216V86.6807V86.7871V87.0118V87.4612V88.3481C130.648 88.9394 130.648 89.5306 130.648 90.1101C130.648 91.2808 130.648 92.4161 130.648 93.5276L130.328 93.2084C150.905 93.2675 169.246 93.3148 182.491 93.3503C189.089 93.3857 194.422 93.4212 198.147 93.4449C199.969 93.4685 201.388 93.4803 202.405 93.4922C202.866 93.504 203.232 93.504 203.516 93.5158C203.765 93.5158 203.906 93.5276 203.906 93.5276C203.918 93.5395 203.8 93.5395 203.552 93.5513C203.28 93.5513 202.925 93.5631 202.476 93.5749C201.482 93.5868 200.075 93.5986 198.289 93.6223C194.588 93.6459 189.278 93.6814 182.703 93.7169C169.4 93.7523 150.976 93.7996 130.305 93.8588H129.986V93.5276C129.986 92.4161 129.986 91.269 129.986 90.1101C129.986 89.5306 129.986 88.9394 129.986 88.3481V87.4612V87.0118V86.7871V86.6807V86.6216V86.5979V86.5861V86.5743C130.127 86.4324 129.654 86.8936 130.317 86.2432C163.203 86.2432 191.502 86.3259 203.906 86.4324H204.037V86.5624C204.001 88.7975 203.977 90.5476 203.966 91.7775C203.954 92.3333 203.942 92.7708 203.93 93.1019C203.93 93.3976 203.918 93.5395 203.906 93.5276Z" fill="#E0E0E0"/>
<path d="M203.918 97.6313H171.954V126.757H203.918V97.6313Z" fill="#F5F5F5"/>
<path d="M203.907 126.757C203.895 126.746 203.883 126.556 203.871 126.19C203.859 125.788 203.847 125.267 203.836 124.605C203.824 123.186 203.788 121.188 203.765 118.669C203.729 113.548 203.682 106.311 203.623 97.6194L203.895 97.8914C194.659 97.9032 183.685 97.9269 171.93 97.9387C171.86 98.0096 172.545 97.3238 172.25 97.6194V97.6312V97.643V97.6785V97.7377V97.8677V98.1161V98.6127V99.6061C172.25 100.268 172.25 100.919 172.25 101.569C172.25 102.87 172.25 104.171 172.25 105.448C172.25 108.014 172.25 110.521 172.238 112.957C172.226 117.841 172.214 122.477 172.214 126.746L171.93 126.462C181.414 126.521 189.349 126.568 194.99 126.604C197.757 126.639 199.969 126.663 201.53 126.675C202.251 126.686 202.83 126.698 203.28 126.71C203.694 126.734 203.895 126.746 203.907 126.757C203.918 126.769 203.729 126.781 203.351 126.793C202.925 126.805 202.369 126.816 201.66 126.828C200.111 126.852 197.935 126.876 195.179 126.899C189.503 126.935 181.497 126.982 171.942 127.041H171.658V126.757C171.647 122.488 171.635 117.853 171.635 112.969C171.635 110.521 171.635 108.014 171.623 105.46C171.623 104.183 171.623 102.882 171.623 101.581C171.623 100.931 171.623 100.268 171.623 99.6179V98.6246V98.1279V97.8795V97.7495V97.6903V97.6549V97.643V97.6312C171.327 97.915 172.013 97.2292 171.954 97.3001C183.709 97.3119 194.683 97.3356 203.918 97.3474H204.202V97.6194C204.143 106.382 204.096 113.678 204.06 118.846C204.025 121.341 204.001 123.316 203.989 124.723C203.977 125.362 203.966 125.859 203.954 126.249C203.93 126.592 203.918 126.769 203.907 126.757Z" fill="#E0E0E0"/>
<path d="M203.918 131.322H171.954V145.962H203.918V131.322Z" fill="#F5F5F5"/>
<path d="M203.907 145.962C203.895 145.95 203.871 145.583 203.859 144.897C203.847 144.164 203.824 143.183 203.8 141.953C203.765 139.375 203.729 135.756 203.67 131.322L203.907 131.558C195.57 131.582 184.324 131.617 171.942 131.653C171.647 131.949 172.333 131.251 172.262 131.334V131.345V131.357V131.393V131.452V131.57V131.807V132.291V133.249C172.262 133.888 172.262 134.515 172.262 135.153C172.262 136.407 172.262 137.66 172.262 138.878C172.262 141.326 172.25 143.703 172.25 145.974L171.942 145.666C181.166 145.725 189.089 145.772 194.801 145.808C197.592 145.843 199.839 145.867 201.459 145.891C202.192 145.903 202.795 145.914 203.256 145.926C203.682 145.926 203.895 145.938 203.907 145.962C203.918 145.974 203.717 145.985 203.339 145.997C202.89 146.009 202.31 146.021 201.601 146.033C199.992 146.056 197.769 146.08 195.014 146.115C189.255 146.151 181.249 146.198 171.954 146.257H171.647V145.95C171.647 143.679 171.635 141.302 171.635 138.855C171.635 137.625 171.635 136.383 171.635 135.13C171.635 134.503 171.635 133.864 171.635 133.226V132.268V131.783V131.546V131.428V131.369V131.334V131.322V131.31C171.564 131.381 172.25 130.695 171.966 130.979C184.347 131.014 195.593 131.05 203.93 131.073H204.167V131.31C204.119 135.804 204.072 139.47 204.037 142.095C204.013 143.301 203.989 144.259 203.977 144.98C203.942 145.642 203.93 145.974 203.907 145.962Z" fill="#E0E0E0"/>
<path d="M166.301 97.7139C154.416 114.139 140.734 129.536 128.85 145.962L166.301 97.7139Z" fill="white"/>
<path d="M128.85 145.962C128.827 145.95 128.945 145.761 129.17 145.418C129.442 145.016 129.773 144.531 130.175 143.951C131.05 142.674 132.362 140.865 134.018 138.654C137.317 134.219 142.036 128.212 147.322 121.637C152.608 115.062 157.385 109.114 160.779 104.75C162.423 102.621 163.783 100.883 164.788 99.5823C165.225 99.0265 165.592 98.5653 165.888 98.1869C166.148 97.8676 166.29 97.7139 166.313 97.7257C166.337 97.7376 166.219 97.9268 165.994 98.2697C165.722 98.6718 165.391 99.1566 164.989 99.7361C164.114 101.013 162.801 102.823 161.146 105.034C157.846 109.468 153.128 115.476 147.83 122.051C142.544 128.614 137.767 134.574 134.385 138.937C132.741 141.066 131.381 142.804 130.376 144.105C129.938 144.661 129.572 145.122 129.276 145.501C129.004 145.808 128.862 145.974 128.85 145.962Z" fill="#E0E0E0"/>
<path d="M167.248 145.95C167.106 146.057 158.39 135.331 147.795 121.992C137.187 108.641 128.708 97.7377 128.85 97.6194C128.992 97.513 137.696 108.239 148.303 121.578C158.911 134.929 167.389 145.844 167.248 145.95Z" fill="#E0E0E0"/>
<path d="M121.814 97.7256C121.814 101.049 119.13 103.733 115.807 103.733C112.484 103.733 109.799 101.049 109.799 97.7256C109.799 94.4026 112.484 91.7183 115.807 91.7183C119.118 91.7183 121.814 94.4145 121.814 97.7256Z" fill="#E0E0E0"/>
<path d="M220.072 83.145C220.072 86.468 217.388 89.1524 214.065 89.1524C210.742 89.1524 208.057 86.468 208.057 83.145C208.057 79.8221 210.742 77.1377 214.065 77.1377C217.376 77.1377 220.072 79.8339 220.072 83.145Z" fill="#E0E0E0"/>
<path d="M455.068 124.995H385.841V225.346H455.068V124.995Z" fill="#E0E0E0"/>
<path d="M451.603 124.995H382.376V225.346H451.603V124.995Z" fill="#F5F5F5"/>
<path d="M443.006 135.863H390.974V214.479H443.006V135.863Z" fill="white"/>
<path d="M443.006 214.467C443.006 214.467 442.994 214.336 442.994 214.076C442.994 213.816 442.994 213.45 442.982 212.965C442.982 211.971 442.97 210.529 442.958 208.648C442.946 204.876 442.935 199.389 442.911 192.459C442.887 178.6 442.864 158.97 442.828 135.851L443.006 136.028C427.112 136.028 409.492 136.04 390.985 136.04H390.974L391.163 135.851C391.151 165.509 391.139 192.85 391.127 214.455L390.974 214.301C406.82 214.336 419.804 214.36 428.839 214.384C433.356 214.396 436.892 214.407 439.304 214.419C440.499 214.431 441.421 214.431 442.048 214.431C442.674 214.455 443.006 214.467 443.006 214.467C443.006 214.467 442.698 214.478 442.083 214.478C441.456 214.478 440.546 214.49 439.363 214.49C436.963 214.502 433.439 214.514 428.933 214.526C419.875 214.549 406.855 214.573 390.974 214.608H390.82V214.455C390.808 192.838 390.796 165.497 390.784 135.851V135.662H390.974H390.985C409.492 135.662 427.112 135.673 443.006 135.673H443.183V135.851C443.148 159.017 443.124 178.683 443.1 192.566C443.077 199.484 443.065 204.959 443.053 208.719C443.041 210.576 443.041 212.019 443.029 213C443.029 213.473 443.017 213.84 443.017 214.1C443.006 214.348 443.006 214.467 443.006 214.467Z" fill="#E0E0E0"/>
<path d="M451.792 124.995C451.827 125.031 451.366 125.716 450.562 126.793C449.758 127.869 448.611 129.335 447.31 130.908C446.009 132.492 444.791 133.888 443.893 134.881C442.994 135.875 442.403 136.466 442.367 136.43C442.332 136.395 442.84 135.744 443.692 134.704C444.614 133.58 445.761 132.197 447.026 130.659C448.292 129.122 449.427 127.739 450.361 126.615C451.213 125.586 451.756 124.96 451.792 124.995Z" fill="#E0E0E0"/>
<path d="M443.265 214.218C445.855 218.322 448.894 222.141 452.335 225.571L443.265 214.218Z" fill="white"/>
<path d="M452.336 225.559C452.3 225.594 451.686 225.062 450.751 224.116C449.817 223.182 448.587 221.834 447.334 220.261C446.08 218.688 445.028 217.187 444.318 216.075C443.609 214.963 443.218 214.242 443.266 214.218C443.313 214.195 443.774 214.857 444.543 215.933C445.312 217.009 446.376 218.464 447.629 220.037C448.883 221.597 450.077 222.969 450.952 223.951C451.827 224.92 452.383 225.524 452.336 225.559Z" fill="#E0E0E0"/>
<path d="M382.365 225.263C385.392 221.538 388.407 217.801 391.435 214.076L382.365 225.263Z" fill="white"/>
<path d="M391.435 214.065C391.518 214.135 389.554 216.69 387.047 219.776C384.54 222.863 382.447 225.322 382.365 225.251C382.282 225.18 384.245 222.626 386.752 219.54C389.259 216.453 391.352 214.005 391.435 214.065Z" fill="#E0E0E0"/>
<path d="M382.376 124.995C382.459 124.936 384.434 127.289 386.776 130.258C389.129 133.226 390.962 135.685 390.879 135.756C390.796 135.816 388.821 133.462 386.48 130.494C384.127 127.514 382.294 125.054 382.376 124.995Z" fill="#E0E0E0"/>
<path d="M426.793 151.815H409.374V201.281H426.793V151.815Z" fill="#E0E0E0"/>
<path d="M439.119 18.3864L429.209 18.4395L429.474 67.7517L439.383 67.6986L439.119 18.3864Z" fill="#E0E0E0"/>
<path d="M369.017 18.5208L343.356 18.6582L343.501 45.8804L369.163 45.743L369.017 18.5208Z" fill="#EBEBEB"/>
<path d="M394.548 18.3792L368.887 18.5166L369.033 45.7388L394.694 45.6014L394.548 18.3792Z" fill="#F5F5F5"/>
<path d="M343.388 26.1698C360.44 26.3117 377.54 26.2171 394.592 25.9333C394.947 25.9333 394.935 25.3893 394.592 25.3893C377.54 25.2947 360.44 25.3775 343.388 25.6968C343.08 25.7086 343.08 26.1698 343.388 26.1698Z" fill="#E0E0E0"/>
<path d="M373.973 45.2858L327.345 45.5356L327.464 67.7202L374.092 67.4703L373.973 45.2858Z" fill="#EBEBEB"/>
<path d="M420.389 45.0373L373.761 45.2871L373.88 67.4717L420.508 67.2219L420.389 45.0373Z" fill="#F5F5F5"/>
<path d="M327.376 51.7007C358.347 52.0555 389.436 51.7362 420.407 51.2396C420.762 51.2277 420.75 50.6956 420.407 50.6956C389.436 50.53 358.347 50.5537 327.376 51.2277C327.081 51.2396 327.081 51.7007 327.376 51.7007Z" fill="#E0E0E0"/>
<path d="M490.591 67.7246H309.945V75.6713H490.591V67.7246Z" fill="#E0E0E0"/>
<path d="M346.853 71.5444H339.521V98.6602H346.853V71.5444Z" fill="#E0E0E0"/>
<path d="M456.321 71.5444H448.989V98.6602H456.321V71.5444Z" fill="#E0E0E0"/>
<path d="M448.79 -0.00231303L438.881 0.0507812L439.244 67.8698L449.154 67.8167L448.79 -0.00231303Z" fill="#EBEBEB"/>
<path d="M464.269 12.6245L448.872 12.707L449.167 67.6718L464.564 67.5893L464.269 12.6245Z" fill="#F5F5F5"/>
<path d="M464.161 23.2134C464.161 23.3553 460.708 23.4854 456.463 23.4854C452.206 23.4854 448.765 23.3671 448.765 23.2134C448.765 23.0597 452.206 22.9414 456.463 22.9414C460.708 22.9414 464.161 23.0715 464.161 23.2134Z" fill="#E0E0E0"/>
<path d="M464.161 20.9077C464.161 21.0496 460.708 21.1797 456.463 21.1797C452.206 21.1797 448.765 21.0615 448.765 20.9077C448.765 20.7658 452.206 20.6357 456.463 20.6357C460.708 20.6357 464.161 20.754 464.161 20.9077Z" fill="#E0E0E0"/>
<path d="M464.161 59.3169C464.161 59.4588 460.708 59.5889 456.463 59.5889C452.206 59.5889 448.765 59.4706 448.765 59.3169C448.765 59.175 452.206 59.0449 456.463 59.0449C460.708 59.0449 464.161 59.175 464.161 59.3169Z" fill="#E0E0E0"/>
<path d="M464.161 57.0108C464.161 57.1527 460.708 57.2827 456.463 57.2827C452.206 57.2827 448.765 57.1645 448.765 57.0108C448.765 56.8688 452.206 56.7388 456.463 56.7388C460.708 56.7388 464.161 56.857 464.161 57.0108Z" fill="#E0E0E0"/>
<path d="M456.711 51.973C456.569 51.973 456.439 46.4268 456.439 39.5917C456.439 32.7566 456.558 27.2104 456.711 27.2104C456.853 27.2104 456.983 32.7566 456.983 39.5917C456.971 46.4268 456.853 51.973 456.711 51.973Z" fill="#E0E0E0"/>
<path d="M481.084 26.1226H464.327V67.6063H481.084V26.1226Z" fill="#EBEBEB"/>
<path d="M473.184 56.8451C470.985 56.8451 469.436 55.2724 469.436 53.1083C469.436 51.9376 469.885 50.9206 470.795 50.3057L471.174 50.826C470.429 51.3581 470.074 52.1859 470.074 53.0965C470.074 54.8348 471.316 56.112 473.184 56.112C475.053 56.112 476.294 54.8348 476.294 53.0965C476.294 52.1741 475.94 51.3581 475.195 50.826L475.573 50.3057C476.46 50.9088 476.933 51.9376 476.933 53.1083C476.921 55.2842 475.372 56.8451 473.184 56.8451Z" fill="#FAFAFA"/>
<path d="M475.975 49.2888L475.407 48.9577C475.892 48.39 476.294 47.3849 476.294 46.2969C476.294 44.736 475.739 44.121 474.911 44.121C472.758 44.121 474.343 49.0168 471.446 49.0168C470.334 49.0168 469.424 48.0826 469.424 46.2141C469.424 45.2799 469.708 44.2629 470.145 43.6835L470.713 44.0146C470.263 44.6414 470.05 45.4455 470.05 46.2378C470.05 47.6805 470.642 48.3191 471.434 48.3191C473.657 48.3191 472.084 43.4233 474.899 43.4233C476.105 43.4233 476.921 44.4522 476.921 46.3324C476.921 47.5504 476.519 48.7093 475.975 49.2888Z" fill="#FAFAFA"/>
<path d="M475.975 42.5363L475.407 42.217C475.892 41.6494 476.294 40.6443 476.294 39.5563C476.294 38.0072 475.739 37.3804 474.911 37.3804C472.758 37.3804 474.343 42.2762 471.446 42.2762C470.334 42.2762 469.424 41.342 469.424 39.4735C469.424 38.5393 469.708 37.5223 470.145 36.9429L470.713 37.2622C470.263 37.8889 470.05 38.6931 470.05 39.4854C470.05 40.9281 470.642 41.5666 471.434 41.5666C473.657 41.5666 472.084 36.6709 474.899 36.6709C476.105 36.6709 476.921 37.6997 476.921 39.58C476.921 40.798 476.519 41.9569 475.975 42.5363Z" fill="#FAFAFA"/>
<path d="M443.68 14.4269C445.254 14.4269 446.53 13.151 446.53 11.577C446.53 10.003 445.254 8.72705 443.68 8.72705C442.106 8.72705 440.83 10.003 440.83 11.577C440.83 13.151 442.106 14.4269 443.68 14.4269Z" fill="#E0E0E0"/>
<path d="M444.555 19.4175H442.793V59.766H444.555V19.4175Z" fill="#E0E0E0"/>
<path d="M511.369 488.782C511.369 488.948 397.146 489.09 256.281 489.09C115.369 489.09 1.17072 488.948 1.17072 488.782C1.17072 488.617 115.369 488.475 256.281 488.475C397.146 488.475 511.369 488.617 511.369 488.782Z" fill="#263238"/>
<path d="M139.304 82.2461C120.324 112.094 121.566 153.483 142.308 182.136C156.132 201.246 176.862 214.041 193.323 230.928C209.784 247.803 222.295 272.683 213.603 294.608C204.758 316.922 178.848 326.004 159.443 340.136C138.311 355.533 123.47 379.314 118.917 405.058C114.364 430.802 120.17 458.237 134.751 479.936H336.281C336.281 479.936 371.686 412.472 326.17 361.055C280.654 309.638 256.211 308.798 257.89 275.084C259.581 241.37 283.173 230.407 296.665 217.766C310.146 205.125 375.896 175.62 337.12 82.2461H139.304Z" fill="#FAFAFA"/>
<path d="M139.304 82.2461C139.304 82.2461 140.475 82.2224 142.769 82.2224C145.075 82.2106 148.492 82.2106 152.986 82.1988C161.985 82.1869 175.242 82.1633 192.318 82.1396C226.505 82.116 275.971 82.0805 337.132 82.0332H337.286L337.333 82.1633C340.089 89.1521 342.868 96.3538 344.842 103.981C346.876 111.573 348.532 119.496 349.123 127.691C349.738 135.875 349.478 144.33 347.846 152.726C346.167 161.098 343.163 169.388 338.74 177.063C336.541 180.906 333.951 184.56 331.148 188.072C328.322 191.572 325.188 194.86 321.866 198.006C318.543 201.139 315.007 204.096 311.329 206.922C307.663 209.76 303.832 212.444 300.095 215.271C298.226 216.678 296.512 218.263 294.726 219.847C292.929 221.408 291.084 222.91 289.227 224.388C285.502 227.368 281.742 230.348 278.194 233.6C271.028 240.01 264.973 248.015 261.638 257.346C260.018 261.993 258.859 266.865 258.493 271.856C258.398 273.097 258.221 274.339 258.185 275.592C258.162 276.846 258.091 278.099 258.15 279.353C258.162 281.86 258.446 284.379 258.907 286.85C259.853 291.805 261.934 296.547 264.961 300.651C267.941 304.801 271.607 308.455 275.415 311.968C283.066 318.968 291.178 325.638 298.96 332.851C306.776 340.018 314.356 347.586 321.664 355.544C325.295 359.541 328.973 363.55 332.142 368.008C335.417 372.384 338.173 377.15 340.585 382.093C345.351 392.026 348.295 402.917 349.265 414.057C350.306 425.196 349.513 436.549 347.302 447.653C346.214 453.211 344.76 458.722 342.974 464.138C341.188 469.554 339.131 474.899 336.576 480.055L336.494 480.22H336.304C334.673 480.22 332.899 480.22 331.113 480.22C262.312 480.22 195.936 480.208 134.775 480.208H134.621L134.538 480.078C124.936 465.663 119.236 449.107 117.663 432.505C115.996 415.902 118.55 399.263 124.64 384.481C130.648 369.652 139.99 356.656 151.283 346.427C156.912 341.271 163.18 337.061 169.471 333.159C175.762 329.256 182.112 325.638 188.108 321.688C194.08 317.727 199.839 313.505 204.51 308.349C209.204 303.229 212.787 297.221 214.656 290.753C216.536 284.284 216.56 277.496 215.46 271.111C214.337 264.701 212.09 258.635 209.228 253.053C206.366 247.46 202.89 242.327 199.082 237.645C195.286 232.95 191.064 228.775 186.807 224.838C178.281 216.985 169.542 210.115 161.69 203.055C157.752 199.531 154.027 195.983 150.597 192.329C147.192 188.652 144.07 184.891 141.397 180.989C136.005 173.208 132.303 165.001 129.867 157.089C127.431 149.166 126.225 141.503 125.941 134.455C125.776 132.693 125.847 130.967 125.847 129.288C125.87 127.609 125.823 125.953 125.989 124.357C126.107 122.76 126.237 121.199 126.343 119.674C126.521 118.16 126.781 116.694 126.982 115.275C128.756 103.863 132.197 95.5142 134.881 90.1809C135.52 88.821 136.087 87.6266 136.702 86.6688C137.282 85.6873 137.755 84.8595 138.145 84.1973C138.902 82.9083 139.304 82.2461 139.304 82.2461C139.221 82.388 138.89 82.9674 138.157 84.2682C137.779 84.9304 137.305 85.7582 136.738 86.7397C136.135 87.6976 135.579 88.892 134.94 90.2519C132.291 95.597 128.886 103.934 127.136 115.334C126.935 116.753 126.686 118.219 126.509 119.733C126.391 121.246 126.284 122.807 126.166 124.404C126 126 126.048 127.644 126.036 129.323C126.036 131.002 125.977 132.729 126.142 134.479C126.438 141.503 127.656 149.143 130.104 157.042C132.54 164.93 136.241 173.089 141.634 180.835C144.306 184.714 147.416 188.462 150.822 192.128C154.251 195.771 157.976 199.306 161.914 202.819C169.766 209.855 178.505 216.713 187.067 224.577C191.324 228.515 195.57 232.701 199.401 237.42C203.232 242.126 206.721 247.27 209.606 252.899C212.48 258.516 214.762 264.607 215.898 271.075C217.009 277.52 217.009 284.379 215.105 290.93C213.213 297.47 209.583 303.56 204.864 308.727C200.146 313.942 194.363 318.188 188.38 322.161C182.361 326.134 176.022 329.753 169.743 333.655C163.463 337.558 157.231 341.744 151.638 346.876C140.416 357.046 131.121 369.995 125.161 384.741C119.106 399.441 116.575 415.984 118.243 432.493C119.816 449.001 125.492 465.462 135.035 479.795L134.787 479.664C195.96 479.664 262.336 479.653 331.125 479.653C332.899 479.653 334.672 479.653 336.316 479.653L336.044 479.818C338.575 474.721 340.633 469.376 342.406 463.996C344.18 458.603 345.623 453.116 346.711 447.582C348.91 436.525 349.703 425.232 348.662 414.163C347.704 403.095 344.783 392.274 340.041 382.412C337.641 377.504 334.909 372.762 331.657 368.422C328.511 364 324.846 360.003 321.227 356.017C313.931 348.071 306.362 340.514 298.569 333.348C290.812 326.146 282.711 319.477 275.037 312.452C271.229 308.928 267.527 305.251 264.512 301.041C261.449 296.878 259.332 292.03 258.375 287.004C257.913 284.485 257.63 281.943 257.606 279.412C257.547 278.147 257.618 276.881 257.641 275.616C257.689 274.351 257.854 273.097 257.961 271.844C258.339 266.818 259.51 261.899 261.154 257.192C264.524 247.779 270.649 239.678 277.863 233.234C281.434 229.958 285.207 226.966 288.932 223.998C290.8 222.508 292.633 221.018 294.419 219.469C296.169 217.908 297.931 216.288 299.811 214.869C303.572 212.031 307.391 209.358 311.045 206.52C314.711 203.705 318.235 200.761 321.546 197.639C324.846 194.517 327.967 191.241 330.782 187.765C333.561 184.264 336.139 180.634 338.338 176.826C342.737 169.211 345.729 160.968 347.409 152.655C349.04 144.318 349.301 135.898 348.697 127.75C348.118 119.579 346.462 111.691 344.452 104.123C342.489 96.5194 339.722 89.3295 336.978 82.3525L337.179 82.4826C276.054 82.4353 226.611 82.3998 192.448 82.3761C175.36 82.3525 162.092 82.3288 153.092 82.317C148.599 82.3052 145.158 82.2934 142.852 82.2934C140.498 82.2697 139.304 82.2461 139.304 82.2461Z" fill="#263238"/>
<path d="M329.091 136.998C358.773 141.882 311.968 194.446 285.479 215.188C270.141 227.203 253.668 240.222 246.384 258.292C238.118 278.797 244.243 301.833 240.234 322.457C239.572 325.886 234.511 325.342 234.558 321.854C234.759 308.313 234.393 294.785 232.146 281.458C228.965 262.561 221.692 243.865 208.447 230.005C197.639 218.7 183.46 211.179 171.919 200.619C155.079 185.187 137.779 165.284 136.087 142.497C136.087 142.497 168.418 116.457 186.369 119.745C207.348 123.588 227.995 155.954 260.491 152.241C283.208 149.663 294.667 131.333 329.091 136.998Z" fill="#F4D962"/>
<path d="M331.728 418.373C330.983 410.947 328.996 402.55 322.41 399.05C318.424 396.933 313.564 397.17 309.189 398.317C304.813 399.464 300.71 401.451 296.382 402.74C287.856 405.27 278.513 404.975 270.165 401.912C262.111 398.956 255.194 393.61 247.72 389.401C240.246 385.191 231.484 382.069 223.158 384.138C208.802 387.71 201.329 404.998 187.138 409.173C180.835 411.029 174.059 409.989 167.638 408.534C161.228 407.08 154.784 405.211 148.22 405.46C143.076 405.649 137.719 407.434 134.101 410.958L134.136 410.911C134.101 410.947 134.065 410.982 134.03 411.029C133.439 411.621 132.895 412.247 132.398 412.933C127.999 418.799 127.289 426.698 128.649 433.864C130.163 441.894 133.912 449.308 137.932 456.415C142.674 464.788 148.055 473.125 155.883 478.706C165.545 485.589 177.701 480.835 189.527 481.769C217.116 483.945 246.809 485.435 274.398 483.295C288.979 482.16 302.637 483.744 314.203 474.804C322.339 468.513 327.636 459.029 330.191 449.06C332.769 439.079 332.757 428.614 331.728 418.373Z" fill="#F4D962"/>
<g opacity="0.24">
<g opacity="0.24">
<path opacity="0.24" d="M279.649 404.159C278.088 406.547 277.425 409.74 278.927 412.165C280.429 414.589 282.463 416.788 283.114 419.567C284.142 423.919 281.517 428.188 279.554 432.209C276.054 439.41 274.469 447.617 275.64 455.54C276.822 463.463 280.878 471.02 287.217 475.916C290.02 478.08 293.662 479.759 297.044 478.695C300.225 477.701 302.283 474.473 302.909 471.197C303.536 467.922 303.016 464.551 302.602 461.252C300.674 445.903 301.065 430.269 303.773 415.038C304.222 412.496 304.659 409.587 303.039 407.564C302.011 406.275 300.367 405.672 298.794 405.14C292.657 403.094 286.023 405.365 279.649 404.159Z" fill="black"/>
</g>
</g>
<path d="M119.969 489.101C119.969 489.101 119.414 479.854 131.476 474.698H343.447C343.447 474.698 354.504 480.291 355.864 488.9L119.969 489.101Z" fill="#263238"/>
<path d="M338.965 83.3812C338.859 83.4285 338.74 83.4877 338.634 83.535L139.304 82.246C139.304 82.246 138.594 81.7966 137.542 80.9688C131.866 76.5225 135.047 67.405 142.26 67.4642L335.713 69.0251C343.695 69.0842 346.179 79.9637 338.965 83.3812Z" fill="#263238"/>
<g opacity="0.24">
<g opacity="0.24">
<path opacity="0.24" d="M307.06 159.407C307.462 160.176 305.96 161.843 303.11 164.374C300.249 166.916 296.062 170.393 290.741 174.686C285.396 178.943 278.915 184.063 270.661 188.853C266.522 191.241 261.922 193.406 256.896 195.168C254.366 196.019 251.741 196.811 248.985 197.355C246.242 197.947 243.38 198.337 240.435 198.467C234.57 198.798 228.598 197.947 223.253 196.114C217.943 194.269 213.402 191.667 209.441 189.066C205.467 186.429 202.038 183.827 198.81 181.344C195.593 178.848 192.66 176.448 190.047 174.177C179.582 165.107 174.071 158.438 175.135 157.149C176.235 155.812 183.649 160.058 195.191 167.153C198.077 168.927 201.234 170.866 204.628 172.947C208.01 175.005 211.652 177.287 215.365 179.392C219.09 181.497 222.981 183.413 227.013 184.655C231.022 185.849 235.291 186.417 239.832 186.168C248.914 185.707 257.724 182.502 265.352 178.825C273.026 175.076 279.885 170.819 285.869 167.472C291.841 164.09 296.961 161.583 300.674 160.247C304.399 158.911 306.67 158.674 307.06 159.407Z" fill="black"/>
</g>
</g>
<path d="M234.712 347.172C236.9 346.403 239.513 348.603 239.135 350.885C238.744 353.167 235.551 354.397 233.742 352.955C231.933 351.512 232.406 348.13 234.546 347.243" fill="#F4D962"/>
<path d="M163.428 192.4C163.416 192.412 163.168 192.176 162.718 191.691C162.245 191.171 161.595 190.461 160.791 189.574C159.975 188.64 158.899 187.552 157.799 186.157C156.687 184.773 155.422 183.2 154.039 181.474C152.75 179.653 151.295 177.701 149.829 175.525C149.131 174.414 148.41 173.267 147.665 172.084C147.298 171.493 146.908 170.902 146.553 170.275C146.21 169.648 145.867 169.01 145.512 168.359C142.603 163.239 140.014 157.231 138.169 150.68C136.324 144.117 135.461 137.637 135.378 131.736C135.378 130.258 135.449 128.827 135.484 127.431C135.52 126.734 135.508 126.048 135.579 125.374C135.65 124.7 135.721 124.037 135.792 123.387C135.946 122.086 136.04 120.821 136.218 119.615C136.43 118.42 136.643 117.273 136.844 116.173C137.187 113.962 137.767 112.035 138.181 110.32C138.405 109.468 138.583 108.664 138.807 107.943C139.044 107.233 139.257 106.571 139.458 105.968C139.836 104.833 140.144 103.922 140.368 103.248C140.581 102.633 140.699 102.314 140.723 102.314C140.747 102.326 140.664 102.657 140.487 103.284C140.285 103.97 140.025 104.88 139.682 106.027C139.505 106.63 139.304 107.292 139.091 108.002C138.878 108.723 138.725 109.539 138.512 110.391C138.121 112.105 137.577 114.045 137.27 116.244C137.081 117.344 136.892 118.479 136.691 119.674C136.525 120.868 136.442 122.133 136.3 123.422C136.241 124.073 136.17 124.735 136.099 125.397C136.04 126.071 136.052 126.757 136.028 127.443C136.005 128.827 135.934 130.258 135.946 131.724C136.052 137.578 136.927 143.999 138.76 150.515C140.593 157.019 143.147 162.979 146.009 168.087C146.352 168.738 146.695 169.376 147.038 170.003C147.381 170.63 147.771 171.209 148.138 171.812C148.871 172.995 149.58 174.142 150.266 175.253C151.709 177.429 153.14 179.392 154.405 181.213C155.765 182.964 156.995 184.536 158.083 185.944C159.147 187.351 160.2 188.451 160.98 189.42C161.749 190.343 162.364 191.064 162.825 191.608C163.227 192.105 163.44 192.377 163.428 192.4Z" fill="#263238"/>
<path d="M152.206 368.079C152.194 368.079 152.277 367.937 152.43 367.689C152.608 367.417 152.832 367.05 153.128 366.577C153.447 366.081 153.837 365.477 154.287 364.78C154.523 364.425 154.772 364.047 155.032 363.633C155.328 363.242 155.659 362.852 156.002 362.415C156.699 361.563 157.48 360.617 158.319 359.577C159.23 358.595 160.271 357.578 161.37 356.466C163.617 354.291 166.325 351.973 169.494 349.631C175.774 344.878 183.874 340.147 192.649 334.625C197 331.822 201.589 328.866 205.929 325.271C210.269 321.7 214.455 317.584 217.849 312.677C224.53 302.743 227.238 291.237 227.486 280.949C227.758 270.59 225.547 261.354 222.957 253.999C220.332 246.62 217.317 240.991 215.129 237.207C214.029 235.303 213.13 233.86 212.515 232.879C212.22 232.406 211.995 232.039 211.818 231.767C211.664 231.519 211.593 231.377 211.593 231.377C211.605 231.365 211.699 231.495 211.865 231.731C212.054 232.003 212.303 232.358 212.61 232.819C213.26 233.777 214.195 235.208 215.33 237.088C217.589 240.849 220.675 246.454 223.371 253.857C226.032 261.236 228.302 270.519 228.066 280.973C228.019 283.574 227.806 286.247 227.416 288.943C227.037 291.651 226.469 294.383 225.689 297.114C224.164 302.578 221.727 308.018 218.381 313.032C214.951 318.01 210.718 322.161 206.343 325.744C201.967 329.363 197.367 332.307 192.992 335.11C184.182 340.609 176.081 345.291 169.79 349.986C166.633 352.304 163.913 354.574 161.654 356.715C160.554 357.815 159.502 358.808 158.591 359.778C157.74 360.795 156.948 361.729 156.238 362.568C155.883 362.994 155.54 363.373 155.245 363.763C154.973 364.165 154.713 364.543 154.476 364.886C154.003 365.572 153.601 366.163 153.27 366.648C152.951 367.098 152.702 367.452 152.513 367.724C152.3 367.961 152.206 368.079 152.206 368.079Z" fill="#263238"/>
<path d="M141.208 388.975C141.232 388.987 141.137 389.176 140.948 389.519C140.723 389.921 140.439 390.418 140.108 391.021C139.73 391.66 139.28 392.464 138.819 393.422C138.358 394.379 137.767 395.432 137.27 396.674C137.01 397.289 136.726 397.927 136.442 398.601C136.158 399.275 135.922 399.997 135.65 400.73C135.07 402.184 134.621 403.804 134.113 405.495C133.202 408.901 132.445 412.709 132.043 416.765C131.688 420.821 131.748 424.712 132.02 428.224C132.221 429.974 132.362 431.653 132.67 433.191C132.812 433.959 132.906 434.716 133.06 435.426C133.226 436.135 133.379 436.809 133.533 437.471C133.793 438.784 134.184 439.931 134.467 440.948C134.739 441.977 135.035 442.84 135.295 443.538C135.52 444.188 135.697 444.732 135.851 445.17C135.969 445.548 136.028 445.749 136.005 445.761C135.981 445.773 135.898 445.584 135.733 445.217C135.555 444.791 135.331 444.259 135.07 443.621C134.775 442.923 134.444 442.072 134.136 441.043C133.817 440.026 133.403 438.879 133.107 437.566C132.942 436.916 132.776 436.23 132.599 435.52C132.422 434.811 132.315 434.054 132.161 433.273C131.83 431.724 131.665 430.033 131.452 428.271C131.144 424.724 131.073 420.798 131.428 416.706C131.83 412.614 132.611 408.771 133.557 405.342C134.089 403.639 134.562 402.019 135.165 400.552C135.461 399.819 135.697 399.086 136.005 398.424C136.312 397.762 136.596 397.111 136.88 396.508C137.412 395.266 138.027 394.214 138.524 393.28C139.008 392.334 139.493 391.553 139.907 390.915C140.286 390.335 140.593 389.85 140.853 389.46C141.066 389.129 141.184 388.963 141.208 388.975Z" fill="#263238"/>
<path d="M287.406 417.391C287.406 417.403 287.335 417.462 287.17 417.569C286.969 417.687 286.732 417.841 286.436 418.03C285.739 418.444 284.781 419.023 283.563 419.757C282.936 420.135 282.238 420.537 281.482 420.986C280.701 421.412 279.838 421.814 278.915 422.287C277.059 423.186 274.989 424.333 272.553 425.244C271.347 425.74 270.082 426.261 268.769 426.793C267.457 427.325 266.026 427.727 264.583 428.235C261.709 429.288 258.517 430.033 255.194 430.908C248.477 432.398 240.968 433.498 233.021 433.758C225.074 433.923 217.506 433.214 210.718 432.079C207.348 431.381 204.131 430.802 201.198 429.903C199.732 429.477 198.289 429.146 196.941 428.685C195.605 428.212 194.316 427.762 193.086 427.337C190.603 426.544 188.486 425.516 186.582 424.711C185.636 424.297 184.749 423.931 183.945 423.553C183.165 423.139 182.455 422.772 181.805 422.429C180.551 421.767 179.57 421.235 178.848 420.856C178.541 420.691 178.293 420.549 178.092 420.431C177.926 420.336 177.843 420.277 177.843 420.265C177.843 420.253 177.938 420.289 178.127 420.371C178.34 420.466 178.6 420.596 178.919 420.738C179.653 421.093 180.658 421.589 181.923 422.204C182.573 422.524 183.295 422.89 184.087 423.281C184.891 423.647 185.79 423.99 186.736 424.392C188.652 425.161 190.768 426.154 193.252 426.923C194.482 427.337 195.759 427.774 197.107 428.235C198.443 428.685 199.886 429.004 201.352 429.418C204.273 430.293 207.478 430.849 210.836 431.523C217.589 432.623 225.11 433.309 233.021 433.155C240.92 432.906 248.394 431.83 255.087 430.376C258.398 429.524 261.579 428.803 264.453 427.774C265.896 427.289 267.315 426.887 268.627 426.379C269.94 425.858 271.205 425.35 272.4 424.877C274.836 423.99 276.905 422.878 278.774 422.015C279.696 421.566 280.571 421.176 281.352 420.762C282.12 420.336 282.818 419.934 283.456 419.579C284.686 418.893 285.668 418.349 286.377 417.959C286.685 417.793 286.945 417.663 287.146 417.545C287.312 417.427 287.406 417.38 287.406 417.391Z" fill="#263238"/>
<path d="M299.74 167.117C299.752 167.129 299.657 167.2 299.492 167.354C299.291 167.52 299.031 167.732 298.711 167.993C297.99 168.572 296.973 169.376 295.696 170.405C293.059 172.486 289.263 175.502 284.45 179.097C279.637 182.668 273.795 186.831 266.865 190.721C263.365 192.59 259.628 194.505 255.537 195.936C251.457 197.379 247.058 198.479 242.458 198.845C233.222 199.472 224.459 197.131 217.34 193.618C213.781 191.833 210.564 189.834 207.632 187.848C204.746 185.814 202.109 183.839 199.779 181.947C195.097 178.186 191.431 175.005 188.876 172.829C187.635 171.753 186.653 170.913 185.955 170.299C185.648 170.027 185.4 169.802 185.21 169.624C185.045 169.471 184.962 169.388 184.974 169.376C184.986 169.364 185.08 169.435 185.258 169.577C185.459 169.743 185.719 169.944 186.05 170.204C186.771 170.783 187.777 171.599 189.042 172.64C191.644 174.769 195.345 177.89 200.051 181.604C202.393 183.472 205.042 185.411 207.927 187.422C210.848 189.373 214.053 191.348 217.589 193.11C224.66 196.563 233.305 198.845 242.422 198.23C246.951 197.876 251.291 196.788 255.335 195.369C259.392 193.961 263.105 192.069 266.593 190.224C273.511 186.381 279.353 182.266 284.201 178.742C289.038 175.194 292.881 172.238 295.554 170.216C296.867 169.234 297.907 168.454 298.64 167.898C298.971 167.65 299.243 167.46 299.456 167.307C299.634 167.177 299.74 167.106 299.74 167.117Z" fill="#263238"/>
<g opacity="0.24">
<g opacity="0.24">
<path opacity="0.24" d="M193.086 427.325C198.691 422.997 206.567 424.049 213.485 425.504C220.415 426.958 227.392 429.323 234.404 428.342C239.69 427.597 244.539 425.007 249.754 423.872C254.969 422.736 261.295 423.576 264.181 428.058C241.251 435.532 215.874 435.26 193.086 427.325Z" fill="black"/>
</g>
</g>
<path d="M388.644 395.231L363.172 366.72L362.912 401.38L370.575 423.612L294.395 436.821L291.167 376.712L285.68 330.546C285.006 324.893 288.234 319.489 293.532 317.408L314.498 309.153L344.026 314.569L355.899 319.087C360.89 320.979 365.336 324.077 368.848 328.086L404.608 368.978" fill="#F4D962"/>
<path d="M361.398 359.908C361.41 359.79 363.077 360.038 365.703 359.601C368.304 359.199 371.899 357.921 374.879 355.178C377.859 352.423 379.408 348.946 380.023 346.392C380.662 343.814 380.555 342.123 380.674 342.123C380.709 342.123 380.768 342.536 380.78 343.293C380.792 344.05 380.721 345.15 380.449 346.486C379.929 349.135 378.391 352.765 375.293 355.627C372.195 358.477 368.446 359.719 365.762 360.026C364.414 360.192 363.314 360.18 362.557 360.097C361.8 360.026 361.386 359.944 361.398 359.908Z" fill="white"/>
<path d="M363.621 399.902C363.799 399.902 363.846 387.887 363.728 373.082C363.609 358.265 363.361 346.262 363.184 346.262C363.006 346.262 362.959 358.265 363.077 373.082C363.207 387.899 363.444 399.914 363.621 399.902Z" fill="#263238"/>
<path d="M360.83 408.724L314.794 390.193C311.081 388.703 308.538 385.227 308.231 381.241L304.861 337.109C304.861 337.109 305.263 318.342 293.532 317.431L286.862 320.056C278.241 324.633 276.101 337.18 277.284 346.877C278.951 360.641 279.649 380.13 281.517 392.073C283.043 401.853 288.648 410.45 298.215 412.969L354.906 425.244L360.83 408.724Z" fill="#F4D962"/>
<path d="M305.535 343.826C305.558 343.826 305.606 344.169 305.676 344.831C305.747 345.552 305.854 346.522 305.972 347.74C306.209 350.33 306.54 353.972 306.942 358.442C307.332 362.983 307.793 368.352 308.302 374.324C308.432 375.814 308.562 377.351 308.692 378.912C308.834 380.473 308.928 382.081 309.283 383.63C309.626 385.191 310.371 386.658 311.566 387.769C312.76 388.881 314.25 389.709 315.811 390.406C328.5 395.893 340.207 400.434 348.698 403.615C352.907 405.164 356.337 406.43 358.785 407.328C359.932 407.754 360.842 408.085 361.528 408.334C362.155 408.57 362.474 408.7 362.474 408.724C362.462 408.748 362.131 408.653 361.493 408.452C360.807 408.227 359.884 407.932 358.714 407.553C356.301 406.749 352.836 405.555 348.556 404.017C340.018 400.943 328.299 396.473 315.563 390.962C313.978 390.241 312.429 389.401 311.152 388.207C309.863 387.024 309.035 385.392 308.692 383.76C308.325 382.128 308.243 380.508 308.101 378.947C307.971 377.386 307.852 375.849 307.734 374.359C307.273 368.387 306.859 363.007 306.504 358.466C306.173 353.984 305.913 350.342 305.724 347.752C305.653 346.534 305.594 345.552 305.546 344.831C305.523 344.18 305.511 343.838 305.535 343.826Z" fill="#263238"/>
<path d="M279.164 367.819C279.187 367.819 279.211 368.02 279.258 368.411C279.294 368.872 279.353 369.428 279.412 370.113C279.554 371.686 279.731 373.803 279.956 376.381C280.204 379.018 280.524 382.164 280.985 385.64C281.458 389.105 282.014 392.937 283.066 396.815C283.563 398.778 284.261 400.588 285.313 402.149C286.365 403.721 287.536 405.129 288.754 406.37C291.19 408.854 293.792 410.687 296.122 411.893C300.828 414.341 304.257 414.376 304.21 414.542C304.21 414.565 303.997 414.554 303.607 414.53C303.217 414.506 302.637 414.459 301.904 414.305C300.438 414.045 298.321 413.466 295.92 412.283C293.52 411.101 290.847 409.279 288.352 406.772C287.11 405.507 285.904 404.088 284.816 402.492C283.717 400.883 282.972 398.956 282.475 396.993C281.411 393.055 280.867 389.212 280.429 385.723C280.003 382.235 279.72 379.077 279.53 376.428C279.341 373.779 279.235 371.627 279.176 370.149C279.164 369.463 279.152 368.895 279.14 368.434C279.128 368.032 279.14 367.819 279.164 367.819Z" fill="#263238"/>
<path d="M298.841 398.708C298.782 398.696 298.971 397.703 299.681 396.26C300.379 394.817 301.668 392.937 303.548 391.329C305.428 389.72 307.486 388.739 309.023 388.278C310.572 387.805 311.566 387.769 311.577 387.828C311.601 387.935 310.631 388.124 309.165 388.68C307.699 389.236 305.759 390.241 303.95 391.778C302.141 393.327 300.84 395.089 300.071 396.449C299.279 397.821 298.936 398.743 298.841 398.708Z" fill="#263238"/>
<path d="M307.9 365.147C307.9 365.135 308.006 365.182 308.195 365.277C308.408 365.395 308.68 365.537 309.023 365.714C309.756 366.057 310.844 366.613 312.311 367.11C315.208 368.115 319.737 369.132 325.212 368.209C330.616 367.323 336.896 364.142 341.248 358.241C343.4 355.332 345.067 351.748 345.446 347.811C345.635 345.859 345.481 343.825 344.831 341.91C344.204 339.994 343.045 338.232 341.508 336.837C339.982 335.441 338.09 334.46 336.103 334.211C334.14 333.904 332.047 334.424 330.687 335.737C330.025 336.399 329.623 337.274 329.635 338.185C329.635 339.095 329.978 339.982 330.522 340.715C331.61 342.205 333.455 342.903 335.205 343.163C338.788 343.66 342.312 343.009 345.268 341.72C348.236 340.431 350.661 338.504 352.399 336.387C354.149 334.259 355.225 331.953 355.864 329.871C356.514 327.778 356.703 325.874 356.739 324.337C356.763 322.788 356.597 321.594 356.479 320.789C356.408 320.411 356.36 320.115 356.313 319.879C356.278 319.678 356.266 319.56 356.278 319.56C356.278 319.56 356.928 321.203 356.987 324.337C356.987 325.898 356.833 327.826 356.207 329.978C355.58 332.106 354.516 334.471 352.742 336.671C350.98 338.859 348.508 340.845 345.481 342.193C342.454 343.53 338.847 344.216 335.134 343.731C333.301 343.471 331.302 342.749 330.061 341.082C329.458 340.278 329.044 339.261 329.044 338.196C329.032 337.132 329.517 336.08 330.273 335.323C331.811 333.833 334.093 333.301 336.198 333.62C338.327 333.892 340.337 334.933 341.933 336.399C343.542 337.865 344.76 339.722 345.422 341.732C346.096 343.743 346.262 345.859 346.06 347.882C345.658 351.949 343.932 355.627 341.721 358.595C337.251 364.603 330.806 367.807 325.295 368.647C319.713 369.534 315.137 368.422 312.24 367.346C309.283 366.199 307.9 365.147 307.9 365.147Z" fill="white"/>
<path d="M277.745 353.369C277.721 353.345 277.969 353.002 278.502 352.423C279.034 351.855 279.85 351.075 280.985 350.259C283.22 348.579 286.921 347.054 291.167 346.652C293.295 346.427 295.353 346.522 297.174 346.9C298.995 347.279 300.556 347.894 301.798 348.52C303.039 349.147 303.985 349.774 304.612 350.235C305.239 350.696 305.558 350.98 305.535 351.015C305.475 351.11 304.092 350.069 301.609 348.922C299.149 347.752 295.388 346.77 291.238 347.267C287.075 347.657 283.48 349.076 281.233 350.625C278.951 352.139 277.828 353.463 277.745 353.369Z" fill="white"/>
<path d="M285.112 321.819C285.207 321.712 286.295 323.226 288.837 324.527C290.091 325.177 291.722 325.721 293.579 325.922C295.436 326.123 297.529 325.91 299.515 325.106C301.49 324.266 303.122 322.942 304.293 321.487C305.475 320.033 306.232 318.507 306.67 317.148C307.545 314.428 307.249 312.595 307.391 312.595C307.427 312.595 307.521 313.032 307.545 313.848C307.58 314.664 307.486 315.859 307.084 317.266C306.693 318.673 305.948 320.293 304.742 321.83C303.548 323.356 301.845 324.775 299.752 325.662C297.647 326.513 295.447 326.714 293.52 326.478C291.581 326.241 289.913 325.626 288.636 324.905C287.359 324.184 286.448 323.403 285.892 322.812C285.325 322.209 285.077 321.83 285.112 321.819Z" fill="white"/>
<path d="M325.224 394.379C325.2 394.379 325.236 394.084 325.319 393.504C325.449 392.948 325.626 392.109 326.135 391.127C327.069 389.141 329.375 386.657 333.029 385.144C336.624 383.523 341.579 383.216 346.557 384.659C348.993 385.38 351.784 386.279 353.605 388.656C354.504 389.826 354.799 391.565 354.125 392.984C353.475 394.415 352.198 395.396 350.85 396.082C349.478 396.756 347.988 397.135 346.486 397.158C345.008 397.182 343.459 396.815 342.3 395.857C341.129 394.911 340.514 393.457 340.432 392.062C340.325 390.654 340.609 389.306 341.058 388.076C343.021 383.157 346.983 380.023 350.542 378.474C354.161 376.889 357.437 376.724 359.601 376.913C361.776 377.138 362.912 377.611 362.912 377.611C362.888 377.694 361.741 377.303 359.589 377.15C357.448 377.031 354.244 377.268 350.731 378.864C348.981 379.657 347.184 380.804 345.564 382.365C343.956 383.926 342.501 385.912 341.59 388.254C341.165 389.424 340.905 390.713 341.011 392.002C341.106 393.28 341.65 394.545 342.678 395.373C343.695 396.212 345.091 396.555 346.474 396.52C347.87 396.496 349.277 396.129 350.566 395.503C351.831 394.864 353.002 393.942 353.558 392.7C354.137 391.482 353.901 390.028 353.108 388.975C352.328 387.899 351.193 387.13 350.034 386.527C348.863 385.936 347.61 385.534 346.392 385.167C341.508 383.725 336.706 383.985 333.183 385.51C329.599 386.941 327.305 389.294 326.336 391.198C325.33 393.149 325.307 394.403 325.224 394.379Z" fill="white"/>
<path d="M294.572 411.006C294.549 410.888 296.323 410.746 298.983 409.788C301.632 408.866 305.144 406.962 308.03 403.781C310.915 400.588 312.441 396.898 313.103 394.167C313.777 391.423 313.753 389.649 313.872 389.649C313.907 389.649 313.954 390.087 313.942 390.891C313.931 391.695 313.824 392.854 313.54 394.261C312.985 397.064 311.471 400.895 308.503 404.183C305.535 407.47 301.869 409.362 299.137 410.19C297.765 410.616 296.618 410.841 295.826 410.935C295.022 411.042 294.572 411.042 294.572 411.006Z" fill="white"/>
<path d="M279.649 376.7C279.649 376.677 279.838 376.606 280.204 376.476C280.571 376.357 281.127 376.18 281.848 376.003C283.279 375.66 285.431 375.175 288.116 375.364C289.452 375.47 290.918 375.778 292.373 376.416C293.827 377.055 295.27 378.072 296.346 379.538C297.399 381.005 298.049 382.909 297.895 384.907C297.824 385.9 297.517 386.894 296.985 387.781C296.441 388.656 295.637 389.448 294.572 389.803C293.52 390.134 292.29 389.968 291.462 389.188C290.646 388.396 290.445 387.284 290.386 386.314C290.315 384.351 290.741 382.471 291.474 380.839C292.94 377.54 295.66 375.376 298.191 374.465C300.733 373.519 302.992 373.59 304.447 373.85C305.18 373.98 305.747 374.146 306.114 374.276C306.481 374.418 306.67 374.501 306.658 374.513C306.634 374.572 305.866 374.264 304.411 374.087C302.968 373.909 300.781 373.921 298.345 374.879C295.932 375.802 293.366 377.906 291.994 381.076C291.309 382.637 290.918 384.434 290.989 386.291C291.037 387.189 291.249 388.147 291.876 388.75C292.503 389.342 293.508 389.495 294.383 389.223C295.258 388.94 295.98 388.254 296.464 387.473C296.949 386.681 297.221 385.77 297.304 384.86C297.458 383.039 296.866 381.241 295.897 379.87C294.903 378.498 293.544 377.516 292.172 376.878C290.788 376.239 289.381 375.92 288.08 375.79C285.467 375.553 283.338 375.955 281.895 376.227C280.465 376.535 279.672 376.748 279.649 376.7Z" fill="white"/>
<g opacity="0.3">
<g opacity="0.3">
<path opacity="0.3" d="M347.61 403.461C342.69 400.682 337.877 398.542 332.721 396.201C327.577 393.859 322.528 390.855 319.169 386.314C312.819 377.753 313.54 365.395 307.036 356.94C307.462 362.616 307.888 368.304 308.314 373.98C308.704 379.184 307.9 384.34 311.258 387.875C314.084 390.855 319.595 393.138 323.497 394.427C331.326 397.028 339.769 400.872 347.61 403.461Z" fill="black"/>
</g>
</g>
<path d="M427.585 468.324C427.585 468.324 466.101 478.979 467.65 479.523C469.968 480.339 469.577 488.841 465.971 488.711C464.268 488.652 436.383 489.752 432.859 489.527C429.335 489.303 418.716 485.116 418.716 485.116L427.585 468.324Z" fill="#F4D962"/>
<path d="M443.632 483.023C443.822 483.047 444.082 481.013 445.335 478.884C446.553 476.744 448.173 475.49 448.055 475.337C447.984 475.183 446.08 476.271 444.768 478.565C443.443 480.835 443.467 483.035 443.632 483.023Z" fill="#263238"/>
<path d="M439.612 481.202C439.801 481.238 440.191 479.417 441.22 477.406C442.225 475.384 443.455 473.989 443.313 473.859C443.207 473.729 441.705 474.994 440.641 477.123C439.564 479.228 439.458 481.191 439.612 481.202Z" fill="#263238"/>
<path d="M435.851 480.185C436.04 480.173 435.898 478.246 436.75 476.117C437.566 473.965 438.985 472.652 438.843 472.51C438.76 472.369 437.034 473.551 436.147 475.881C435.236 478.198 435.697 480.244 435.851 480.185Z" fill="#263238"/>
<path d="M436.537 475.218C436.608 475.23 436.951 474.166 436.951 472.357C436.951 471.458 436.845 470.382 436.561 469.211C436.419 468.632 436.23 468.029 435.993 467.425C435.863 467.118 435.721 466.763 435.378 466.479C435.023 466.16 434.361 466.219 434.054 466.55C433.699 466.858 433.593 467.295 433.545 467.638C433.51 467.993 433.486 468.324 433.498 468.655C433.51 469.318 433.593 469.956 433.734 470.536C434.018 471.706 434.479 472.7 434.917 473.48C435.816 475.041 436.596 475.845 436.644 475.798C436.726 475.739 436.088 474.84 435.319 473.267C434.941 472.487 434.55 471.517 434.314 470.405C434.196 469.85 434.125 469.258 434.125 468.643C434.137 468.052 434.137 467.307 434.479 467.023C434.669 466.87 434.834 466.858 434.988 466.976C435.154 467.106 435.295 467.366 435.414 467.65C435.65 468.23 435.851 468.797 435.993 469.353C436.301 470.465 436.442 471.493 436.502 472.357C436.608 474.107 436.431 475.195 436.537 475.218Z" fill="#263238"/>
<path d="M436.49 474.816C436.513 474.745 435.579 474.426 434.006 474.414C433.226 474.414 432.28 474.497 431.275 474.745C430.778 474.875 430.234 475.005 429.702 475.325C429.17 475.597 428.626 476.33 428.827 477.087C428.992 477.808 429.607 478.305 430.21 478.458C430.825 478.624 431.417 478.565 431.937 478.458C432.989 478.21 433.817 477.69 434.444 477.229C435.674 476.259 436.277 475.514 436.23 475.467C436.159 475.384 435.437 476.022 434.172 476.862C433.545 477.264 432.753 477.702 431.807 477.879C431.334 477.974 430.837 477.997 430.376 477.855C429.927 477.725 429.548 477.382 429.442 476.945C429.335 476.519 429.596 476.117 430.009 475.869C430.423 475.608 430.932 475.467 431.405 475.325C432.363 475.053 433.25 474.923 433.995 474.875C435.52 474.769 436.466 474.923 436.49 474.816Z" fill="#263238"/>
<path d="M449.557 483.425C449.746 483.402 449.557 481.758 450.314 479.949C451.035 478.128 452.324 477.087 452.194 476.933C452.135 476.779 450.515 477.69 449.711 479.7C448.883 481.722 449.391 483.496 449.557 483.425Z" fill="#263238"/>
<path d="M422.678 485.211C422.666 485.246 423.186 485.495 424.168 485.908C425.161 486.287 426.604 486.807 428.448 487.233C432.126 488.167 437.389 488.687 443.148 488.628C448.918 488.569 454.122 488.297 457.894 488.155C459.68 488.061 461.17 487.978 462.352 487.919C463.405 487.848 463.984 487.789 463.984 487.741C463.984 487.694 463.393 487.67 462.34 487.67C461.158 487.682 459.656 487.694 457.87 487.706C453.968 487.777 448.824 487.883 443.136 487.99C437.389 488.049 432.209 487.599 428.531 486.795C424.865 486.039 422.725 485.093 422.678 485.211Z" fill="#263238"/>
<path d="M421.542 486.086C421.59 486.181 422.654 485.554 424.428 484.774C426.19 484.017 428.827 483.118 431.712 483.567C434.61 484.017 436.667 485.956 438.015 487.316C439.363 488.723 440.156 489.646 440.238 489.587C440.298 489.539 439.635 488.51 438.358 487.009C437.708 486.264 436.88 485.4 435.804 484.62C434.74 483.839 433.368 483.165 431.831 482.929C428.72 482.456 425.989 483.497 424.25 484.36C422.465 485.27 421.495 486.027 421.542 486.086Z" fill="#263238"/>
<path d="M386.705 457.693C386.705 457.693 350.258 481.557 348.946 482.538C346.983 484.016 349.23 491.088 352.635 489.858C354.244 489.279 384.824 480.776 388.112 479.487C391.399 478.198 400.257 470.997 400.257 470.997L386.705 457.693Z" fill="#F4D962"/>
<path d="M375.884 476.566C376.05 476.531 375.399 474.426 373.448 472.664C371.509 470.878 369.357 470.429 369.345 470.594C369.274 470.772 371.213 471.469 373.011 473.149C374.844 474.781 375.707 476.649 375.884 476.566Z" fill="#263238"/>
<path d="M379.16 473.61C379.314 473.551 378.604 471.718 376.937 470.027C375.281 468.324 373.46 467.579 373.401 467.733C373.306 467.898 374.903 468.856 376.476 470.476C378.06 472.084 378.983 473.693 379.16 473.61Z" fill="#263238"/>
<path d="M382.436 471.505C382.601 471.505 382.424 469.424 380.839 467.496C379.278 465.557 377.28 464.942 377.244 465.107C377.161 465.285 378.9 466.101 380.331 467.898C381.809 469.672 382.246 471.552 382.436 471.505Z" fill="#263238"/>
<path d="M380.272 466.976C380.366 466.929 379.869 465.947 379.444 464.244C379.231 463.393 379.065 462.376 379.018 461.229C378.994 460.661 379.006 460.058 379.054 459.431C379.077 459.136 379.124 458.84 379.255 458.663C379.373 458.497 379.527 458.462 379.751 458.544C380.165 458.71 380.39 459.419 380.579 459.975C380.768 460.555 380.886 461.146 380.934 461.714C381.052 462.849 380.957 463.889 380.839 464.753C380.579 466.479 380.236 467.532 380.342 467.567C380.413 467.591 380.91 466.597 381.288 464.835C381.478 463.96 381.608 462.872 381.525 461.666C381.478 461.063 381.371 460.436 381.182 459.798C381.087 459.479 380.969 459.171 380.827 458.84C380.674 458.521 380.437 458.142 380.011 457.953C379.621 457.74 378.971 457.87 378.734 458.296C378.486 458.674 378.462 459.053 378.439 459.384C378.391 460.034 378.391 460.661 378.439 461.264C378.521 462.459 378.746 463.511 379.018 464.374C379.562 466.089 380.212 467.011 380.272 466.976Z" fill="#263238"/>
<path d="M380.201 466.586C380.248 466.68 381.099 466.243 382.566 465.888C383.299 465.711 384.186 465.557 385.179 465.533C385.676 465.521 386.208 465.51 386.681 465.628C387.154 465.734 387.532 466.03 387.556 466.479C387.591 466.94 387.331 467.378 386.941 467.638C386.551 467.91 386.054 468.028 385.581 468.087C384.623 468.194 383.748 468.028 383.015 467.827C381.561 467.413 380.674 467.023 380.638 467.13C380.614 467.201 381.407 467.721 382.885 468.265C383.618 468.525 384.564 468.761 385.64 468.679C386.172 468.631 386.752 468.513 387.284 468.158C387.816 467.827 388.254 467.165 388.183 466.432C388.147 465.64 387.402 465.119 386.823 465.025C386.208 464.883 385.664 464.93 385.144 464.954C384.103 465.025 383.181 465.226 382.436 465.462C380.957 465.935 380.165 466.526 380.201 466.586Z" fill="#263238"/>
<path d="M357.283 488.534C357.33 488.593 357.898 488.167 358.17 487.126C358.477 486.109 358.288 484.537 357.484 483.177C357.105 482.479 356.668 481.888 356.266 481.356C355.864 480.823 355.45 480.35 355.024 480.031C354.598 479.7 354.161 479.558 353.865 479.546C353.558 479.534 353.404 479.605 353.404 479.641C353.404 479.735 354.054 479.688 354.729 480.374C355.071 480.705 355.414 481.155 355.781 481.698C356.159 482.242 356.561 482.834 356.916 483.472C357.649 484.761 357.874 486.086 357.72 487.032C357.602 487.966 357.2 488.463 357.283 488.534Z" fill="#263238"/>
<path d="M370.374 478.754C370.539 478.766 370.492 476.921 369.085 475.265C367.701 473.586 365.892 473.208 365.88 473.373C365.809 473.551 367.346 474.154 368.588 475.667C369.865 477.169 370.184 478.789 370.374 478.754Z" fill="#263238"/>
<path d="M396.52 472.285C396.484 472.25 395.928 472.664 394.923 473.385C393.894 474.095 392.393 475.088 390.43 476.14C388.467 477.193 386.054 478.281 383.287 479.321C380.532 480.35 377.433 481.32 374.158 482.266C367.606 484.158 361.67 485.885 357.377 487.174C355.32 487.8 353.617 488.332 352.316 488.735C351.122 489.113 350.471 489.349 350.483 489.385C350.495 489.432 351.169 489.278 352.387 488.971C353.712 488.616 355.426 488.167 357.508 487.611C361.824 486.44 367.772 484.785 374.335 482.893C377.611 481.947 380.721 480.953 383.488 479.877C386.255 478.801 388.679 477.654 390.631 476.542C392.582 475.431 394.072 474.367 395.053 473.586C396.035 472.794 396.543 472.321 396.52 472.285Z" fill="#263238"/>
<path d="M397.868 472.77C397.891 472.7 396.733 472.274 394.781 471.955C392.854 471.647 389.933 471.493 387.118 472.889C385.723 473.575 384.623 474.639 383.843 475.703C383.051 476.779 382.53 477.844 382.14 478.754C381.371 480.575 381.052 481.758 381.123 481.782C381.218 481.817 381.691 480.694 382.554 478.943C383.417 477.252 384.789 474.769 387.414 473.456C390.039 472.156 392.818 472.215 394.722 472.392C396.65 472.605 397.844 472.877 397.868 472.77Z" fill="#263238"/>
<path d="M462.447 399.488C462.447 399.488 473.385 403.391 473.421 415.654C473.504 439.139 425.977 465.025 425.977 465.025L362.723 423.104L358.761 421.495C358.749 421.507 444.153 389.425 462.447 399.488Z" fill="#263238"/>
<path d="M394.758 444.283C394.781 444.318 395.373 443.916 396.401 443.159C397.442 442.403 398.92 441.291 400.73 439.896C404.348 437.093 409.279 433.132 414.577 428.579C419.875 424.026 424.546 419.757 427.857 416.6C429.513 415.027 430.837 413.726 431.736 412.815C432.635 411.905 433.12 411.384 433.084 411.361C433.049 411.325 432.516 411.787 431.559 412.638C430.53 413.572 429.17 414.79 427.538 416.268C424.144 419.331 419.437 423.553 414.14 428.094C408.842 432.635 403.97 436.655 400.422 439.541C398.719 440.936 397.3 442.083 396.224 442.97C395.266 443.774 394.734 444.247 394.758 444.283Z" fill="#455A64"/>
<path d="M444.59 408.274C444.614 408.121 441.788 407.837 438.5 408.83C435.189 409.788 432.978 411.562 433.084 411.68C433.19 411.846 435.496 410.379 438.689 409.457C441.859 408.487 444.59 408.464 444.59 408.274Z" fill="#455A64"/>
<path d="M439.139 404.573C439.08 404.42 437.057 405.318 435.39 407.4C433.711 409.469 433.261 411.633 433.427 411.657C433.616 411.716 434.302 409.753 435.899 407.802C437.46 405.827 439.245 404.739 439.139 404.573Z" fill="#455A64"/>
<path d="M465.923 478.92C465.959 478.849 465.167 478.695 464.291 479.416C463.428 480.102 462.695 481.486 462.459 483.082C462.222 484.702 462.577 486.192 463.038 487.127C463.487 488.084 463.972 488.534 464.031 488.498C464.114 488.439 463.771 487.907 463.464 486.961C463.144 486.027 462.884 484.655 463.097 483.177C463.31 481.699 463.913 480.422 464.599 479.748C465.273 479.05 465.935 479.026 465.923 478.92Z" fill="#263238"/>
<path d="M447.901 361.126L425.362 418.243L328.346 419.816L326.56 414.578L360.558 413.336L376.901 362.676L447.901 361.126Z" fill="#455A64"/>
<path d="M402.586 385.854C403.828 385.014 406.134 385.345 407.257 386.35C408.381 387.355 408.735 389.094 408.168 390.489C407.6 391.885 406.169 392.854 404.667 392.937C403.071 393.02 401.404 392.026 400.966 390.489C400.517 388.952 401.013 386.658 402.586 385.854Z" fill="#EBEBEB"/>
<path d="M431.961 467.875C431.961 467.875 342.584 409.244 338.918 408.026C335.264 406.808 326.418 401.014 317.573 403.45C308.727 405.886 300.804 413.821 296.831 425.41C294.561 432.032 293.496 443.325 293 451.804C292.396 461.938 295.53 472.037 302.164 479.724C305.18 483.224 308.893 486.263 313.304 487.635C314.238 487.919 315.196 488.179 316.189 488.392C333.088 492.058 350.46 484.466 359.944 470.015L362.025 466.846C362.025 466.846 420.49 488.321 421.412 488.025L431.961 467.875Z" fill="#263238"/>
<path d="M321.393 451.745C321.393 451.745 321.558 451.828 321.877 451.958C322.232 452.1 322.717 452.289 323.344 452.537C324.668 453.046 326.56 453.779 329.008 454.713C333.975 456.581 341.153 459.289 350.069 462.648C359.009 465.983 369.735 469.956 381.75 474.331C393.776 478.695 407.092 483.496 421.33 488.321L421.59 488.404L421.72 488.155C423.955 483.886 426.308 479.393 428.697 474.816C429.915 472.487 431.121 470.169 432.256 468.017L432.398 467.756L432.15 467.603C405.306 450.562 381.3 435.319 363.976 424.322C355.32 418.858 348.343 414.459 343.494 411.408C341.094 409.906 339.225 408.747 337.936 407.931C337.321 407.553 336.837 407.257 336.482 407.045C336.151 406.844 335.973 406.761 335.973 406.761C335.973 406.761 336.127 406.879 336.446 407.104C336.789 407.328 337.262 407.648 337.865 408.038C339.143 408.866 340.987 410.072 343.364 411.609C348.189 414.707 355.131 419.166 363.74 424.7C381.04 435.745 405.01 451.047 431.807 468.147L431.7 467.733C430.565 469.897 429.359 472.203 428.141 474.532C425.752 479.097 423.399 483.603 421.164 487.872L421.554 487.718C407.328 482.917 394.001 478.139 381.974 473.799C369.96 469.424 359.222 465.521 350.247 462.258C341.307 458.982 334.105 456.333 329.126 454.512C326.667 453.613 324.751 452.916 323.415 452.431C322.776 452.206 322.291 452.029 321.936 451.91C321.57 451.78 321.393 451.745 321.393 451.745Z" fill="#455A64"/>
<path d="M330.664 243.546C332.189 239.43 335.559 237.633 339.828 236.604C344.097 235.575 348.851 236.793 352.091 239.762C354.255 241.748 355.84 244.492 358.524 245.698C362.935 247.696 368.576 244.776 372.751 247.223C375.222 248.666 376.44 251.954 375.494 254.662C374.548 257.37 371.556 259.191 368.73 258.789C371.603 260.149 372.136 264.465 370.161 266.948C368.186 269.432 364.532 270.106 361.469 269.242C358.418 268.379 355.876 266.251 353.723 263.921C351.559 261.591 349.679 259.013 347.338 256.861C344.996 254.709 342.087 252.982 338.918 252.864C334.625 252.699 330.664 255.596 328.405 259.25C326.146 262.904 325.307 267.244 324.68 271.501C324.053 275.758 323.58 280.086 321.936 284.06C321.747 284.521 321.463 285.041 320.979 285.148C320.269 285.301 319.737 284.509 319.453 283.835C316.225 276.267 314.498 268.048 314.416 259.818C314.368 255.04 314.9 250.558 317.869 246.821C320.837 243.085 327.672 240.731 330.664 243.546Z" fill="#263238"/>
<path d="M320.588 262.632L314.013 310.383C312.902 318.508 318.803 325.91 326.962 326.62C334.578 327.282 341.389 321.842 342.418 314.274C342.915 310.679 343.329 307.687 343.4 307.321C343.4 307.321 355.71 307.853 358.241 295.945C359.471 290.186 361.02 278.124 362.297 267.209C363.669 255.478 355.793 244.657 344.204 242.34L343.057 242.115C330.51 240.329 321.996 250.014 320.588 262.632Z" fill="#FFBE9D"/>
<path d="M343.459 307.131C343.459 307.131 335.796 306.233 328.783 299.599C328.783 299.599 330.746 308.929 342.879 310.23L343.459 307.131Z" fill="#EB996E"/>
<path d="M357.235 274.481C357.094 275.391 356.195 276.006 355.249 275.876C354.303 275.734 353.652 274.895 353.794 273.984C353.948 273.073 354.835 272.459 355.781 272.589C356.739 272.731 357.389 273.57 357.235 274.481Z" fill="#263238"/>
<path d="M358.584 272.53C358.323 272.707 357.224 271.501 355.391 271.134C353.558 270.744 352.032 271.418 351.879 271.158C351.796 271.04 352.091 270.685 352.765 270.365C353.428 270.058 354.492 269.833 355.639 270.07C356.786 270.306 357.661 270.921 358.122 271.453C358.595 272.009 358.702 272.447 358.584 272.53Z" fill="#263238"/>
<path d="M339.119 271.512C338.965 272.423 338.078 273.038 337.132 272.908C336.186 272.766 335.536 271.926 335.678 271.016C335.831 270.105 336.718 269.49 337.664 269.62C338.622 269.762 339.273 270.602 339.119 271.512Z" fill="#263238"/>
<path d="M340.479 269.266C340.219 269.443 339.119 268.237 337.286 267.87C335.453 267.48 333.928 268.154 333.774 267.894C333.691 267.776 333.987 267.421 334.661 267.102C335.323 266.794 336.387 266.57 337.534 266.806C338.681 267.043 339.556 267.658 340.018 268.19C340.491 268.746 340.597 269.183 340.479 269.266Z" fill="#263238"/>
<path d="M344.417 284.201C344.429 284.095 345.611 284.13 347.503 284.26C347.976 284.308 348.449 284.296 348.591 284C348.769 283.681 348.674 283.137 348.556 282.546C348.343 281.328 348.118 280.039 347.882 278.702C346.971 273.239 346.415 268.781 346.64 268.745C346.865 268.71 347.775 273.109 348.686 278.572C348.899 279.92 349.1 281.198 349.301 282.427C349.372 282.995 349.561 283.657 349.171 284.32C348.97 284.639 348.579 284.828 348.26 284.852C347.941 284.887 347.681 284.84 347.444 284.804C345.564 284.532 344.405 284.308 344.417 284.201Z" fill="#263238"/>
<path d="M338.764 284.391C339.072 284.438 338.67 286.425 340.089 288.175C341.508 289.937 343.672 290.138 343.636 290.41C343.636 290.54 343.08 290.705 342.182 290.552C341.295 290.41 340.065 289.866 339.202 288.79C338.338 287.714 338.114 286.472 338.22 285.644C338.315 284.805 338.634 284.355 338.764 284.391Z" fill="#263238"/>
<path d="M342.383 262.171C342.099 262.632 340.313 262.029 338.114 261.863C335.914 261.65 334.046 261.934 333.857 261.426C333.774 261.189 334.164 260.775 334.968 260.432C335.76 260.09 336.967 259.853 338.279 259.971C339.604 260.09 340.739 260.527 341.46 261C342.194 261.473 342.513 261.946 342.383 262.171Z" fill="#263238"/>
<path d="M358.962 267.078C358.56 267.433 357.377 266.747 355.864 266.416C354.362 266.038 353.002 266.132 352.789 265.635C352.706 265.399 352.99 265.021 353.629 264.737C354.256 264.453 355.249 264.323 356.289 264.559C357.33 264.796 358.158 265.363 358.595 265.896C359.057 266.44 359.151 266.913 358.962 267.078Z" fill="#263238"/>
<path d="M319.796 271.667C319.607 271.537 312.074 267.599 310.702 275.818C309.331 284.036 317.857 283.717 317.916 283.48C317.975 283.244 319.796 271.667 319.796 271.667Z" fill="#FFBE9D"/>
<path d="M315.929 279.945C315.894 279.909 315.764 280.016 315.503 280.086C315.255 280.157 314.829 280.157 314.427 279.933C313.611 279.472 313.115 277.97 313.316 276.48C313.422 275.723 313.694 275.037 314.061 274.493C314.415 273.937 314.865 273.582 315.326 273.571C315.775 273.547 316.047 273.854 316.107 274.103C316.178 274.351 316.095 274.505 316.142 274.528C316.166 274.552 316.343 274.422 316.331 274.067C316.319 273.902 316.26 273.689 316.095 273.5C315.929 273.31 315.645 273.18 315.338 273.157C314.699 273.098 314.025 273.582 313.635 274.186C313.197 274.777 312.878 275.545 312.76 276.397C312.535 278.064 313.127 279.755 314.25 280.287C314.806 280.536 315.314 280.441 315.598 280.287C315.882 280.134 315.953 279.956 315.929 279.945Z" fill="#EB996E"/>
<path d="M365.336 265.21C359.802 265.565 354.149 263.046 350.708 258.694C348.295 255.655 346.758 251.658 343.341 249.813C341.046 248.571 338.208 248.56 335.725 249.34C333.23 250.132 331.042 251.658 329.067 253.384C330.167 259.912 327.258 266.381 324.432 272.364C324.124 273.027 323.758 273.736 323.107 274.055C321.996 274.599 320.659 273.736 319.997 272.684C318.933 271.004 318.803 268.911 318.85 266.925C318.945 262.395 319.737 257.843 321.57 253.704C323.415 249.565 326.336 245.852 330.155 243.416C334.933 240.376 340.964 239.513 346.498 240.708C352.032 241.902 357.058 245.071 360.819 249.305C362.569 251.268 364.082 253.526 364.674 256.081" fill="#263238"/>
<path d="M34.3884 457.835C34.3766 457.823 34.4476 457.657 34.6013 457.338C34.7668 456.983 34.9915 456.51 35.2753 455.907C35.843 454.642 36.588 452.738 37.2384 450.184C38.5392 445.099 39.0004 437.329 37.0728 428.094C36.1741 423.47 34.7314 418.515 32.9812 413.265C31.2429 408.002 29.2325 402.409 27.5888 396.378C25.9569 390.359 24.6797 383.819 24.9281 376.96C25.1764 370.09 27.2104 363.231 29.4454 356.408C31.6804 349.573 33.9864 342.891 34.6722 336.174C35.4527 329.469 34.0218 322.882 30.959 317.49C28.0027 312.039 24.2777 307.367 21.4868 302.543C18.6606 297.73 16.8867 292.775 15.7988 288.175C13.682 278.892 14.427 271.063 15.4322 265.907C16.532 260.728 17.75 258.043 17.75 258.043C17.7618 258.043 17.7145 258.221 17.6081 258.564C17.4898 258.93 17.3361 259.439 17.1351 260.066C16.7212 261.39 16.189 263.365 15.6924 265.955C14.77 271.099 14.1078 278.868 16.2718 288.056C17.3834 292.609 19.1572 297.493 21.9835 302.247C24.7625 307.025 28.4993 311.66 31.5267 317.183C34.6486 322.634 36.1504 329.434 35.3581 336.257C34.6604 343.092 32.3308 349.821 30.1076 356.644C27.8726 363.467 25.8623 370.243 25.6021 376.996C25.3538 383.748 26.5955 390.217 28.2037 396.212C29.8238 402.22 31.8105 407.813 33.5252 413.087C35.2635 418.361 36.6826 423.352 37.5577 428.011C39.4379 437.306 38.8939 445.158 37.4985 450.255C36.789 452.809 36.0085 454.713 35.3936 455.966C35.0861 456.558 34.8378 457.019 34.6604 457.373C34.4949 457.693 34.4003 457.847 34.3884 457.835Z" fill="#263238"/>
<path d="M25.271 307.308C25.271 307.308 19.6066 289.215 29.7647 278.62C30.1195 278.253 30.7462 278.419 30.8408 278.927C31.3848 281.919 32.0588 291.013 25.271 307.308Z" fill="#F4D962"/>
<path d="M28.665 284.639C28.7596 284.662 28.594 285.928 28.2865 287.974C27.92 290.268 27.4824 292.976 26.9976 295.956C26.5246 298.936 26.0988 301.644 25.7322 303.938C25.4248 305.984 25.2356 307.249 25.1291 307.237C25.0345 307.225 25.0464 305.948 25.2356 303.879C25.4248 301.809 25.7914 298.971 26.2999 295.849C26.8084 292.727 27.3523 289.913 27.8017 287.891C28.2274 285.869 28.5704 284.627 28.665 284.639Z" fill="#263238"/>
<path d="M31.9169 349.987C31.9169 349.987 35.3818 331.338 49.3122 326.726C49.797 326.56 50.2701 327.01 50.1163 327.506C49.1939 330.404 45.5399 338.764 31.9169 349.987Z" fill="#F4D962"/>
<path d="M45.5162 331.539C45.5872 331.598 44.854 332.65 43.6123 334.318C42.2051 336.174 40.5614 338.362 38.7402 340.774C36.9309 343.187 35.2872 345.375 33.8918 347.243C32.662 348.91 31.9051 349.939 31.8223 349.88C31.7396 349.833 32.3545 348.698 33.4897 346.959C34.625 345.221 36.2805 342.879 38.1844 340.361C40.1002 337.842 41.8976 335.607 43.2339 334.022C44.5584 332.426 45.4335 331.48 45.5162 331.539Z" fill="#263238"/>
<path d="M28.1559 396.756C28.1559 396.756 26.0509 377.906 38.042 369.451C38.4677 369.155 39.0471 369.451 39.0353 369.96C38.9998 372.999 37.9237 382.069 28.1559 396.756Z" fill="#F4D962"/>
<path d="M35.8075 375.163C35.9021 375.198 35.5 376.416 34.8023 378.368C33.9982 380.555 33.0521 383.121 32.0115 385.96C30.9827 388.798 30.0367 391.364 29.2443 393.552C28.5466 395.503 28.1209 396.709 28.0263 396.685C27.9435 396.662 28.1919 395.396 28.7713 393.398C29.3508 391.399 30.2495 388.679 31.3493 385.711C32.449 382.743 33.5133 380.082 34.3411 378.178C35.1453 376.274 35.7129 375.127 35.8075 375.163Z" fill="#263238"/>
<path d="M38.6456 443.81C38.6456 443.81 37.2147 424.901 49.5014 416.871C49.9271 416.588 50.5065 416.907 50.4829 417.415C50.3292 420.443 48.9338 429.466 38.6456 443.81Z" fill="#F4D962"/>
<path d="M47.0653 422.489C47.1599 422.524 46.7106 423.73 45.9419 425.658C45.055 427.81 44.0262 430.341 42.8791 433.143C41.7439 435.946 40.715 438.477 39.84 440.629C39.0713 442.545 38.6101 443.739 38.5155 443.715C38.4327 443.692 38.7284 442.438 39.3788 440.463C40.0292 438.488 41.0225 435.804 42.2287 432.871C43.4349 429.95 44.5938 427.325 45.4807 425.457C46.3676 423.588 46.9825 422.453 47.0653 422.489Z" fill="#263238"/>
<path d="M17.1351 291.403C17.1351 291.403 0.331112 282.628 -1.32964e-06 267.953C-0.0118268 267.433 0.555795 267.113 0.981512 267.409C3.47669 269.147 10.3946 275.096 17.1351 291.403Z" fill="#F4D962"/>
<path d="M3.48849 273.002C3.57127 272.943 4.35175 273.96 5.5816 275.628C6.94153 277.52 8.54979 279.731 10.3236 282.179C12.0974 284.627 13.7057 286.826 15.0774 288.718C16.3073 290.386 17.076 291.403 16.9932 291.474C16.9222 291.533 16.0235 290.622 14.6872 289.026C13.3509 287.43 11.6008 285.171 9.75599 282.593C7.91121 280.027 6.30295 277.65 5.17953 275.912C4.04429 274.173 3.40571 273.05 3.48849 273.002Z" fill="#263238"/>
<path d="M35.1807 330.273C35.1807 330.273 17.8683 322.528 16.6502 307.911C16.6029 307.403 17.1587 307.048 17.5963 307.308C20.1979 308.881 27.4705 314.404 35.1807 330.273Z" fill="#F4D962"/>
<path d="M20.4462 312.724C20.529 312.665 21.3686 313.635 22.6931 315.219C24.1712 317.017 25.9096 319.134 27.8253 321.475C29.7529 323.805 31.4912 325.91 32.9694 327.707C34.2938 329.292 35.1216 330.273 35.0507 330.344C34.9797 330.403 34.0219 329.552 32.6028 328.038C31.1719 326.525 29.2917 324.372 27.2813 321.924C25.2828 319.477 23.5327 317.206 22.3028 315.527C21.073 313.859 20.3634 312.783 20.4462 312.724Z" fill="#263238"/>
<path d="M25.2237 373.625C25.2237 373.625 13.3391 358.855 18.9089 345.28C19.11 344.807 19.7485 344.736 20.0205 345.173C21.6288 347.751 25.5903 355.982 25.2237 373.625Z" fill="#F4D962"/>
<path d="M20.0915 351.287C20.1861 351.275 20.5054 352.517 20.9548 354.539C21.4514 356.822 22.0309 359.482 22.6694 362.439C23.3198 365.383 23.9111 368.056 24.4078 370.326C24.869 372.337 25.1528 373.59 25.0582 373.626C24.9754 373.649 24.5024 372.455 23.9229 370.456C23.3435 368.458 22.6458 365.679 21.9717 362.592C21.3095 359.494 20.7892 356.68 20.4581 354.634C20.1388 352.588 19.9969 351.311 20.0915 351.287Z" fill="#263238"/>
<path d="M37.0019 424.641C37.0019 424.641 19.8195 416.611 18.8498 401.971C18.8143 401.463 19.3701 401.108 19.8077 401.392C22.3738 403 29.5519 408.641 37.0019 424.641Z" fill="#F4D962"/>
<path d="M22.5512 406.855C22.6339 406.796 23.4617 407.777 24.7625 409.386C26.2052 411.207 27.9081 413.359 29.7883 415.724C31.6686 418.089 33.3715 420.218 34.826 422.039C36.1268 423.647 36.9309 424.641 36.86 424.712C36.789 424.771 35.843 423.896 34.4476 422.37C33.0522 420.833 31.1956 418.645 29.2325 416.162C27.2695 413.678 25.5667 411.384 24.3723 409.681C23.1661 407.99 22.4802 406.914 22.5512 406.855Z" fill="#263238"/>
<path d="M71.213 350.093C71.2248 350.093 71.2367 350.235 71.2367 350.507C71.2248 350.838 71.213 351.24 71.2012 351.725C71.1539 352.86 71.0829 354.397 71.0002 356.325C70.7755 360.369 70.468 365.998 70.1014 372.739V372.75V372.774C68.8716 379.633 65.3831 387.237 60.6883 394.627C57.2471 400.067 53.6404 405.01 50.5184 409.61C47.3847 414.199 44.7358 418.444 42.9028 422.204C41.0462 425.965 39.9701 429.193 39.3434 431.452C39.0359 432.587 38.8112 433.462 38.6811 434.077C38.5392 434.68 38.4565 435 38.4328 434.988C38.4092 434.988 38.4446 434.657 38.5392 434.042C38.622 433.427 38.8112 432.528 39.0714 431.381C39.6272 429.087 40.6442 425.811 42.4535 421.992C44.2509 418.172 46.8762 413.868 49.9863 409.244C53.0727 404.608 56.6677 399.665 60.0971 394.249C64.7681 386.905 68.2448 379.408 69.5101 372.656V372.691C69.9832 365.951 70.3734 360.322 70.6572 356.289C70.8109 354.374 70.941 352.836 71.0238 351.701C71.0711 351.216 71.1066 350.826 71.1421 350.495C71.1657 350.235 71.2012 350.093 71.213 350.093Z" fill="#263238"/>
<path d="M60.984 393.22C60.984 393.22 68.2566 375.707 59.1037 364.236C58.7844 363.834 58.1458 363.952 58.0039 364.449C57.1998 367.37 55.698 376.381 60.984 393.22Z" fill="#F4D962"/>
<path d="M59.6595 370.338C59.7541 370.326 59.9788 371.591 60.239 373.649C60.4991 375.707 60.7829 378.557 61.0076 381.714C61.2323 384.871 61.3387 387.733 61.3387 389.814C61.3387 391.896 61.2323 393.173 61.1377 393.173C61.0313 393.173 60.9603 391.896 60.8421 389.826C60.6883 387.509 60.4991 384.777 60.2981 381.761C60.0852 378.746 59.896 376.014 59.7305 373.696C59.6122 371.627 59.5649 370.35 59.6595 370.338Z" fill="#263238"/>
<g opacity="0.3">
<g opacity="0.3">
<path opacity="0.3" d="M60.984 393.22C60.984 393.22 68.2566 375.707 59.1037 364.236C58.7844 363.834 58.1458 363.952 58.0039 364.449C57.1998 367.37 55.698 376.381 60.984 393.22Z" fill="black"/>
</g>
</g>
<path d="M38.4564 435.414C38.4564 435.414 44.2864 417.368 34.2348 406.678C33.88 406.299 33.2532 406.477 33.1586 406.974C32.5792 409.965 31.8224 419.059 38.4564 435.414Z" fill="#F4D962"/>
<path d="M35.2754 412.721C35.37 412.697 35.7011 413.95 36.115 415.973C36.5407 418.007 37.061 420.821 37.5341 423.943C38.0189 427.065 38.35 429.915 38.5274 431.984C38.693 434.054 38.693 435.343 38.5984 435.354C38.4919 435.366 38.3264 434.089 38.0307 432.043C37.6878 429.737 37.2857 427.041 36.8364 424.049C36.387 421.057 35.9731 418.361 35.6183 416.055C35.3345 414.009 35.1808 412.732 35.2754 412.721Z" fill="#263238"/>
<g opacity="0.3">
<g opacity="0.3">
<path opacity="0.3" d="M38.4564 435.414C38.4564 435.414 44.2864 417.368 34.2348 406.678C33.88 406.299 33.2532 406.477 33.1586 406.974C32.5792 409.965 31.8224 419.059 38.4564 435.414Z" fill="black"/>
</g>
</g>
<path d="M70.2433 371.816C70.2433 371.816 85.782 360.937 84.2092 346.356C84.15 345.848 83.5469 345.599 83.1685 345.942C80.9217 347.976 74.8197 354.776 70.2433 371.816Z" fill="#F4D962"/>
<g opacity="0.3">
<g opacity="0.3">
<path opacity="0.3" d="M70.2433 371.816C70.2433 371.816 85.782 360.937 84.2092 346.356C84.15 345.848 83.5469 345.599 83.1685 345.942C80.9217 347.976 74.8197 354.776 70.2433 371.816Z" fill="black"/>
</g>
</g>
<path d="M81.4065 351.796C81.4893 351.843 81.0045 353.026 80.1176 354.906C79.2306 356.774 77.9417 359.34 76.4398 362.119C74.938 364.91 73.4953 367.382 72.3719 369.132C71.2485 370.882 70.4798 371.911 70.397 371.852C70.3142 371.793 70.941 370.681 71.9343 368.872C73.0459 366.826 74.3586 364.425 75.8013 361.776C77.244 359.116 78.5448 356.715 79.6564 354.669C80.6733 352.86 81.3119 351.76 81.4065 351.796Z" fill="#263238"/>
<path d="M44.7121 417.522C44.7121 417.522 63.4436 414.601 68.4695 400.812C68.6468 400.328 68.2093 399.843 67.7126 399.985C64.7917 400.824 56.3247 404.242 44.7121 417.522Z" fill="#F4D962"/>
<g opacity="0.3">
<g opacity="0.3">
<path opacity="0.3" d="M44.7121 417.522C44.7121 417.522 63.4436 414.601 68.4695 400.812C68.6468 400.328 68.2093 399.843 67.7126 399.985C64.7917 400.824 56.3247 404.242 44.7121 417.522Z" fill="black"/>
</g>
</g>
<path d="M63.5501 404.466C63.6092 404.549 62.6514 405.389 61.0195 406.69C59.3994 407.979 57.117 409.717 54.5391 411.55C51.9611 413.395 49.5724 414.979 47.7986 416.055C46.0248 417.131 44.8777 417.711 44.8304 417.628C44.7831 417.533 45.8356 416.812 47.5266 415.63C49.4305 414.281 51.6655 412.709 54.1252 410.97C56.5849 409.22 58.8199 407.636 60.712 406.287C62.4149 405.093 63.491 404.395 63.5501 404.466Z" fill="#263238"/>
<path d="M26.8438 452.005L21.3804 488.794H55.4378L51.015 452.005H26.8438Z" fill="#455A64"/>
<path d="M52.3868 463.405C52.3868 463.606 46.2376 463.759 38.6575 463.759C31.0655 463.759 24.9281 463.606 24.9281 463.405C24.9281 463.204 31.0773 463.05 38.6575 463.05C46.2376 463.05 52.3868 463.204 52.3868 463.405Z" fill="#263238"/>
<path d="M53.0608 466.325C53.0608 466.526 46.7106 466.68 38.8821 466.68C31.0418 466.68 24.7034 466.526 24.7034 466.325C24.7034 466.124 31.0536 465.971 38.8821 465.971C46.7106 465.971 53.0608 466.136 53.0608 466.325Z" fill="#263238"/>
</g>
<defs>
<clipPath id="clip0">
<rect width="511.369" height="490" fill="white"/>
</clipPath>
</defs>
</svg>
