<svg width="31" height="30" viewBox="0 0 31 30" fill="none" xmlns="http://www.w3.org/2000/svg">
<path d="M29.4721 29.4428C29.1007 29.8143 28.6559 30 28.1378 30C27.6197 30 27.175 29.8143 26.8035 29.4428L20.9971 23.6364C18.651 25.3763 16.0313 26.2463 13.1378 26.2463C11.3587 26.2463 9.65787 25.8993 8.03519 25.2053C6.41251 24.5112 5.01466 23.5777 3.84164 22.4047C2.66862 21.2317 1.73509 19.8387 1.04106 18.2258C0.347019 16.6129 0 14.912 0 13.1232C0 11.3343 0.347019 9.62854 1.04106 8.00587C1.73509 6.38319 2.66862 4.99022 3.84164 3.82698C5.01466 2.66373 6.41251 1.73509 8.03519 1.04106C9.65787 0.347019 11.3587 0 13.1378 0C14.9169 0 16.6178 0.347019 18.2405 1.04106C19.8631 1.73509 21.261 2.66373 22.434 3.82698C23.607 4.99022 24.5406 6.38319 25.2346 8.00587C25.9286 9.62854 26.2757 11.3294 26.2757 13.1085C26.2757 16.0215 25.4057 18.6413 23.6657 20.9677L29.4721 26.7742C29.8436 27.1457 30.0293 27.5904 30.0293 28.1085C30.0293 28.6266 29.8436 29.0714 29.4721 29.4428ZM13.1378 3.75367C11.4369 3.75367 9.86804 4.16911 8.43108 5C6.99413 5.83089 5.85533 6.9697 5.01466 8.41642C4.174 9.86315 3.75367 11.4321 3.75367 13.1232C3.75367 14.8143 4.174 16.3832 5.01466 17.8299C5.85533 19.2766 6.99413 20.4154 8.43108 21.2463C9.86804 22.0772 11.4369 22.4927 13.1378 22.4927C14.8387 22.4927 16.4076 22.0772 17.8446 21.2463C19.2815 20.4154 20.4203 19.2766 21.261 17.8299C22.1017 16.3832 22.522 14.8143 22.522 13.1232C22.522 11.4321 22.1017 9.86315 21.261 8.41642C20.4203 6.9697 19.2815 5.83089 17.8446 5C16.4076 4.16911 14.8387 3.75367 13.1378 3.75367Z" fill="#A6A6A6"/>
</svg>
