<svg width="29" height="14" viewBox="0 0 29 14" fill="none" xmlns="http://www.w3.org/2000/svg">
<path d="M13.9953 13.9953C13.5282 13.9962 13.0756 13.8335 12.7159 13.5355L0.722131 3.54068C0.313909 3.20137 0.0571929 2.7138 0.00845863 2.18522C-0.0402756 1.65664 0.122964 1.13035 0.462266 0.72213C0.801567 0.313908 1.28914 0.0571929 1.81772 0.00845866C2.3463 -0.0402756 2.87259 0.122963 3.28081 0.462265L13.9953 9.41764L24.7097 0.782101C24.9142 0.616055 25.1495 0.492055 25.402 0.417231C25.6546 0.342406 25.9194 0.318231 26.1813 0.346095C26.4433 0.373959 26.6971 0.453311 26.9282 0.579594C27.1594 0.705876 27.3633 0.876598 27.5283 1.08195C27.7113 1.28748 27.85 1.52861 27.9355 1.79022C28.0211 2.05183 28.0517 2.32829 28.0254 2.60228C27.9991 2.87626 27.9165 3.14187 27.7828 3.38246C27.6492 3.62305 27.4672 3.83343 27.2484 4.00044L15.2546 13.6554C14.8846 13.9063 14.4412 14.026 13.9953 13.9953Z" fill="#A6A6A6"/>
</svg>
