<svg width="26" height="20" viewBox="0 0 26 20" fill="none" xmlns="http://www.w3.org/2000/svg">
<path fill-rule="evenodd" clip-rule="evenodd" d="M22.5185 1.66667H3.32742C2.90327 1.66667 2.4965 1.84226 2.19658 2.15482C1.89666 2.46738 1.72816 2.89131 1.72816 3.33333V16.6667C1.72816 17.1087 1.89666 17.5326 2.19658 17.8452C2.4965 18.1577 2.90327 18.3333 3.32742 18.3333H22.5185C22.9427 18.3333 23.3495 18.1577 23.6494 17.8452C23.9493 17.5326 24.1178 17.1087 24.1178 16.6667V3.33333C24.1178 2.89131 23.9493 2.46738 23.6494 2.15482C23.3495 1.84226 22.9427 1.66667 22.5185 1.66667ZM3.32742 0C2.47912 0 1.66557 0.351189 1.06573 0.976311C0.465892 1.60143 0.128906 2.44928 0.128906 3.33333L0.128906 16.6667C0.128906 17.5507 0.465892 18.3986 1.06573 19.0237C1.66557 19.6488 2.47912 20 3.32742 20H22.5185C23.3668 20 24.1804 19.6488 24.7802 19.0237C25.3801 18.3986 25.717 17.5507 25.717 16.6667V3.33333C25.717 2.44928 25.3801 1.60143 24.7802 0.976311C24.1804 0.351189 23.3668 0 22.5185 0H3.32742Z" fill="#C4C4C4"/>
<path d="M17.7206 5.83333C17.7206 5.61232 17.8048 5.40036 17.9548 5.24408C18.1047 5.0878 18.3081 5 18.5202 5H21.7187C21.9308 5 22.1342 5.0878 22.2841 5.24408C22.4341 5.40036 22.5183 5.61232 22.5183 5.83333V7.5C22.5183 7.72101 22.4341 7.93298 22.2841 8.08926C22.1342 8.24554 21.9308 8.33333 21.7187 8.33333H18.5202C18.3081 8.33333 18.1047 8.24554 17.9548 8.08926C17.8048 7.93298 17.7206 7.72101 17.7206 7.5V5.83333ZM1.72803 11.6667H24.1176V15H1.72803V11.6667Z" fill="#C4C4C4"/>
</svg>
