<svg width="20" height="20" viewBox="0 0 20 20" fill="none" xmlns="http://www.w3.org/2000/svg">
<path d="M2.29908 0.375158C2.04702 0.131712 1.70943 -0.00299448 1.35902 5.05214e-05C1.00861 0.00309552 0.673408 0.143649 0.425619 0.391438C0.17783 0.639228 0.0372767 0.974426 0.0342317 1.32484C0.0311867 1.67525 0.165893 2.01284 0.409339 2.2649L8.12735 9.98292L0.408003 17.7009C0.280358 17.8242 0.178544 17.9717 0.108502 18.1347C0.0384596 18.2978 0.00159248 18.4732 5.04605e-05 18.6506C-0.00149156 18.8281 0.0323227 19.0041 0.0995206 19.1683C0.166719 19.3325 0.265954 19.4818 0.391437 19.6072C0.51692 19.7327 0.666138 19.832 0.830383 19.8992C0.994628 19.9664 1.17061 20.0002 1.34806 19.9986C1.52552 19.9971 1.70089 19.9602 1.86394 19.8902C2.02699 19.8201 2.17446 19.7183 2.29775 19.5907L10.0171 11.8727L17.7351 19.5907C17.9872 19.8341 18.3247 19.9688 18.6752 19.9658C19.0256 19.9627 19.3608 19.8222 19.6086 19.5744C19.8564 19.3266 19.9969 18.9914 19.9999 18.641C20.003 18.2906 19.8683 17.953 19.6248 17.7009L11.9068 9.98292L19.6248 2.2649C19.8683 2.01284 20.003 1.67525 19.9999 1.32484C19.9969 0.974426 19.8564 0.639228 19.6086 0.391438C19.3608 0.143649 19.0256 0.00309552 18.6752 5.05214e-05C18.3247 -0.00299448 17.9872 0.131712 17.7351 0.375158L10.0171 8.09317L2.29908 0.373822V0.375158Z" fill="#494D4E"/>
</svg>
