<svg width="18" height="20" viewBox="0 0 18 20" fill="none" xmlns="http://www.w3.org/2000/svg">
<path fill-rule="evenodd" clip-rule="evenodd" d="M8.90593 0C8.05896 0 6.64138 0.332 5.30696 0.7C4.11674 1.03304 2.93424 1.39537 1.76046 1.78667C1.42534 1.89666 1.12697 2.1033 0.899867 2.38269C0.672768 2.66207 0.52623 3.00276 0.477215 3.36533C-0.255883 8.96133 1.44444 13.108 3.50684 15.852C4.3848 17.0295 5.42715 18.0632 6.59916 18.9187C7.07382 19.26 7.51394 19.52 7.88752 19.7C8.23296 19.8653 8.60143 20 8.90593 20C9.21042 20 9.58017 19.8653 9.92433 19.7C10.2979 19.52 10.738 19.26 11.2127 18.9187C12.3852 18.0633 13.428 17.0296 14.3063 15.852C16.3674 13.108 18.0677 8.96133 17.3346 3.36533C17.2856 3.00276 17.1391 2.66207 16.912 2.38269C16.6849 2.1033 16.3865 1.89666 16.0514 1.78667C14.8776 1.39536 13.6951 1.03303 12.5049 0.7C11.1705 0.332 9.75417 0 8.90593 0ZM12.5573 8.472C12.6775 8.34682 12.7449 8.17703 12.7449 8C12.7449 7.82297 12.6775 7.65318 12.5573 7.528C12.4372 7.40282 12.2743 7.33249 12.1044 7.33249C11.9346 7.33249 11.7716 7.40282 11.6515 7.528L8.26622 11.0573L6.80003 9.528C6.74055 9.46602 6.66994 9.41685 6.59223 9.3833C6.51452 9.34976 6.43123 9.33249 6.34712 9.33249C6.26301 9.33249 6.17972 9.34976 6.10201 9.3833C6.0243 9.41685 5.95369 9.46602 5.89421 9.528C5.83473 9.58998 5.78755 9.66357 5.75536 9.74456C5.72318 9.82554 5.70661 9.91234 5.70661 10C5.70661 10.0877 5.72318 10.1745 5.75536 10.2554C5.78755 10.3364 5.83473 10.41 5.89421 10.472L7.81332 12.472C7.87274 12.5341 7.94333 12.5833 8.02105 12.617C8.09877 12.6506 8.18208 12.6679 8.26622 12.6679C8.35037 12.6679 8.43368 12.6506 8.5114 12.617C8.58912 12.5833 8.65971 12.5341 8.71913 12.472L12.5573 8.472Z" fill="#C4C4C4"/>
</svg>
