<svg width="24" height="24" fill="none" xmlns="http://www.w3.org/2000/svg"><path d="M15.694 7.925c-.952-.891-2.163-1.346-3.51-1.346-2.392 0-4.416 1.583-5.139 3.71A5.312 5.312 0 0 0 6.757 12a5.3 5.3 0 0 0 .288 1.71c.722 2.128 2.746 3.712 5.138 3.712 1.236 0 2.288-.32 3.11-.86.973-.638 1.62-1.591 1.833-2.716h-4.942v-3.482h8.649c.109.59.167 1.203.167 1.841 0 2.741-1.002 5.048-2.738 6.615-1.52 1.375-3.6 2.181-6.079 2.181-3.59 0-6.696-2.017-8.207-4.958v-.002a8.85 8.85 0 0 1 0-8.082C5.489 5.017 8.594 3 12.184 3c2.476 0 4.554.892 6.145 2.344l-2.634 2.581z" fill="#fff"/></svg>