<svg width="24" height="24" fill="none" xmlns="http://www.w3.org/2000/svg"><path fill-rule="evenodd" clip-rule="evenodd" d="M21.53 6.833c.148-.47 0-.812-.657-.812H18.69c-.55 0-.805.3-.953.62 0 0-1.123 2.733-2.69 4.505-.508.512-.742.683-1.017.683-.148 0-.339-.17-.339-.64V6.81c0-.555-.17-.811-.635-.811H9.625c-.339 0-.55.256-.55.512 0 .534.783.662.868 2.157v3.246c0 .704-.127.832-.402.832-.742 0-2.542-2.754-3.622-5.893C5.707 6.234 5.495 6 4.944 6H2.741C2.106 6 2 6.299 2 6.62c0 .576.741 3.48 3.453 7.323 1.8 2.626 4.363 4.036 6.672 4.036 1.398 0 1.567-.32 1.567-.854v-1.986c0-.64.127-.747.572-.747.318 0 .89.17 2.182 1.43C17.928 17.317 18.183 18 19.009 18h2.181c.636 0 .932-.32.763-.94-.19-.619-.91-1.515-1.843-2.583-.508-.598-1.27-1.26-1.504-1.58-.317-.427-.233-.598 0-.982-.02 0 2.648-3.801 2.923-5.082z" fill="#fff"/></svg>